<svg id="linkedin-logo-button" xmlns="http://www.w3.org/2000/svg" viewBox="0 0 46 46"><defs><style>.cls-1{fill:#fff}</style></defs><g id="Group_139" data-name="Group 139"><g id="Group_138" data-name="Group 138"><path id="Path_111" data-name="Path 111" class="cls-1" d="M29.121 21.084c-2.125 0-2.469 1.18-3 2v-2h-4c.052 1.128 0 13 0 13h4v-7a3.089 3.089 0 0 1 0-1c.29-.72.894-2 2-2 1.448 0 2 1.38 2 3v7h4v-7c-.002-3.696-2.367-6-5-6zm-3 2c.008-.014 0 .014 0 0z" transform="translate(-2.121 -2.084)"/><path id="Rectangle_926" data-name="Rectangle 926" class="cls-1" transform="translate(14 19)" d="M0 0h4v13H0z"/><path id="Path_112" data-name="Path 112" class="cls-1" d="M23 0a23 23 0 1 0 23 23A23.026 23.026 0 0 0 23 0zm12 33a2.166 2.166 0 0 1-2 2H12c-1 0-1-1.022-1-2V12c0-.977 0-2 1-2h21a2.168 2.168 0 0 1 2 2z"/><path id="Path_113" data-name="Path 113" class="cls-1" d="M17.237 16.267a1.816 1.816 0 0 0-2 2 1.84 1.84 0 0 0 2 2c1.4 0 3-.845 3-2-.027-1.181-1.63-2-3-2z" transform="translate(-1.237 -1.267)"/></g></g></svg>