<svg xmlns="http://www.w3.org/2000/svg" viewBox="0 0 46 46"><defs><style>.cls-1{fill:#fff}</style></defs><g id="youtube-logotype" transform="translate(1 322)"><g id="Group_146" data-name="Group 146" transform="translate(-1 -322)"><path id="Path_123" data-name="Path 123" class="cls-1" d="M25.708 50.515h2v11h2v-11h2v-1h-6z" transform="translate(-13.708 -26.515)"/><path id="Path_124" data-name="Path 124" class="cls-1" d="M53.641 52.522a2.772 2.772 0 0 0-2 1v-4h-2v12h2v-1a2.745 2.745 0 0 0 2 1c.661 0 .778-.317 1-1a11.631 11.631 0 0 0 0-2v-4c0-.868.111-.631 0-1-.221-.687-.341-1-1-1zm0 6a.886.886 0 0 1-1 1c-.273 0-.722.278-1 0v-6c.278-.275.727 0 1 0a.887.887 0 0 1 1 1z" transform="translate(-26.641 -26.522)"/><path id="Path_125" data-name="Path 125" class="cls-1" d="M41.065 62.692c-.369.521-.666 0-1 0-.222 0-.96.258-1 0-.015-.053 0-.611 0-1v-6h-1v7c0 .648-.091.722 0 1 .167.465.466 1 1 1a2.627 2.627 0 0 0 2-1v1h1v-9h-1z" transform="translate(-20.065 -29.692)"/><path id="Path_126" data-name="Path 126" class="cls-1" d="M45.908 31.7c.541 0 1-.143 1-1v-4c0-.858-.459-1-1-1s-1 .143-1 1v4c0 .86.458 1 1 1z" transform="translate(-23.908 -13.702)"/><path id="Path_127" data-name="Path 127" class="cls-1" d="M23 0a23 23 0 1 0 23 23A23 23 0 0 0 23 0zm3 11h1v6c0 .368-.019.949 0 1 .034.243.79 0 1 0 .313 0-.348-.509 0-1v-6h2v8h-2v-1c-.624.715-.428 2-1 2-.5 0-.843-.562-1-1-.087-.262 0-.39 0-1v-7zm-6 3c0-.925-.333-1.563 0-2a2.5 2.5 0 0 1 4 0c.328.437 0 1.075 0 2v3c0 .92.328 1.568 0 2a2.5 2.5 0 0 1-4 0c-.333-.432 0-1.081 0-2zm-5-6l2 4 1-4h2l-2 7v4h-2v-4a28.036 28.036 0 0 0-1-4c-.366-1.077-.634-1.924-1-3zm20 27c-.314 1.364-.656 2.85-2 3-3.183.355-6.792 0-10 0s-6.818.355-10 0c-1.344-.15-1.687-1.635-2-3a27.434 27.434 0 0 1-1-6 27.467 27.467 0 0 1 1-6c.314-1.365.656-1.85 2-2a94.138 94.138 0 0 1 10-1 94.162 94.162 0 0 1 10 1c1.344.15 1.685.635 2 2a27.523 27.523 0 0 1 1 6 27.434 27.434 0 0 1-1 6z"/><path id="Path_128" data-name="Path 128" class="cls-1" d="M65.167 54.579a2.428 2.428 0 0 0-2 1 6.741 6.741 0 0 0-1 3v3a3.12 3.12 0 0 0 1 2 2.406 2.406 0 0 0 2 1 2.287 2.287 0 0 0 2-1c.2-.294-.055-.632 0-1 .016-.166 0-.464 0-1h-2c0 .666.015.91 0 1-.095.444.409 0 0 0-.571 0-1-.152-1-1v-2h3v-1c0-.98.348-2.536 0-3a2.433 2.433 0 0 0-2-1zm0 4h-1v-1c0-.848.445-1 1-1s0 .152 0 1z" transform="translate(-33.167 -29.579)"/></g></g></svg>