<svg xmlns="http://www.w3.org/2000/svg" viewBox="0 0 48.092 69.316"><defs><style>.cls-1{fill:#fff}</style></defs><g id="award"><g id="Group_77" data-name="Group 77"><g id="Group_76" data-name="Group 76"><path id="Path_83" data-name="Path 83" class="cls-1" d="M126.921 24c0-.286-.8-.8-1-1l-2-2 2-3c.143-.248.073.276 0 0a3.142 3.142 0 0 0-1-1l-2-1 1-3a1.586 1.586 0 0 0 0-1 3.1 3.1 0 0 0-1-1h-3V8a.95.95 0 0 0-1-1h-3l-1-3c-.074-.276.247-.857 0-1a1.572 1.572 0 0 0-1 0l-3 1-1-3c-.142-.248-.724.073-1 0a1.579 1.579 0 0 0-1 0l-2 1-2-2a1.74 1.74 0 0 0-2 0l-2 2-3-1c-.247-.142.277-.073 0 0s-.857-.248-1 0l-1 3-3-1a2.143 2.143 0 0 0-2 1v3h-3a.95.95 0 0 0-1 1v3h-3a2.14 2.14 0 0 0-1 2l1 3-3 1c-.248.142.073.724 0 1s-.142-.247 0 0l1 3-2 2c-.2.2 0 .714 0 1s-.2.8 0 1l2 2-1 2a1.572 1.572 0 0 0 0 1c.074.276-.247.857 0 1l3 1-1 3a1.586 1.586 0 0 0 0 1c.142.248.724-.073 1 0l3 1v3a.95.95 0 0 0 1 1h3v3a3.142 3.142 0 0 0 1 1 1.609 1.609 0 0 0 1 0l3-1 1 2c.3.515.485 1.3 1 1l3-2 2 2c.21.21.724 1 1 1s.79-.791 1-1l2-2 2 2c.513.3 1.7-.484 2-1l1-2 3 1a1.61 1.61 0 0 0 1 0c.248-.142-.073-.724 0-1l1-3h3a.949.949 0 0 0 1-1v-3l3-1c.275-.074.857.248 1 0a1.579 1.579 0 0 0 0-1l-1-3 2-1a3.1 3.1 0 0 0 1-1 1.579 1.579 0 0 0 0-1l-2-2 2-2c.202-.2 1-.714 1-1zm-5 3l1 2-2 2c-.422.245-.126.529 0 1v2l-2 1c-.471.126-1 .512-1 1v3h-3c-.488 0-.874.528-1 1l-1 2h-2c-.47-.126-.755-.422-1 0l-2 2-2-1c-.422-.242-.655-.345-1 0l-2 2-2-2c-.208-.207-.721 0-1 0-.184 0 .168-.1 0 0l-3 1-1-2c-.245-.425-.53-.127-1 0h-3v-2c-.126-.471-1.512-1-2-1h-2v-3c0-.488-.529-.874-1-1l-3-1 1-2c.126-.471.422-.756 0-1l-3-2 2-2c.244-.422-.655-.655-1-1l-1-2 1-2c.345-.345 1.244-.578 1-1l-2-3 3-1c.422-.245.126-.529 0-1l-1-3h3c.471-.126 1-1.512 1-2V9h2c.488 0 1.874-.529 2-1V5l3 1c.471.126.755.422 1 0l1-3 3 2c.421.245.656-.655 1-1l2-1 2 1c.345.346.578 1.242 1 1l2-2 2 3c.244.422.529.125 1 0l2-1 1 3c.126.471.512 1 1 1h3v2c0 .488.528 1.874 1 2h2v3c-.126.471-.422.756 0 1l2 1-1 3c-.245.422-.345.655 0 1l2 2-2 2c-.345.345-.245.578 0 1z" transform="translate(-78.831 .316)"/></g></g><g id="Group_79" data-name="Group 79" transform="translate(.933 41.316)"><g id="Group_78" data-name="Group 78"><path id="Path_84" data-name="Path 84" class="cls-1" d="M107.33 310.527l-10 21-2-5c-.226-.4-.556-.079-1 0l-5 1 9-20-2-1-10 22a.879.879 0 0 0 0 1c.246.319.6.07 1 0l7-1 3 5c.192.338.614 1 1 1 .4-.015.83-.635 1-1l10-22z" transform="translate(-86.173 -306.527)"/></g></g><g id="Group_81" data-name="Group 81" transform="translate(24.09 41.316)"><g id="Group_80" data-name="Group 80"><path id="Path_85" data-name="Path 85" class="cls-1" d="M278.693 328.52l-10-22-2 1 9 20-5-1c-.454-.084-.774-.4-1 0l-3 5-9-21-2 1 10 22c.171.365.6.984 1 1 .015 0-.014 0 0 0 .386 0 .8-.661 1-1l3-5 6 1c.4.073.754.32 1 0s1.17-.634 1-1z" transform="translate(-255.693 -306.52)"/></g></g><g id="Group_83" data-name="Group 83" transform="translate(9.09 9.316)"><g id="Group_82" data-name="Group 82"><path id="Path_86" data-name="Path 86" class="cls-1" d="M169.893 69.967a13.2 13.2 0 0 0-10-4 15 15 0 1 0 15 15c.001-3.997-2.166-8.167-5-11zm-10 24a13 13 0 0 1 0-26 13.718 13.718 0 0 1 13 13 13.138 13.138 0 0 1-13 13z" transform="translate(-144.893 -65.967)"/></g></g></g></svg>