<svg xmlns="http://www.w3.org/2000/svg" viewBox="0 0 31.076 30.624"><defs><style>.cls-1{fill:#97999a}</style></defs><g id="Group_453" data-name="Group 453" transform="translate(11869 -4568)"><path id="Path_160" data-name="Path 160" class="cls-1" d="M30.046 161.684h-9.975l-1.783 1.781a2.911 2.911 0 0 1-.339.28h11.067v6.867l-1.07-3.767a1.031 1.031 0 0 0-.991-.749H5.154v-5.732h5.9l-1.674-1.676a2.892 2.892 0 0 1-.321-.385H4.123a1.03 1.03 0 0 0-1.031 1.031v6.766h-2.06a1.03 1.03 0 0 0-.991 1.312l2.971 10.357a1.764 1.764 0 0 0 1.7 1.277h24.601a1.764 1.764 0 0 0 1.764-1.764v-14.567a1.03 1.03 0 0 0-1.031-1.031z" transform="translate(-11869.001 4419.58)"/><path id="Path_161" data-name="Path 161" class="cls-1" d="M170.738 17.135a.854.854 0 0 0 1.21 0l4.787-4.785a.856.856 0 0 0-.6-1.461h-2.091V4.683a1.14 1.14 0 0 0-1.14-1.14h-3.11a1.138 1.138 0 0 0-1.138 1.14v6.205h-2.093a.856.856 0 0 0-.6 1.461z" transform="translate(-12024.12 4564.457)"/></g></svg>