<svg xmlns="http://www.w3.org/2000/svg" viewBox="0 0 37.613 37.614"><path data-name="Subtraction 1" d="M18.804 37.613A18.809 18.809 0 0 1 5.505 5.508 18.806 18.806 0 1 1 32.097 32.1a18.682 18.682 0 0 1-13.293 5.513zM14.097 7.792a1.676 1.676 0 0 0-1.176.433 1.814 1.814 0 0 0 0 2.354l8.23 8.226-8.23 8.231c-.3.3-.434.439-.434.585s.135.286.434.586a1.791 1.791 0 0 0 2.352 0l9.4-8.226c.2-.193.129-.481.064-.761v-.026a1.31 1.31 0 0 1 0-.775V18.392c.064-.281.131-.571-.064-.765l-9.4-9.4a1.669 1.669 0 0 0-1.176-.435z" fill="#fff"/></svg>