<svg xmlns="http://www.w3.org/2000/svg" viewBox="0 0 66.82 66.821"><defs><style>.cls-1{fill:#fff}</style></defs><g id="settings" transform="translate(-.002)"><path id="Path_254" data-name="Path 254" class="cls-1" d="M54.427 72.982A1.36 1.36 0 0 0 52.5 74.9l2.643 2.643a3.352 3.352 0 0 1 0 4.74l-.067.067a3.352 3.352 0 0 1-4.741 0L47.7 79.713a1.36 1.36 0 0 0-1.715-.17 22.485 22.485 0 0 1-8.085 3.348 1.36 1.36 0 0 0-1.092 1.333v3.735a3.356 3.356 0 0 1-3.352 3.352h-.1a3.356 3.356 0 0 1-3.352-3.352v-3.734a1.36 1.36 0 0 0-1.093-1.333 22.489 22.489 0 0 1-8.078-3.349 1.36 1.36 0 0 0-1.715.17l-2.643 2.643a3.352 3.352 0 0 1-4.74 0l-.067-.067a3.352 3.352 0 0 1 0-4.741l2.651-2.648a1.36 1.36 0 0 0 .17-1.715 22.487 22.487 0 0 1-3.349-8.078 1.36 1.36 0 0 0-1.333-1.087H6.073a3.356 3.356 0 0 1-3.352-3.352v-.1a3.356 3.356 0 0 1 3.352-3.352h3.734a1.36 1.36 0 0 0 1.333-1.092 22.49 22.49 0 0 1 3.349-8.078 1.36 1.36 0 0 0-.17-1.715l-2.643-2.643a3.352 3.352 0 0 1 0-4.741l.067-.067a3.352 3.352 0 0 1 4.74 0l2.643 2.643A1.36 1.36 0 0 0 21.05 39.6l-2.643-2.643a6.071 6.071 0 0 0-8.586 0l-.067.067a6.071 6.071 0 0 0 0 8.586l1.873 1.873A25.151 25.151 0 0 0 8.718 54.5H6.073A6.078 6.078 0 0 0 0 60.572v.1a6.078 6.078 0 0 0 6.072 6.071h2.646a25.136 25.136 0 0 0 2.908 7.013l-1.873 1.869a6.071 6.071 0 0 0 0 8.586l.067.067a6.071 6.071 0 0 0 8.586 0l1.873-1.873a25.141 25.141 0 0 0 7.013 2.908v2.645a6.079 6.079 0 0 0 6.072 6.072h.1a6.079 6.079 0 0 0 6.072-6.072v-2.644a25.137 25.137 0 0 0 7.013-2.908l1.873 1.873a6.071 6.071 0 0 0 8.586 0l.067-.067a6.07 6.07 0 0 0 0-8.586z" transform="translate(0 -27.209)"/><path id="Path_255" data-name="Path 255" class="cls-1" d="M153.88 27.292h-2.645a25.141 25.141 0 0 0-2.908-7.013l1.873-1.873a6.078 6.078 0 0 0 0-8.586l-.067-.067a6.071 6.071 0 0 0-8.586 0l-1.873 1.873a25.14 25.14 0 0 0-7.013-2.908V6.072A6.079 6.079 0 0 0 126.589 0h-.1a6.079 6.079 0 0 0-6.072 6.072v3.734a1.36 1.36 0 1 0 2.72 0V6.072a3.356 3.356 0 0 1 3.352-3.352h.1a3.356 3.356 0 0 1 3.352 3.352v3.734a1.36 1.36 0 0 0 1.092 1.333 22.493 22.493 0 0 1 8.078 3.349 1.36 1.36 0 0 0 1.715-.17l2.643-2.643a3.352 3.352 0 0 1 4.74 0l.067.067a3.352 3.352 0 0 1 0 4.741l-2.643 2.643a1.36 1.36 0 0 0-.17 1.715 22.486 22.486 0 0 1 3.349 8.078 1.36 1.36 0 0 0 1.333 1.092h3.735a3.356 3.356 0 0 1 3.352 3.352v.1a3.356 3.356 0 0 1-3.352 3.352h-3.735a1.36 1.36 0 0 0 0 2.72h3.735a6.078 6.078 0 0 0 6.072-6.071v-.1a6.078 6.078 0 0 0-6.072-6.072z" transform="translate(-93.129)"/><path id="Path_256" data-name="Path 256" class="cls-1" d="M120.662 125.784a5.063 5.063 0 0 1-3.223-1.141 1.36 1.36 0 1 0-1.712 2.113 7.842 7.842 0 1 0-2.907-6.095 1.36 1.36 0 0 0 2.72 0 5.122 5.122 0 1 1 5.122 5.123z" transform="translate(-87.25 -87.25)"/></g></svg>