<svg id="light-bulb" xmlns="http://www.w3.org/2000/svg" viewBox="0 0 48 70"><defs><style>.cls-1{fill:#fff}</style></defs><g id="Group_365" data-name="Group 365"><path id="Path_154" data-name="Path 154" class="cls-1" d="M40.206 51h-22a1.064 1.064 0 0 1-1-1 16.082 16.082 0 0 0-4-8 22.9 22.9 0 0 1-8-18 24 24 0 0 1 48 0c0 7.09-3.547 13.448-9 18-2.092 2.19-2.742 5.816-3 8a1.059 1.059 0 0 1-1 1zm-21-3h20c.4-2.406 1.72-4.626 4-7a22.35 22.35 0 0 0 8-17 22.22 22.22 0 0 0-22-22 22.217 22.217 0 0 0-22 22 22.525 22.525 0 0 0 8 17c.064.053-.049-.066 0 0 2.214 2.357 3.605 4.628 4 7z" transform="translate(-5.206)"/><path id="Path_155" data-name="Path 155" class="cls-1" d="M34 27.813H12a1 1 0 0 1 0-2h22a1 1 0 0 1 0 2z" transform="translate(1.003 29.187)"/><path id="Path_156" data-name="Path 156" class="cls-1" d="M34 31.378H12c-.589 0-1-1.411-1-2a.956.956 0 0 1 1-1h22a.956.956 0 0 1 1 1c0 .59-.412 2-1 2z" transform="translate(1.003 32.622)"/><path id="Path_157" data-name="Path 157" class="cls-1" d="M24.562 33.943h-10a1 1 0 0 1 0-2h10a1 1 0 0 1 0 2z" transform="translate(4.438 36.057)"/></g></svg>