<svg xmlns="http://www.w3.org/2000/svg" viewBox="0 0 32.029 33.217"><defs><style>.cls-1{fill:#fff}</style></defs><g id="Group_212" data-name="Group 212" transform="translate(-132 -746.1)"><g id="controls" transform="translate(132 746.1)"><path id="Path_140" data-name="Path 140" class="cls-1" d="M5.152 8.295a4.154 4.154 0 0 0 4.1-3.555h23.18a.592.592 0 1 0 0-1.185H9.257a4.149 4.149 0 1 0-4.1 4.74zm0-7.11a2.962 2.962 0 1 1-2.966 2.962 2.967 2.967 0 0 1 2.966-2.962z" transform="translate(-1)"/><path id="Path_141" data-name="Path 141" class="cls-1" d="M28.878 42a4.154 4.154 0 0 0-4.1 3.555H1.593a.592.592 0 1 0 0 1.185h23.18a4.149 4.149 0 1 0 4.1-4.74zm0 7.11a2.962 2.962 0 1 1 2.966-2.962 2.967 2.967 0 0 1-2.966 2.962z" transform="translate(-1 -17.079)"/><path id="Path_142" data-name="Path 142" class="cls-1" d="M32.437 24.386H21.385a4.274 4.274 0 0 0-8.5 0H1.593a.592.592 0 1 0 0 1.185h11.335a4.27 4.27 0 0 0 8.42 0h11.089a.592.592 0 1 0 0-1.185zm-15.3 3.555a3.085 3.085 0 1 1 3.089-3.085 3.09 3.09 0 0 1-3.088 3.085z" transform="translate(-1 -8.371)"/></g></g></svg>