<svg height="512pt" viewBox="-81 0 512 512" width="512pt" xmlns="http://www.w3.org/2000/svg"><path d="M174.965 279.71c57.754 0 104.738-46.987 104.738-104.741S232.72 70.227 174.965 70.227c-25.86 0-50.688 9.5-69.918 26.753a7.5 7.5 0 0 0 10.016 11.165c16.472-14.778 37.746-22.918 59.902-22.918 49.48 0 89.738 40.257 89.738 89.742 0 49.48-40.258 89.742-89.738 89.742s-89.738-40.262-89.738-89.742c0-15.012 3.777-29.864 10.921-42.946a7.498 7.498 0 0 0-2.988-10.175 7.498 7.498 0 0 0-10.176 2.988c-8.347 15.281-12.757 32.617-12.757 50.133 0 57.754 46.984 104.742 104.738 104.742zm0 0"/><path d="M156.027 226.895a22.57 22.57 0 0 0 13.934 4.835c5.98 0 11.61-2.32 15.851-6.527l52.801-52.398c8.809-8.739 8.864-23.016.121-31.82-8.734-8.805-23.007-8.864-31.816-.126l-38.66 38.364-27.61-21.778c-9.738-7.683-23.914-6.011-31.601 3.73-7.684 9.74-6.008 23.919 3.73 31.602zm-35.207-56.426c4.102-4.867 9.164-2.328 10.535-1.246l32.825 25.894a7.505 7.505 0 0 0 9.93-.566l43.37-43.04c2.934-2.913 7.696-2.898 10.606.04 2.914 2.933 2.898 7.691-.04 10.605l-52.8 52.399a7.447 7.447 0 0 1-5.285 2.175 7.402 7.402 0 0 1-4.645-1.613L122.066 181c-3.246-2.563-3.91-7.371-1.246-10.531zm0 0"/><path d="M335.91 426.414c-22.828-17.14-42.035-44.195-57.09-80.406a7.5 7.5 0 1 0-13.851 5.758c16.097 38.718 36.933 67.87 61.937 86.644 1.735 1.3 1.617 3.106 1.489 3.817-.13.726-.668 2.488-2.797 3.113-13.66 4.008-26.317 5.7-37.621 5.035-13.41-.785-25.204 8.547-27.477 21.719a121.16 121.16 0 0 0-1.75 18.304c-.066 3.68-2.617 5.344-3.715 5.887-1.09.547-3.953 1.578-6.922-.582-17.965-13.062-43.535-36.219-64.59-72.894 14.336-26.899 26.211-60.137 31.922-100.743l25.203 7.141c7.399 2.098 15.149 1.133 21.809-2.719 6.66-3.847 11.36-10.078 13.238-17.539l6.688-26.558 26.558-6.688c7.461-1.879 13.692-6.582 17.54-13.242 3.851-6.66 4.816-14.406 2.718-21.809l-7.465-26.347 19.653-19.114c5.508-5.359 8.539-12.539 8.539-20.222 0-7.688-3.031-14.867-8.54-20.227l-19.652-19.113 7.465-26.348c2.098-7.402 1.133-15.148-2.719-21.808-3.847-6.66-10.078-11.364-17.535-13.243l-26.558-6.687-6.692-26.559c-1.879-7.46-6.582-13.691-13.242-17.539-6.656-3.847-14.402-4.812-21.805-2.718l-26.347 7.464-19.114-19.648C189.828 3.035 182.648 0 174.965 0s-14.867 3.035-20.227 8.543l-19.11 19.652-26.35-7.465c-7.4-2.097-15.145-1.132-21.805 2.715-6.66 3.852-11.364 10.078-13.243 17.54l-6.687 26.558-26.559 6.687c-7.46 1.88-13.687 6.582-17.539 13.243-3.851 6.66-4.812 14.406-2.718 21.808l7.464 26.348L8.54 154.742C3.031 160.102 0 167.282 0 174.97c0 7.683 3.031 14.867 8.54 20.222l19.651 19.114-7.464 26.347c-2.098 7.403-1.133 15.149 2.718 21.809 3.848 6.66 10.078 11.363 17.535 13.242l26.56 6.688 6.69 26.558a28.07 28.07 0 0 0 6.184 11.77c-19.812 60.902-46.93 91.074-66.398 105.691-5.75 4.32-8.528 11.406-7.243 18.492 1.29 7.114 6.399 12.797 13.332 14.832 15.32 4.493 29.696 6.383 42.73 5.614 5.786-.325 10.837 3.656 11.81 9.297a105.23 105.23 0 0 1 1.535 16.02c.144 8.128 4.64 21.331 21.703 21.331 18.941 0 55.578-39.531 77.07-74.277C196.406 472.414 232.993 512 252.047 512c16.426 0 21.558-13.203 21.703-21.332a105.77 105.77 0 0 1 1.531-16.023c.977-5.641 6.055-9.63 11.813-9.297 13.035.77 27.41-1.121 42.726-5.614 6.938-2.035 12.047-7.718 13.336-14.832 1.285-7.086-1.492-14.168-7.246-18.488zM75.55 268.938l-30.905-7.782a13.113 13.113 0 0 1-8.211-6.199 13.127 13.127 0 0 1-1.274-10.215l8.688-30.648a7.501 7.501 0 0 0-1.989-7.422l-22.855-22.234a13.092 13.092 0 0 1-4-9.47 13.1 13.1 0 0 1 4-9.472l22.855-22.23a7.501 7.501 0 0 0 1.989-7.422L35.16 105.19a13.118 13.118 0 0 1 1.274-10.21 13.103 13.103 0 0 1 8.214-6.204l30.907-7.78a7.51 7.51 0 0 0 5.441-5.442l7.781-30.91a13.103 13.103 0 0 1 6.2-8.211 13.103 13.103 0 0 1 10.21-1.274l30.653 8.684a7.49 7.49 0 0 0 7.422-1.985L165.492 19c2.512-2.578 5.871-4 9.473-4 3.597 0 6.96 1.422 9.472 4l22.231 22.86a7.486 7.486 0 0 0 7.418 1.984l30.652-8.684a13.118 13.118 0 0 1 10.211 1.274 13.092 13.092 0 0 1 6.203 8.214l7.782 30.907a7.503 7.503 0 0 0 5.441 5.441l30.906 7.781a13.095 13.095 0 0 1 8.211 6.203 13.101 13.101 0 0 1 1.274 10.211l-8.684 30.653a7.501 7.501 0 0 0 1.984 7.422l22.86 22.23a13.11 13.11 0 0 1 4 9.473c0 3.597-1.422 6.96-4 9.469l-22.86 22.234a7.492 7.492 0 0 0-1.984 7.418l8.684 30.652a13.11 13.11 0 0 1-1.274 10.215 13.103 13.103 0 0 1-8.21 6.2l-30.907 7.78a7.497 7.497 0 0 0-5.441 5.442l-7.786 30.91a13.1 13.1 0 0 1-6.199 8.211 13.103 13.103 0 0 1-10.21 1.273l-30.65-8.683a7.508 7.508 0 0 0-7.421 1.984l-22.23 22.86a13.107 13.107 0 0 1-9.473 4 13.1 13.1 0 0 1-9.473-4l-22.23-22.856c-1.434-1.473-3.516-3.101-7.422-1.988l-30.649 8.683a13.11 13.11 0 0 1-10.214-1.273 13.1 13.1 0 0 1-6.2-8.215l-7.78-30.906a7.508 7.508 0 0 0-5.446-5.441zm26.262 226.765c-2.968 2.16-5.828 1.129-6.921.582-1.094-.543-3.649-2.207-3.715-5.887a120.61 120.61 0 0 0-1.75-18.304c-2.274-13.172-14.063-22.504-27.477-21.719-11.3.664-23.96-1.027-37.62-5.035-2.13-.625-2.665-2.387-2.798-3.113-.129-.715-.242-2.516 1.492-3.82C59.523 411 81.215 365.327 93.45 329.077c5.11 1.555 10.555 1.621 15.828.125l26.348-7.465 19.113 19.653c5.36 5.507 12.543 8.543 20.227 8.543 15.445 0 22.344-10.723 22.344-10.723-17.832 88.168-66.61 135.484-95.497 156.492zm0 0"/></svg>