<svg id="united-kingdom" xmlns="http://www.w3.org/2000/svg" viewBox="0 0 25.943 25.943"><defs><style>.cls-2{fill:#0052b4}.cls-3{fill:#d80027}</style></defs><circle id="Ellipse_72" data-name="Ellipse 72" cx="12.972" cy="12.972" r="12.972" fill="#f0f0f0"/><g id="Group_661" data-name="Group 661" transform="translate(.447 .447)"><path id="Path_197" data-name="Path 197" class="cls-2" d="M11.054 100.142a12.924 12.924 0 0 0-2.235 4.514h6.748z" transform="translate(-8.819 -95.515)"/><path id="Path_198" data-name="Path 198" class="cls-2" d="M376.753 104.657a12.926 12.926 0 0 0-2.235-4.514l-4.513 4.514z" transform="translate(-351.704 -95.516)"/><path id="Path_199" data-name="Path 199" class="cls-2" d="M8.819 322.784a12.926 12.926 0 0 0 2.235 4.513l4.513-4.513z" transform="translate(-8.819 -306.875)"/><path id="Path_200" data-name="Path 200" class="cls-2" d="M327.3 11.054a12.925 12.925 0 0 0-4.514-2.235v6.748z" transform="translate(-306.873 -8.819)"/><path id="Path_201" data-name="Path 201" class="cls-2" d="M100.142 374.518a12.926 12.926 0 0 0 4.514 2.235v-6.748z" transform="translate(-95.515 -351.704)"/><path id="Path_202" data-name="Path 202" class="cls-2" d="M104.655 8.819a12.926 12.926 0 0 0-4.513 2.235l4.513 4.513z" transform="translate(-95.515 -8.819)"/><path id="Path_203" data-name="Path 203" class="cls-2" d="M322.783 376.753a12.926 12.926 0 0 0 4.513-2.235l-4.513-4.513z" transform="translate(-306.874 -351.704)"/><path id="Path_204" data-name="Path 204" class="cls-2" d="M370.005 322.784l4.513 4.514a12.926 12.926 0 0 0 2.235-4.514z" transform="translate(-351.704 -306.875)"/></g><g id="Group_662" data-name="Group 662"><path id="Path_205" data-name="Path 205" class="cls-3" d="M25.834 11.28h-11.17V.11a13.091 13.091 0 0 0-3.384 0v11.17H.11a13.091 13.091 0 0 0 0 3.384h11.17v11.17a13.091 13.091 0 0 0 3.384 0v-11.17h11.17a13.091 13.091 0 0 0 0-3.384z"/><path id="Path_206" data-name="Path 206" class="cls-3" d="M322.783 322.783l5.788 5.788q.4-.4.763-.833l-4.956-4.956h-1.6z" transform="translate(-306.427 -306.427)"/><path id="Path_207" data-name="Path 207" class="cls-3" d="M80.768 322.784l-5.788 5.788q.4.4.833.763l4.956-4.956z" transform="translate(-71.181 -306.428)"/><path id="Path_208" data-name="Path 208" class="cls-3" d="M66.484 80.769L60.7 74.98q-.4.4-.762.833l4.956 4.956h1.6z" transform="translate(-56.896 -71.181)"/><path id="Path_209" data-name="Path 209" class="cls-3" d="M322.783 66.485l5.788-5.789q-.4-.4-.833-.762l-4.956 4.956z" transform="translate(-306.427 -56.897)"/></g></svg>