<svg xmlns="http://www.w3.org/2000/svg" viewBox="0 0 63.225 68.365"><g data-name="Group 75" opacity=".844"><path data-name="Path 82" d="M60.007.357c-.091-.336-.691.161-1 0-.609-.322-.678-.609-1 0 0 .034-6.6 11.863-26 14a22.694 22.694 0 0 0-7 2 20.944 20.944 0 0 0-10 9c-2.025 3.752-3.459 8.761-3 13a17.8 17.8 0 0 0 3 8c-3.446 2.474-14.014 11.819-15 21-.072.685.315.928 1 1s.928-.315 1-1c.9-8.2 11.8-16.7 15-19a22.813 22.813 0 0 0 16 8 26.015 26.015 0 0 0 12-2c4.157-1.744 7.13-4.524 10-8 7.396-8.96 11.445-24.136 5-46zm-42 45c-.476-.749-1.64-1.189-2-2-.757-1.712-.8-4.139-1-6a15.959 15.959 0 0 1 2-10 19.035 19.035 0 0 1 9-8 19.111 19.111 0 0 1 6-2c12.807-1.379 20.113-6.864 24-11a50.807 50.807 0 0 1-11 20l-1-8c-.039-.688-.312-1.039-1-1s-1.039 1.312-1 2c0 .034 0-.034 0 0l1 9a79.864 79.864 0 0 1-25 17zm36 0a25.611 25.611 0 0 1-10 7 24.121 24.121 0 0 1-11 2 20.977 20.977 0 0 1-14-7 93.208 93.208 0 0 0 12-6l11 2c.681.107.893-.319 1-1 .1-.657-.349-1.864-1-2l-8-1a73.83 73.83 0 0 0 11-9c.06-.052-.05.063 0 0a57.536 57.536 0 0 0 14-24c4.26 18.169 1.348 31.322-5 39z" fill="#fff"/></g></svg>