<svg xmlns="http://www.w3.org/2000/svg">
    <symbol id="arrow-left" viewBox="0 0 13.682 24">
        <path d="M.493 10.812L10.813.493A1.681 1.681 0 1 1 13.19 2.87L4.058 12l9.131 9.131a1.681 1.681 0 1 1-2.377 2.377L.492 13.189a1.68 1.68 0 0 1 0-2.376z"/>
    </symbol>

    <symbol id="arrow-right" viewBox="0 0 13.682 24">
        <path d="M13.188 13.188L2.868 23.507A1.681 1.681 0 1 1 .491 21.13L9.623 12 .492 2.869A1.681 1.681 0 1 1 2.869.492l10.32 10.319a1.68 1.68 0 0 1 0 2.376z"/>
    </symbol>

    <symbol id="arrow-right-circle" viewBox="0 0 455.992 455.992">
        <path d="M227.996 0C102.081 0 0 102.081 0 227.996c0 125.945 102.081 227.996 227.996 227.996 125.945 0 227.996-102.051 227.996-227.996C455.992 102.081 353.941 0 227.996 0zm71.439 238.788l-98.585 98.585c-5.928 5.897-15.565 5.897-21.492 0-5.928-5.928-5.928-15.595 0-21.492l87.885-87.885-87.885-87.885c-5.928-5.928-5.928-15.565 0-21.492s15.565-5.928 21.492 0l98.585 98.585c3.04 2.979 4.469 6.901 4.438 10.792 0 3.922-1.459 7.813-4.438 10.792z"/>
    </symbol>

    <symbol id="arrow-right-thin" viewBox="0 0 8.564 16">
        <path d="M.966 15.834a.566.566 0 0 1-.8 0 .566.566 0 0 1 0-.8L7.2 8 .166.966a.566.566 0 1 1 .8-.8L8.4 7.6a.566.566 0 0 1 0 .8z"/>
    </symbol>

    <symbol id="award" viewBox="-81 0 512 512">
        <path d="M174.965 279.71c57.754 0 104.738-46.987 104.738-104.741S232.72 70.227 174.965 70.227c-25.86 0-50.688 9.5-69.918 26.753a7.5 7.5 0 0 0 10.016 11.165c16.472-14.778 37.746-22.918 59.902-22.918 49.48 0 89.738 40.257 89.738 89.742 0 49.48-40.258 89.742-89.738 89.742s-89.738-40.262-89.738-89.742c0-15.012 3.777-29.864 10.921-42.946a7.498 7.498 0 0 0-2.988-10.175 7.498 7.498 0 0 0-10.176 2.988c-8.347 15.281-12.757 32.617-12.757 50.133 0 57.754 46.984 104.742 104.738 104.742zm0 0"/>
        <path d="M156.027 226.895a22.57 22.57 0 0 0 13.934 4.835c5.98 0 11.61-2.32 15.851-6.527l52.801-52.398c8.809-8.739 8.864-23.016.121-31.82-8.734-8.805-23.007-8.864-31.816-.126l-38.66 38.364-27.61-21.778c-9.738-7.683-23.914-6.011-31.601 3.73-7.684 9.74-6.008 23.919 3.73 31.602zm-35.207-56.426c4.102-4.867 9.164-2.328 10.535-1.246l32.825 25.894a7.505 7.505 0 0 0 9.93-.566l43.37-43.04c2.934-2.913 7.696-2.898 10.606.04 2.914 2.933 2.898 7.691-.04 10.605l-52.8 52.399a7.447 7.447 0 0 1-5.285 2.175 7.402 7.402 0 0 1-4.645-1.613L122.066 181c-3.246-2.563-3.91-7.371-1.246-10.531zm0 0"/>
        <path d="M335.91 426.414c-22.828-17.14-42.035-44.195-57.09-80.406a7.5 7.5 0 1 0-13.851 5.758c16.097 38.718 36.933 67.87 61.937 86.644 1.735 1.3 1.617 3.106 1.489 3.817-.13.726-.668 2.488-2.797 3.113-13.66 4.008-26.317 5.7-37.621 5.035-13.41-.785-25.204 8.547-27.477 21.719a121.16 121.16 0 0 0-1.75 18.304c-.066 3.68-2.617 5.344-3.715 5.887-1.09.547-3.953 1.578-6.922-.582-17.965-13.062-43.535-36.219-64.59-72.894 14.336-26.899 26.211-60.137 31.922-100.743l25.203 7.141c7.399 2.098 15.149 1.133 21.809-2.719 6.66-3.847 11.36-10.078 13.238-17.539l6.688-26.558 26.558-6.688c7.461-1.879 13.692-6.582 17.54-13.242 3.851-6.66 4.816-14.406 2.718-21.809l-7.465-26.347 19.653-19.114c5.508-5.359 8.539-12.539 8.539-20.222 0-7.688-3.031-14.867-8.54-20.227l-19.652-19.113 7.465-26.348c2.098-7.402 1.133-15.148-2.719-21.808-3.847-6.66-10.078-11.364-17.535-13.243l-26.558-6.687-6.692-26.559c-1.879-7.46-6.582-13.691-13.242-17.539-6.656-3.847-14.402-4.812-21.805-2.718l-26.347 7.464-19.114-19.648C189.828 3.035 182.648 0 174.965 0s-14.867 3.035-20.227 8.543l-19.11 19.652-26.35-7.465c-7.4-2.097-15.145-1.132-21.805 2.715-6.66 3.852-11.364 10.078-13.243 17.54l-6.687 26.558-26.559 6.687c-7.46 1.88-13.687 6.582-17.539 13.243-3.851 6.66-4.812 14.406-2.718 21.808l7.464 26.348L8.54 154.742C3.031 160.102 0 167.282 0 174.97c0 7.683 3.031 14.867 8.54 20.222l19.651 19.114-7.464 26.347c-2.098 7.403-1.133 15.149 2.718 21.809 3.848 6.66 10.078 11.363 17.535 13.242l26.56 6.688 6.69 26.558a28.07 28.07 0 0 0 6.184 11.77c-19.812 60.902-46.93 91.074-66.398 105.691-5.75 4.32-8.528 11.406-7.243 18.492 1.29 7.114 6.399 12.797 13.332 14.832 15.32 4.493 29.696 6.383 42.73 5.614 5.786-.325 10.837 3.656 11.81 9.297a105.23 105.23 0 0 1 1.535 16.02c.144 8.128 4.64 21.331 21.703 21.331 18.941 0 55.578-39.531 77.07-74.277C196.406 472.414 232.993 512 252.047 512c16.426 0 21.558-13.203 21.703-21.332a105.77 105.77 0 0 1 1.531-16.023c.977-5.641 6.055-9.63 11.813-9.297 13.035.77 27.41-1.121 42.726-5.614 6.938-2.035 12.047-7.718 13.336-14.832 1.285-7.086-1.492-14.168-7.246-18.488zM75.55 268.938l-30.905-7.782a13.113 13.113 0 0 1-8.211-6.199 13.127 13.127 0 0 1-1.274-10.215l8.688-30.648a7.501 7.501 0 0 0-1.989-7.422l-22.855-22.234a13.092 13.092 0 0 1-4-9.47 13.1 13.1 0 0 1 4-9.472l22.855-22.23a7.501 7.501 0 0 0 1.989-7.422L35.16 105.19a13.118 13.118 0 0 1 1.274-10.21 13.103 13.103 0 0 1 8.214-6.204l30.907-7.78a7.51 7.51 0 0 0 5.441-5.442l7.781-30.91a13.103 13.103 0 0 1 6.2-8.211 13.103 13.103 0 0 1 10.21-1.274l30.653 8.684a7.49 7.49 0 0 0 7.422-1.985L165.492 19c2.512-2.578 5.871-4 9.473-4 3.597 0 6.96 1.422 9.472 4l22.231 22.86a7.486 7.486 0 0 0 7.418 1.984l30.652-8.684a13.118 13.118 0 0 1 10.211 1.274 13.092 13.092 0 0 1 6.203 8.214l7.782 30.907a7.503 7.503 0 0 0 5.441 5.441l30.906 7.781a13.095 13.095 0 0 1 8.211 6.203 13.101 13.101 0 0 1 1.274 10.211l-8.684 30.653a7.501 7.501 0 0 0 1.984 7.422l22.86 22.23a13.11 13.11 0 0 1 4 9.473c0 3.597-1.422 6.96-4 9.469l-22.86 22.234a7.492 7.492 0 0 0-1.984 7.418l8.684 30.652a13.11 13.11 0 0 1-1.274 10.215 13.103 13.103 0 0 1-8.21 6.2l-30.907 7.78a7.497 7.497 0 0 0-5.441 5.442l-7.786 30.91a13.1 13.1 0 0 1-6.199 8.211 13.103 13.103 0 0 1-10.21 1.273l-30.65-8.683a7.508 7.508 0 0 0-7.421 1.984l-22.23 22.86a13.107 13.107 0 0 1-9.473 4 13.1 13.1 0 0 1-9.473-4l-22.23-22.856c-1.434-1.473-3.516-3.101-7.422-1.988l-30.649 8.683a13.11 13.11 0 0 1-10.214-1.273 13.1 13.1 0 0 1-6.2-8.215l-7.78-30.906a7.508 7.508 0 0 0-5.446-5.441zm26.262 226.765c-2.968 2.16-5.828 1.129-6.921.582-1.094-.543-3.649-2.207-3.715-5.887a120.61 120.61 0 0 0-1.75-18.304c-2.274-13.172-14.063-22.504-27.477-21.719-11.3.664-23.96-1.027-37.62-5.035-2.13-.625-2.665-2.387-2.798-3.113-.129-.715-.242-2.516 1.492-3.82C59.523 411 81.215 365.327 93.45 329.077c5.11 1.555 10.555 1.621 15.828.125l26.348-7.465 19.113 19.653c5.36 5.507 12.543 8.543 20.227 8.543 15.445 0 22.344-10.723 22.344-10.723-17.832 88.168-66.61 135.484-95.497 156.492zm0 0"/>
    </symbol>

    <symbol id="cancel" viewBox="0 0 10.71 10.71">
        <path d="M.111 10.6a.378.378 0 0 0 .535 0l4.71-4.71 4.709 4.71a.369.369 0 0 0 .267.111.385.385 0 0 0 .268-.111.378.378 0 0 0 0-.535l-4.71-4.71L10.6.645a.378.378 0 0 0-.535-.535l-4.71 4.71L.645.11A.378.378 0 0 0 .11.645l4.71 4.71-4.71 4.71a.378.378 0 0 0 .001.535z"/>
    </symbol>

    <symbol id="check" viewBox="0 0 16.989 12.361">
        <path d="M16.799.192a.653.653 0 0 0-.924 0L5.281 10.784 1.115 6.618a.653.653 0 0 0-.924.924l4.628 4.629a.654.654 0 0 0 .924 0L16.799 1.116a.653.653 0 0 0 0-.924z"/>
    </symbol>

    <symbol id="download" viewBox="0 0 28.146 28.146">
        <path d="M14.073 0a14.073 14.073 0 1 0 14.073 14.073A14.073 14.073 0 0 0 14.073 0zm5.749 14.846l-4.976 4.976a.862.862 0 0 1-.773.228.865.865 0 0 1-.773-.228l-4.976-4.976A.879.879 0 0 1 9.568 13.6l3.626 3.625V7.916a.88.88 0 0 1 1.759 0v9.311l3.624-3.627a.88.88 0 0 1 1.245 1.244z"/>
    </symbol>

    <symbol id="download-folder" viewBox="0 0 31.076 30.624">
        <g transform="translate(11869 -4568)">
            <path d="M30.046 161.684h-9.975l-1.783 1.781a2.911 2.911 0 0 1-.339.28h11.067v6.867l-1.07-3.767a1.031 1.031 0 0 0-.991-.749H5.154v-5.732h5.9l-1.674-1.676a2.892 2.892 0 0 1-.321-.385H4.123a1.03 1.03 0 0 0-1.031 1.031v6.766h-2.06a1.03 1.03 0 0 0-.991 1.312l2.971 10.357a1.764 1.764 0 0 0 1.7 1.277h24.601a1.764 1.764 0 0 0 1.764-1.764v-14.567a1.03 1.03 0 0 0-1.031-1.031z" transform="translate(-11869.001 4419.58)"/>
            <path d="M170.738 17.135a.854.854 0 0 0 1.21 0l4.787-4.785a.856.856 0 0 0-.6-1.461h-2.091V4.683a1.14 1.14 0 0 0-1.14-1.14h-3.11a1.138 1.138 0 0 0-1.138 1.14v6.205h-2.093a.856.856 0 0 0-.6 1.461z" transform="translate(-12024.12 4564.457)"/>
        </g>
    </symbol>

    <symbol id="facebook" viewBox="0 0 46 46">
        <path d="M23 0a23 23 0 1 0 23 23A23 23 0 0 0 23 0zm9 12h-3c-2.495 0-3 1.261-3 3v3h6v6h-6v16h-7V24h-5v-6h5v-4c0-5.141 3.414-8 8-8h5v6z"/>
    </symbol>

    <symbol id="filter" viewBox="0 0 32.029 33.217">
        <path d="M5.152 8.295a4.154 4.154 0 0 0 4.1-3.555h23.18a.592.592 0 1 0 0-1.185H9.257a4.149 4.149 0 1 0-4.1 4.74zm0-7.11a2.962 2.962 0 1 1-2.966 2.962 2.967 2.967 0 0 1 2.966-2.962z" transform="translate(-1)"/>
        <path d="M28.878 42a4.154 4.154 0 0 0-4.1 3.555H1.593a.592.592 0 1 0 0 1.185h23.18a4.149 4.149 0 1 0 4.1-4.74zm0 7.11a2.962 2.962 0 1 1 2.966-2.962 2.967 2.967 0 0 1-2.966 2.962z" transform="translate(-1 -17.079)"/>
        <path d="M32.437 24.386H21.385a4.274 4.274 0 0 0-8.5 0H1.593a.592.592 0 1 0 0 1.185h11.335a4.27 4.27 0 0 0 8.42 0h11.089a.592.592 0 1 0 0-1.185zm-15.3 3.555a3.085 3.085 0 1 1 3.089-3.085 3.09 3.09 0 0 1-3.088 3.085z" transform="translate(-1 -8.371)"/>
    </symbol>

    <symbol id="flag-sweden" viewBox="0 0 33.047 33.047">
        <circle cx="16.523" cy="16.523" r="16.523" fill="#ffda44"/>
        <g transform="translate(.14)">
            <path fill="#0052b4" d="M200.348 14.368h19.976A16.536 16.536 0 0 0 200.348.393v13.975z" transform="translate(-187.556)"/>
            <path fill="#0052b4" d="M10.648 43.486V31.127a16.534 16.534 0 0 0-8.481 12.359h8.481z" transform="translate(-2.167 -29.118)"/>
            <path fill="#0052b4" d="M10.648 289.391H2.167a16.533 16.533 0 0 0 8.481 12.359v-12.359z" transform="translate(-2.167 -270.712)"/>
            <path fill="#0052b4" d="M200.348 289.391v13.975a16.536 16.536 0 0 0 19.976-13.975h-19.976z" transform="translate(-187.556 -270.712)"/>
        </g>
    </symbol>

    <symbol id="flag-uk" viewBox="0 0 25.943 25.943">
        <circle cx="12.972" cy="12.972" r="12.972" fill="#f0f0f0"/>
        <g transform="translate(.447 .447)">
            <path fill="#0052b4" d="M11.054 100.142a12.924 12.924 0 0 0-2.235 4.514h6.748z" transform="translate(-8.819 -95.515)"/>
            <path fill="#0052b4" d="M376.753 104.657a12.926 12.926 0 0 0-2.235-4.514l-4.513 4.514z" transform="translate(-351.704 -95.516)"/>
            <path fill="#0052b4" d="M8.819 322.784a12.926 12.926 0 0 0 2.235 4.513l4.513-4.513z" transform="translate(-8.819 -306.875)"/>
            <path fill="#0052b4" d="M327.3 11.054a12.925 12.925 0 0 0-4.514-2.235v6.748z" transform="translate(-306.873 -8.819)"/>
            <path fill="#0052b4" d="M100.142 374.518a12.926 12.926 0 0 0 4.514 2.235v-6.748z" transform="translate(-95.515 -351.704)"/>
            <path fill="#0052b4" d="M104.655 8.819a12.926 12.926 0 0 0-4.513 2.235l4.513 4.513z" transform="translate(-95.515 -8.819)"/>
            <path fill="#0052b4" d="M322.783 376.753a12.926 12.926 0 0 0 4.513-2.235l-4.513-4.513z" transform="translate(-306.874 -351.704)"/>
            <path fill="#0052b4" d="M370.005 322.784l4.513 4.514a12.926 12.926 0 0 0 2.235-4.514z" transform="translate(-351.704 -306.875)"/>
        </g>
        <g>
            <path fill="#d80027" d="M25.834 11.28h-11.17V.11a13.091 13.091 0 0 0-3.384 0v11.17H.11a13.091 13.091 0 0 0 0 3.384h11.17v11.17a13.091 13.091 0 0 0 3.384 0v-11.17h11.17a13.091 13.091 0 0 0 0-3.384z"/>
            <path fill="#d80027" d="M322.783 322.783l5.788 5.788q.4-.4.763-.833l-4.956-4.956h-1.6z" transform="translate(-306.427 -306.427)"/>
            <path fill="#d80027" d="M80.768 322.784l-5.788 5.788q.4.4.833.763l4.956-4.956z" transform="translate(-71.181 -306.428)"/>
            <path fill="#d80027" d="M66.484 80.769L60.7 74.98q-.4.4-.762.833l4.956 4.956h1.6z" transform="translate(-56.896 -71.181)"/>
            <path fill="#d80027" d="M322.783 66.485l5.788-5.789q-.4-.4-.833-.762l-4.956 4.956z" transform="translate(-306.427 -56.897)"/>
        </g>
    </symbol>

    <symbol id="leaf" viewBox="0 0 397.963 397.963">
        <path d="M363.044 5.362a7.239 7.239 0 0 0-3.64-4.52 7.241 7.241 0 0 0-9.786 3.013l-.014.027c0 .2-36.68 71.36-149.28 83.76a143.073 143.073 0 0 0-42.56 11.36 118.24 118.24 0 0 0-56.76 52 122.205 122.205 0 0 0-13.96 71.2 119.674 119.674 0 0 0 17.52 50.48c-20 14.36-83.44 64-89.16 117.28a7.24 7.24 0 0 0 14.4 1.52c5.24-47.56 64.76-93.68 83.32-107.04 22.28 27.36 55.64 42.8 91.44 45.32a154.602 154.602 0 0 0 70.44-12 161.564 161.564 0 0 0 62.08-46.12c42.92-52 63.36-139.4 25.96-266.28zm-245.76 260.16a104.068 104.068 0 0 1-7.28-13.6 105.598 105.598 0 0 1-8.4-31.28 107.682 107.682 0 0 1 12-62.8 103.998 103.998 0 0 1 50-45.72 128.797 128.797 0 0 1 38.32-10.04c74.32-8 118.04-41.08 140.6-65.08a306.725 306.725 0 0 1-66.8 117.48l-4.4-44.32a7.24 7.24 0 1 0-14.4 1.4l5.64 56.96c-33.64 34.12-80.4 68.4-145.28 97zm208.6-3.16v.04a147.086 147.086 0 0 1-56.48 42.16 140.01 140.01 0 0 1-64 10.72 114.44 114.44 0 0 1-79.4-37.88 545.198 545.198 0 0 0 69.04-36.68l63.56 12a7.24 7.24 0 0 0 2.6-14.24l-48.84-9.24a422.2 422.2 0 0 0 62.68-52.68 7.32 7.32 0 0 0 .96-1c50.48-52.56 71.96-104.56 80.92-136.56 24.72 105.44 5.8 178.8-31.04 223.36z"/>
    </symbol>

    <symbol id="lightbulb" viewBox="0 0 32.771 32.771">
        <path d="M21.59 23.694l-10.413-.003a.5.5 0 0 1-.497-.441c-.121-1.022-.478-2.465-1.499-3.526a11.154 11.154 0 0 1-3.975-8.545C5.207 5.015 10.222 0 16.385 0s11.178 5.015 11.178 11.179c0 3.321-1.465 6.449-4.019 8.581-.98 1.026-1.337 2.47-1.458 3.493a.497.497 0 0 1-.496.441zm-9.979-1.003l9.545.003c.187-1.127.64-2.552 1.708-3.664 2.366-1.979 3.7-4.828 3.7-7.852C26.563 5.566 21.998 1 16.385 1S6.207 5.566 6.207 11.179c0 3.021 1.333 5.869 3.659 7.812.03.025.057.054.08.085 1.037 1.104 1.48 2.504 1.665 3.615zM21.59 26.718H11.177a.5.5 0 0 1 0-1H21.59a.5.5 0 0 1 0 1zM21.59 29.744H11.177a.5.5 0 0 1 0-1H21.59a.5.5 0 0 1 0 1zM18.564 32.771h-4.36a.5.5 0 0 1 0-1h4.36a.5.5 0 0 1 0 1z"/>
    </symbol>

    <symbol id="linkedin" viewBox="0 0 112.196 112.196">
        <circle cx="56.098" cy="56.097" r="56.098"/>
        <path d="M89.616 60.611v23.128H76.207V62.161c0-5.418-1.936-9.118-6.791-9.118-3.705 0-5.906 2.491-6.878 4.903-.353.862-.444 2.059-.444 3.268v22.524h-13.41s.18-36.546 0-40.329h13.411v5.715c-.027.045-.065.089-.089.132h.089v-.132c1.782-2.742 4.96-6.662 12.085-6.662 8.822 0 15.436 5.764 15.436 18.149zm-54.96-36.642c-4.587 0-7.588 3.011-7.588 6.967 0 3.872 2.914 6.97 7.412 6.97h.087c4.677 0 7.585-3.098 7.585-6.97-.089-3.956-2.908-6.967-7.496-6.967zm-6.791 59.77H41.27v-40.33H27.865v40.33z" fill="#f1f2f2"/>
    </symbol>

    <symbol id="plus" viewBox="0 0 16 16">
        <path data-name="Path 138" d="M15.375 7.375h-6.75V.625a.625.625 0 0 0-1.25 0v6.75H.625a.625.625 0 0 0 0 1.25h6.75v6.75a.625.625 0 0 0 1.25 0v-6.75h6.75a.625.625 0 0 0 0-1.25z"/>
    </symbol>

    <symbol id="rectangle" viewBox="0 0 50 50">
        <rect width="50" height="50" rx="5"/>
    </symbol>

    <symbol id="search" viewBox="0 0 21.313 21.244">
        <path d="M15.262 13.406H14.3l-.344-.344a7.945 7.945 0 1 0-6.05 2.75 7.6 7.6 0 0 0 5.156-1.925l.344.344v.962l6.119 6.05 1.788-1.788-6.05-6.05zm-7.356 0a5.5 5.5 0 1 1 5.5-5.5 5.516 5.516 0 0 1-5.5 5.5z"/>
    </symbol>

    <symbol id="search-secondary" viewBox="0 0 43 41">
        <g transform="translate(-1125 -34)">
            <rect width="43" height="41" rx="5" transform="translate(1125 34)"/>
            <path d="M1151.301 57.993h-.962l-.344-.344a7.945 7.945 0 1 0-6.05 2.75 7.6 7.6 0 0 0 5.156-1.925l.344.344v.962l6.119 6.05 1.788-1.788-6.05-6.05zm-7.356 0a5.5 5.5 0 1 1 5.5-5.5 5.516 5.516 0 0 1-5.5 5.5z" fill="#fff"/>
        </g>
    </symbol>

    <symbol id="settings" viewBox="0 0 66.82 66.821">
        <path d="M54.427 72.982A1.36 1.36 0 0 0 52.5 74.9l2.643 2.643a3.352 3.352 0 0 1 0 4.74l-.067.067a3.352 3.352 0 0 1-4.741 0L47.7 79.713a1.36 1.36 0 0 0-1.715-.17 22.485 22.485 0 0 1-8.085 3.348 1.36 1.36 0 0 0-1.092 1.333v3.735a3.356 3.356 0 0 1-3.352 3.352h-.1a3.356 3.356 0 0 1-3.352-3.352v-3.734a1.36 1.36 0 0 0-1.093-1.333 22.489 22.489 0 0 1-8.078-3.349 1.36 1.36 0 0 0-1.715.17l-2.643 2.643a3.352 3.352 0 0 1-4.74 0l-.067-.067a3.352 3.352 0 0 1 0-4.741l2.651-2.648a1.36 1.36 0 0 0 .17-1.715 22.487 22.487 0 0 1-3.349-8.078 1.36 1.36 0 0 0-1.333-1.087H6.073a3.356 3.356 0 0 1-3.352-3.352v-.1a3.356 3.356 0 0 1 3.352-3.352h3.734a1.36 1.36 0 0 0 1.333-1.092 22.49 22.49 0 0 1 3.349-8.078 1.36 1.36 0 0 0-.17-1.715l-2.643-2.643a3.352 3.352 0 0 1 0-4.741l.067-.067a3.352 3.352 0 0 1 4.74 0l2.643 2.643A1.36 1.36 0 0 0 21.05 39.6l-2.643-2.643a6.071 6.071 0 0 0-8.586 0l-.067.067a6.071 6.071 0 0 0 0 8.586l1.873 1.873A25.151 25.151 0 0 0 8.718 54.5H6.073A6.078 6.078 0 0 0 0 60.572v.1a6.078 6.078 0 0 0 6.072 6.071h2.646a25.136 25.136 0 0 0 2.908 7.013l-1.873 1.869a6.071 6.071 0 0 0 0 8.586l.067.067a6.071 6.071 0 0 0 8.586 0l1.873-1.873a25.141 25.141 0 0 0 7.013 2.908v2.645a6.079 6.079 0 0 0 6.072 6.072h.1a6.079 6.079 0 0 0 6.072-6.072v-2.644a25.137 25.137 0 0 0 7.013-2.908l1.873 1.873a6.071 6.071 0 0 0 8.586 0l.067-.067a6.07 6.07 0 0 0 0-8.586z" transform="translate(0 -27.209)"/>
        <path d="M153.88 27.292h-2.645a25.141 25.141 0 0 0-2.908-7.013l1.873-1.873a6.078 6.078 0 0 0 0-8.586l-.067-.067a6.071 6.071 0 0 0-8.586 0l-1.873 1.873a25.14 25.14 0 0 0-7.013-2.908V6.072A6.079 6.079 0 0 0 126.589 0h-.1a6.079 6.079 0 0 0-6.072 6.072v3.734a1.36 1.36 0 1 0 2.72 0V6.072a3.356 3.356 0 0 1 3.352-3.352h.1a3.356 3.356 0 0 1 3.352 3.352v3.734a1.36 1.36 0 0 0 1.092 1.333 22.493 22.493 0 0 1 8.078 3.349 1.36 1.36 0 0 0 1.715-.17l2.643-2.643a3.352 3.352 0 0 1 4.74 0l.067.067a3.352 3.352 0 0 1 0 4.741l-2.643 2.643a1.36 1.36 0 0 0-.17 1.715 22.486 22.486 0 0 1 3.349 8.078 1.36 1.36 0 0 0 1.333 1.092h3.735a3.356 3.356 0 0 1 3.352 3.352v.1a3.356 3.356 0 0 1-3.352 3.352h-3.735a1.36 1.36 0 0 0 0 2.72h3.735a6.078 6.078 0 0 0 6.072-6.071v-.1a6.078 6.078 0 0 0-6.072-6.072z" transform="translate(-93.129)"/>
        <path d="M120.662 125.784a5.063 5.063 0 0 1-3.223-1.141 1.36 1.36 0 1 0-1.712 2.113 7.842 7.842 0 1 0-2.907-6.095 1.36 1.36 0 0 0 2.72 0 5.122 5.122 0 1 1 5.122 5.123z" transform="translate(-87.25 -87.25)"/>
    </symbol>

    <symbol id="youtube" viewBox="0 0 473.931 473.931">
        <circle cx="236.966" cy="236.966" r="236.966" fill="#d42428"/>
        <path d="M404.518 69.38c92.541 92.549 92.549 242.593 0 335.142-92.541 92.541-242.593 92.545-335.142 0L404.518 69.38z" fill="#cc202d"/>
        <path d="M470.321 277.964L310.843 118.487l-12.864 12.864-12.864-12.864-14.099 14.099 9.47 9.47-3.091 3.091-24.557-24.557-1.048 1.055-33.092-33.092-14.099 14.099 3.858 3.858-5.665 5.665-23.854-23.854-9.889 9.889 23.255 56.003-10.473 42.997 28.632 28.639-72.418 5.066-1.096 125.667 116.537 116.679c109.192-7.756 198.35-89.428 216.835-195.297z" fill="#ba202e"/>
        <path d="M321.724 291.91h-15.289l.075-8.875c0-3.948 3.237-7.169 7.199-7.169h.98c3.963 0 7.214 3.222 7.214 7.169l-.179 8.875zm-57.32-19.02c-3.865 0-7.038 2.608-7.038 5.796v43.161c0 3.188 3.173 5.781 7.038 5.781 3.895 0 7.068-2.593 7.068-5.781v-43.165c0-3.184-3.173-5.792-7.068-5.792zm93.069-24.138v82.102c0 19.697-17.077 35.809-37.96 35.809H163.444c-20.887 0-37.96-16.116-37.96-35.809v-82.102c0-19.697 17.074-35.816 37.96-35.816h156.073c20.878 0 37.956 16.123 37.956 35.816zM173.85 339.771l-.007-86.487 19.345.007v-12.819l-51.573-.079v12.595l16.101.049v86.73h16.134v.004zm57.997-73.601h-16.131v46.181c0 6.683.4 10.024-.022 11.199-1.317 3.581-7.214 7.383-9.508.389-.389-1.227-.045-4.924-.052-11.274l-.075-46.499h-16.041l.06 45.765c.007 7.016-.161 12.247.052 14.627.393 4.198.247 9.096 4.15 11.884 7.252 5.235 21.163-.778 24.643-8.251l-.03 9.534 12.95.019V266.17h.004zm51.603 52.882l-.03-38.439c-.015-14.653-10.971-23.427-25.856-11.573l.067-28.58-16.116.026-.079 98.637 13.25-.195 1.205-6.148c16.939 15.552 27.588 4.903 27.559-13.728zm50.491-5.092l-12.101.064c0 .483-.022 1.033-.03 1.639v6.75c0 3.611-2.982 6.552-6.608 6.552h-2.369c-3.633 0-6.615-2.941-6.615-6.552V304.655h27.697V294.23c0-7.614-.198-15.229-.827-19.584-1.979-13.781-21.317-15.966-31.09-8.913-3.068 2.204-5.407 5.152-6.776 9.119-1.373 3.963-2.054 9.369-2.054 16.247v22.918c.01 38.098 46.284 32.713 40.773-.057zm-62.046-124.436c.827 2.028 2.118 3.663 3.88 4.905 1.725 1.212 3.948 1.83 6.6 1.83 2.324 0 4.385-.629 6.174-1.927 1.792-1.291 3.304-3.214 4.531-5.788l-.307 6.331h17.979v-76.467h-14.155v59.513c0 3.218-2.66 5.856-5.905 5.856-3.222 0-5.89-2.638-5.89-5.856v-59.513h-14.769v51.573c0 6.571.116 10.952.314 13.175a22.514 22.514 0 0 0 1.548 6.368zm-54.487-43.187c0-7.341.614-13.07 1.826-17.201 1.22-4.12 3.427-7.431 6.608-9.923 3.18-2.511 7.252-3.764 12.191-3.764 4.157 0 7.723.819 10.705 2.417 2.982 1.609 5.298 3.693 6.892 6.271 1.639 2.586 2.739 5.246 3.334 7.966.606 2.754.898 6.919.898 12.52v19.341c0 7.094-.284 12.31-.834 15.626-.543 3.323-1.717 6.402-3.536 9.287-1.796 2.859-4.116 4.995-6.93 6.357-2.836 1.381-6.08 2.054-9.755 2.054-4.093 0-7.551-.565-10.391-1.751-2.851-1.175-5.059-2.949-6.627-5.302-1.594-2.357-2.705-5.227-3.375-8.572-.681-3.349-1.003-8.374-1.003-15.079v-20.247h-.003zm14.076 30.379c0 4.325 3.229 7.861 7.154 7.861s7.132-3.532 7.132-7.861v-40.71c0-4.325-3.207-7.861-7.132-7.861s-7.154 3.532-7.154 7.861v40.71zm-49.762 20.553h16.969l.015-58.648 20.045-50.241h-18.555l-10.657 37.324-10.81-37.421h-18.357l21.324 50.372.026 58.614z" fill="#fff"/>
    </symbol>
</svg>
