<svg xmlns="http://www.w3.org/2000/svg">
    <symbol id="arrow-banner-left" viewBox="0 0 13.682 24">
        <path d="M.493 10.812L10.813.493A1.681 1.681 0 1 1 13.19 2.87L4.058 12l9.131 9.131a1.681 1.681 0 1 1-2.377 2.377L.492 13.189a1.68 1.68 0 0 1 0-2.376z"/>
    </symbol>

    <symbol id="arrow-banner-right" viewBox="0 0 14.492 24.985">
        <path d="M13.493 13.493l-10 11a2.53 2.53 0 0 1-3 0 2.532 2.532 0 0 1 0-3l10-9-10-9a2.532 2.532 0 0 1 0-3 2.531 2.531 0 0 1 3 0l10 11c.328.328 1 .57 1 1s-.672.671-1 1z" />
    </symbol>

    <symbol id="arrow-right" viewBox="0 0 8.564 16">
        <path d="M.966 15.834a.566.566 0 0 1-.8 0 .566.566 0 0 1 0-.8L7.2 8 .166.966a.566.566 0 1 1 .8-.8L8.4 7.6a.566.566 0 0 1 0 .8z"/>
    </symbol>

    <symbol id="award" viewBox="0 0 48.092 69.316">
        <path d="M126.921 24c0-.286-.8-.8-1-1l-2-2 2-3c.143-.248.073.276 0 0a3.142 3.142 0 0 0-1-1l-2-1 1-3a1.586 1.586 0 0 0 0-1 3.1 3.1 0 0 0-1-1h-3V8a.95.95 0 0 0-1-1h-3l-1-3c-.074-.276.247-.857 0-1a1.572 1.572 0 0 0-1 0l-3 1-1-3c-.142-.248-.724.073-1 0a1.579 1.579 0 0 0-1 0l-2 1-2-2a1.74 1.74 0 0 0-2 0l-2 2-3-1c-.247-.142.277-.073 0 0s-.857-.248-1 0l-1 3-3-1a2.143 2.143 0 0 0-2 1v3h-3a.95.95 0 0 0-1 1v3h-3a2.14 2.14 0 0 0-1 2l1 3-3 1c-.248.142.073.724 0 1s-.142-.247 0 0l1 3-2 2c-.2.2 0 .714 0 1s-.2.8 0 1l2 2-1 2a1.572 1.572 0 0 0 0 1c.074.276-.247.857 0 1l3 1-1 3a1.586 1.586 0 0 0 0 1c.142.248.724-.073 1 0l3 1v3a.95.95 0 0 0 1 1h3v3a3.142 3.142 0 0 0 1 1 1.609 1.609 0 0 0 1 0l3-1 1 2c.3.515.485 1.3 1 1l3-2 2 2c.21.21.724 1 1 1s.79-.791 1-1l2-2 2 2c.513.3 1.7-.484 2-1l1-2 3 1a1.61 1.61 0 0 0 1 0c.248-.142-.073-.724 0-1l1-3h3a.949.949 0 0 0 1-1v-3l3-1c.275-.074.857.248 1 0a1.579 1.579 0 0 0 0-1l-1-3 2-1a3.1 3.1 0 0 0 1-1 1.579 1.579 0 0 0 0-1l-2-2 2-2c.202-.2 1-.714 1-1zm-5 3l1 2-2 2c-.422.245-.126.529 0 1v2l-2 1c-.471.126-1 .512-1 1v3h-3c-.488 0-.874.528-1 1l-1 2h-2c-.47-.126-.755-.422-1 0l-2 2-2-1c-.422-.242-.655-.345-1 0l-2 2-2-2c-.208-.207-.721 0-1 0-.184 0 .168-.1 0 0l-3 1-1-2c-.245-.425-.53-.127-1 0h-3v-2c-.126-.471-1.512-1-2-1h-2v-3c0-.488-.529-.874-1-1l-3-1 1-2c.126-.471.422-.756 0-1l-3-2 2-2c.244-.422-.655-.655-1-1l-1-2 1-2c.345-.345 1.244-.578 1-1l-2-3 3-1c.422-.245.126-.529 0-1l-1-3h3c.471-.126 1-1.512 1-2V9h2c.488 0 1.874-.529 2-1V5l3 1c.471.126.755.422 1 0l1-3 3 2c.421.245.656-.655 1-1l2-1 2 1c.345.346.578 1.242 1 1l2-2 2 3c.244.422.529.125 1 0l2-1 1 3c.126.471.512 1 1 1h3v2c0 .488.528 1.874 1 2h2v3c-.126.471-.422.756 0 1l2 1-1 3c-.245.422-.345.655 0 1l2 2-2 2c-.345.345-.245.578 0 1z" transform="translate(-78.831 .316)"/>
        <g transform="translate(.933 41.316)">
            <path d="M107.33 310.527l-10 21-2-5c-.226-.4-.556-.079-1 0l-5 1 9-20-2-1-10 22a.879.879 0 0 0 0 1c.246.319.6.07 1 0l7-1 3 5c.192.338.614 1 1 1 .4-.015.83-.635 1-1l10-22z" transform="translate(-86.173 -306.527)"/>
        </g>
        <g transform="translate(24.09 41.316)">
            <path id="Path_85" data-name="Path 85" class="cls-1" d="M278.693 328.52l-10-22-2 1 9 20-5-1c-.454-.084-.774-.4-1 0l-3 5-9-21-2 1 10 22c.171.365.6.984 1 1 .015 0-.014 0 0 0 .386 0 .8-.661 1-1l3-5 6 1c.4.073.754.32 1 0s1.17-.634 1-1z" transform="translate(-255.693 -306.52)"/>
        </g>
        <g transform="translate(9.09 9.316)">
            <path id="Path_86" data-name="Path 86" class="cls-1" d="M169.893 69.967a13.2 13.2 0 0 0-10-4 15 15 0 1 0 15 15c.001-3.997-2.166-8.167-5-11zm-10 24a13 13 0 0 1 0-26 13.718 13.718 0 0 1 13 13 13.138 13.138 0 0 1-13 13z" transform="translate(-144.893 -65.967)"/>
        </g>
    </symbol>

    <symbol id="button" viewBox="0 0 37.613 37.614">
        <path d="M18.804 37.613A18.809 18.809 0 0 1 5.505 5.508 18.806 18.806 0 1 1 32.097 32.1a18.682 18.682 0 0 1-13.293 5.513zM14.097 7.792a1.676 1.676 0 0 0-1.176.433 1.814 1.814 0 0 0 0 2.354l8.23 8.226-8.23 8.231c-.3.3-.434.439-.434.585s.135.286.434.586a1.791 1.791 0 0 0 2.352 0l9.4-8.226c.2-.193.129-.481.064-.761v-.026a1.31 1.31 0 0 1 0-.775V18.392c.064-.281.131-.571-.064-.765l-9.4-9.4a1.669 1.669 0 0 0-1.176-.435z"/>
    </symbol>

    <symbol id="cancel" viewBox="0 0 10.71 10.71">
        <path d="M.111 10.6a.378.378 0 0 0 .535 0l4.71-4.71 4.709 4.71a.369.369 0 0 0 .267.111.385.385 0 0 0 .268-.111.378.378 0 0 0 0-.535l-4.71-4.71L10.6.645a.378.378 0 0 0-.535-.535l-4.71 4.71L.645.11A.378.378 0 0 0 .11.645l4.71 4.71-4.71 4.71a.378.378 0 0 0 .001.535z"/>
    </symbol>

    <symbol id="check" viewBox="0 0 16.989 12.361">
        <path d="M16.799.192a.653.653 0 0 0-.924 0L5.281 10.784 1.115 6.618a.653.653 0 0 0-.924.924l4.628 4.629a.654.654 0 0 0 .924 0L16.799 1.116a.653.653 0 0 0 0-.924z"/>
    </symbol>

    <symbol id="download" viewBox="0 0 28.146 28.146">
        <path d="M14.073 0a14.073 14.073 0 1 0 14.073 14.073A14.073 14.073 0 0 0 14.073 0zm5.749 14.846l-4.976 4.976a.862.862 0 0 1-.773.228.865.865 0 0 1-.773-.228l-4.976-4.976A.879.879 0 0 1 9.568 13.6l3.626 3.625V7.916a.88.88 0 0 1 1.759 0v9.311l3.624-3.627a.88.88 0 0 1 1.245 1.244z"/>
    </symbol>

    <symbol id="download-folder" viewBox="0 0 31.076 30.624">
        <g transform="translate(11869 -4568)">
            <path d="M30.046 161.684h-9.975l-1.783 1.781a2.911 2.911 0 0 1-.339.28h11.067v6.867l-1.07-3.767a1.031 1.031 0 0 0-.991-.749H5.154v-5.732h5.9l-1.674-1.676a2.892 2.892 0 0 1-.321-.385H4.123a1.03 1.03 0 0 0-1.031 1.031v6.766h-2.06a1.03 1.03 0 0 0-.991 1.312l2.971 10.357a1.764 1.764 0 0 0 1.7 1.277h24.601a1.764 1.764 0 0 0 1.764-1.764v-14.567a1.03 1.03 0 0 0-1.031-1.031z" transform="translate(-11869.001 4419.58)"/>
            <path d="M170.738 17.135a.854.854 0 0 0 1.21 0l4.787-4.785a.856.856 0 0 0-.6-1.461h-2.091V4.683a1.14 1.14 0 0 0-1.14-1.14h-3.11a1.138 1.138 0 0 0-1.138 1.14v6.205h-2.093a.856.856 0 0 0-.6 1.461z" transform="translate(-12024.12 4564.457)"/>
        </g>
    </symbol>

    <symbol id="facebook" viewBox="0 0 46 46">
        <path d="M23 0a23 23 0 1 0 23 23A23 23 0 0 0 23 0zm9 12h-3c-2.495 0-3 1.261-3 3v3h6v6h-6v16h-7V24h-5v-6h5v-4c0-5.141 3.414-8 8-8h5v6z"/>
    </symbol>

    <symbol id="filter" viewBox="0 0 32.029 33.217">
        <path d="M5.152 8.295a4.154 4.154 0 0 0 4.1-3.555h23.18a.592.592 0 1 0 0-1.185H9.257a4.149 4.149 0 1 0-4.1 4.74zm0-7.11a2.962 2.962 0 1 1-2.966 2.962 2.967 2.967 0 0 1 2.966-2.962z" transform="translate(-1)"/>
        <path d="M28.878 42a4.154 4.154 0 0 0-4.1 3.555H1.593a.592.592 0 1 0 0 1.185h23.18a4.149 4.149 0 1 0 4.1-4.74zm0 7.11a2.962 2.962 0 1 1 2.966-2.962 2.967 2.967 0 0 1-2.966 2.962z" transform="translate(-1 -17.079)"/>
        <path d="M32.437 24.386H21.385a4.274 4.274 0 0 0-8.5 0H1.593a.592.592 0 1 0 0 1.185h11.335a4.27 4.27 0 0 0 8.42 0h11.089a.592.592 0 1 0 0-1.185zm-15.3 3.555a3.085 3.085 0 1 1 3.089-3.085 3.09 3.09 0 0 1-3.088 3.085z" transform="translate(-1 -8.371)"/>
    </symbol>

    <symbol id="flag-sweden" viewBox="0 0 33.047 33.047">
        <circle cx="16.523" cy="16.523" r="16.523" fill="#ffda44"/>
        <g transform="translate(.14)">
            <path fill="#0052b4" d="M200.348 14.368h19.976A16.536 16.536 0 0 0 200.348.393v13.975z" transform="translate(-187.556)"/>
            <path fill="#0052b4" d="M10.648 43.486V31.127a16.534 16.534 0 0 0-8.481 12.359h8.481z" transform="translate(-2.167 -29.118)"/>
            <path fill="#0052b4" d="M10.648 289.391H2.167a16.533 16.533 0 0 0 8.481 12.359v-12.359z" transform="translate(-2.167 -270.712)"/>
            <path fill="#0052b4" d="M200.348 289.391v13.975a16.536 16.536 0 0 0 19.976-13.975h-19.976z" transform="translate(-187.556 -270.712)"/>
        </g>
    </symbol>

    <symbol id="flag-united-kingdom" viewBox="0 0 25.943 25.943">
        <circle cx="12.972" cy="12.972" r="12.972" fill="#f0f0f0"/>
        <g transform="translate(.447 .447)">
            <path fill="#0052b4" d="M11.054 100.142a12.924 12.924 0 0 0-2.235 4.514h6.748z" transform="translate(-8.819 -95.515)"/>
            <path fill="#0052b4" d="M376.753 104.657a12.926 12.926 0 0 0-2.235-4.514l-4.513 4.514z" transform="translate(-351.704 -95.516)"/>
            <path fill="#0052b4" d="M8.819 322.784a12.926 12.926 0 0 0 2.235 4.513l4.513-4.513z" transform="translate(-8.819 -306.875)"/>
            <path fill="#0052b4" d="M327.3 11.054a12.925 12.925 0 0 0-4.514-2.235v6.748z" transform="translate(-306.873 -8.819)"/>
            <path fill="#0052b4" d="M100.142 374.518a12.926 12.926 0 0 0 4.514 2.235v-6.748z" transform="translate(-95.515 -351.704)"/>
            <path fill="#0052b4" d="M104.655 8.819a12.926 12.926 0 0 0-4.513 2.235l4.513 4.513z" transform="translate(-95.515 -8.819)"/>
            <path fill="#0052b4" d="M322.783 376.753a12.926 12.926 0 0 0 4.513-2.235l-4.513-4.513z" transform="translate(-306.874 -351.704)"/>
            <path fill="#0052b4" d="M370.005 322.784l4.513 4.514a12.926 12.926 0 0 0 2.235-4.514z" transform="translate(-351.704 -306.875)"/>
        </g>
        <g>
            <path fill="#d80027" d="M25.834 11.28h-11.17V.11a13.091 13.091 0 0 0-3.384 0v11.17H.11a13.091 13.091 0 0 0 0 3.384h11.17v11.17a13.091 13.091 0 0 0 3.384 0v-11.17h11.17a13.091 13.091 0 0 0 0-3.384z"/>
            <path fill="#d80027" d="M322.783 322.783l5.788 5.788q.4-.4.763-.833l-4.956-4.956h-1.6z" transform="translate(-306.427 -306.427)"/>
            <path fill="#d80027" d="M80.768 322.784l-5.788 5.788q.4.4.833.763l4.956-4.956z" transform="translate(-71.181 -306.428)"/>
            <path fill="#d80027" d="M66.484 80.769L60.7 74.98q-.4.4-.762.833l4.956 4.956h1.6z" transform="translate(-56.896 -71.181)"/>
            <path fill="#d80027" d="M322.783 66.485l5.788-5.789q-.4-.4-.833-.762l-4.956 4.956z" transform="translate(-306.427 -56.897)"/>
        </g>
    </symbol>

    <symbol id="leaf" viewBox="0 0 63.225 68.365">
        <path d="M60.007.357c-.091-.336-.691.161-1 0-.609-.322-.678-.609-1 0 0 .034-6.6 11.863-26 14a22.694 22.694 0 0 0-7 2 20.944 20.944 0 0 0-10 9c-2.025 3.752-3.459 8.761-3 13a17.8 17.8 0 0 0 3 8c-3.446 2.474-14.014 11.819-15 21-.072.685.315.928 1 1s.928-.315 1-1c.9-8.2 11.8-16.7 15-19a22.813 22.813 0 0 0 16 8 26.015 26.015 0 0 0 12-2c4.157-1.744 7.13-4.524 10-8 7.396-8.96 11.445-24.136 5-46zm-42 45c-.476-.749-1.64-1.189-2-2-.757-1.712-.8-4.139-1-6a15.959 15.959 0 0 1 2-10 19.035 19.035 0 0 1 9-8 19.111 19.111 0 0 1 6-2c12.807-1.379 20.113-6.864 24-11a50.807 50.807 0 0 1-11 20l-1-8c-.039-.688-.312-1.039-1-1s-1.039 1.312-1 2c0 .034 0-.034 0 0l1 9a79.864 79.864 0 0 1-25 17zm36 0a25.611 25.611 0 0 1-10 7 24.121 24.121 0 0 1-11 2 20.977 20.977 0 0 1-14-7 93.208 93.208 0 0 0 12-6l11 2c.681.107.893-.319 1-1 .1-.657-.349-1.864-1-2l-8-1a73.83 73.83 0 0 0 11-9c.06-.052-.05.063 0 0a57.536 57.536 0 0 0 14-24c4.26 18.169 1.348 31.322-5 39z"/>
    </symbol>

    <symbol id="lightbulb" viewBox="0 0 48 70">
        <path d="M40.206 51h-22a1.064 1.064 0 0 1-1-1 16.082 16.082 0 0 0-4-8 22.9 22.9 0 0 1-8-18 24 24 0 0 1 48 0c0 7.09-3.547 13.448-9 18-2.092 2.19-2.742 5.816-3 8a1.059 1.059 0 0 1-1 1zm-21-3h20c.4-2.406 1.72-4.626 4-7a22.35 22.35 0 0 0 8-17 22.22 22.22 0 0 0-22-22 22.217 22.217 0 0 0-22 22 22.525 22.525 0 0 0 8 17c.064.053-.049-.066 0 0 2.214 2.357 3.605 4.628 4 7z" transform="translate(-5.206)"/>
        <path d="M34 27.813H12a1 1 0 0 1 0-2h22a1 1 0 0 1 0 2z" transform="translate(1.003 29.187)"/>
        <path d="M34 31.378H12c-.589 0-1-1.411-1-2a.956.956 0 0 1 1-1h22a.956.956 0 0 1 1 1c0 .59-.412 2-1 2z" transform="translate(1.003 32.622)"/>
        <path d="M24.562 33.943h-10a1 1 0 0 1 0-2h10a1 1 0 0 1 0 2z" transform="translate(4.438 36.057)"/>
    </symbol>

    <symbol id="linkedin" viewBox="0 0 46 46">
        <path d="M29.121 21.084c-2.125 0-2.469 1.18-3 2v-2h-4c.052 1.128 0 13 0 13h4v-7a3.089 3.089 0 0 1 0-1c.29-.72.894-2 2-2 1.448 0 2 1.38 2 3v7h4v-7c-.002-3.696-2.367-6-5-6zm-3 2c.008-.014 0 .014 0 0z" transform="translate(-2.121 -2.084)"/>
        <path transform="translate(14 19)" d="M0 0h4v13H0z"/>
        <path d="M23 0a23 23 0 1 0 23 23A23.026 23.026 0 0 0 23 0zm12 33a2.166 2.166 0 0 1-2 2H12c-1 0-1-1.022-1-2V12c0-.977 0-2 1-2h21a2.168 2.168 0 0 1 2 2z"/>
        <path d="M17.237 16.267a1.816 1.816 0 0 0-2 2 1.84 1.84 0 0 0 2 2c1.4 0 3-.845 3-2-.027-1.181-1.63-2-3-2z" transform="translate(-1.237 -1.267)"/>
    </symbol>

    <symbol id="plus" viewBox="0 0 16 16">
        <path data-name="Path 138" d="M15.375 7.375h-6.75V.625a.625.625 0 0 0-1.25 0v6.75H.625a.625.625 0 0 0 0 1.25h6.75v6.75a.625.625 0 0 0 1.25 0v-6.75h6.75a.625.625 0 0 0 0-1.25z"/>
    </symbol>

    <symbol id="rectangle" viewBox="0 0 50 50">
        <rect width="50" height="50" rx="5"/>
    </symbol>

    <symbol id="search" viewBox="0 0 21.313 21.244">
        <path d="M15.262 13.406H14.3l-.344-.344a7.945 7.945 0 1 0-6.05 2.75 7.6 7.6 0 0 0 5.156-1.925l.344.344v.962l6.119 6.05 1.788-1.788-6.05-6.05zm-7.356 0a5.5 5.5 0 1 1 5.5-5.5 5.516 5.516 0 0 1-5.5 5.5z"/>
    </symbol>

    <symbol id="search-secondary" viewBox="0 0 43 41">
        <g transform="translate(-1125 -34)">
            <rect width="43" height="41" rx="5" transform="translate(1125 34)"/>
            <path d="M1151.301 57.993h-.962l-.344-.344a7.945 7.945 0 1 0-6.05 2.75 7.6 7.6 0 0 0 5.156-1.925l.344.344v.962l6.119 6.05 1.788-1.788-6.05-6.05zm-7.356 0a5.5 5.5 0 1 1 5.5-5.5 5.516 5.516 0 0 1-5.5 5.5z" fill="#fff"/>
        </g>
    </symbol>

    <symbol id="settings" viewBox="0 0 66.82 66.821">
        <path d="M54.427 72.982A1.36 1.36 0 0 0 52.5 74.9l2.643 2.643a3.352 3.352 0 0 1 0 4.74l-.067.067a3.352 3.352 0 0 1-4.741 0L47.7 79.713a1.36 1.36 0 0 0-1.715-.17 22.485 22.485 0 0 1-8.085 3.348 1.36 1.36 0 0 0-1.092 1.333v3.735a3.356 3.356 0 0 1-3.352 3.352h-.1a3.356 3.356 0 0 1-3.352-3.352v-3.734a1.36 1.36 0 0 0-1.093-1.333 22.489 22.489 0 0 1-8.078-3.349 1.36 1.36 0 0 0-1.715.17l-2.643 2.643a3.352 3.352 0 0 1-4.74 0l-.067-.067a3.352 3.352 0 0 1 0-4.741l2.651-2.648a1.36 1.36 0 0 0 .17-1.715 22.487 22.487 0 0 1-3.349-8.078 1.36 1.36 0 0 0-1.333-1.087H6.073a3.356 3.356 0 0 1-3.352-3.352v-.1a3.356 3.356 0 0 1 3.352-3.352h3.734a1.36 1.36 0 0 0 1.333-1.092 22.49 22.49 0 0 1 3.349-8.078 1.36 1.36 0 0 0-.17-1.715l-2.643-2.643a3.352 3.352 0 0 1 0-4.741l.067-.067a3.352 3.352 0 0 1 4.74 0l2.643 2.643A1.36 1.36 0 0 0 21.05 39.6l-2.643-2.643a6.071 6.071 0 0 0-8.586 0l-.067.067a6.071 6.071 0 0 0 0 8.586l1.873 1.873A25.151 25.151 0 0 0 8.718 54.5H6.073A6.078 6.078 0 0 0 0 60.572v.1a6.078 6.078 0 0 0 6.072 6.071h2.646a25.136 25.136 0 0 0 2.908 7.013l-1.873 1.869a6.071 6.071 0 0 0 0 8.586l.067.067a6.071 6.071 0 0 0 8.586 0l1.873-1.873a25.141 25.141 0 0 0 7.013 2.908v2.645a6.079 6.079 0 0 0 6.072 6.072h.1a6.079 6.079 0 0 0 6.072-6.072v-2.644a25.137 25.137 0 0 0 7.013-2.908l1.873 1.873a6.071 6.071 0 0 0 8.586 0l.067-.067a6.07 6.07 0 0 0 0-8.586z" transform="translate(0 -27.209)"/>
        <path d="M153.88 27.292h-2.645a25.141 25.141 0 0 0-2.908-7.013l1.873-1.873a6.078 6.078 0 0 0 0-8.586l-.067-.067a6.071 6.071 0 0 0-8.586 0l-1.873 1.873a25.14 25.14 0 0 0-7.013-2.908V6.072A6.079 6.079 0 0 0 126.589 0h-.1a6.079 6.079 0 0 0-6.072 6.072v3.734a1.36 1.36 0 1 0 2.72 0V6.072a3.356 3.356 0 0 1 3.352-3.352h.1a3.356 3.356 0 0 1 3.352 3.352v3.734a1.36 1.36 0 0 0 1.092 1.333 22.493 22.493 0 0 1 8.078 3.349 1.36 1.36 0 0 0 1.715-.17l2.643-2.643a3.352 3.352 0 0 1 4.74 0l.067.067a3.352 3.352 0 0 1 0 4.741l-2.643 2.643a1.36 1.36 0 0 0-.17 1.715 22.486 22.486 0 0 1 3.349 8.078 1.36 1.36 0 0 0 1.333 1.092h3.735a3.356 3.356 0 0 1 3.352 3.352v.1a3.356 3.356 0 0 1-3.352 3.352h-3.735a1.36 1.36 0 0 0 0 2.72h3.735a6.078 6.078 0 0 0 6.072-6.071v-.1a6.078 6.078 0 0 0-6.072-6.072z" transform="translate(-93.129)"/>
        <path d="M120.662 125.784a5.063 5.063 0 0 1-3.223-1.141 1.36 1.36 0 1 0-1.712 2.113 7.842 7.842 0 1 0-2.907-6.095 1.36 1.36 0 0 0 2.72 0 5.122 5.122 0 1 1 5.122 5.123z" transform="translate(-87.25 -87.25)"/>
    </symbol>

    <symbol id="youtube" viewBox="0 0 46 46">
        <path d="M25.708 50.515h2v11h2v-11h2v-1h-6z" transform="translate(-13.708 -26.515)"/>
        <path d="M53.641 52.522a2.772 2.772 0 0 0-2 1v-4h-2v12h2v-1a2.745 2.745 0 0 0 2 1c.661 0 .778-.317 1-1a11.631 11.631 0 0 0 0-2v-4c0-.868.111-.631 0-1-.221-.687-.341-1-1-1zm0 6a.886.886 0 0 1-1 1c-.273 0-.722.278-1 0v-6c.278-.275.727 0 1 0a.887.887 0 0 1 1 1z" transform="translate(-26.641 -26.522)"/>
        <path d="M41.065 62.692c-.369.521-.666 0-1 0-.222 0-.96.258-1 0-.015-.053 0-.611 0-1v-6h-1v7c0 .648-.091.722 0 1 .167.465.466 1 1 1a2.627 2.627 0 0 0 2-1v1h1v-9h-1z" transform="translate(-20.065 -29.692)"/>
        <path d="M45.908 31.7c.541 0 1-.143 1-1v-4c0-.858-.459-1-1-1s-1 .143-1 1v4c0 .86.458 1 1 1z" transform="translate(-23.908 -13.702)"/>
        <path d="M23 0a23 23 0 1 0 23 23A23 23 0 0 0 23 0zm3 11h1v6c0 .368-.019.949 0 1 .034.243.79 0 1 0 .313 0-.348-.509 0-1v-6h2v8h-2v-1c-.624.715-.428 2-1 2-.5 0-.843-.562-1-1-.087-.262 0-.39 0-1v-7zm-6 3c0-.925-.333-1.563 0-2a2.5 2.5 0 0 1 4 0c.328.437 0 1.075 0 2v3c0 .92.328 1.568 0 2a2.5 2.5 0 0 1-4 0c-.333-.432 0-1.081 0-2zm-5-6l2 4 1-4h2l-2 7v4h-2v-4a28.036 28.036 0 0 0-1-4c-.366-1.077-.634-1.924-1-3zm20 27c-.314 1.364-.656 2.85-2 3-3.183.355-6.792 0-10 0s-6.818.355-10 0c-1.344-.15-1.687-1.635-2-3a27.434 27.434 0 0 1-1-6 27.467 27.467 0 0 1 1-6c.314-1.365.656-1.85 2-2a94.138 94.138 0 0 1 10-1 94.162 94.162 0 0 1 10 1c1.344.15 1.685.635 2 2a27.523 27.523 0 0 1 1 6 27.434 27.434 0 0 1-1 6z"/>
        <path d="M65.167 54.579a2.428 2.428 0 0 0-2 1 6.741 6.741 0 0 0-1 3v3a3.12 3.12 0 0 0 1 2 2.406 2.406 0 0 0 2 1 2.287 2.287 0 0 0 2-1c.2-.294-.055-.632 0-1 .016-.166 0-.464 0-1h-2c0 .666.015.91 0 1-.095.444.409 0 0 0-.571 0-1-.152-1-1v-2h3v-1c0-.98.348-2.536 0-3a2.433 2.433 0 0 0-2-1zm0 4h-1v-1c0-.848.445-1 1-1s0 .152 0 1z" transform="translate(-33.167 -29.579)"/>
    </symbol>
</svg>
