<?xml version="1.0" standalone="no"?>
<!DOCTYPE svg PUBLIC "-//W3C//DTD SVG 1.1//EN" "http://www.w3.org/Graphics/SVG/1.1/DTD/svg11.dtd" >
<svg xmlns="http://www.w3.org/2000/svg" xmlns:xlink="http://www.w3.org/1999/xlink" version="1.1">
<metadata>
Created by FontForge 20170731 at Tue Mar 15 14:09:05 2011
 By Aleksey,,,
2005 Mike Abbink, Paul van der Laan published by FSI FontShop International GmbH
</metadata>
<defs>
<font id="KievitPro-BookItalic" horiz-adv-x="1" >
  <font-face 
    font-family="KievitPro-BookItalic"
    font-weight="450"
    font-style="italic"
    font-stretch="normal"
    units-per-em="1000"
    panose-1="2 11 6 4 2 1 1 2 1 2"
    ascent="760"
    descent="-240"
    x-height="481"
    cap-height="666"
    bbox="-446 -256 1231 933"
    underline-thickness="60"
    underline-position="-255"
    slope="-10"
    unicode-range="U+000D-FB04"
  />
<missing-glyph horiz-adv-x="515" 
d="M29 0v666h457v-666h-457zM98 69h319v528h-319v-528z" />
    <glyph glyph-name="f_b" unicode="fb" horiz-adv-x="812" 
d="M-43 -230q-42 0 -86 18l27 68q34 -14 64 -14q72 0 93 116l85 458h-93l11 65h93l14 75q17 91 69.5 133.5t142.5 42.5q99 0 174 -30l-41 -222q-13 -70 -31 -138h2q37 70 80 111t102 41t89 -43.5t30 -113.5q0 -144 -79.5 -246.5t-207.5 -102.5q-77 0 -152 20l115 639
q-40 11 -88 11q-56 0 -83.5 -25t-39.5 -86l-13 -66h114l-11 -65h-115l-83 -458q-18 -97 -59 -142.5t-123 -45.5zM503 57q87 0 139.5 79t52.5 192q0 91 -54 91q-63 0 -118 -96t-78 -215l-8 -43q36 -8 66 -8z" />
    <glyph glyph-name="f_f" unicode="ff" horiz-adv-x="618" 
d="M-42 -233q-42 0 -86 18l26 68q32 -14 65 -14q72 0 93 116l85 461h-94l11 65h95l9 53q18 98 68.5 144t139.5 46q84 0 140 -42q50 50 132 50q66 0 118 -31l-36 -68q-40 25 -87 25t-69.5 -28t-32.5 -81l-12 -68h116l-11 -65h-118l-82 -458q-17 -94 -57.5 -138.5
t-120.5 -44.5q-46 0 -84 18l27 67q34 -14 62 -14q67 0 89 112l84 458h-204l-84 -461q-18 -97 -59 -142.5t-123 -45.5zM236 481h204l14 75q7 38 17 62q-41 32 -105 32q-56 0 -83 -28t-39 -95z" />
    <glyph glyph-name="f_f_b" unicode="ffb" horiz-adv-x="1101" 
d="M-42 -233q-42 0 -86 18l26 68q32 -14 65 -14q72 0 93 116l85 461h-94l11 65h95l9 53q18 98 68.5 144t139.5 46q82 0 143 -44q52 52 153 52q99 0 174 -30l-41 -222q-13 -70 -31 -138h2q38 70 80.5 111t102.5 41q58 0 88 -43.5t30 -113.5q0 -144 -79 -246.5t-208 -102.5
q-77 0 -152 20l114 639q-40 11 -88 11q-56 0 -84.5 -25.5t-38.5 -85.5l-12 -66h114l-12 -65h-115l-82 -458q-17 -94 -57.5 -138.5t-120.5 -44.5q-46 0 -84 18l27 67q34 -14 62 -14q67 0 89 112l84 458h-204l-84 -461q-18 -97 -59 -142.5t-123 -45.5zM792 57q88 0 140 79
t52 192q0 91 -54 91q-63 0 -118 -96t-78 -215l-8 -43q36 -8 66 -8zM236 481h204l14 75q6 34 18 61q-43 33 -106 33q-56 0 -83 -28t-39 -95z" />
    <glyph glyph-name="f_f_h" unicode="ffh" horiz-adv-x="1115" 
d="M-42 -233q-42 0 -86 18l26 68q32 -14 65 -14q72 0 93 116l85 461h-94l11 65h95l9 53q18 98 68.5 144t139.5 46q82 0 143 -44q52 52 153 52q99 0 174 -30l-41 -220q-15 -84 -28 -140h2q83 152 192 152q50 0 76 -31t26 -86q0 -20 -5 -52l-59 -325h-83l56 319q4 20 4 41
q0 59 -46 59q-61 0 -120.5 -92.5t-91.5 -274.5l-10 -52h-83l117 647q-40 11 -88 11q-56 0 -84.5 -25.5t-38.5 -85.5l-12 -66h114l-12 -65h-115l-82 -458q-17 -94 -57.5 -138.5t-120.5 -44.5q-46 0 -84 18l27 67q34 -14 62 -14q67 0 89 112l84 458h-204l-84 -461
q-18 -97 -59 -142.5t-123 -45.5zM236 481h204l14 75q6 34 18 61q-43 33 -106 33q-56 0 -83 -28t-39 -95z" />
    <glyph glyph-name="f_f_i" unicode="ffi" horiz-adv-x="833" 
d="M-42 -233q-42 0 -86 18l26 68q32 -14 65 -14q72 0 93 116l85 461h-94l11 65h95l9 53q18 98 68.5 144t139.5 46q86 0 143 -45q53 53 152 53q83 0 142 -38l-37 -67q-51 31 -109 31q-57 0 -86 -26t-40 -87l-12 -64h275l-87 -481h-84l75 416h-192l-82 -458
q-18 -97 -59 -142.5t-123 -45.5q-41 0 -85 18l26 68q30 -14 64 -14q72 0 93 116l84 458h-204l-84 -461q-18 -97 -59 -142.5t-123 -45.5zM236 481h205l12 72q5 31 19 64q-43 33 -106 33q-56 0 -83 -28t-39 -95z" />
    <glyph glyph-name="f_f_j" unicode="ffj" horiz-adv-x="832" 
d="M-42 -233q-42 0 -86 18l26 68q32 -14 65 -14q72 0 93 116l85 461h-94l11 65h95l9 53q18 98 68.5 144t139.5 46q86 0 143 -45q53 53 152 53q83 0 142 -38l-37 -67q-51 31 -109 31q-57 0 -86 -26t-40 -87l-12 -64h275l-93 -521q-17 -91 -58.5 -140.5t-129.5 -49.5
q-37 0 -73 13l30 69q21 -9 46 -9q45 0 67.5 30.5t33.5 94.5l81 448h-192l-82 -458q-18 -97 -59 -142.5t-123 -45.5q-41 0 -85 18l26 68q30 -14 64 -14q72 0 93 116l84 458h-204l-84 -461q-18 -97 -59 -142.5t-123 -45.5zM236 481h205l12 72q5 31 19 64q-43 33 -106 33
q-56 0 -83 -28t-39 -95z" />
    <glyph glyph-name="f_f_k" unicode="ffk" horiz-adv-x="1055" 
d="M-42 -233q-42 0 -86 18l26 68q32 -14 65 -14q72 0 93 116l85 461h-94l11 65h95l9 53q18 98 68.5 144t139.5 46q82 0 143 -44q52 52 153 52q99 0 174 -30l-126 -702h-84l116 647q-40 11 -88 11q-56 0 -84.5 -25.5t-38.5 -85.5l-12 -66h114l-12 -65h-115l-82 -458
q-17 -94 -57.5 -138.5t-120.5 -44.5q-46 0 -84 18l27 67q34 -14 62 -14q67 0 89 112l84 458h-204l-84 -461q-18 -97 -59 -142.5t-123 -45.5zM236 481h204l14 75q6 34 18 61q-43 33 -106 33q-56 0 -83 -28t-39 -95zM913 0l-149 269l216 212h101l-227 -216l148 -265h-89z" />
    <glyph glyph-name="f_f_l" unicode="ffl" horiz-adv-x="836" 
d="M-42 -233q-42 0 -86 18l26 68q32 -14 65 -14q72 0 93 116l85 461h-94l11 65h95l9 53q18 98 68.5 144t139.5 46q82 0 143 -44q52 52 153 52q99 0 174 -30l-127 -702h-83l116 647q-40 11 -88 11q-56 0 -84.5 -25.5t-38.5 -85.5l-12 -66h114l-12 -65h-115l-82 -458
q-17 -94 -57.5 -138.5t-120.5 -44.5q-46 0 -84 18l27 67q34 -14 62 -14q67 0 89 112l84 458h-204l-84 -461q-18 -97 -59 -142.5t-123 -45.5zM236 481h204l14 75q6 34 18 61q-43 33 -106 33q-56 0 -83 -28t-39 -95z" />
    <glyph glyph-name="f_h" unicode="fh" horiz-adv-x="826" 
d="M-43 -230q-42 0 -86 18l27 68q34 -14 64 -14q72 0 93 116l85 458h-93l11 65h93l14 75q17 91 69.5 133.5t142.5 42.5q99 0 174 -30l-40 -220q-16 -90 -29 -140h2q16 28 30 48t38.5 47t56.5 42t68 15q50 0 76 -31t26 -86q0 -20 -5 -52l-60 -325h-83l57 319q4 20 4 41
q0 59 -46 59q-61 0 -121 -92.5t-92 -274.5l-9 -52h-84l119 647q-40 11 -89 11q-56 0 -83.5 -25t-39.5 -86l-13 -66h114l-11 -65h-115l-83 -458q-18 -97 -59 -142.5t-123 -45.5z" />
    <glyph glyph-name="f_i" unicode="fi" horiz-adv-x="544" 
d="M-43 -230q-42 0 -86 18l27 68q34 -14 64 -14q74 0 93 116l85 458h-93l11 65h93l14 72q33 179 211 179q85 0 142 -38l-37 -67q-51 31 -109 31q-57 0 -86 -26t-40 -87l-12 -64h275l-87 -481h-83l75 416h-192l-83 -458q-18 -97 -59 -142.5t-123 -45.5z" />
    <glyph glyph-name="f_j" unicode="fj" horiz-adv-x="546" 
d="M-41 -230q-42 0 -86 18l26 68q36 -14 65 -14q72 0 93 116l84 458h-92l11 65h93l13 72q34 179 212 179q83 0 142 -38l-37 -67q-51 31 -109 31q-57 0 -86 -26t-40 -87l-12 -64h276l-93 -521q-15 -91 -57 -140.5t-131 -49.5q-38 0 -72 13l29 69q21 -9 47 -9q45 0 67.5 31
t33.5 94l80 448h-192l-83 -458q-18 -97 -59 -142.5t-123 -45.5z" />
    <glyph glyph-name="f_k" unicode="fk" horiz-adv-x="766" 
d="M-43 -230q-42 0 -86 18l27 68q34 -14 64 -14q72 0 93 116l85 458h-93l11 65h93l14 75q17 91 69.5 133.5t142.5 42.5q99 0 174 -30l-126 -702h-83l116 647q-40 11 -88 11q-56 0 -83.5 -25t-39.5 -86l-13 -66h114l-11 -65h-115l-83 -458q-18 -97 -59 -142.5t-123 -45.5z
M624 0l-148 269l216 212h100l-227 -216l148 -265h-89z" />
    <glyph glyph-name="f_l" unicode="fl" horiz-adv-x="548" 
d="M-43 -230q-42 0 -86 18l27 68q34 -14 64 -14q74 0 93 116l85 458h-93l11 65h93l14 75q17 91 69.5 133.5t142.5 42.5q99 0 174 -30l-126 -702h-84l117 647q-40 11 -88 11q-56 0 -84 -25.5t-39 -85.5l-13 -66h114l-11 -65h-115l-83 -458q-18 -97 -59 -142.5t-123 -45.5z
" />
    <glyph glyph-name=".notdef" horiz-adv-x="515" 
d="M29 0v666h457v-666h-457zM98 69h319v528h-319v-528z" />
    <glyph glyph-name=".null" horiz-adv-x="0" 
 />
    <glyph glyph-name=".null" horiz-adv-x="0" 
 />
    <glyph glyph-name="nonmarkingreturn" horiz-adv-x="333" 
 />
    <glyph glyph-name="CR" unicode="&#xd;" horiz-adv-x="220" 
 />
    <glyph glyph-name="space" unicode=" " horiz-adv-x="220" 
 />
    <glyph glyph-name="exclam" unicode="!" horiz-adv-x="255" 
d="M99 -9q-27 0 -45.5 18.5t-18.5 44.5q0 24 18.5 42t45.5 18q25 0 43.5 -18t18.5 -42q0 -26 -18 -44.5t-44 -18.5zM84 204l64 462h100l-99 -462h-65z" />
    <glyph glyph-name="quotedbl" unicode="&#x22;" horiz-adv-x="366" 
d="M121 440l13 226h95l-45 -226h-63zM258 440l26 226h96l-59 -226h-63z" />
    <glyph glyph-name="numbersign" unicode="#" horiz-adv-x="514" 
d="M85 102l44 141h-86l19 66h88l34 106h-95l18 66h97l41 129h64l-40 -129h95l41 129h64l-40 -129h86l-18 -66h-89l-33 -106h95l-19 -66h-97l-44 -141h-64l44 141h-96l-44 -141h-65zM214 308h96l34 107h-96z" />
    <glyph glyph-name="dollar" unicode="$" horiz-adv-x="437" 
d="M116 -123l20 112q-78 12 -127 53l45 64q53 -49 125 -49q51 0 81 18t30 52q0 9 -2 16t-8.5 14.5t-11 12t-16.5 12t-19 11.5t-24 13t-25 14q-58 31 -84 61t-26 78q0 53 42 89t108 44l19 102h78l-19 -104q63 -7 106 -36l-41 -63q-52 32 -118 32q-42 0 -67.5 -16t-25.5 -44
q0 -25 22 -43.5t67 -40.5q33 -17 51.5 -28t40 -29t31 -40t9.5 -49q0 -60 -45 -97.5t-118 -45.5l-20 -113h-78z" />
    <glyph glyph-name="percent" unicode="%" horiz-adv-x="736" 
d="M167 208q-56 0 -89.5 35.5t-33.5 86.5q0 65 45.5 114t114.5 49q60 0 92 -33t32 -87q0 -67 -46 -116t-115 -49zM173 262q37 0 60.5 30.5t23.5 77.5q0 69 -58 69q-37 0 -60.5 -29t-23.5 -75q0 -73 58 -73zM530 -12q-56 0 -89 35.5t-33 86.5q0 65 45.5 114t113.5 49
q60 0 92 -33t32 -87q0 -67 -45.5 -116t-115.5 -49zM536 42q38 0 61 30.5t23 77.5q0 69 -58 69q-37 0 -60.5 -29t-23.5 -74q0 -74 58 -74zM149 0l370 482h70l-370 -482h-70z" />
    <glyph glyph-name="ampersand" unicode="&#x26;" horiz-adv-x="685" 
d="M554 -90q-51 0 -89 26.5t-95 91.5q-83 -40 -161 -40q-83 0 -129 49t-46 124q0 135 80.5 234t185.5 99q54 0 86 -27t32 -77q0 -52 -41 -90t-96 -59l108 -126q45 30 81 68q58 57 92 130.5t34 137.5q0 83 -50 130t-158 63l14 71q136 -18 205.5 -84t69.5 -175
q0 -76 -44.5 -164.5t-117.5 -159.5q-37 -37 -84 -70q46 -52 71 -70t55 -18q34 0 65 20l26 -58q-42 -26 -94 -26zM223 60q51 0 105 24l-127 147l14 44q56 13 90 42.5t34 63.5q0 43 -55 43q-67 0 -117.5 -78t-50.5 -176q0 -110 107 -110z" />
    <glyph glyph-name="quotesingle" unicode="'" horiz-adv-x="216" 
d="M112 440l20 226h100l-58 -226h-62z" />
    <glyph glyph-name="parenleft" unicode="(" horiz-adv-x="303" 
d="M152 -175q-113 148 -113 344q0 82 19.5 161t47.5 136t66.5 110.5t68 85t60.5 58.5h82q-32 -29 -61.5 -61.5t-66.5 -86.5t-64 -111t-45.5 -134t-18.5 -157q0 -189 101 -345h-76z" />
    <glyph glyph-name="parenright" unicode=")" horiz-adv-x="307" 
d="M-73 -175q48 46 89.5 98t83.5 123t66.5 159.5t24.5 181.5q0 110 -31.5 195.5t-71.5 137.5h78q43 -52 78 -136.5t35 -195.5q0 -84 -21.5 -165.5t-50 -139.5t-69.5 -114.5t-68 -85.5t-58 -58h-85z" />
    <glyph glyph-name="asterisk" unicode="*" horiz-adv-x="441" 
d="M156 321l-52 40l107 114l-127 36l29 63l124 -47l19 139h75l-30 -140l134 47l15 -65l-144 -35l73 -120l-61 -32l-62 122z" />
    <glyph glyph-name="plus" unicode="+" horiz-adv-x="560" 
d="M200 40l33 191h-176l12 69h177l31 183h76l-32 -183h179l-13 -69h-178l-33 -191h-76z" />
    <glyph glyph-name="comma" unicode="," horiz-adv-x="226" 
d="M31 -149l-35 32q18 18 27 28t18.5 28t9.5 35q0 18 -15 42t-15 44q0 26 17.5 43.5t43.5 17.5q28 0 47.5 -19.5t19.5 -52.5q0 -56 -36 -109.5t-82 -88.5z" />
    <glyph glyph-name="hyphen" unicode="-" horiz-adv-x="308" 
d="M52 250l13 72h206l-13 -72h-206z" />
    <glyph glyph-name="period" unicode="." horiz-adv-x="226" 
d="M85 -9q-27 0 -46.5 19t-19.5 46q0 26 19.5 44.5t46.5 18.5q26 0 45.5 -19t19.5 -44q0 -27 -19.5 -46t-45.5 -19z" />
    <glyph glyph-name="slash" unicode="/" horiz-adv-x="411" 
d="M443 666l-349 -666h-80l350 666h79z" />
    <glyph glyph-name="zero" unicode="0" horiz-adv-x="535" 
d="M233 -12q-91 0 -140 63t-49 147q0 120 76.5 208t189.5 88q95 0 142 -60.5t47 -146.5q0 -123 -75.5 -211t-190.5 -88zM241 57q77 0 125 67t48 161q0 62 -26.5 101.5t-85.5 39.5q-73 0 -123 -66.5t-50 -157.5q0 -69 29 -107t83 -38z" />
    <glyph glyph-name="one" unicode="1" horiz-adv-x="329" 
d="M111 0l74 402l-119 -35l-17 69l169 45h65l-87 -481h-85z" />
    <glyph glyph-name="two" unicode="2" horiz-adv-x="458" 
d="M-6 0l5 39q86 58 133 92t96 76.5t69.5 78.5t20.5 72q0 30 -21 46.5t-59 16.5q-63 0 -125 -47l-39 55q82 65 174 65q73 0 115.5 -33.5t42.5 -93.5q0 -45 -25.5 -90.5t-71 -86.5t-81 -67t-83.5 -56q48 4 68 4h181l-12 -71h-388z" />
    <glyph glyph-name="three" unicode="3" horiz-adv-x="441" 
d="M75 -188q-51 0 -93 12l20 67q30 -9 77 -9q84 0 138 41t54 112q0 113 -166 113l10 63q73 0 133 38.5t60 101.5q0 31 -21.5 50.5t-62.5 19.5q-25 0 -48 -7t-34.5 -13.5t-34.5 -21.5l-39 55q77 60 171 60q75 0 117 -38t42 -94q0 -64 -50 -111.5t-115 -66.5v-1
q53 -10 91.5 -48.5t38.5 -94.5q0 -102 -84 -165t-204 -63z" />
    <glyph glyph-name="four" unicode="4" horiz-adv-x="531" 
d="M252 -177l33 177h-299l8 54l382 427h82l-76 -412h104l-11 -69h-106l-32 -177h-85zM94 69h204l56 294h-2z" />
    <glyph glyph-name="five" unicode="5" horiz-adv-x="422" 
d="M73 -188q-51 0 -93 12l20 67q30 -9 78 -9q85 0 138 43t53 118q0 78 -59 113q-51 29 -144 26l58 299h295l-11 -67h-214l-34 -169q89 -8 144.5 -60t55.5 -133q0 -111 -80.5 -175.5t-206.5 -64.5z" />
    <glyph glyph-name="six" unicode="6" horiz-adv-x="524" 
d="M248 -12q-90 0 -141.5 65t-51.5 177q0 84 31 163t88 143t147.5 103t199.5 39l8 -70q-155 0 -259 -85q-86 -68 -115 -182q63 55 149 55q81 0 129.5 -45t48.5 -121q0 -103 -67 -172.5t-167 -69.5zM254 57q65 0 104.5 48.5t39.5 119.5q0 48 -28.5 75.5t-82.5 27.5
q-81 0 -145 -56q-2 -32 -2 -47q0 -80 29 -124t85 -44z" />
    <glyph glyph-name="seven" unicode="7" horiz-adv-x="453" 
d="M59 -199l-67 38l355 570h-300l13 72h395l-9 -56z" />
    <glyph glyph-name="eight" unicode="8" horiz-adv-x="493" 
d="M210 -12q-88 0 -135 45.5t-47 109.5q0 125 170 204q-94 72 -94 151t60 129.5t143 50.5t128.5 -41.5t45.5 -100.5q0 -58 -38 -102t-115 -83q110 -75 110 -163q0 -86 -68.5 -143t-159.5 -57zM215 61q55 0 95 34.5t40 87.5q0 35 -23.5 64.5t-75.5 63.5q-66 -32 -101.5 -70
t-35.5 -90q0 -41 27.5 -65.5t73.5 -24.5zM274 387q120 62 120 139q0 35 -24 58.5t-69 23.5q-46 0 -78.5 -28t-32.5 -75q0 -60 84 -118z" />
    <glyph glyph-name="nine" unicode="9" horiz-adv-x="511" 
d="M2 -185l-9 68q146 0 247 76q87 69 119 174q-61 -47 -134 -47q-83 0 -129.5 48t-46.5 124q0 101 69 168.5t163 67.5q93 0 139.5 -58.5t46.5 -154.5q0 -210 -128.5 -338t-336.5 -128zM240 151q70 0 135 49q7 36 7 80q0 146 -107 146q-58 0 -99 -44.5t-41 -117.5
q0 -51 27 -82t78 -31z" />
    <glyph glyph-name="colon" unicode=":" horiz-adv-x="226" 
d="M85 -9q-27 0 -46.5 19t-19.5 46q0 26 19.5 44.5t46.5 18.5q26 0 45.5 -19t19.5 -44q0 -27 -19.5 -46t-45.5 -19zM147 358q-27 0 -46.5 19t-19.5 46q0 26 19.5 44.5t46.5 18.5q26 0 45.5 -19t19.5 -44q0 -27 -19.5 -46t-45.5 -19z" />
    <glyph glyph-name="semicolon" unicode=";" horiz-adv-x="226" 
d="M31 -149l-35 32q18 18 27 28t18.5 28t9.5 35q0 18 -15 42t-15 44q0 26 17.5 43.5t43.5 17.5q28 0 47.5 -19.5t19.5 -52.5q0 -56 -36 -109.5t-82 -88.5zM148 358q-28 0 -47 19t-19 46q0 26 19 44.5t47 18.5q26 0 45.5 -19t19.5 -44q0 -27 -19.5 -46t-45.5 -19z" />
    <glyph glyph-name="less" unicode="&#x3c;" horiz-adv-x="399" 
d="M255 25l-211 222l280 220l42 -54l-221 -172l159 -169z" />
    <glyph glyph-name="equal" unicode="=" horiz-adv-x="526" 
d="M50 146l13 71h390l-12 -71h-391zM80 314l13 71h390l-12 -71h-391z" />
    <glyph glyph-name="greater" unicode="&#x3e;" horiz-adv-x="399" 
d="M75 25l-42 54l221 172l-159 169l49 47l211 -222z" />
    <glyph glyph-name="question" unicode="?" horiz-adv-x="406" 
d="M102 199l10 61q8 49 26.5 74t66.5 53q61 34 86.5 60.5t25.5 74.5q0 38 -25.5 60.5t-73.5 22.5q-38 0 -84 -20l-25 66q54 27 124 27q82 0 128 -42.5t46 -103.5q0 -38 -12.5 -68.5t-38 -54.5t-47 -38.5t-56.5 -33.5q-30 -17 -44.5 -36t-19.5 -50l-10 -52h-77zM117 -9
q-27 0 -45.5 18.5t-18.5 44.5q0 24 18.5 42t45.5 18q26 0 44.5 -18t18.5 -42q0 -26 -18.5 -44.5t-44.5 -18.5z" />
    <glyph glyph-name="at" unicode="@" horiz-adv-x="752" 
d="M373 -92q-152 0 -242.5 94.5t-90.5 237.5q0 152 105.5 267t260.5 115q77 0 141.5 -27.5t104.5 -72t62 -97.5t22 -106q0 -99 -51 -168t-128 -69q-50 0 -77.5 29.5t-28.5 77.5h-2q-17 -41 -52 -73.5t-85 -32.5q-44 0 -70 34.5t-26 81.5q0 107 56.5 186.5t155.5 79.5
q40 0 123 -22l-26 -145q-12 -78 -12 -89q0 -27 14 -46t35 -19q48 0 79.5 49t31.5 119q0 109 -76.5 179t-191.5 70t-204 -93.5t-89 -224.5q0 -122 72.5 -198t199.5 -76q82 0 148 29l24 -56q-84 -34 -183 -34zM334 150q35 0 65 39.5t46.5 86.5t26.5 101l4 22q-25 9 -53 9
q-56 0 -91.5 -59t-35.5 -138q0 -24 9.5 -42.5t28.5 -18.5z" />
    <glyph glyph-name="A" unicode="A" horiz-adv-x="617" 
d="M194 232h231l-34 211q-12 74 -17 123h-2q-20 -47 -62 -123zM-23 0l373 666h86l118 -666h-92l-25 157h-283l-86 -157h-91z" />
    <glyph glyph-name="B" unicode="B" horiz-adv-x="566" 
d="M47 0l119 666h176q89 0 140.5 -37.5t51.5 -108.5q0 -138 -144 -174v-2q53 -10 86 -44.5t33 -87.5q0 -105 -75 -158.5t-203 -53.5h-184zM148 73h90q95 0 137.5 34t42.5 102q0 48 -33.5 75.5t-99.5 27.5h-95zM202 381h92q74 0 111.5 33t37.5 92q0 44 -27.5 65.5t-88.5 21.5
h-87z" />
    <glyph glyph-name="C" unicode="C" horiz-adv-x="608" 
d="M330 -12q-134 0 -204 78.5t-70 201.5q0 170 110.5 290t273.5 120q120 0 186 -47l-50 -67q-54 39 -142 39q-123 0 -203.5 -96t-80.5 -235q0 -94 46.5 -151t140.5 -57q87 0 165 60l38 -64q-33 -30 -91 -51t-119 -21z" />
    <glyph glyph-name="D" unicode="D" horiz-adv-x="666" 
d="M47 0l119 666h156q160 0 240 -69t80 -190q0 -81 -26 -153t-75.5 -129.5t-130 -91t-180.5 -33.5h-183zM150 74h95q143 0 223 92.5t80 235.5q0 98 -56.5 144t-178.5 46h-72z" />
    <glyph glyph-name="E" unicode="E" horiz-adv-x="500" 
d="M47 0l119 666h343l-14 -76h-254l-37 -201h225l-14 -75h-223l-43 -238h262l-14 -76h-350z" />
    <glyph glyph-name="F" unicode="F" horiz-adv-x="488" 
d="M47 0l119 666h349l-14 -76h-260l-37 -204h228l-14 -74h-226l-56 -312h-89z" />
    <glyph glyph-name="G" unicode="G" horiz-adv-x="692" 
d="M345 -12q-137 0 -212.5 79t-75.5 202q0 168 113 288.5t278 120.5q131 0 206 -55l-52 -68q-61 48 -162 48q-128 0 -208.5 -95.5t-80.5 -235.5q0 -96 50.5 -153t148.5 -57q84 0 154 38l31 178h-141l14 74h228l-54 -298q-96 -66 -237 -66z" />
    <glyph glyph-name="H" unicode="H" horiz-adv-x="714" 
d="M47 0l118 666h89l-49 -278h354l50 278h89l-119 -666h-89l56 312h-354l-56 -312h-89z" />
    <glyph glyph-name="I" unicode="I" horiz-adv-x="282" 
d="M53 0l119 666h89l-119 -666h-89z" />
    <glyph glyph-name="J" unicode="J" horiz-adv-x="279" 
d="M-45 -193q-39 0 -66 12l30 76q16 -8 38 -8q78 0 97 115l119 664h88l-121 -678q-31 -181 -185 -181z" />
    <glyph glyph-name="K" unicode="K" horiz-adv-x="567" 
d="M419 0l-220 348l311 318h103l-315 -319l221 -347h-100zM47 0l119 666h87l-118 -666h-88z" />
    <glyph glyph-name="L" unicode="L" horiz-adv-x="465" 
d="M47 0l119 666h88l-104 -591h253l-13 -75h-343z" />
    <glyph glyph-name="M" unicode="M" horiz-adv-x="842" 
d="M17 0l207 666h82l73 -471q4 -23 7.5 -58t4.5 -42h2q39 84 48 100l245 471h83l-33 -666h-86l23 420q4 63 9 97h-2q-27 -58 -43 -88l-223 -429h-83l-66 424q-10 59 -13 93h-2q-6 -31 -26 -97l-125 -420h-82z" />
    <glyph glyph-name="N" unicode="N" horiz-adv-x="694" 
d="M44 0l119 666h87l215 -443q29 -61 41 -100h2q8 68 15 106l77 437h81l-118 -666h-81l-223 457q-20 42 -37 92h-2q-8 -60 -14 -97l-81 -452h-81z" />
    <glyph glyph-name="O" unicode="O" horiz-adv-x="737" 
d="M341 -12q-130 0 -206.5 84t-76.5 204q0 101 44.5 192t131 150.5t193.5 59.5q136 0 209 -83t73 -207q0 -101 -43.5 -191.5t-129.5 -149.5t-195 -59zM346 63q82 0 145 48t94 121t31 157q0 92 -50.5 153t-144.5 61q-122 0 -196 -97t-74 -229q0 -92 52.5 -153t142.5 -61z" />
    <glyph glyph-name="P" unicode="P" horiz-adv-x="536" 
d="M47 0l119 666h167q96 0 152.5 -44t56.5 -124q0 -111 -77.5 -173t-203.5 -62h-78l-47 -263h-89zM196 337h74q88 0 133.5 40t45.5 110q0 105 -131 105h-77z" />
    <glyph glyph-name="Q" unicode="Q" horiz-adv-x="738" 
d="M499 -165q-79 0 -141 40t-114 128q-88 28 -137 103.5t-49 169.5q0 101 44.5 192t131 150.5t193.5 59.5q136 0 209 -83t73 -207q0 -98 -41 -186t-122.5 -148t-185.5 -65q55 -82 148 -82q65 0 114 34l29 -65q-65 -41 -152 -41zM346 62q82 0 145 48t94 121.5t31 157.5
q0 92 -50.5 153t-144.5 61q-122 0 -196 -97t-74 -229q0 -92 53 -153.5t142 -61.5z" />
    <glyph glyph-name="R" unicode="R" horiz-adv-x="578" 
d="M47 0l119 666h182q90 0 141 -41t51 -114q0 -88 -56.5 -140t-154.5 -60v-2q28 -20 64 -87l120 -222h-98l-102 192q-38 70 -57.5 89.5t-55.5 19.5h-10l-54 -301h-89zM201 372h97q76 0 113.5 36t37.5 97q0 87 -117 87h-90z" />
    <glyph glyph-name="S" unicode="S" horiz-adv-x="460" 
d="M195 -12q-119 0 -203 78l54 61q21 -19 34 -29t47 -22.5t73 -12.5q59 0 87.5 30t28.5 76q0 22 -5.5 39t-23.5 38t-29 31t-46 40q-42 37 -62.5 58t-40.5 58.5t-20 77.5q0 80 54.5 123.5t141.5 43.5q95 0 164 -53l-45 -66q-56 45 -124 45q-103 0 -103 -92q0 -25 14 -48.5
t30.5 -39t54.5 -48.5q34 -29 50 -44t38 -42t31.5 -55.5t9.5 -62.5q0 -76 -53 -130t-157 -54z" />
    <glyph glyph-name="T" unicode="T" horiz-adv-x="495" 
d="M161 0l106 590h-187l13 76h457l-12 -76h-182l-105 -590h-90z" />
    <glyph glyph-name="U" unicode="U" horiz-adv-x="680" 
d="M308 -12q-112 0 -169.5 54t-57.5 147q0 30 6 63l73 414h88l-71 -405q-7 -35 -7 -67q0 -66 35.5 -97.5t110.5 -31.5q86 0 132.5 46.5t64.5 144.5l73 410h83l-75 -422q-23 -125 -91 -190.5t-195 -65.5z" />
    <glyph glyph-name="V" unicode="V" horiz-adv-x="604" 
d="M226 0l-135 666h90l86 -447q6 -30 18 -118h2q3 6 13 29t20.5 46t20.5 43l228 447h92l-351 -666h-84z" />
    <glyph glyph-name="W" unicode="W" horiz-adv-x="863" 
d="M156 0l-63 666h89l34 -399q7 -77 9 -139h2q12 35 57 138l175 400h89l45 -414q8 -72 11 -124h2q14 39 50 125l170 413h92l-292 -666h-83l-44 411q-2 18 -14 148h-2q-19 -51 -62 -148l-184 -411h-81z" />
    <glyph glyph-name="X" unicode="X" horiz-adv-x="564" 
d="M-18 0l269 347l-139 319h93l106 -256l186 256h97l-248 -323l150 -343h-93l-118 280l-205 -280h-98z" />
    <glyph glyph-name="Y" unicode="Y" horiz-adv-x="554" 
d="M193 0l46 251l-149 415h92l115 -331h1l218 331h93l-281 -416l-45 -250h-90z" />
    <glyph glyph-name="Z" unicode="Z" horiz-adv-x="521" 
d="M-15 0l12 62l432 530h-322l14 74h434l-11 -59l-437 -533h354l-13 -74h-463z" />
    <glyph glyph-name="bracketleft" unicode="[" horiz-adv-x="308" 
d="M6 -161l153 881h207l-12 -64h-126l-131 -753h127l-12 -64h-206z" />
    <glyph glyph-name="backslash" unicode="\" horiz-adv-x="382" 
d="M241 -161l-163 881h75l162 -881h-74z" />
    <glyph glyph-name="bracketright" unicode="]" horiz-adv-x="307" 
d="M-46 -161l12 64h125l131 753h-126l11 64h207l-153 -881h-207z" />
    <glyph glyph-name="asciicircum" unicode="^" horiz-adv-x="601" 
d="M74 288l268 378h58l132 -378h-74l-99 295l-207 -295h-78z" />
    <glyph glyph-name="underscore" unicode="_" horiz-adv-x="394" 
d="M-74 -164l13 69h398l-13 -69h-398z" />
    <glyph glyph-name="grave" unicode="`" horiz-adv-x="500" 
d="M271 540l-108 128h111l68 -128h-71z" />
    <glyph glyph-name="a" unicode="a" horiz-adv-x="489" 
d="M149 -12q-58 0 -89 40.5t-31 109.5q0 145 79 250.5t210 105.5q82 0 142 -21l-46 -256q-30 -168 -30 -217h-82q9 78 25 142h-2q-37 -72 -77 -113t-99 -41zM172 62q39 0 79 46.5t68.5 117.5t39.5 146l7 43q-25 9 -63 9q-85 0 -137 -81t-52 -192q0 -89 58 -89z" />
    <glyph glyph-name="b" unicode="b" horiz-adv-x="495" 
d="M179 -12q-73 0 -153 20l129 712h83l-44 -240q-11 -59 -32 -138h2q38 70 81 111t102 41t88.5 -43.5t29.5 -113.5q0 -144 -79 -246.5t-207 -102.5zM187 57q87 0 139.5 79t52.5 192q0 91 -55 91q-43 0 -84 -49t-69 -118t-42 -144l-8 -43q32 -8 66 -8z" />
    <glyph glyph-name="c" unicode="c" horiz-adv-x="409" 
d="M192 -12q-77 0 -121.5 50t-44.5 138q0 135 80.5 226.5t187.5 91.5q71 0 117 -33l-40 -65q-33 24 -85 24q-68 0 -122 -66t-54 -169q0 -125 90 -125q61 0 114 53l45 -55q-73 -70 -167 -70z" />
    <glyph glyph-name="d" unicode="d" horiz-adv-x="492" 
d="M150 -12q-60 0 -90 43.5t-30 112.5q0 147 80 248.5t207 101.5q35 0 70 -8l43 234h83l-91 -503q-31 -173 -31 -217h-81q10 80 25 143h-2q-38 -70 -81.5 -112.5t-101.5 -42.5zM169 62q64 0 121 95t77 215l7 44q-28 10 -70 10q-84 0 -136.5 -79.5t-52.5 -189.5q0 -95 54 -95
z" />
    <glyph glyph-name="e" unicode="e" horiz-adv-x="433" 
d="M190 -12q-80 0 -122 50t-42 127q0 136 77.5 232.5t185.5 96.5q59 0 95 -29t36 -84q0 -43 -25.5 -77t-70.5 -56t-97 -35.5t-116 -21.5v-15q0 -116 90 -116q68 0 125 57l44 -56q-81 -73 -180 -73zM275 422q-52 0 -95.5 -48t-60.5 -122q96 11 156 42t60 79q0 49 -60 49z" />
    <glyph glyph-name="f" unicode="f" horiz-adv-x="330" 
d="M-43 -230q-42 0 -86 18l27 68q34 -14 64 -14q72 0 93 116l85 458h-93l11 65h93l14 75q33 176 188 176q69 0 118 -31l-36 -68q-37 25 -86 25q-47 0 -70 -28t-32 -81l-13 -68h117l-11 -65h-118l-83 -458q-18 -97 -59 -142.5t-123 -45.5z" />
    <glyph glyph-name="g" unicode="g" horiz-adv-x="487" 
d="M141 -229q-81 0 -152 50l43 65q58 -42 116 -42q66 0 102.5 40t50.5 117l7 39q9 47 24 100h-2q-79 -151 -180 -151q-60 0 -90 43.5t-30 111.5q0 147 79.5 248.5t208.5 101.5q84 0 151 -19l-87 -474q-22 -122 -79 -176t-162 -54zM169 62q64 0 120.5 94.5t77.5 215.5l7 44
q-28 10 -70 10q-84 0 -136.5 -79.5t-52.5 -189.5q0 -95 54 -95z" />
    <glyph glyph-name="h" unicode="h" horiz-adv-x="515" 
d="M29 0l132 720h83l-45 -238q-15 -84 -28 -140h2q83 152 192 152q50 0 76 -31t26 -86q0 -20 -5 -52l-59 -325h-83l56 319q4 20 4 41q0 59 -46 59q-61 0 -120.5 -92.5t-92.5 -274.5l-9 -52h-83z" />
    <glyph glyph-name="i" unicode="i" horiz-adv-x="239" 
d="M186 569q-24 0 -41 17t-17 40q0 24 17 41t41 17t41 -17t17 -41q0 -23 -17 -40t-41 -17zM34 0l87 481h83l-87 -481h-83z" />
    <glyph glyph-name="j" unicode="j" horiz-adv-x="238" 
d="M-77 -230q-38 0 -74 14l30 69q15 -10 48 -10q45 0 67.5 31t33.5 94l93 513h83l-93 -521q-15 -91 -57 -140.5t-131 -49.5zM185 569q-23 0 -40.5 17t-17.5 40q0 24 17.5 41t40.5 17q24 0 41 -17t17 -41q0 -23 -17 -40t-41 -17z" />
    <glyph glyph-name="k" unicode="k" horiz-adv-x="449" 
d="M307 0l-149 269l216 212h101l-227 -216l148 -265h-89zM24 0l125 720h84l-125 -720h-84z" />
    <glyph glyph-name="l" unicode="l" horiz-adv-x="240" 
d="M34 0l130 720h83l-130 -720h-83z" />
    <glyph glyph-name="m" unicode="m" horiz-adv-x="792" 
d="M29 0l87 481h80q-8 -62 -29 -144h2q77 157 189 157q52 0 75 -31.5t23 -80.5q0 -20 -3 -39h2q39 69 83 110t108 41q49 0 74 -31t25 -86q0 -22 -5 -54l-58 -323h-83l55 307q5 30 5 51q0 61 -44 61q-63 0 -120 -94t-89 -273l-9 -52h-83l55 307q5 25 5 47q0 65 -47 65
q-60 0 -116.5 -93.5t-89.5 -273.5l-9 -52h-83z" />
    <glyph glyph-name="n" unicode="n" horiz-adv-x="515" 
d="M29 0l87 481h80q-14 -84 -30 -147h2q16 29 31.5 51.5t40 50t57 43t68.5 15.5q50 0 76 -31t26 -86q0 -20 -5 -52l-59 -325h-83l56 319q4 20 4 41q0 59 -46 59q-61 0 -120.5 -92.5t-92.5 -274.5l-9 -52h-83z" />
    <glyph glyph-name="o" unicode="o" horiz-adv-x="484" 
d="M203 -12q-87 0 -131 59.5t-44 140.5q0 119 73 212.5t179 93.5q85 0 130.5 -57t45.5 -141q0 -125 -73 -216.5t-180 -91.5zM209 56q70 0 116 73t46 157q0 140 -97 140q-70 0 -116.5 -74.5t-46.5 -161.5q0 -62 25 -98t73 -36z" />
    <glyph glyph-name="p" unicode="p" horiz-adv-x="495" 
d="M-15 -218l128 699h80q-11 -65 -31 -139h2q38 70 80.5 111t102.5 41q58 0 88 -43.5t30 -113.5q0 -144 -78.5 -246.5t-205.5 -102.5q-38 0 -74 8l-39 -214h-83zM186 55q87 0 140 80t53 193q0 91 -55 91q-63 0 -118.5 -96t-76.5 -214l-8 -46q32 -8 65 -8z" />
    <glyph glyph-name="q" unicode="q" horiz-adv-x="487" 
d="M259 -218l42 220q15 83 31 138h-2q-37 -69 -79.5 -110.5t-100.5 -41.5q-60 0 -90 43.5t-30 112.5q0 149 79.5 249.5t208.5 100.5q84 0 151 -19l-128 -693h-82zM169 62q64 0 120.5 95t77.5 215l7 44q-28 10 -71 10q-84 0 -136 -79.5t-52 -189.5q0 -95 54 -95z" />
    <glyph glyph-name="r" unicode="r" horiz-adv-x="361" 
d="M29 0l87 481h80q-6 -46 -31 -151h2q30 66 75.5 115t95.5 49q28 0 50 -10l-32 -80q-15 5 -31 5q-63 0 -118 -91.5t-86 -265.5l-9 -52h-83z" />
    <glyph glyph-name="s" unicode="s" horiz-adv-x="359" 
d="M136 -12q-88 0 -146 50l42 59q54 -41 109 -41q36 0 56.5 17.5t20.5 45.5q0 7 -1.5 14t-3.5 12.5t-7 13.5t-8.5 12.5t-12 13.5t-12.5 13.5t-15.5 16.5t-16.5 17q-39 40 -56.5 69t-17.5 66q0 58 42.5 92.5t113.5 34.5q70 0 119 -36l-41 -60q-38 27 -85 27q-32 0 -50 -14
t-18 -40q0 -15 8.5 -31t18.5 -27.5t37 -39.5q31 -33 38.5 -41.5t24 -31.5t21 -40.5t4.5 -40.5q0 -57 -43 -94t-121 -37z" />
    <glyph glyph-name="t" unicode="t" horiz-adv-x="340" 
d="M160 -12q-96 0 -96 92q0 18 5 48l53 288h-83l12 65h84l24 133l88 22l-28 -155h119l-12 -65h-120l-50 -273q-7 -35 -7 -50q0 -33 28 -33q7 0 14.5 1.5t14.5 4.5t12.5 5.5t13.5 8t11 8t11 9t10 7.5l38 -57q-67 -59 -142 -59z" />
    <glyph glyph-name="u" unicode="u" horiz-adv-x="515" 
d="M149 -12q-50 0 -76 30.5t-26 85.5q0 20 5 52l59 325h83l-56 -318q-4 -21 -4 -42q0 -59 46 -59q59 0 118.5 89t90.5 259l13 71h83l-48 -264q-30 -168 -30 -217h-82q15 104 26 154h-2q-17 -32 -32.5 -55.5t-41 -51.5t-57.5 -43.5t-69 -15.5z" />
    <glyph glyph-name="v" unicode="v" horiz-adv-x="429" 
d="M114 0l-67 481h85l35 -288q6 -55 7 -86h2l202 374h88l-277 -481h-75z" />
    <glyph glyph-name="w" unicode="w" horiz-adv-x="689" 
d="M105 0l-53 481h85l24 -269q1 -15 5 -101h2l182 370h78l18 -264q5 -65 5 -99h2l184 363h87l-257 -481h-73l-26 373h-2l-189 -373h-72z" />
    <glyph glyph-name="x" unicode="x" horiz-adv-x="437" 
d="M-37 0l207 249l-112 232h91l76 -167l132 167h92l-192 -233l118 -248h-92l-82 182l-147 -182h-91z" />
    <glyph glyph-name="y" unicode="y" horiz-adv-x="450" 
d="M-9 -221q-53 0 -84 17l33 68q20 -11 58 -11q41 0 74 28t77 104l-97 496h87l59 -337q8 -50 10 -68h2q16 49 25 68l154 337h88l-189 -386q-86 -180 -145.5 -248t-151.5 -68z" />
    <glyph glyph-name="z" unicode="z" horiz-adv-x="419" 
d="M-9 0l9 51l298 363h-225l11 67h332l-9 -54l-299 -360h247l-11 -67h-353z" />
    <glyph glyph-name="braceleft" unicode="{" horiz-adv-x="358" 
d="M180 -161q-41 0 -69 25.5t-28 69.5q0 16 2 25l34 186q3 15 3 27q0 79 -94 82l11 65q110 0 128 106l32 185q18 110 129 110h88l-11 -65h-64q-31 0 -46 -18.5t-22 -58.5l-29 -169q-19 -105 -117 -126v-2q76 -23 76 -94q0 -13 -3 -29l-31 -180l-1 -2v-2q-3 -18 -3 -30
q0 -21 10.5 -30.5t34.5 -9.5h65l-11 -65h-84z" />
    <glyph glyph-name="bar" unicode="|" horiz-adv-x="247" 
d="M1 -250l176 1000h68l-176 -1000h-68z" />
    <glyph glyph-name="braceright" unicode="}" horiz-adv-x="358" 
d="M-45 -161l11 65h65q32 0 46 19t21 58l30 178q16 98 118 127v2q-76 22 -76 95q0 14 3 29l29 169q0 1 0.5 2t0.5 2q3 18 3 30q0 21 -10.5 30.5t-34.5 9.5h-65l11 65h89q39 0 65.5 -24t26.5 -68q0 -17 -2 -27l-31 -176q-2 -16 -2 -24q0 -38 24 -60.5t68 -23.5l-11 -65
q-109 -2 -127 -107l-34 -196q-10 -56 -44.5 -83t-82.5 -27h-91z" />
    <glyph glyph-name="asciitilde" unicode="~" horiz-adv-x="587" 
d="M396 175q-45 0 -83 17t-69.5 34t-61.5 17q-45 0 -89 -40l-41 52q66 61 136 61q45 0 106.5 -33.5t107.5 -33.5t94 41l39 -51q-62 -64 -139 -64z" />
    <glyph glyph-name="uni00A0" unicode="&#xa0;" horiz-adv-x="220" 
 />
    <glyph glyph-name="exclamdown" unicode="&#xa1;" horiz-adv-x="255" 
d="M155 370q-26 0 -44.5 18t-18.5 43q0 26 18.5 44t44.5 18q27 0 45.5 -18t18.5 -44q0 -25 -18.5 -43t-45.5 -18zM5 -182l100 462h64l-63 -462h-101z" />
    <glyph glyph-name="cent" unicode="&#xa2;" horiz-adv-x="400" 
d="M132 -123l19 115q-59 12 -92 60t-33 124q0 116 62 202t151 109l19 107h79l-19 -101q57 -6 93 -32l-40 -65q-33 24 -85 24q-68 0 -122 -66t-54 -169q0 -125 90 -125q61 0 114 53l45 -55q-57 -54 -128 -66l-20 -115h-79z" />
    <glyph glyph-name="sterling" unicode="&#xa3;" horiz-adv-x="459" 
d="M63 292l11 66h87q2 91 10 135q31 185 203 185q74 0 122 -35l-40 -66q-44 29 -90 29q-45 0 -71 -28.5t-38 -91.5q-10 -62 -12 -128h146l-11 -66h-137q-7 -72 -35.5 -131t-75.5 -90h250l-12 -71h-363l10 56q63 33 99.5 95.5t42.5 140.5h-96z" />
    <glyph glyph-name="currency" unicode="&#xa4;" horiz-adv-x="496" 
d="M35 -11l-52 45l95 99q-26 39 -26 92q0 44 21 87.5t54 74.5l-62 101l68 45l59 -104q47 19 92 19q43 0 78 -15l95 100l51 -45l-93 -95q34 -40 34 -98q0 -101 -77 -168l56 -93l-68 -45l-54 97q-40 -17 -89 -17q-55 0 -89 20zM229 137q59 0 99.5 43.5t40.5 105.5
q0 42 -26.5 68t-70.5 26q-58 0 -99.5 -44t-41.5 -101q0 -45 27 -71.5t71 -26.5z" />
    <glyph glyph-name="yen" unicode="&#xa5;" horiz-adv-x="552" 
d="M196 0l16 94h-162l12 65h162l13 69h-164l12 65h141l-134 373h88l115 -339h1l221 339h91l-253 -373h141l-13 -65h-161l-12 -69h162l-12 -65h-162l-17 -94h-85z" />
    <glyph glyph-name="brokenbar" unicode="&#xa6;" horiz-adv-x="132" 
d="M-54 -250l67 378h71l-67 -378h-71zM57 382l65 368h71l-65 -368h-71z" />
    <glyph glyph-name="section" unicode="&#xa7;" horiz-adv-x="414" 
d="M117 -152q-75 0 -118 36l42 61q31 -25 78 -25q45 0 69 25.5t24 66.5q0 31 -24.5 72.5t-54 77.5t-54 86t-24.5 96q0 86 94 139q-19 41 -19 78q0 81 53.5 126t124.5 45q74 0 120 -31l-42 -64q-32 25 -81 25q-44 0 -67.5 -27t-23.5 -70q0 -30 24.5 -70.5t54 -75.5t54 -83.5
t24.5 -92.5q0 -48 -24 -82.5t-69 -65.5q18 -39 18 -73q0 -85 -51 -129.5t-128 -44.5zM244 150q46 33 46 84q0 49 -77 152q-22 30 -32 45q-43 -28 -43 -81q0 -46 51 -120q53 -77 55 -80z" />
    <glyph glyph-name="dieresis" unicode="&#xa8;" horiz-adv-x="500" 
d="M217 542q-23 0 -38.5 16t-15.5 38t15.5 38t38.5 16q24 0 39.5 -15.5t15.5 -38.5t-15.5 -38.5t-39.5 -15.5zM405 542q-23 0 -38.5 16t-15.5 38t15.5 38t38.5 16q24 0 39.5 -15.5t15.5 -38.5t-15.5 -38.5t-39.5 -15.5z" />
    <glyph glyph-name="copyright" unicode="&#xa9;" horiz-adv-x="822" 
d="M438 129q-97 0 -162 67t-65 163q0 97 66 163.5t162 66.5q78 0 142 -50l-41 -54q-47 38 -102 38q-70 0 -109 -49t-39 -113q0 -70 44.5 -118.5t108.5 -48.5q59 0 113 44l34 -55q-64 -54 -152 -54zM430 -14q-153 0 -262 109.5t-109 263.5t109 263.5t262 109.5
q154 0 263.5 -109t109.5 -264t-109.5 -264t-263.5 -109zM430 43q135 0 223.5 89t88.5 227t-88.5 227t-223.5 89q-133 0 -221.5 -89.5t-88.5 -226.5q0 -138 88 -227t222 -89z" />
    <glyph glyph-name="ordfeminine" unicode="&#xaa;" horiz-adv-x="355" 
d="M151 314q-41 0 -65 28.5t-24 74.5q0 104 60.5 182.5t155.5 78.5q55 0 106 -17l-33 -184q-20 -108 -20 -154h-66q10 76 17 103h-1q-54 -112 -130 -112zM171 376q41 0 80.5 65.5t53.5 149.5l4 23q-16 6 -41 6q-59 0 -97 -56.5t-38 -137.5q0 -50 38 -50z" />
    <glyph glyph-name="guillemotleft" unicode="&#xab;" horiz-adv-x="465" 
d="M126 55l-97 190l164 191h92l-168 -197l93 -184h-84zM312 55l-97 190l164 191h92l-168 -197l93 -184h-84z" />
    <glyph glyph-name="logicalnot" unicode="&#xac;" horiz-adv-x="577" 
d="M425 32l35 200h-430l12 72h506l-48 -272h-75z" />
    <glyph glyph-name="uni00AD" unicode="&#xad;" horiz-adv-x="308" 
d="M52 250l13 72h206l-13 -72h-206z" />
    <glyph glyph-name="registered" unicode="&#xae;" horiz-adv-x="822" 
d="M294 140v445h147q67 0 104 -36t37 -90q0 -49 -30.5 -78.5t-84.5 -37.5q26 -20 52 -59l99 -144h-83l-103 154q-17 25 -30.5 34t-36.5 9v-197h-71zM430 -14q-153 0 -262 109.5t-109 263.5t109 263.5t262 109.5q154 0 263.5 -109t109.5 -264t-109.5 -264t-263.5 -109z
M430 43q135 0 223.5 89t88.5 227t-88.5 227t-223.5 89q-133 0 -221.5 -89.5t-88.5 -226.5q0 -138 88 -227t222 -89zM365 390h44q46 0 72 13.5t26 54.5q0 68 -80 68h-62v-136z" />
    <glyph glyph-name="macron" unicode="&#xaf;" horiz-adv-x="500" 
d="M171 572l12 67h273l-13 -67h-272z" />
    <glyph glyph-name="degree" unicode="&#xb0;" horiz-adv-x="339" 
d="M214 414q-54 0 -92.5 38.5t-38.5 93.5q0 54 38.5 93t92.5 39t92.5 -39t38.5 -93q0 -55 -38 -93.5t-93 -38.5zM214 469q31 0 51.5 22t20.5 55q0 32 -20.5 54.5t-51.5 22.5t-51 -22.5t-20 -54.5q0 -33 20 -55t51 -22z" />
    <glyph glyph-name="plusminus" unicode="&#xb1;" horiz-adv-x="574" 
d="M199 41l34 190h-177l12 69h177l32 183h75l-31 -183h178l-12 -69h-179l-33 -190h-76zM-8 -122l13 71h432l-12 -71h-433z" />
    <glyph glyph-name="twosuperior" unicode="&#xb2;" horiz-adv-x="325" 
d="M46 340l7 38q122 86 151 113q54 50 55 88q0 36 -48 36q-40 0 -83 -31l-32 44q54 44 126 44q56 0 85.5 -21.5t29.5 -58.5q0 -49 -44.5 -94t-129.5 -103h3q3 0 8 0.5t10.5 1t12 0.5h11.5h110l-12 -57h-260z" />
    <glyph glyph-name="threesuperior" unicode="&#xb3;" horiz-adv-x="297" 
d="M116 334q-36 0 -66 10l20 55q22 -8 52 -8q43 0 69.5 13.5t26.5 40.5q0 44 -99 41l9 47q49 3 79 17.5t30 37.5q0 28 -44 28q-37 0 -71 -19l-26 44q48 31 112 31q50 0 76.5 -18.5t26.5 -48.5q0 -63 -89 -86v-1q30 -5 51 -23t21 -45q0 -54 -46 -85t-132 -31z" />
    <glyph glyph-name="acute" unicode="&#xb4;" horiz-adv-x="500" 
d="M152 540l109 128h123l-154 -128h-78z" />
    <glyph glyph-name="mu" unicode="&#xb5;" horiz-adv-x="562" 
d="M-16 -208l128 689h83l-57 -318q-18 -101 42 -101q59 0 119 89t90 259l13 71h84l-48 -264q-7 -38 -12.5 -73t-8.5 -59.5t-5.5 -43t-3.5 -29.5t-1 -12h-81q10 82 26 154h-2q-17 -31 -32.5 -54.5t-40 -51.5t-56 -43.5t-66.5 -15.5t-52 21q-1 -20 -12 -85l-23 -133h-84z" />
    <glyph glyph-name="paragraph" unicode="&#xb6;" horiz-adv-x="613" 
d="M169 -177l78 447q-70 1 -115.5 48.5t-45.5 121.5q0 99 66 162.5t165 63.5h326l-13 -71h-77l-135 -772h-76l136 772h-97l-136 -772h-76z" />
    <glyph glyph-name="periodcentered" unicode="&#xb7;" horiz-adv-x="243" 
d="M123 229q-26 0 -44.5 18t-18.5 44t18.5 44t44.5 18t44.5 -18.5t18.5 -43.5t-18.5 -43.5t-44.5 -18.5z" />
    <glyph glyph-name="cedilla" unicode="&#xb8;" horiz-adv-x="500" 
d="M168 -221q-41 0 -70 12l17 44q18 -9 49 -9q50 0 50 38q0 44 -71 40l36 97h56l-25 -65q32 -5 51.5 -24.5t19.5 -49.5q0 -38 -32 -60.5t-81 -22.5z" />
    <glyph glyph-name="onesuperior" unicode="&#xb9;" horiz-adv-x="251" 
d="M127 340l52 267l-85 -23l-16 54l122 28h60l-64 -326h-69z" />
    <glyph glyph-name="ordmasculine" unicode="&#xba;" horiz-adv-x="363" 
d="M197 315q-62 0 -96 40.5t-34 104.5q0 86 54 152t134 66q64 0 97.5 -39.5t33.5 -103.5q0 -95 -53 -157.5t-136 -62.5zM205 371q50 0 80 47t30 110q0 94 -67 94q-49 0 -80 -49t-31 -112q0 -90 68 -90z" />
    <glyph glyph-name="guillemotright" unicode="&#xbb;" horiz-adv-x="465" 
d="M-3 55l165 196l-93 185h83l97 -191l-160 -190h-92zM183 55l165 196l-93 185h83l97 -191l-160 -190h-92z" />
    <glyph glyph-name="onequarter" unicode="&#xbc;" horiz-adv-x="710" 
d="M181 340l52 267l-85 -23l-15 54l121 28h60l-63 -326h-70zM80 0l526 666h76l-526 -666h-76zM529 0l13 67h-174l9 46l220 213h65l-40 -205h53l-11 -54h-52l-14 -67h-69zM455 119q16 2 40 2h58l23 115h-1z" />
    <glyph glyph-name="onehalf" unicode="&#xbd;" horiz-adv-x="747" 
d="M181 340l52 267l-85 -23l-15 54l121 28h60l-63 -326h-70zM80 0l526 666h76l-526 -666h-76zM406 0l7 38q124 87 156 117q50 47 50 84q0 17 -13.5 26.5t-34.5 9.5q-42 0 -83 -32l-32 45q54 44 126 44q56 0 85.5 -21.5t29.5 -58.5q0 -49 -44.5 -94t-129.5 -104q3 3 45 3h110
l-12 -57h-260z" />
    <glyph glyph-name="threequarters" unicode="&#xbe;" horiz-adv-x="701" 
d="M116 334q-36 0 -66 10l20 55q22 -8 52 -8q43 0 69.5 13.5t26.5 40.5q0 44 -99 41l9 47q49 3 79 17.5t30 37.5q0 28 -44 28q-37 0 -71 -19l-26 44q48 31 112 31q50 0 76.5 -18.5t26.5 -48.5q0 -63 -89 -86v-1q30 -5 51 -23t21 -45q0 -54 -46 -85t-132 -31zM72 0l526 666
h75l-526 -666h-75zM520 0l13 67h-174l9 46l220 213h65l-40 -205h53l-10 -54h-53l-14 -67h-69zM447 119q14 2 39 2h59l22 115h-1z" />
    <glyph glyph-name="questiondown" unicode="&#xbf;" horiz-adv-x="437" 
d="M187 -194q-82 0 -128.5 42.5t-46.5 103.5q0 38 12.5 68.5t39 55t47.5 38.5t56 34q30 16 44 34.5t20 50.5l10 52h77l-10 -61q-8 -49 -26.5 -74t-66.5 -53q-61 -34 -86.5 -60.5t-25.5 -74.5q0 -38 25.5 -60.5t73.5 -22.5q38 0 84 20l25 -65q-52 -28 -124 -28zM302 370
q-25 0 -43.5 18t-18.5 43t18 43.5t44 18.5q27 0 45.5 -18t18.5 -44q0 -25 -18.5 -43t-45.5 -18z" />
    <glyph glyph-name="Agrave" unicode="&#xc0;" horiz-adv-x="617" 
d="M194 232h231l-34 211q-12 74 -17 123h-2q-20 -47 -62 -123zM-23 0l373 666h86l118 -666h-92l-25 157h-283l-86 -157h-91zM358 724l-108 128h111l68 -128h-71z" />
    <glyph glyph-name="Aacute" unicode="&#xc1;" horiz-adv-x="617" 
d="M194 232h231l-34 211q-12 74 -17 123h-2q-20 -47 -62 -123zM-23 0l373 666h86l118 -666h-92l-25 157h-283l-86 -157h-91zM360 724l109 128h123l-154 -128h-78z" />
    <glyph glyph-name="Acircumflex" unicode="&#xc2;" horiz-adv-x="617" 
d="M194 232h231l-34 211q-12 74 -17 123h-2q-20 -47 -62 -123zM-23 0l373 666h86l118 -666h-92l-25 157h-283l-86 -157h-91zM249 725l148 154h60l92 -154h-69l-63 85l-90 -85h-78z" />
    <glyph glyph-name="Atilde" unicode="&#xc3;" horiz-adv-x="617" 
d="M194 232h231l-34 211q-12 74 -17 123h-2q-20 -47 -62 -123zM-23 0l373 666h86l118 -666h-92l-25 157h-283l-86 -157h-91zM450 728q-26 0 -55.5 19t-47.5 19q-22 0 -54 -29l-33 38q44 61 99 61q26 0 56 -19t47 -19q32 0 56 29l35 -37q-51 -62 -103 -62z" />
    <glyph glyph-name="Adieresis" unicode="&#xc4;" horiz-adv-x="617" 
d="M194 232h231l-34 211q-12 74 -17 123h-2q-20 -47 -62 -123zM-23 0l373 666h86l118 -666h-92l-25 157h-283l-86 -157h-91zM310 726q-22 0 -38 16t-16 38t16 38t38 16q24 0 39.5 -15.5t15.5 -38.5t-15.5 -38.5t-39.5 -15.5zM498 726q-22 0 -38 16t-16 38t16 38t38 16
q24 0 39.5 -15.5t15.5 -38.5t-15.5 -38.5t-39.5 -15.5z" />
    <glyph glyph-name="Aring" unicode="&#xc5;" horiz-adv-x="617" 
d="M194 232h231l-34 211q-12 74 -17 123h-2q-20 -47 -62 -123zM-23 0l373 666h86l118 -666h-92l-25 157h-283l-86 -157h-91zM405 728q-40 0 -68.5 27t-28.5 69t28.5 70t68.5 28q39 0 67.5 -27.5t28.5 -69.5t-28.5 -69.5t-67.5 -27.5zM405 771q22 0 35 15.5t13 38.5
q0 24 -13 39t-35 15q-23 0 -36 -15t-13 -39q0 -23 13 -38.5t36 -15.5z" />
    <glyph glyph-name="AE" unicode="&#xc6;" horiz-adv-x="817" 
d="M-63 0l503 666h387l-14 -76h-254l-37 -201h225l-14 -75h-224l-42 -238h261l-13 -76h-350l28 159h-242l-119 -159h-95zM207 234h199l63 350z" />
    <glyph glyph-name="Ccedilla" unicode="&#xc7;" horiz-adv-x="608" 
d="M271 -221q-41 0 -70 12l17 44q18 -9 49 -9q50 0 50 38q0 44 -71 40l32 88q-109 14 -165.5 90t-56.5 186q0 170 110.5 290t273.5 120q120 0 186 -47l-50 -67q-54 39 -142 39q-123 0 -203.5 -96t-80.5 -235q0 -94 46.5 -151t140.5 -57q87 0 165 60l38 -64
q-33 -30 -89.5 -50.5t-117.5 -21.5l-20 -52q32 -5 51.5 -24.5t19.5 -49.5q0 -38 -32 -60.5t-81 -22.5z" />
    <glyph glyph-name="Egrave" unicode="&#xc8;" horiz-adv-x="500" 
d="M47 0l119 666h343l-14 -76h-254l-37 -201h225l-14 -75h-223l-43 -238h262l-14 -76h-350zM295 724l-108 128h111l68 -128h-71z" />
    <glyph glyph-name="Eacute" unicode="&#xc9;" horiz-adv-x="500" 
d="M47 0l119 666h343l-14 -76h-254l-37 -201h225l-14 -75h-223l-43 -238h262l-14 -76h-350zM297 724l109 128h123l-154 -128h-78z" />
    <glyph glyph-name="Ecircumflex" unicode="&#xca;" horiz-adv-x="500" 
d="M47 0l119 666h343l-14 -76h-254l-37 -201h225l-14 -75h-223l-43 -238h262l-14 -76h-350zM186 725l148 154h60l92 -154h-69l-63 85l-90 -85h-78z" />
    <glyph glyph-name="Edieresis" unicode="&#xcb;" horiz-adv-x="500" 
d="M47 0l119 666h343l-14 -76h-254l-37 -201h225l-14 -75h-223l-43 -238h262l-14 -76h-350zM247 726q-23 0 -38.5 16t-15.5 38t15.5 38t38.5 16q24 0 39.5 -15.5t15.5 -38.5t-15.5 -38.5t-39.5 -15.5zM435 726q-23 0 -38.5 16t-15.5 38t15.5 38t38.5 16q24 0 39.5 -15.5
t15.5 -38.5t-15.5 -38.5t-39.5 -15.5z" />
    <glyph glyph-name="Igrave" unicode="&#xcc;" horiz-adv-x="282" 
d="M53 0l119 666h89l-119 -666h-89zM184 724l-108 128h111l68 -128h-71z" />
    <glyph glyph-name="Iacute" unicode="&#xcd;" horiz-adv-x="282" 
d="M53 0l119 666h89l-119 -666h-89zM185 724l109 128h123l-154 -128h-78z" />
    <glyph glyph-name="Icircumflex" unicode="&#xce;" horiz-adv-x="282" 
d="M53 0l119 666h89l-119 -666h-89zM75 725l148 154h60l92 -154h-69l-63 85l-90 -85h-78z" />
    <glyph glyph-name="Idieresis" unicode="&#xcf;" horiz-adv-x="282" 
d="M53 0l119 666h89l-119 -666h-89zM136 726q-22 0 -38 16t-16 38t16 38t38 16q24 0 39.5 -15.5t15.5 -38.5t-15.5 -38.5t-39.5 -15.5zM324 726q-22 0 -38 16t-16 38t16 38t38 16q24 0 39.5 -15.5t15.5 -38.5t-15.5 -38.5t-39.5 -15.5z" />
    <glyph glyph-name="Eth" unicode="&#xd0;" horiz-adv-x="674" 
d="M55 0l55 309h-69l13 66h68l52 291h156q161 0 240.5 -69t79.5 -190q0 -81 -26 -153t-75 -129.5t-129.5 -91t-180.5 -33.5h-184zM158 74h95q144 0 223.5 92t79.5 236q0 98 -56.5 144t-177.5 46h-73l-38 -217h111l-13 -66h-110z" />
    <glyph glyph-name="Ntilde" unicode="&#xd1;" horiz-adv-x="694" 
d="M44 0l119 666h87l215 -443q29 -61 41 -100h2q8 68 15 106l77 437h81l-118 -666h-81l-223 457q-20 42 -37 92h-2q-8 -60 -14 -97l-81 -452h-81zM482 728q-26 0 -55.5 19t-47.5 19q-22 0 -54 -29l-33 38q44 61 99 61q26 0 56 -19t47 -19q32 0 56 29l35 -37
q-51 -62 -103 -62z" />
    <glyph glyph-name="Ograve" unicode="&#xd2;" horiz-adv-x="737" 
d="M341 -12q-130 0 -206.5 84t-76.5 204q0 101 44.5 192t131 150.5t193.5 59.5q136 0 209 -83t73 -207q0 -101 -43.5 -191.5t-129.5 -149.5t-195 -59zM346 63q82 0 145 48t94 121t31 157q0 92 -50.5 153t-144.5 61q-122 0 -196 -97t-74 -229q0 -92 52.5 -153t142.5 -61z
M399 724l-108 128h111l68 -128h-71z" />
    <glyph glyph-name="Oacute" unicode="&#xd3;" horiz-adv-x="737" 
d="M341 -12q-130 0 -206.5 84t-76.5 204q0 101 44.5 192t131 150.5t193.5 59.5q136 0 209 -83t73 -207q0 -101 -43.5 -191.5t-129.5 -149.5t-195 -59zM346 63q82 0 145 48t94 121t31 157q0 92 -50.5 153t-144.5 61q-122 0 -196 -97t-74 -229q0 -92 52.5 -153t142.5 -61z
M401 724l109 128h123l-154 -128h-78z" />
    <glyph glyph-name="Ocircumflex" unicode="&#xd4;" horiz-adv-x="737" 
d="M341 -12q-130 0 -206.5 84t-76.5 204q0 101 44.5 192t131 150.5t193.5 59.5q136 0 209 -83t73 -207q0 -101 -43.5 -191.5t-129.5 -149.5t-195 -59zM346 63q82 0 145 48t94 121t31 157q0 92 -50.5 153t-144.5 61q-122 0 -196 -97t-74 -229q0 -92 52.5 -153t142.5 -61z
M290 725l148 154h60l92 -154h-69l-63 85l-90 -85h-78z" />
    <glyph glyph-name="Otilde" unicode="&#xd5;" horiz-adv-x="737" 
d="M341 -12q-130 0 -206.5 84t-76.5 204q0 101 44.5 192t131 150.5t193.5 59.5q136 0 209 -83t73 -207q0 -101 -43.5 -191.5t-129.5 -149.5t-195 -59zM346 63q82 0 145 48t94 121t31 157q0 92 -50.5 153t-144.5 61q-122 0 -196 -97t-74 -229q0 -92 52.5 -153t142.5 -61z
M491 728q-26 0 -55.5 19t-47.5 19q-22 0 -54 -29l-33 38q44 61 99 61q26 0 56 -19t47 -19q32 0 56 29l35 -37q-51 -62 -103 -62z" />
    <glyph glyph-name="Odieresis" unicode="&#xd6;" horiz-adv-x="737" 
d="M341 -12q-130 0 -206.5 84t-76.5 204q0 101 44.5 192t131 150.5t193.5 59.5q136 0 209 -83t73 -207q0 -101 -43.5 -191.5t-129.5 -149.5t-195 -59zM346 63q82 0 145 48t94 121t31 157q0 92 -50.5 153t-144.5 61q-122 0 -196 -97t-74 -229q0 -92 52.5 -153t142.5 -61z
M351 726q-23 0 -38.5 16t-15.5 38t15.5 38t38.5 16q24 0 39.5 -15.5t15.5 -38.5t-15.5 -38.5t-39.5 -15.5zM539 726q-23 0 -38.5 16t-15.5 38t15.5 38t38.5 16q24 0 39.5 -15.5t15.5 -38.5t-15.5 -38.5t-39.5 -15.5z" />
    <glyph glyph-name="multiply" unicode="&#xd7;" horiz-adv-x="417" 
d="M309 77l-111 134l-149 -127l-42 51l149 127l-105 129l56 49l105 -128l150 127l42 -51l-149 -127l111 -135z" />
    <glyph glyph-name="Oslash" unicode="&#xd8;" horiz-adv-x="737" 
d="M79 -70l-47 40l94 111q-67 79 -67 195q0 100 44.5 191.5t130.5 151t193 59.5q98 0 170 -49l83 96l47 -40l-84 -98q67 -79 67 -199q0 -75 -26 -146.5t-72.5 -128t-117 -91t-153.5 -34.5q-99 0 -169 51zM346 62q122 0 196.5 98t74.5 229q0 75 -35 130l-358 -416
q50 -41 122 -41zM152 277q0 -75 35 -130l356 417q-50 40 -122 40q-122 0 -195.5 -97.5t-73.5 -229.5z" />
    <glyph glyph-name="Ugrave" unicode="&#xd9;" horiz-adv-x="680" 
d="M308 -12q-112 0 -169.5 54t-57.5 147q0 30 6 63l73 414h88l-71 -405q-7 -35 -7 -67q0 -66 35.5 -97.5t110.5 -31.5q86 0 132.5 46.5t64.5 144.5l73 410h83l-75 -422q-23 -125 -91 -190.5t-195 -65.5zM375 724l-108 128h111l68 -128h-71z" />
    <glyph glyph-name="Uacute" unicode="&#xda;" horiz-adv-x="680" 
d="M308 -12q-112 0 -169.5 54t-57.5 147q0 30 6 63l73 414h88l-71 -405q-7 -35 -7 -67q0 -66 35.5 -97.5t110.5 -31.5q86 0 132.5 46.5t64.5 144.5l73 410h83l-75 -422q-23 -125 -91 -190.5t-195 -65.5zM378 724l109 128h123l-154 -128h-78z" />
    <glyph glyph-name="Ucircumflex" unicode="&#xdb;" horiz-adv-x="680" 
d="M308 -12q-112 0 -169.5 54t-57.5 147q0 30 6 63l73 414h88l-71 -405q-7 -35 -7 -67q0 -66 35.5 -97.5t110.5 -31.5q86 0 132.5 46.5t64.5 144.5l73 410h83l-75 -422q-23 -125 -91 -190.5t-195 -65.5zM266 725l148 154h60l92 -154h-69l-63 85l-90 -85h-78z" />
    <glyph glyph-name="Udieresis" unicode="&#xdc;" horiz-adv-x="680" 
d="M308 -12q-112 0 -169.5 54t-57.5 147q0 30 6 63l73 414h88l-71 -405q-7 -35 -7 -67q0 -66 35.5 -97.5t110.5 -31.5q86 0 132.5 46.5t64.5 144.5l73 410h83l-75 -422q-23 -125 -91 -190.5t-195 -65.5zM327 726q-23 0 -38.5 16t-15.5 38t15.5 38t38.5 16q24 0 39.5 -15.5
t15.5 -38.5t-15.5 -38.5t-39.5 -15.5zM515 726q-23 0 -38.5 16t-15.5 38t15.5 38t38.5 16q24 0 39.5 -15.5t15.5 -38.5t-15.5 -38.5t-39.5 -15.5z" />
    <glyph glyph-name="Yacute" unicode="&#xdd;" horiz-adv-x="554" 
d="M193 0l46 251l-149 415h92l115 -331h1l218 331h93l-281 -416l-45 -250h-90zM315 724l109 128h123l-154 -128h-78z" />
    <glyph glyph-name="Thorn" unicode="&#xde;" horiz-adv-x="539" 
d="M47 0l119 666h88l-20 -114h83q96 0 152.5 -44t56.5 -124q0 -111 -77.5 -173t-203.5 -62h-82l-27 -149h-89zM176 223h78q88 0 133.5 40.5t45.5 110.5q0 104 -131 104h-80z" />
    <glyph glyph-name="germandbls" unicode="&#xdf;" horiz-adv-x="510" 
d="M-87 -230q-41 0 -85 18l26 68q34 -14 64 -14q73 0 94 116l103 561q38 213 241 213q73 0 113.5 -39t40.5 -100q0 -46 -20 -82t-48 -58t-56 -40.5t-48 -38t-20 -40.5q0 -17 23.5 -37.5t52 -38t52 -50t23.5 -70.5q0 -68 -45.5 -109t-130.5 -41q-71 0 -125 33l35 62
q40 -28 92 -28q45 0 69.5 21.5t24.5 59.5q0 24 -23.5 47.5t-52 40.5t-52 44.5t-23.5 58.5q0 38 29.5 70.5t65 53.5t65 55t29.5 75q0 39 -20.5 61t-61.5 22q-121 0 -147 -145l-103 -561q-18 -97 -59 -142.5t-123 -45.5z" />
    <glyph glyph-name="agrave" unicode="&#xe0;" horiz-adv-x="489" 
d="M149 -12q-58 0 -89 40.5t-31 109.5q0 145 79 250.5t210 105.5q82 0 142 -21l-46 -256q-30 -168 -30 -217h-82q9 78 25 142h-2q-37 -72 -77 -113t-99 -41zM172 62q39 0 79 46.5t68.5 117.5t39.5 146l7 43q-25 9 -63 9q-85 0 -137 -81t-52 -192q0 -89 58 -89zM281 540
l-108 128h111l68 -128h-71z" />
    <glyph glyph-name="aacute" unicode="&#xe1;" horiz-adv-x="489" 
d="M149 -12q-58 0 -89 40.5t-31 109.5q0 145 79 250.5t210 105.5q82 0 142 -21l-46 -256q-30 -168 -30 -217h-82q9 78 25 142h-2q-37 -72 -77 -113t-99 -41zM172 62q39 0 79 46.5t68.5 117.5t39.5 146l7 43q-25 9 -63 9q-85 0 -137 -81t-52 -192q0 -89 58 -89zM283 540
l109 128h123l-154 -128h-78z" />
    <glyph glyph-name="acircumflex" unicode="&#xe2;" horiz-adv-x="489" 
d="M149 -12q-58 0 -89 40.5t-31 109.5q0 145 79 250.5t210 105.5q82 0 142 -21l-46 -256q-30 -168 -30 -217h-82q9 78 25 142h-2q-37 -72 -77 -113t-99 -41zM172 62q39 0 79 46.5t68.5 117.5t39.5 146l7 43q-25 9 -63 9q-85 0 -137 -81t-52 -192q0 -89 58 -89zM172 541
l148 154h60l92 -154h-69l-63 85l-90 -85h-78z" />
    <glyph glyph-name="atilde" unicode="&#xe3;" horiz-adv-x="489" 
d="M149 -12q-58 0 -89 40.5t-31 109.5q0 145 79 250.5t210 105.5q82 0 142 -21l-46 -256q-30 -168 -30 -217h-82q9 78 25 142h-2q-37 -72 -77 -113t-99 -41zM172 62q39 0 79 46.5t68.5 117.5t39.5 146l7 43q-25 9 -63 9q-85 0 -137 -81t-52 -192q0 -89 58 -89zM373 544
q-26 0 -55.5 19t-47.5 19q-22 0 -54 -29l-33 38q44 61 99 61q26 0 56 -19t47 -19q32 0 56 29l35 -37q-51 -62 -103 -62z" />
    <glyph glyph-name="adieresis" unicode="&#xe4;" horiz-adv-x="489" 
d="M149 -12q-58 0 -89 40.5t-31 109.5q0 145 79 250.5t210 105.5q82 0 142 -21l-46 -256q-30 -168 -30 -217h-82q9 78 25 142h-2q-37 -72 -77 -113t-99 -41zM172 62q39 0 79 46.5t68.5 117.5t39.5 146l7 43q-25 9 -63 9q-85 0 -137 -81t-52 -192q0 -89 58 -89zM233 542
q-23 0 -38.5 16t-15.5 38t15.5 38t38.5 16q24 0 39.5 -15.5t15.5 -38.5t-15.5 -38.5t-39.5 -15.5zM421 542q-23 0 -38.5 16t-15.5 38t15.5 38t38.5 16q24 0 39.5 -15.5t15.5 -38.5t-15.5 -38.5t-39.5 -15.5z" />
    <glyph glyph-name="aring" unicode="&#xe5;" horiz-adv-x="489" 
d="M149 -12q-58 0 -89 40.5t-31 109.5q0 145 79 250.5t210 105.5q82 0 142 -21l-46 -256q-30 -168 -30 -217h-82q9 78 25 142h-2q-37 -72 -77 -113t-99 -41zM172 62q39 0 79 46.5t68.5 117.5t39.5 146l7 43q-25 9 -63 9q-85 0 -137 -81t-52 -192q0 -89 58 -89zM328 544
q-40 0 -68.5 27t-28.5 69t28.5 70t68.5 28q39 0 67.5 -27.5t28.5 -69.5t-28.5 -69.5t-67.5 -27.5zM328 587q22 0 35 15.5t13 38.5q0 24 -13 39t-35 15q-23 0 -36 -15t-13 -39q0 -23 13 -38.5t36 -15.5z" />
    <glyph glyph-name="ae" unicode="&#xe6;" horiz-adv-x="702" 
d="M142 -12q-61 0 -98 34t-37 86q0 55 33 91t84 53q69 22 167 22h17q18 52 18 87q0 60 -77 60q-67 0 -134 -50l-39 57q85 66 184 66q101 0 134 -71q74 71 161 71q59 0 95 -29t36 -84q0 -58 -42.5 -96.5t-108.5 -55t-155 -18.5q-3 -20 -3 -41q2 -110 91 -110q68 0 125 57
l43 -56q-78 -73 -180 -73t-142 81q-74 -81 -172 -81zM158 58q83 0 138 68q-3 17 -3 36q0 26 3 52h-12q-85 0 -129 -18q-59 -24 -59 -82q0 -56 62 -56zM390 271q98 1 155 27t57 75t-60 49q-47 0 -89.5 -41t-62.5 -110z" />
    <glyph glyph-name="ccedilla" unicode="&#xe7;" horiz-adv-x="409" 
d="M146 -221q-41 0 -70 12l17 44q18 -9 49 -9q50 0 50 38q0 44 -71 40l32 88q-60 11 -93.5 59t-33.5 125q0 135 80.5 226.5t187.5 91.5q71 0 117 -33l-40 -65q-33 24 -85 24q-68 0 -122 -66t-54 -169q0 -125 90 -125q61 0 114 53l45 -55q-66 -63 -151 -69l-20 -53
q32 -5 51.5 -24.5t19.5 -49.5q0 -38 -32 -60.5t-81 -22.5z" />
    <glyph glyph-name="egrave" unicode="&#xe8;" horiz-adv-x="433" 
d="M190 -12q-80 0 -122 50t-42 127q0 136 77.5 232.5t185.5 96.5q59 0 95 -29t36 -84q0 -43 -25.5 -77t-70.5 -56t-97 -35.5t-116 -21.5v-15q0 -116 90 -116q68 0 125 57l44 -56q-81 -73 -180 -73zM275 422q-52 0 -95.5 -48t-60.5 -122q96 11 156 42t60 79q0 49 -60 49z
M249 540l-108 128h111l68 -128h-71z" />
    <glyph glyph-name="eacute" unicode="&#xe9;" horiz-adv-x="433" 
d="M190 -12q-80 0 -122 50t-42 127q0 136 77.5 232.5t185.5 96.5q59 0 95 -29t36 -84q0 -43 -25.5 -77t-70.5 -56t-97 -35.5t-116 -21.5v-15q0 -116 90 -116q68 0 125 57l44 -56q-81 -73 -180 -73zM275 422q-52 0 -95.5 -48t-60.5 -122q96 11 156 42t60 79q0 49 -60 49z
M250 540l109 128h123l-154 -128h-78z" />
    <glyph glyph-name="ecircumflex" unicode="&#xea;" horiz-adv-x="433" 
d="M190 -12q-80 0 -122 50t-42 127q0 136 77.5 232.5t185.5 96.5q59 0 95 -29t36 -84q0 -43 -25.5 -77t-70.5 -56t-97 -35.5t-116 -21.5v-15q0 -116 90 -116q68 0 125 57l44 -56q-81 -73 -180 -73zM275 422q-52 0 -95.5 -48t-60.5 -122q96 11 156 42t60 79q0 49 -60 49z
M140 541l148 154h60l92 -154h-69l-63 85l-90 -85h-78z" />
    <glyph glyph-name="edieresis" unicode="&#xeb;" horiz-adv-x="433" 
d="M190 -12q-80 0 -122 50t-42 127q0 136 77.5 232.5t185.5 96.5q59 0 95 -29t36 -84q0 -43 -25.5 -77t-70.5 -56t-97 -35.5t-116 -21.5v-15q0 -116 90 -116q68 0 125 57l44 -56q-81 -73 -180 -73zM275 422q-52 0 -95.5 -48t-60.5 -122q96 11 156 42t60 79q0 49 -60 49z
M201 542q-23 0 -38.5 16t-15.5 38t15.5 38t38.5 16q24 0 39.5 -15.5t15.5 -38.5t-15.5 -38.5t-39.5 -15.5zM389 542q-23 0 -38.5 16t-15.5 38t15.5 38t38.5 16q24 0 39.5 -15.5t15.5 -38.5t-15.5 -38.5t-39.5 -15.5z" />
    <glyph glyph-name="igrave" unicode="&#xec;" horiz-adv-x="239" 
d="M34 0l87 481h83l-87 -481h-83zM130 540l-108 128h111l68 -128h-71z" />
    <glyph glyph-name="iacute" unicode="&#xed;" horiz-adv-x="239" 
d="M34 0l87 481h83l-87 -481h-83zM132 540l109 128h123l-154 -128h-78z" />
    <glyph glyph-name="icircumflex" unicode="&#xee;" horiz-adv-x="239" 
d="M34 0l87 481h83l-87 -481h-83zM21 541l148 154h60l92 -154h-69l-63 85l-90 -85h-78z" />
    <glyph glyph-name="idieresis" unicode="&#xef;" horiz-adv-x="239" 
d="M34 0l87 481h83l-87 -481h-83zM82 542q-22 0 -38 16t-16 38t16 38t38 16q24 0 39.5 -15.5t15.5 -38.5t-15.5 -38.5t-39.5 -15.5zM270 542q-22 0 -38 16t-16 38t16 38t38 16q24 0 39.5 -15.5t15.5 -38.5t-15.5 -38.5t-39.5 -15.5z" />
    <glyph glyph-name="eth" unicode="&#xf0;" horiz-adv-x="477" 
d="M205 -12q-77 0 -127 53.5t-50 143.5q0 130 73.5 215.5t172.5 85.5q61 0 99 -38q-12 101 -64 151l-80 -63l-36 44l67 53q-54 30 -144 30l26 69q108 0 182 -48l86 69l36 -44l-76 -61q90 -90 90 -266q0 -100 -25 -186.5t-85 -147t-145 -60.5zM213 56q51 0 88.5 46.5t55 116
t19.5 152.5q-35 48 -104 48q-67 0 -113.5 -64t-46.5 -167q0 -132 101 -132z" />
    <glyph glyph-name="ntilde" unicode="&#xf1;" horiz-adv-x="515" 
d="M29 0l87 481h80q-14 -84 -30 -147h2q16 29 31.5 51.5t40 50t57 43t68.5 15.5q50 0 76 -31t26 -86q0 -20 -5 -52l-59 -325h-83l56 319q4 20 4 41q0 59 -46 59q-61 0 -120.5 -92.5t-92.5 -274.5l-9 -52h-83zM362 544q-26 0 -55.5 19t-47.5 19q-22 0 -54 -29l-33 38
q44 61 99 61q26 0 56 -19t47 -19q32 0 56 29l35 -37q-51 -62 -103 -62z" />
    <glyph glyph-name="ograve" unicode="&#xf2;" horiz-adv-x="484" 
d="M203 -12q-87 0 -131 59.5t-44 140.5q0 119 73 212.5t179 93.5q85 0 130.5 -57t45.5 -141q0 -125 -73 -216.5t-180 -91.5zM209 56q70 0 116 73t46 157q0 140 -97 140q-70 0 -116.5 -74.5t-46.5 -161.5q0 -62 25 -98t73 -36zM246 540l-108 128h111l68 -128h-71z" />
    <glyph glyph-name="oacute" unicode="&#xf3;" horiz-adv-x="484" 
d="M203 -12q-87 0 -131 59.5t-44 140.5q0 119 73 212.5t179 93.5q85 0 130.5 -57t45.5 -141q0 -125 -73 -216.5t-180 -91.5zM209 56q70 0 116 73t46 157q0 140 -97 140q-70 0 -116.5 -74.5t-46.5 -161.5q0 -62 25 -98t73 -36zM247 540l109 128h123l-154 -128h-78z" />
    <glyph glyph-name="ocircumflex" unicode="&#xf4;" horiz-adv-x="484" 
d="M203 -12q-87 0 -131 59.5t-44 140.5q0 119 73 212.5t179 93.5q85 0 130.5 -57t45.5 -141q0 -125 -73 -216.5t-180 -91.5zM209 56q70 0 116 73t46 157q0 140 -97 140q-70 0 -116.5 -74.5t-46.5 -161.5q0 -62 25 -98t73 -36zM137 541l148 154h60l92 -154h-69l-63 85
l-90 -85h-78z" />
    <glyph glyph-name="otilde" unicode="&#xf5;" horiz-adv-x="484" 
d="M203 -12q-87 0 -131 59.5t-44 140.5q0 119 73 212.5t179 93.5q85 0 130.5 -57t45.5 -141q0 -125 -73 -216.5t-180 -91.5zM209 56q70 0 116 73t46 157q0 140 -97 140q-70 0 -116.5 -74.5t-46.5 -161.5q0 -62 25 -98t73 -36zM338 544q-26 0 -55.5 19t-47.5 19
q-22 0 -54 -29l-33 38q44 61 99 61q26 0 56 -19t47 -19q32 0 56 29l35 -37q-51 -62 -103 -62z" />
    <glyph glyph-name="odieresis" unicode="&#xf6;" horiz-adv-x="484" 
d="M203 -12q-87 0 -131 59.5t-44 140.5q0 119 73 212.5t179 93.5q85 0 130.5 -57t45.5 -141q0 -125 -73 -216.5t-180 -91.5zM209 56q70 0 116 73t46 157q0 140 -97 140q-70 0 -116.5 -74.5t-46.5 -161.5q0 -62 25 -98t73 -36zM198 542q-22 0 -38 16t-16 38t16 38t38 16
q24 0 39.5 -15.5t15.5 -38.5t-15.5 -38.5t-39.5 -15.5zM386 542q-22 0 -38 16t-16 38t16 38t38 16q24 0 39.5 -15.5t15.5 -38.5t-15.5 -38.5t-39.5 -15.5z" />
    <glyph glyph-name="divide" unicode="&#xf7;" horiz-adv-x="572" 
d="M248 37q-25 0 -42 17.5t-17 41.5q0 23 17 40t42 17q24 0 41 -17t17 -40q0 -24 -17 -41.5t-41 -17.5zM309 377q-24 0 -41.5 17.5t-17.5 41.5q0 23 17.5 40t41.5 17t41.5 -17t17.5 -40q0 -24 -17.5 -41.5t-41.5 -17.5zM34 232l12 68h498l-12 -68h-498z" />
    <glyph glyph-name="oslash" unicode="&#xf8;" horiz-adv-x="484" 
d="M27 -61l-43 36l75 90q-31 53 -31 123q0 119 73 212.5t179 93.5q66 0 111 -37l84 98l43 -36l-91 -107q29 -50 29 -116q0 -125 -73 -216.5t-180 -91.5q-64 0 -106 34zM110 190q0 -36 7 -60l225 266q-25 30 -68 30q-70 0 -117 -74.5t-47 -161.5zM209 55q70 0 116.5 73.5
t46.5 157.5q0 32 -6 57l-222 -262q24 -26 65 -26z" />
    <glyph glyph-name="ugrave" unicode="&#xf9;" horiz-adv-x="515" 
d="M149 -12q-50 0 -76 30.5t-26 85.5q0 20 5 52l59 325h83l-56 -318q-4 -21 -4 -42q0 -59 46 -59q59 0 118.5 89t90.5 259l13 71h83l-48 -264q-30 -168 -30 -217h-82q15 104 26 154h-2q-17 -32 -32.5 -55.5t-41 -51.5t-57.5 -43.5t-69 -15.5zM262 540l-108 128h111l68 -128
h-71z" />
    <glyph glyph-name="uacute" unicode="&#xfa;" horiz-adv-x="515" 
d="M149 -12q-50 0 -76 30.5t-26 85.5q0 20 5 52l59 325h83l-56 -318q-4 -21 -4 -42q0 -59 46 -59q59 0 118.5 89t90.5 259l13 71h83l-48 -264q-30 -168 -30 -217h-82q15 104 26 154h-2q-17 -32 -32.5 -55.5t-41 -51.5t-57.5 -43.5t-69 -15.5zM264 540l109 128h123l-154 -128
h-78z" />
    <glyph glyph-name="ucircumflex" unicode="&#xfb;" horiz-adv-x="515" 
d="M149 -12q-50 0 -76 30.5t-26 85.5q0 20 5 52l59 325h83l-56 -318q-4 -21 -4 -42q0 -59 46 -59q59 0 118.5 89t90.5 259l13 71h83l-48 -264q-30 -168 -30 -217h-82q15 104 26 154h-2q-17 -32 -32.5 -55.5t-41 -51.5t-57.5 -43.5t-69 -15.5zM152 541l148 154h60l92 -154
h-69l-63 85l-90 -85h-78z" />
    <glyph glyph-name="udieresis" unicode="&#xfc;" horiz-adv-x="515" 
d="M149 -12q-50 0 -76 30.5t-26 85.5q0 20 5 52l59 325h83l-56 -318q-4 -21 -4 -42q0 -59 46 -59q59 0 118.5 89t90.5 259l13 71h83l-48 -264q-30 -168 -30 -217h-82q15 104 26 154h-2q-17 -32 -32.5 -55.5t-41 -51.5t-57.5 -43.5t-69 -15.5zM214 542q-22 0 -38 16t-16 38
t16 38t38 16q24 0 39.5 -15.5t15.5 -38.5t-15.5 -38.5t-39.5 -15.5zM402 542q-22 0 -38 16t-16 38t16 38t38 16q24 0 39.5 -15.5t15.5 -38.5t-15.5 -38.5t-39.5 -15.5z" />
    <glyph glyph-name="yacute" unicode="&#xfd;" horiz-adv-x="450" 
d="M-9 -221q-53 0 -84 17l33 68q20 -11 58 -11q41 0 74 28t77 104l-97 496h87l59 -337q8 -50 10 -68h2q16 49 25 68l154 337h88l-189 -386q-86 -180 -145.5 -248t-151.5 -68zM226 540l109 128h123l-154 -128h-78z" />
    <glyph glyph-name="thorn" unicode="&#xfe;" horiz-adv-x="495" 
d="M-15 -218l170 938h83l-44 -240q-13 -72 -32 -138h2q38 70 80.5 111t102.5 41q58 0 88 -43.5t30 -113.5q0 -144 -78.5 -246.5t-205.5 -102.5q-38 0 -74 8l-39 -214h-83zM186 55q87 0 140 80t53 193q0 91 -55 91q-63 0 -118.5 -96t-76.5 -214l-8 -46q32 -8 65 -8z" />
    <glyph glyph-name="ydieresis" unicode="&#xff;" horiz-adv-x="450" 
d="M-9 -221q-53 0 -84 17l33 68q20 -11 58 -11q41 0 74 28t77 104l-97 496h87l59 -337q8 -50 10 -68h2q16 49 25 68l154 337h88l-189 -386q-86 -180 -145.5 -248t-151.5 -68zM177 542q-23 0 -38.5 16t-15.5 38t15.5 38t38.5 16q24 0 39.5 -15.5t15.5 -38.5t-15.5 -38.5
t-39.5 -15.5zM365 542q-23 0 -38.5 16t-15.5 38t15.5 38t38.5 16q24 0 39.5 -15.5t15.5 -38.5t-15.5 -38.5t-39.5 -15.5z" />
    <glyph glyph-name="Amacron" unicode="&#x100;" horiz-adv-x="617" 
d="M194 232h231l-34 211q-12 74 -17 123h-2q-20 -47 -62 -123zM-23 0l373 666h86l118 -666h-92l-25 157h-283l-86 -157h-91zM267 756l12 67h273l-13 -67h-272z" />
    <glyph glyph-name="amacron" unicode="&#x101;" horiz-adv-x="489" 
d="M149 -12q-58 0 -89 40.5t-31 109.5q0 145 79 250.5t210 105.5q82 0 142 -21l-46 -256q-30 -168 -30 -217h-82q9 78 25 142h-2q-37 -72 -77 -113t-99 -41zM172 62q39 0 79 46.5t68.5 117.5t39.5 146l7 43q-25 9 -63 9q-85 0 -137 -81t-52 -192q0 -89 58 -89zM190 572
l12 67h273l-13 -67h-272z" />
    <glyph glyph-name="Abreve" unicode="&#x102;" horiz-adv-x="617" 
d="M194 232h231l-34 211q-12 74 -17 123h-2q-20 -47 -62 -123zM-23 0l373 666h86l118 -666h-92l-25 157h-283l-86 -157h-91zM408 719q-57 0 -93 33t-36 94l1 17h69l-1 -12q0 -69 63 -69q30 0 53.5 22t31.5 59h73q-16 -71 -62 -107.5t-99 -36.5z" />
    <glyph glyph-name="abreve" unicode="&#x103;" horiz-adv-x="489" 
d="M149 -12q-58 0 -89 40.5t-31 109.5q0 145 79 250.5t210 105.5q82 0 142 -21l-46 -256q-30 -168 -30 -217h-82q9 78 25 142h-2q-37 -72 -77 -113t-99 -41zM172 62q39 0 79 46.5t68.5 117.5t39.5 146l7 43q-25 9 -63 9q-85 0 -137 -81t-52 -192q0 -89 58 -89zM331 535
q-57 0 -93 33t-36 94l1 17h69l-1 -12q0 -69 63 -69q30 0 53.5 22t31.5 59h73q-16 -71 -62 -107.5t-99 -36.5z" />
    <glyph glyph-name="Aogonek" unicode="&#x104;" horiz-adv-x="617" 
d="M466 -221q-46 0 -69.5 21t-23.5 56q0 71 89 144l-25 157h-283l-86 -157h-91l373 666h86l118 -666h-8q-34 0 -68.5 -44t-34.5 -86q0 -37 43 -37q25 0 43 7l8 -44q-32 -17 -71 -17zM194 232h231l-34 211q-12 74 -17 123h-2q-20 -47 -62 -123z" />
    <glyph glyph-name="aogonek" unicode="&#x105;" horiz-adv-x="489" 
d="M306 -221q-46 0 -69.5 21t-23.5 56q0 71 89 144q9 78 25 142h-2q-37 -72 -77 -113t-99 -41q-58 0 -89 40.5t-31 109.5q0 145 79 250.5t210 105.5q82 0 142 -21l-46 -256q-30 -168 -30 -217h-3q-30 0 -64 -44.5t-34 -85.5q0 -37 43 -37q25 0 43 7l8 -44q-32 -17 -71 -17z
M172 62q39 0 79 46.5t68.5 117.5t39.5 146l7 43q-25 9 -63 9q-85 0 -137 -81t-52 -192q0 -89 58 -89z" />
    <glyph glyph-name="Cacute" unicode="&#x106;" horiz-adv-x="608" 
d="M330 -12q-134 0 -204 78.5t-70 201.5q0 170 110.5 290t273.5 120q120 0 186 -47l-50 -67q-54 39 -142 39q-123 0 -203.5 -96t-80.5 -235q0 -94 46.5 -151t140.5 -57q87 0 165 60l38 -64q-33 -30 -91 -51t-119 -21zM402 724l109 128h123l-154 -128h-78z" />
    <glyph glyph-name="cacute" unicode="&#x107;" horiz-adv-x="409" 
d="M192 -12q-77 0 -121.5 50t-44.5 138q0 135 80.5 226.5t187.5 91.5q71 0 117 -33l-40 -65q-33 24 -85 24q-68 0 -122 -66t-54 -169q0 -125 90 -125q61 0 114 53l45 -55q-73 -70 -167 -70zM250 540l109 128h123l-154 -128h-78z" />
    <glyph glyph-name="Ccircumflex" unicode="&#x108;" horiz-adv-x="608" 
d="M330 -12q-134 0 -204 78.5t-70 201.5q0 170 110.5 290t273.5 120q120 0 186 -47l-50 -67q-54 39 -142 39q-123 0 -203.5 -96t-80.5 -235q0 -94 46.5 -151t140.5 -57q87 0 165 60l38 -64q-33 -30 -91 -51t-119 -21zM291 725l148 154h60l92 -154h-69l-63 85l-90 -85h-78z
" />
    <glyph glyph-name="ccircumflex" unicode="&#x109;" horiz-adv-x="409" 
d="M192 -12q-77 0 -121.5 50t-44.5 138q0 135 80.5 226.5t187.5 91.5q71 0 117 -33l-40 -65q-33 24 -85 24q-68 0 -122 -66t-54 -169q0 -125 90 -125q61 0 114 53l45 -55q-73 -70 -167 -70zM140 541l148 154h60l92 -154h-69l-63 85l-90 -85h-78z" />
    <glyph glyph-name="Cdotaccent" unicode="&#x10a;" horiz-adv-x="608" 
d="M330 -12q-134 0 -204 78.5t-70 201.5q0 170 110.5 290t273.5 120q120 0 186 -47l-50 -67q-54 39 -142 39q-123 0 -203.5 -96t-80.5 -235q0 -94 46.5 -151t140.5 -57q87 0 165 60l38 -64q-33 -30 -91 -51t-119 -21zM453 745q-24 0 -41 18t-17 42q0 26 16.5 43.5t41.5 17.5
t42.5 -17t17.5 -43q0 -25 -17.5 -43t-42.5 -18z" />
    <glyph glyph-name="cdotaccent" unicode="&#x10b;" horiz-adv-x="409" 
d="M192 -12q-77 0 -121.5 50t-44.5 138q0 135 80.5 226.5t187.5 91.5q71 0 117 -33l-40 -65q-33 24 -85 24q-68 0 -122 -66t-54 -169q0 -125 90 -125q61 0 114 53l45 -55q-73 -70 -167 -70zM302 561q-24 0 -41 18t-17 42q0 26 16.5 43.5t41.5 17.5q26 0 43 -17t17 -43
q0 -25 -17.5 -43t-42.5 -18z" />
    <glyph glyph-name="Ccaron" unicode="&#x10c;" horiz-adv-x="608" 
d="M330 -12q-134 0 -204 78.5t-70 201.5q0 170 110.5 290t273.5 120q120 0 186 -47l-50 -67q-54 39 -142 39q-123 0 -203.5 -96t-80.5 -235q0 -94 46.5 -151t140.5 -57q87 0 165 60l38 -64q-33 -30 -91 -51t-119 -21zM411 723l-96 155h69l66 -85l95 85h78l-153 -155h-59z
" />
    <glyph glyph-name="ccaron" unicode="&#x10d;" horiz-adv-x="409" 
d="M192 -12q-77 0 -121.5 50t-44.5 138q0 135 80.5 226.5t187.5 91.5q71 0 117 -33l-40 -65q-33 24 -85 24q-68 0 -122 -66t-54 -169q0 -125 90 -125q61 0 114 53l45 -55q-73 -70 -167 -70zM260 539l-96 155h69l66 -85l95 85h78l-153 -155h-59z" />
    <glyph glyph-name="Dcaron" unicode="&#x10e;" horiz-adv-x="666" 
d="M47 0l119 666h156q160 0 240 -69t80 -190q0 -81 -26 -153t-75.5 -129.5t-130 -91t-180.5 -33.5h-183zM150 74h95q143 0 223 92.5t80 235.5q0 98 -56.5 144t-178.5 46h-72zM346 723l-96 155h69l66 -85l95 85h78l-153 -155h-59z" />
    <glyph glyph-name="dcaron" unicode="&#x10f;" horiz-adv-x="529" 
d="M150 -12q-60 0 -90 43.5t-30 112.5q0 147 80 248.5t207 101.5q35 0 70 -8l43 234h83l-91 -503q-31 -173 -31 -217h-81q10 80 25 143h-2q-38 -70 -81.5 -112.5t-101.5 -42.5zM169 62q64 0 121 95t77 215l7 44q-28 10 -70 10q-84 0 -136.5 -79.5t-52.5 -189.5q0 -95 54 -95
zM523 550l71 170h100l-108 -170h-63z" />
    <glyph glyph-name="Dcroat" unicode="&#x110;" horiz-adv-x="674" 
d="M55 0l55 309h-69l13 66h68l52 291h156q161 0 240.5 -69t79.5 -190q0 -81 -26 -153t-75 -129.5t-129.5 -91t-180.5 -33.5h-184zM158 74h95q144 0 223.5 92t79.5 236q0 98 -56.5 144t-177.5 46h-73l-38 -217h111l-13 -66h-110z" />
    <glyph glyph-name="dcroat" unicode="&#x111;" horiz-adv-x="492" 
d="M258 573l11 66h146l15 81h83l-15 -81h40l-12 -66h-40l-64 -356q-31 -173 -31 -217h-81q10 80 25 143h-2q-38 -70 -81.5 -112.5t-101.5 -42.5q-60 0 -90 43.5t-30 112.5q0 147 80 248.5t207 101.5q35 0 70 -8l16 87h-145zM169 62q64 0 121 95t77 215l7 44q-28 10 -70 10
q-84 0 -136.5 -79.5t-52.5 -189.5q0 -95 54 -95z" />
    <glyph glyph-name="Emacron" unicode="&#x112;" horiz-adv-x="500" 
d="M47 0l119 666h343l-14 -76h-254l-37 -201h225l-14 -75h-223l-43 -238h262l-14 -76h-350zM204 756l12 67h273l-13 -67h-272z" />
    <glyph glyph-name="emacron" unicode="&#x113;" horiz-adv-x="433" 
d="M190 -12q-80 0 -122 50t-42 127q0 136 77.5 232.5t185.5 96.5q59 0 95 -29t36 -84q0 -43 -25.5 -77t-70.5 -56t-97 -35.5t-116 -21.5v-15q0 -116 90 -116q68 0 125 57l44 -56q-81 -73 -180 -73zM275 422q-52 0 -95.5 -48t-60.5 -122q96 11 156 42t60 79q0 49 -60 49z
M158 572l12 67h273l-13 -67h-272z" />
    <glyph glyph-name="Ebreve" unicode="&#x114;" horiz-adv-x="500" 
d="M47 0l119 666h343l-14 -76h-254l-37 -201h225l-14 -75h-223l-43 -238h262l-14 -76h-350zM344 719q-57 0 -93 33t-36 94l1 17h69l-1 -12q0 -69 63 -69q30 0 53.5 22t31.5 59h73q-16 -71 -62 -107.5t-99 -36.5z" />
    <glyph glyph-name="ebreve" unicode="&#x115;" horiz-adv-x="433" 
d="M190 -12q-80 0 -122 50t-42 127q0 136 77.5 232.5t185.5 96.5q59 0 95 -29t36 -84q0 -43 -25.5 -77t-70.5 -56t-97 -35.5t-116 -21.5v-15q0 -116 90 -116q68 0 125 57l44 -56q-81 -73 -180 -73zM275 422q-52 0 -95.5 -48t-60.5 -122q96 11 156 42t60 79q0 49 -60 49z
M299 535q-57 0 -93 33t-36 94l1 17h69l-1 -12q0 -69 63 -69q30 0 53.5 22t31.5 59h73q-16 -71 -62 -107.5t-99 -36.5z" />
    <glyph glyph-name="Edotaccent" unicode="&#x116;" horiz-adv-x="500" 
d="M47 0l119 666h343l-14 -76h-254l-37 -201h225l-14 -75h-223l-43 -238h262l-14 -76h-350zM347 745q-24 0 -41 18t-17 42q0 26 16.5 43.5t41.5 17.5t42.5 -17t17.5 -43q0 -25 -17.5 -43t-42.5 -18z" />
    <glyph glyph-name="edotaccent" unicode="&#x117;" horiz-adv-x="433" 
d="M190 -12q-80 0 -122 50t-42 127q0 136 77.5 232.5t185.5 96.5q59 0 95 -29t36 -84q0 -43 -25.5 -77t-70.5 -56t-97 -35.5t-116 -21.5v-15q0 -116 90 -116q68 0 125 57l44 -56q-81 -73 -180 -73zM275 422q-52 0 -95.5 -48t-60.5 -122q96 11 156 42t60 79q0 49 -60 49z
M302 561q-24 0 -41 18t-17 42q0 26 16.5 43.5t41.5 17.5q26 0 43 -17t17 -43q0 -25 -17.5 -43t-42.5 -18z" />
    <glyph glyph-name="Eogonek" unicode="&#x118;" horiz-adv-x="500" 
d="M293 -221q-45 0 -69 21.5t-24 55.5q0 43 32 86t68 58h-253l119 666h343l-14 -76h-254l-37 -201h225l-14 -75h-223l-43 -238h262l-14 -76h-19q-35 0 -71.5 -44t-36.5 -86q0 -37 43 -37q24 0 44 7l7 -44q-32 -17 -71 -17z" />
    <glyph glyph-name="eogonek" unicode="&#x119;" horiz-adv-x="433" 
d="M259 -221q-46 0 -69.5 21t-23.5 56q0 41 27 79.5t64 65.5q-33 -13 -67 -13q-80 0 -122 50t-42 127q0 136 77.5 232.5t185.5 96.5q59 0 95 -29t36 -84q0 -43 -25.5 -77t-70.5 -56t-97 -35.5t-116 -21.5v-15q0 -116 90 -116q68 0 125 57l44 -56l-60 -61q-74 -76 -74 -130
q0 -37 43 -37q23 0 43 7l8 -44q-32 -17 -71 -17zM275 422q-52 0 -95.5 -48t-60.5 -122q96 11 156 42t60 79q0 49 -60 49z" />
    <glyph glyph-name="Ecaron" unicode="&#x11a;" horiz-adv-x="500" 
d="M47 0l119 666h343l-14 -76h-254l-37 -201h225l-14 -75h-223l-43 -238h262l-14 -76h-350zM306 723l-96 155h69l66 -85l95 85h78l-153 -155h-59z" />
    <glyph glyph-name="ecaron" unicode="&#x11b;" horiz-adv-x="433" 
d="M190 -12q-80 0 -122 50t-42 127q0 136 77.5 232.5t185.5 96.5q59 0 95 -29t36 -84q0 -43 -25.5 -77t-70.5 -56t-97 -35.5t-116 -21.5v-15q0 -116 90 -116q68 0 125 57l44 -56q-81 -73 -180 -73zM275 422q-52 0 -95.5 -48t-60.5 -122q96 11 156 42t60 79q0 49 -60 49z
M260 539l-96 155h69l66 -85l95 85h78l-153 -155h-59z" />
    <glyph glyph-name="Gcircumflex" unicode="&#x11c;" horiz-adv-x="692" 
d="M345 -12q-137 0 -212.5 79t-75.5 202q0 168 113 288.5t278 120.5q131 0 206 -55l-52 -68q-61 48 -162 48q-128 0 -208.5 -95.5t-80.5 -235.5q0 -96 50.5 -153t148.5 -57q84 0 154 38l31 178h-141l14 74h228l-54 -298q-96 -66 -237 -66zM305 725l148 154h60l92 -154h-69
l-63 85l-90 -85h-78z" />
    <glyph glyph-name="gcircumflex" unicode="&#x11d;" horiz-adv-x="487" 
d="M141 -229q-81 0 -152 50l43 65q58 -42 116 -42q66 0 102.5 40t50.5 117l7 39q9 47 24 100h-2q-79 -151 -180 -151q-60 0 -90 43.5t-30 111.5q0 147 79.5 248.5t208.5 101.5q84 0 151 -19l-87 -474q-22 -122 -79 -176t-162 -54zM169 62q64 0 120.5 94.5t77.5 215.5l7 44
q-28 10 -70 10q-84 0 -136.5 -79.5t-52.5 -189.5q0 -95 54 -95zM173 541l148 154h60l92 -154h-69l-63 85l-90 -85h-78z" />
    <glyph glyph-name="Gbreve" unicode="&#x11e;" horiz-adv-x="692" 
d="M345 -12q-137 0 -212.5 79t-75.5 202q0 168 113 288.5t278 120.5q131 0 206 -55l-52 -68q-61 48 -162 48q-128 0 -208.5 -95.5t-80.5 -235.5q0 -96 50.5 -153t148.5 -57q84 0 154 38l31 178h-141l14 74h228l-54 -298q-96 -66 -237 -66zM460 719q-57 0 -93 33t-36 94l1 17
h69l-1 -12q0 -69 63 -69q30 0 53.5 22t31.5 59h73q-16 -71 -62 -107.5t-99 -36.5z" />
    <glyph glyph-name="gbreve" unicode="&#x11f;" horiz-adv-x="487" 
d="M141 -229q-81 0 -152 50l43 65q58 -42 116 -42q66 0 102.5 40t50.5 117l7 39q9 47 24 100h-2q-79 -151 -180 -151q-60 0 -90 43.5t-30 111.5q0 147 79.5 248.5t208.5 101.5q84 0 151 -19l-87 -474q-22 -122 -79 -176t-162 -54zM169 62q64 0 120.5 94.5t77.5 215.5l7 44
q-28 10 -70 10q-84 0 -136.5 -79.5t-52.5 -189.5q0 -95 54 -95zM329 535q-57 0 -93 33t-36 94l1 17h69l-1 -12q0 -69 63 -69q30 0 53.5 22t31.5 59h73q-16 -71 -62 -107.5t-99 -36.5z" />
    <glyph glyph-name="Gdotaccent" unicode="&#x120;" horiz-adv-x="692" 
d="M345 -12q-137 0 -212.5 79t-75.5 202q0 168 113 288.5t278 120.5q131 0 206 -55l-52 -68q-61 48 -162 48q-128 0 -208.5 -95.5t-80.5 -235.5q0 -96 50.5 -153t148.5 -57q84 0 154 38l31 178h-141l14 74h228l-54 -298q-96 -66 -237 -66zM467 745q-24 0 -41 18t-17 42
q0 26 16.5 43.5t41.5 17.5t42.5 -17t17.5 -43q0 -25 -17.5 -43t-42.5 -18z" />
    <glyph glyph-name="gdotaccent" unicode="&#x121;" horiz-adv-x="487" 
d="M141 -229q-81 0 -152 50l43 65q58 -42 116 -42q66 0 102.5 40t50.5 117l7 39q9 47 24 100h-2q-79 -151 -180 -151q-60 0 -90 43.5t-30 111.5q0 147 79.5 248.5t208.5 101.5q84 0 151 -19l-87 -474q-22 -122 -79 -176t-162 -54zM169 62q64 0 120.5 94.5t77.5 215.5l7 44
q-28 10 -70 10q-84 0 -136.5 -79.5t-52.5 -189.5q0 -95 54 -95zM334 561q-24 0 -41 18t-17 42q0 26 16.5 43.5t41.5 17.5q26 0 43 -17t17 -43q0 -25 -17.5 -43t-42.5 -18z" />
    <glyph glyph-name="Gcommaaccent" unicode="&#x122;" horiz-adv-x="692" 
d="M345 -12q-137 0 -212.5 79t-75.5 202q0 168 113 288.5t278 120.5q131 0 206 -55l-52 -68q-61 48 -162 48q-128 0 -208.5 -95.5t-80.5 -235.5q0 -96 50.5 -153t148.5 -57q84 0 154 38l31 178h-141l14 74h228l-54 -298q-96 -66 -237 -66zM255 -221q41 44 41 67
q0 11 -10.5 26.5t-10.5 28.5q0 21 16 36t38 15q20 0 33 -12.5t13 -34.5q0 -51 -72 -126h-48z" />
    <glyph glyph-name="gcommaaccent" unicode="&#x123;" horiz-adv-x="487" 
d="M141 -229q-81 0 -152 50l43 65q58 -42 116 -42q66 0 102.5 40t50.5 117l7 39q9 47 24 100h-2q-79 -151 -180 -151q-60 0 -90 43.5t-30 111.5q0 147 79.5 248.5t208.5 101.5q84 0 151 -19l-87 -474q-22 -122 -79 -176t-162 -54zM169 62q64 0 120.5 94.5t77.5 215.5l7 44
q-28 10 -70 10q-84 0 -136.5 -79.5t-52.5 -189.5q0 -95 54 -95zM389 712q-41 -44 -41 -67q0 -11 10.5 -26.5t10.5 -28.5q0 -21 -16 -36t-38 -15q-20 0 -33 12.5t-13 34.5q0 51 72 126h48z" />
    <glyph glyph-name="Hcircumflex" unicode="&#x124;" horiz-adv-x="714" 
d="M47 0l118 666h89l-49 -278h354l50 278h89l-119 -666h-89l56 312h-354l-56 -312h-89zM289 725l148 154h60l92 -154h-69l-63 85l-90 -85h-78z" />
    <glyph glyph-name="hcircumflex" unicode="&#x125;" horiz-adv-x="515" 
d="M29 0l132 720h83l-45 -238q-15 -84 -28 -140h2q83 152 192 152q50 0 76 -31t26 -86q0 -20 -5 -52l-59 -325h-83l56 319q4 20 4 41q0 59 -46 59q-61 0 -120.5 -92.5t-92.5 -274.5l-9 -52h-83zM221 779l148 154h60l92 -154h-69l-63 85l-90 -85h-78z" />
    <glyph glyph-name="Hbar" unicode="&#x126;" horiz-adv-x="770" 
d="M74 483l12 66h68l21 117h89l-21 -117h355l21 117h88l-21 -117h70l-13 -66h-69l-86 -483h-88l55 308h-354l-55 -308h-89l85 483h-68zM214 384h355l17 99h-355z" />
    <glyph glyph-name="hbar" unicode="&#x127;" horiz-adv-x="521" 
d="M35 0l104 573h-44l12 66h44l16 81h83l-15 -81h141l-12 -66h-142l-17 -91q-16 -90 -29 -140h2q16 28 30 48t38.5 47t56.5 42t68 15q50 0 76 -31t26 -86q0 -20 -5 -52l-59 -325h-84l57 319q4 20 4 41q0 59 -46 59q-61 0 -120.5 -92.5t-92.5 -274.5l-9 -52h-83z" />
    <glyph glyph-name="Itilde" unicode="&#x128;" horiz-adv-x="282" 
d="M53 0l119 666h89l-119 -666h-89zM276 728q-26 0 -55.5 19t-47.5 19q-22 0 -54 -29l-33 38q44 61 99 61q26 0 56 -19t47 -19q32 0 56 29l35 -37q-51 -62 -103 -62z" />
    <glyph glyph-name="itilde" unicode="&#x129;" horiz-adv-x="239" 
d="M34 0l87 481h83l-87 -481h-83zM222 544q-26 0 -55.5 19t-47.5 19q-22 0 -54 -29l-33 38q44 61 99 61q26 0 56 -19t47 -19q32 0 56 29l35 -37q-51 -62 -103 -62z" />
    <glyph glyph-name="Imacron" unicode="&#x12a;" horiz-adv-x="282" 
d="M53 0l119 666h89l-119 -666h-89zM93 756l12 67h273l-13 -67h-272z" />
    <glyph glyph-name="imacron" unicode="&#x12b;" horiz-adv-x="239" 
d="M34 0l87 481h83l-87 -481h-83zM40 572l12 67h273l-13 -67h-272z" />
    <glyph glyph-name="Ibreve" unicode="&#x12c;" horiz-adv-x="282" 
d="M53 0l119 666h89l-119 -666h-89zM233 719q-57 0 -93 33t-36 94l1 17h69l-1 -12q0 -69 63 -69q30 0 53.5 22t31.5 59h73q-16 -71 -62 -107.5t-99 -36.5z" />
    <glyph glyph-name="ibreve" unicode="&#x12d;" horiz-adv-x="239" 
d="M34 0l87 481h83l-87 -481h-83zM180 535q-57 0 -93 33t-36 94l1 17h69l-1 -12q0 -69 63 -69q30 0 53.5 22t31.5 59h73q-16 -71 -62 -107.5t-99 -36.5z" />
    <glyph glyph-name="Iogonek" unicode="&#x12e;" horiz-adv-x="282" 
d="M63 -221q-46 0 -69.5 21t-23.5 56q0 75 91 144h-8l119 666h89l-119 -666h-1q-33 0 -67 -44.5t-34 -85.5q0 -37 43 -37q25 0 43 7l8 -44q-32 -17 -71 -17z" />
    <glyph glyph-name="iogonek" unicode="&#x12f;" horiz-adv-x="239" 
d="M43 -221q-46 0 -69.5 21t-23.5 56q0 74 90 144h-6l87 481h83l-87 -481h-1q-31 0 -63.5 -44.5t-32.5 -85.5q0 -37 43 -37q23 0 43 7l8 -44q-32 -17 -71 -17zM186 569q-24 0 -41 17t-17 40q0 24 17 41t41 17t41 -17t17 -41q0 -23 -17 -40t-41 -17z" />
    <glyph glyph-name="Idotaccent" unicode="&#x130;" horiz-adv-x="282" 
d="M53 0l119 666h89l-119 -666h-89zM236 745q-24 0 -41 18t-17 42q0 26 16.5 43.5t41.5 17.5q26 0 43 -17t17 -43q0 -25 -17.5 -43t-42.5 -18z" />
    <glyph glyph-name="dotlessi" unicode="&#x131;" horiz-adv-x="239" 
d="M34 0l87 481h83l-87 -481h-83z" />
    <glyph glyph-name="IJ" unicode="&#x132;" horiz-adv-x="561" 
d="M237 -193q-39 0 -66 12l30 76q16 -8 38 -8q78 0 97 115l119 664h88l-121 -678q-31 -181 -185 -181zM53 0l119 666h89l-119 -666h-89z" />
    <glyph glyph-name="ij" unicode="&#x133;" horiz-adv-x="515" 
d="M157 -229q-79 0 -153 50l43 65q58 -42 116 -42q66 0 102.5 40t51.5 117l7 39q12 65 27 114h-2q-17 -32 -32.5 -55.5t-41 -51.5t-57.5 -43.5t-69 -15.5q-50 0 -76 30.5t-26 85.5q0 20 5 52l59 325h83l-56 -318q-4 -21 -4 -42q0 -59 46 -59q59 0 118.5 89t90.5 259l13 71
h83l-88 -480q-22 -122 -78.5 -176t-161.5 -54zM176 569q-24 0 -41 17t-17 40q0 24 17 41t41 17t40.5 -17t16.5 -41q0 -23 -16.5 -40t-40.5 -17zM466 569q-23 0 -40.5 17t-17.5 40q0 24 17.5 41t40.5 17q25 0 41.5 -17t16.5 -41t-17 -40.5t-41 -16.5z" />
    <glyph glyph-name="Jcircumflex" unicode="&#x134;" horiz-adv-x="279" 
d="M-45 -193q-39 0 -66 12l30 76q16 -8 38 -8q78 0 97 115l119 664h88l-121 -678q-31 -181 -185 -181zM76 725l148 154h60l92 -154h-69l-63 85l-90 -85h-78z" />
    <glyph glyph-name="jcircumflex" unicode="&#x135;" horiz-adv-x="238" 
d="M-77 -230q-38 0 -74 14l30 69q15 -10 48 -10q45 0 67.5 31t33.5 94l93 513h83l-93 -521q-15 -91 -57 -140.5t-131 -49.5zM20 541l148 154h60l92 -154h-69l-63 85l-90 -85h-78z" />
    <glyph glyph-name="Kcommaaccent" unicode="&#x136;" horiz-adv-x="567" 
d="M419 0l-220 348l311 318h103l-315 -319l221 -347h-100zM47 0l119 666h87l-118 -666h-88zM173 -221q41 44 41 67q0 11 -10.5 26.5t-10.5 28.5q0 21 16 36t38 15q20 0 33 -12.5t13 -34.5q0 -51 -72 -126h-48z" />
    <glyph glyph-name="kcommaaccent" unicode="&#x137;" horiz-adv-x="449" 
d="M307 0l-149 269l216 212h101l-227 -216l148 -265h-89zM24 0l125 720h84l-125 -720h-84zM124 -221q41 44 41 67q0 11 -10.5 26.5t-10.5 28.5q0 21 16 36t38 15q20 0 33 -12.5t13 -34.5q0 -51 -72 -126h-48z" />
    <glyph glyph-name="kgreenlandic" unicode="&#x138;" horiz-adv-x="449" 
d="M307 0l-149 268l216 213h101l-227 -216l148 -265h-89zM24 0l83 481h84l-83 -481h-84z" />
    <glyph glyph-name="Lacute" unicode="&#x139;" horiz-adv-x="465" 
d="M47 0l119 666h88l-104 -591h253l-13 -75h-343zM176 724l109 128h123l-154 -128h-78z" />
    <glyph glyph-name="lacute" unicode="&#x13a;" horiz-adv-x="240" 
d="M34 0l130 720h83l-130 -720h-83zM176 778l109 128h123l-154 -128h-78z" />
    <glyph glyph-name="Lcommaaccent" unicode="&#x13b;" horiz-adv-x="465" 
d="M47 0l119 666h88l-104 -591h253l-13 -75h-343zM138 -221q41 44 41 67q0 11 -10.5 26.5t-10.5 28.5q0 21 16 36t38 15q20 0 33 -12.5t13 -34.5q0 -51 -72 -126h-48z" />
    <glyph glyph-name="lcommaaccent" unicode="&#x13c;" horiz-adv-x="240" 
d="M34 0l130 720h83l-130 -720h-83zM-18 -221q41 44 41 67q0 11 -10.5 26.5t-10.5 28.5q0 21 16 36t38 15q20 0 33 -12.5t13 -34.5q0 -51 -72 -126h-48z" />
    <glyph glyph-name="Lcaron" unicode="&#x13d;" horiz-adv-x="465" 
d="M47 0l119 666h88l-104 -591h253l-13 -75h-343zM283 526l71 170h100l-108 -170h-63z" />
    <glyph glyph-name="lcaron" unicode="&#x13e;" horiz-adv-x="263" 
d="M34 0l130 720h83l-130 -720h-83zM257 550l71 170h100l-108 -170h-63z" />
    <glyph glyph-name="Ldot" unicode="&#x13f;" horiz-adv-x="468" 
d="M47 0l119 666h88l-104 -591h253l-13 -75h-343zM386 291q-24 0 -41 18t-17 42q0 26 16.5 43.5t41.5 17.5q26 0 43 -17t17 -43q0 -25 -17.5 -43t-42.5 -18z" />
    <glyph glyph-name="ldot" unicode="&#x140;" horiz-adv-x="339" 
d="M34 0l130 720h83l-130 -720h-83zM309 290q-24 0 -41 18t-17 42q0 26 16.5 43.5t41.5 17.5t42.5 -17.5t17.5 -42.5t-17.5 -43t-42.5 -18z" />
    <glyph glyph-name="Lslash" unicode="&#x141;" horiz-adv-x="486" 
d="M66 0l49 273l-80 -55l-27 48l120 82l57 318h89l-44 -250l118 80l29 -48l-161 -109l-47 -264h254l-13 -75h-344z" />
    <glyph glyph-name="lslash" unicode="&#x142;" horiz-adv-x="258" 
d="M84 0l48 273l-77 -53l13 74l77 53l66 373h84l-54 -308l91 63l-13 -75l-91 -63l-60 -337h-84z" />
    <glyph glyph-name="Nacute" unicode="&#x143;" horiz-adv-x="694" 
d="M44 0l119 666h87l215 -443q29 -61 41 -100h2q8 68 15 106l77 437h81l-118 -666h-81l-223 457q-20 42 -37 92h-2q-8 -60 -14 -97l-81 -452h-81zM392 724l109 128h123l-154 -128h-78z" />
    <glyph glyph-name="nacute" unicode="&#x144;" horiz-adv-x="515" 
d="M29 0l87 481h80q-14 -84 -30 -147h2q16 29 31.5 51.5t40 50t57 43t68.5 15.5q50 0 76 -31t26 -86q0 -20 -5 -52l-59 -325h-83l56 319q4 20 4 41q0 59 -46 59q-61 0 -120.5 -92.5t-92.5 -274.5l-9 -52h-83zM272 540l109 128h123l-154 -128h-78z" />
    <glyph glyph-name="Ncommaaccent" unicode="&#x145;" horiz-adv-x="694" 
d="M44 0l119 666h87l215 -443q29 -61 41 -100h2q8 68 15 106l77 437h81l-118 -666h-81l-223 457q-20 42 -37 92h-2q-8 -60 -14 -97l-81 -452h-81zM217 -221q41 44 41 67q0 11 -10.5 26.5t-10.5 28.5q0 21 16 36t38 15q20 0 33 -12.5t13 -34.5q0 -51 -72 -126h-48z" />
    <glyph glyph-name="ncommaaccent" unicode="&#x146;" horiz-adv-x="515" 
d="M29 0l87 481h80q-14 -84 -30 -147h2q16 29 31.5 51.5t40 50t57 43t68.5 15.5q50 0 76 -31t26 -86q0 -20 -5 -52l-59 -325h-83l56 319q4 20 4 41q0 59 -46 59q-61 0 -120.5 -92.5t-92.5 -274.5l-9 -52h-83zM131 -221q41 44 41 67q0 11 -10.5 26.5t-10.5 28.5q0 21 16 36
t38 15q20 0 33 -12.5t13 -34.5q0 -51 -72 -126h-48z" />
    <glyph glyph-name="Ncaron" unicode="&#x147;" horiz-adv-x="694" 
d="M44 0l119 666h87l215 -443q29 -61 41 -100h2q8 68 15 106l77 437h81l-118 -666h-81l-223 457q-20 42 -37 92h-2q-8 -60 -14 -97l-81 -452h-81zM401 723l-96 155h69l66 -85l95 85h78l-153 -155h-59z" />
    <glyph glyph-name="ncaron" unicode="&#x148;" horiz-adv-x="515" 
d="M29 0l87 481h80q-14 -84 -30 -147h2q16 29 31.5 51.5t40 50t57 43t68.5 15.5q50 0 76 -31t26 -86q0 -20 -5 -52l-59 -325h-83l56 319q4 20 4 41q0 59 -46 59q-61 0 -120.5 -92.5t-92.5 -274.5l-9 -52h-83zM281 539l-96 155h69l66 -85l95 85h78l-153 -155h-59z" />
    <glyph glyph-name="napostrophe" unicode="&#x149;" horiz-adv-x="599" 
d="M113 0l87 481h80q-14 -84 -30 -147h2q16 29 31.5 51.5t40 50t57 43t68.5 15.5q50 0 76 -31t26 -86q0 -20 -5 -52l-59 -325h-83l56 319q4 20 4 41q0 59 -46 59q-61 0 -120.5 -92.5t-92.5 -274.5l-9 -52h-83zM44 417l-33 29q55 53 55 93q0 16 -14 38.5t-14 42.5
q0 25 17 41.5t41 16.5q27 0 46 -19t19 -52q0 -51 -36 -102.5t-81 -87.5z" />
    <glyph glyph-name="Eng" unicode="&#x14a;" horiz-adv-x="695" 
d="M44 0l119 666h87l215 -442q29 -62 41 -100h2q9 73 15 105l77 437h82l-123 -690q-30 -169 -173 -169q-45 0 -67 14l28 70q16 -9 41 -9q72 0 91 106l2 13l-221 456q-21 41 -38 92h-2q-7 -56 -14 -97l-81 -452h-81z" />
    <glyph glyph-name="eng" unicode="&#x14b;" horiz-adv-x="515" 
d="M29 0l87 481h80q-8 -63 -30 -147h2q85 160 197 160q50 0 76.5 -31t26.5 -86q0 -22 -5 -52l-67 -365q-16 -91 -58 -140.5t-130 -49.5q-38 0 -74 14l29 69q17 -10 48 -10q45 0 68 31t34 94l63 351q18 100 -42 100q-59 0 -117 -89t-91 -256l-14 -74h-83z" />
    <glyph glyph-name="Omacron" unicode="&#x14c;" horiz-adv-x="737" 
d="M341 -12q-130 0 -206.5 84t-76.5 204q0 101 44.5 192t131 150.5t193.5 59.5q136 0 209 -83t73 -207q0 -101 -43.5 -191.5t-129.5 -149.5t-195 -59zM346 63q82 0 145 48t94 121t31 157q0 92 -50.5 153t-144.5 61q-122 0 -196 -97t-74 -229q0 -92 52.5 -153t142.5 -61z
M309 756l12 67h273l-13 -67h-272z" />
    <glyph glyph-name="omacron" unicode="&#x14d;" horiz-adv-x="484" 
d="M203 -12q-87 0 -131 59.5t-44 140.5q0 119 73 212.5t179 93.5q85 0 130.5 -57t45.5 -141q0 -125 -73 -216.5t-180 -91.5zM209 56q70 0 116 73t46 157q0 140 -97 140q-70 0 -116.5 -74.5t-46.5 -161.5q0 -62 25 -98t73 -36zM155 572l12 67h273l-13 -67h-272z" />
    <glyph glyph-name="Obreve" unicode="&#x14e;" horiz-adv-x="737" 
d="M341 -12q-130 0 -206.5 84t-76.5 204q0 101 44.5 192t131 150.5t193.5 59.5q136 0 209 -83t73 -207q0 -101 -43.5 -191.5t-129.5 -149.5t-195 -59zM346 63q82 0 145 48t94 121t31 157q0 92 -50.5 153t-144.5 61q-122 0 -196 -97t-74 -229q0 -92 52.5 -153t142.5 -61z
M449 719q-57 0 -93 33t-36 94l1 17h69l-1 -12q0 -69 63 -69q30 0 53.5 22t31.5 59h73q-16 -71 -62 -107.5t-99 -36.5z" />
    <glyph glyph-name="obreve" unicode="&#x14f;" horiz-adv-x="484" 
d="M203 -12q-87 0 -131 59.5t-44 140.5q0 119 73 212.5t179 93.5q85 0 130.5 -57t45.5 -141q0 -125 -73 -216.5t-180 -91.5zM209 56q70 0 116 73t46 157q0 140 -97 140q-70 0 -116.5 -74.5t-46.5 -161.5q0 -62 25 -98t73 -36zM295 535q-57 0 -93 33t-36 94l1 17h69l-1 -12
q0 -69 63 -69q30 0 53.5 22t31.5 59h73q-16 -71 -62 -107.5t-99 -36.5z" />
    <glyph glyph-name="Ohungarumlaut" unicode="&#x150;" horiz-adv-x="737" 
d="M341 -12q-130 0 -206.5 84t-76.5 204q0 101 44.5 192t131 150.5t193.5 59.5q136 0 209 -83t73 -207q0 -101 -43.5 -191.5t-129.5 -149.5t-195 -59zM346 63q82 0 145 48t94 121t31 157q0 92 -50.5 153t-144.5 61q-122 0 -196 -97t-74 -229q0 -92 52.5 -153t142.5 -61z
M304 724l108 128h116l-151 -128h-73zM469 724l109 128h116l-152 -128h-73z" />
    <glyph glyph-name="ohungarumlaut" unicode="&#x151;" horiz-adv-x="484" 
d="M203 -12q-87 0 -131 59.5t-44 140.5q0 119 73 212.5t179 93.5q85 0 130.5 -57t45.5 -141q0 -125 -73 -216.5t-180 -91.5zM209 56q70 0 116 73t46 157q0 140 -97 140q-70 0 -116.5 -74.5t-46.5 -161.5q0 -62 25 -98t73 -36zM149 540l108 128h116l-151 -128h-73zM314 540
l109 128h116l-152 -128h-73z" />
    <glyph glyph-name="OE" unicode="&#x152;" horiz-adv-x="874" 
d="M340 -12q-131 0 -206 83t-75 205q0 75 27 147t74 128.5t117.5 91.5t151.5 35q73 0 113 -12h341l-14 -76h-254l-37 -201h225l-13 -75h-224l-43 -238h262l-14 -76h-338q-43 -12 -93 -12zM345 63q48 0 90 17l90 505q-36 18 -101 18q-124 0 -198 -97t-74 -229
q0 -94 50.5 -154t142.5 -60z" />
    <glyph glyph-name="oe" unicode="&#x153;" horiz-adv-x="758" 
d="M203 -12q-87 0 -131 59.5t-44 140.5q0 119 73 212.5t179 93.5q110 0 153 -101q79 101 185 101q59 0 95 -29t36 -84q0 -43 -25.5 -77t-70.5 -56t-97 -35.5t-116 -21.5v-15q0 -116 91 -116q67 0 124 57l44 -56q-81 -73 -180 -73q-102 0 -143 90q-69 -90 -173 -90zM209 56
q70 0 116 73t46 157q0 140 -97 140q-70 0 -116.5 -74.5t-46.5 -161.5q0 -62 25 -98t73 -36zM605 422q-52 0 -95.5 -48t-61.5 -122q96 11 156 42t60 79q0 49 -59 49z" />
    <glyph glyph-name="Racute" unicode="&#x154;" horiz-adv-x="578" 
d="M47 0l119 666h182q90 0 141 -41t51 -114q0 -88 -56.5 -140t-154.5 -60v-2q28 -20 64 -87l120 -222h-98l-102 192q-38 70 -57.5 89.5t-55.5 19.5h-10l-54 -301h-89zM201 372h97q76 0 113.5 36t37.5 97q0 87 -117 87h-90zM303 724l109 128h123l-154 -128h-78z" />
    <glyph glyph-name="racute" unicode="&#x155;" horiz-adv-x="361" 
d="M29 0l87 481h80q-6 -46 -31 -151h2q30 66 75.5 115t95.5 49q28 0 50 -10l-32 -80q-15 5 -31 5q-63 0 -118 -91.5t-86 -265.5l-9 -52h-83zM213 540l109 128h123l-154 -128h-78z" />
    <glyph glyph-name="Rcommaaccent" unicode="&#x156;" horiz-adv-x="578" 
d="M47 0l119 666h182q90 0 141 -41t51 -114q0 -88 -56.5 -140t-154.5 -60v-2q28 -20 64 -87l120 -222h-98l-102 192q-38 70 -57.5 89.5t-55.5 19.5h-10l-54 -301h-89zM201 372h97q76 0 113.5 36t37.5 97q0 87 -117 87h-90zM193 -221q41 44 41 67q0 11 -10.5 26.5t-10.5 28.5
q0 21 16 36t38 15q20 0 33 -12.5t13 -34.5q0 -51 -72 -126h-48z" />
    <glyph glyph-name="rcommaaccent" unicode="&#x157;" horiz-adv-x="361" 
d="M29 0l87 481h80q-6 -46 -31 -151h2q30 66 75.5 115t95.5 49q28 0 50 -10l-32 -80q-15 5 -31 5q-63 0 -118 -91.5t-86 -265.5l-9 -52h-83zM-15 -221q41 44 41 67q0 11 -10.5 26.5t-10.5 28.5q0 21 16 36t38 15q20 0 33 -12.5t13 -34.5q0 -51 -72 -126h-48z" />
    <glyph glyph-name="Rcaron" unicode="&#x158;" horiz-adv-x="578" 
d="M47 0l119 666h182q90 0 141 -41t51 -114q0 -88 -56.5 -140t-154.5 -60v-2q28 -20 64 -87l120 -222h-98l-102 192q-38 70 -57.5 89.5t-55.5 19.5h-10l-54 -301h-89zM201 372h97q76 0 113.5 36t37.5 97q0 87 -117 87h-90zM311 723l-96 155h69l66 -85l95 85h78l-153 -155
h-59z" />
    <glyph glyph-name="rcaron" unicode="&#x159;" horiz-adv-x="361" 
d="M29 0l87 481h80q-6 -46 -31 -151h2q30 66 75.5 115t95.5 49q28 0 50 -10l-32 -80q-15 5 -31 5q-63 0 -118 -91.5t-86 -265.5l-9 -52h-83zM223 539l-96 155h69l66 -85l95 85h78l-153 -155h-59z" />
    <glyph glyph-name="Sacute" unicode="&#x15a;" horiz-adv-x="460" 
d="M195 -12q-119 0 -203 78l54 61q21 -19 34 -29t47 -22.5t73 -12.5q59 0 87.5 30t28.5 76q0 22 -5.5 39t-23.5 38t-29 31t-46 40q-42 37 -62.5 58t-40.5 58.5t-20 77.5q0 80 54.5 123.5t141.5 43.5q95 0 164 -53l-45 -66q-56 45 -124 45q-103 0 -103 -92q0 -25 14 -48.5
t30.5 -39t54.5 -48.5q34 -29 50 -44t38 -42t31.5 -55.5t9.5 -62.5q0 -76 -53 -130t-157 -54zM256 724l109 128h123l-154 -128h-78z" />
    <glyph glyph-name="sacute" unicode="&#x15b;" horiz-adv-x="359" 
d="M136 -12q-88 0 -146 50l42 59q54 -41 109 -41q36 0 56.5 17.5t20.5 45.5q0 7 -1.5 14t-3.5 12.5t-7 13.5t-8.5 12.5t-12 13.5t-12.5 13.5t-15.5 16.5t-16.5 17q-39 40 -56.5 69t-17.5 66q0 58 42.5 92.5t113.5 34.5q70 0 119 -36l-41 -60q-38 27 -85 27q-32 0 -50 -14
t-18 -40q0 -15 8.5 -31t18.5 -27.5t37 -39.5q31 -33 38.5 -41.5t24 -31.5t21 -40.5t4.5 -40.5q0 -57 -43 -94t-121 -37zM190 540l109 128h123l-154 -128h-78z" />
    <glyph glyph-name="Scircumflex" unicode="&#x15c;" horiz-adv-x="460" 
d="M195 -12q-119 0 -203 78l54 61q21 -19 34 -29t47 -22.5t73 -12.5q59 0 87.5 30t28.5 76q0 22 -5.5 39t-23.5 38t-29 31t-46 40q-42 37 -62.5 58t-40.5 58.5t-20 77.5q0 80 54.5 123.5t141.5 43.5q95 0 164 -53l-45 -66q-56 45 -124 45q-103 0 -103 -92q0 -25 14 -48.5
t30.5 -39t54.5 -48.5q34 -29 50 -44t38 -42t31.5 -55.5t9.5 -62.5q0 -76 -53 -130t-157 -54zM146 725l148 154h60l92 -154h-69l-63 85l-90 -85h-78z" />
    <glyph glyph-name="scircumflex" unicode="&#x15d;" horiz-adv-x="359" 
d="M136 -12q-88 0 -146 50l42 59q54 -41 109 -41q36 0 56.5 17.5t20.5 45.5q0 7 -1.5 14t-3.5 12.5t-7 13.5t-8.5 12.5t-12 13.5t-12.5 13.5t-15.5 16.5t-16.5 17q-39 40 -56.5 69t-17.5 66q0 58 42.5 92.5t113.5 34.5q70 0 119 -36l-41 -60q-38 27 -85 27q-32 0 -50 -14
t-18 -40q0 -15 8.5 -31t18.5 -27.5t37 -39.5q31 -33 38.5 -41.5t24 -31.5t21 -40.5t4.5 -40.5q0 -57 -43 -94t-121 -37zM80 541l148 154h60l92 -154h-69l-63 85l-90 -85h-78z" />
    <glyph glyph-name="Scedilla" unicode="&#x15e;" horiz-adv-x="460" 
d="M158 -221q-41 0 -70 12l17 44q18 -9 49 -9q50 0 50 38q0 44 -71 40l31 86q-102 9 -172 76l54 61q21 -19 34 -29t47 -22.5t73 -12.5q59 0 87.5 30t28.5 76q0 22 -5.5 39t-23.5 38t-29 31t-46 40q-42 37 -62.5 58t-40.5 58.5t-20 77.5q0 80 54.5 123.5t141.5 43.5
q95 0 164 -53l-45 -66q-56 45 -124 45q-103 0 -103 -92q0 -25 14 -48.5t30.5 -39t54.5 -48.5q34 -29 50 -44t38 -42t31.5 -55.5t9.5 -62.5q0 -71 -46.5 -123.5t-138.5 -59.5l-20 -53q32 -5 51.5 -24.5t19.5 -49.5q0 -38 -32 -60.5t-81 -22.5z" />
    <glyph glyph-name="scedilla" unicode="&#x15f;" horiz-adv-x="359" 
d="M102 -221q-41 0 -70 12l17 44q18 -9 49 -9q50 0 50 38q0 44 -71 40l31 86q-73 7 -118 48l42 59q54 -41 109 -41q36 0 56.5 17.5t20.5 45.5q0 7 -1.5 14t-3.5 12.5t-7 13.5t-8.5 12.5t-12 13.5t-12.5 13.5t-15.5 16.5t-16.5 17q-39 40 -56.5 69t-17.5 66q0 58 42.5 92.5
t113.5 34.5q70 0 119 -36l-41 -60q-38 27 -85 27q-32 0 -50 -14t-18 -40q0 -15 8.5 -31t18.5 -27.5t37 -39.5q31 -33 38.5 -41.5t24 -31.5t21 -40.5t4.5 -40.5q0 -52 -35 -87t-101 -42l-20 -54q32 -5 51.5 -24.5t19.5 -49.5q0 -38 -32 -60.5t-81 -22.5z" />
    <glyph glyph-name="Scaron" unicode="&#x160;" horiz-adv-x="460" 
d="M195 -12q-119 0 -203 78l54 61q21 -19 34 -29t47 -22.5t73 -12.5q59 0 87.5 30t28.5 76q0 22 -5.5 39t-23.5 38t-29 31t-46 40q-42 37 -62.5 58t-40.5 58.5t-20 77.5q0 80 54.5 123.5t141.5 43.5q95 0 164 -53l-45 -66q-56 45 -124 45q-103 0 -103 -92q0 -25 14 -48.5
t30.5 -39t54.5 -48.5q34 -29 50 -44t38 -42t31.5 -55.5t9.5 -62.5q0 -76 -53 -130t-157 -54zM266 723l-96 155h69l66 -85l95 85h78l-153 -155h-59z" />
    <glyph glyph-name="scaron" unicode="&#x161;" horiz-adv-x="359" 
d="M136 -12q-88 0 -146 50l42 59q54 -41 109 -41q36 0 56.5 17.5t20.5 45.5q0 7 -1.5 14t-3.5 12.5t-7 13.5t-8.5 12.5t-12 13.5t-12.5 13.5t-15.5 16.5t-16.5 17q-39 40 -56.5 69t-17.5 66q0 58 42.5 92.5t113.5 34.5q70 0 119 -36l-41 -60q-38 27 -85 27q-32 0 -50 -14
t-18 -40q0 -15 8.5 -31t18.5 -27.5t37 -39.5q31 -33 38.5 -41.5t24 -31.5t21 -40.5t4.5 -40.5q0 -57 -43 -94t-121 -37zM200 539l-96 155h69l66 -85l95 85h78l-153 -155h-59z" />
    <glyph glyph-name="Tcommaaccent" unicode="&#x162;" horiz-adv-x="495" 
d="M161 0l106 590h-187l13 76h457l-12 -76h-182l-105 -590h-17l-24 -64q32 -5 51.5 -24.5t19.5 -49.5q0 -38 -32 -60.5t-81 -22.5q-41 0 -70 12l17 44q18 -9 49 -9q50 0 50 38q0 44 -71 40l35 96h-17z" />
    <glyph glyph-name="tcommaaccent" unicode="&#x163;" horiz-adv-x="340" 
d="M125 -221q-41 0 -70 12l17 44q18 -9 49 -9q50 0 50 38q0 44 -71 40l32 86q-68 12 -68 90q0 18 5 48l53 288h-83l12 65h84l24 133l88 22l-28 -155h119l-12 -65h-120l-50 -273q-7 -35 -7 -50q0 -33 28 -33q7 0 14.5 1.5t14.5 4.5t12.5 5.5t13.5 8t11 8t11 9t10 7.5l38 -57
q-54 -48 -114 -57l-21 -54q32 -5 51.5 -24.5t19.5 -49.5q0 -38 -32 -60.5t-81 -22.5z" />
    <glyph glyph-name="Tcaron" unicode="&#x164;" horiz-adv-x="495" 
d="M161 0l106 590h-187l13 76h457l-12 -76h-182l-105 -590h-90zM298 723l-96 155h69l66 -85l95 85h78l-153 -155h-59z" />
    <glyph glyph-name="tcaron" unicode="&#x165;" horiz-adv-x="342" 
d="M160 -12q-96 0 -96 92q0 18 5 48l53 288h-83l12 65h84l24 133l88 22l-28 -155h119l-12 -65h-120l-50 -273q-7 -35 -7 -50q0 -33 28 -33q7 0 14.5 1.5t14.5 4.5t12.5 5.5t13.5 8t11 8t11 9t10 7.5l38 -57q-67 -59 -142 -59zM291 552l70 168h100l-107 -168h-63z" />
    <glyph glyph-name="Tbar" unicode="&#x166;" horiz-adv-x="495" 
d="M63 341l13 66h158l33 183h-187l13 76h457l-12 -76h-182l-33 -183h169l-13 -66h-168l-60 -341h-90l61 341h-159z" />
    <glyph glyph-name="tbar" unicode="&#x167;" horiz-adv-x="340" 
d="M32 237l11 65h58l21 115h-82l11 64h84l24 133l88 22l-28 -155h119l-11 -64h-120l-22 -115h101l-12 -65h-101l-17 -94q-7 -35 -7 -50q0 -33 28 -33q7 0 14.5 1.5t14.5 4.5t12.5 5.5t13.5 8t11 8t11 9t10 7.5l38 -57q-67 -59 -142 -59q-96 0 -96 92q0 18 5 48l20 109h-57z
" />
    <glyph glyph-name="Utilde" unicode="&#x168;" horiz-adv-x="680" 
d="M308 -12q-112 0 -169.5 54t-57.5 147q0 30 6 63l73 414h88l-71 -405q-7 -35 -7 -67q0 -66 35.5 -97.5t110.5 -31.5q86 0 132.5 46.5t64.5 144.5l73 410h83l-75 -422q-23 -125 -91 -190.5t-195 -65.5zM467 728q-26 0 -55.5 19t-47.5 19q-22 0 -54 -29l-33 38q44 61 99 61
q26 0 56 -19t47 -19q32 0 56 29l35 -37q-51 -62 -103 -62z" />
    <glyph glyph-name="utilde" unicode="&#x169;" horiz-adv-x="515" 
d="M149 -12q-50 0 -76 30.5t-26 85.5q0 20 5 52l59 325h83l-56 -318q-4 -21 -4 -42q0 -59 46 -59q59 0 118.5 89t90.5 259l13 71h83l-48 -264q-30 -168 -30 -217h-82q15 104 26 154h-2q-17 -32 -32.5 -55.5t-41 -51.5t-57.5 -43.5t-69 -15.5zM354 544q-26 0 -55.5 19
t-47.5 19q-22 0 -54 -29l-33 38q44 61 99 61q26 0 56 -19t47 -19q32 0 56 29l35 -37q-51 -62 -103 -62z" />
    <glyph glyph-name="Umacron" unicode="&#x16a;" horiz-adv-x="680" 
d="M308 -12q-112 0 -169.5 54t-57.5 147q0 30 6 63l73 414h88l-71 -405q-7 -35 -7 -67q0 -66 35.5 -97.5t110.5 -31.5q86 0 132.5 46.5t64.5 144.5l73 410h83l-75 -422q-23 -125 -91 -190.5t-195 -65.5zM285 756l12 67h273l-13 -67h-272z" />
    <glyph glyph-name="umacron" unicode="&#x16b;" horiz-adv-x="515" 
d="M149 -12q-50 0 -76 30.5t-26 85.5q0 20 5 52l59 325h83l-56 -318q-4 -21 -4 -42q0 -59 46 -59q59 0 118.5 89t90.5 259l13 71h83l-48 -264q-30 -168 -30 -217h-82q15 104 26 154h-2q-17 -32 -32.5 -55.5t-41 -51.5t-57.5 -43.5t-69 -15.5zM171 572l12 67h273l-13 -67
h-272z" />
    <glyph glyph-name="Ubreve" unicode="&#x16c;" horiz-adv-x="680" 
d="M308 -12q-112 0 -169.5 54t-57.5 147q0 30 6 63l73 414h88l-71 -405q-7 -35 -7 -67q0 -66 35.5 -97.5t110.5 -31.5q86 0 132.5 46.5t64.5 144.5l73 410h83l-75 -422q-23 -125 -91 -190.5t-195 -65.5zM425 719q-57 0 -93 33t-36 94l1 17h69l-1 -12q0 -69 63 -69
q30 0 53.5 22t31.5 59h73q-16 -71 -62 -107.5t-99 -36.5z" />
    <glyph glyph-name="ubreve" unicode="&#x16d;" horiz-adv-x="515" 
d="M149 -12q-50 0 -76 30.5t-26 85.5q0 20 5 52l59 325h83l-56 -318q-4 -21 -4 -42q0 -59 46 -59q59 0 118.5 89t90.5 259l13 71h83l-48 -264q-30 -168 -30 -217h-82q15 104 26 154h-2q-17 -32 -32.5 -55.5t-41 -51.5t-57.5 -43.5t-69 -15.5zM311 535q-57 0 -93 33t-36 94
l1 17h69l-1 -12q0 -69 63 -69q30 0 53.5 22t31.5 59h73q-16 -71 -62 -107.5t-99 -36.5z" />
    <glyph glyph-name="Uring" unicode="&#x16e;" horiz-adv-x="680" 
d="M308 -12q-112 0 -169.5 54t-57.5 147q0 30 6 63l73 414h88l-71 -405q-7 -35 -7 -67q0 -66 35.5 -97.5t110.5 -31.5q86 0 132.5 46.5t64.5 144.5l73 410h83l-75 -422q-23 -125 -91 -190.5t-195 -65.5zM423 728q-40 0 -68.5 27t-28.5 69t28.5 70t68.5 28q39 0 67.5 -27.5
t28.5 -69.5t-28.5 -69.5t-67.5 -27.5zM423 771q22 0 35 15.5t13 38.5q0 24 -13 39t-35 15q-23 0 -36 -15t-13 -39q0 -23 13 -38.5t36 -15.5z" />
    <glyph glyph-name="uring" unicode="&#x16f;" horiz-adv-x="515" 
d="M149 -12q-50 0 -76 30.5t-26 85.5q0 20 5 52l59 325h83l-56 -318q-4 -21 -4 -42q0 -59 46 -59q59 0 118.5 89t90.5 259l13 71h83l-48 -264q-30 -168 -30 -217h-82q15 104 26 154h-2q-17 -32 -32.5 -55.5t-41 -51.5t-57.5 -43.5t-69 -15.5zM310 544q-40 0 -68.5 27
t-28.5 69t28.5 70t68.5 28q39 0 67.5 -27.5t28.5 -69.5t-28.5 -69.5t-67.5 -27.5zM310 587q22 0 35 15.5t13 38.5q0 24 -13 39t-35 15q-23 0 -36 -15t-13 -39q0 -23 13 -38.5t36 -15.5z" />
    <glyph glyph-name="Uhungarumlaut" unicode="&#x170;" horiz-adv-x="680" 
d="M308 -12q-112 0 -169.5 54t-57.5 147q0 30 6 63l73 414h88l-71 -405q-7 -35 -7 -67q0 -66 35.5 -97.5t110.5 -31.5q86 0 132.5 46.5t64.5 144.5l73 410h83l-75 -422q-23 -125 -91 -190.5t-195 -65.5zM280 724l108 128h116l-151 -128h-73zM445 724l109 128h116l-152 -128
h-73z" />
    <glyph glyph-name="uhungarumlaut" unicode="&#x171;" horiz-adv-x="515" 
d="M149 -12q-50 0 -76 30.5t-26 85.5q0 20 5 52l59 325h83l-56 -318q-4 -21 -4 -42q0 -59 46 -59q59 0 118.5 89t90.5 259l13 71h83l-48 -264q-30 -168 -30 -217h-82q15 104 26 154h-2q-17 -32 -32.5 -55.5t-41 -51.5t-57.5 -43.5t-69 -15.5zM166 540l108 128h116l-151 -128
h-73zM331 540l109 128h116l-152 -128h-73z" />
    <glyph glyph-name="Uogonek" unicode="&#x172;" horiz-adv-x="680" 
d="M403 -221q-45 0 -69 21.5t-24 55.5q0 41 28.5 80.5t65.5 66.5q-44 -15 -96 -15q-112 0 -169.5 54t-57.5 147q0 30 6 63l73 414h88l-71 -405q-7 -35 -7 -67q0 -66 35.5 -97.5t110.5 -31.5q86 0 132.5 46.5t64.5 144.5l73 410h83l-75 -422q-4 -24 -10.5 -45.5t-12 -37
t-16.5 -34.5t-16 -28t-20 -27t-19 -23t-23 -25.5t-22 -23.5q-75 -75 -75 -130q0 -37 43 -37q25 0 43 7l8 -44q-32 -17 -71 -17z" />
    <glyph glyph-name="uogonek" unicode="&#x173;" horiz-adv-x="515" 
d="M329 -221q-45 0 -69 21.5t-24 55.5q0 71 89 144q15 104 26 154h-2q-17 -32 -32.5 -55.5t-41 -51.5t-57.5 -43.5t-69 -15.5q-50 0 -76 30.5t-26 85.5q0 20 5 52l59 325h83l-56 -318q-4 -21 -4 -42q0 -59 46 -59q59 0 118.5 89t90.5 259l13 71h83l-48 -264
q-30 -168 -30 -217h-3q-29 0 -63.5 -44.5t-34.5 -85.5q0 -37 43 -37q25 0 43 7l8 -44q-32 -17 -71 -17z" />
    <glyph glyph-name="Wcircumflex" unicode="&#x174;" horiz-adv-x="863" 
d="M156 0l-63 666h89l34 -399q7 -77 9 -139h2q12 35 57 138l175 400h89l45 -414q8 -72 11 -124h2q14 39 50 125l170 413h92l-292 -666h-83l-44 411q-2 18 -14 148h-2q-19 -51 -62 -148l-184 -411h-81zM362 725l148 154h60l92 -154h-69l-63 85l-90 -85h-78z" />
    <glyph glyph-name="wcircumflex" unicode="&#x175;" horiz-adv-x="689" 
d="M105 0l-53 481h85l24 -269q1 -15 5 -101h2l182 370h78l18 -264q5 -65 5 -99h2l184 363h87l-257 -481h-73l-26 373h-2l-189 -373h-72zM245 541l148 154h60l92 -154h-69l-63 85l-90 -85h-78z" />
    <glyph glyph-name="Ycircumflex" unicode="&#x176;" horiz-adv-x="554" 
d="M193 0l46 251l-149 415h92l115 -331h1l218 331h93l-281 -416l-45 -250h-90zM204 725l148 154h60l92 -154h-69l-63 85l-90 -85h-78z" />
    <glyph glyph-name="ycircumflex" unicode="&#x177;" horiz-adv-x="450" 
d="M-9 -221q-53 0 -84 17l33 68q20 -11 58 -11q41 0 74 28t77 104l-97 496h87l59 -337q8 -50 10 -68h2q16 49 25 68l154 337h88l-189 -386q-86 -180 -145.5 -248t-151.5 -68zM116 541l148 154h60l92 -154h-69l-63 85l-90 -85h-78z" />
    <glyph glyph-name="Ydieresis" unicode="&#x178;" horiz-adv-x="554" 
d="M193 0l46 251l-149 415h92l115 -331h1l218 331h93l-281 -416l-45 -250h-90zM265 726q-23 0 -38.5 16t-15.5 38t15.5 38t38.5 16q24 0 39.5 -15.5t15.5 -38.5t-15.5 -38.5t-39.5 -15.5zM453 726q-23 0 -38.5 16t-15.5 38t15.5 38t38.5 16q24 0 39.5 -15.5t15.5 -38.5
t-15.5 -38.5t-39.5 -15.5z" />
    <glyph glyph-name="Zacute" unicode="&#x179;" horiz-adv-x="521" 
d="M-15 0l12 62l432 530h-322l14 74h434l-11 -59l-437 -533h354l-13 -74h-463zM301 724l109 128h123l-154 -128h-78z" />
    <glyph glyph-name="zacute" unicode="&#x17a;" horiz-adv-x="419" 
d="M-9 0l9 51l298 363h-225l11 67h332l-9 -54l-299 -360h247l-11 -67h-353zM221 540l109 128h123l-154 -128h-78z" />
    <glyph glyph-name="Zdotaccent" unicode="&#x17b;" horiz-adv-x="521" 
d="M-15 0l12 62l432 530h-322l14 74h434l-11 -59l-437 -533h354l-13 -74h-463zM352 745q-24 0 -41 18t-17 42q0 26 16.5 43.5t41.5 17.5q26 0 43 -17t17 -43q0 -25 -17.5 -43t-42.5 -18z" />
    <glyph glyph-name="zdotaccent" unicode="&#x17c;" horiz-adv-x="419" 
d="M-9 0l9 51l298 363h-225l11 67h332l-9 -54l-299 -360h247l-11 -67h-353zM272 561q-24 0 -41 18t-17 42q0 26 16.5 43.5t41.5 17.5q26 0 43 -17t17 -43q0 -25 -17.5 -43t-42.5 -18z" />
    <glyph glyph-name="Zcaron" unicode="&#x17d;" horiz-adv-x="521" 
d="M-15 0l12 62l432 530h-322l14 74h434l-11 -59l-437 -533h354l-13 -74h-463zM310 723l-96 155h69l66 -85l95 85h78l-153 -155h-59z" />
    <glyph glyph-name="zcaron" unicode="&#x17e;" horiz-adv-x="419" 
d="M-9 0l9 51l298 363h-225l11 67h332l-9 -54l-299 -360h247l-11 -67h-353zM230 539l-96 155h69l66 -85l95 85h78l-153 -155h-59z" />
    <glyph glyph-name="longs" unicode="&#x17f;" horiz-adv-x="253" 
d="M-87 -230q-41 0 -85 18l26 68q34 -14 64 -14q73 0 94 116l110 598q31 176 188 176q66 0 118 -31l-36 -68q-40 25 -87 25t-69.5 -28t-31.5 -81l-108 -591q-18 -97 -59.5 -142.5t-123.5 -45.5z" />
    <glyph glyph-name="uni018F" unicode="&#x18f;" horiz-adv-x="706" 
d="M223 543l-38 63q35 32 93 52t117 20q137 0 210 -83t73 -207q0 -75 -24.5 -146.5t-68.5 -128t-110.5 -91t-144.5 -34.5q-125 0 -198.5 84t-73.5 204q0 26 8 76h517q2 24 2 37q0 92 -51 153t-145 61q-91 0 -166 -60zM335 63q87 0 148.5 60.5t86.5 155.5h-419
q-1 -93 49 -154.5t135 -61.5z" />
    <glyph glyph-name="florin" unicode="&#x192;" horiz-adv-x="438" 
d="M-6 -188q-55 0 -89 20l36 66q25 -14 56 -14q96 0 133 126l97 351h-102l18 66h102l34 125q49 180 223 180q63 0 107 -30l-42 -65q-31 24 -82 24q-53 0 -82.5 -32t-47.5 -95l-29 -107h112l-20 -66h-109l-100 -359q-24 -88 -77 -139t-138 -51z" />
    <glyph glyph-name="Aringacute" unicode="&#x1fa;" horiz-adv-x="618" 
d="M-23 0l359 641q-36 23 -36 62q0 34 29 57t68 23q40 0 68.5 -22.5t28.5 -57.5q0 -47 -52 -70l112 -633h-92l-25 157h-283l-86 -157h-91zM195 232h230l-34 211q-12 74 -17 123h-2q-20 -47 -62 -123zM365 804l103 119h118l-142 -119h-79zM397 666q22 0 35 10.5t13 26.5
q0 18 -12.5 28.5t-35.5 10.5t-35.5 -10.5t-12.5 -28.5q0 -16 13 -26.5t35 -10.5z" />
    <glyph glyph-name="aringacute" unicode="&#x1fb;" horiz-adv-x="489" 
d="M149 -12q-58 0 -89 40.5t-31 109.5q0 145 79 250.5t210 105.5q82 0 142 -21l-46 -256q-30 -168 -30 -217h-82q9 78 25 142h-2q-37 -72 -77 -113t-99 -41zM172 62q39 0 79 46.5t68.5 117.5t39.5 146l7 43q-25 9 -63 9q-85 0 -137 -81t-52 -192q0 -89 58 -89zM329 544
q-40 0 -68.5 27t-28.5 69t28.5 70t68.5 28q39 0 67.5 -27.5t28.5 -69.5t-28.5 -69.5t-67.5 -27.5zM329 587q22 0 35 15.5t13 38.5q0 24 -13 39t-35 15q-23 0 -36 -15t-13 -39q0 -23 13 -38.5t36 -15.5zM298 777l109 128h123l-154 -128h-78z" />
    <glyph glyph-name="AEacute" unicode="&#x1fc;" horiz-adv-x="817" 
d="M-63 0l503 666h387l-14 -76h-254l-37 -201h225l-14 -75h-224l-42 -238h261l-13 -76h-350l28 159h-242l-119 -159h-95zM207 234h199l63 350zM538 725l109 128h123l-154 -128h-78z" />
    <glyph glyph-name="aeacute" unicode="&#x1fd;" horiz-adv-x="702" 
d="M142 -12q-61 0 -98 34t-37 86q0 55 33 91t84 53q69 22 167 22h17q18 52 18 87q0 60 -77 60q-67 0 -134 -50l-39 57q85 66 184 66q101 0 134 -71q74 71 161 71q59 0 95 -29t36 -84q0 -58 -42.5 -96.5t-108.5 -55t-155 -18.5q-3 -20 -3 -41q2 -110 91 -110q68 0 125 57
l43 -56q-78 -73 -180 -73t-142 81q-74 -81 -172 -81zM158 58q83 0 138 68q-3 17 -3 36q0 26 3 52h-12q-85 0 -129 -18q-59 -24 -59 -82q0 -56 62 -56zM390 271q98 1 155 27t57 75t-60 49q-47 0 -89.5 -41t-62.5 -110zM351 540l109 128h123l-154 -128h-78z" />
    <glyph glyph-name="Oslashacute" unicode="&#x1fe;" horiz-adv-x="737" 
d="M79 -70l-47 40l94 111q-67 79 -67 195q0 100 44.5 191.5t130.5 151t193 59.5q98 0 170 -49l83 96l47 -40l-84 -98q67 -79 67 -199q0 -75 -26 -146.5t-72.5 -128t-117 -91t-153.5 -34.5q-99 0 -169 51zM346 62q122 0 196.5 98t74.5 229q0 75 -35 130l-358 -416
q50 -41 122 -41zM152 277q0 -75 35 -130l356 417q-50 40 -122 40q-122 0 -195.5 -97.5t-73.5 -229.5zM401 724l109 128h123l-154 -128h-78z" />
    <glyph glyph-name="oslashacute" unicode="&#x1ff;" horiz-adv-x="484" 
d="M27 -61l-43 36l75 90q-31 53 -31 123q0 119 73 212.5t179 93.5q66 0 111 -37l84 98l43 -36l-91 -107q29 -50 29 -116q0 -125 -73 -216.5t-180 -91.5q-64 0 -106 34zM110 190q0 -36 7 -60l225 266q-25 30 -68 30q-70 0 -117 -74.5t-47 -161.5zM209 55q70 0 116.5 73.5
t46.5 157.5q0 32 -6 57l-222 -262q24 -26 65 -26zM247 540l109 128h123l-154 -128h-78z" />
    <glyph glyph-name="Scommaaccent" unicode="&#x218;" horiz-adv-x="460" 
d="M195 -12q-119 0 -203 78l54 61q21 -19 34 -29t47 -22.5t73 -12.5q59 0 87.5 30t28.5 76q0 22 -5.5 39t-23.5 38t-29 31t-46 40q-42 37 -62.5 58t-40.5 58.5t-20 77.5q0 80 54.5 123.5t141.5 43.5q95 0 164 -53l-45 -66q-56 45 -124 45q-103 0 -103 -92q0 -25 14 -48.5
t30.5 -39t54.5 -48.5q34 -29 50 -44t38 -42t31.5 -55.5t9.5 -62.5q0 -76 -53 -130t-157 -54zM112 -221q41 44 41 67q0 11 -10.5 26.5t-10.5 28.5q0 21 16 36t38 15q20 0 33 -12.5t13 -34.5q0 -51 -72 -126h-48z" />
    <glyph glyph-name="scommaaccent" unicode="&#x219;" horiz-adv-x="359" 
d="M136 -12q-88 0 -146 50l42 59q54 -41 109 -41q36 0 56.5 17.5t20.5 45.5q0 7 -1.5 14t-3.5 12.5t-7 13.5t-8.5 12.5t-12 13.5t-12.5 13.5t-15.5 16.5t-16.5 17q-39 40 -56.5 69t-17.5 66q0 58 42.5 92.5t113.5 34.5q70 0 119 -36l-41 -60q-38 27 -85 27q-32 0 -50 -14
t-18 -40q0 -15 8.5 -31t18.5 -27.5t37 -39.5q31 -33 38.5 -41.5t24 -31.5t21 -40.5t4.5 -40.5q0 -57 -43 -94t-121 -37zM55 -221q41 44 41 67q0 11 -10.5 26.5t-10.5 28.5q0 21 16 36t38 15q20 0 33 -12.5t13 -34.5q0 -51 -72 -126h-48z" />
    <glyph glyph-name="uni021A" unicode="&#x21a;" horiz-adv-x="495" 
d="M161 0l106 590h-187l13 76h457l-12 -76h-182l-105 -590h-90zM121 -221q41 44 41 67q0 11 -10.5 26.5t-10.5 28.5q0 21 16 36t38 15q20 0 33 -12.5t13 -34.5q0 -51 -72 -126h-48z" />
    <glyph glyph-name="uni021B" unicode="&#x21b;" horiz-adv-x="340" 
d="M160 -12q-96 0 -96 92q0 18 5 48l53 288h-83l12 65h84l24 133l88 22l-28 -155h119l-12 -65h-120l-50 -273q-7 -35 -7 -50q0 -33 28 -33q7 0 14.5 1.5t14.5 4.5t12.5 5.5t13.5 8t11 8t11 9t10 7.5l38 -57q-67 -59 -142 -59zM78 -221q41 44 41 67q0 11 -10.5 26.5
t-10.5 28.5q0 21 16 36t38 15q20 0 33 -12.5t13 -34.5q0 -51 -72 -126h-48z" />
    <glyph glyph-name="uni0237" unicode="&#x237;" horiz-adv-x="238" 
d="M-77 -230q-38 0 -74 14l30 69q15 -10 48 -10q45 0 67.5 31t33.5 94l93 513h83l-93 -521q-15 -91 -57 -140.5t-131 -49.5z" />
    <glyph glyph-name="uni0259" unicode="&#x259;" horiz-adv-x="433" 
d="M247 494q80 0 122 -50t42 -127q0 -136 -77.5 -232.5t-185.5 -96.5q-59 0 -95 29t-36 84q0 43 25.5 77t70.5 56t97 35.5t116 21.5q6 131 -90 131q-69 0 -125 -58l-44 57q81 73 180 73zM162 60q52 0 95.5 48.5t60.5 122.5q-96 -12 -156 -43t-60 -79q0 -49 60 -49z" />
    <glyph glyph-name="uni02BB" unicode="&#x2bb;" horiz-adv-x="199" 
d="M146 425q-27 0 -46 19t-19 52q0 51 36 102.5t81 87.5l33 -29q-55 -53 -55 -93q0 -16 14 -38.5t14 -42.5q0 -25 -17 -41.5t-41 -16.5z" />
    <glyph glyph-name="afii57929" unicode="&#x2bc;" horiz-adv-x="199" 
d="M109 417l-33 29q55 53 55 93q0 16 -14 38.5t-14 42.5q0 25 17 41.5t41 16.5q27 0 46 -19t19 -52q0 -51 -36 -102.5t-81 -87.5z" />
    <glyph glyph-name="circumflex" unicode="&#x2c6;" horiz-adv-x="500" 
d="M151 541l148 154h60l92 -154h-69l-63 85l-90 -85h-78z" />
    <glyph glyph-name="caron" unicode="&#x2c7;" horiz-adv-x="500" 
d="M271 539l-96 155h69l66 -85l95 85h78l-153 -155h-59z" />
    <glyph glyph-name="breve" unicode="&#x2d8;" horiz-adv-x="500" 
d="M310 535q-57 0 -93 33t-36 94l1 17h69l-1 -12q0 -69 63 -69q30 0 53.5 22t31.5 59h73q-16 -71 -62 -107.5t-99 -36.5z" />
    <glyph glyph-name="dotaccent" unicode="&#x2d9;" horiz-adv-x="500" 
d="M315 561q-24 0 -41 18t-17 42q0 26 16.5 43.5t41.5 17.5t42.5 -17t17.5 -43q0 -25 -17.5 -43t-42.5 -18z" />
    <glyph glyph-name="ring" unicode="&#x2da;" horiz-adv-x="499" 
d="M320 544q-40 0 -68.5 27t-28.5 69t28.5 70t68.5 28q39 0 67.5 -27.5t28.5 -69.5t-28.5 -69.5t-67.5 -27.5zM320 587q22 0 35 15.5t13 38.5q0 24 -13 39t-35 15q-23 0 -36 -15t-13 -39q0 -23 13 -38.5t36 -15.5z" />
    <glyph glyph-name="ogonek" unicode="&#x2db;" horiz-adv-x="500" 
d="M188 -221q-46 0 -69.5 21t-23.5 56q0 71 89 144h55q-74 -74 -74 -130q0 -37 42 -37q24 0 44 7l7 -44q-32 -17 -70 -17z" />
    <glyph glyph-name="tilde" unicode="&#x2dc;" horiz-adv-x="500" 
d="M356 544q-26 0 -55.5 19t-47.5 19q-22 0 -54 -29l-33 38q44 61 99 61q26 0 56 -19t47 -19q32 0 56 29l35 -37q-51 -62 -103 -62z" />
    <glyph glyph-name="hungarumlaut" unicode="&#x2dd;" horiz-adv-x="500" 
d="M74 540l108 128h116l-151 -128h-73zM239 540l109 128h116l-152 -128h-73z" />
    <glyph glyph-name="gravecomb" unicode="&#x300;" 
d="M-237 540l-108 128h111l68 -128h-71z" />
    <glyph glyph-name="acutecomb" unicode="&#x301;" 
d="M-236 540l109 128h123l-154 -128h-78z" />
    <glyph glyph-name="uni0302" unicode="&#x302;" 
d="M-346 541l148 154h60l92 -154h-69l-63 85l-90 -85h-78z" />
    <glyph glyph-name="tildecomb" unicode="&#x303;" 
d="M-145 544q-26 0 -55.5 19t-47.5 19q-22 0 -54 -29l-33 38q44 61 99 61q26 0 56 -19t47 -19q32 0 56 29l35 -37q-51 -62 -103 -62z" />
    <glyph glyph-name="uni0304" unicode="&#x304;" 
d="M-328 593l12 67h273l-13 -67h-272z" />
    <glyph glyph-name="uni0306" unicode="&#x306;" 
d="M-189 539q-57 0 -93 33t-36 94l1 17h69l-1 -12q0 -69 63 -69q30 0 53.5 22t31.5 59h73q-16 -71 -62 -107.5t-99 -36.5z" />
    <glyph glyph-name="uni0307" unicode="&#x307;" 
d="M-52 569q-24 0 -41 17t-17 40q0 24 17 41t41 17t41 -17t17 -41q0 -23 -17 -40t-41 -17z" />
    <glyph glyph-name="uni0308" unicode="&#x308;" 
d="M-282 542q-22 0 -38 16t-16 38t16 38t38 16q24 0 39.5 -15.5t15.5 -38.5t-15.5 -38.5t-39.5 -15.5zM-94 542q-22 0 -38 16t-16 38t16 38t38 16q24 0 39.5 -15.5t15.5 -38.5t-15.5 -38.5t-39.5 -15.5z" />
    <glyph glyph-name="uni030A" unicode="&#x30a;" 
d="M-178 544q-40 0 -68.5 27t-28.5 69t28.5 70t68.5 28q39 0 67.5 -27.5t28.5 -69.5t-28.5 -69.5t-67.5 -27.5zM-178 587q22 0 35 15.5t13 38.5q0 24 -13 39t-35 15q-23 0 -36 -15t-13 -39q0 -23 13 -38.5t36 -15.5z" />
    <glyph glyph-name="uni030B" unicode="&#x30b;" 
d="M-425 540l108 128h116l-151 -128h-73zM-260 540l109 128h116l-152 -128h-73z" />
    <glyph glyph-name="uni030C" unicode="&#x30c;" 
d="M-188 539l-96 155h69l66 -85l95 85h78l-153 -155h-59z" />
    <glyph glyph-name="uni0312" unicode="&#x312;" 
d="M-111 839l35 -32q-18 -18 -27 -28t-18.5 -28t-9.5 -35q0 -18 15 -42t15 -44q0 -26 -17.5 -43.5t-43.5 -17.5q-28 0 -47.5 19.5t-19.5 52.5q0 56 36 109.5t82 88.5z" />
    <glyph glyph-name="uni0313" unicode="&#x313;" 
d="M-220 550l71 170h100l-108 -170h-63z" />
    <glyph glyph-name="uni0326" unicode="&#x326;" 
d="M-337 -221q41 44 41 67q0 11 -10.5 26.5t-10.5 28.5q0 21 16 36t38 15q20 0 33 -12.5t13 -34.5q0 -51 -72 -126h-48z" />
    <glyph glyph-name="uni0327" unicode="&#x327;" 
d="M-331 -221q-41 0 -70 12l17 44q18 -9 49 -9q50 0 50 38q0 44 -71 40l36 97h56l-25 -65q32 -5 51.5 -24.5t19.5 -49.5q0 -38 -32 -60.5t-81 -22.5z" />
    <glyph glyph-name="uni0328" unicode="&#x328;" 
d="M-311 -221q-46 0 -69.5 21t-23.5 56q0 71 89 144h55q-74 -74 -74 -130q0 -37 42 -37q24 0 44 7l7 -44q-32 -17 -70 -17z" />
    <glyph glyph-name="uni037E" unicode="&#x37e;" horiz-adv-x="226" 
d="M31 -149l-35 32q18 18 27 28t18.5 28t9.5 35q0 18 -15 42t-15 44q0 26 17.5 43.5t43.5 17.5q28 0 47.5 -19.5t19.5 -52.5q0 -56 -36 -109.5t-82 -88.5zM148 358q-28 0 -47 19t-19 46q0 26 19 44.5t47 18.5q26 0 45.5 -19t19.5 -44q0 -27 -19.5 -46t-45.5 -19z" />
    <glyph glyph-name="tonos" unicode="&#x384;" horiz-adv-x="500" 
d="M152 540l52 128h107l-91 -128h-68z" />
    <glyph glyph-name="dieresistonos" unicode="&#x385;" horiz-adv-x="500" 
d="M98 539q-23 0 -40 16.5t-17 40.5q0 23 17 40t40 17q24 0 41 -16.5t17 -40.5t-16.5 -40.5t-41.5 -16.5zM401 539q-24 0 -40.5 16.5t-16.5 40.5q0 23 16.5 40t40.5 17t41 -17t17 -40q0 -24 -17 -40.5t-41 -16.5zM192 540l30 132h105l-68 -132h-67z" />
    <glyph glyph-name="Alphatonos" unicode="&#x386;" horiz-adv-x="623" 
d="M199 232h231l-34 211q-12 74 -17 123h-2q-20 -47 -62 -123zM-18 0l373 666h86l118 -666h-92l-25 157h-283l-86 -157h-91zM123 539l52 128h107l-91 -128h-68z" />
    <glyph glyph-name="anoteleia" unicode="&#x387;" horiz-adv-x="243" 
d="M123 229q-26 0 -44.5 18t-18.5 44t18.5 44t44.5 18t44.5 -18.5t18.5 -43.5t-18.5 -43.5t-44.5 -18.5z" />
    <glyph glyph-name="Epsilontonos" unicode="&#x388;" horiz-adv-x="615" 
d="M162 0l119 666h343l-14 -76h-254l-37 -201h225l-14 -75h-223l-43 -238h262l-14 -76h-350zM73 539l52 128h107l-91 -128h-68z" />
    <glyph glyph-name="Etatonos" unicode="&#x389;" horiz-adv-x="829" 
d="M162 0l118 666h89l-49 -278h354l50 278h89l-119 -666h-89l56 312h-354l-56 -312h-89zM73 539l52 128h107l-91 -128h-68z" />
    <glyph glyph-name="Iotatonos" unicode="&#x38a;" horiz-adv-x="391" 
d="M162 0l119 666h89l-119 -666h-89zM73 539l52 128h107l-91 -128h-68z" />
    <glyph glyph-name="Omicrontonos" unicode="&#x38c;" horiz-adv-x="820" 
d="M424 -12q-130 0 -206.5 84t-76.5 204q0 101 44.5 192t131 150.5t193.5 59.5q136 0 209 -83t73 -207q0 -101 -43.5 -191.5t-129.5 -149.5t-195 -59zM429 63q82 0 145 48t94 121t31 157q0 92 -50.5 153t-144.5 61q-122 0 -196 -97t-74 -229q0 -92 52.5 -153t142.5 -61z
M67 539l52 128h107l-91 -128h-68z" />
    <glyph glyph-name="Upsilontonos" unicode="&#x38e;" horiz-adv-x="737" 
d="M376 0l46 251l-149 415h92l115 -331h1l218 331h93l-281 -416l-45 -250h-90zM73 539l52 128h107l-91 -128h-68z" />
    <glyph glyph-name="Omegatonos" unicode="&#x38f;" horiz-adv-x="806" 
d="M99 0l14 74h133q-97 85 -97 213q0 167 107.5 279t253.5 112q117 0 197.5 -76t80.5 -196q0 -105 -50.5 -191.5t-136.5 -140.5h142l-14 -74h-247l12 72q88 46 145.5 130.5t57.5 193.5q0 86 -54 146.5t-140 60.5q-115 0 -188.5 -93.5t-73.5 -221.5q0 -136 101 -216l-13 -72
h-230zM67 539l52 128h107l-91 -128h-68z" />
    <glyph glyph-name="iotadieresistonos" unicode="&#x390;" horiz-adv-x="285" 
d="M146 -12q-96 0 -96 87q0 10 4 38l67 368h84l-66 -360q-3 -18 -3 -31q0 -30 27 -30q19 0 36 13l25 -58q-33 -27 -78 -27zM45 539q-23 0 -40 16.5t-17 40.5q0 23 17 40t40 17q25 0 41.5 -16.5t16.5 -40.5t-16.5 -40.5t-41.5 -16.5zM348 539q-24 0 -40.5 16.5t-16.5 40.5
q0 23 16.5 40t40.5 17t41 -17t17 -40q0 -24 -17 -40.5t-41 -16.5zM139 540l30 132h105l-68 -132h-67z" />
    <glyph glyph-name="Alpha" unicode="&#x391;" horiz-adv-x="617" 
d="M194 232h231l-34 211q-12 74 -17 123h-2q-20 -47 -62 -123zM-23 0l373 666h86l118 -666h-92l-25 157h-283l-86 -157h-91z" />
    <glyph glyph-name="Beta" unicode="&#x392;" horiz-adv-x="566" 
d="M47 0l119 666h176q89 0 140.5 -37.5t51.5 -108.5q0 -138 -144 -174v-2q53 -10 86 -44.5t33 -87.5q0 -105 -75 -158.5t-203 -53.5h-184zM148 73h90q95 0 137.5 34t42.5 102q0 48 -33.5 75.5t-99.5 27.5h-95zM202 381h92q74 0 111.5 33t37.5 92q0 44 -27.5 65.5t-88.5 21.5
h-87z" />
    <glyph glyph-name="Gamma" unicode="&#x393;" horiz-adv-x="459" 
d="M47 0l119 666h348l-13 -76h-260l-105 -590h-89z" />
    <glyph glyph-name="uni0394" unicode="&#x394;" horiz-adv-x="614" 
d="M103 76h346l-77 371q-8 46 -18 118h-2q-30 -72 -54 -118zM-7 0l10 56l326 610h84l130 -610l-10 -56h-540z" />
    <glyph glyph-name="Epsilon" unicode="&#x395;" horiz-adv-x="500" 
d="M47 0l119 666h343l-14 -76h-254l-37 -201h225l-14 -75h-223l-43 -238h262l-14 -76h-350z" />
    <glyph glyph-name="Zeta" unicode="&#x396;" horiz-adv-x="521" 
d="M-15 0l12 62l432 530h-322l14 74h434l-11 -59l-437 -533h354l-13 -74h-463z" />
    <glyph glyph-name="Eta" unicode="&#x397;" horiz-adv-x="714" 
d="M47 0l118 666h89l-49 -278h354l50 278h89l-119 -666h-89l56 312h-354l-56 -312h-89z" />
    <glyph glyph-name="Theta" unicode="&#x398;" horiz-adv-x="737" 
d="M341 -12q-130 0 -206.5 84t-76.5 204q0 101 44.5 192t131 150.5t193.5 59.5q136 0 209 -83t73 -207q0 -101 -43.5 -191.5t-129.5 -149.5t-195 -59zM346 63q82 0 145 48t94 121t31 157q0 92 -50.5 153t-144.5 61q-122 0 -196 -97t-74 -229q0 -92 52.5 -153t142.5 -61z
M230 295l13 75h289l-14 -75h-288z" />
    <glyph glyph-name="Iota" unicode="&#x399;" horiz-adv-x="282" 
d="M53 0l119 666h89l-119 -666h-89z" />
    <glyph glyph-name="Kappa" unicode="&#x39a;" horiz-adv-x="567" 
d="M419 0l-220 348l311 318h103l-315 -319l221 -347h-100zM47 0l119 666h87l-118 -666h-88z" />
    <glyph glyph-name="Lambda" unicode="&#x39b;" horiz-adv-x="604" 
d="M-27 0l350 666h84l136 -666h-91l-85 447q-13 67 -18 118h-2q-44 -96 -55 -118l-228 -447h-91z" />
    <glyph glyph-name="Mu" unicode="&#x39c;" horiz-adv-x="842" 
d="M17 0l207 666h82l73 -471q4 -23 7.5 -58t4.5 -42h2q39 84 48 100l245 471h83l-33 -666h-86l23 420q4 63 9 97h-2q-27 -58 -43 -88l-223 -429h-83l-66 424q-10 59 -13 93h-2q-6 -31 -26 -97l-125 -420h-82z" />
    <glyph glyph-name="Nu" unicode="&#x39d;" horiz-adv-x="694" 
d="M44 0l119 666h87l215 -443q29 -61 41 -100h2q8 68 15 106l77 437h81l-118 -666h-81l-223 457q-20 42 -37 92h-2q-8 -60 -14 -97l-81 -452h-81z" />
    <glyph glyph-name="Xi" unicode="&#x39e;" horiz-adv-x="502" 
d="M-16 0l14 77h444l-15 -77h-443zM83 313l14 77h358l-14 -77h-358zM96 589l14 77h430l-14 -77h-430z" />
    <glyph glyph-name="Omicron" unicode="&#x39f;" horiz-adv-x="737" 
d="M341 -12q-130 0 -206.5 84t-76.5 204q0 101 44.5 192t131 150.5t193.5 59.5q136 0 209 -83t73 -207q0 -101 -43.5 -191.5t-129.5 -149.5t-195 -59zM346 63q82 0 145 48t94 121t31 157q0 92 -50.5 153t-144.5 61q-122 0 -196 -97t-74 -229q0 -92 52.5 -153t142.5 -61z" />
    <glyph glyph-name="Pi" unicode="&#x3a0;" horiz-adv-x="681" 
d="M47 0l120 666h498l-120 -666h-89l107 590h-320l-107 -590h-89z" />
    <glyph glyph-name="Rho" unicode="&#x3a1;" horiz-adv-x="536" 
d="M47 0l119 666h167q96 0 152.5 -44t56.5 -124q0 -111 -77.5 -173t-203.5 -62h-78l-47 -263h-89zM196 337h74q88 0 133.5 40t45.5 110q0 105 -131 105h-77z" />
    <glyph glyph-name="Sigma" unicode="&#x3a3;" horiz-adv-x="491" 
d="M2 0l11 62l236 287l-129 255l11 62h383l-14 -76h-286l127 -247l-220 -267h309l-14 -76h-414z" />
    <glyph glyph-name="Tau" unicode="&#x3a4;" horiz-adv-x="495" 
d="M161 0l106 590h-187l13 76h457l-12 -76h-182l-105 -590h-90z" />
    <glyph glyph-name="Upsilon" unicode="&#x3a5;" horiz-adv-x="554" 
d="M193 0l46 251l-149 415h92l115 -331h1l218 331h93l-281 -416l-45 -250h-90z" />
    <glyph glyph-name="Phi" unicode="&#x3a6;" horiz-adv-x="713" 
d="M267 0l13 71q-105 5 -172.5 71t-67.5 157q0 122 98.5 211.5t236.5 93.5l11 62h89l-11 -63q105 -5 172.5 -71t67.5 -157q0 -122 -98.5 -212t-235.5 -94l-14 -69h-89zM296 141l70 394q-100 -4 -168.5 -71t-68.5 -163q0 -68 46.5 -112t120.5 -48zM378 139q100 4 168.5 71
t68.5 163q0 68 -46.5 112t-120.5 48z" />
    <glyph glyph-name="Chi" unicode="&#x3a7;" horiz-adv-x="564" 
d="M-18 0l269 347l-139 319h93l106 -256l186 256h97l-248 -323l150 -343h-93l-118 280l-205 -280h-98z" />
    <glyph glyph-name="Psi" unicode="&#x3a8;" horiz-adv-x="711" 
d="M263 0l37 206q-98 11 -155 71t-57 154q0 29 6 61l31 174h90l-30 -165q-6 -35 -6 -64q0 -74 37.5 -112t102.5 -43l70 384h79l-70 -384q77 1 132 43t71 128l37 213h88l-37 -206q-42 -238 -300 -254l-37 -206h-89z" />
    <glyph glyph-name="uni03A9" unicode="&#x3a9;" horiz-adv-x="740" 
d="M14 0l14 74h133q-97 85 -97 213q0 167 107.5 279t253.5 112q117 0 197.5 -76t80.5 -196q0 -105 -50.5 -191.5t-136.5 -140.5h142l-14 -74h-247l12 72q88 46 145.5 130.5t57.5 193.5q0 86 -54 146.5t-140 60.5q-115 0 -188.5 -93.5t-73.5 -221.5q0 -136 101 -216l-13 -72
h-230z" />
    <glyph glyph-name="Iotadieresis" unicode="&#x3aa;" horiz-adv-x="282" 
d="M53 0l119 666h89l-119 -666h-89zM136 726q-22 0 -38 16t-16 38t16 38t38 16q24 0 39.5 -15.5t15.5 -38.5t-15.5 -38.5t-39.5 -15.5zM324 726q-22 0 -38 16t-16 38t16 38t38 16q24 0 39.5 -15.5t15.5 -38.5t-15.5 -38.5t-39.5 -15.5z" />
    <glyph glyph-name="Upsilondieresis" unicode="&#x3ab;" horiz-adv-x="554" 
d="M193 0l46 251l-149 415h92l115 -331h1l218 331h93l-281 -416l-45 -250h-90zM265 726q-23 0 -38.5 16t-15.5 38t15.5 38t38.5 16q24 0 39.5 -15.5t15.5 -38.5t-15.5 -38.5t-39.5 -15.5zM453 726q-23 0 -38.5 16t-15.5 38t15.5 38t38.5 16q24 0 39.5 -15.5t15.5 -38.5
t-15.5 -38.5t-39.5 -15.5z" />
    <glyph glyph-name="alphatonos" unicode="&#x3ac;" horiz-adv-x="557" 
d="M191 -12q-81 0 -120.5 57t-39.5 139q0 74 25.5 142.5t83.5 118t137 49.5q61 0 99 -37t47 -88h1q10 32 27 66t27 46h87q-32 -38 -70 -126l-52 -117l14 -127q8 -69 28 -111h-84q-17 33 -20 113h-1q-67 -125 -189 -125zM208 56q54 0 98.5 53t71.5 133q-1 71 -26.5 127.5
t-80.5 56.5q-73 0 -115 -73t-42 -165q0 -57 23 -94.5t71 -37.5zM265 540l52 128h107l-91 -128h-68z" />
    <glyph glyph-name="epsilontonos" unicode="&#x3ad;" horiz-adv-x="425" 
d="M196 -12q-81 0 -130 33t-49 92q0 54 39.5 94.5t96.5 48.5v1q-33 8 -55 33t-22 57q0 72 59 110t144 38q38 0 77.5 -13.5t62.5 -33.5l-34 -64q-47 40 -112 40q-114 0 -114 -74q0 -31 29.5 -50.5t75.5 -19.5h39l-11 -64h-39q-65 0 -108.5 -23.5t-43.5 -68.5q0 -65 102 -65
q80 0 144 48l33 -61q-78 -58 -184 -58zM236 540l52 128h107l-91 -128h-68z" />
    <glyph glyph-name="etatonos" unicode="&#x3ae;" horiz-adv-x="529" 
d="M285 -218l98 543q3 18 3 32q0 62 -66 62q-64 0 -139 -83l-61 -336h-83l68 375q11 69 7 106h83q4 -30 -3 -70q68 82 155 82q63 0 94 -33t31 -88q0 -18 -3 -38l-101 -552h-83zM269 540l52 128h107l-91 -128h-68z" />
    <glyph glyph-name="iotatonos" unicode="&#x3af;" horiz-adv-x="285" 
d="M146 -12q-96 0 -96 87q0 10 4 38l67 368h84l-66 -360q-3 -18 -3 -31q0 -30 27 -30q19 0 36 13l25 -58q-33 -27 -78 -27zM139 540l52 128h107l-91 -128h-68z" />
    <glyph glyph-name="upsilondieresistonos" unicode="&#x3b0;" horiz-adv-x="516" 
d="M213 -12q-79 0 -118.5 44t-39.5 117q0 33 5 58l50 274h83l-47 -263q-7 -37 -7 -61q0 -98 81 -98q68 0 120.5 103.5t52.5 237.5q0 48 -6 81h83q6 -30 6 -77q0 -180 -75.5 -298t-187.5 -118zM163 539q-23 0 -40 16.5t-17 40.5q0 23 17 40t40 17q25 0 41.5 -16.5t16.5 -40.5
t-16.5 -40.5t-41.5 -16.5zM466 539q-24 0 -40.5 16.5t-16.5 40.5q0 23 16.5 40t40.5 17t41 -17t17 -40q0 -24 -17 -40.5t-41 -16.5zM257 540l30 132h105l-68 -132h-67z" />
    <glyph glyph-name="alpha" unicode="&#x3b1;" horiz-adv-x="557" 
d="M191 -12q-81 0 -120.5 57t-39.5 139q0 74 25.5 142.5t83.5 118t137 49.5q61 0 99 -37t47 -88h1q10 32 27 66t27 46h87q-32 -38 -70 -126l-52 -117l14 -127q8 -69 28 -111h-84q-17 33 -20 113h-1q-67 -125 -189 -125zM208 56q54 0 98.5 53t71.5 133q-1 71 -26.5 127.5
t-80.5 56.5q-73 0 -115 -73t-42 -165q0 -57 23 -94.5t71 -37.5z" />
    <glyph glyph-name="beta" unicode="&#x3b2;" horiz-adv-x="524" 
d="M-6 -218l132 728q21 114 86 168t157 54q62 0 103 -37.5t41 -94.5q0 -64 -45.5 -120.5t-106.5 -75.5v-1q51 -14 86.5 -57t35.5 -100q0 -116 -72 -185.5t-180 -69.5q-76 0 -112 28l-43 -237h-82zM235 60q75 0 119.5 50.5t44.5 125.5q0 58 -45 93t-118 35l11 62
q66 1 124.5 49t58.5 112q0 32 -18.5 54.5t-52.5 22.5q-122 0 -152 -165l-75 -408q36 -31 103 -31z" />
    <glyph glyph-name="gamma" unicode="&#x3b3;" horiz-adv-x="454" 
d="M89 -218q41 110 41 239q0 174 -89 460h91q58 -216 67 -364h1q127 191 184 364h87q-60 -183 -264 -476q-2 -118 -42 -223h-76z" />
    <glyph glyph-name="delta" unicode="&#x3b4;" horiz-adv-x="499" 
d="M214 -12q-92 0 -139 55t-47 134q0 99 55 178t146 116q-37 49 -37 105q0 68 47 112t116 44q70 0 115 -32l-40 -61q-33 24 -77 24q-34 0 -56 -25t-22 -58q0 -9 1 -17t4.5 -17t5 -14t8.5 -14.5t9 -12.5t11.5 -13.5t12 -12.5t15 -14.5l14.5 -14.5q30 -29 49 -52.5t37.5 -66.5
t18.5 -89q0 -107 -69 -180.5t-178 -73.5zM293 403q-3 3 -9.5 8.5t-9.5 8.5q-79 -31 -121 -93t-42 -146q0 -56 28.5 -90.5t81.5 -34.5q71 0 112.5 52t41.5 130q0 52 -20.5 88.5t-61.5 76.5z" />
    <glyph glyph-name="epsilon" unicode="&#x3b5;" horiz-adv-x="425" 
d="M196 -12q-81 0 -130 33t-49 92q0 54 39.5 94.5t96.5 48.5v1q-33 8 -55 33t-22 57q0 72 59 110t144 38q38 0 77.5 -13.5t62.5 -33.5l-34 -64q-47 40 -112 40q-114 0 -114 -74q0 -31 29.5 -50.5t75.5 -19.5h39l-11 -64h-39q-65 0 -108.5 -23.5t-43.5 -68.5q0 -65 102 -65
q80 0 144 48l33 -61q-78 -58 -184 -58z" />
    <glyph glyph-name="zeta" unicode="&#x3b6;" horiz-adv-x="357" 
d="M230 -165l-48 44q42 28 42 66q0 30 -36 49l-41 19q-116 55 -116 156q0 73 49.5 151.5t128.5 168.5l139 164h-213l12 67h321l-9 -54l-197 -226q-42 -47 -67 -78.5t-52.5 -83.5t-27.5 -91q0 -70 75 -106l41 -19q37 -17 58 -38.5t21 -54.5q0 -41 -23.5 -77.5t-56.5 -56.5z
" />
    <glyph glyph-name="eta" unicode="&#x3b7;" horiz-adv-x="529" 
d="M285 -218l98 543q3 18 3 32q0 62 -66 62q-64 0 -139 -83l-61 -336h-83l68 375q11 69 7 106h83q4 -30 -3 -70q68 82 155 82q63 0 94 -33t31 -88q0 -18 -3 -38l-101 -552h-83z" />
    <glyph glyph-name="theta" unicode="&#x3b8;" horiz-adv-x="513" 
d="M203 -12q-79 0 -118 46.5t-39 123.5q0 25 5 58l13 73q7 46 1 68h83q7 -22 -1 -68l-13 -71q-5 -32 -5 -56q0 -106 81 -106q48 0 87 46.5t61.5 111.5t34.5 144q-147 7 -216.5 52.5t-69.5 133.5q0 84 51.5 136t138.5 52q95 0 144.5 -66.5t49.5 -164.5q0 -77 -15 -160
t-46 -165t-90 -135t-137 -53zM188 552q0 -62 47.5 -92t165.5 -35q4 33 4 72q0 75 -29.5 122t-86.5 47q-50 0 -75.5 -31t-25.5 -83z" />
    <glyph glyph-name="iota" unicode="&#x3b9;" horiz-adv-x="285" 
d="M146 -12q-96 0 -96 87q0 10 4 38l67 368h84l-66 -360q-3 -18 -3 -31q0 -30 27 -30q19 0 36 13l25 -58q-33 -27 -78 -27z" />
    <glyph glyph-name="kappa" unicode="&#x3ba;" horiz-adv-x="504" 
d="M29 0l88 481h80l-34 -191q-11 -65 -32 -129h1q88 151 281 320h113q-127 -101 -218 -194l136 -287h-92l-100 226q-106 -116 -152 -226h-71z" />
    <glyph glyph-name="lambda" unicode="&#x3bb;" horiz-adv-x="487" 
d="M-25 0l275 485l-16 86q-9 45 -19.5 63t-30.5 18q-24 0 -43 -13l-19 59q42 26 86 26q40 0 65 -26.5t37 -94.5l108 -603h-83l-51 315q-8 49 -8 88h-1q-13 -38 -29 -67l-181 -336h-90z" />
    <glyph glyph-name="uni03BC" unicode="&#x3bc;" horiz-adv-x="562" 
d="M-16 -208l128 689h83l-57 -318q-18 -101 42 -101q59 0 119 89t90 259l13 71h84l-48 -264q-7 -38 -12.5 -73t-8.5 -59.5t-5.5 -43t-3.5 -29.5t-1 -12h-81q10 82 26 154h-2q-17 -31 -32.5 -54.5t-40 -51.5t-56 -43.5t-66.5 -15.5t-52 21q-1 -20 -12 -85l-23 -133h-84z" />
    <glyph glyph-name="nu" unicode="&#x3bd;" horiz-adv-x="457" 
d="M138 0l-89 481h87l58 -371h2q135 192 191 371h86q-58 -184 -274 -481h-61z" />
    <glyph glyph-name="xi" unicode="&#x3be;" horiz-adv-x="375" 
d="M230 -165l-49 44q42 28 42 66q0 30 -36 49l-41 19q-116 55 -116 158q0 81 52 149.5t125 82.5v1q-35 12 -59.5 50.5t-24.5 77.5q0 87 57 140.5t153 53.5q72 0 117 -32l-40 -65q-33 24 -85 24q-57 0 -87.5 -31.5t-30.5 -85.5q0 -43 31.5 -77t82.5 -34h45l-13 -67h-49
q-80 0 -135 -51.5t-55 -120.5t75 -105l41 -19q37 -17 58 -38.5t21 -54.5q0 -41 -23.5 -77.5t-55.5 -56.5z" />
    <glyph glyph-name="omicron" unicode="&#x3bf;" horiz-adv-x="484" 
d="M203 -12q-87 0 -131 59.5t-44 140.5q0 119 73 212.5t179 93.5q85 0 130.5 -57t45.5 -141q0 -125 -73 -216.5t-180 -91.5zM209 56q70 0 116 73t46 157q0 140 -97 140q-70 0 -116.5 -74.5t-46.5 -161.5q0 -62 25 -98t73 -36z" />
    <glyph glyph-name="pi" unicode="&#x3c0;" horiz-adv-x="597" 
d="M422 -12q-96 0 -96 87q0 10 4 38l55 303h-150q-42 -238 -96 -416h-83q60 192 99 416h-103l11 65h534l-12 -65h-117l-53 -295q-3 -18 -3 -31q0 -30 27 -30q19 0 36 13l25 -58q-33 -27 -78 -27z" />
    <glyph glyph-name="rho" unicode="&#x3c1;" horiz-adv-x="502" 
d="M-20 -218l85 473q21 115 77 176.5t159 61.5q79 0 125.5 -51t46.5 -138q0 -135 -75 -225.5t-189 -90.5q-68 0 -102 38l-44 -244h-83zM214 59q75 0 125 71t50 168q0 55 -25 90t-72 35q-114 0 -145 -173l-28 -156q37 -35 95 -35z" />
    <glyph glyph-name="sigma1" unicode="&#x3c2;" horiz-adv-x="405" 
d="M226 -165l-49 44q42 28 42 66q0 30 -36 49l-41 19q-116 55 -116 172q0 136 74 222t187 86q85 0 136 -40l-40 -65q-39 32 -103 32q-75 0 -122.5 -66t-47.5 -155q0 -82 75 -118l41 -19q37 -17 58 -38.5t21 -54.5q0 -41 -23.5 -77.5t-55.5 -56.5z" />
    <glyph glyph-name="sigma" unicode="&#x3c3;" horiz-adv-x="519" 
d="M203 -12q-87 0 -131 56.5t-44 137.5q0 121 70.5 210t180.5 89h246l-11 -65h-102q18 -20 31 -57.5t13 -79.5q0 -119 -73 -205t-180 -86zM209 56q70 0 116 67.5t46 150.5q0 42 -12.5 81.5t-30.5 60.5h-46q-78 0 -124.5 -70.5t-46.5 -161.5q0 -61 25 -94.5t73 -33.5z" />
    <glyph glyph-name="tau" unicode="&#x3c4;" horiz-adv-x="387" 
d="M198 -12q-96 0 -96 87q0 10 4 38l55 303h-126l11 65h371l-12 -65h-161l-53 -295q-7 -31 -2 -46t25 -15q19 0 36 13l26 -58q-33 -27 -78 -27z" />
    <glyph glyph-name="upsilon" unicode="&#x3c5;" horiz-adv-x="516" 
d="M213 -12q-79 0 -118.5 44t-39.5 117q0 33 5 58l50 274h83l-47 -263q-7 -37 -7 -61q0 -98 81 -98q68 0 120.5 103.5t52.5 237.5q0 48 -6 81h83q6 -30 6 -77q0 -180 -75.5 -298t-187.5 -118z" />
    <glyph glyph-name="phi" unicode="&#x3c6;" horiz-adv-x="625" 
d="M176 -218l37 205q-88 12 -136.5 68.5t-48.5 139.5q0 95 48 177t120 115l35 -55q-51 -29 -85 -95t-34 -135q0 -60 32 -98.5t83 -46.5l44 239q36 198 189 198q60 0 98 -47t38 -124q0 -130 -86.5 -227t-216.5 -109l-37 -205h-80zM304 57q89 11 148.5 84.5t59.5 172.5
q0 50 -18.5 80t-49.5 30q-73 0 -96 -123z" />
    <glyph glyph-name="chi" unicode="&#x3c7;" horiz-adv-x="432" 
d="M-88 -218l241 365l-101 334h86l67 -253h1l161 253h89l-224 -335l110 -364h-86l-78 281h-1l-176 -281h-89z" />
    <glyph glyph-name="psi" unicode="&#x3c8;" horiz-adv-x="642" 
d="M193 -218l38 207q-82 5 -129 57t-47 134q0 23 5 55l45 246h83l-44 -243q-15 -75 9.5 -125.5t89.5 -53.5l106 581h76l-105 -581q80 5 139.5 107t59.5 234q0 48 -6 81h83q6 -30 6 -77q0 -179 -84.5 -296t-211.5 -120l-37 -206h-76z" />
    <glyph glyph-name="omega" unicode="&#x3c9;" horiz-adv-x="742" 
d="M169 -12q-64 0 -99 45t-35 120q0 93 35 180.5t92 147.5h95q-138 -155 -138 -320q0 -48 17.5 -74t49.5 -26q101 0 156 262h82q-13 -81 -13 -131q0 -131 74 -131q38 0 67.5 37t44 91t14.5 112q0 98 -45 180h88q41 -68 41 -167q0 -85 -22.5 -157t-73.5 -120.5t-122 -48.5
q-60 0 -91 39t-36 99h-1q-25 -59 -72 -98.5t-108 -39.5z" />
    <glyph glyph-name="iotadieresis" unicode="&#x3ca;" horiz-adv-x="285" 
d="M146 -12q-96 0 -96 87q0 10 4 38l67 368h84l-66 -360q-3 -18 -3 -31q0 -30 27 -30q19 0 36 13l25 -58q-33 -27 -78 -27zM82 542q-22 0 -38 16t-16 38t16 38t38 16q24 0 39.5 -15.5t15.5 -38.5t-15.5 -38.5t-39.5 -15.5zM270 542q-22 0 -38 16t-16 38t16 38t38 16
q24 0 39.5 -15.5t15.5 -38.5t-15.5 -38.5t-39.5 -15.5z" />
    <glyph glyph-name="upsilondieresis" unicode="&#x3cb;" horiz-adv-x="516" 
d="M213 -12q-79 0 -118.5 44t-39.5 117q0 33 5 58l50 274h83l-47 -263q-7 -37 -7 -61q0 -98 81 -98q68 0 120.5 103.5t52.5 237.5q0 48 -6 81h83q6 -30 6 -77q0 -180 -75.5 -298t-187.5 -118zM201 542q-23 0 -38.5 16t-15.5 38t15.5 38t38.5 16q24 0 39.5 -15.5t15.5 -38.5
t-15.5 -38.5t-39.5 -15.5zM389 542q-23 0 -38.5 16t-15.5 38t15.5 38t38.5 16q24 0 39.5 -15.5t15.5 -38.5t-15.5 -38.5t-39.5 -15.5z" />
    <glyph glyph-name="omicrontonos" unicode="&#x3cc;" horiz-adv-x="484" 
d="M203 -12q-87 0 -131 59.5t-44 140.5q0 119 73 212.5t179 93.5q85 0 130.5 -57t45.5 -141q0 -125 -73 -216.5t-180 -91.5zM209 56q70 0 116 73t46 157q0 140 -97 140q-70 0 -116.5 -74.5t-46.5 -161.5q0 -62 25 -98t73 -36zM254 540l52 128h107l-91 -128h-68z" />
    <glyph glyph-name="upsilontonos" unicode="&#x3cd;" horiz-adv-x="516" 
d="M213 -12q-79 0 -118.5 44t-39.5 117q0 33 5 58l50 274h83l-47 -263q-7 -37 -7 -61q0 -98 81 -98q68 0 120.5 103.5t52.5 237.5q0 48 -6 81h83q6 -30 6 -77q0 -180 -75.5 -298t-187.5 -118zM257 540l52 128h107l-91 -128h-68z" />
    <glyph glyph-name="omegatonos" unicode="&#x3ce;" horiz-adv-x="742" 
d="M169 -12q-64 0 -99 45t-35 120q0 93 35 180.5t92 147.5h95q-138 -155 -138 -320q0 -48 17.5 -74t49.5 -26q101 0 156 262h82q-13 -81 -13 -131q0 -131 74 -131q38 0 67.5 37t44 91t14.5 112q0 98 -45 180h88q41 -68 41 -167q0 -85 -22.5 -157t-73.5 -120.5t-122 -48.5
q-60 0 -91 39t-36 99h-1q-25 -59 -72 -98.5t-108 -39.5zM384 540l52 128h107l-91 -128h-68z" />
    <glyph glyph-name="uni0400" unicode="&#x400;" horiz-adv-x="500" 
d="M47 0l119 666h343l-14 -76h-254l-37 -201h225l-14 -75h-223l-43 -238h262l-14 -76h-350zM295 724l-108 128h111l68 -128h-71z" />
    <glyph glyph-name="afii10023" unicode="&#x401;" horiz-adv-x="500" 
d="M47 0l119 666h343l-14 -76h-254l-37 -201h225l-14 -75h-223l-43 -238h262l-14 -76h-350zM247 726q-23 0 -38.5 16t-15.5 38t15.5 38t38.5 16q24 0 39.5 -15.5t15.5 -38.5t-15.5 -38.5t-39.5 -15.5zM435 726q-23 0 -38.5 16t-15.5 38t15.5 38t38.5 16q24 0 39.5 -15.5
t15.5 -38.5t-15.5 -38.5t-39.5 -15.5z" />
    <glyph glyph-name="afii10051" unicode="&#x402;" horiz-adv-x="697" 
d="M332 -193q-34 0 -58 11l26 75q14 -6 40 -6q86 0 153.5 112.5t67.5 264.5q0 57 -25.5 94t-73.5 37q-53 0 -104 -32.5t-81 -67.5l-51 -295h-90l106 590h-162l14 76h463l-13 -76h-213l-40 -219q84 100 188 100q78 0 126 -54t48 -143q0 -125 -44.5 -233.5t-118.5 -171
t-158 -62.5z" />
    <glyph glyph-name="afii10052" unicode="&#x403;" horiz-adv-x="459" 
d="M47 0l119 666h348l-13 -76h-260l-105 -590h-89zM299 719l109 128h123l-154 -128h-78z" />
    <glyph glyph-name="afii10053" unicode="&#x404;" horiz-adv-x="608" 
d="M476 303h-326q-1 -10 -1 -31q0 -94 46.5 -151t141.5 -57q87 0 165 60l38 -64q-33 -30 -91 -51t-119 -21q-134 0 -204 78.5t-70 201.5q0 170 110.5 290t273.5 120q120 0 186 -47l-50 -67q-54 39 -142 39q-98 0 -170.5 -62.5t-100.5 -162.5h326z" />
    <glyph glyph-name="afii10054" unicode="&#x405;" horiz-adv-x="460" 
d="M195 -12q-119 0 -203 78l54 61q21 -19 34 -29t47 -22.5t73 -12.5q59 0 87.5 30t28.5 76q0 22 -5.5 39t-23.5 38t-29 31t-46 40q-42 37 -62.5 58t-40.5 58.5t-20 77.5q0 80 54.5 123.5t141.5 43.5q95 0 164 -53l-45 -66q-56 45 -124 45q-103 0 -103 -92q0 -25 14 -48.5
t30.5 -39t54.5 -48.5q34 -29 50 -44t38 -42t31.5 -55.5t9.5 -62.5q0 -76 -53 -130t-157 -54z" />
    <glyph glyph-name="afii10055" unicode="&#x406;" horiz-adv-x="282" 
d="M53 0l119 666h89l-119 -666h-89z" />
    <glyph glyph-name="afii10056" unicode="&#x407;" horiz-adv-x="282" 
d="M53 0l119 666h89l-119 -666h-89zM136 726q-22 0 -38 16t-16 38t16 38t38 16q24 0 39.5 -15.5t15.5 -38.5t-15.5 -38.5t-39.5 -15.5zM324 726q-22 0 -38 16t-16 38t16 38t38 16q24 0 39.5 -15.5t15.5 -38.5t-15.5 -38.5t-39.5 -15.5z" />
    <glyph glyph-name="afii10057" unicode="&#x408;" horiz-adv-x="279" 
d="M-45 -193q-39 0 -66 12l30 76q16 -8 38 -8q78 0 97 115l119 664h88l-121 -678q-31 -181 -185 -181z" />
    <glyph glyph-name="afii10058" unicode="&#x409;" horiz-adv-x="909" 
d="M-7 -10v74q57 2 95 65t72 194l90 343h381l-47 -263h78q96 0 152.5 -44t56.5 -124q0 -111 -77.5 -173t-203.5 -62h-167l105 590h-209l-75 -284q-43 -164 -99.5 -240t-151.5 -76zM525 74h74q89 0 134 40t45 111q0 104 -131 104h-76z" />
    <glyph glyph-name="afii10059" unicode="&#x40a;" horiz-adv-x="976" 
d="M47 0l118 666h89l-47 -266h354l48 266h89l-47 -266h78q96 0 152.5 -43.5t56.5 -123.5q0 -110 -77.5 -171.5t-203.5 -61.5h-167l58 325h-354l-58 -325h-89zM592 74h74q89 0 134 39.5t45 109.5q0 103 -131 103h-77z" />
    <glyph glyph-name="afii10060" unicode="&#x40b;" horiz-adv-x="723" 
d="M136 0l106 590h-162l14 76h470l-14 -76h-219l-38 -214q33 37 85.5 66t112.5 29q77 0 122.5 -40.5t45.5 -111.5q0 -23 -4 -44l-50 -275h-89l48 260q3 20 3 36q0 49 -27 74t-73 25q-54 0 -106 -32.5t-83 -67.5l-53 -295h-89z" />
    <glyph glyph-name="afii10061" unicode="&#x40c;" horiz-adv-x="573" 
d="M47 0l120 666h87l-52 -291h46l269 291h103l-306 -322q37 -33 86 -128q21 -41 31.5 -59.5t26 -41.5t28 -31.5t27.5 -8.5h12l-13 -75h-27q-46 0 -76.5 34t-76.5 126q-39 77 -63.5 109.5t-55.5 32.5h-25l-54 -302h-87zM320 719l109 128h123l-154 -128h-78z" />
    <glyph glyph-name="uni040D" unicode="&#x40d;" horiz-adv-x="705" 
d="M47 0l120 666h82l-81 -448q-7 -45 -18 -93h2q22 32 79 101l375 440h84l-120 -666h-83l82 448q9 55 17 93h-2q-16 -25 -79 -101l-375 -440h-83zM412 725l-108 128h111l68 -128h-71z" />
    <glyph glyph-name="afii10062" unicode="&#x40e;" horiz-adv-x="540" 
d="M67 -2q-32 0 -47 6l24 69q12 -3 32 -3q40 0 70.5 24.5t63.5 79.5l20 34l-118 458h83l95 -364l220 364h91l-322 -527q-47 -77 -95.5 -109t-116.5 -32zM357 714q-57 0 -93 33t-36 94l1 17h69l-1 -12q0 -69 63 -69q30 0 53.5 22t31.5 59h73q-16 -71 -62 -107.5t-99 -36.5z
" />
    <glyph glyph-name="afii10145" unicode="&#x40f;" horiz-adv-x="670" 
d="M235 -144l19 144h-207l120 666h89l-107 -590h309l107 590h89l-120 -666h-204l-33 -144h-62z" />
    <glyph glyph-name="afii10017" unicode="&#x410;" horiz-adv-x="617" 
d="M194 232h231l-34 211q-12 74 -17 123h-2q-20 -47 -62 -123zM-23 0l373 666h86l118 -666h-92l-25 157h-283l-86 -157h-91z" />
    <glyph glyph-name="afii10018" unicode="&#x411;" horiz-adv-x="547" 
d="M47 0l119 666h360l-14 -76h-271l-33 -190h79q96 0 152.5 -43.5t56.5 -123.5q0 -109 -78.5 -171t-203.5 -62h-167zM150 74h73q89 0 134.5 39.5t45.5 109.5q0 103 -132 103h-77z" />
    <glyph glyph-name="afii10019" unicode="&#x412;" horiz-adv-x="566" 
d="M47 0l119 666h176q89 0 140.5 -37.5t51.5 -108.5q0 -138 -144 -174v-2q53 -10 86 -44.5t33 -87.5q0 -105 -75 -158.5t-203 -53.5h-184zM148 73h90q95 0 137.5 34t42.5 102q0 48 -33.5 75.5t-99.5 27.5h-95zM202 381h92q74 0 111.5 33t37.5 92q0 44 -27.5 65.5t-88.5 21.5
h-87z" />
    <glyph glyph-name="afii10020" unicode="&#x413;" horiz-adv-x="459" 
d="M47 0l119 666h348l-13 -76h-260l-105 -590h-89z" />
    <glyph glyph-name="afii10021" unicode="&#x414;" horiz-adv-x="671" 
d="M-44 -144l29 220h52q46 32 74 85.5t57 161.5l95 343h375l-107 -590h69l-60 -220h-62l18 144h-437l-41 -144h-62zM139 76h303l93 514h-204l-76 -284q-50 -186 -116 -230z" />
    <glyph glyph-name="afii10022" unicode="&#x415;" horiz-adv-x="500" 
d="M47 0l119 666h343l-14 -76h-254l-37 -201h225l-14 -75h-223l-43 -238h262l-14 -76h-350z" />
    <glyph glyph-name="afii10024" unicode="&#x416;" horiz-adv-x="856" 
d="M-28 0l13 74h8q33 0 64 31.5t87 109.5q85 120 138 145l-185 306h94l168 -291h39l53 291h87l-52 -291h45l268 291h105l-306 -322q37 -31 85 -128q52 -98 73 -120q20 -21 41 -21h12l-13 -75h-27q-46 0 -76.5 34t-76.5 126q-39 76 -64 109t-55 33h-25l-54 -302h-87l54 302
h-32q-33 0 -64.5 -32t-87.5 -110q-66 -92 -107 -126t-92 -34h-30z" />
    <glyph glyph-name="afii10025" unicode="&#x417;" horiz-adv-x="516" 
d="M178 -12q-119 0 -186 63l51 63q51 -51 142 -51q79 0 127.5 37.5t48.5 105.5q0 49 -36.5 77t-105.5 28h-67l12 71h57q75 0 122 32t47 94q0 40 -29.5 66.5t-77.5 26.5q-92 0 -155 -45l-27 61q81 61 190 61q82 0 137 -43.5t55 -112.5q0 -67 -38.5 -111t-104.5 -59v-2
q51 -9 82 -47t31 -93q0 -107 -77 -164.5t-198 -57.5z" />
    <glyph glyph-name="afii10026" unicode="&#x418;" horiz-adv-x="705" 
d="M47 0l120 666h82l-81 -448q-7 -45 -18 -93h2q22 32 79 101l375 440h84l-120 -666h-83l82 448q9 55 17 93h-2q-16 -25 -79 -101l-375 -440h-83z" />
    <glyph glyph-name="afii10027" unicode="&#x419;" horiz-adv-x="705" 
d="M47 0l120 666h82l-81 -448q-7 -45 -18 -93h2q22 32 79 101l375 440h84l-120 -666h-83l82 448q9 55 17 93h-2q-16 -25 -79 -101l-375 -440h-83zM435 714q-57 0 -93 33t-36 94l1 17h69l-1 -12q0 -69 63 -69q30 0 53.5 22t31.5 59h73q-16 -71 -62 -107.5t-99 -36.5z" />
    <glyph glyph-name="afii10028" unicode="&#x41a;" horiz-adv-x="573" 
d="M47 0l120 666h87l-52 -291h46l269 291h103l-306 -322q37 -33 86 -128q21 -41 31.5 -59.5t26 -41.5t28 -31.5t27.5 -8.5h12l-13 -75h-27q-46 0 -76.5 34t-76.5 126q-39 77 -63.5 109.5t-55.5 32.5h-25l-54 -302h-87z" />
    <glyph glyph-name="afii10029" unicode="&#x41b;" horiz-adv-x="647" 
d="M-7 -10v74q57 2 95 65t72 194l90 343h382l-120 -666h-90l107 590h-209l-75 -284q-43 -163 -99.5 -239.5t-152.5 -76.5z" />
    <glyph glyph-name="afii10030" unicode="&#x41c;" horiz-adv-x="842" 
d="M17 0l207 666h82l73 -471q4 -23 7.5 -58t4.5 -42h2q39 84 48 100l245 471h83l-33 -666h-86l23 420q4 63 9 97h-2q-27 -58 -43 -88l-223 -429h-83l-66 424q-10 59 -13 93h-2q-6 -31 -26 -97l-125 -420h-82z" />
    <glyph glyph-name="afii10031" unicode="&#x41d;" horiz-adv-x="714" 
d="M47 0l118 666h89l-49 -278h354l50 278h89l-119 -666h-89l56 312h-354l-56 -312h-89z" />
    <glyph glyph-name="afii10032" unicode="&#x41e;" horiz-adv-x="737" 
d="M341 -12q-130 0 -206.5 84t-76.5 204q0 101 44.5 192t131 150.5t193.5 59.5q136 0 209 -83t73 -207q0 -101 -43.5 -191.5t-129.5 -149.5t-195 -59zM346 63q82 0 145 48t94 121t31 157q0 92 -50.5 153t-144.5 61q-122 0 -196 -97t-74 -229q0 -92 52.5 -153t142.5 -61z" />
    <glyph glyph-name="afii10033" unicode="&#x41f;" horiz-adv-x="681" 
d="M47 0l120 666h498l-120 -666h-89l107 590h-320l-107 -590h-89z" />
    <glyph glyph-name="afii10034" unicode="&#x420;" horiz-adv-x="536" 
d="M47 0l119 666h167q96 0 152.5 -44t56.5 -124q0 -111 -77.5 -173t-203.5 -62h-78l-47 -263h-89zM196 337h74q88 0 133.5 40t45.5 110q0 105 -131 105h-77z" />
    <glyph glyph-name="afii10035" unicode="&#x421;" horiz-adv-x="608" 
d="M330 -12q-134 0 -204 78.5t-70 201.5q0 170 110.5 290t273.5 120q120 0 186 -47l-50 -67q-54 39 -142 39q-123 0 -203.5 -96t-80.5 -235q0 -94 46.5 -151t140.5 -57q87 0 165 60l38 -64q-33 -30 -91 -51t-119 -21z" />
    <glyph glyph-name="afii10036" unicode="&#x422;" horiz-adv-x="495" 
d="M161 0l106 590h-187l13 76h457l-12 -76h-182l-105 -590h-90z" />
    <glyph glyph-name="afii10037" unicode="&#x423;" horiz-adv-x="540" 
d="M67 -2q-32 0 -47 6l24 69q12 -3 32 -3q40 0 70.5 24.5t63.5 79.5l20 34l-118 458h83l95 -364l220 364h91l-322 -527q-47 -77 -95.5 -109t-116.5 -32z" />
    <glyph glyph-name="afii10038" unicode="&#x424;" horiz-adv-x="713" 
d="M267 0l13 71q-105 5 -172.5 71t-67.5 157q0 122 98.5 211.5t236.5 93.5l11 62h89l-11 -63q105 -5 172.5 -71t67.5 -157q0 -122 -98.5 -212t-235.5 -94l-14 -69h-89zM296 141l70 394q-100 -4 -168.5 -71t-68.5 -163q0 -68 46.5 -112t120.5 -48zM378 139q100 4 168.5 71
t68.5 163q0 68 -46.5 112t-120.5 48z" />
    <glyph glyph-name="afii10039" unicode="&#x425;" horiz-adv-x="564" 
d="M-18 0l269 347l-139 319h93l106 -256l186 256h97l-248 -323l150 -343h-93l-118 280l-205 -280h-98z" />
    <glyph glyph-name="afii10040" unicode="&#x426;" horiz-adv-x="687" 
d="M495 -144l18 144h-466l120 666h89l-107 -590h309l107 590h89l-106 -590h69l-61 -220h-61z" />
    <glyph glyph-name="afii10041" unicode="&#x427;" horiz-adv-x="617" 
d="M392 0l51 280q-33 -37 -85.5 -66t-113.5 -29q-77 0 -122 40.5t-45 112.5q0 24 4 44l51 284h89l-49 -269q-12 -67 15 -101.5t81 -34.5q55 0 107 32.5t82 67.5l56 305h88l-120 -666h-89z" />
    <glyph glyph-name="afii10042" unicode="&#x428;" horiz-adv-x="1034" 
d="M47 0l120 666h89l-107 -590h292l107 590h89l-107 -590h292l107 590h89l-120 -666h-851z" />
    <glyph glyph-name="afii10043" unicode="&#x429;" horiz-adv-x="1050" 
d="M859 -144l18 144h-830l120 666h89l-107 -590h292l107 590h89l-107 -590h292l107 590h89l-106 -590h69l-61 -220h-61z" />
    <glyph glyph-name="afii10044" unicode="&#x42a;" horiz-adv-x="626" 
d="M140 0l105 590h-165l13 76h255l-47 -263h78q96 0 152.5 -44t56.5 -124q0 -111 -77.5 -173t-203.5 -62h-167zM243 74h73q89 0 134.5 40.5t45.5 110.5q0 104 -132 104h-76z" />
    <glyph glyph-name="afii10045" unicode="&#x42b;" horiz-adv-x="797" 
d="M47 0l119 666h89l-47 -263h78q96 0 152.5 -44t56.5 -124q0 -111 -77.5 -173t-203.5 -62h-167zM149 74h74q89 0 134 40t45 111q0 104 -131 104h-76zM572 0l119 666h89l-119 -666h-89z" />
    <glyph glyph-name="afii10046" unicode="&#x42c;" horiz-adv-x="533" 
d="M47 0l119 666h89l-47 -263h78q96 0 152.5 -44t56.5 -124q0 -111 -77.5 -173t-203.5 -62h-167zM149 74h74q89 0 134 40t45 111q0 104 -131 104h-76z" />
    <glyph glyph-name="afii10047" unicode="&#x42d;" horiz-adv-x="608" 
d="M149 286l13 75h314q2 22 2 33q0 94 -46.5 151t-140.5 57q-92 0 -161 -52l-31 67q32 25 86 43t113 18q133 0 203 -78.5t70 -201.5q0 -173 -106.5 -291.5t-269.5 -118.5q-122 0 -194 56l51 66q61 -47 149 -47q96 0 166 61.5t97 161.5h-315z" />
    <glyph glyph-name="afii10048" unicode="&#x42e;" horiz-adv-x="1041" 
d="M47 0l118 666h89l-49 -278h172q34 124 128.5 207t224.5 83q136 0 209.5 -83t73.5 -207q0 -75 -26 -146.5t-72.5 -128t-117 -91t-152.5 -34.5q-131 0 -207 84t-76 204q0 24 1 36h-171l-56 -312h-89zM650 63q82 0 145 48t94 121t31 157q0 92 -51 153t-145 61
q-122 0 -195.5 -97t-73.5 -229q0 -92 52.5 -153t142.5 -61z" />
    <glyph glyph-name="afii10049" unicode="&#x42f;" horiz-adv-x="581" 
d="M-7 0l13 74h7q32 0 63 30.5t82 102.5q66 89 98 106v1q-58 4 -99 42.5t-41 97.5q0 96 73 154t185 58h192l-120 -666h-90l54 301h-38q-32 0 -63 -32t-87 -109q-67 -93 -107.5 -126.5t-91.5 -33.5h-30zM327 372h96l40 220h-90q-81 0 -123.5 -35.5t-42.5 -101.5
q0 -83 120 -83z" />
    <glyph glyph-name="afii10065" unicode="&#x430;" horiz-adv-x="489" 
d="M149 -12q-58 0 -89 40.5t-31 109.5q0 145 79 250.5t210 105.5q82 0 142 -21l-46 -256q-30 -168 -30 -217h-82q9 78 25 142h-2q-37 -72 -77 -113t-99 -41zM172 62q39 0 79 46.5t68.5 117.5t39.5 146l7 43q-25 9 -63 9q-85 0 -137 -81t-52 -192q0 -89 58 -89z" />
    <glyph glyph-name="afii10066" unicode="&#x431;" horiz-adv-x="490" 
d="M218 -12q-92 0 -132 59t-40 153q0 83 16.5 158.5t51.5 145.5t99 120t150 69l147 33l1 -79l-125 -24q-164 -33 -221 -188q57 57 133 57q83 0 123.5 -56.5t40.5 -140.5q0 -126 -69 -216.5t-175 -90.5zM224 56q68 0 110.5 71.5t42.5 157.5q0 65 -22.5 102.5t-68.5 37.5
t-78 -19t-62 -56q-16 -76 -16 -152q0 -67 23.5 -104.5t70.5 -37.5z" />
    <glyph glyph-name="afii10067" unicode="&#x432;" horiz-adv-x="480" 
d="M207 -14q-111 0 -179 37l49 279q15 91 69 141t146 50q67 0 111.5 -30t44.5 -83q0 -48 -29 -80t-76 -45v-2q38 -7 62.5 -34.5t24.5 -66.5q0 -75 -64.5 -120.5t-158.5 -45.5zM214 52q64 0 98 28t34 73q0 29 -18.5 48.5t-52.5 19.5q-5 0 -21 -2l-113 -21l-23 -125
q32 -21 96 -21zM152 258l112 21q100 21 100 88q0 28 -21.5 45t-58.5 17q-97 0 -123 -124z" />
    <glyph glyph-name="afii10068" unicode="&#x433;" horiz-adv-x="380" 
d="M168 -12q-70 0 -112.5 32t-42.5 87q0 62 36.5 96t112.5 68q38 16 54 23.5t36 20.5t27 26.5t7 32.5q0 23 -18.5 37t-47.5 14q-58 0 -115 -36l-26 61q67 43 149 43q62 0 100 -33t38 -83q0 -61 -38.5 -95.5t-115.5 -67.5q-37 -16 -52.5 -24t-34.5 -21t-25.5 -26.5
t-6.5 -32.5q0 -25 22.5 -40t60.5 -15q61 0 127 41l23 -63q-72 -45 -158 -45z" />
    <glyph glyph-name="afii10069" unicode="&#x434;" horiz-adv-x="476" 
d="M197 -12q-75 0 -121.5 53t-46.5 144q0 131 70 216t168 85q58 0 98 -38q-26 215 -256 215l25 69q154 0 236.5 -94t81.5 -256q0 -74 -15 -142t-44.5 -125.5t-80 -92t-115.5 -34.5zM206 56q75 0 118.5 94t44.5 222q-38 47 -104 47q-65 0 -108.5 -64.5t-43.5 -166.5
q0 -132 93 -132z" />
    <glyph glyph-name="afii10070" unicode="&#x435;" horiz-adv-x="433" 
d="M190 -12q-80 0 -122 50t-42 127q0 136 77.5 232.5t185.5 96.5q59 0 95 -29t36 -84q0 -43 -25.5 -77t-70.5 -56t-97 -35.5t-116 -21.5v-15q0 -116 90 -116q68 0 125 57l44 -56q-81 -73 -180 -73zM275 422q-52 0 -95.5 -48t-60.5 -122q96 11 156 42t60 79q0 49 -60 49z" />
    <glyph glyph-name="afii10072" unicode="&#x436;" horiz-adv-x="873" 
d="M351 0l39 217h-100q-18 -105 -76.5 -167t-143.5 -62q-56 0 -88 24l40 65q21 -16 55 -16q64 0 101 63.5t37 171.5q0 54 -17.5 89.5t-48.5 35.5q-37 0 -68 -28l-38 56q52 45 120 45q61 0 98 -50.5t37 -137.5v-20h105l36 195h81l-36 -195h102q22 96 79.5 152t138.5 56
q53 0 88 -25l-40 -64q-24 15 -56 15q-64 0 -100.5 -63.5t-36.5 -171.5q0 -54 17 -89.5t48 -35.5q36 0 69 28l37 -55q-49 -45 -119 -45q-61 0 -98.5 50.5t-37.5 137.5q0 27 1 41h-104l-39 -217h-82z" />
    <glyph glyph-name="afii10073" unicode="&#x437;" horiz-adv-x="397" 
d="M135 -12q-89 0 -144 40l43 61q43 -33 108 -33q58 0 90.5 22t32.5 66q0 35 -35.5 55.5t-86.5 20.5h-27l11 57h26q53 0 91.5 24.5t38.5 66.5q0 27 -21 42.5t-60 15.5q-64 0 -121 -34l-23 57q70 44 152 44q68 0 112.5 -28.5t44.5 -81.5q0 -51 -32 -87t-81 -46v-1
q37 -5 66 -33t29 -67q0 -80 -60 -120.5t-154 -40.5z" />
    <glyph glyph-name="afii10074" unicode="&#x438;" horiz-adv-x="515" 
d="M149 -12q-50 0 -76 30.5t-26 85.5q0 20 5 52l59 325h83l-56 -318q-4 -21 -4 -42q0 -59 46 -59q59 0 118.5 89t90.5 259l13 71h83l-48 -264q-30 -168 -30 -217h-82q15 104 26 154h-2q-17 -32 -32.5 -55.5t-41 -51.5t-57.5 -43.5t-69 -15.5z" />
    <glyph glyph-name="afii10075" unicode="&#x439;" horiz-adv-x="515" 
d="M149 -12q-50 0 -76 30.5t-26 85.5q0 20 5 52l59 325h83l-56 -318q-4 -21 -4 -42q0 -59 46 -59q59 0 118.5 89t90.5 259l13 71h83l-48 -264q-30 -168 -30 -217h-82q15 104 26 154h-2q-17 -32 -32.5 -55.5t-41 -51.5t-57.5 -43.5t-69 -15.5zM311 535q-57 0 -93 33t-36 94
l1 17h69l-1 -12q0 -69 63 -69q30 0 53.5 22t31.5 59h73q-16 -71 -62 -107.5t-99 -36.5z" />
    <glyph glyph-name="afii10076" unicode="&#x43a;" horiz-adv-x="484" 
d="M35 0l86 481h84l-36 -202h33l194 202h101l-228 -230q32 -29 62 -87q25 -50 43.5 -73t38.5 -23h10l-13 -68h-25q-40 0 -64 25.5t-58 93.5q-28 53 -45.5 75.5t-39.5 22.5h-21l-38 -217h-84z" />
    <glyph glyph-name="afii10077" unicode="&#x43b;" horiz-adv-x="521" 
d="M-15 -8l-1 65q39 2 67 45t52 133l65 246h318l-87 -481h-83l74 414h-159l-49 -196q-30 -114 -78 -170t-119 -56z" />
    <glyph glyph-name="afii10078" unicode="&#x43c;" horiz-adv-x="653" 
d="M1 0l157 481h79l49 -320q1 -6 8 -79h2q22 48 38 79l173 320h80l-24 -481h-82l16 275q5 55 9 78h-2q-10 -30 -33 -72l-153 -281h-79l-42 278q-8 46 -10 75h-1q-7 -36 -20 -78l-88 -275h-77z" />
    <glyph glyph-name="afii10079" unicode="&#x43d;" horiz-adv-x="547" 
d="M35 0l86 481h85l-35 -195h221l35 195h85l-86 -481h-85l39 217h-221l-39 -217h-85z" />
    <glyph glyph-name="afii10080" unicode="&#x43e;" horiz-adv-x="484" 
d="M203 -12q-87 0 -131 59.5t-44 140.5q0 119 73 212.5t179 93.5q85 0 130.5 -57t45.5 -141q0 -125 -73 -216.5t-180 -91.5zM209 56q70 0 116 73t46 157q0 140 -97 140q-70 0 -116.5 -74.5t-46.5 -161.5q0 -62 25 -98t73 -36z" />
    <glyph glyph-name="afii10081" unicode="&#x43f;" horiz-adv-x="515" 
d="M29 0l87 481h80q-14 -84 -30 -147h2q16 29 31.5 51.5t40 50t57 43t68.5 15.5q50 0 76 -31t26 -86q0 -20 -5 -52l-59 -325h-83l56 319q4 20 4 41q0 59 -46 59q-61 0 -120.5 -92.5t-92.5 -274.5l-9 -52h-83z" />
    <glyph glyph-name="afii10082" unicode="&#x440;" horiz-adv-x="495" 
d="M-15 -218l128 699h80q-11 -65 -31 -139h2q38 70 80.5 111t102.5 41q58 0 88 -43.5t30 -113.5q0 -144 -78.5 -246.5t-205.5 -102.5q-38 0 -74 8l-39 -214h-83zM186 55q87 0 140 80t53 193q0 91 -55 91q-63 0 -118.5 -96t-76.5 -214l-8 -46q32 -8 65 -8z" />
    <glyph glyph-name="afii10083" unicode="&#x441;" horiz-adv-x="409" 
d="M192 -12q-77 0 -121.5 50t-44.5 138q0 135 80.5 226.5t187.5 91.5q71 0 117 -33l-40 -65q-33 24 -85 24q-68 0 -122 -66t-54 -169q0 -125 90 -125q61 0 114 53l45 -55q-73 -70 -167 -70z" />
    <glyph glyph-name="afii10084" unicode="&#x442;" horiz-adv-x="792" 
d="M29 0l87 481h80q-8 -62 -29 -144h2q77 157 189 157q52 0 75 -31.5t23 -80.5q0 -20 -3 -39h2q39 69 83 110t108 41q49 0 74 -31t25 -86q0 -22 -5 -54l-58 -323h-83l55 307q5 30 5 51q0 61 -44 61q-63 0 -120 -94t-89 -273l-9 -52h-83l55 307q5 25 5 47q0 65 -47 65
q-60 0 -116.5 -93.5t-89.5 -273.5l-9 -52h-83z" />
    <glyph glyph-name="afii10085" unicode="&#x443;" horiz-adv-x="450" 
d="M-9 -221q-53 0 -84 17l33 68q20 -11 58 -11q41 0 74 28t77 104l-97 496h87l59 -337q8 -50 10 -68h2q16 49 25 68l154 337h88l-189 -386q-86 -180 -145.5 -248t-151.5 -68z" />
    <glyph glyph-name="afii10086" unicode="&#x444;" horiz-adv-x="701" 
d="M230 -218l41 220q9 46 23 99h-2q-60 -113 -149 -113q-51 0 -82.5 45t-31.5 111q0 141 79 245.5t194 104.5q23 0 55 -8l43 234h74l-44 -240q-9 -51 -23 -99h2q60 113 149 113q51 0 82.5 -45t31.5 -112q0 -140 -79 -244.5t-194 -104.5q-20 0 -56 8l-39 -214h-74zM173 62
q43 0 82.5 51.5t57.5 142.5l32 163q-36 8 -48 8q-76 0 -129 -82t-53 -191q0 -92 58 -92zM404 55q76 0 129 82t53 191q0 91 -58 91q-44 0 -83 -51t-57 -143l-32 -162q36 -8 48 -8z" />
    <glyph glyph-name="afii10087" unicode="&#x445;" horiz-adv-x="437" 
d="M-37 0l207 249l-112 232h91l76 -167l132 167h92l-192 -233l118 -248h-92l-82 182l-147 -182h-91z" />
    <glyph glyph-name="afii10088" unicode="&#x446;" horiz-adv-x="532" 
d="M382 -144l14 144h-29q-41 0 -35 47q8 57 19 107h-2q-17 -32 -32.5 -55.5t-41 -51.5t-57.5 -43.5t-69 -15.5q-50 0 -76 30.5t-26 85.5q0 20 5 52l59 325h83l-56 -318q-4 -21 -4 -42q0 -59 46 -59q59 0 118.5 89t90.5 259l13 71h83l-48 -264q-3 -18 -7 -41t-6.5 -39
t-4.5 -30q-3 -20 1.5 -29t23.5 -9h43l-45 -213h-60z" />
    <glyph glyph-name="afii10089" unicode="&#x447;" horiz-adv-x="495" 
d="M306 0q21 156 49 282h-2q-30 -56 -80.5 -93t-112.5 -37q-50 0 -76 30.5t-26 85.5q0 20 5 52l28 161h83l-25 -154q-4 -20 -4 -41q0 -59 46 -59q64 0 118.5 64.5t67.5 156.5l5 33h83l-48 -264q-30 -168 -30 -217h-81z" />
    <glyph glyph-name="afii10090" unicode="&#x448;" horiz-adv-x="805" 
d="M149 -12q-50 0 -76.5 31t-26.5 87q0 20 5 50l60 325h83l-56 -318q-5 -27 -5 -42q0 -59 47 -59q59 0 118.5 89t90.5 259l13 71h83l-56 -318q-5 -27 -5 -43q0 -58 46 -58q59 0 119 89t91 259l13 71h83l-48 -264q-30 -167 -30 -217h-82q15 104 26 154h-2q-17 -32 -33 -55.5
t-41 -51.5t-57.5 -43.5t-69.5 -15.5q-52 0 -75 31.5t-23 80.5q0 20 3 39h-2q-39 -68 -84.5 -109.5t-108.5 -41.5z" />
    <glyph glyph-name="afii10091" unicode="&#x449;" horiz-adv-x="823" 
d="M672 -144l15 144h-30q-40 0 -34 47q8 57 19 107h-2q-17 -32 -33 -55.5t-41 -51.5t-57.5 -43.5t-69.5 -15.5q-52 0 -75 31.5t-23 80.5q0 20 3 39h-2q-39 -68 -84.5 -109.5t-108.5 -41.5q-50 0 -76.5 31t-26.5 87q0 20 5 50l60 325h83l-56 -318q-5 -27 -5 -42q0 -59 47 -59
q59 0 118.5 89t90.5 259l13 71h83l-56 -318q-5 -27 -5 -43q0 -58 46 -58q59 0 119 89t91 259l13 71h83l-48 -264q-5 -30 -18 -110q-2 -12 -1.5 -20.5t7 -13t19.5 -4.5h43l-45 -213h-61z" />
    <glyph glyph-name="afii10092" unicode="&#x44a;" horiz-adv-x="499" 
d="M237 -14q-111 0 -175 33l72 395h-117l11 67h203l-22 -120q-12 -68 -32 -141h2q59 97 151 97q61 0 98 -35.5t37 -96.5q0 -83 -66 -141t-162 -58zM244 53q64 0 99.5 36.5t35.5 89.5q0 32 -19.5 50.5t-55.5 18.5q-47 0 -89.5 -47t-54.5 -111l-4 -22q32 -15 88 -15z" />
    <glyph glyph-name="afii10093" unicode="&#x44b;" horiz-adv-x="717" 
d="M209 -14q-110 0 -174 33l84 462h85l-23 -120q-14 -80 -31 -141h2q23 39 61.5 68t88.5 29q62 0 99 -35.5t37 -96.5q0 -83 -66.5 -141t-162.5 -58zM217 53q64 0 99 36.5t35 89.5q0 32 -19 50.5t-55 18.5q-47 0 -89.5 -46.5t-54.5 -111.5l-4 -22q31 -15 88 -15zM512 0
l87 481h83l-87 -481h-83z" />
    <glyph glyph-name="afii10094" unicode="&#x44c;" horiz-adv-x="477" 
d="M209 -14q-110 0 -174 33l84 462h85l-23 -120q-14 -80 -31 -141h2q23 39 61.5 68t88.5 29q62 0 99 -35.5t37 -96.5q0 -83 -66.5 -141t-162.5 -58zM217 53q64 0 99 36.5t35 89.5q0 32 -19 50.5t-55 18.5q-47 0 -89.5 -46.5t-54.5 -111.5l-4 -22q31 -15 88 -15z" />
    <glyph glyph-name="afii10095" unicode="&#x44d;" horiz-adv-x="409" 
d="M87 204l12 65h199q1 6 1 20q0 63 -26 97.5t-69 34.5q-68 0 -113 -45l-40 55q68 63 162 63q72 0 120.5 -54.5t48.5 -141.5q0 -134 -75 -222t-184 -88q-74 0 -118 33l40 65q34 -25 86 -25t95.5 38t61.5 105h-201z" />
    <glyph glyph-name="afii10096" unicode="&#x44e;" horiz-adv-x="755" 
d="M120 0h-85l86 481h85l-35 -195h142q27 89 91.5 148.5t146.5 59.5q85 0 130.5 -57t45.5 -141q0 -125 -73 -216.5t-180 -91.5q-87 0 -131 59.5t-44 140.5q0 19 1 29h-141zM480 56q70 0 116 73t46 157q0 140 -97 140q-70 0 -116.5 -74.5t-46.5 -161.5q0 -62 25 -98t73 -36z
" />
    <glyph glyph-name="afii10097" unicode="&#x44f;" horiz-adv-x="494" 
d="M11 0l10 68h5q19 0 40.5 19.5t63.5 68.5q51 57 68 63v1q-49 1 -83 29t-34 75q0 75 56 116t151 41h172l-87 -481h-85l38 208h-27q-18 0 -37.5 -17.5t-57.5 -62.5q-3 -4 -5.5 -7t-5.5 -6q-59 -69 -88.5 -92t-68.5 -23h-25zM252 270h85l26 145h-81q-113 0 -113 -89
q0 -56 83 -56z" />
    <glyph glyph-name="uni0450" unicode="&#x450;" horiz-adv-x="433" 
d="M190 -12q-80 0 -122 50t-42 127q0 136 77.5 232.5t185.5 96.5q59 0 95 -29t36 -84q0 -43 -25.5 -77t-70.5 -56t-97 -35.5t-116 -21.5v-15q0 -116 90 -116q68 0 125 57l44 -56q-81 -73 -180 -73zM275 422q-52 0 -95.5 -48t-60.5 -122q96 11 156 42t60 79q0 49 -60 49z
M248 540l-108 128h111l68 -128h-71z" />
    <glyph glyph-name="afii10071" unicode="&#x451;" horiz-adv-x="433" 
d="M190 -12q-80 0 -122 50t-42 127q0 136 77.5 232.5t185.5 96.5q59 0 95 -29t36 -84q0 -43 -25.5 -77t-70.5 -56t-97 -35.5t-116 -21.5v-15q0 -116 90 -116q68 0 125 57l44 -56q-81 -73 -180 -73zM275 422q-52 0 -95.5 -48t-60.5 -122q96 11 156 42t60 79q0 49 -60 49z
M201 542q-23 0 -38.5 16t-15.5 38t15.5 38t38.5 16q24 0 39.5 -15.5t15.5 -38.5t-15.5 -38.5t-39.5 -15.5zM389 542q-23 0 -38.5 16t-15.5 38t15.5 38t38.5 16q24 0 39.5 -15.5t15.5 -38.5t-15.5 -38.5t-39.5 -15.5z" />
    <glyph glyph-name="afii10099" unicode="&#x452;" horiz-adv-x="521" 
d="M217 -133l-20 57q52 12 97 78t69 152t24 166q0 99 -47 99q-61 0 -120.5 -92.5t-92.5 -274.5l-9 -52h-83l104 573h-44l12 66h44l16 81h83l-15 -81h141l-12 -66h-142l-17 -91q-16 -90 -29 -140h2q15 27 29.5 48t39 47.5t56.5 41.5t68 15q52 0 77.5 -45t25.5 -112
q0 -102 -34.5 -206t-94.5 -178t-128 -86z" />
    <glyph glyph-name="afii10100" unicode="&#x453;" horiz-adv-x="380" 
d="M168 -12q-70 0 -112.5 32t-42.5 87q0 62 36.5 96t112.5 68q38 16 54 23.5t36 20.5t27 26.5t7 32.5q0 23 -18.5 37t-47.5 14q-58 0 -115 -36l-26 61q67 43 149 43q62 0 100 -33t38 -83q0 -61 -38.5 -95.5t-115.5 -67.5q-37 -16 -52.5 -24t-34.5 -21t-25.5 -26.5
t-6.5 -32.5q0 -25 22.5 -40t60.5 -15q61 0 127 41l23 -63q-72 -45 -158 -45zM194 540l109 128h123l-154 -128h-78z" />
    <glyph glyph-name="afii10101" unicode="&#x454;" horiz-adv-x="409" 
d="M304 219h-194q-1 -11 -1 -34q0 -63 24 -94t67 -31q59 0 114 52l45 -55q-72 -69 -167 -69q-77 0 -121.5 50t-44.5 138q0 135 80 226.5t187 91.5q72 0 118 -33l-40 -65q-33 24 -86 24q-50 0 -94.5 -37t-65.5 -99h192z" />
    <glyph glyph-name="afii10102" unicode="&#x455;" horiz-adv-x="359" 
d="M136 -12q-88 0 -146 50l42 59q54 -41 109 -41q36 0 56.5 17.5t20.5 45.5q0 7 -1.5 14t-3.5 12.5t-7 13.5t-8.5 12.5t-12 13.5t-12.5 13.5t-15.5 16.5t-16.5 17q-39 40 -56.5 69t-17.5 66q0 58 42.5 92.5t113.5 34.5q70 0 119 -36l-41 -60q-38 27 -85 27q-32 0 -50 -14
t-18 -40q0 -15 8.5 -31t18.5 -27.5t37 -39.5q31 -33 38.5 -41.5t24 -31.5t21 -40.5t4.5 -40.5q0 -57 -43 -94t-121 -37z" />
    <glyph glyph-name="afii10103" unicode="&#x456;" horiz-adv-x="239" 
d="M186 569q-24 0 -41 17t-17 40q0 24 17 41t41 17t41 -17t17 -41q0 -23 -17 -40t-41 -17zM34 0l87 481h83l-87 -481h-83z" />
    <glyph glyph-name="afii10104" unicode="&#x457;" horiz-adv-x="239" 
d="M34 0l87 481h83l-87 -481h-83zM82 542q-22 0 -38 16t-16 38t16 38t38 16q24 0 39.5 -15.5t15.5 -38.5t-15.5 -38.5t-39.5 -15.5zM270 542q-22 0 -38 16t-16 38t16 38t38 16q24 0 39.5 -15.5t15.5 -38.5t-15.5 -38.5t-39.5 -15.5z" />
    <glyph glyph-name="afii10105" unicode="&#x458;" horiz-adv-x="238" 
d="M-77 -230q-38 0 -74 14l30 69q15 -10 48 -10q45 0 67.5 31t33.5 94l93 513h83l-93 -521q-15 -91 -57 -140.5t-131 -49.5zM185 569q-23 0 -40.5 17t-17.5 40q0 24 17.5 41t40.5 17q24 0 41 -17t17 -41q0 -23 -17 -40t-41 -17z" />
    <glyph glyph-name="afii10106" unicode="&#x459;" horiz-adv-x="754" 
d="M491 -14q-110 0 -174 33l79 395h-166l-50 -196q-30 -114 -77 -170t-118 -56l-1 65q39 2 67 45t52 133l65 246h318l-23 -120q-14 -80 -31 -141h2q23 39 61.5 68t88.5 29q61 0 98.5 -35.5t37.5 -96.5q0 -83 -66.5 -141t-162.5 -58zM499 53q64 0 99 36.5t35 89.5
q0 32 -19 50.5t-55 18.5q-47 0 -89.5 -46.5t-54.5 -111.5l-4 -22q31 -15 88 -15z" />
    <glyph glyph-name="afii10107" unicode="&#x45a;" horiz-adv-x="781" 
d="M519 -14q-111 0 -175 33l36 198h-221l-39 -217h-85l86 481h85l-35 -195h221l35 195h86l-22 -120q-12 -68 -32 -141h2q59 97 151 97q61 0 98 -35.5t37 -96.5q0 -83 -66 -141t-162 -58zM526 53q64 0 99.5 36.5t35.5 89.5q0 32 -19.5 50.5t-55.5 18.5q-47 0 -89.5 -47
t-54.5 -111l-4 -22q32 -15 88 -15z" />
    <glyph glyph-name="afii10108" unicode="&#x45b;" horiz-adv-x="521" 
d="M35 0l104 573h-44l12 66h44l16 81h83l-15 -81h141l-12 -66h-142l-17 -91q-16 -90 -29 -140h2q16 28 30 48t38.5 47t56.5 42t68 15q50 0 76 -31t26 -86q0 -20 -5 -52l-59 -325h-84l57 319q4 20 4 41q0 59 -46 59q-61 0 -120.5 -92.5t-92.5 -274.5l-9 -52h-83z" />
    <glyph glyph-name="afii10109" unicode="&#x45c;" horiz-adv-x="484" 
d="M35 0l86 481h84l-36 -202h33l194 202h101l-228 -230q32 -29 62 -87q25 -50 43.5 -73t38.5 -23h10l-13 -68h-25q-40 0 -64 25.5t-58 93.5q-28 53 -45.5 75.5t-39.5 22.5h-21l-38 -217h-84zM247 540l109 128h123l-154 -128h-78z" />
    <glyph glyph-name="uni045D" unicode="&#x45d;" horiz-adv-x="515" 
d="M149 -12q-50 0 -76 30.5t-26 85.5q0 20 5 52l59 325h83l-56 -318q-4 -21 -4 -42q0 -59 46 -59q59 0 118.5 89t90.5 259l13 71h83l-48 -264q-30 -168 -30 -217h-82q15 104 26 154h-2q-17 -32 -32.5 -55.5t-41 -51.5t-57.5 -43.5t-69 -15.5zM262 540l-108 128h111l68 -128
h-71z" />
    <glyph glyph-name="afii10110" unicode="&#x45e;" horiz-adv-x="450" 
d="M-9 -221q-53 0 -84 17l33 68q20 -11 58 -11q41 0 74 28t77 104l-97 496h87l59 -337q8 -50 10 -68h2q16 49 25 68l154 337h88l-189 -386q-86 -180 -145.5 -248t-151.5 -68zM275 535q-57 0 -93 33t-36 94l1 17h69l-1 -12q0 -69 63 -69q30 0 53.5 22t31.5 59h73
q-16 -71 -62 -107.5t-99 -36.5z" />
    <glyph glyph-name="afii10193" unicode="&#x45f;" horiz-adv-x="515" 
d="M149 -12q-50 0 -76 30.5t-26 85.5q0 20 5 52l59 325h83l-56 -318q-4 -21 -4 -42q0 -59 46 -59q59 0 118.5 89t90.5 259l13 71h83l-48 -264q-30 -168 -30 -217h-82q15 104 26 154h-2q-17 -32 -32.5 -55.5t-41 -51.5t-57.5 -43.5t-69 -15.5zM157 -212l17 161h79l-39 -161
h-57z" />
    <glyph glyph-name="afii10050" unicode="&#x490;" horiz-adv-x="459" 
d="M47 0l119 666h262l41 144h62l-28 -220h-262l-105 -590h-89z" />
    <glyph glyph-name="afii10098" unicode="&#x491;" horiz-adv-x="395" 
d="M35 0l86 481h217l43 143h53l-26 -210h-213l-75 -414h-85z" />
    <glyph glyph-name="uni0492" unicode="&#x492;" horiz-adv-x="459" 
d="M47 0l61 341h-71l12 66h71l46 259h348l-13 -76h-260l-33 -183h149l-13 -66h-148l-60 -341h-89z" />
    <glyph glyph-name="uni0493" unicode="&#x493;" horiz-adv-x="380" 
d="M0 205l12 64h161q29 12 44 19.5t34 19.5t27 25.5t8 30.5q0 30 -18 45.5t-48 15.5q-58 0 -115 -36l-26 61q67 43 149 43q62 0 100 -33t38 -83q0 -68 -71 -108h78l-11 -64h-185q-40 -19 -61.5 -38.5t-21.5 -45.5q0 -65 82 -65q63 0 127 40l23 -63q-72 -45 -158 -45
q-70 0 -112.5 32t-42.5 87q0 62 53 98h-66z" />
    <glyph glyph-name="uni0496" unicode="&#x496;" horiz-adv-x="857" 
d="M-28 0l13 74h8q33 0 64 31.5t87 109.5q85 120 138 145l-185 306h94l168 -291h39l53 291h87l-52 -291h45l269 291h104l-306 -322q36 -30 86 -128q21 -41 31.5 -59.5t26 -41.5t28 -31.5t27.5 -8.5h57l-61 -219h-61l18 145q-37 6 -64.5 40.5t-69.5 118.5q-39 76 -64 109
t-55 33h-25l-54 -302h-87l54 302h-32q-33 0 -63.5 -31.5t-87.5 -110.5q-67 -93 -107.5 -126.5t-91.5 -33.5h-31z" />
    <glyph glyph-name="uni0497" unicode="&#x497;" horiz-adv-x="874" 
d="M351 0l39 217h-99q-18 -105 -77 -167t-144 -62q-56 0 -88 24l40 65q21 -16 55 -16q64 0 101 63.5t37 171.5q0 54 -17.5 89.5t-48.5 35.5q-37 0 -68 -28l-38 56q52 45 120 45q50 0 83 -34t44.5 -79.5t7.5 -94.5h104l37 195h82l-37 -195h103q22 95 79.5 151.5t137.5 56.5
q55 0 88 -25l-40 -65q-23 16 -55 16q-64 0 -101 -63.5t-37 -171.5q0 -53 17.5 -88.5t47.5 -35.5q37 0 69 27l60 -20l-46 -212h-61l16 142q-23 -10 -51 -10q-71 0 -107.5 64.5t-26.5 164.5h-104l-40 -217h-82z" />
    <glyph glyph-name="uni049A" unicode="&#x49a;" horiz-adv-x="573" 
d="M47 0l120 666h88l-53 -291h46l269 291h103l-306 -322q40 -35 86 -128q21 -41 31.5 -59.5t26 -41.5t28 -31.5t27.5 -8.5h57l-61 -219h-61l18 145q-37 6 -64.5 40.5t-69.5 118.5q-39 77 -63.5 109.5t-54.5 32.5h-25l-55 -302h-87z" />
    <glyph glyph-name="uni049B" unicode="&#x49b;" horiz-adv-x="484" 
d="M35 0l86 481h85l-37 -202h33l194 202h101l-228 -230q32 -29 62 -87q25 -49 44 -72.5t38 -23.5h47l-45 -212h-61l14 145q-31 4 -53 30.5t-52 87.5q-28 53 -45.5 75.5t-39.5 22.5h-20l-39 -217h-84z" />
    <glyph glyph-name="uni049C" unicode="&#x49c;" horiz-adv-x="620" 
d="M347 545l-30 -170h17l229 291h99l-265 -326q7 -11 13.5 -27t18 -47.5t20.5 -54.5q53 -136 112 -136h12l-13 -75h-28q-49 0 -81.5 34.5t-71.5 126.5q-9 20 -18.5 46t-15 40.5t-12 28.5t-13.5 20t-15 6h-1l-29 -170h-71l30 170h-45l-55 -302h-87l120 666h88l-53 -291h45
l30 170h70z" />
    <glyph glyph-name="uni049D" unicode="&#x49d;" horiz-adv-x="519" 
d="M284 410l-23 -131h6l164 202h95l-197 -235q10 -13 38 -85q37 -93 81 -93h10l-13 -68h-25q-43 0 -68.5 26t-53.5 93q-5 13 -12 30t-11 26t-8.5 19t-8.5 15t-8 7l-23 -129h-60l23 130h-32l-39 -217h-84l86 481h85l-37 -202h32l23 131h60z" />
    <glyph glyph-name="uni04A2" unicode="&#x4a2;" horiz-adv-x="714" 
d="M47 0l118 666h89l-49 -278h354l50 278h89l-106 -590h69l-61 -220h-62l19 144h-67l56 312h-354l-56 -312h-89z" />
    <glyph glyph-name="uni04A3" unicode="&#x4a3;" horiz-adv-x="547" 
d="M35 0l86 481h85l-35 -195h221l35 195h86l-75 -412h43l-45 -213h-61l15 144h-49l39 217h-221l-39 -217h-85z" />
    <glyph glyph-name="uni04AE" unicode="&#x4ae;" horiz-adv-x="554" 
d="M193 0l46 251l-149 415h92l115 -331h1l218 331h93l-281 -416l-45 -250h-90z" />
    <glyph glyph-name="uni04AF" unicode="&#x4af;" horiz-adv-x="429" 
d="M70 -218l42 234l-65 465h85l36 -288q4 -38 6 -85h2l202 373h88l-272 -472l-41 -227h-83z" />
    <glyph glyph-name="uni04B0" unicode="&#x4b0;" horiz-adv-x="554" 
d="M193 0l29 161h-164l13 66h163l5 24l-149 415h92l115 -331h1l218 331h94l-282 -416l-4 -23h163l-12 -66h-163l-29 -161h-90z" />
    <glyph glyph-name="uni04B1" unicode="&#x4b1;" horiz-adv-x="429" 
d="M291 -66h-111l-27 -152h-83l27 152h-109l12 66h109l3 15l-65 466h85l36 -288q4 -38 6 -85h2l202 373h88l-272 -472l-2 -9h111z" />
    <glyph glyph-name="uni04B2" unicode="&#x4b2;" horiz-adv-x="565" 
d="M-18 0l269 347l-139 319h93l107 -255l185 255h97l-248 -323l119 -270h79l-59 -217h-62l17 144h-37l-118 280l-205 -280h-98z" />
    <glyph glyph-name="uni04B3" unicode="&#x4b3;" horiz-adv-x="437" 
d="M-37 0l207 249l-112 232h92l75 -167l132 167h92l-192 -233l86 -181h81l-45 -211h-61l15 144h-50l-82 182l-147 -182h-91z" />
    <glyph glyph-name="uni04B6" unicode="&#x4b6;" horiz-adv-x="617" 
d="M392 0l51 280q-33 -37 -85.5 -66t-113.5 -29q-77 0 -122 40.5t-45 111.5q0 24 4 45l51 284h89l-49 -269q-10 -59 13 -97.5t84 -38.5q54 0 106 32.5t82 67.5l56 305h89l-107 -590h68l-60 -220h-62l18 144h-67z" />
    <glyph glyph-name="uni04B7" unicode="&#x4b7;" horiz-adv-x="495" 
d="M306 0q21 156 49 282h-2q-30 -56 -80.5 -93t-112.5 -37q-50 0 -76 31t-26 86q0 19 5 51l28 161h84l-26 -154q-16 -100 42 -100q64 0 118.5 64.5t67.5 156.5l5 33h83l-47 -264q-16 -89 -24 -148h43l-45 -213h-61l15 144h-40z" />
    <glyph glyph-name="uni04B8" unicode="&#x4b8;" horiz-adv-x="617" 
d="M392 0l51 280q-51 -58 -127 -83l-23 -133h-71l21 121q-76 0 -121 40.5t-45 111.5q0 24 4 45l51 284h89l-49 -269q-10 -55 10 -93.5t74 -42.5l26 148h71l-24 -137q39 14 73.5 39.5t54.5 49.5l56 305h89l-120 -666h-90z" />
    <glyph glyph-name="uni04B9" unicode="&#x4b9;" horiz-adv-x="498" 
d="M272 330l-15 -85q45 25 79 80t44 123l5 33h84l-48 -264q-7 -38 -12.5 -73t-8.5 -59.5t-5.5 -43t-3.5 -29.5t-1 -12h-81q19 145 50 282h-2q-44 -78 -113 -111l-21 -120h-59l18 102q-7 -1 -21 -1q-50 0 -76.5 30.5t-26.5 86.5q0 19 5 51l28 161h84l-26 -154
q-16 -100 43 -100h3l18 103h59z" />
    <glyph glyph-name="uni04BA" unicode="&#x4ba;" horiz-adv-x="617" 
d="M256 666l-51 -280q33 37 85.5 66t113.5 29q77 0 122 -40.5t45 -111.5q0 -24 -4 -45l-51 -284h-89l49 269q10 59 -13 97.5t-84 38.5q-54 0 -106 -32.5t-82 -67.5l-56 -305h-89l120 666h90z" />
    <glyph glyph-name="uni04BB" unicode="&#x4bb;" horiz-adv-x="515" 
d="M29 0l132 720h83l-45 -238q-15 -84 -28 -140h2q83 152 192 152q50 0 76 -31t26 -86q0 -20 -5 -52l-59 -325h-83l56 319q4 20 4 41q0 59 -46 59q-61 0 -120.5 -92.5t-92.5 -274.5l-9 -52h-83z" />
    <glyph glyph-name="uni04C0" unicode="&#x4c0;" horiz-adv-x="282" 
d="M53 0l119 666h89l-119 -666h-89z" />
    <glyph glyph-name="uni04CF" unicode="&#x4cf;" horiz-adv-x="240" 
d="M34 0l130 720h83l-130 -720h-83z" />
    <glyph glyph-name="uni04D8" unicode="&#x4d8;" horiz-adv-x="706" 
d="M223 543l-38 63q35 32 93 52t117 20q137 0 210 -83t73 -207q0 -75 -24.5 -146.5t-68.5 -128t-110.5 -91t-144.5 -34.5q-125 0 -198.5 84t-73.5 204q0 26 8 76h517q2 24 2 37q0 92 -51 153t-145 61q-91 0 -166 -60zM335 63q87 0 148.5 60.5t86.5 155.5h-419
q-1 -93 49 -154.5t135 -61.5z" />
    <glyph glyph-name="afii10846" unicode="&#x4d9;" horiz-adv-x="433" 
d="M247 494q80 0 122 -50t42 -127q0 -136 -77.5 -232.5t-185.5 -96.5q-59 0 -95 29t-36 84q0 43 25.5 77t70.5 56t97 35.5t116 21.5q6 131 -90 131q-69 0 -125 -58l-44 57q81 73 180 73zM162 60q52 0 95.5 48.5t60.5 122.5q-96 -12 -156 -43t-60 -79q0 -49 60 -49z" />
    <glyph glyph-name="uni04E2" unicode="&#x4e2;" horiz-adv-x="705" 
d="M47 0l120 666h82l-81 -448q-7 -45 -18 -93h2q22 32 79 101l375 440h84l-120 -666h-83l82 448q9 55 17 93h-2q-16 -25 -79 -101l-375 -440h-83zM307 756l12 67h273l-13 -67h-272z" />
    <glyph glyph-name="uni04E3" unicode="&#x4e3;" horiz-adv-x="515" 
d="M149 -12q-50 0 -76 30.5t-26 85.5q0 20 5 52l59 325h83l-56 -318q-4 -21 -4 -42q0 -59 46 -59q59 0 118.5 89t90.5 259l13 71h83l-48 -264q-30 -168 -30 -217h-82q15 104 26 154h-2q-17 -32 -32.5 -55.5t-41 -51.5t-57.5 -43.5t-69 -15.5zM171 572l12 67h273l-13 -67
h-272z" />
    <glyph glyph-name="uni04E8" unicode="&#x4e8;" horiz-adv-x="737" 
d="M341 -12q-130 0 -206.5 84t-76.5 204q0 101 44.5 192t131 150.5t193.5 59.5q136 0 209 -83t73 -207q0 -101 -43.5 -191.5t-129.5 -149.5t-195 -59zM421 603q-99 0 -167 -65.5t-92 -167.5h453q1 6 1 19q0 92 -50.5 153t-144.5 61zM346 63q98 0 166 65.5t92 166.5h-452v-18
q0 -92 52.5 -153t141.5 -61z" />
    <glyph glyph-name="uni04E9" unicode="&#x4e9;" horiz-adv-x="485" 
d="M203 -12q-87 0 -131 59.5t-44 140.5q0 119 73 212.5t179 93.5q85 0 130.5 -57t45.5 -141q0 -125 -73 -216.5t-180 -91.5zM209 56q53 0 93.5 44.5t58.5 110.5h-249q-1 -7 -1 -21q0 -62 25 -98t73 -36zM274 426q-51 0 -91.5 -43t-58.5 -106h247v9q0 140 -97 140z" />
    <glyph glyph-name="uni04EE" unicode="&#x4ee;" horiz-adv-x="540" 
d="M67 -2q-32 0 -47 6l24 69q12 -3 32 -3q40 0 70.5 24.5t63.5 79.5l20 34l-118 458h83l95 -364l220 364h91l-322 -527q-47 -77 -95.5 -109t-116.5 -32zM226 756l12 67h273l-13 -67h-272z" />
    <glyph glyph-name="uni04EF" unicode="&#x4ef;" horiz-adv-x="450" 
d="M-9 -221q-53 0 -84 17l33 68q20 -11 58 -11q41 0 74 28t77 104l-97 496h87l59 -337q8 -50 10 -68h2q16 49 25 68l154 337h88l-189 -386q-86 -180 -145.5 -248t-151.5 -68zM141 572l12 67h273l-13 -67h-272z" />
    <glyph glyph-name="Wgrave" unicode="&#x1e80;" horiz-adv-x="863" 
d="M156 0l-63 666h89l34 -399q7 -77 9 -139h2q12 35 57 138l175 400h89l45 -414q8 -72 11 -124h2q14 39 50 125l170 413h92l-292 -666h-83l-44 411q-2 18 -14 148h-2q-19 -51 -62 -148l-184 -411h-81zM471 724l-108 128h111l68 -128h-71z" />
    <glyph glyph-name="wgrave" unicode="&#x1e81;" horiz-adv-x="689" 
d="M105 0l-53 481h85l24 -269q1 -15 5 -101h2l182 370h78l18 -264q5 -65 5 -99h2l184 363h87l-257 -481h-73l-26 373h-2l-189 -373h-72zM354 540l-108 128h111l68 -128h-71z" />
    <glyph glyph-name="Wacute" unicode="&#x1e82;" horiz-adv-x="863" 
d="M156 0l-63 666h89l34 -399q7 -77 9 -139h2q12 35 57 138l175 400h89l45 -414q8 -72 11 -124h2q14 39 50 125l170 413h92l-292 -666h-83l-44 411q-2 18 -14 148h-2q-19 -51 -62 -148l-184 -411h-81zM473 724l109 128h123l-154 -128h-78z" />
    <glyph glyph-name="wacute" unicode="&#x1e83;" horiz-adv-x="689" 
d="M105 0l-53 481h85l24 -269q1 -15 5 -101h2l182 370h78l18 -264q5 -65 5 -99h2l184 363h87l-257 -481h-73l-26 373h-2l-189 -373h-72zM356 540l109 128h123l-154 -128h-78z" />
    <glyph glyph-name="Wdieresis" unicode="&#x1e84;" horiz-adv-x="863" 
d="M156 0l-63 666h89l34 -399q7 -77 9 -139h2q12 35 57 138l175 400h89l45 -414q8 -72 11 -124h2q14 39 50 125l170 413h92l-292 -666h-83l-44 411q-2 18 -14 148h-2q-19 -51 -62 -148l-184 -411h-81zM423 726q-23 0 -38.5 16t-15.5 38t15.5 38t38.5 16q24 0 39.5 -15.5
t15.5 -38.5t-15.5 -38.5t-39.5 -15.5zM611 726q-23 0 -38.5 16t-15.5 38t15.5 38t38.5 16q24 0 39.5 -15.5t15.5 -38.5t-15.5 -38.5t-39.5 -15.5z" />
    <glyph glyph-name="wdieresis" unicode="&#x1e85;" horiz-adv-x="689" 
d="M105 0l-53 481h85l24 -269q1 -15 5 -101h2l182 370h78l18 -264q5 -65 5 -99h2l184 363h87l-257 -481h-73l-26 373h-2l-189 -373h-72zM306 542q-22 0 -38 16t-16 38t16 38t38 16q24 0 39.5 -15.5t15.5 -38.5t-15.5 -38.5t-39.5 -15.5zM494 542q-22 0 -38 16t-16 38t16 38
t38 16q24 0 39.5 -15.5t15.5 -38.5t-15.5 -38.5t-39.5 -15.5z" />
    <glyph glyph-name="Ygrave" unicode="&#x1ef2;" horiz-adv-x="554" 
d="M193 0l46 251l-149 415h92l115 -331h1l218 331h93l-281 -416l-45 -250h-90zM313 724l-108 128h111l68 -128h-71z" />
    <glyph glyph-name="ygrave" unicode="&#x1ef3;" horiz-adv-x="450" 
d="M-9 -221q-53 0 -84 17l33 68q20 -11 58 -11q41 0 74 28t77 104l-97 496h87l59 -337q8 -50 10 -68h2q16 49 25 68l154 337h88l-189 -386q-86 -180 -145.5 -248t-151.5 -68zM225 540l-108 128h111l68 -128h-71z" />
    <glyph glyph-name="uni2007" unicode="&#x2007;" horiz-adv-x="535" 
 />
    <glyph glyph-name="uni2008" unicode="&#x2008;" horiz-adv-x="226" 
 />
    <glyph glyph-name="uni200B" unicode="&#x200b;" horiz-adv-x="0" 
 />
    <glyph glyph-name="endash" unicode="&#x2013;" horiz-adv-x="561" 
d="M50 239l12 69h459l-12 -69h-459z" />
    <glyph glyph-name="emdash" unicode="&#x2014;" horiz-adv-x="870" 
d="M50 239l12 69h768l-12 -69h-768z" />
    <glyph glyph-name="afii00208" unicode="&#x2015;" horiz-adv-x="870" 
d="M50 239l12 69h768l-12 -69h-768z" />
    <glyph glyph-name="quoteleft" unicode="&#x2018;" horiz-adv-x="199" 
d="M146 425q-27 0 -46 19t-19 52q0 51 36 102.5t81 87.5l33 -29q-55 -53 -55 -93q0 -16 14 -38.5t14 -42.5q0 -25 -17 -41.5t-41 -16.5z" />
    <glyph glyph-name="quoteright" unicode="&#x2019;" horiz-adv-x="199" 
d="M109 417l-33 29q55 53 55 93q0 16 -14 38.5t-14 42.5q0 25 17 41.5t41 16.5q27 0 46 -19t19 -52q0 -51 -36 -102.5t-81 -87.5z" />
    <glyph glyph-name="quotesinglbase" unicode="&#x201a;" horiz-adv-x="199" 
d="M10 -144l-33 29q55 53 55 93q0 16 -14 38.5t-14 43.5q0 24 17 40.5t41 16.5q28 0 47 -19t19 -52q0 -51 -36.5 -102.5t-81.5 -87.5z" />
    <glyph glyph-name="quotedblleft" unicode="&#x201c;" horiz-adv-x="375" 
d="M146 425q-27 0 -46 19t-19 52q0 51 36 102.5t81 87.5l33 -29q-55 -53 -55 -93q0 -16 14 -38.5t14 -42.5q0 -25 -17 -41.5t-41 -16.5zM322 425q-27 0 -46 19.5t-19 51.5q0 51 36.5 102.5t81.5 87.5l32 -29q-54 -54 -54 -93q0 -16 14 -38.5t14 -42.5q0 -25 -17 -41.5
t-42 -16.5z" />
    <glyph glyph-name="quotedblright" unicode="&#x201d;" horiz-adv-x="375" 
d="M109 417l-33 29q55 53 55 93q0 16 -14 38.5t-14 42.5q0 25 17 41.5t41 16.5q27 0 46 -19t19 -52q0 -51 -36 -102.5t-81 -87.5zM285 417l-32 29q54 54 54 93q0 16 -14 38.5t-14 42.5q0 25 17 41.5t42 16.5q27 0 46 -19.5t19 -51.5q0 -51 -36.5 -102.5t-81.5 -87.5z" />
    <glyph glyph-name="quotedblbase" unicode="&#x201e;" horiz-adv-x="375" 
d="M10 -144l-33 29q55 53 55 93q0 16 -14 38.5t-14 43.5q0 24 17 40.5t41 16.5q28 0 47 -19t19 -52q0 -51 -36.5 -102.5t-81.5 -87.5zM186 -144l-32 29q55 53 55 93q0 16 -14.5 38.5t-14.5 43.5q0 24 17.5 40.5t41.5 16.5q28 0 46.5 -19t18.5 -52q0 -51 -36.5 -102.5
t-81.5 -87.5z" />
    <glyph glyph-name="dagger" unicode="&#x2020;" horiz-adv-x="531" 
d="M164 -170l58 442l41 139l-80 -9h-109l14 79h109l76 -8l7 110l24 137h91l-24 -137l-33 -110l82 8h107l-14 -79h-107l-79 9l-9 -139l-99 -442h-55z" />
    <glyph glyph-name="daggerdbl" unicode="&#x2021;" horiz-adv-x="541" 
d="M148 -168l25 133l34 110l-82 -8h-110l14 79h110l79 -8l9 136l41 137l-81 -9h-110l15 79h109l78 -8l8 110l25 137h92l-24 -137l-34 -110l82 8h109l-14 -79h-110l-79 9l-9 -137l-41 -136l81 8h110l-14 -79h-110l-78 8l-8 -110l-25 -133h-92z" />
    <glyph glyph-name="bullet" unicode="&#x2022;" horiz-adv-x="370" 
d="M184 152q-55 0 -93.5 39t-38.5 95t38.5 95.5t93.5 39.5q56 0 94.5 -39.5t38.5 -95.5t-38.5 -95t-94.5 -39z" />
    <glyph glyph-name="ellipsis" unicode="&#x2026;" horiz-adv-x="640" 
d="M84 -9q-28 0 -46.5 18.5t-18.5 45.5q0 26 18.5 44.5t46.5 18.5q26 0 45 -18.5t19 -44.5t-19 -45t-45 -19zM291 -9q-27 0 -45.5 19t-18.5 45t18.5 44.5t45.5 18.5t45.5 -18.5t18.5 -44.5t-18.5 -45t-45.5 -19zM499 -9q-27 0 -45.5 19t-18.5 45t18.5 44.5t45.5 18.5
q26 0 45 -18.5t19 -44.5t-19 -45t-45 -19z" />
    <glyph glyph-name="perthousand" unicode="&#x2030;" horiz-adv-x="1066" 
d="M167 208q-56 0 -89.5 35.5t-33.5 86.5q0 65 45.5 114t114.5 49q60 0 92 -33t32 -87q0 -67 -46 -116t-115 -49zM173 262q37 0 60.5 30.5t23.5 77.5q0 69 -58 69q-37 0 -60.5 -29t-23.5 -75q0 -73 58 -73zM530 -12q-56 0 -89 35.5t-33 86.5q0 65 45.5 114t113.5 49
q60 0 92 -33t32 -87q0 -67 -45.5 -116t-115.5 -49zM536 42q38 0 61 30.5t23 77.5q0 69 -58 69q-37 0 -60.5 -29t-23.5 -74q0 -74 58 -74zM860 -12q-56 0 -89.5 35.5t-33.5 86.5q0 65 45.5 114t114.5 49q60 0 92 -33t32 -87q0 -67 -46 -116t-115 -49zM866 42q37 0 60.5 30.5
t23.5 77.5q0 69 -58 69q-37 0 -60.5 -29t-23.5 -74q0 -74 58 -74zM149 0l370 482h70l-370 -482h-70z" />
    <glyph glyph-name="guilsinglleft" unicode="&#x2039;" horiz-adv-x="278" 
d="M126 55l-97 190l164 191h91l-168 -197l93 -184h-83z" />
    <glyph glyph-name="guilsinglright" unicode="&#x203a;" horiz-adv-x="278" 
d="M-3 55l165 196l-93 185h83l97 -191l-160 -190h-92z" />
    <glyph glyph-name="fraction" unicode="&#x2044;" horiz-adv-x="113" 
d="M-225 0l526 666h75l-525 -666h-76z" />
    <glyph glyph-name="uni2070" unicode="&#x2070;" horiz-adv-x="385" 
d="M213 334q-62 0 -92.5 36t-30.5 92q0 82 47 146t134 64q62 0 93 -35.5t31 -90.5q0 -86 -47.5 -149t-134.5 -63zM220 390q47 0 74 45.5t27 110.5q0 70 -57 70q-49 0 -75 -45.5t-26 -108.5q0 -34 15 -53t42 -19z" />
    <glyph glyph-name="uni2074" unicode="&#x2074;" horiz-adv-x="316" 
d="M196 340l13 67h-173l8 46l220 213h65l-40 -205h54l-11 -54h-53l-13 -67h-70zM123 459q14 2 39 2h59l22 116h-1z" />
    <glyph glyph-name="uni2075" unicode="&#x2075;" horiz-adv-x="290" 
d="M111 334q-36 0 -60 8l17 56q19 -7 50 -7q44 0 71 15.5t27 45.5q0 23 -25 34.5t-62 11.5q-27 0 -40 -3l38 171h187l-10 -56h-127l-13 -60q55 -3 90.5 -26.5t35.5 -64.5q0 -60 -46.5 -92.5t-132.5 -32.5z" />
    <glyph glyph-name="uni2076" unicode="&#x2076;" horiz-adv-x="328" 
d="M195 334q-62 0 -91.5 32.5t-29.5 83.5q1 99 76 160.5t189 61.5l9 -53q-137 -2 -191 -98q30 22 82 22q45 0 70.5 -22.5t25.5 -62.5q0 -55 -39.5 -89.5t-100.5 -34.5zM197 387q29 0 48.5 18.5t19.5 44.5q0 19 -14.5 30t-35.5 11q-44 0 -69 -20q-1 -10 -1 -26
q0 -26 14.5 -42t37.5 -16z" />
    <glyph glyph-name="uni2077" unicode="&#x2077;" horiz-adv-x="288" 
d="M138 326l-55 26l157 255h-154l10 59h236l-7 -38z" />
    <glyph glyph-name="uni2078" unicode="&#x2078;" horiz-adv-x="324" 
d="M184 334q-56 0 -88 21.5t-32 55.5q0 61 88 98q-45 28 -45 68q0 42 38.5 68.5t92.5 26.5q51 0 81.5 -19t30.5 -54q0 -51 -81 -88q57 -32 57 -75q0 -44 -38 -73t-104 -29zM188 385q27 0 47 12.5t20 30.5q0 14 -13.5 25t-40.5 26q-33 -14 -50 -26.5t-17 -32.5q0 -15 15 -25
t39 -10zM218 540q20 9 31 14.5t21 15.5t10 21q0 13 -13 21.5t-34 8.5q-23 0 -40 -10.5t-17 -27.5q0 -20 42 -43z" />
    <glyph glyph-name="uni2079" unicode="&#x2079;" horiz-adv-x="332" 
d="M86 332l-10 54q64 0 115.5 25t73.5 74q-32 -21 -80 -21q-45 0 -71 22.5t-26 63.5q0 54 42 88t100 34q62 0 90.5 -32.5t28.5 -81.5q0 -100 -69.5 -163t-193.5 -63zM211 515q40 0 67 20q2 8 2 26q0 27 -15 42.5t-39 15.5q-28 0 -48 -19t-20 -44q0 -19 15 -30t38 -11z" />
    <glyph glyph-name="uni207A" unicode="&#x207a;" horiz-adv-x="329" 
d="M164 394l17 85h-98l11 53h97l17 83h56l-16 -83h96l-10 -53h-97l-18 -85h-55z" />
    <glyph glyph-name="uni207B" unicode="&#x207b;" horiz-adv-x="307" 
d="M91 479l12 53h207l-12 -53h-207z" />
    <glyph glyph-name="uni207D" unicode="&#x207d;" horiz-adv-x="206" 
d="M141 284q-64 75 -64 164q0 51 16 97.5t42 80t47 54t43 37.5h70q-146 -119 -146 -269q0 -96 58 -164h-66z" />
    <glyph glyph-name="uni207E" unicode="&#x207e;" horiz-adv-x="206" 
d="M9 284q147 117 147 269q0 93 -58 164h66q64 -75 64 -164q0 -51 -16 -97.5t-42 -80t-47 -54t-43 -37.5h-71z" />
    <glyph glyph-name="uni2080" unicode="&#x2080;" horiz-adv-x="385" 
d="M151 -206q-62 0 -92.5 36t-30.5 92q0 82 47.5 146t133.5 64q63 0 93.5 -35.5t30.5 -90.5q0 -87 -47.5 -149.5t-134.5 -62.5zM159 -150q47 0 74 45.5t27 110.5q0 32 -15 51t-43 19q-49 0 -75 -45.5t-26 -108.5q0 -72 58 -72z" />
    <glyph glyph-name="uni2081" unicode="&#x2081;" horiz-adv-x="251" 
d="M65 -200l52 267l-85 -23l-15 53l121 29h60l-63 -326h-70z" />
    <glyph glyph-name="uni2082" unicode="&#x2082;" horiz-adv-x="325" 
d="M-15 -200l6 38q124 87 155 115q52 48 52 86q0 17 -14 26.5t-34 9.5q-43 0 -83 -32l-32 45q52 44 126 44q55 0 84.5 -21.5t29.5 -58.5q0 -49 -44.5 -94t-129.5 -104q6 3 46 3h109l-12 -57h-259z" />
    <glyph glyph-name="uni2083" unicode="&#x2083;" horiz-adv-x="297" 
d="M55 -206q-44 0 -66 10l20 55q25 -9 52 -9q42 0 68.5 14t26.5 41q0 43 -99 41l9 47q49 2 79.5 17t30.5 38q0 13 -12.5 20.5t-32.5 7.5q-38 0 -71 -20l-26 45q48 31 112 31q50 0 76.5 -18.5t26.5 -48.5q0 -34 -25 -55.5t-64 -30.5v-1q30 -5 51 -23t21 -46q0 -53 -46 -84
t-131 -31z" />
    <glyph glyph-name="uni2084" unicode="&#x2084;" horiz-adv-x="316" 
d="M135 -200l12 67h-173l9 46l220 213h65l-41 -205h54l-11 -54h-52l-14 -67h-69zM61 -81q14 2 39 2h59l23 115h-1z" />
    <glyph glyph-name="uni2085" unicode="&#x2085;" horiz-adv-x="290" 
d="M50 -206q-40 0 -61 8l18 56q20 -8 49 -8q44 0 71 16t27 45q0 23 -24.5 35t-62.5 12q-27 0 -39 -3l37 171h187l-10 -57h-127l-13 -59q55 -3 91 -27t36 -65q0 -59 -46.5 -91.5t-132.5 -32.5z" />
    <glyph glyph-name="uni2086" unicode="&#x2086;" horiz-adv-x="328" 
d="M133 -206q-62 0 -91 32.5t-29 82.5q0 99 75.5 161t189.5 62l9 -53q-138 -3 -191 -99q28 22 81 22q45 0 70.5 -22t25.5 -63q0 -54 -39.5 -88.5t-100.5 -34.5zM136 -153q29 0 48 18t19 45q0 19 -14 30t-36 11q-41 0 -69 -20q-1 -11 -1 -26q0 -27 14.5 -42.5t38.5 -15.5z
" />
    <glyph glyph-name="uni2087" unicode="&#x2087;" horiz-adv-x="288" 
d="M76 -214l-55 25l157 256h-154l11 59h235l-7 -38z" />
    <glyph glyph-name="uni2088" unicode="&#x2088;" horiz-adv-x="324" 
d="M122 -206q-56 0 -88 21.5t-32 55.5q0 61 88 98q-44 29 -44 68q0 42 38 68.5t92 26.5q52 0 82 -19.5t30 -54.5q0 -52 -81 -87q57 -34 57 -75q0 -44 -38 -73t-104 -29zM127 -155q27 0 46.5 12t19.5 31q0 22 -54 51q-33 -14 -50 -27t-17 -33q0 -14 15.5 -24t39.5 -10z
M156 -1q22 10 32 15.5t20.5 15.5t10.5 21q0 13 -13 21.5t-34 8.5q-24 0 -41 -11t-17 -28q0 -8 7.5 -16.5t13.5 -13t21 -13.5z" />
    <glyph glyph-name="uni2089" unicode="&#x2089;" horiz-adv-x="332" 
d="M25 -209l-11 54q65 1 116 25.5t73 74.5q-31 -22 -80 -22q-44 0 -70.5 23t-26.5 63q0 55 42.5 89t99.5 34q63 0 91 -32.5t28 -82.5q0 -100 -69.5 -163t-192.5 -63zM149 -25q42 0 68 20q2 16 2 26q0 26 -15.5 42t-39.5 16q-28 0 -48 -19t-20 -44q0 -20 15 -30.5t38 -10.5z
" />
    <glyph glyph-name="uni208A" unicode="&#x208a;" horiz-adv-x="329" 
d="M102 -147l18 85h-98l10 53h97l17 84h56l-16 -84h97l-11 -53h-97l-17 -85h-56z" />
    <glyph glyph-name="uni208B" unicode="&#x208b;" horiz-adv-x="307" 
d="M29 -61l12 53h207l-11 -53h-208z" />
    <glyph glyph-name="uni208D" unicode="&#x208d;" horiz-adv-x="206" 
d="M79 -256q-64 72 -64 164q0 51 16 97.5t42 80t47 54t43 37.5h71q-147 -117 -147 -269q0 -93 58 -164h-66z" />
    <glyph glyph-name="uni208E" unicode="&#x208e;" horiz-adv-x="206" 
d="M-52 -256q146 115 146 269q0 95 -57 164h65q64 -75 64 -164q0 -51 -16 -97.5t-41.5 -80t-47 -54.5t-43.5 -37h-70z" />
    <glyph glyph-name="Euro" unicode="&#x20ac;" horiz-adv-x="548" 
d="M329 -12q-107 0 -165.5 66t-66.5 169h-77l11 64h66q1 35 10 77h-62l11 65h68q38 113 121 181t193 68q98 0 154 -41l-46 -67q-48 33 -117 33q-74 0 -128.5 -47t-83.5 -127h175l-11 -65h-183q-7 -36 -9 -77h178l-12 -64h-166q14 -159 150 -159q66 0 129 41l30 -69
q-75 -48 -169 -48z" />
    <glyph glyph-name="uni20B4" unicode="&#x20b4;" horiz-adv-x="534" 
d="M534 364h-139q-24 -15 -73 -40t-69 -37h268l-11 -62h-335q-22 -29 -26 -55q-8 -44 22.5 -75.5t88.5 -31.5q86 0 165 57l32 -64q-29 -25 -82.5 -46.5t-121.5 -21.5q-99 0 -152 50t-39 130q6 33 22 57h-64l11 62h110q38 30 130 77h-227l12 63h321q48 36 56 80q7 44 -19 70
t-75 26q-83 0 -148 -45l-30 66q78 54 188 54q83 0 132.5 -46t35.5 -125q-8 -44 -41 -80h70z" />
    <glyph glyph-name="afii61352" unicode="&#x2116;" horiz-adv-x="1096" 
d="M47 0l119 666h87l215 -443q29 -61 41 -100h2q4 51 15 106l77 437h81l-118 -666h-81l-223 457q-23 48 -38 92h-2q-4 -43 -14 -97l-80 -452h-81zM896 351q-73 0 -109.5 39.5t-36.5 93.5q0 74 52 130.5t137 56.5q72 0 108.5 -39.5t36.5 -93.5q0 -74 -51.5 -130.5
t-136.5 -56.5zM902 412q51 0 79 32.5t28 87.5q0 36 -19.5 57t-55.5 21q-51 0 -79.5 -32.5t-28.5 -86.5q0 -37 19.5 -58t56.5 -21z" />
    <glyph glyph-name="uni2117" unicode="&#x2117;" horiz-adv-x="822" 
d="M430 -14q-153 0 -262 109.5t-109 263.5t109 263.5t262 109.5q154 0 263.5 -109t109.5 -264t-109.5 -264t-263.5 -109zM430 43q135 0 223.5 89t88.5 227t-88.5 227t-223.5 89q-133 0 -221.5 -89.5t-88.5 -226.5q0 -138 88 -227t222 -89zM307 139v445h147q67 0 104.5 -40
t37.5 -95q0 -57 -41.5 -95.5t-126.5 -38.5h-51v-176h-70zM377 369h48q96 0 96 78t-81 78h-63v-156z" />
    <glyph glyph-name="trademark" unicode="&#x2122;" horiz-adv-x="666" 
d="M296 374l84 292h60l33 -166q4 -18 8 -63h2q21 46 31 64l90 165h68l-19 -292h-58l13 158q1 12 3 27.5t3 25.5l2 10h-2q0 -12 -33 -70l-86 -151h-49l-28 144q-11 55 -11 77h-2q0 -13 -14 -65l-42 -156h-53zM125 374l42 242h-84l8 50h224l-9 -50h-81l-42 -242h-58z" />
    <glyph glyph-name="Omega" unicode="&#x2126;" horiz-adv-x="740" 
d="M14 0l14 74h133q-97 85 -97 213q0 167 107.5 279t253.5 112q117 0 197.5 -76t80.5 -196q0 -105 -50.5 -191.5t-136.5 -140.5h142l-14 -74h-247l12 72q88 46 145.5 130.5t57.5 193.5q0 86 -54 146.5t-140 60.5q-115 0 -188.5 -93.5t-73.5 -221.5q0 -136 101 -216l-13 -72
h-230z" />
    <glyph glyph-name="uni2150" unicode="&#x2150;" horiz-adv-x="712" 
d="M26 0l526 666h75l-525 -666h-76zM127 340l52 267l-85 -23l-16 54l122 28h60l-64 -326h-69zM500 -14l-55 25l157 256h-154l11 59h235l-7 -38z" />
    <glyph glyph-name="uni2151" unicode="&#x2151;" horiz-adv-x="696" 
d="M26 0l526 666h75l-525 -666h-76zM127 340l52 267l-85 -23l-16 54l122 28h60l-64 -326h-69zM389 -9l-11 54q65 1 116 25.5t73 74.5q-31 -22 -80 -22q-44 0 -70.5 23t-26.5 63q0 55 42.5 89t99.5 34q63 0 91 -32.5t28 -82.5q0 -100 -69.5 -163t-192.5 -63zM513 175
q42 0 68 20q2 16 2 26q0 26 -15.5 42t-39.5 16q-28 0 -48 -19t-20 -44q0 -20 15 -30.5t38 -10.5z" />
    <glyph glyph-name="uni2152" unicode="&#x2152;" horiz-adv-x="1050" 
d="M26 0l526 666h75l-525 -666h-76zM127 340l52 267l-85 -23l-16 54l122 28h60l-64 -326h-69zM479 0l52 267l-85 -23l-15 53l121 29h60l-63 -326h-70zM816 -6q-62 0 -92.5 36t-30.5 92q0 82 47.5 146t133.5 64q63 0 93.5 -35.5t30.5 -90.5q0 -87 -47.5 -149.5t-134.5 -62.5z
M824 50q47 0 74 45.5t27 110.5q0 32 -15 51t-43 19q-49 0 -75 -45.5t-26 -108.5q0 -72 58 -72z" />
    <glyph glyph-name="onethird" unicode="&#x2153;" horiz-adv-x="661" 
d="M26 0l526 666h75l-525 -666h-76zM127 340l52 267l-85 -23l-16 54l122 28h60l-64 -326h-69zM419 -6q-44 0 -66 10l20 55q25 -9 52 -9q42 0 68.5 14t26.5 41q0 43 -99 41l9 47q49 2 79.5 17t30.5 38q0 13 -12.5 20.5t-32.5 7.5q-38 0 -71 -20l-26 45q48 31 112 31
q50 0 76.5 -18.5t26.5 -48.5q0 -34 -25 -55.5t-64 -30.5v-1q30 -5 51 -23t21 -46q0 -53 -46 -84t-131 -31z" />
    <glyph glyph-name="twothirds" unicode="&#x2154;" horiz-adv-x="735" 
d="M100 0l526 666h75l-525 -666h-76zM46 340l7 38q122 86 151 113q54 50 55 88q0 36 -48 36q-40 0 -83 -31l-32 44q54 44 126 44q56 0 85.5 -21.5t29.5 -58.5q0 -49 -44.5 -94t-129.5 -103h3q3 0 8 0.5t10.5 1t12 0.5h11.5h110l-12 -57h-260zM493 -6q-44 0 -66 10l20 55
q25 -9 52 -9q42 0 68.5 14t26.5 41q0 43 -99 41l9 47q49 2 79.5 17t30.5 38q0 13 -12.5 20.5t-32.5 7.5q-38 0 -71 -20l-26 45q48 31 112 31q50 0 76.5 -18.5t26.5 -48.5q0 -34 -25 -55.5t-64 -30.5v-1q30 -5 51 -23t21 -46q0 -53 -46 -84t-131 -31z" />
    <glyph glyph-name="uni2155" unicode="&#x2155;" horiz-adv-x="654" 
d="M26 0l526 666h75l-525 -666h-76zM127 340l52 267l-85 -23l-16 54l122 28h60l-64 -326h-69zM414 -6q-40 0 -61 8l18 56q20 -8 49 -8q44 0 71 16t27 45q0 23 -24.5 35t-62.5 12q-27 0 -39 -3l37 171h187l-10 -57h-127l-13 -59q55 -3 91 -27t36 -65q0 -59 -46.5 -91.5
t-132.5 -32.5z" />
    <glyph glyph-name="uni2156" unicode="&#x2156;" horiz-adv-x="728" 
d="M100 0l526 666h75l-525 -666h-76zM46 340l7 38q122 86 151 113q54 50 55 88q0 36 -48 36q-40 0 -83 -31l-32 44q54 44 126 44q56 0 85.5 -21.5t29.5 -58.5q0 -49 -44.5 -94t-129.5 -103h3q3 0 8 0.5t10.5 1t12 0.5h11.5h110l-12 -57h-260zM488 -6q-40 0 -61 8l18 56
q20 -8 49 -8q44 0 71 16t27 45q0 23 -24.5 35t-62.5 12q-27 0 -39 -3l37 171h187l-10 -57h-127l-13 -59q55 -3 91 -27t36 -65q0 -59 -46.5 -91.5t-132.5 -32.5z" />
    <glyph glyph-name="uni2157" unicode="&#x2157;" horiz-adv-x="700" 
d="M72 0l526 666h75l-525 -666h-76zM116 334q-36 0 -66 10l20 55q22 -8 52 -8q43 0 69.5 13.5t26.5 40.5q0 44 -99 41l9 47q49 3 79 17.5t30 37.5q0 28 -44 28q-37 0 -71 -19l-26 44q48 31 112 31q50 0 76.5 -18.5t26.5 -48.5q0 -63 -89 -86v-1q30 -5 51 -23t21 -45
q0 -54 -46 -85t-132 -31zM460 -6q-40 0 -61 8l18 56q20 -8 49 -8q44 0 71 16t27 45q0 23 -24.5 35t-62.5 12q-27 0 -39 -3l37 171h187l-10 -57h-127l-13 -59q55 -3 91 -27t36 -65q0 -59 -46.5 -91.5t-132.5 -32.5z" />
    <glyph glyph-name="uni2158" unicode="&#x2158;" horiz-adv-x="719" 
d="M91 0l526 666h75l-525 -666h-76zM196 340l13 67h-173l8 46l220 213h65l-40 -205h54l-11 -54h-53l-13 -67h-70zM123 459q14 2 39 2h59l22 116h-1zM479 -6q-40 0 -61 8l18 56q20 -8 49 -8q44 0 71 16t27 45q0 23 -24.5 35t-62.5 12q-27 0 -39 -3l37 171h187l-10 -57h-127
l-13 -59q55 -3 91 -27t36 -65q0 -59 -46.5 -91.5t-132.5 -32.5z" />
    <glyph glyph-name="uni2159" unicode="&#x2159;" horiz-adv-x="692" 
d="M26 0l526 666h75l-525 -666h-76zM127 340l52 267l-85 -23l-16 54l122 28h60l-64 -326h-69zM497 -6q-62 0 -91 32.5t-29 82.5q0 99 75.5 161t189.5 62l9 -53q-138 -3 -191 -99q28 22 81 22q45 0 70.5 -22t25.5 -63q0 -54 -39.5 -88.5t-100.5 -34.5zM500 47q29 0 48 18
t19 45q0 19 -14 30t-36 11q-41 0 -69 -20q-1 -11 -1 -26q0 -27 14.5 -42.5t38.5 -15.5z" />
    <glyph glyph-name="uni215A" unicode="&#x215a;" horiz-adv-x="731" 
d="M65 0l526 666h75l-525 -666h-76zM111 334q-36 0 -60 8l17 56q19 -7 50 -7q44 0 71 15.5t27 45.5q0 23 -25 34.5t-62 11.5q-27 0 -40 -3l38 171h187l-10 -56h-127l-13 -60q55 -3 90.5 -26.5t35.5 -64.5q0 -60 -46.5 -92.5t-132.5 -32.5zM536 -6q-62 0 -91 32.5t-29 82.5
q0 99 75.5 161t189.5 62l9 -53q-138 -3 -191 -99q28 22 81 22q45 0 70.5 -22t25.5 -63q0 -54 -39.5 -88.5t-100.5 -34.5zM539 47q29 0 48 18t19 45q0 19 -14 30t-36 11q-41 0 -69 -20q-1 -11 -1 -26q0 -27 14.5 -42.5t38.5 -15.5z" />
    <glyph glyph-name="oneeighth" unicode="&#x215b;" horiz-adv-x="688" 
d="M26 0l526 666h75l-525 -666h-76zM127 340l52 267l-85 -23l-16 54l122 28h60l-64 -326h-69zM486 -6q-56 0 -88 21.5t-32 55.5q0 61 88 98q-44 29 -44 68q0 42 38 68.5t92 26.5q52 0 82 -19.5t30 -54.5q0 -52 -81 -87q57 -34 57 -75q0 -44 -38 -73t-104 -29zM491 45
q27 0 46.5 12t19.5 31q0 22 -54 51q-33 -14 -50 -27t-17 -33q0 -14 15.5 -24t39.5 -10zM520 199q22 10 32 15.5t20.5 15.5t10.5 21q0 13 -13 21.5t-34 8.5q-24 0 -41 -11t-17 -28q0 -8 7.5 -16.5t13.5 -13t21 -13.5z" />
    <glyph glyph-name="threeeighths" unicode="&#x215c;" horiz-adv-x="734" 
d="M72 0l526 666h75l-525 -666h-76zM116 334q-36 0 -66 10l20 55q22 -8 52 -8q43 0 69.5 13.5t26.5 40.5q0 44 -99 41l9 47q49 3 79 17.5t30 37.5q0 28 -44 28q-37 0 -71 -19l-26 44q48 31 112 31q50 0 76.5 -18.5t26.5 -48.5q0 -63 -89 -86v-1q30 -5 51 -23t21 -45
q0 -54 -46 -85t-132 -31zM532 -6q-56 0 -88 21.5t-32 55.5q0 61 88 98q-44 29 -44 68q0 42 38 68.5t92 26.5q52 0 82 -19.5t30 -54.5q0 -52 -81 -87q57 -34 57 -75q0 -44 -38 -73t-104 -29zM537 45q27 0 46.5 12t19.5 31q0 22 -54 51q-33 -14 -50 -27t-17 -33
q0 -14 15.5 -24t39.5 -10zM566 199q22 10 32 15.5t20.5 15.5t10.5 21q0 13 -13 21.5t-34 8.5q-24 0 -41 -11t-17 -28q0 -8 7.5 -16.5t13.5 -13t21 -13.5z" />
    <glyph glyph-name="fiveeighths" unicode="&#x215d;" horiz-adv-x="727" 
d="M65 0l526 666h75l-525 -666h-76zM111 334q-36 0 -60 8l17 56q19 -7 50 -7q44 0 71 15.5t27 45.5q0 23 -25 34.5t-62 11.5q-27 0 -40 -3l38 171h187l-10 -56h-127l-13 -60q55 -3 90.5 -26.5t35.5 -64.5q0 -60 -46.5 -92.5t-132.5 -32.5zM525 -6q-56 0 -88 21.5t-32 55.5
q0 61 88 98q-44 29 -44 68q0 42 38 68.5t92 26.5q52 0 82 -19.5t30 -54.5q0 -52 -81 -87q57 -34 57 -75q0 -44 -38 -73t-104 -29zM530 45q27 0 46.5 12t19.5 31q0 22 -54 51q-33 -14 -50 -27t-17 -33q0 -14 15.5 -24t39.5 -10zM559 199q22 10 32 15.5t20.5 15.5t10.5 21
q0 13 -13 21.5t-34 8.5q-24 0 -41 -11t-17 -28q0 -8 7.5 -16.5t13.5 -13t21 -13.5z" />
    <glyph glyph-name="seveneighths" unicode="&#x215e;" horiz-adv-x="695" 
d="M33 0l526 666h75l-525 -666h-76zM138 326l-55 26l157 255h-154l10 59h236l-7 -38zM493 -6q-56 0 -88 21.5t-32 55.5q0 61 88 98q-44 29 -44 68q0 42 38 68.5t92 26.5q52 0 82 -19.5t30 -54.5q0 -52 -81 -87q57 -34 57 -75q0 -44 -38 -73t-104 -29zM498 45q27 0 46.5 12
t19.5 31q0 22 -54 51q-33 -14 -50 -27t-17 -33q0 -14 15.5 -24t39.5 -10zM527 199q22 10 32 15.5t20.5 15.5t10.5 21q0 13 -13 21.5t-34 8.5q-24 0 -41 -11t-17 -28q0 -8 7.5 -16.5t13.5 -13t21 -13.5z" />
    <glyph glyph-name="uni215F" unicode="&#x215f;" horiz-adv-x="364" 
d="M26 0l526 666h75l-525 -666h-76zM127 340l52 267l-85 -23l-16 54l122 28h60l-64 -326h-69z" />
    <glyph glyph-name="uni2189" unicode="&#x2189;" horiz-adv-x="795" 
d="M160 0l526 666h75l-525 -666h-76zM213 334q-62 0 -92.5 36t-30.5 92q0 82 47 146t134 64q62 0 93 -35.5t31 -90.5q0 -86 -47.5 -149t-134.5 -63zM220 390q47 0 74 45.5t27 110.5q0 70 -57 70q-49 0 -75 -45.5t-26 -108.5q0 -34 15 -53t42 -19zM553 -6q-44 0 -66 10l20 55
q25 -9 52 -9q42 0 68.5 14t26.5 41q0 43 -99 41l9 47q49 2 79.5 17t30.5 38q0 13 -12.5 20.5t-32.5 7.5q-38 0 -71 -20l-26 45q48 31 112 31q50 0 76.5 -18.5t26.5 -48.5q0 -34 -25 -55.5t-64 -30.5v-1q30 -5 51 -23t21 -46q0 -53 -46 -84t-131 -31z" />
    <glyph glyph-name="partialdiff" unicode="&#x2202;" horiz-adv-x="611" 
d="M256 -12q-83 0 -138.5 51.5t-55.5 130.5q0 103 77 177.5t176 74.5q53 0 107 -13t80 -32q4 36 4 53q0 103 -70 152.5t-177 49.5l37 73h12q133 0 210.5 -67.5t77.5 -199.5q0 -73 -24.5 -151.5t-66.5 -145.5t-108 -110t-141 -43zM266 62q75 0 133.5 72t86.5 172
q-24 19 -73.5 32t-96.5 13q-67 0 -115.5 -50t-48.5 -119q0 -53 31 -86.5t83 -33.5z" />
    <glyph glyph-name="Delta" unicode="&#x2206;" horiz-adv-x="614" 
d="M103 76h346l-77 371q-8 46 -18 118h-2q-30 -72 -54 -118zM-7 0l10 56l326 610h84l130 -610l-10 -56h-540z" />
    <glyph glyph-name="product" unicode="&#x220f;" horiz-adv-x="697" 
d="M22 -224l150 852h-109l12 72h710l-12 -72h-109l-150 -852h-87l150 852h-318l-150 -852h-87z" />
    <glyph glyph-name="summation" unicode="&#x2211;" horiz-adv-x="499" 
d="M-96 -147l10 62l352 425l-194 375l10 62h492l-13 -75h-395l190 -359l-343 -414h426l-12 -76h-523z" />
    <glyph glyph-name="minus" unicode="&#x2212;" horiz-adv-x="550" 
d="M87 229l13 71h369l-13 -71h-369z" />
    <glyph glyph-name="uni2219" unicode="&#x2219;" horiz-adv-x="560" 
d="M279 135q-55 0 -93.5 39t-38.5 95t38.5 95.5t93.5 39.5q56 0 94.5 -39.5t38.5 -95.5t-38.5 -95t-94.5 -39z" />
    <glyph glyph-name="radical" unicode="&#x221a;" horiz-adv-x="523" 
d="M161 0l-100 481h84l70 -376h1l295 615h89l-360 -720h-79z" />
    <glyph glyph-name="infinity" unicode="&#x221e;" horiz-adv-x="840" 
d="M168 103q-67 0 -109 35t-42 92q0 76 65 132t146 56q49 0 96.5 -26.5t112.5 -84.5q163 111 248 111q65 0 107.5 -35t42.5 -91q0 -77 -64 -133t-149 -56q-86 0 -206 110q-94 -62 -147 -86t-101 -24zM187 173q53 0 180 85q-54 48 -88.5 68.5t-65.5 20.5q-45 0 -81 -30
t-36 -70q0 -34 26 -54t65 -20zM640 173q45 0 81 30t36 71q0 33 -25.5 53t-66.5 20q-54 0 -179 -86q100 -88 154 -88z" />
    <glyph glyph-name="integral" unicode="&#x222b;" horiz-adv-x="286" 
d="M-130 -235q-38 0 -82 22l40 71q32 -15 65 -15q97 0 123 139l101 577q15 85 74.5 140t150.5 55q39 0 81 -23l-43 -70q-30 15 -61 15q-49 0 -80 -39t-42 -99l-102 -578q-15 -85 -73.5 -140t-151.5 -55z" />
    <glyph glyph-name="approxequal" unicode="&#x2248;" horiz-adv-x="563" 
d="M56 129l-24 59q73 59 148 59q48 0 100 -29t87 -29q54 0 112 44l21 -60q-64 -58 -152 -58q-48 0 -101 29t-87 29q-51 0 -104 -44zM83 293l-24 58q69 60 148 60q48 0 99.5 -29t87.5 -29q54 0 112 44l21 -60q-67 -59 -152 -59q-48 0 -101 29t-87 29q-50 0 -104 -43z" />
    <glyph glyph-name="notequal" unicode="&#x2260;" horiz-adv-x="557" 
d="M114 -17l-51 31l96 124h-153l11 65h193l78 99h-253l11 65h293l104 132l53 -33l-81 -99h141l-12 -65h-181l-77 -99h241l-12 -65h-281z" />
    <glyph glyph-name="lessequal" unicode="&#x2264;" horiz-adv-x="496" 
d="M416 16l-401 204l11 60l474 204l-14 -78l-376 -156l320 -157zM-44 -122l12 72h437l-12 -72h-437z" />
    <glyph glyph-name="greaterequal" unicode="&#x2265;" horiz-adv-x="496" 
d="M-5 16l14 77l375 157l-320 156l14 78l400 -204l-10 -60zM-29 -122l12 72h437l-12 -72h-437z" />
    <glyph glyph-name="dotmath" unicode="&#x22c5;" horiz-adv-x="560" 
d="M280 201q-26 0 -44.5 18t-18.5 44t18.5 44t44.5 18t44.5 -18.5t18.5 -43.5t-18.5 -43.5t-44.5 -18.5z" />
    <glyph glyph-name="lozenge" unicode="&#x25ca;" horiz-adv-x="546" 
d="M203 -4l-198 327l314 350h54l198 -330l-311 -347h-57zM249 83l223 255l-144 242l-224 -254z" />
    <glyph glyph-name="uniFB00" unicode="&#xfb00;" horiz-adv-x="618" 
d="M-42 -233q-42 0 -86 18l26 68q32 -14 65 -14q72 0 93 116l85 461h-94l11 65h95l9 53q18 98 68.5 144t139.5 46q84 0 140 -42q50 50 132 50q66 0 118 -31l-36 -68q-40 25 -87 25t-69.5 -28t-32.5 -81l-12 -68h116l-11 -65h-118l-82 -458q-17 -94 -57.5 -138.5
t-120.5 -44.5q-46 0 -84 18l27 67q34 -14 62 -14q67 0 89 112l84 458h-204l-84 -461q-18 -97 -59 -142.5t-123 -45.5zM236 481h204l14 75q7 38 17 62q-41 32 -105 32q-56 0 -83 -28t-39 -95z" />
    <glyph glyph-name="fi" unicode="&#xfb01;" horiz-adv-x="544" 
d="M-43 -230q-42 0 -86 18l27 68q34 -14 64 -14q74 0 93 116l85 458h-93l11 65h93l14 72q33 179 211 179q85 0 142 -38l-37 -67q-51 31 -109 31q-57 0 -86 -26t-40 -87l-12 -64h275l-87 -481h-83l75 416h-192l-83 -458q-18 -97 -59 -142.5t-123 -45.5z" />
    <glyph glyph-name="fl" unicode="&#xfb02;" horiz-adv-x="548" 
d="M-43 -230q-42 0 -86 18l27 68q34 -14 64 -14q74 0 93 116l85 458h-93l11 65h93l14 75q17 91 69.5 133.5t142.5 42.5q99 0 174 -30l-126 -702h-84l117 647q-40 11 -88 11q-56 0 -84 -25.5t-39 -85.5l-13 -66h114l-11 -65h-115l-83 -458q-18 -97 -59 -142.5t-123 -45.5z
" />
    <glyph glyph-name="uniFB03" unicode="&#xfb03;" horiz-adv-x="833" 
d="M-42 -233q-42 0 -86 18l26 68q32 -14 65 -14q72 0 93 116l85 461h-94l11 65h95l9 53q18 98 68.5 144t139.5 46q86 0 143 -45q53 53 152 53q83 0 142 -38l-37 -67q-51 31 -109 31q-57 0 -86 -26t-40 -87l-12 -64h275l-87 -481h-84l75 416h-192l-82 -458
q-18 -97 -59 -142.5t-123 -45.5q-41 0 -85 18l26 68q30 -14 64 -14q72 0 93 116l84 458h-204l-84 -461q-18 -97 -59 -142.5t-123 -45.5zM236 481h205l12 72q5 31 19 64q-43 33 -106 33q-56 0 -83 -28t-39 -95z" />
    <glyph glyph-name="uniFB04" unicode="&#xfb04;" horiz-adv-x="836" 
d="M-42 -233q-42 0 -86 18l26 68q32 -14 65 -14q72 0 93 116l85 461h-94l11 65h95l9 53q18 98 68.5 144t139.5 46q82 0 143 -44q52 52 153 52q99 0 174 -30l-127 -702h-83l116 647q-40 11 -88 11q-56 0 -84.5 -25.5t-38.5 -85.5l-12 -66h114l-12 -65h-115l-82 -458
q-17 -94 -57.5 -138.5t-120.5 -44.5q-46 0 -84 18l27 67q34 -14 62 -14q67 0 89 112l84 458h-204l-84 -461q-18 -97 -59 -142.5t-123 -45.5zM236 481h204l14 75q6 34 18 61q-43 33 -106 33q-56 0 -83 -28t-39 -95z" />
    <glyph glyph-name="i.latn_TRK" horiz-adv-x="239" 
d="M186 569q-24 0 -41 17t-17 40q0 24 17 41t41 17t41 -17t17 -41q0 -23 -17 -40t-41 -17zM34 0l87 481h83l-87 -481h-83z" />
    <glyph glyph-name="Ldot.latn_CAT" horiz-adv-x="468" 
d="M47 0l119 666h88l-104 -591h253l-13 -75h-343zM386 291q-24 0 -41 18t-17 42q0 26 16.5 43.5t41.5 17.5q26 0 43 -17t17 -43q0 -25 -17.5 -43t-42.5 -18z" />
    <glyph glyph-name="ldot.latn_CAT" horiz-adv-x="339" 
d="M34 0l130 720h83l-130 -720h-83zM309 290q-24 0 -41 18t-17 42q0 26 16.5 43.5t41.5 17.5t42.5 -17.5t17.5 -42.5t-17.5 -43t-42.5 -18z" />
    <glyph glyph-name="parenleft.numr" horiz-adv-x="206" 
d="M141 284q-64 75 -64 164q0 51 16 97.5t42 80t47 54t43 37.5h70q-146 -119 -146 -269q0 -96 58 -164h-66z" />
    <glyph glyph-name="parenright.numr" horiz-adv-x="206" 
d="M9 284q147 117 147 269q0 93 -58 164h66q64 -75 64 -164q0 -51 -16 -97.5t-42 -80t-47 -54t-43 -37.5h-71z" />
    <glyph glyph-name="plus.numr" horiz-adv-x="329" 
d="M164 394l17 85h-98l11 53h97l17 83h56l-16 -83h96l-10 -53h-97l-18 -85h-55z" />
    <glyph glyph-name="zero.numr" horiz-adv-x="385" 
d="M213 334q-62 0 -92.5 36t-30.5 92q0 82 47 146t134 64q62 0 93 -35.5t31 -90.5q0 -86 -47.5 -149t-134.5 -63zM220 390q47 0 74 45.5t27 110.5q0 70 -57 70q-49 0 -75 -45.5t-26 -108.5q0 -34 15 -53t42 -19z" />
    <glyph glyph-name="one.numr" horiz-adv-x="251" 
d="M127 340l52 267l-85 -23l-16 54l122 28h60l-64 -326h-69z" />
    <glyph glyph-name="two.numr" horiz-adv-x="325" 
d="M46 340l7 38q122 86 151 113q54 50 55 88q0 36 -48 36q-40 0 -83 -31l-32 44q54 44 126 44q56 0 85.5 -21.5t29.5 -58.5q0 -49 -44.5 -94t-129.5 -103h3q3 0 8 0.5t10.5 1t12 0.5h11.5h110l-12 -57h-260z" />
    <glyph glyph-name="three.numr" horiz-adv-x="297" 
d="M116 334q-36 0 -66 10l20 55q22 -8 52 -8q43 0 69.5 13.5t26.5 40.5q0 44 -99 41l9 47q49 3 79 17.5t30 37.5q0 28 -44 28q-37 0 -71 -19l-26 44q48 31 112 31q50 0 76.5 -18.5t26.5 -48.5q0 -63 -89 -86v-1q30 -5 51 -23t21 -45q0 -54 -46 -85t-132 -31z" />
    <glyph glyph-name="four.numr" horiz-adv-x="316" 
d="M196 340l13 67h-173l8 46l220 213h65l-40 -205h54l-11 -54h-53l-13 -67h-70zM123 459q14 2 39 2h59l22 116h-1z" />
    <glyph glyph-name="five.numr" horiz-adv-x="290" 
d="M111 334q-36 0 -60 8l17 56q19 -7 50 -7q44 0 71 15.5t27 45.5q0 23 -25 34.5t-62 11.5q-27 0 -40 -3l38 171h187l-10 -56h-127l-13 -60q55 -3 90.5 -26.5t35.5 -64.5q0 -60 -46.5 -92.5t-132.5 -32.5z" />
    <glyph glyph-name="six.numr" horiz-adv-x="328" 
d="M195 334q-62 0 -91.5 32.5t-29.5 83.5q1 99 76 160.5t189 61.5l9 -53q-137 -2 -191 -98q30 22 82 22q45 0 70.5 -22.5t25.5 -62.5q0 -55 -39.5 -89.5t-100.5 -34.5zM197 387q29 0 48.5 18.5t19.5 44.5q0 19 -14.5 30t-35.5 11q-44 0 -69 -20q-1 -10 -1 -26
q0 -26 14.5 -42t37.5 -16z" />
    <glyph glyph-name="seven.numr" horiz-adv-x="288" 
d="M138 326l-55 26l157 255h-154l10 59h236l-7 -38z" />
    <glyph glyph-name="eight.numr" horiz-adv-x="324" 
d="M184 334q-56 0 -88 21.5t-32 55.5q0 61 88 98q-45 28 -45 68q0 42 38.5 68.5t92.5 26.5q51 0 81.5 -19t30.5 -54q0 -51 -81 -88q57 -32 57 -75q0 -44 -38 -73t-104 -29zM188 385q27 0 47 12.5t20 30.5q0 14 -13.5 25t-40.5 26q-33 -14 -50 -26.5t-17 -32.5q0 -15 15 -25
t39 -10zM218 540q20 9 31 14.5t21 15.5t10 21q0 13 -13 21.5t-34 8.5q-23 0 -40 -10.5t-17 -27.5q0 -20 42 -43z" />
    <glyph glyph-name="nine.numr" horiz-adv-x="332" 
d="M86 332l-10 54q64 0 115.5 25t73.5 74q-32 -21 -80 -21q-45 0 -71 22.5t-26 63.5q0 54 42 88t100 34q62 0 90.5 -32.5t28.5 -81.5q0 -100 -69.5 -163t-193.5 -63zM211 515q40 0 67 20q2 8 2 26q0 27 -15 42.5t-39 15.5q-28 0 -48 -19t-20 -44q0 -19 15 -30t38 -11z" />
    <glyph glyph-name="minus.numr" horiz-adv-x="307" 
d="M91 479l12 53h207l-12 -53h-207z" />
    <glyph glyph-name="parenleft.dnom" horiz-adv-x="206" 
d="M79 -56q-64 72 -64 164q0 51 16 97.5t42 80t47 54t43 37.5h71q-147 -117 -147 -269q0 -93 58 -164h-66z" />
    <glyph glyph-name="parenright.dnom" horiz-adv-x="206" 
d="M-52 -56q146 115 146 269q0 95 -57 164h65q64 -75 64 -164q0 -51 -16 -97.5t-41.5 -80t-47 -54.5t-43.5 -37h-70z" />
    <glyph glyph-name="plus.dnom" horiz-adv-x="329" 
d="M102 53l18 85h-98l10 53h97l17 84h56l-16 -84h97l-11 -53h-97l-17 -85h-56z" />
    <glyph glyph-name="zero.dnom" horiz-adv-x="385" 
d="M151 -6q-62 0 -92.5 36t-30.5 92q0 82 47.5 146t133.5 64q63 0 93.5 -35.5t30.5 -90.5q0 -87 -47.5 -149.5t-134.5 -62.5zM159 50q47 0 74 45.5t27 110.5q0 32 -15 51t-43 19q-49 0 -75 -45.5t-26 -108.5q0 -72 58 -72z" />
    <glyph glyph-name="one.dnom" horiz-adv-x="251" 
d="M65 0l52 267l-85 -23l-15 53l121 29h60l-63 -326h-70z" />
    <glyph glyph-name="two.dnom" horiz-adv-x="325" 
d="M-15 0l6 38q124 87 155 115q52 48 52 86q0 17 -14 26.5t-34 9.5q-43 0 -83 -32l-32 45q52 44 126 44q55 0 84.5 -21.5t29.5 -58.5q0 -49 -44.5 -94t-129.5 -104q6 3 46 3h109l-12 -57h-259z" />
    <glyph glyph-name="three.dnom" horiz-adv-x="297" 
d="M55 -6q-44 0 -66 10l20 55q25 -9 52 -9q42 0 68.5 14t26.5 41q0 43 -99 41l9 47q49 2 79.5 17t30.5 38q0 13 -12.5 20.5t-32.5 7.5q-38 0 -71 -20l-26 45q48 31 112 31q50 0 76.5 -18.5t26.5 -48.5q0 -34 -25 -55.5t-64 -30.5v-1q30 -5 51 -23t21 -46q0 -53 -46 -84
t-131 -31z" />
    <glyph glyph-name="four.dnom" horiz-adv-x="316" 
d="M135 0l12 67h-173l9 46l220 213h65l-41 -205h54l-11 -54h-52l-14 -67h-69zM61 119q14 2 39 2h59l23 115h-1z" />
    <glyph glyph-name="five.dnom" horiz-adv-x="290" 
d="M50 -6q-40 0 -61 8l18 56q20 -8 49 -8q44 0 71 16t27 45q0 23 -24.5 35t-62.5 12q-27 0 -39 -3l37 171h187l-10 -57h-127l-13 -59q55 -3 91 -27t36 -65q0 -59 -46.5 -91.5t-132.5 -32.5z" />
    <glyph glyph-name="six.dnom" horiz-adv-x="328" 
d="M133 -6q-62 0 -91 32.5t-29 82.5q0 99 75.5 161t189.5 62l9 -53q-138 -3 -191 -99q28 22 81 22q45 0 70.5 -22t25.5 -63q0 -54 -39.5 -88.5t-100.5 -34.5zM136 47q29 0 48 18t19 45q0 19 -14 30t-36 11q-41 0 -69 -20q-1 -11 -1 -26q0 -27 14.5 -42.5t38.5 -15.5z" />
    <glyph glyph-name="seven.dnom" horiz-adv-x="288" 
d="M76 -14l-55 25l157 256h-154l11 59h235l-7 -38z" />
    </font>
</defs>
</svg>
