<?xml version="1.0" standalone="no"?>
<!DOCTYPE svg PUBLIC "-//W3C//DTD SVG 1.1//EN" "http://www.w3.org/Graphics/SVG/1.1/DTD/svg11.dtd" >
<svg xmlns="http://www.w3.org/2000/svg" xmlns:xlink="http://www.w3.org/1999/xlink" version="1.1">
<metadata>
Created by FontForge 20170731 at Tue Mar 15 14:06:23 2011
 By Aleksey,,,
2005 Mike Abbink, Paul van der Laan published by FSI FontShop International GmbH
</metadata>
<defs>
<font id="KievitPro-ThinItalic" horiz-adv-x="216" >
  <font-face 
    font-family="KievitPro-ThinItalic"
    font-weight="250"
    font-style="italic"
    font-stretch="normal"
    units-per-em="1000"
    panose-1="2 11 4 4 2 1 1 2 1 2"
    ascent="760"
    descent="-240"
    x-height="474"
    cap-height="666"
    bbox="-413 -260 1107 926"
    underline-thickness="24"
    underline-position="-175"
    slope="-10"
    unicode-range="U+000D-FB04"
  />
<missing-glyph horiz-adv-x="507" 
d="M52 0v666h403v-666h-403zM76 24h355v618h-355v-618z" />
    <glyph glyph-name="f_b" unicode="fb" horiz-adv-x="753" 
d="M-54 -228q-51 0 -78 20l11 21q26 -17 71 -17q47 0 74 33.5t41 112.5l89 508h-98l5 24h97l15 82q15 86 64 130t128 44q67 0 130 -18l-43 -238q-25 -138 -44 -223h1q12 38 29 74t42 74t60 61.5t74 23.5q48 0 73.5 -35.5t25.5 -96.5q0 -66 -15.5 -128t-46.5 -115.5
t-83.5 -86t-118.5 -32.5q-48 0 -108 10l126 695q-50 11 -106 11q-135 0 -162 -154l-14 -78h130l-5 -24h-129l-90 -512q-15 -86 -50 -126t-95 -40zM458 14q73 0 127.5 53.5t78.5 127t24 150.5q0 115 -78 115q-44 0 -84 -38.5t-67.5 -97t-46 -116t-27.5 -108.5l-14 -79
q42 -7 87 -7z" />
    <glyph glyph-name="f_f" unicode="ff" horiz-adv-x="580" 
d="M-54 -228q-51 0 -78 20l11 21q26 -17 71 -17q47 0 74 33.5t41 112.5l89 508h-98l5 24h97l10 56q34 200 205 200q83 0 143 -48q43 48 115 48q59 0 107 -31l-13 -21q-43 28 -98 28q-56 0 -89.5 -36.5t-48.5 -116.5l-14 -79h130l-5 -24h-129l-90 -512q-15 -86 -50 -126
t-95 -40q-51 0 -78 20l11 21q26 -17 71 -17q47 0 74 33.5t41 112.5l89 508h-263l-90 -512q-15 -86 -50 -126t-95 -40zM185 474h263l15 83q12 66 38 106q-56 43 -132 43q-143 0 -175 -180z" />
    <glyph glyph-name="f_f_b" unicode="ffb" horiz-adv-x="1044" 
d="M-54 -228q-51 0 -78 20l11 21q26 -17 71 -17q47 0 74 33.5t41 112.5l89 508h-98l5 24h97l10 56q34 200 205 200q86 0 147 -51q50 51 135 51q67 0 130 -18l-42 -238q-25 -138 -44 -223h1q12 38 29 74t42 74t60 61.5t74 23.5q48 0 73.5 -35.5t25.5 -96.5q0 -66 -15.5 -128
t-46.5 -115.5t-83.5 -86t-118.5 -32.5q-48 0 -108 10l125 695q-50 11 -106 11q-135 0 -162 -154l-14 -78h130l-5 -24h-129l-90 -512q-15 -86 -50 -126t-95 -40q-51 0 -78 20l11 21q26 -17 71 -17q47 0 74 33.5t41 112.5l89 508h-263l-90 -512q-15 -86 -50 -126t-95 -40z
M749 14q73 0 127.5 53.5t78.5 127t24 150.5q0 115 -78 115q-44 0 -84 -38.5t-67.5 -97t-46 -116t-27.5 -108.5l-14 -79q42 -7 87 -7zM185 474h263l15 82q10 64 41 105q-58 45 -135 45q-143 0 -175 -180z" />
    <glyph glyph-name="f_f_h" unicode="ffh" horiz-adv-x="1087" 
d="M-54 -228q-51 0 -78 20l11 21q26 -17 71 -17q47 0 74 33.5t41 112.5l89 508h-98l5 24h97l10 56q34 200 205 200q86 0 147 -51q50 51 135 51q67 0 130 -18l-42 -238q-30 -168 -48 -244h1q9 30 21 59t33 66t44.5 64t58 46t72.5 19q46 0 70.5 -28t24.5 -77q0 -23 -4 -43
l-61 -336h-26l60 331q5 28 5 47q0 82 -73 82q-46 0 -88.5 -35t-73 -91.5t-52 -119.5t-33.5 -127l-16 -87h-26l125 695q-50 11 -106 11q-135 0 -162 -154l-14 -78h130l-5 -24h-129l-90 -512q-15 -86 -50 -126t-95 -40q-51 0 -78 20l11 21q26 -17 71 -17q47 0 74 33.5
t41 112.5l89 508h-263l-90 -512q-15 -86 -50 -126t-95 -40zM185 474h263l15 82q10 64 41 105q-58 45 -135 45q-143 0 -175 -180z" />
    <glyph glyph-name="f_f_i" unicode="ffi" horiz-adv-x="798" 
d="M-54 -228q-51 0 -78 20l11 21q26 -17 71 -17q47 0 74 33.5t41 112.5l89 508h-98l5 24h97l10 56q34 200 205 200q84 0 144 -48q45 48 124 48t130 -42l-13 -21q-48 39 -121 39q-120 0 -146 -144l-16 -88h271l-86 -474h-26l81 450h-244l-90 -512q-15 -86 -50 -126t-95 -40
q-51 0 -78 20l11 21q26 -17 71 -17q47 0 74 33.5t41 112.5l89 508h-263l-90 -512q-15 -86 -50 -126t-95 -40zM185 474h263l17 92q11 61 37 97q-58 43 -133 43q-143 0 -175 -180z" />
    <glyph glyph-name="f_f_j" unicode="ffj" horiz-adv-x="799" 
d="M-54 -228q-51 0 -78 20l11 21q26 -17 71 -17q47 0 74 33.5t41 112.5l89 508h-98l5 24h97l10 56q34 200 205 200q84 0 144 -48q45 48 124 48t130 -42l-13 -21q-48 39 -121 39q-120 0 -146 -144l-16 -88h271l-94 -536q-15 -85 -49 -125.5t-99 -40.5q-40 0 -68 17l11 21
q25 -14 61 -14q50 0 77.5 35.5t40.5 110.5l89 508h-244l-90 -512q-15 -86 -50 -126t-95 -40q-51 0 -78 20l11 21q26 -17 71 -17q47 0 74 33.5t41 112.5l89 508h-263l-90 -512q-15 -86 -50 -126t-95 -40zM185 474h263l17 92q11 61 37 97q-58 43 -133 43q-143 0 -175 -180z
" />
    <glyph glyph-name="f_f_k" unicode="ffk" horiz-adv-x="992" 
d="M-54 -228q-51 0 -78 20l11 21q26 -17 71 -17q47 0 74 33.5t41 112.5l89 508h-98l5 24h97l10 56q34 200 205 200q86 0 147 -51q50 51 135 51q67 0 130 -18l-127 -712h-26l125 695q-50 11 -106 11q-135 0 -162 -154l-14 -78h130l-5 -24h-129l-90 -512q-15 -86 -50 -126
t-95 -40q-51 0 -78 20l11 21q26 -17 71 -17q47 0 74 33.5t41 112.5l89 508h-263l-90 -512q-15 -86 -50 -126t-95 -40zM185 474h263l15 82q10 64 41 105q-58 45 -135 45q-143 0 -175 -180zM902 0l-192 270l257 204h41l-262 -208l189 -266h-33z" />
    <glyph glyph-name="f_f_l" unicode="ffl" horiz-adv-x="796" 
d="M-54 -228q-51 0 -78 20l11 21q26 -17 71 -17q47 0 74 33.5t41 112.5l89 508h-98l5 24h97l10 56q34 200 205 200q86 0 147 -51q50 51 135 51q67 0 130 -18l-127 -712h-26l125 695q-50 11 -106 11q-135 0 -162 -154l-14 -78h130l-5 -24h-129l-90 -512q-15 -86 -50 -126
t-95 -40q-51 0 -78 20l11 21q26 -17 71 -17q47 0 74 33.5t41 112.5l89 508h-263l-90 -512q-15 -86 -50 -126t-95 -40zM185 474h263l15 82q10 64 41 105q-58 45 -135 45q-143 0 -175 -180z" />
    <glyph glyph-name="f_h" unicode="fh" horiz-adv-x="796" 
d="M-54 -228q-51 0 -78 20l11 21q26 -17 71 -17q47 0 74 33.5t41 112.5l89 508h-98l5 24h97l15 82q15 86 64 130t128 44q67 0 130 -18l-43 -238q-30 -168 -48 -244h1q9 30 21 59t33 66t44.5 64t58 46t72.5 19q46 0 70.5 -28t24.5 -77q0 -23 -4 -43l-61 -336h-26l60 331
q5 28 5 47q0 82 -73 82q-46 0 -88.5 -35t-73 -91.5t-52 -119.5t-33.5 -127l-16 -87h-26l126 695q-50 11 -106 11q-135 0 -162 -154l-14 -78h130l-5 -24h-129l-90 -512q-15 -86 -50 -126t-95 -40z" />
    <glyph glyph-name="f_i" unicode="fi" horiz-adv-x="508" 
d="M-54 -228q-51 0 -78 20l11 21q26 -17 71 -17q47 0 74 33.5t41 112.5l89 508h-98l5 24h97l17 92q30 164 176 164q79 0 130 -42l-13 -21q-48 39 -121 39q-120 0 -146 -144l-16 -88h271l-86 -474h-26l81 450h-244l-90 -512q-15 -86 -50 -126t-95 -40z" />
    <glyph glyph-name="f_j" unicode="fj" horiz-adv-x="509" 
d="M-54 -228q-51 0 -78 20l11 21q26 -17 71 -17q47 0 74 33.5t41 112.5l89 508h-98l5 24h97l17 92q30 164 176 164q79 0 130 -42l-13 -21q-48 39 -121 39q-120 0 -146 -144l-16 -88h271l-94 -536q-15 -85 -49 -125.5t-99 -40.5q-40 0 -68 17l11 21q25 -14 61 -14
q50 0 77.5 35.5t40.5 110.5l89 508h-244l-90 -512q-15 -86 -50 -126t-95 -40z" />
    <glyph glyph-name="f_k" unicode="fk" horiz-adv-x="702" 
d="M-54 -228q-51 0 -78 20l11 21q26 -17 71 -17q47 0 74 33.5t41 112.5l89 508h-98l5 24h97l15 82q15 86 64 130t128 44q67 0 130 -18l-127 -712h-26l125 695q-50 11 -106 11q-135 0 -162 -154l-14 -78h130l-5 -24h-129l-90 -512q-15 -86 -50 -126t-95 -40zM612 0l-192 270
l257 204h41l-262 -208l189 -266h-33z" />
    <glyph glyph-name="f_l" unicode="fl" horiz-adv-x="506" 
d="M-54 -228q-51 0 -78 20l11 21q26 -17 71 -17q47 0 74 33.5t41 112.5l89 508h-98l5 24h97l15 82q15 86 64 130t128 44q67 0 130 -18l-127 -712h-26l125 695q-50 11 -106 11q-135 0 -162 -154l-14 -78h130l-5 -24h-129l-90 -512q-15 -86 -50 -126t-95 -40z" />
    <glyph glyph-name=".notdef" horiz-adv-x="507" 
d="M52 0v666h403v-666h-403zM76 24h355v618h-355v-618z" />
    <glyph glyph-name=".null" horiz-adv-x="0" 
 />
    <glyph glyph-name=".null" horiz-adv-x="0" 
 />
    <glyph glyph-name="nonmarkingreturn" horiz-adv-x="333" 
 />
    <glyph glyph-name="CR" unicode="&#xd;" horiz-adv-x="240" 
 />
    <glyph glyph-name="space" unicode=" " horiz-adv-x="240" 
 />
    <glyph glyph-name="exclam" unicode="!" horiz-adv-x="242" 
d="M78 -8q-9 0 -15.5 7t-6.5 17q0 13 8.5 22.5t20.5 9.5q9 0 15.5 -7t6.5 -17q0 -13 -8.5 -22.5t-20.5 -9.5zM99 158l85 508h30l-97 -508h-18z" />
    <glyph glyph-name="quotedbl" unicode="&#x22;" horiz-adv-x="238" 
d="M108 462l24 204h37l-43 -204h-18zM195 462l31 204h36l-49 -204h-18z" />
    <glyph glyph-name="numbersign" unicode="#" horiz-adv-x="473" 
d="M81 120l53 162h-107l7 24h108l45 139h-108l7 24h108l47 141h26l-47 -141h124l47 141h26l-47 -141h111l-7 -24h-111l-45 -139h111l-7 -24h-112l-53 -162h-26l53 162h-124l-53 -162h-26zM168 306h124l45 139h-124z" />
    <glyph glyph-name="dollar" unicode="$" horiz-adv-x="395" 
d="M114 -123l21 114q-71 5 -118 39l12 21q55 -37 125 -37q64 0 108.5 25t44.5 76q0 20 -8 36.5t-27.5 31.5t-32.5 23t-43 24q-27 15 -44 25.5t-37 27.5t-30 37t-10 43q0 55 41.5 86.5t107.5 34.5l19 105h26l-19 -106q67 -3 112 -37l-12 -21q-47 35 -118 35
q-57 0 -94.5 -24.5t-37.5 -70.5q0 -20 8 -36.5t27 -31.5t32.5 -23t42.5 -24q30 -16 44.5 -25t36.5 -26.5t31.5 -37.5t9.5 -44q0 -62 -49.5 -93t-121.5 -34l-21 -113h-26z" />
    <glyph glyph-name="percent" unicode="%" horiz-adv-x="628" 
d="M158 232q-44 0 -68 29.5t-24 66.5q0 66 39 112t96 46q44 0 68 -29.5t24 -66.5q0 -66 -39 -112t-96 -46zM162 255q45 0 76 39t31 92q0 31 -18 54t-54 23q-45 0 -76 -39t-31 -92q0 -31 18 -54t54 -23zM427 -12q-44 0 -68 29.5t-24 66.5q0 66 39 112t96 46q44 0 68 -29.5
t24 -66.5q0 -66 -39 -112t-96 -46zM431 11q45 0 76 39t31 92q0 31 -18 54t-54 23q-45 0 -76 -39t-31 -92q0 -31 18 -54t54 -23zM119 0l367 474h27l-368 -474h-26z" />
    <glyph glyph-name="ampersand" unicode="&#x26;" horiz-adv-x="655" 
d="M544 -89q-40 0 -76 28t-101 99q-88 -48 -174 -48q-74 0 -114.5 52.5t-40.5 131.5q0 120 67 215t171 95q44 0 75 -26t31 -68q0 -52 -53 -94t-114 -58l156 -171q54 33 96 77q69 70 109.5 159t40.5 173q0 96 -54.5 145.5t-153.5 69.5l7 21q102 -16 164.5 -72t62.5 -163
q0 -88 -43.5 -181.5t-116.5 -167.5q-41 -42 -96 -78q60 -66 92 -91t68 -25q34 0 66 25l11 -20q-37 -28 -80 -28zM195 14q80 0 156 42l-163 178l7 23q70 17 115.5 56t45.5 77q0 32 -23.5 51t-60.5 19q-59 0 -108.5 -44.5t-74.5 -108.5t-25 -129q0 -74 33.5 -119t97.5 -45z
" />
    <glyph glyph-name="quotesingle" unicode="'" horiz-adv-x="151" 
d="M108 462l31 204h36l-49 -204h-18z" />
    <glyph glyph-name="parenleft" unicode="(" horiz-adv-x="279" 
d="M174 -186q-48 60 -81 152.5t-33 180.5q0 169 76.5 325t200.5 248h24q-123 -93 -199.5 -250t-76.5 -323q0 -89 31.5 -178.5t81.5 -154.5h-24z" />
    <glyph glyph-name="parenright" unicode=")" horiz-adv-x="279" 
d="M-69 -186q123 93 199.5 250t76.5 323q0 89 -31.5 178.5t-81.5 154.5h24q48 -60 81 -152.5t33 -180.5q0 -169 -76.5 -325t-200.5 -248h-24z" />
    <glyph glyph-name="asterisk" unicode="*" horiz-adv-x="422" 
d="M139 365l-18 15l111 118l-134 44l12 23l131 -48l25 149h26l-29 -150l149 50l3 -26l-153 -45l70 -118l-20 -12l-65 120z" />
    <glyph glyph-name="plus" unicode="+" horiz-adv-x="594" 
d="M249 42l38 213h-198l5 24h198l36 203h26l-36 -203h198l-4 -24h-198l-39 -213h-26z" />
    <glyph glyph-name="comma" unicode="," horiz-adv-x="164" 
d="M2 -102l-11 8q42 47 42 80q0 6 -5 15.5t-5 15.5q0 13 9 22t20 9q9 0 15.5 -7t6.5 -17q0 -32 -23.5 -67.5t-48.5 -58.5z" />
    <glyph glyph-name="hyphen" unicode="-" horiz-adv-x="292" 
d="M62 280l5 24h180l-5 -24h-180z" />
    <glyph glyph-name="period" unicode="." horiz-adv-x="155" 
d="M35 -8q-9 0 -15.5 7t-6.5 17q0 13 8.5 22.5t20.5 9.5q9 0 15.5 -7t6.5 -17q0 -13 -8.5 -22.5t-20.5 -9.5z" />
    <glyph glyph-name="slash" unicode="/" horiz-adv-x="364" 
d="M3 0l361 666h26l-360 -666h-27z" />
    <glyph glyph-name="zero" unicode="0" horiz-adv-x="491" 
d="M203 -10q-81 0 -123 60.5t-42 140.5q0 71 28 137t87 111t135 45q81 0 123 -60.5t42 -140.5q0 -71 -28 -137t-87 -111t-135 -45zM207 14q98 0 159 83.5t61 180.5q0 72 -35.5 127t-107.5 55q-98 0 -159 -83.5t-61 -180.5q0 -72 35.5 -127t107.5 -55z" />
    <glyph glyph-name="one" unicode="1" horiz-adv-x="283" 
d="M104 0l80 447l-126 -45l-7 22l137 50h27l-85 -474h-26z" />
    <glyph glyph-name="two" unicode="2" horiz-adv-x="448" 
d="M1 0l2 14q20 15 60.5 45.5t60.5 45.5t53.5 42t50.5 43.5t39.5 41.5t33 44.5t18.5 43.5t8 47q0 41 -23.5 67t-70.5 26q-69 0 -137 -54l-11 17q76 61 154 61q54 0 84 -32t30 -81q0 -26 -8.5 -52t-19 -46.5t-33.5 -47t-38 -42t-48.5 -42.5t-49 -39t-54 -40.5t-50.5 -37.5
h314l-4 -24h-361z" />
    <glyph glyph-name="three" unicode="3" horiz-adv-x="403" 
d="M45 -188q-34 0 -68 8l6 23q28 -7 66 -7q95 0 163 53t68 141q0 66 -51.5 104.5t-136.5 38.5l4 23q47 0 98 20t89 59.5t38 87.5q0 43 -26 70t-73 27q-70 0 -135 -51l-11 16q72 59 150 59q55 0 88 -33.5t33 -83.5q0 -70 -55.5 -118.5t-120.5 -62.5v-1q50 -4 93 -45.5
t43 -104.5q0 -103 -77.5 -163t-184.5 -60z" />
    <glyph glyph-name="four" unicode="4" horiz-adv-x="526" 
d="M281 -177l32 177h-312l4 23l401 451h18l-81 -450h116l-4 -24h-116l-32 -177h-26zM37 24h280l71 393z" />
    <glyph glyph-name="five" unicode="5" horiz-adv-x="388" 
d="M30 -188q-39 0 -57 5l7 23q18 -4 56 -4q99 0 171 55t72 148q0 75 -48 122t-123 47q-25 0 -45 -2l54 268h254l-4 -24h-231l-42 -218h19q83 0 137.5 -54t54.5 -133q0 -109 -80 -171t-195 -62z" />
    <glyph glyph-name="six" unicode="6" horiz-adv-x="480" 
d="M216 -10q-58 0 -96 36.5t-52 85.5t-14 109q0 198 121 327.5t309 129.5h11l2 -23q-161 4 -272.5 -92t-137.5 -254q74 70 175 70q74 0 122.5 -43.5t48.5 -110.5q0 -102 -62 -168.5t-155 -66.5zM218 14q81 0 135 59.5t54 149.5q0 58 -41.5 95t-107.5 37q-89 0 -175 -72
q-3 -29 -3 -60q0 -39 7 -74t22 -66.5t43 -50t66 -18.5z" />
    <glyph glyph-name="seven" unicode="7" horiz-adv-x="420" 
d="M4 -196l-21 10l406 636h-340l4 24h367l-4 -24z" />
    <glyph glyph-name="eight" unicode="8" horiz-adv-x="490" 
d="M201 -10q-67 0 -108 39t-41 99q0 72 45 119t141 101q-54 38 -81.5 74.5t-27.5 81.5q0 77 52 124.5t133 47.5q62 0 99.5 -34t37.5 -87q0 -69 -41 -114.5t-126 -94.5q60 -42 90.5 -79.5t30.5 -84.5q0 -82 -58.5 -137t-145.5 -55zM205 14q72 0 123 49t51 114q0 44 -28.5 78
t-90.5 78q-94 -51 -138 -95t-44 -105q0 -51 34 -85t93 -34zM262 361q85 49 124 90t39 99q0 45 -30.5 73.5t-84.5 28.5q-67 0 -111 -41t-44 -102q0 -43 25.5 -75t81.5 -73z" />
    <glyph glyph-name="nine" unicode="9" horiz-adv-x="480" 
d="M-19 -188l-2 23q162 0 273 89t137 241q-74 -70 -172 -70q-74 0 -121 43.5t-47 110.5q0 103 58.5 169t150.5 66q84 0 124 -68.5t40 -162.5q0 -198 -123 -319.5t-318 -121.5zM221 119q84 0 171 71q4 25 4 61q0 85 -34 147t-106 62q-80 0 -130.5 -59t-50.5 -150
q0 -58 40 -95t106 -37z" />
    <glyph glyph-name="colon" unicode=":" horiz-adv-x="155" 
d="M35 -8q-9 0 -15.5 7t-6.5 17q0 13 8.5 22.5t20.5 9.5q9 0 15.5 -7t6.5 -17q0 -13 -8.5 -22.5t-20.5 -9.5zM116 426q-9 0 -15.5 7t-6.5 17q0 13 8.5 22.5t20.5 9.5q9 0 15.5 -7t6.5 -17q0 -13 -8.5 -22.5t-20.5 -9.5z" />
    <glyph glyph-name="semicolon" unicode=";" horiz-adv-x="167" 
d="M2 -102l-11 8q42 47 42 80q0 6 -5 15.5t-5 15.5q0 13 9 22t20 9q9 0 15.5 -7t6.5 -17q0 -32 -23.5 -67.5t-48.5 -58.5zM121 426q-9 0 -15.5 7t-6.5 17q0 13 8.5 22.5t20.5 9.5q9 0 15.5 -7t6.5 -17q0 -13 -8.5 -22.5t-20.5 -9.5z" />
    <glyph glyph-name="less" unicode="&#x3c;" horiz-adv-x="336" 
d="M230 34l-204 212l281 212l14 -20l-257 -195l185 -192z" />
    <glyph glyph-name="equal" unicode="=" horiz-adv-x="452" 
d="M21 183l5 24h380l-5 -24h-380zM48 328l4 24h380l-4 -24h-380z" />
    <glyph glyph-name="greater" unicode="&#x3e;" horiz-adv-x="336" 
d="M29 34l-14 20l257 195l-185 192l19 17l204 -212z" />
    <glyph glyph-name="question" unicode="?" horiz-adv-x="360" 
d="M93 158l12 68q9 51 36 84.5t78 64.5q115 69 115 171q0 52 -33.5 79t-94.5 27q-51 0 -86 -20l-6 22q38 22 97 22q68 0 108.5 -33.5t40.5 -91.5q0 -121 -130 -196q-48 -28 -70.5 -58t-30.5 -73l-12 -66h-24zM77 -8q-9 0 -15.5 7t-6.5 17q0 13 8.5 22.5t20.5 9.5
q9 0 15.5 -7t6.5 -17q0 -13 -8.5 -22.5t-20.5 -9.5z" />
    <glyph glyph-name="at" unicode="@" horiz-adv-x="712" 
d="M355 -80q-141 0 -225.5 92t-84.5 227q0 154 103 260.5t245 106.5q135 0 216 -80.5t81 -208.5q0 -83 -47 -157.5t-112 -74.5q-42 0 -64.5 34t-22.5 88q0 34 3 52h-1q-26 -73 -66.5 -123.5t-90.5 -50.5q-38 0 -59 34t-21 78q0 98 59 180.5t143 82.5q45 0 93 -25l-27 -109
q-12 -50 -12 -117q0 -42 18.5 -71t49.5 -29q54 0 92.5 67.5t38.5 138.5q0 120 -73 193.5t-200 73.5q-130 0 -225 -100t-95 -241q0 -125 78.5 -211t207.5 -86q41 0 86.5 10t69.5 23l10 -21q-64 -36 -168 -36zM291 109q101 0 181 296l4 15q-27 17 -68 17q-70 0 -121.5 -73.5
t-51.5 -164.5q0 -34 13.5 -62t42.5 -28z" />
    <glyph glyph-name="A" unicode="A" horiz-adv-x="569" 
d="M-16 0l362 666h32l121 -666h-26l-36 199h-317l-108 -199h-28zM133 223h299l-75 412z" />
    <glyph glyph-name="B" unicode="B" horiz-adv-x="538" 
d="M62 0l121 666h123q92 0 141 -34t49 -96q0 -77 -42.5 -123t-114.5 -58v-1q57 -11 92.5 -49.5t35.5 -92.5q0 -109 -73.5 -160.5t-203.5 -51.5h-128zM93 24h100q117 0 182.5 46t65.5 140q0 63 -49.5 97.5t-141.5 34.5h-100zM154 366h96q220 0 220 166q0 110 -170 110h-96z
" />
    <glyph glyph-name="C" unicode="C" horiz-adv-x="603" 
d="M331 -10q-120 0 -189 80.5t-69 199.5q0 166 108 286t271 120q100 0 162 -50l-17 -20q-60 46 -149 46q-146 0 -247.5 -113.5t-101.5 -262.5q0 -114 62 -188t174 -74q103 0 184 59l12 -19q-84 -64 -200 -64z" />
    <glyph glyph-name="D" unicode="D" horiz-adv-x="648" 
d="M62 0l121 666h118q141 0 226 -70t85 -194q0 -187 -119.5 -294.5t-310.5 -107.5h-120zM93 24h94q175 0 287 100t112 271q0 117 -77 182t-213 65h-92z" />
    <glyph glyph-name="E" unicode="E" horiz-adv-x="480" 
d="M62 0l121 666h300l-5 -24h-274l-49 -271h240l-4 -24h-240l-58 -323h281l-5 -24h-307z" />
    <glyph glyph-name="F" unicode="F" horiz-adv-x="473" 
d="M62 0l121 666h316l-5 -24h-290l-47 -261h249l-4 -24h-250l-64 -357h-26z" />
    <glyph glyph-name="G" unicode="G" horiz-adv-x="689" 
d="M331 -10q-124 0 -191 78.5t-67 201.5q0 108 48 200.5t136.5 149t196.5 56.5q112 0 177 -55l-15 -19q-62 50 -166 50q-146 0 -248.5 -113.5t-102.5 -262.5q0 -119 60 -190.5t176 -71.5q127 0 211 55l41 229h-166l4 24h192l-48 -265q-94 -67 -238 -67z" />
    <glyph glyph-name="H" unicode="H" horiz-adv-x="696" 
d="M62 0l121 666h26l-54 -299h434l54 299h26l-121 -666h-26l62 343h-434l-62 -343h-26z" />
    <glyph glyph-name="I" unicode="I" horiz-adv-x="236" 
d="M62 0l121 666h26l-121 -666h-26z" />
    <glyph glyph-name="J" unicode="J" horiz-adv-x="236" 
d="M-53 -179q-21 0 -31 5l9 24q8 -5 30 -5q80 0 105 138l123 683h26l-125 -690q-14 -75 -49 -115t-88 -40z" />
    <glyph glyph-name="K" unicode="K" horiz-adv-x="512" 
d="M425 0l-255 349l340 317h39l-345 -319l256 -347h-35zM62 0l121 666h26l-121 -666h-26z" />
    <glyph glyph-name="L" unicode="L" horiz-adv-x="436" 
d="M62 0l121 666h26l-116 -642h270l-5 -24h-296z" />
    <glyph glyph-name="M" unicode="M" horiz-adv-x="814" 
d="M27 0l204 666h28l110 -635l338 635h28l-34 -666h-25l31 613l-327 -613h-31l-107 615l-189 -615h-26z" />
    <glyph glyph-name="N" unicode="N" horiz-adv-x="668" 
d="M62 0l121 666h25l294 -624l113 624h26l-121 -666h-25l-294 622l-113 -622h-26z" />
    <glyph glyph-name="O" unicode="O" horiz-adv-x="725" 
d="M332 -10q-117 0 -188 82.5t-71 197.5q0 168 98.5 287t255.5 119q117 0 188.5 -82.5t71.5 -197.5q0 -168 -99 -287t-256 -119zM338 14q139 0 231 113t92 262q0 110 -65.5 186.5t-174.5 76.5q-139 0 -230.5 -113t-91.5 -262q0 -110 65 -186.5t174 -76.5z" />
    <glyph glyph-name="P" unicode="P" horiz-adv-x="484" 
d="M62 0l121 666h111q93 0 142.5 -41t49.5 -108q0 -98 -69 -157.5t-189 -59.5h-85l-55 -300h-26zM147 324h84q107 0 168 52.5t61 135.5q0 59 -43 94.5t-129 35.5h-84z" />
    <glyph glyph-name="Q" unicode="Q" horiz-adv-x="725" 
d="M321 -10q-13 0 -33 2q33 -55 87.5 -87.5t118.5 -32.5q78 0 135 42l10 -19q-60 -46 -149 -46q-153 0 -235 149q-89 22 -141 98.5t-52 173.5q0 168 98.5 287t255.5 119q117 0 188.5 -82.5t71.5 -197.5q0 -168 -99 -287t-256 -119zM327 14q139 0 231 113t92 262
q0 110 -65.5 186.5t-174.5 76.5q-139 0 -230.5 -113t-91.5 -262q0 -110 65 -186.5t174 -76.5z" />
    <glyph glyph-name="R" unicode="R" horiz-adv-x="525" 
d="M62 0l121 666h114q90 0 141 -36t51 -95q0 -90 -66.5 -142.5t-174.5 -52.5v-1q15 -7 48 -61l167 -278h-31l-159 266q-29 49 -44 61.5t-40 12.5h-39l-62 -340h-26zM154 364h87q101 0 161.5 45t60.5 121q0 52 -44 82t-128 30h-87z" />
    <glyph glyph-name="S" unicode="S" horiz-adv-x="440" 
d="M194 -10q-104 0 -176 78l15 18q67 -72 165 -72q70 0 109.5 40.5t39.5 101.5q0 51 -21.5 82.5t-77.5 83.5q-8 7 -12 11q-46 43 -65.5 63.5t-37.5 56t-18 75.5q0 67 45 107.5t119 40.5q80 0 137 -49l-14 -20q-51 45 -127 45q-61 0 -97.5 -33.5t-36.5 -88.5
q0 -51 21.5 -82.5t77.5 -83.5q8 -7 12 -11q46 -43 65.5 -63.5t37.5 -56t18 -75.5q0 -72 -47.5 -120t-131.5 -48z" />
    <glyph glyph-name="T" unicode="T" horiz-adv-x="450" 
d="M169 0l116 642h-191l5 24h408l-5 -24h-191l-116 -642h-26z" />
    <glyph glyph-name="U" unicode="U" horiz-adv-x="660" 
d="M286 -10q-99 0 -145 51t-46 136q0 39 7 74l75 415h26l-75 -413q-7 -36 -7 -75q0 -164 169 -164q204 0 248 239l75 413h26l-75 -415q-46 -261 -278 -261z" />
    <glyph glyph-name="V" unicode="V" horiz-adv-x="569" 
d="M226 0l-121 666h26l116 -635l345 635h28l-362 -666h-32z" />
    <glyph glyph-name="W" unicode="W" horiz-adv-x="847" 
d="M166 0l-54 666h26l49 -621l297 621h26l76 -618l277 618h28l-300 -666h-24l-77 622l-297 -622h-27z" />
    <glyph glyph-name="X" unicode="X" horiz-adv-x="512" 
d="M-7 0l271 349l-140 317h29l129 -293l228 293h34l-249 -321l153 -345h-30l-142 321l-250 -321h-33z" />
    <glyph glyph-name="Y" unicode="Y" horiz-adv-x="506" 
d="M202 0l46 250l-145 416h29l132 -386l272 386h33l-295 -416l-46 -250h-26z" />
    <glyph glyph-name="Z" unicode="Z" horiz-adv-x="540" 
d="M-3 0l5 27l505 615h-374l5 24h409l-4 -21l-513 -621h418l-5 -24h-446z" />
    <glyph glyph-name="bracketleft" unicode="[" horiz-adv-x="282" 
d="M20 -161l159 881h162l-4 -24h-136l-151 -833h136l-4 -24h-162z" />
    <glyph glyph-name="backslash" unicode="\" horiz-adv-x="365" 
d="M247 -161l-157 881h23l158 -881h-24z" />
    <glyph glyph-name="bracketright" unicode="]" horiz-adv-x="282" 
d="M-43 -161l4 24h135l151 833h-136l4 24h162l-159 -881h-161z" />
    <glyph glyph-name="asciicircum" unicode="^" horiz-adv-x="568" 
d="M75 288l273 378h28l135 -378h-26l-127 347l-253 -347h-30z" />
    <glyph glyph-name="underscore" unicode="_" horiz-adv-x="363" 
d="M-69 -139l4 24h365l-5 -24h-364z" />
    <glyph glyph-name="grave" unicode="`" horiz-adv-x="500" 
d="M290 539l-102 119h40l82 -119h-20z" />
    <glyph glyph-name="a" unicode="a" horiz-adv-x="468" 
d="M141 -10q-48 0 -74.5 35.5t-26.5 96.5q0 65 16 127.5t47.5 116t84.5 86t119 32.5q49 0 109 -10l-46 -256q-22 -120 -37 -218h-28q13 84 44 223h-1q-12 -37 -29 -73.5t-42.5 -74.5t-61 -61.5t-74.5 -23.5zM145 14q44 0 84.5 38.5t68.5 97t46.5 116.5t27.5 108l14 79
q-42 7 -88 7q-73 0 -128 -53.5t-80 -127t-25 -150.5q0 -115 80 -115z" />
    <glyph glyph-name="b" unicode="b" horiz-adv-x="464" 
d="M160 -10q-48 0 -108 10l129 720h26l-44 -246q-25 -138 -44 -223h1q12 38 29 74t42 74t60 61.5t74 23.5q48 0 73.5 -35.5t25.5 -96.5q0 -66 -15.5 -128t-46.5 -115.5t-83.5 -86t-118.5 -32.5zM169 14q73 0 127.5 53.5t78.5 127t24 150.5q0 115 -78 115q-44 0 -84 -38.5
t-67.5 -97t-46 -116t-27.5 -108.5l-14 -79q42 -7 87 -7z" />
    <glyph glyph-name="c" unicode="c" horiz-adv-x="387" 
d="M173 -10q-68 0 -101.5 51.5t-33.5 132.5q0 120 67 215t171 95q60 0 99 -31l-14 -20q-32 27 -89 27q-59 0 -108.5 -44.5t-74.5 -108.5t-25 -129q0 -164 113 -164q72 0 132 64l14 -18q-62 -70 -150 -70z" />
    <glyph glyph-name="d" unicode="d" horiz-adv-x="468" 
d="M141 -10q-48 0 -74.5 35.5t-26.5 96.5q0 65 16 127.5t47.5 116t84.5 86t119 32.5q28 0 84 -6l44 242h26l-91 -502q-22 -120 -37 -218h-28q13 84 44 223h-1q-12 -37 -29 -73.5t-42.5 -74.5t-61 -61.5t-74.5 -23.5zM145 14q44 0 84.5 38.5t68.5 97t46.5 116.5t27.5 108
l14 79q-42 7 -88 7q-73 0 -128 -53.5t-80 -127t-25 -150.5q0 -115 80 -115z" />
    <glyph glyph-name="e" unicode="e" horiz-adv-x="398" 
d="M173 -10q-68 0 -101.5 51.5t-33.5 132.5q0 120 67 215t171 95q44 0 75 -26t31 -68q0 -135 -317 -184q-1 -10 -1 -28q0 -164 113 -164q72 0 132 64l14 -18q-62 -70 -150 -70zM68 229q126 19 207 59.5t81 101.5q0 32 -23.5 51t-60.5 19q-77 0 -133 -69t-71 -162z" />
    <glyph glyph-name="f" unicode="f" horiz-adv-x="290" 
d="M-54 -228q-51 0 -78 20l11 21q26 -17 71 -17q47 0 74 33.5t41 112.5l89 508h-98l5 24h97l15 83q31 173 168 173q59 0 107 -31l-13 -21q-43 28 -98 28q-56 0 -89.5 -36.5t-48.5 -116.5l-14 -79h130l-5 -24h-129l-90 -512q-15 -86 -50 -126t-95 -40z" />
    <glyph glyph-name="g" unicode="g" horiz-adv-x="468" 
d="M107 -228q-72 0 -114 37l14 20q35 -33 106 -33q157 0 192 204q18 104 44 223h-1q-12 -37 -29 -73.5t-42.5 -74.5t-61 -61.5t-74.5 -23.5q-48 0 -74.5 35.5t-26.5 96.5q0 65 16 127.5t47.5 116t84.5 86t119 32.5q49 0 109 -10l-86 -479q-19 -108 -71 -165.5t-152 -57.5z
M145 14q44 0 84.5 38.5t68.5 97t46.5 116.5t27.5 108l14 79q-42 7 -88 7q-73 0 -128 -53.5t-80 -127t-25 -150.5q0 -115 80 -115z" />
    <glyph glyph-name="h" unicode="h" horiz-adv-x="507" 
d="M52 0l129 720h26l-44 -246q-30 -168 -48 -244h1q9 30 21 59t33 66t44.5 64t58 46t72.5 19q46 0 70.5 -28t24.5 -77q0 -23 -4 -43l-61 -336h-26l60 331q5 28 5 47q0 82 -73 82q-46 0 -88.5 -35t-73 -91.5t-52 -119.5t-33.5 -127l-16 -87h-26z" />
    <glyph glyph-name="i" unicode="i" 
d="M172 582q-9 0 -15.5 7t-6.5 17q0 13 8.5 22.5t20.5 9.5q9 0 15.5 -7t6.5 -17q0 -13 -8.5 -22.5t-20.5 -9.5zM52 0l86 474h26l-86 -474h-26z" />
    <glyph glyph-name="j" unicode="j" 
d="M-79 -228q-40 0 -68 17l11 21q24 -14 61 -14q50 0 77.5 35.5t40.5 110.5l93 532h27l-94 -536q-15 -85 -49 -125.5t-99 -40.5zM172 582q-9 0 -15.5 7t-6.5 17q0 13 8.5 22.5t20.5 9.5q9 0 15.5 -7t6.5 -17q0 -13 -8.5 -22.5t-20.5 -9.5z" />
    <glyph glyph-name="k" unicode="k" horiz-adv-x="412" 
d="M322 0l-192 270l257 204h41l-262 -208l189 -266h-33zM52 0l129 720h26l-129 -720h-26z" />
    <glyph glyph-name="l" unicode="l" 
d="M52 0l129 720h26l-129 -720h-26z" />
    <glyph glyph-name="m" unicode="m" horiz-adv-x="792" 
d="M52 0l85 474h26q-30 -168 -48 -244h1q12 40 28.5 76.5t44 80.5t67.5 70.5t86 26.5q91 0 91 -104q0 -21 -5 -48.5t-13 -61t-9 -40.5h1q12 40 28.5 76.5t44 80.5t67.5 70.5t86 26.5q45 0 68.5 -27.5t23.5 -76.5q0 -23 -4 -44l-61 -336h-26l60 331q5 30 5 49q0 80 -70 80
q-46 0 -87.5 -35t-71.5 -92t-51.5 -119.5t-33.5 -126.5l-16 -87h-26l60 331q5 30 5 49q0 80 -70 80q-46 0 -87.5 -35t-71.5 -92t-51.5 -119.5t-33.5 -126.5l-16 -87h-26z" />
    <glyph glyph-name="n" unicode="n" horiz-adv-x="507" 
d="M52 0l85 474h26q-30 -168 -48 -244h1q9 30 21 59t33 66t44.5 64t58 46t72.5 19q46 0 70.5 -28t24.5 -77q0 -23 -4 -43l-61 -336h-26l60 331q5 28 5 47q0 82 -73 82q-46 0 -88.5 -35t-73 -91.5t-52 -119.5t-33.5 -127l-16 -87h-26z" />
    <glyph glyph-name="o" unicode="o" horiz-adv-x="459" 
d="M184 -10q-51 0 -85.5 31t-47.5 71t-13 84q0 116 66 212t171 96q51 0 85.5 -31t47.5 -71t13 -84q0 -116 -66 -212t-171 -96zM190 14q60 0 108.5 45t72.5 107.5t24 124.5q0 69 -30 119t-96 50q-60 0 -108.5 -45t-72.5 -107.5t-24 -124.5q0 -69 30 -119t96 -50z" />
    <glyph glyph-name="p" unicode="p" horiz-adv-x="464" 
d="M13 -218l124 692h26q-25 -138 -44 -223h1q12 38 29 74t42 74t60 61.5t74 23.5q48 0 73.5 -35.5t25.5 -96.5q0 -66 -15.5 -128t-46.5 -115.5t-83.5 -86t-118.5 -32.5q-36 0 -83 7l-38 -215h-26zM169 14q73 0 127.5 53.5t78.5 127t24 150.5q0 115 -78 115q-44 0 -84 -38.5
t-67.5 -97t-46 -116t-27.5 -108.5l-14 -79q42 -7 87 -7z" />
    <glyph glyph-name="q" unicode="q" horiz-adv-x="468" 
d="M266 -218l39 218q18 104 44 223h-1q-12 -37 -29 -73.5t-42.5 -74.5t-61 -61.5t-74.5 -23.5q-48 0 -74.5 35.5t-26.5 96.5q0 65 16 127.5t47.5 116t84.5 86t119 32.5q49 0 109 -10l-124 -692h-26zM145 14q44 0 84.5 38.5t68.5 97t46.5 116.5t27.5 108l14 79q-42 7 -88 7
q-73 0 -128 -53.5t-80 -127t-25 -150.5q0 -115 80 -115z" />
    <glyph glyph-name="r" unicode="r" horiz-adv-x="320" 
d="M52 0l85 474h26q-30 -168 -48 -244h1q10 40 24.5 77t39.5 80.5t62.5 70t82.5 26.5q9 0 23 -2l-5 -24q-7 2 -22 2q-44 0 -82.5 -34.5t-66.5 -92.5t-47 -119t-31 -127l-16 -87h-26z" />
    <glyph glyph-name="s" unicode="s" horiz-adv-x="331" 
d="M126 -10q-73 0 -120 41l14 18q42 -35 110 -35q45 0 77.5 25t32.5 66q0 26 -11 48.5t-23.5 36t-45.5 44.5t-47.5 46.5t-27 41.5t-12.5 54q0 45 35.5 76.5t92.5 31.5q53 0 92 -30l-13 -19q-34 25 -83 25q-44 0 -71.5 -24.5t-27.5 -57.5q0 -26 11 -48.5t23.5 -36t45.5 -44.5
t47.5 -46.5t27 -41.5t12.5 -54q0 -54 -41 -85.5t-98 -31.5z" />
    <glyph glyph-name="t" unicode="t" horiz-adv-x="299" 
d="M139 -10q-62 0 -62 73q0 16 3 34l63 353h-89l5 24h89l24 135l27 4l-25 -139h117l-5 -24h-117l-63 -354q-4 -26 -4 -34q0 -48 41 -48q55 0 92 50l15 -18q-47 -56 -111 -56z" />
    <glyph glyph-name="u" unicode="u" horiz-adv-x="507" 
d="M162 -10q-46 0 -70.5 28t-24.5 77q0 23 4 43l61 336h26l-60 -331q-5 -28 -5 -47q0 -82 73 -82q46 0 88.5 35t73 91.5t52 119.5t33.5 127l16 87h26l-46 -256q-22 -120 -37 -218h-28q18 118 48 244h-1q-9 -30 -21 -59t-33 -66t-44.5 -64t-58 -46t-72.5 -19z" />
    <glyph glyph-name="v" unicode="v" horiz-adv-x="393" 
d="M137 0l-85 474h26l79 -444l239 444h29l-255 -474h-33z" />
    <glyph glyph-name="w" unicode="w" horiz-adv-x="656" 
d="M119 0l-59 474h26l53 -434l218 434h26l61 -434l210 434h26l-229 -474h-26l-62 434l-218 -434h-26z" />
    <glyph glyph-name="x" unicode="x" horiz-adv-x="407" 
d="M-12 0l203 247l-108 227h27l98 -206l169 206h33l-190 -231l116 -243h-27l-106 222l-183 -222h-32z" />
    <glyph glyph-name="y" unicode="y" horiz-adv-x="393" 
d="M-54 -228q-25 0 -45 9l7 22q16 -7 44 -7q52 0 90 44.5t96 152.5l-86 481h26l79 -444l239 444h29l-257 -477q-69 -129 -113.5 -177t-108.5 -48z" />
    <glyph glyph-name="z" unicode="z" horiz-adv-x="394" 
d="M-2 0l4 25l348 425h-264l4 24h293l-5 -27l-350 -423h290l-4 -24h-316z" />
    <glyph glyph-name="braceleft" unicode="{" horiz-adv-x="324" 
d="M158 -149q-36 0 -54.5 20.5t-18.5 56.5q0 15 3 30l37 202q2 14 2 21q0 41 -27.5 66.5t-63.5 25.5l5 25q41 0 80.5 31.5t48.5 81.5l38 205q9 49 35.5 76.5t71.5 27.5h68l-4 -24h-69q-63 0 -77 -80l-37 -209q-10 -54 -46.5 -84.5t-81.5 -36.5v-1q35 -5 60 -32.5t25 -68.5
q0 -6 -2 -22l-37 -207q-3 -13 -3 -26q0 -54 50 -54h69l-4 -24h-68z" />
    <glyph glyph-name="bar" unicode="|" horiz-adv-x="280" 
d="M44 -250l181 1000h16l-181 -1000h-16z" />
    <glyph glyph-name="braceright" unicode="}" horiz-adv-x="324" 
d="M-43 -150l4 24h69q63 0 77 80l37 209q10 54 46.5 84.5t81.5 36.5v1q-35 5 -60 32.5t-25 68.5q0 6 2 22l37 207q3 13 3 26q0 54 -50 54h-69l4 24h68q36 0 54.5 -20.5t18.5 -56.5q0 -15 -3 -30l-37 -202q-2 -14 -2 -21q0 -41 27.5 -66.5t63.5 -25.5l-5 -25
q-41 0 -80.5 -31.5t-48.5 -81.5l-38 -205q-9 -49 -35.5 -76.5t-71.5 -27.5h-68z" />
    <glyph glyph-name="asciitilde" unicode="~" horiz-adv-x="585" 
d="M397 189q-41 0 -77.5 19.5t-71.5 39.5t-72 20q-53 0 -108 -46l-10 18q56 52 122 52q33 0 63.5 -12.5t50.5 -27t48.5 -27t58.5 -12.5q53 0 108 46l10 -18q-56 -52 -122 -52z" />
    <glyph glyph-name="uni00A0" unicode="&#xa0;" horiz-adv-x="240" 
 />
    <glyph glyph-name="exclamdown" unicode="&#xa1;" horiz-adv-x="242" 
d="M158 426q-9 0 -15.5 7t-6.5 17q0 13 8.5 22.5t20.5 9.5q9 0 15.5 -7t6.5 -17q0 -13 -8.5 -22.5t-20.5 -9.5zM30 -192l97 508h18l-85 -508h-30z" />
    <glyph glyph-name="cent" unicode="&#xa2;" horiz-adv-x="391" 
d="M149 -123l21 113q-65 2 -97.5 53t-32.5 131q0 114 61.5 207t157.5 102l19 106h26l-19 -105q55 -1 92 -31l-14 -20q-32 27 -89 27q-59 0 -108.5 -44.5t-74.5 -108.5t-25 -129q0 -164 113 -164q72 0 132 64l14 -18q-56 -61 -129 -69l-21 -114h-26z" />
    <glyph glyph-name="sterling" unicode="&#xa3;" horiz-adv-x="436" 
d="M7 0l4 21q127 76 152 217q6 28 12 84h-96l4 24h93q8 102 18 164q13 76 54.5 121t111.5 45q65 0 102 -35l-15 -20q-33 31 -91 31q-56 0 -91 -38.5t-46 -101.5q-8 -45 -17 -166h153l-4 -24h-151q-6 -55 -11 -82q-28 -149 -139 -216h290l-5 -24h-328z" />
    <glyph glyph-name="currency" unicode="&#xa4;" horiz-adv-x="512" 
d="M33 -22l-14 15l99 104q-38 40 -38 97q0 97 82 157l-57 98l17 12l57 -98q47 28 102 28q50 0 88 -30l98 103l14 -15l-97 -101q41 -41 41 -99q0 -48 -23 -90t-62 -70l57 -96l-17 -12l-58 97q-44 -26 -98 -26q-52 0 -91 31zM226 76q68 0 120.5 50.5t52.5 118.5q0 52 -33.5 87
t-86.5 35q-68 0 -120.5 -50.5t-52.5 -118.5q0 -52 33.5 -87t86.5 -35z" />
    <glyph glyph-name="yen" unicode="&#xa5;" horiz-adv-x="480" 
d="M184 0l19 106h-156l4 24h157l17 95h-157l4 24h158l-145 417h29l132 -386l272 386h33l-296 -417h159l-4 -24h-159l-17 -95h159l-4 -24h-160l-19 -106h-26z" />
    <glyph glyph-name="brokenbar" unicode="&#xa6;" horiz-adv-x="156" 
d="M-18 -250l69 378h16l-69 -378h-16zM96 382l67 368h16l-67 -368h-16z" />
    <glyph glyph-name="section" unicode="&#xa7;" horiz-adv-x="448" 
d="M142 -153q-60 0 -93 35l15 19q30 -30 83 -30q49 0 84 40.5t35 90.5q0 28 -12 60t-25.5 53.5t-41.5 63.5q-81 119 -81 185q0 44 26.5 83t56.5 57q-14 36 -14 68q0 65 43 111.5t106 46.5q60 0 93 -35l-15 -19q-30 30 -83 30q-49 0 -84 -40.5t-35 -90.5q0 -28 12 -60
t25.5 -53.5t41.5 -63.5q81 -119 81 -185q0 -45 -26.5 -84t-56.5 -57q14 -38 14 -67q0 -65 -43 -111.5t-106 -46.5zM268 93q26 19 46.5 51.5t20.5 65.5q0 28 -12 60t-25.5 53.5t-41.5 63.5q-44 64 -58 96q-26 -19 -46.5 -51t-20.5 -65q0 -28 12 -60t25.5 -53.5t41.5 -63.5
q39 -57 58 -97z" />
    <glyph glyph-name="dieresis" unicode="&#xa8;" horiz-adv-x="500" 
d="M234 549q-9 0 -16 7.5t-7 17.5t7 17.5t16 7.5t16 -7.5t7 -17.5t-7 -17.5t-16 -7.5zM382 549q-9 0 -16 7.5t-7 17.5t7 17.5t16 7.5t16 -7.5t7 -17.5t-7 -17.5t-16 -7.5z" />
    <glyph glyph-name="copyright" unicode="&#xa9;" horiz-adv-x="833" 
d="M449 120q-98 0 -161.5 69.5t-63.5 170.5t63.5 170.5t161.5 69.5q78 0 131 -47l-15 -18q-48 41 -116 41q-85 0 -142 -63.5t-57 -152.5t57 -152.5t142 -63.5q39 0 77.5 14.5t59.5 32.5l12 -20q-23 -20 -63.5 -35.5t-85.5 -15.5zM443 -10q-154 0 -260 107t-106 262
t106.5 263t259.5 108t259.5 -108t106.5 -263t-106 -262t-260 -107zM443 14q143 0 241.5 100t98.5 245t-98.5 246t-241.5 101t-241.5 -101t-98.5 -246t98.5 -245t241.5 -100z" />
    <glyph glyph-name="ordfeminine" unicode="&#xaa;" horiz-adv-x="331" 
d="M134 318q-35 0 -53.5 28t-18.5 67q0 103 57 183t150 80q40 0 84 -12l-36 -197q-12 -66 -24 -144h-24q16 95 27 145h-1q-22 -60 -66.5 -105t-94.5 -45zM139 340q58 0 107 74t63 152l14 79q-35 7 -60 7q-79 0 -127.5 -71.5t-48.5 -163.5q0 -31 13 -54t39 -23z" />
    <glyph glyph-name="guillemotleft" unicode="&#xab;" horiz-adv-x="423" 
d="M158 58l-109 188l176 187h31l-178 -190l108 -185h-28zM301 58l-109 188l176 187h31l-178 -190l108 -185h-28z" />
    <glyph glyph-name="logicalnot" unicode="&#xac;" horiz-adv-x="558" 
d="M435 54l37 203h-431l4 24h457l-41 -227h-26z" />
    <glyph glyph-name="uni00AD" unicode="&#xad;" horiz-adv-x="292" 
d="M62 280l5 24h180l-5 -24h-180z" />
    <glyph glyph-name="registered" unicode="&#xae;" horiz-adv-x="833" 
d="M332 120v480h109q63 0 101 -36.5t38 -85.5t-38 -85t-101 -36h-16q20 -15 44 -49l142 -188h-34l-133 180q-27 37 -41 47t-45 10v-237h-26zM443 -10q-154 0 -260 107t-106 262t106.5 263t259.5 108t259.5 -108t106.5 -263t-106 -262t-260 -107zM443 14q143 0 241.5 100
t98.5 245t-98.5 246t-241.5 101t-241.5 -101t-98.5 -246t98.5 -245t241.5 -100zM358 381h81q53 0 84 28.5t31 67.5q0 40 -31 68.5t-84 28.5h-81v-193z" />
    <glyph glyph-name="macron" unicode="&#xaf;" horiz-adv-x="500" 
d="M178 589l5 24h263l-5 -24h-263z" />
    <glyph glyph-name="degree" unicode="&#xb0;" horiz-adv-x="344" 
d="M229 432q-51 0 -83 36t-32 85q0 50 32.5 86.5t84.5 36.5q51 0 83 -36t32 -85q0 -50 -32.5 -86.5t-84.5 -36.5zM230 455q42 0 66.5 28t24.5 71t-24.5 71t-66.5 28t-66.5 -28t-24.5 -71t24.5 -71t66.5 -28z" />
    <glyph glyph-name="plusminus" unicode="&#xb1;" horiz-adv-x="594" 
d="M249 42l38 214h-198l5 24h198l36 202h26l-36 -202h198l-4 -24h-198l-39 -214h-26zM34 -79l4 24h410l-4 -24h-410z" />
    <glyph glyph-name="twosuperior" unicode="&#xb2;" horiz-adv-x="270" 
d="M51 349l3 14q14 12 45 38t45 38t38 34t35 35t24.5 30.5t18.5 32.5t5 30q0 48 -57 48q-52 0 -91 -37l-11 16q43 43 105 43q36 0 57.5 -18.5t21.5 -49.5q0 -16 -5 -32.5t-19.5 -35.5t-24 -31.5t-35 -35.5t-35 -31.5t-41.5 -34.5t-38 -31h171l-4 -22h-208z" />
    <glyph glyph-name="threesuperior" unicode="&#xb3;" horiz-adv-x="243" 
d="M107 344q-36 0 -54 8l5 20q20 -6 51 -6q48 0 82 22t34 59q0 32 -34 48t-79 15l3 19q44 2 86 24t42 54q0 42 -53 42q-50 0 -86 -28l-12 15q41 35 101 35q34 0 54.5 -17t20.5 -45q0 -34 -32 -57t-69 -31v-1q30 -2 56.5 -21.5t26.5 -50.5q0 -50 -41.5 -77t-101.5 -27z" />
    <glyph glyph-name="acute" unicode="&#xb4;" horiz-adv-x="500" 
d="M144 539l124 119h41l-144 -119h-21z" />
    <glyph glyph-name="mu" unicode="&#xb5;" horiz-adv-x="511" 
d="M13 -205l123 679h26l-60 -331q-5 -28 -5 -47q0 -82 73 -82q46 0 88.5 35t73 91.5t52 119.5t33.5 127l16 87h26l-46 -256q-22 -120 -37 -218h-28q18 118 48 244h-1q-9 -30 -21 -59t-33 -66t-44.5 -64t-58 -46t-72.5 -19q-35 0 -57 18t-28 48q-4 -43 -19 -133l-23 -128h-26
z" />
    <glyph glyph-name="paragraph" unicode="&#xb6;" horiz-adv-x="595" 
d="M184 -177l85 469q-68 0 -112 42.5t-44 110.5q0 96 65 158.5t159 62.5h261l-5 -24h-84l-148 -819h-26l148 819h-125l-148 -819h-26z" />
    <glyph glyph-name="periodcentered" unicode="&#xb7;" horiz-adv-x="154" 
d="M77 262q-10 0 -17.5 8.5t-7.5 19.5t7.5 19.5t17.5 8.5t17.5 -8.5t7.5 -19.5t-7.5 -19.5t-17.5 -8.5z" />
    <glyph glyph-name="cedilla" unicode="&#xb8;" horiz-adv-x="500" 
d="M163 -210q-37 0 -57 12l8 22q20 -11 49 -11q63 0 63 48q0 42 -76 42l40 103h22l-31 -83q31 -2 50.5 -19.5t19.5 -42.5q0 -33 -25 -52t-63 -19z" />
    <glyph glyph-name="onesuperior" unicode="&#xb9;" horiz-adv-x="192" 
d="M119 349l51 294l-80 -26l-5 20l92 29h22l-57 -317h-23z" />
    <glyph glyph-name="ordmasculine" unicode="&#xba;" horiz-adv-x="358" 
d="M191 316q-58 0 -87.5 40.5t-29.5 98.5q0 84 48 152.5t130 68.5q58 0 87.5 -40.5t29.5 -98.5q0 -84 -48 -152.5t-130 -68.5zM194 340q67 0 107.5 61.5t40.5 131.5q0 50 -23 84.5t-70 34.5q-67 0 -107.5 -61.5t-40.5 -131.5q0 -50 23 -84.5t70 -34.5z" />
    <glyph glyph-name="guillemotright" unicode="&#xbb;" horiz-adv-x="423" 
d="M21 59l178 190l-108 185h28l109 -188l-176 -187h-31zM164 59l178 190l-108 185h28l109 -188l-176 -187h-31z" />
    <glyph glyph-name="onequarter" unicode="&#xbc;" horiz-adv-x="667" 
d="M487 0l13 76h-164l3 20l203 221h25l-40 -219h45l-4 -22h-44l-14 -76h-23zM219 349l51 294l-80 -26l-5 20l92 29h22l-57 -317h-23zM85 0l514 666h29l-515 -666h-28zM368 98h136l32 180z" />
    <glyph glyph-name="onehalf" unicode="&#xbd;" horiz-adv-x="671" 
d="M363 0l3 14q14 12 45 38t45 38t38 34t35 35t24.5 30.5t18.5 32.5t5 30q0 48 -57 48q-52 0 -91 -37l-11 16q43 43 105 43q36 0 57.5 -18.5t21.5 -49.5q0 -16 -5 -32.5t-19.5 -35.5t-24 -31.5t-35 -35.5t-35 -31.5t-41.5 -34.5t-38 -31h171l-4 -22h-208zM219 349l51 294
l-80 -26l-5 20l92 29h22l-57 -317h-23zM85 0l514 666h29l-515 -666h-28z" />
    <glyph glyph-name="threequarters" unicode="&#xbe;" horiz-adv-x="635" 
d="M124 344q-36 0 -54 8l5 20q20 -6 51 -6q48 0 82 22t34 59q0 32 -34 48t-79 15l3 19q44 2 86 24t42 54q0 42 -53 42q-50 0 -86 -28l-12 15q41 35 101 35q34 0 54.5 -17t20.5 -45q0 -34 -32 -57t-69 -31v-1q30 -2 56.5 -21.5t26.5 -50.5q0 -50 -41.5 -77t-101.5 -27zM455 0
l13 76h-164l3 20l203 221h25l-40 -219h45l-4 -22h-44l-14 -76h-23zM53 0l514 666h29l-515 -666h-28zM336 98h136l32 180z" />
    <glyph glyph-name="questiondown" unicode="&#xbf;" horiz-adv-x="360" 
d="M143 -200q-68 0 -108.5 33.5t-40.5 91.5q0 121 130 196q48 28 70.5 58t30.5 73l12 66h24l-12 -68q-9 -51 -36 -84.5t-78 -64.5q-115 -69 -115 -171q0 -52 33.5 -79t94.5 -27q51 0 86 20l6 -22q-39 -22 -97 -22zM270 426q-9 0 -15.5 7t-6.5 17q0 13 8.5 22.5t20.5 9.5
q9 0 15.5 -7t6.5 -17q0 -13 -8.5 -22.5t-20.5 -9.5z" />
    <glyph glyph-name="Agrave" unicode="&#xc0;" horiz-adv-x="569" 
d="M-16 0l362 666h32l121 -666h-26l-36 199h-317l-108 -199h-28zM133 223h299l-75 412zM358 731l-102 119h40l82 -119h-20z" />
    <glyph glyph-name="Aacute" unicode="&#xc1;" horiz-adv-x="569" 
d="M-16 0l362 666h32l121 -666h-26l-36 199h-317l-108 -199h-28zM133 223h299l-75 412zM359 731l124 119h41l-144 -119h-21z" />
    <glyph glyph-name="Acircumflex" unicode="&#xc2;" horiz-adv-x="569" 
d="M-16 0l362 666h32l121 -666h-26l-36 199h-317l-108 -199h-28zM133 223h299l-75 412zM249 732l141 140h8l92 -140h-23l-77 107l-114 -107h-27z" />
    <glyph glyph-name="Atilde" unicode="&#xc3;" horiz-adv-x="569" 
d="M-16 0l362 666h32l121 -666h-26l-36 199h-317l-108 -199h-28zM133 223h299l-75 412zM422 742q-22 0 -48.5 22.5t-43.5 22.5q-28 0 -60 -34l-12 15q34 40 76 40q22 0 48.5 -22.5t43.5 -22.5q32 0 60 34l12 -16q-33 -39 -76 -39z" />
    <glyph glyph-name="Adieresis" unicode="&#xc4;" horiz-adv-x="569" 
d="M-16 0l362 666h32l121 -666h-26l-36 199h-317l-108 -199h-28zM133 223h299l-75 412zM300 741q-9 0 -16 7.5t-7 17.5t7 17.5t16 7.5t16 -7.5t7 -17.5t-7 -17.5t-16 -7.5zM448 741q-9 0 -16 7.5t-7 17.5t7 17.5t16 7.5t16 -7.5t7 -17.5t-7 -17.5t-16 -7.5z" />
    <glyph glyph-name="Aring" unicode="&#xc5;" horiz-adv-x="569" 
d="M-16 0l362 666h32l121 -666h-26l-36 199h-317l-108 -199h-28zM133 223h299l-75 412zM375 698q-36 0 -59.5 26t-23.5 60q0 36 24 62t61 26q36 0 59.5 -26t23.5 -60q0 -36 -24 -62t-61 -26zM377 719q27 0 43.5 20t16.5 45q0 26 -17 46.5t-45 20.5q-27 0 -43.5 -20
t-16.5 -45q0 -26 17 -46.5t45 -20.5z" />
    <glyph glyph-name="AE" unicode="&#xc6;" horiz-adv-x="780" 
d="M-59 0l522 666h320l-5 -24h-272l-49 -271h238l-4 -24h-238l-58 -323h279l-5 -24h-305l35 196h-275l-153 -196h-30zM143 220h261l78 432z" />
    <glyph glyph-name="Ccedilla" unicode="&#xc7;" horiz-adv-x="603" 
d="M296 -210q-37 0 -57 12l8 22q20 -11 49 -11q63 0 63 48q0 42 -76 42l34 87q-114 5 -179 84.5t-65 195.5q0 166 108 286t271 120q100 0 162 -50l-17 -20q-60 46 -149 46q-146 0 -247.5 -113.5t-101.5 -262.5q0 -114 62 -188t174 -74q103 0 184 59l12 -19q-79 -61 -192 -64
l-25 -67q31 -2 50.5 -19.5t19.5 -42.5q0 -33 -25 -52t-63 -19z" />
    <glyph glyph-name="Egrave" unicode="&#xc8;" horiz-adv-x="480" 
d="M62 0l121 666h300l-5 -24h-274l-49 -271h240l-4 -24h-240l-58 -323h281l-5 -24h-307zM315 731l-102 119h40l82 -119h-20z" />
    <glyph glyph-name="Eacute" unicode="&#xc9;" horiz-adv-x="480" 
d="M62 0l121 666h300l-5 -24h-274l-49 -271h240l-4 -24h-240l-58 -323h281l-5 -24h-307zM316 731l124 119h41l-144 -119h-21z" />
    <glyph glyph-name="Ecircumflex" unicode="&#xca;" horiz-adv-x="480" 
d="M62 0l121 666h300l-5 -24h-274l-49 -271h240l-4 -24h-240l-58 -323h281l-5 -24h-307zM206 732l141 140h8l92 -140h-23l-77 107l-114 -107h-27z" />
    <glyph glyph-name="Edieresis" unicode="&#xcb;" horiz-adv-x="480" 
d="M62 0l121 666h300l-5 -24h-274l-49 -271h240l-4 -24h-240l-58 -323h281l-5 -24h-307zM257 741q-9 0 -16 7.5t-7 17.5t7 17.5t16 7.5t16 -7.5t7 -17.5t-7 -17.5t-16 -7.5zM405 741q-9 0 -16 7.5t-7 17.5t7 17.5t16 7.5t16 -7.5t7 -17.5t-7 -17.5t-16 -7.5z" />
    <glyph glyph-name="Igrave" unicode="&#xcc;" horiz-adv-x="236" 
d="M62 0l121 666h26l-121 -666h-26zM197 731l-102 119h40l82 -119h-20z" />
    <glyph glyph-name="Iacute" unicode="&#xcd;" horiz-adv-x="236" 
d="M62 0l121 666h26l-121 -666h-26zM198 731l124 119h41l-144 -119h-21z" />
    <glyph glyph-name="Icircumflex" unicode="&#xce;" horiz-adv-x="236" 
d="M62 0l121 666h26l-121 -666h-26zM88 732l141 140h8l92 -140h-23l-77 107l-114 -107h-27z" />
    <glyph glyph-name="Idieresis" unicode="&#xcf;" horiz-adv-x="236" 
d="M62 0l121 666h26l-121 -666h-26zM139 741q-9 0 -16 7.5t-7 17.5t7 17.5t16 7.5t16 -7.5t7 -17.5t-7 -17.5t-16 -7.5zM287 741q-9 0 -16 7.5t-7 17.5t7 17.5t16 7.5t16 -7.5t7 -17.5t-7 -17.5t-16 -7.5z" />
    <glyph glyph-name="Eth" unicode="&#xd0;" horiz-adv-x="660" 
d="M74 0l61 335h-73l5 24h72l56 307h118q141 0 226 -70t85 -194q0 -187 -119.5 -294.5t-310.5 -107.5h-120zM105 24h94q175 0 287 100t112 271q0 117 -77 182t-213 65h-92l-51 -283h124l-5 -24h-124z" />
    <glyph glyph-name="Ntilde" unicode="&#xd1;" horiz-adv-x="668" 
d="M62 0l121 666h25l294 -624l113 624h26l-121 -666h-25l-294 622l-113 -622h-26zM479 742q-22 0 -48.5 22.5t-43.5 22.5q-28 0 -60 -34l-12 15q34 40 76 40q22 0 48.5 -22.5t43.5 -22.5q32 0 60 34l12 -16q-33 -39 -76 -39z" />
    <glyph glyph-name="Ograve" unicode="&#xd2;" horiz-adv-x="725" 
d="M332 -10q-117 0 -188 82.5t-71 197.5q0 168 98.5 287t255.5 119q117 0 188.5 -82.5t71.5 -197.5q0 -168 -99 -287t-256 -119zM338 14q139 0 231 113t92 262q0 110 -65.5 186.5t-174.5 76.5q-139 0 -230.5 -113t-91.5 -262q0 -110 65 -186.5t174 -76.5zM420 731l-102 119
h40l82 -119h-20z" />
    <glyph glyph-name="Oacute" unicode="&#xd3;" horiz-adv-x="725" 
d="M332 -10q-117 0 -188 82.5t-71 197.5q0 168 98.5 287t255.5 119q117 0 188.5 -82.5t71.5 -197.5q0 -168 -99 -287t-256 -119zM338 14q139 0 231 113t92 262q0 110 -65.5 186.5t-174.5 76.5q-139 0 -230.5 -113t-91.5 -262q0 -110 65 -186.5t174 -76.5zM421 731l124 119
h41l-144 -119h-21z" />
    <glyph glyph-name="Ocircumflex" unicode="&#xd4;" horiz-adv-x="725" 
d="M332 -10q-117 0 -188 82.5t-71 197.5q0 168 98.5 287t255.5 119q117 0 188.5 -82.5t71.5 -197.5q0 -168 -99 -287t-256 -119zM338 14q139 0 231 113t92 262q0 110 -65.5 186.5t-174.5 76.5q-139 0 -230.5 -113t-91.5 -262q0 -110 65 -186.5t174 -76.5zM311 732l141 140h8
l92 -140h-23l-77 107l-114 -107h-27z" />
    <glyph glyph-name="Otilde" unicode="&#xd5;" horiz-adv-x="725" 
d="M332 -10q-117 0 -188 82.5t-71 197.5q0 168 98.5 287t255.5 119q117 0 188.5 -82.5t71.5 -197.5q0 -168 -99 -287t-256 -119zM338 14q139 0 231 113t92 262q0 110 -65.5 186.5t-174.5 76.5q-139 0 -230.5 -113t-91.5 -262q0 -110 65 -186.5t174 -76.5zM484 742
q-22 0 -48.5 22.5t-43.5 22.5q-28 0 -60 -34l-12 15q34 40 76 40q22 0 48.5 -22.5t43.5 -22.5q32 0 60 34l12 -16q-33 -39 -76 -39z" />
    <glyph glyph-name="Odieresis" unicode="&#xd6;" horiz-adv-x="725" 
d="M332 -10q-117 0 -188 82.5t-71 197.5q0 168 98.5 287t255.5 119q117 0 188.5 -82.5t71.5 -197.5q0 -168 -99 -287t-256 -119zM338 14q139 0 231 113t92 262q0 110 -65.5 186.5t-174.5 76.5q-139 0 -230.5 -113t-91.5 -262q0 -110 65 -186.5t174 -76.5zM362 741
q-9 0 -16 7.5t-7 17.5t7 17.5t16 7.5t16 -7.5t7 -17.5t-7 -17.5t-16 -7.5zM510 741q-9 0 -16 7.5t-7 17.5t7 17.5t16 7.5t16 -7.5t7 -17.5t-7 -17.5t-16 -7.5z" />
    <glyph glyph-name="multiply" unicode="&#xd7;" horiz-adv-x="493" 
d="M85 109l-16 18l166 141l-116 138l18 16l116 -138l166 141l16 -18l-166 -142l116 -137l-19 -16l-116 137z" />
    <glyph glyph-name="Oslash" unicode="&#xd8;" horiz-adv-x="725" 
d="M76 -58l-17 15l90 109q-76 82 -76 204q0 168 98.5 287t255.5 119q101 0 172 -66l87 105l17 -15l-88 -106q72 -80 72 -198q0 -168 -99 -287t-256 -119q-98 0 -166 60zM166 87l416 502q-65 63 -161 63q-139 0 -230.5 -113t-91.5 -262q0 -117 67 -190zM338 14q139 0 231 113
t92 262q0 110 -63 184l-415 -502q62 -57 155 -57z" />
    <glyph glyph-name="Ugrave" unicode="&#xd9;" horiz-adv-x="660" 
d="M286 -10q-99 0 -145 51t-46 136q0 39 7 74l75 415h26l-75 -413q-7 -36 -7 -75q0 -164 169 -164q204 0 248 239l75 413h26l-75 -415q-46 -261 -278 -261zM403 731l-102 119h40l82 -119h-20z" />
    <glyph glyph-name="Uacute" unicode="&#xda;" horiz-adv-x="660" 
d="M286 -10q-99 0 -145 51t-46 136q0 39 7 74l75 415h26l-75 -413q-7 -36 -7 -75q0 -164 169 -164q204 0 248 239l75 413h26l-75 -415q-46 -261 -278 -261zM404 731l124 119h41l-144 -119h-21z" />
    <glyph glyph-name="Ucircumflex" unicode="&#xdb;" horiz-adv-x="660" 
d="M286 -10q-99 0 -145 51t-46 136q0 39 7 74l75 415h26l-75 -413q-7 -36 -7 -75q0 -164 169 -164q204 0 248 239l75 413h26l-75 -415q-46 -261 -278 -261zM294 732l141 140h8l92 -140h-23l-77 107l-114 -107h-27z" />
    <glyph glyph-name="Udieresis" unicode="&#xdc;" horiz-adv-x="660" 
d="M286 -10q-99 0 -145 51t-46 136q0 39 7 74l75 415h26l-75 -413q-7 -36 -7 -75q0 -164 169 -164q204 0 248 239l75 413h26l-75 -415q-46 -261 -278 -261zM345 741q-9 0 -16 7.5t-7 17.5t7 17.5t16 7.5t16 -7.5t7 -17.5t-7 -17.5t-16 -7.5zM493 741q-9 0 -16 7.5t-7 17.5
t7 17.5t16 7.5t16 -7.5t7 -17.5t-7 -17.5t-16 -7.5z" />
    <glyph glyph-name="Yacute" unicode="&#xdd;" horiz-adv-x="506" 
d="M202 0l46 250l-145 416h29l132 -386l272 386h33l-295 -416l-46 -250h-26zM332 731l124 119h41l-144 -119h-21z" />
    <glyph glyph-name="Thorn" unicode="&#xde;" horiz-adv-x="484" 
d="M62 0l121 666h26l-23 -125h86q93 0 142.5 -41t49.5 -108q0 -98 -69 -157.5t-189 -59.5h-86l-32 -175h-26zM124 199h85q107 0 168 52.5t61 135.5q0 59 -43 94.5t-129 35.5h-84z" />
    <glyph glyph-name="germandbls" unicode="&#xdf;" horiz-adv-x="500" 
d="M-77 -228q-51 0 -78 20l11 21q26 -17 71 -17q44 0 73.5 38.5t41.5 107.5l105 590q36 198 215 198q51 0 88 -34.5t37 -88.5q0 -56 -28.5 -94t-85.5 -73q-29 -18 -42 -26t-34 -24t-30 -31t-9 -30q0 -26 17.5 -44t66.5 -49q89 -57 89 -129q0 -54 -41 -85.5t-98 -31.5
q-73 0 -120 41l14 18q42 -35 110 -35q45 0 77.5 25t32.5 66q0 35 -19.5 61t-61.5 53q-52 34 -72 55t-20 53q0 12 3 23t12 22t15 18.5t22 19t23 16t27.5 17.5t26.5 17q49 31 74.5 64t25.5 81q0 44 -30 72.5t-74 28.5q-71 0 -120.5 -44.5t-66.5 -137.5l-103 -586
q-13 -77 -50 -121.5t-95 -44.5z" />
    <glyph glyph-name="agrave" unicode="&#xe0;" horiz-adv-x="468" 
d="M141 -10q-48 0 -74.5 35.5t-26.5 96.5q0 65 16 127.5t47.5 116t84.5 86t119 32.5q49 0 109 -10l-46 -256q-22 -120 -37 -218h-28q13 84 44 223h-1q-12 -37 -29 -73.5t-42.5 -74.5t-61 -61.5t-74.5 -23.5zM145 14q44 0 84.5 38.5t68.5 97t46.5 116.5t27.5 108l14 79
q-42 7 -88 7q-73 0 -128 -53.5t-80 -127t-25 -150.5q0 -115 80 -115zM295 539l-102 119h40l82 -119h-20z" />
    <glyph glyph-name="aacute" unicode="&#xe1;" horiz-adv-x="468" 
d="M141 -10q-48 0 -74.5 35.5t-26.5 96.5q0 65 16 127.5t47.5 116t84.5 86t119 32.5q49 0 109 -10l-46 -256q-22 -120 -37 -218h-28q13 84 44 223h-1q-12 -37 -29 -73.5t-42.5 -74.5t-61 -61.5t-74.5 -23.5zM145 14q44 0 84.5 38.5t68.5 97t46.5 116.5t27.5 108l14 79
q-42 7 -88 7q-73 0 -128 -53.5t-80 -127t-25 -150.5q0 -115 80 -115zM296 539l124 119h41l-144 -119h-21z" />
    <glyph glyph-name="acircumflex" unicode="&#xe2;" horiz-adv-x="468" 
d="M141 -10q-48 0 -74.5 35.5t-26.5 96.5q0 65 16 127.5t47.5 116t84.5 86t119 32.5q49 0 109 -10l-46 -256q-22 -120 -37 -218h-28q13 84 44 223h-1q-12 -37 -29 -73.5t-42.5 -74.5t-61 -61.5t-74.5 -23.5zM145 14q44 0 84.5 38.5t68.5 97t46.5 116.5t27.5 108l14 79
q-42 7 -88 7q-73 0 -128 -53.5t-80 -127t-25 -150.5q0 -115 80 -115zM186 540l141 140h8l92 -140h-23l-77 107l-114 -107h-27z" />
    <glyph glyph-name="atilde" unicode="&#xe3;" horiz-adv-x="468" 
d="M141 -10q-48 0 -74.5 35.5t-26.5 96.5q0 65 16 127.5t47.5 116t84.5 86t119 32.5q49 0 109 -10l-46 -256q-22 -120 -37 -218h-28q13 84 44 223h-1q-12 -37 -29 -73.5t-42.5 -74.5t-61 -61.5t-74.5 -23.5zM145 14q44 0 84.5 38.5t68.5 97t46.5 116.5t27.5 108l14 79
q-42 7 -88 7q-73 0 -128 -53.5t-80 -127t-25 -150.5q0 -115 80 -115zM359 550q-22 0 -48.5 22.5t-43.5 22.5q-28 0 -60 -34l-12 15q34 40 76 40q22 0 48.5 -22.5t43.5 -22.5q32 0 60 34l12 -16q-33 -39 -76 -39z" />
    <glyph glyph-name="adieresis" unicode="&#xe4;" horiz-adv-x="468" 
d="M141 -10q-48 0 -74.5 35.5t-26.5 96.5q0 65 16 127.5t47.5 116t84.5 86t119 32.5q49 0 109 -10l-46 -256q-22 -120 -37 -218h-28q13 84 44 223h-1q-12 -37 -29 -73.5t-42.5 -74.5t-61 -61.5t-74.5 -23.5zM145 14q44 0 84.5 38.5t68.5 97t46.5 116.5t27.5 108l14 79
q-42 7 -88 7q-73 0 -128 -53.5t-80 -127t-25 -150.5q0 -115 80 -115zM237 549q-9 0 -16 7.5t-7 17.5t7 17.5t16 7.5t16 -7.5t7 -17.5t-7 -17.5t-16 -7.5zM385 549q-9 0 -16 7.5t-7 17.5t7 17.5t16 7.5t16 -7.5t7 -17.5t-7 -17.5t-16 -7.5z" />
    <glyph glyph-name="aring" unicode="&#xe5;" horiz-adv-x="468" 
d="M141 -10q-48 0 -74.5 35.5t-26.5 96.5q0 65 16 127.5t47.5 116t84.5 86t119 32.5q49 0 109 -10l-46 -256q-22 -120 -37 -218h-28q13 84 44 223h-1q-12 -37 -29 -73.5t-42.5 -74.5t-61 -61.5t-74.5 -23.5zM145 14q44 0 84.5 38.5t68.5 97t46.5 116.5t27.5 108l14 79
q-42 7 -88 7q-73 0 -128 -53.5t-80 -127t-25 -150.5q0 -115 80 -115zM322 548q-36 0 -59.5 26t-23.5 60q0 36 24 62t61 26q36 0 59.5 -26t23.5 -60q0 -36 -24 -62t-61 -26zM324 569q27 0 43.5 20t16.5 45q0 26 -17 46.5t-45 20.5q-27 0 -43.5 -20t-16.5 -45q0 -26 17 -46.5
t45 -20.5z" />
    <glyph glyph-name="ae" unicode="&#xe6;" horiz-adv-x="666" 
d="M124 -10q-45 0 -77 30t-32 75q0 56 40.5 96t100.5 57.5t131 17.5h30l11 65q4 20 4 42q0 87 -96 87q-69 0 -135 -56l-12 18q70 62 151 62q54 0 85 -27t31 -77q0 -19 -4 -36h1q27 63 75 101.5t116 38.5q44 0 75 -26t31 -68q0 -48 -40.5 -82.5t-101.5 -50t-133 -15.5h-37
q-6 -33 -6 -64q0 -164 113 -164q72 0 132 64l14 -18q-62 -70 -150 -70q-95 0 -124 102q-82 -102 -193 -102zM127 14q101 0 185 100q-5 24 -5 60q0 40 5 68h-30q-99 0 -170.5 -39t-71.5 -108q0 -33 25.5 -57t61.5 -24zM344 265h38q100 0 171 32.5t71 92.5q0 32 -23.5 51
t-60.5 19q-69 0 -121.5 -57t-74.5 -138z" />
    <glyph glyph-name="ccedilla" unicode="&#xe7;" horiz-adv-x="387" 
d="M138 -210q-37 0 -57 12l8 22q20 -11 49 -11q63 0 63 48q0 42 -76 42l34 88q-61 5 -91 55.5t-30 127.5q0 120 67 215t171 95q60 0 99 -31l-14 -20q-32 27 -89 27q-59 0 -108.5 -44.5t-74.5 -108.5t-25 -129q0 -164 113 -164q72 0 132 64l14 -18q-59 -66 -142 -70l-25 -67
q31 -2 50.5 -19.5t19.5 -42.5q0 -33 -25 -52t-63 -19z" />
    <glyph glyph-name="egrave" unicode="&#xe8;" horiz-adv-x="398" 
d="M173 -10q-68 0 -101.5 51.5t-33.5 132.5q0 120 67 215t171 95q44 0 75 -26t31 -68q0 -135 -317 -184q-1 -10 -1 -28q0 -164 113 -164q72 0 132 64l14 -18q-62 -70 -150 -70zM68 229q126 19 207 59.5t81 101.5q0 32 -23.5 51t-60.5 19q-77 0 -133 -69t-71 -162zM259 539
l-102 119h40l82 -119h-20z" />
    <glyph glyph-name="eacute" unicode="&#xe9;" horiz-adv-x="398" 
d="M173 -10q-68 0 -101.5 51.5t-33.5 132.5q0 120 67 215t171 95q44 0 75 -26t31 -68q0 -135 -317 -184q-1 -10 -1 -28q0 -164 113 -164q72 0 132 64l14 -18q-62 -70 -150 -70zM68 229q126 19 207 59.5t81 101.5q0 32 -23.5 51t-60.5 19q-77 0 -133 -69t-71 -162zM260 539
l124 119h41l-144 -119h-21z" />
    <glyph glyph-name="ecircumflex" unicode="&#xea;" horiz-adv-x="398" 
d="M173 -10q-68 0 -101.5 51.5t-33.5 132.5q0 120 67 215t171 95q44 0 75 -26t31 -68q0 -135 -317 -184q-1 -10 -1 -28q0 -164 113 -164q72 0 132 64l14 -18q-62 -70 -150 -70zM68 229q126 19 207 59.5t81 101.5q0 32 -23.5 51t-60.5 19q-77 0 -133 -69t-71 -162zM150 540
l141 140h8l92 -140h-23l-77 107l-114 -107h-27z" />
    <glyph glyph-name="edieresis" unicode="&#xeb;" horiz-adv-x="398" 
d="M173 -10q-68 0 -101.5 51.5t-33.5 132.5q0 120 67 215t171 95q44 0 75 -26t31 -68q0 -135 -317 -184q-1 -10 -1 -28q0 -164 113 -164q72 0 132 64l14 -18q-62 -70 -150 -70zM68 229q126 19 207 59.5t81 101.5q0 32 -23.5 51t-60.5 19q-77 0 -133 -69t-71 -162zM201 549
q-9 0 -16 7.5t-7 17.5t7 17.5t16 7.5t16 -7.5t7 -17.5t-7 -17.5t-16 -7.5zM349 549q-9 0 -16 7.5t-7 17.5t7 17.5t16 7.5t16 -7.5t7 -17.5t-7 -17.5t-16 -7.5z" />
    <glyph glyph-name="igrave" unicode="&#xec;" 
d="M52 0l86 474h26l-86 -474h-26zM150 539l-102 119h40l82 -119h-20z" />
    <glyph glyph-name="iacute" unicode="&#xed;" 
d="M52 0l86 474h26l-86 -474h-26zM151 539l124 119h41l-144 -119h-21z" />
    <glyph glyph-name="icircumflex" unicode="&#xee;" 
d="M52 0l86 474h26l-86 -474h-26zM41 540l141 140h8l92 -140h-23l-77 107l-114 -107h-27z" />
    <glyph glyph-name="idieresis" unicode="&#xef;" 
d="M52 0l86 474h26l-86 -474h-26zM92 549q-9 0 -16 7.5t-7 17.5t7 17.5t16 7.5t16 -7.5t7 -17.5t-7 -17.5t-16 -7.5zM240 549q-9 0 -16 7.5t-7 17.5t7 17.5t16 7.5t16 -7.5t7 -17.5t-7 -17.5t-16 -7.5z" />
    <glyph glyph-name="eth" unicode="&#xf0;" horiz-adv-x="459" 
d="M184 -10q-51 0 -85.5 31t-47.5 71t-13 84q0 116 66 212t171 96q32 0 66 -18.5t52 -43.5q-12 141 -89 216l-93 -72l-12 18l89 68q-69 55 -173 55l8 23q110 0 185 -62l95 73l12 -18l-90 -70q96 -95 96 -275q0 -98 -27 -185t-82.5 -145t-127.5 -58zM190 14q61 0 109 55
t72 136t24 166v20q-19 28 -55.5 48.5t-70.5 20.5q-60 0 -108.5 -45t-72.5 -107.5t-24 -124.5q0 -69 30 -119t96 -50z" />
    <glyph glyph-name="ntilde" unicode="&#xf1;" horiz-adv-x="507" 
d="M52 0l85 474h26q-30 -168 -48 -244h1q9 30 21 59t33 66t44.5 64t58 46t72.5 19q46 0 70.5 -28t24.5 -77q0 -23 -4 -43l-61 -336h-26l60 331q5 28 5 47q0 82 -73 82q-46 0 -88.5 -35t-73 -91.5t-52 -119.5t-33.5 -127l-16 -87h-26zM362 550q-22 0 -48.5 22.5t-43.5 22.5
q-28 0 -60 -34l-12 15q34 40 76 40q22 0 48.5 -22.5t43.5 -22.5q32 0 60 34l12 -16q-33 -39 -76 -39z" />
    <glyph glyph-name="ograve" unicode="&#xf2;" horiz-adv-x="459" 
d="M184 -10q-51 0 -85.5 31t-47.5 71t-13 84q0 116 66 212t171 96q51 0 85.5 -31t47.5 -71t13 -84q0 -116 -66 -212t-171 -96zM190 14q60 0 108.5 45t72.5 107.5t24 124.5q0 69 -30 119t-96 50q-60 0 -108.5 -45t-72.5 -107.5t-24 -124.5q0 -69 30 -119t96 -50zM271 539
l-102 119h40l82 -119h-20z" />
    <glyph glyph-name="oacute" unicode="&#xf3;" horiz-adv-x="459" 
d="M184 -10q-51 0 -85.5 31t-47.5 71t-13 84q0 116 66 212t171 96q51 0 85.5 -31t47.5 -71t13 -84q0 -116 -66 -212t-171 -96zM190 14q60 0 108.5 45t72.5 107.5t24 124.5q0 69 -30 119t-96 50q-60 0 -108.5 -45t-72.5 -107.5t-24 -124.5q0 -69 30 -119t96 -50zM272 539
l124 119h41l-144 -119h-21z" />
    <glyph glyph-name="ocircumflex" unicode="&#xf4;" horiz-adv-x="459" 
d="M184 -10q-51 0 -85.5 31t-47.5 71t-13 84q0 116 66 212t171 96q51 0 85.5 -31t47.5 -71t13 -84q0 -116 -66 -212t-171 -96zM190 14q60 0 108.5 45t72.5 107.5t24 124.5q0 69 -30 119t-96 50q-60 0 -108.5 -45t-72.5 -107.5t-24 -124.5q0 -69 30 -119t96 -50zM162 540
l141 140h8l92 -140h-23l-77 107l-114 -107h-27z" />
    <glyph glyph-name="otilde" unicode="&#xf5;" horiz-adv-x="459" 
d="M184 -10q-51 0 -85.5 31t-47.5 71t-13 84q0 116 66 212t171 96q51 0 85.5 -31t47.5 -71t13 -84q0 -116 -66 -212t-171 -96zM190 14q60 0 108.5 45t72.5 107.5t24 124.5q0 69 -30 119t-96 50q-60 0 -108.5 -45t-72.5 -107.5t-24 -124.5q0 -69 30 -119t96 -50zM335 550
q-22 0 -48.5 22.5t-43.5 22.5q-28 0 -60 -34l-12 15q34 40 76 40q22 0 48.5 -22.5t43.5 -22.5q32 0 60 34l12 -16q-33 -39 -76 -39z" />
    <glyph glyph-name="odieresis" unicode="&#xf6;" horiz-adv-x="459" 
d="M184 -10q-51 0 -85.5 31t-47.5 71t-13 84q0 116 66 212t171 96q51 0 85.5 -31t47.5 -71t13 -84q0 -116 -66 -212t-171 -96zM190 14q60 0 108.5 45t72.5 107.5t24 124.5q0 69 -30 119t-96 50q-60 0 -108.5 -45t-72.5 -107.5t-24 -124.5q0 -69 30 -119t96 -50zM213 549
q-9 0 -16 7.5t-7 17.5t7 17.5t16 7.5t16 -7.5t7 -17.5t-7 -17.5t-16 -7.5zM361 549q-9 0 -16 7.5t-7 17.5t7 17.5t16 7.5t16 -7.5t7 -17.5t-7 -17.5t-16 -7.5z" />
    <glyph glyph-name="divide" unicode="&#xf7;" horiz-adv-x="563" 
d="M247 75q-9 0 -15.5 7t-6.5 17q0 13 8.5 22.5t20.5 9.5q9 0 15.5 -7t6.5 -17q0 -13 -8.5 -22.5t-20.5 -9.5zM306 397q-9 0 -15.5 7t-6.5 17q0 13 8.5 22.5t20.5 9.5q9 0 15.5 -7t6.5 -17q0 -13 -8.5 -22.5t-20.5 -9.5zM45 252l4 24l468 2l-4 -24z" />
    <glyph glyph-name="oslash" unicode="&#xf8;" horiz-adv-x="459" 
d="M1 -45l-17 15l79 95q-25 47 -25 111q0 116 66 212t171 96q62 0 100 -45l83 99l17 -15l-86 -103q32 -54 32 -122q0 -116 -66 -212t-171 -96q-70 0 -108 55zM190 14q60 0 108.5 45t72.5 107.5t24 124.5q0 63 -24 108l-278 -334q32 -51 97 -51zM81 87l277 332q-31 41 -89 41
q-60 0 -108.5 -45t-72.5 -107.5t-24 -124.5q0 -55 17 -96z" />
    <glyph glyph-name="ugrave" unicode="&#xf9;" horiz-adv-x="507" 
d="M162 -10q-46 0 -70.5 28t-24.5 77q0 23 4 43l61 336h26l-60 -331q-5 -28 -5 -47q0 -82 73 -82q46 0 88.5 35t73 91.5t52 119.5t33.5 127l16 87h26l-46 -256q-22 -120 -37 -218h-28q18 118 48 244h-1q-9 -30 -21 -59t-33 -66t-44.5 -64t-58 -46t-72.5 -19zM287 539
l-102 119h40l82 -119h-20z" />
    <glyph glyph-name="uacute" unicode="&#xfa;" horiz-adv-x="507" 
d="M162 -10q-46 0 -70.5 28t-24.5 77q0 23 4 43l61 336h26l-60 -331q-5 -28 -5 -47q0 -82 73 -82q46 0 88.5 35t73 91.5t52 119.5t33.5 127l16 87h26l-46 -256q-22 -120 -37 -218h-28q18 118 48 244h-1q-9 -30 -21 -59t-33 -66t-44.5 -64t-58 -46t-72.5 -19zM288 539
l124 119h41l-144 -119h-21z" />
    <glyph glyph-name="ucircumflex" unicode="&#xfb;" horiz-adv-x="507" 
d="M162 -10q-46 0 -70.5 28t-24.5 77q0 23 4 43l61 336h26l-60 -331q-5 -28 -5 -47q0 -82 73 -82q46 0 88.5 35t73 91.5t52 119.5t33.5 127l16 87h26l-46 -256q-22 -120 -37 -218h-28q18 118 48 244h-1q-9 -30 -21 -59t-33 -66t-44.5 -64t-58 -46t-72.5 -19zM178 540
l141 140h8l92 -140h-23l-77 107l-114 -107h-27z" />
    <glyph glyph-name="udieresis" unicode="&#xfc;" horiz-adv-x="507" 
d="M162 -10q-46 0 -70.5 28t-24.5 77q0 23 4 43l61 336h26l-60 -331q-5 -28 -5 -47q0 -82 73 -82q46 0 88.5 35t73 91.5t52 119.5t33.5 127l16 87h26l-46 -256q-22 -120 -37 -218h-28q18 118 48 244h-1q-9 -30 -21 -59t-33 -66t-44.5 -64t-58 -46t-72.5 -19zM229 549
q-9 0 -16 7.5t-7 17.5t7 17.5t16 7.5t16 -7.5t7 -17.5t-7 -17.5t-16 -7.5zM377 549q-9 0 -16 7.5t-7 17.5t7 17.5t16 7.5t16 -7.5t7 -17.5t-7 -17.5t-16 -7.5z" />
    <glyph glyph-name="yacute" unicode="&#xfd;" horiz-adv-x="393" 
d="M-54 -228q-25 0 -45 9l7 22q16 -7 44 -7q52 0 90 44.5t96 152.5l-86 481h26l79 -444l239 444h29l-257 -477q-69 -129 -113.5 -177t-108.5 -48zM232 539l124 119h41l-144 -119h-21z" />
    <glyph glyph-name="thorn" unicode="&#xfe;" horiz-adv-x="464" 
d="M13 -218l168 938h26l-44 -246q-25 -138 -44 -223h1q12 38 29 74t42 74t60 61.5t74 23.5q48 0 73.5 -35.5t25.5 -96.5q0 -66 -15.5 -128t-46.5 -115.5t-83.5 -86t-118.5 -32.5q-36 0 -83 7l-38 -215h-26zM169 14q73 0 127.5 53.5t78.5 127t24 150.5q0 115 -78 115
q-44 0 -84 -38.5t-67.5 -97t-46 -116t-27.5 -108.5l-14 -79q42 -7 87 -7z" />
    <glyph glyph-name="ydieresis" unicode="&#xff;" horiz-adv-x="393" 
d="M-54 -228q-25 0 -45 9l7 22q16 -7 44 -7q52 0 90 44.5t96 152.5l-86 481h26l79 -444l239 444h29l-257 -477q-69 -129 -113.5 -177t-108.5 -48zM173 549q-9 0 -16 7.5t-7 17.5t7 17.5t16 7.5t16 -7.5t7 -17.5t-7 -17.5t-16 -7.5zM321 549q-9 0 -16 7.5t-7 17.5t7 17.5
t16 7.5t16 -7.5t7 -17.5t-7 -17.5t-16 -7.5z" />
    <glyph glyph-name="Amacron" unicode="&#x100;" horiz-adv-x="569" 
d="M-16 0l362 666h32l121 -666h-26l-36 199h-317l-108 -199h-28zM133 223h299l-75 412zM243 781l5 24h263l-5 -24h-263z" />
    <glyph glyph-name="amacron" unicode="&#x101;" horiz-adv-x="468" 
d="M141 -10q-48 0 -74.5 35.5t-26.5 96.5q0 65 16 127.5t47.5 116t84.5 86t119 32.5q49 0 109 -10l-46 -256q-22 -120 -37 -218h-28q13 84 44 223h-1q-12 -37 -29 -73.5t-42.5 -74.5t-61 -61.5t-74.5 -23.5zM145 14q44 0 84.5 38.5t68.5 97t46.5 116.5t27.5 108l14 79
q-42 7 -88 7q-73 0 -128 -53.5t-80 -127t-25 -150.5q0 -115 80 -115zM180 589l5 24h263l-5 -24h-263z" />
    <glyph glyph-name="Abreve" unicode="&#x102;" horiz-adv-x="569" 
d="M-16 0l362 666h32l121 -666h-26l-36 199h-317l-108 -199h-28zM133 223h299l-75 412zM374 733q-47 0 -72.5 37.5t-25.5 86.5v11h23v-11q0 -40 19.5 -70t57.5 -30q42 0 74.5 34.5t44.5 76.5h23q-17 -55 -53.5 -95t-90.5 -40z" />
    <glyph glyph-name="abreve" unicode="&#x103;" horiz-adv-x="468" 
d="M141 -10q-48 0 -74.5 35.5t-26.5 96.5q0 65 16 127.5t47.5 116t84.5 86t119 32.5q49 0 109 -10l-46 -256q-22 -120 -37 -218h-28q13 84 44 223h-1q-12 -37 -29 -73.5t-42.5 -74.5t-61 -61.5t-74.5 -23.5zM145 14q44 0 84.5 38.5t68.5 97t46.5 116.5t27.5 108l14 79
q-42 7 -88 7q-73 0 -128 -53.5t-80 -127t-25 -150.5q0 -115 80 -115zM311 541q-47 0 -72.5 37.5t-25.5 86.5v11h23v-11q0 -40 19.5 -70t57.5 -30q42 0 74.5 34.5t44.5 76.5h23q-17 -55 -53.5 -95t-90.5 -40z" />
    <glyph glyph-name="Aogonek" unicode="&#x104;" horiz-adv-x="569" 
d="M494 -210q-40 0 -58.5 24.5t-18.5 60.5q0 62 56 125l-36 199h-317l-108 -199h-28l362 666h32l121 -666q-19 -24 -26.5 -35.5t-19.5 -38.5t-12 -51q0 -25 14.5 -43.5t38.5 -18.5q29 0 52 13l8 -19q-26 -17 -60 -17zM133 223h299l-75 412z" />
    <glyph glyph-name="aogonek" unicode="&#x105;" horiz-adv-x="468" 
d="M326 -210q-40 0 -58.5 24.5t-18.5 60.5q0 62 56 125q13 84 44 223h-1q-12 -37 -29 -73.5t-42.5 -74.5t-61 -61.5t-74.5 -23.5q-48 0 -74.5 35.5t-26.5 96.5q0 65 16 127.5t47.5 116t84.5 86t119 32.5q49 0 109 -10l-46 -256q-22 -120 -37 -218q-60 -73 -60 -125
q0 -25 14.5 -43.5t38.5 -18.5q29 0 52 13l8 -19q-26 -17 -60 -17zM145 14q44 0 84.5 38.5t68.5 97t46.5 116.5t27.5 108l14 79q-42 7 -88 7q-73 0 -128 -53.5t-80 -127t-25 -150.5q0 -115 80 -115z" />
    <glyph glyph-name="Cacute" unicode="&#x106;" horiz-adv-x="603" 
d="M331 -10q-120 0 -189 80.5t-69 199.5q0 166 108 286t271 120q100 0 162 -50l-17 -20q-60 46 -149 46q-146 0 -247.5 -113.5t-101.5 -262.5q0 -114 62 -188t174 -74q103 0 184 59l12 -19q-84 -64 -200 -64zM433 731l124 119h41l-144 -119h-21z" />
    <glyph glyph-name="cacute" unicode="&#x107;" horiz-adv-x="387" 
d="M173 -10q-68 0 -101.5 51.5t-33.5 132.5q0 120 67 215t171 95q60 0 99 -31l-14 -20q-32 27 -89 27q-59 0 -108.5 -44.5t-74.5 -108.5t-25 -129q0 -164 113 -164q72 0 132 64l14 -18q-62 -70 -150 -70zM261 539l124 119h41l-144 -119h-21z" />
    <glyph glyph-name="Ccircumflex" unicode="&#x108;" horiz-adv-x="603" 
d="M331 -10q-120 0 -189 80.5t-69 199.5q0 166 108 286t271 120q100 0 162 -50l-17 -20q-60 46 -149 46q-146 0 -247.5 -113.5t-101.5 -262.5q0 -114 62 -188t174 -74q103 0 184 59l12 -19q-84 -64 -200 -64zM323 732l141 140h8l92 -140h-23l-77 107l-114 -107h-27z" />
    <glyph glyph-name="ccircumflex" unicode="&#x109;" horiz-adv-x="387" 
d="M173 -10q-68 0 -101.5 51.5t-33.5 132.5q0 120 67 215t171 95q60 0 99 -31l-14 -20q-32 27 -89 27q-59 0 -108.5 -44.5t-74.5 -108.5t-25 -129q0 -164 113 -164q72 0 132 64l14 -18q-62 -70 -150 -70zM151 540l141 140h8l92 -140h-23l-77 107l-114 -107h-27z" />
    <glyph glyph-name="Cdotaccent" unicode="&#x10a;" horiz-adv-x="603" 
d="M331 -10q-120 0 -189 80.5t-69 199.5q0 166 108 286t271 120q100 0 162 -50l-17 -20q-60 46 -149 46q-146 0 -247.5 -113.5t-101.5 -262.5q0 -114 62 -188t174 -74q103 0 184 59l12 -19q-84 -64 -200 -64zM455 782q-9 0 -16 7.5t-7 17.5t7 17.5t16 7.5t16 -7.5t7 -17.5
t-7 -17.5t-16 -7.5z" />
    <glyph glyph-name="cdotaccent" unicode="&#x10b;" horiz-adv-x="387" 
d="M173 -10q-68 0 -101.5 51.5t-33.5 132.5q0 120 67 215t171 95q60 0 99 -31l-14 -20q-32 27 -89 27q-59 0 -108.5 -44.5t-74.5 -108.5t-25 -129q0 -164 113 -164q72 0 132 64l14 -18q-62 -70 -150 -70zM283 590q-9 0 -16 7.5t-7 17.5t7 17.5t16 7.5t16 -7.5t7 -17.5
t-7 -17.5t-16 -7.5z" />
    <glyph glyph-name="Ccaron" unicode="&#x10c;" horiz-adv-x="603" 
d="M331 -10q-120 0 -189 80.5t-69 199.5q0 166 108 286t271 120q100 0 162 -50l-17 -20q-60 46 -149 46q-146 0 -247.5 -113.5t-101.5 -262.5q0 -114 62 -188t174 -74q103 0 184 59l12 -19q-84 -64 -200 -64zM441 732l-92 140h23l77 -107l114 107h27l-141 -140h-8z" />
    <glyph glyph-name="ccaron" unicode="&#x10d;" horiz-adv-x="387" 
d="M173 -10q-68 0 -101.5 51.5t-33.5 132.5q0 120 67 215t171 95q60 0 99 -31l-14 -20q-32 27 -89 27q-59 0 -108.5 -44.5t-74.5 -108.5t-25 -129q0 -164 113 -164q72 0 132 64l14 -18q-62 -70 -150 -70zM269 540l-92 140h23l77 -107l114 107h27l-141 -140h-8z" />
    <glyph glyph-name="Dcaron" unicode="&#x10e;" horiz-adv-x="648" 
d="M62 0l121 666h118q141 0 226 -70t85 -194q0 -187 -119.5 -294.5t-310.5 -107.5h-120zM93 24h94q175 0 287 100t112 271q0 117 -77 182t-213 65h-92zM391 732l-92 140h23l77 -107l114 107h27l-141 -140h-8z" />
    <glyph glyph-name="dcaron" unicode="&#x10f;" horiz-adv-x="488" 
d="M141 -10q-48 0 -74.5 35.5t-26.5 96.5q0 65 16 127.5t47.5 116t84.5 86t119 32.5q28 0 84 -6l44 242h26l-91 -502q-22 -120 -37 -218h-28q13 84 44 223h-1q-12 -37 -29 -73.5t-42.5 -74.5t-61 -61.5t-74.5 -23.5zM145 14q44 0 84.5 38.5t68.5 97t46.5 116.5t27.5 108
l14 79q-42 7 -88 7q-73 0 -128 -53.5t-80 -127t-25 -150.5q0 -115 80 -115zM493 561l68 159h35l-87 -159h-16z" />
    <glyph glyph-name="Dcroat" unicode="&#x110;" horiz-adv-x="660" 
d="M74 0l61 335h-73l5 24h72l56 307h118q141 0 226 -70t85 -194q0 -187 -119.5 -294.5t-310.5 -107.5h-120zM105 24h94q175 0 287 100t112 271q0 117 -77 182t-213 65h-92l-51 -283h124l-5 -24h-124z" />
    <glyph glyph-name="dcroat" unicode="&#x111;" horiz-adv-x="468" 
d="M220 596l4 24h193l18 100h26l-18 -100h44l-4 -24h-45l-68 -378q-22 -120 -37 -218h-28q13 84 44 223h-1q-12 -37 -29 -73.5t-42.5 -74.5t-61 -61.5t-74.5 -23.5q-48 0 -74.5 35.5t-26.5 96.5q0 65 16 127.5t47.5 116t84.5 86t119 32.5q28 0 84 -6l21 118h-192zM145 14
q44 0 84.5 38.5t68.5 97t46.5 116.5t27.5 108l14 79q-42 7 -88 7q-73 0 -128 -53.5t-80 -127t-25 -150.5q0 -115 80 -115z" />
    <glyph glyph-name="Emacron" unicode="&#x112;" horiz-adv-x="480" 
d="M62 0l121 666h300l-5 -24h-274l-49 -271h240l-4 -24h-240l-58 -323h281l-5 -24h-307zM200 781l5 24h263l-5 -24h-263z" />
    <glyph glyph-name="emacron" unicode="&#x113;" horiz-adv-x="398" 
d="M173 -10q-68 0 -101.5 51.5t-33.5 132.5q0 120 67 215t171 95q44 0 75 -26t31 -68q0 -135 -317 -184q-1 -10 -1 -28q0 -164 113 -164q72 0 132 64l14 -18q-62 -70 -150 -70zM68 229q126 19 207 59.5t81 101.5q0 32 -23.5 51t-60.5 19q-77 0 -133 -69t-71 -162zM144 589
l5 24h263l-5 -24h-263z" />
    <glyph glyph-name="Ebreve" unicode="&#x114;" horiz-adv-x="480" 
d="M62 0l121 666h300l-5 -24h-274l-49 -271h240l-4 -24h-240l-58 -323h281l-5 -24h-307zM331 733q-47 0 -72.5 37.5t-25.5 86.5v11h23v-11q0 -40 19.5 -70t57.5 -30q42 0 74.5 34.5t44.5 76.5h23q-17 -55 -53.5 -95t-90.5 -40z" />
    <glyph glyph-name="ebreve" unicode="&#x115;" horiz-adv-x="398" 
d="M173 -10q-68 0 -101.5 51.5t-33.5 132.5q0 120 67 215t171 95q44 0 75 -26t31 -68q0 -135 -317 -184q-1 -10 -1 -28q0 -164 113 -164q72 0 132 64l14 -18q-62 -70 -150 -70zM68 229q126 19 207 59.5t81 101.5q0 32 -23.5 51t-60.5 19q-77 0 -133 -69t-71 -162zM275 541
q-47 0 -72.5 37.5t-25.5 86.5v11h23v-11q0 -40 19.5 -70t57.5 -30q42 0 74.5 34.5t44.5 76.5h23q-17 -55 -53.5 -95t-90.5 -40z" />
    <glyph glyph-name="Edotaccent" unicode="&#x116;" horiz-adv-x="480" 
d="M62 0l121 666h300l-5 -24h-274l-49 -271h240l-4 -24h-240l-58 -323h281l-5 -24h-307zM338 782q-9 0 -16 7.5t-7 17.5t7 17.5t16 7.5t16 -7.5t7 -17.5t-7 -17.5t-16 -7.5z" />
    <glyph glyph-name="edotaccent" unicode="&#x117;" horiz-adv-x="398" 
d="M173 -10q-68 0 -101.5 51.5t-33.5 132.5q0 120 67 215t171 95q44 0 75 -26t31 -68q0 -135 -317 -184q-1 -10 -1 -28q0 -164 113 -164q72 0 132 64l14 -18q-62 -70 -150 -70zM68 229q126 19 207 59.5t81 101.5q0 32 -23.5 51t-60.5 19q-77 0 -133 -69t-71 -162zM282 590
q-9 0 -16 7.5t-7 17.5t7 17.5t16 7.5t16 -7.5t7 -17.5t-7 -17.5t-16 -7.5z" />
    <glyph glyph-name="Eogonek" unicode="&#x118;" horiz-adv-x="480" 
d="M261 -210q-40 0 -58.5 24.5t-18.5 60.5q0 39 23.5 76t51.5 49h-197l121 666h300l-5 -24h-274l-49 -271h240l-4 -24h-240l-58 -323h281l-5 -24h-55q-38 0 -72 -38.5t-34 -86.5q0 -25 14.5 -43.5t38.5 -18.5q29 0 52 13l8 -19q-25 -17 -60 -17z" />
    <glyph glyph-name="eogonek" unicode="&#x119;" horiz-adv-x="398" 
d="M271 -210q-40 0 -58.5 24.5t-18.5 60.5q0 37 22.5 76.5t49.5 64.5q-36 -26 -93 -26q-68 0 -101.5 51.5t-33.5 132.5q0 120 67 215t171 95q44 0 75 -26t31 -68q0 -135 -317 -184q-1 -10 -1 -28q0 -164 113 -164q72 0 132 64l14 -18l-46 -60q-1 -1 -7 -9t-8 -10.5
t-7.5 -10.5t-8 -12t-7 -12t-7 -13t-6 -13t-5 -15t-2.5 -14.5t-1 -15.5q0 -25 14.5 -43.5t38.5 -18.5q29 0 52 13l8 -19q-26 -17 -60 -17zM68 229q126 19 207 59.5t81 101.5q0 32 -23.5 51t-60.5 19q-77 0 -133 -69t-71 -162z" />
    <glyph glyph-name="Ecaron" unicode="&#x11a;" horiz-adv-x="480" 
d="M62 0l121 666h300l-5 -24h-274l-49 -271h240l-4 -24h-240l-58 -323h281l-5 -24h-307zM324 732l-92 140h23l77 -107l114 107h27l-141 -140h-8z" />
    <glyph glyph-name="ecaron" unicode="&#x11b;" horiz-adv-x="398" 
d="M173 -10q-68 0 -101.5 51.5t-33.5 132.5q0 120 67 215t171 95q44 0 75 -26t31 -68q0 -135 -317 -184q-1 -10 -1 -28q0 -164 113 -164q72 0 132 64l14 -18q-62 -70 -150 -70zM68 229q126 19 207 59.5t81 101.5q0 32 -23.5 51t-60.5 19q-77 0 -133 -69t-71 -162zM268 540
l-92 140h23l77 -107l114 107h27l-141 -140h-8z" />
    <glyph glyph-name="Gcircumflex" unicode="&#x11c;" horiz-adv-x="689" 
d="M331 -10q-124 0 -191 78.5t-67 201.5q0 108 48 200.5t136.5 149t196.5 56.5q112 0 177 -55l-15 -19q-62 50 -166 50q-146 0 -248.5 -113.5t-102.5 -262.5q0 -119 60 -190.5t176 -71.5q127 0 211 55l41 229h-166l4 24h192l-48 -265q-94 -67 -238 -67zM327 732l141 140h8
l92 -140h-23l-77 107l-114 -107h-27z" />
    <glyph glyph-name="gcircumflex" unicode="&#x11d;" horiz-adv-x="468" 
d="M107 -228q-72 0 -114 37l14 20q35 -33 106 -33q157 0 192 204q18 104 44 223h-1q-12 -37 -29 -73.5t-42.5 -74.5t-61 -61.5t-74.5 -23.5q-48 0 -74.5 35.5t-26.5 96.5q0 65 16 127.5t47.5 116t84.5 86t119 32.5q49 0 109 -10l-86 -479q-19 -108 -71 -165.5t-152 -57.5z
M145 14q44 0 84.5 38.5t68.5 97t46.5 116.5t27.5 108l14 79q-42 7 -88 7q-73 0 -128 -53.5t-80 -127t-25 -150.5q0 -115 80 -115zM163 540l141 140h8l92 -140h-23l-77 107l-114 -107h-27z" />
    <glyph glyph-name="Gbreve" unicode="&#x11e;" horiz-adv-x="689" 
d="M331 -10q-124 0 -191 78.5t-67 201.5q0 108 48 200.5t136.5 149t196.5 56.5q112 0 177 -55l-15 -19q-62 50 -166 50q-146 0 -248.5 -113.5t-102.5 -262.5q0 -119 60 -190.5t176 -71.5q127 0 211 55l41 229h-166l4 24h192l-48 -265q-94 -67 -238 -67zM452 733
q-47 0 -72.5 37.5t-25.5 86.5v11h23v-11q0 -40 19.5 -70t57.5 -30q42 0 74.5 34.5t44.5 76.5h23q-17 -55 -53.5 -95t-90.5 -40z" />
    <glyph glyph-name="gbreve" unicode="&#x11f;" horiz-adv-x="468" 
d="M107 -228q-72 0 -114 37l14 20q35 -33 106 -33q157 0 192 204q18 104 44 223h-1q-12 -37 -29 -73.5t-42.5 -74.5t-61 -61.5t-74.5 -23.5q-48 0 -74.5 35.5t-26.5 96.5q0 65 16 127.5t47.5 116t84.5 86t119 32.5q49 0 109 -10l-86 -479q-19 -108 -71 -165.5t-152 -57.5z
M145 14q44 0 84.5 38.5t68.5 97t46.5 116.5t27.5 108l14 79q-42 7 -88 7q-73 0 -128 -53.5t-80 -127t-25 -150.5q0 -115 80 -115zM288 541q-47 0 -72.5 37.5t-25.5 86.5v11h23v-11q0 -40 19.5 -70t57.5 -30q42 0 74.5 34.5t44.5 76.5h23q-17 -55 -53.5 -95t-90.5 -40z" />
    <glyph glyph-name="Gdotaccent" unicode="&#x120;" horiz-adv-x="689" 
d="M331 -10q-124 0 -191 78.5t-67 201.5q0 108 48 200.5t136.5 149t196.5 56.5q112 0 177 -55l-15 -19q-62 50 -166 50q-146 0 -248.5 -113.5t-102.5 -262.5q0 -119 60 -190.5t176 -71.5q127 0 211 55l41 229h-166l4 24h192l-48 -265q-94 -67 -238 -67zM459 782
q-9 0 -16 7.5t-7 17.5t7 17.5t16 7.5t16 -7.5t7 -17.5t-7 -17.5t-16 -7.5z" />
    <glyph glyph-name="gdotaccent" unicode="&#x121;" horiz-adv-x="468" 
d="M107 -228q-72 0 -114 37l14 20q35 -33 106 -33q157 0 192 204q18 104 44 223h-1q-12 -37 -29 -73.5t-42.5 -74.5t-61 -61.5t-74.5 -23.5q-48 0 -74.5 35.5t-26.5 96.5q0 65 16 127.5t47.5 116t84.5 86t119 32.5q49 0 109 -10l-86 -479q-19 -108 -71 -165.5t-152 -57.5z
M145 14q44 0 84.5 38.5t68.5 97t46.5 116.5t27.5 108l14 79q-42 7 -88 7q-73 0 -128 -53.5t-80 -127t-25 -150.5q0 -115 80 -115zM295 590q-9 0 -16 7.5t-7 17.5t7 17.5t16 7.5t16 -7.5t7 -17.5t-7 -17.5t-16 -7.5z" />
    <glyph glyph-name="Gcommaaccent" unicode="&#x122;" horiz-adv-x="689" 
d="M331 -10q-124 0 -191 78.5t-67 201.5q0 108 48 200.5t136.5 149t196.5 56.5q112 0 177 -55l-15 -19q-62 50 -166 50q-146 0 -248.5 -113.5t-102.5 -262.5q0 -119 60 -190.5t176 -71.5q127 0 211 55l41 229h-166l4 24h192l-48 -265q-94 -67 -238 -67zM264 -206
q44 54 44 83q0 5 -4 13t-4 13q0 11 7.5 19t17.5 8q18 0 18 -21q0 -41 -61 -115h-18z" />
    <glyph glyph-name="gcommaaccent" unicode="&#x123;" horiz-adv-x="468" 
d="M107 -228q-72 0 -114 37l14 20q35 -33 106 -33q157 0 192 204q18 104 44 223h-1q-12 -37 -29 -73.5t-42.5 -74.5t-61 -61.5t-74.5 -23.5q-48 0 -74.5 35.5t-26.5 96.5q0 65 16 127.5t47.5 116t84.5 86t119 32.5q49 0 109 -10l-86 -479q-19 -108 -71 -165.5t-152 -57.5z
M145 14q44 0 84.5 38.5t68.5 97t46.5 116.5t27.5 108l14 79q-42 7 -88 7q-73 0 -128 -53.5t-80 -127t-25 -150.5q0 -115 80 -115zM360 676q-44 -54 -44 -83q0 -5 4 -13t4 -13q0 -11 -7.5 -19t-17.5 -8q-18 0 -18 21q0 41 61 115h18z" />
    <glyph glyph-name="Hcircumflex" unicode="&#x124;" horiz-adv-x="696" 
d="M62 0l121 666h26l-54 -299h434l54 299h26l-121 -666h-26l62 343h-434l-62 -343h-26zM318 732l141 140h8l92 -140h-23l-77 107l-114 -107h-27z" />
    <glyph glyph-name="hcircumflex" unicode="&#x125;" horiz-adv-x="507" 
d="M52 0l129 720h26l-44 -246q-30 -168 -48 -244h1q9 30 21 59t33 66t44.5 64t58 46t72.5 19q46 0 70.5 -28t24.5 -77q0 -23 -4 -43l-61 -336h-26l60 331q5 28 5 47q0 82 -73 82q-46 0 -88.5 -35t-73 -91.5t-52 -119.5t-33.5 -127l-16 -87h-26zM242 786l141 140h8l92 -140
h-23l-77 107l-114 -107h-27z" />
    <glyph glyph-name="Hbar" unicode="&#x126;" horiz-adv-x="696" 
d="M713 510l-5 -24h-72l-88 -486h-26l62 343h-434l-62 -343h-26l88 486h-72l5 24h72l28 156h26l-28 -156h434l28 156h26l-28 -156h72zM155 367h434l21 119h-434z" />
    <glyph glyph-name="hbar" unicode="&#x127;" horiz-adv-x="507" 
d="M52 0l107 596h-47l4 24h47l18 100h26l-18 -100h190l-4 -24h-190l-22 -122q-30 -168 -48 -244h1q9 30 21 59t33 66t44.5 64t58 46t72.5 19q46 0 70.5 -28t24.5 -77q0 -23 -4 -43l-61 -336h-26l60 331q5 28 5 47q0 82 -73 82q-46 0 -88.5 -35t-73 -91.5t-52 -119.5
t-33.5 -127l-16 -87h-26z" />
    <glyph glyph-name="Itilde" unicode="&#x128;" horiz-adv-x="236" 
d="M62 0l121 666h26l-121 -666h-26zM261 742q-22 0 -48.5 22.5t-43.5 22.5q-28 0 -60 -34l-12 15q34 40 76 40q22 0 48.5 -22.5t43.5 -22.5q32 0 60 34l12 -16q-33 -39 -76 -39z" />
    <glyph glyph-name="itilde" unicode="&#x129;" 
d="M52 0l86 474h26l-86 -474h-26zM214 550q-22 0 -48.5 22.5t-43.5 22.5q-28 0 -60 -34l-12 15q34 40 76 40q22 0 48.5 -22.5t43.5 -22.5q32 0 60 34l12 -16q-33 -39 -76 -39z" />
    <glyph glyph-name="Imacron" unicode="&#x12a;" horiz-adv-x="236" 
d="M62 0l121 666h26l-121 -666h-26zM82 781l5 24h263l-5 -24h-263z" />
    <glyph glyph-name="imacron" unicode="&#x12b;" 
d="M52 0l86 474h26l-86 -474h-26zM35 589l5 24h263l-5 -24h-263z" />
    <glyph glyph-name="Ibreve" unicode="&#x12c;" horiz-adv-x="236" 
d="M62 0l121 666h26l-121 -666h-26zM213 733q-47 0 -72.5 37.5t-25.5 86.5v11h23v-11q0 -40 19.5 -70t57.5 -30q42 0 74.5 34.5t44.5 76.5h23q-17 -55 -53.5 -95t-90.5 -40z" />
    <glyph glyph-name="ibreve" unicode="&#x12d;" 
d="M52 0l86 474h26l-86 -474h-26zM166 541q-47 0 -72.5 37.5t-25.5 86.5v11h23v-11q0 -40 19.5 -70t57.5 -30q42 0 74.5 34.5t44.5 76.5h23q-17 -55 -53.5 -95t-90.5 -40z" />
    <glyph glyph-name="Iogonek" unicode="&#x12e;" horiz-adv-x="236" 
d="M83 -210q-40 0 -58.5 24.5t-18.5 60.5q0 62 56 125l121 666h26l-121 -666q-19 -24 -26.5 -35.5t-19.5 -38.5t-12 -51q0 -25 14.5 -43.5t38.5 -18.5q29 0 52 13l8 -19q-26 -17 -60 -17z" />
    <glyph glyph-name="iogonek" unicode="&#x12f;" 
d="M73 -210q-40 0 -58.5 24.5t-18.5 60.5q0 62 56 125l86 474h26l-86 -474q-19 -24 -26.5 -35.5t-19.5 -38.5t-12 -51q0 -25 14.5 -43.5t38.5 -18.5q29 0 52 13l8 -19q-26 -17 -60 -17zM172 582q-9 0 -15.5 7t-6.5 17q0 13 8.5 22.5t20.5 9.5q9 0 15.5 -7t6.5 -17
q0 -13 -8.5 -22.5t-20.5 -9.5z" />
    <glyph glyph-name="Idotaccent" unicode="&#x130;" horiz-adv-x="236" 
d="M62 0l121 666h26l-121 -666h-26zM220 782q-9 0 -16 7.5t-7 17.5t7 17.5t16 7.5t16 -7.5t7 -17.5t-7 -17.5t-16 -7.5z" />
    <glyph glyph-name="dotlessi" unicode="&#x131;" 
d="M52 0l86 474h26l-86 -474h-26z" />
    <glyph glyph-name="IJ" unicode="&#x132;" horiz-adv-x="472" 
d="M183 -179q-21 0 -31 5l9 24q8 -5 30 -5q80 0 105 138l123 683h26l-125 -690q-14 -75 -49 -115t-88 -40zM62 0l121 666h26l-121 -666h-26z" />
    <glyph glyph-name="ij" unicode="&#x133;" horiz-adv-x="507" 
d="M146 -228q-72 0 -114 37l14 20q35 -33 106 -33q157 0 192 204q20 117 48 244h-1q-9 -30 -21 -59t-33 -66t-44.5 -64t-58 -46t-72.5 -19q-46 0 -70.5 28t-24.5 77q0 23 4 43l61 336h26l-60 -331q-5 -28 -5 -47q0 -82 73 -82q46 0 88.5 35t73 91.5t52 119.5t33.5 127l16 87
h26l-86 -479q-19 -108 -71 -165.5t-152 -57.5zM166 582q-9 0 -15.5 7t-6.5 17q0 13 8.5 22.5t20.5 9.5q9 0 15.5 -7t6.5 -17q0 -13 -8.5 -22.5t-20.5 -9.5zM463 582q-9 0 -15.5 7t-6.5 17q0 13 8.5 22.5t20.5 9.5q9 0 15.5 -7t6.5 -17q0 -13 -8.5 -22.5t-20.5 -9.5z" />
    <glyph glyph-name="Jcircumflex" unicode="&#x134;" horiz-adv-x="236" 
d="M-53 -179q-21 0 -31 5l9 24q8 -5 30 -5q80 0 105 138l123 683h26l-125 -690q-14 -75 -49 -115t-88 -40zM88 732l141 140h8l92 -140h-23l-77 107l-114 -107h-27z" />
    <glyph glyph-name="jcircumflex" unicode="&#x135;" 
d="M-79 -228q-40 0 -68 17l11 21q24 -14 61 -14q50 0 77.5 35.5t40.5 110.5l93 532h27l-94 -536q-15 -85 -49 -125.5t-99 -40.5zM39 540l141 140h8l92 -140h-23l-77 107l-114 -107h-27z" />
    <glyph glyph-name="Kcommaaccent" unicode="&#x136;" horiz-adv-x="512" 
d="M425 0l-255 349l340 317h39l-345 -319l256 -347h-35zM62 0l121 666h26l-121 -666h-26zM167 -206q44 54 44 83q0 5 -4 13t-4 13q0 11 7.5 19t17.5 8q18 0 18 -21q0 -41 -61 -115h-18z" />
    <glyph glyph-name="kcommaaccent" unicode="&#x137;" horiz-adv-x="412" 
d="M322 0l-192 270l257 204h41l-262 -208l189 -266h-33zM52 0l129 720h26l-129 -720h-26zM114 -206q44 54 44 83q0 5 -4 13t-4 13q0 11 7.5 19t17.5 8q18 0 18 -21q0 -41 -61 -115h-18z" />
    <glyph glyph-name="kgreenlandic" unicode="&#x138;" horiz-adv-x="412" 
d="M322 0l-192 270l257 204h41l-262 -208l189 -266h-33zM52 0l85 474h26l-85 -474h-26z" />
    <glyph glyph-name="Lacute" unicode="&#x139;" horiz-adv-x="436" 
d="M62 0l121 666h26l-116 -642h270l-5 -24h-296zM196 731l124 119h41l-144 -119h-21z" />
    <glyph glyph-name="lacute" unicode="&#x13a;" 
d="M52 0l129 720h26l-129 -720h-26zM195 785l124 119h41l-144 -119h-21z" />
    <glyph glyph-name="Lcommaaccent" unicode="&#x13b;" horiz-adv-x="436" 
d="M62 0l121 666h26l-116 -642h270l-5 -24h-296zM132 -206q44 54 44 83q0 5 -4 13t-4 13q0 11 7.5 19t17.5 8q18 0 18 -21q0 -41 -61 -115h-18z" />
    <glyph glyph-name="lcommaaccent" unicode="&#x13c;" 
d="M52 0l129 720h26l-129 -720h-26zM-5 -206q44 54 44 83q0 5 -4 13t-4 13q0 11 7.5 19t17.5 8q18 0 18 -21q0 -41 -61 -115h-18z" />
    <glyph glyph-name="Lcaron" unicode="&#x13d;" horiz-adv-x="436" 
d="M62 0l121 666h26l-116 -642h270l-5 -24h-296zM246 537l68 159h35l-87 -159h-16z" />
    <glyph glyph-name="lcaron" unicode="&#x13e;" horiz-adv-x="234" 
d="M52 0l129 720h26l-129 -720h-26zM239 561l68 159h35l-87 -159h-16z" />
    <glyph glyph-name="Ldot" unicode="&#x13f;" horiz-adv-x="436" 
d="M62 0l121 666h26l-116 -642h270l-5 -24h-296zM361 332q-9 0 -16 7.5t-7 17.5t7 17.5t16 7.5t16 -7.5t7 -17.5t-7 -17.5t-16 -7.5z" />
    <glyph glyph-name="ldot" unicode="&#x140;" 
d="M52 0l129 720h26l-129 -720h-26zM232 315q-9 0 -16 7.5t-7 17.5t7 17.5t16 7.5t16 -7.5t7 -17.5t-7 -17.5t-16 -7.5z" />
    <glyph glyph-name="Lslash" unicode="&#x141;" horiz-adv-x="456" 
d="M82 0l58 321l-101 -79l-14 19l122 94l56 311h26l-52 -287l134 105l14 -19l-154 -120l-58 -321h270l-5 -24h-296z" />
    <glyph glyph-name="lslash" unicode="&#x142;" 
d="M62 0l56 315l-86 -72l7 38l86 72l66 367h26l-61 -341l91 76l-7 -38l-91 -76l-61 -341h-26z" />
    <glyph glyph-name="Nacute" unicode="&#x143;" horiz-adv-x="668" 
d="M62 0l121 666h25l294 -624l113 624h26l-121 -666h-25l-294 622l-113 -622h-26zM416 731l124 119h41l-144 -119h-21z" />
    <glyph glyph-name="nacute" unicode="&#x144;" horiz-adv-x="507" 
d="M52 0l85 474h26q-30 -168 -48 -244h1q9 30 21 59t33 66t44.5 64t58 46t72.5 19q46 0 70.5 -28t24.5 -77q0 -23 -4 -43l-61 -336h-26l60 331q5 28 5 47q0 82 -73 82q-46 0 -88.5 -35t-73 -91.5t-52 -119.5t-33.5 -127l-16 -87h-26zM299 539l124 119h41l-144 -119h-21z" />
    <glyph glyph-name="Ncommaaccent" unicode="&#x145;" horiz-adv-x="668" 
d="M62 0l121 666h25l294 -624l113 624h26l-121 -666h-25l-294 622l-113 -622h-26zM212 -206q44 54 44 83q0 5 -4 13t-4 13q0 11 7.5 19t17.5 8q18 0 18 -21q0 -41 -61 -115h-18z" />
    <glyph glyph-name="ncommaaccent" unicode="&#x146;" horiz-adv-x="507" 
d="M52 0l85 474h26q-30 -168 -48 -244h1q9 30 21 59t33 66t44.5 64t58 46t72.5 19q46 0 70.5 -28t24.5 -77q0 -23 -4 -43l-61 -336h-26l60 331q5 28 5 47q0 82 -73 82q-46 0 -88.5 -35t-73 -91.5t-52 -119.5t-33.5 -127l-16 -87h-26zM142 -206q44 54 44 83q0 5 -4 13t-4 13
q0 11 7.5 19t17.5 8q18 0 18 -21q0 -41 -61 -115h-18z" />
    <glyph glyph-name="Ncaron" unicode="&#x147;" horiz-adv-x="668" 
d="M62 0l121 666h25l294 -624l113 624h26l-121 -666h-25l-294 622l-113 -622h-26zM424 732l-92 140h23l77 -107l114 107h27l-141 -140h-8z" />
    <glyph glyph-name="ncaron" unicode="&#x148;" horiz-adv-x="507" 
d="M52 0l85 474h26q-30 -168 -48 -244h1q9 30 21 59t33 66t44.5 64t58 46t72.5 19q46 0 70.5 -28t24.5 -77q0 -23 -4 -43l-61 -336h-26l60 331q5 28 5 47q0 82 -73 82q-46 0 -88.5 -35t-73 -91.5t-52 -119.5t-33.5 -127l-16 -87h-26zM307 540l-92 140h23l77 -107l114 107h27
l-141 -140h-8z" />
    <glyph glyph-name="napostrophe" unicode="&#x149;" horiz-adv-x="507" 
d="M52 0l85 474h26q-30 -168 -48 -244h1q9 30 21 59t33 66t44.5 64t58 46t72.5 19q46 0 70.5 -28t24.5 -77q0 -23 -4 -43l-61 -336h-26l60 331q5 28 5 47q0 82 -73 82q-46 0 -88.5 -35t-73 -91.5t-52 -119.5t-33.5 -127l-16 -87h-26zM44 526l-15 7q41 46 41 75q0 8 -4 18
t-4 17q0 11 7.5 19t17.5 8q9 0 15 -9t6 -21q0 -27 -21 -60t-43 -54z" />
    <glyph glyph-name="Eng" unicode="&#x14a;" horiz-adv-x="668" 
d="M62 0l121 666h25l294 -624l113 624h26l-126 -690q-14 -75 -49 -115t-88 -40q-21 0 -31 5l9 24q8 -5 30 -5q40 0 67 35.5t38 102.5l3 18l-293 621l-113 -622h-26z" />
    <glyph glyph-name="eng" unicode="&#x14b;" horiz-adv-x="507" 
d="M52 0l85 474h26q-30 -168 -48 -244h1q9 30 21 59t33 66t44.5 64t58 46t72.5 19q46 0 70.5 -28t24.5 -77q0 -23 -4 -43l-72 -402q-15 -83 -48 -122.5t-96 -39.5q-39 0 -67 17l11 20q23 -14 59 -14q50 0 77 35t39 108l70 393q5 28 5 47q0 82 -73 82q-46 0 -88.5 -35
t-73 -91.5t-52 -119.5t-33.5 -127l-16 -87h-26z" />
    <glyph glyph-name="Omacron" unicode="&#x14c;" horiz-adv-x="725" 
d="M332 -10q-117 0 -188 82.5t-71 197.5q0 168 98.5 287t255.5 119q117 0 188.5 -82.5t71.5 -197.5q0 -168 -99 -287t-256 -119zM338 14q139 0 231 113t92 262q0 110 -65.5 186.5t-174.5 76.5q-139 0 -230.5 -113t-91.5 -262q0 -110 65 -186.5t174 -76.5zM305 781l5 24h263
l-5 -24h-263z" />
    <glyph glyph-name="omacron" unicode="&#x14d;" horiz-adv-x="459" 
d="M184 -10q-51 0 -85.5 31t-47.5 71t-13 84q0 116 66 212t171 96q51 0 85.5 -31t47.5 -71t13 -84q0 -116 -66 -212t-171 -96zM190 14q60 0 108.5 45t72.5 107.5t24 124.5q0 69 -30 119t-96 50q-60 0 -108.5 -45t-72.5 -107.5t-24 -124.5q0 -69 30 -119t96 -50zM156 589
l5 24h263l-5 -24h-263z" />
    <glyph glyph-name="Obreve" unicode="&#x14e;" horiz-adv-x="725" 
d="M332 -10q-117 0 -188 82.5t-71 197.5q0 168 98.5 287t255.5 119q117 0 188.5 -82.5t71.5 -197.5q0 -168 -99 -287t-256 -119zM338 14q139 0 231 113t92 262q0 110 -65.5 186.5t-174.5 76.5q-139 0 -230.5 -113t-91.5 -262q0 -110 65 -186.5t174 -76.5zM436 733
q-47 0 -72.5 37.5t-25.5 86.5v11h23v-11q0 -40 19.5 -70t57.5 -30q42 0 74.5 34.5t44.5 76.5h23q-17 -55 -53.5 -95t-90.5 -40z" />
    <glyph glyph-name="obreve" unicode="&#x14f;" horiz-adv-x="459" 
d="M184 -10q-51 0 -85.5 31t-47.5 71t-13 84q0 116 66 212t171 96q51 0 85.5 -31t47.5 -71t13 -84q0 -116 -66 -212t-171 -96zM190 14q60 0 108.5 45t72.5 107.5t24 124.5q0 69 -30 119t-96 50q-60 0 -108.5 -45t-72.5 -107.5t-24 -124.5q0 -69 30 -119t96 -50zM287 541
q-47 0 -72.5 37.5t-25.5 86.5v11h23v-11q0 -40 19.5 -70t57.5 -30q42 0 74.5 34.5t44.5 76.5h23q-17 -55 -53.5 -95t-90.5 -40z" />
    <glyph glyph-name="Ohungarumlaut" unicode="&#x150;" horiz-adv-x="725" 
d="M332 -10q-117 0 -188 82.5t-71 197.5q0 168 98.5 287t255.5 119q117 0 188.5 -82.5t71.5 -197.5q0 -168 -99 -287t-256 -119zM338 14q139 0 231 113t92 262q0 110 -65.5 186.5t-174.5 76.5q-139 0 -230.5 -113t-91.5 -262q0 -110 65 -186.5t174 -76.5zM339 731l103 119
h41l-123 -119h-21zM467 731l103 119h41l-123 -119h-21z" />
    <glyph glyph-name="ohungarumlaut" unicode="&#x151;" horiz-adv-x="459" 
d="M184 -10q-51 0 -85.5 31t-47.5 71t-13 84q0 116 66 212t171 96q51 0 85.5 -31t47.5 -71t13 -84q0 -116 -66 -212t-171 -96zM190 14q60 0 108.5 45t72.5 107.5t24 124.5q0 69 -30 119t-96 50q-60 0 -108.5 -45t-72.5 -107.5t-24 -124.5q0 -69 30 -119t96 -50zM190 539
l103 119h41l-123 -119h-21zM318 539l103 119h41l-123 -119h-21z" />
    <glyph glyph-name="OE" unicode="&#x152;" horiz-adv-x="832" 
d="M332 -10q-117 0 -188 82.5t-71 197.5q0 168 98.5 287t255.5 119q56 0 108 -10h300l-5 -24h-274l-49 -271h240l-4 -24h-240l-58 -323h281l-5 -24h-306q-37 -10 -83 -10zM338 14q42 0 80 12l112 614q-54 12 -109 12q-139 0 -230.5 -113t-91.5 -262q0 -110 65 -186.5
t174 -76.5z" />
    <glyph glyph-name="oe" unicode="&#x153;" horiz-adv-x="744" 
d="M184 -10q-51 0 -85.5 31t-47.5 71t-13 84q0 116 66 212t171 96q66 0 103.5 -51.5t37.5 -117.5q23 68 78 118.5t128 50.5q44 0 75 -26t31 -68q0 -135 -317 -184q-1 -10 -1 -28q0 -164 113 -164q72 0 132 64l14 -18q-62 -70 -150 -70q-63 0 -96 46t-35 114
q-26 -67 -80.5 -113.5t-123.5 -46.5zM190 14q60 0 108.5 45t72.5 107.5t24 124.5q0 69 -30 119t-96 50q-60 0 -108.5 -45t-72.5 -107.5t-24 -124.5q0 -69 30 -119t96 -50zM414 229q126 19 207 59.5t81 101.5q0 32 -23.5 51t-60.5 19q-77 0 -133 -69t-71 -162z" />
    <glyph glyph-name="Racute" unicode="&#x154;" horiz-adv-x="525" 
d="M62 0l121 666h114q90 0 141 -36t51 -95q0 -90 -66.5 -142.5t-174.5 -52.5v-1q15 -7 48 -61l167 -278h-31l-159 266q-29 49 -44 61.5t-40 12.5h-39l-62 -340h-26zM154 364h87q101 0 161.5 45t60.5 121q0 52 -44 82t-128 30h-87zM318 731l124 119h41l-144 -119h-21z" />
    <glyph glyph-name="racute" unicode="&#x155;" horiz-adv-x="320" 
d="M52 0l85 474h26q-30 -168 -48 -244h1q10 40 24.5 77t39.5 80.5t62.5 70t82.5 26.5q9 0 23 -2l-5 -24q-7 2 -22 2q-44 0 -82.5 -34.5t-66.5 -92.5t-47 -119t-31 -127l-16 -87h-26zM215 541l124 119h41l-144 -119h-21z" />
    <glyph glyph-name="Rcommaaccent" unicode="&#x156;" horiz-adv-x="525" 
d="M62 0l121 666h114q90 0 141 -36t51 -95q0 -90 -66.5 -142.5t-174.5 -52.5v-1q15 -7 48 -61l167 -278h-31l-159 266q-29 49 -44 61.5t-40 12.5h-39l-62 -340h-26zM154 364h87q101 0 161.5 45t60.5 121q0 52 -44 82t-128 30h-87zM174 -206q44 54 44 83q0 5 -4 13t-4 13
q0 11 7.5 19t17.5 8q18 0 18 -21q0 -41 -61 -115h-18z" />
    <glyph glyph-name="rcommaaccent" unicode="&#x157;" horiz-adv-x="320" 
d="M52 0l85 474h26q-30 -168 -48 -244h1q10 40 24.5 77t39.5 80.5t62.5 70t82.5 26.5q9 0 23 -2l-5 -24q-7 2 -22 2q-44 0 -82.5 -34.5t-66.5 -92.5t-47 -119t-31 -127l-16 -87h-26zM-5 -206q44 54 44 83q0 5 -4 13t-4 13q0 11 7.5 19t17.5 8q18 0 18 -21q0 -41 -61 -115
h-18z" />
    <glyph glyph-name="Rcaron" unicode="&#x158;" horiz-adv-x="525" 
d="M62 0l121 666h114q90 0 141 -36t51 -95q0 -90 -66.5 -142.5t-174.5 -52.5v-1q15 -7 48 -61l167 -278h-31l-159 266q-29 49 -44 61.5t-40 12.5h-39l-62 -340h-26zM154 364h87q101 0 161.5 45t60.5 121q0 52 -44 82t-128 30h-87zM326 732l-92 140h23l77 -107l114 107h27
l-141 -140h-8z" />
    <glyph glyph-name="rcaron" unicode="&#x159;" horiz-adv-x="320" 
d="M52 0l85 474h26q-30 -168 -48 -244h1q10 40 24.5 77t39.5 80.5t62.5 70t82.5 26.5q9 0 23 -2l-5 -24q-7 2 -22 2q-44 0 -82.5 -34.5t-66.5 -92.5t-47 -119t-31 -127l-16 -87h-26zM223 542l-92 140h23l77 -107l114 107h27l-141 -140h-8z" />
    <glyph glyph-name="Sacute" unicode="&#x15a;" horiz-adv-x="440" 
d="M194 -10q-104 0 -176 78l15 18q67 -72 165 -72q70 0 109.5 40.5t39.5 101.5q0 51 -21.5 82.5t-77.5 83.5q-8 7 -12 11q-46 43 -65.5 63.5t-37.5 56t-18 75.5q0 67 45 107.5t119 40.5q80 0 137 -49l-14 -20q-51 45 -127 45q-61 0 -97.5 -33.5t-36.5 -88.5
q0 -51 21.5 -82.5t77.5 -83.5q8 -7 12 -11q46 -43 65.5 -63.5t37.5 -56t18 -75.5q0 -72 -47.5 -120t-131.5 -48zM286 731l124 119h41l-144 -119h-21z" />
    <glyph glyph-name="sacute" unicode="&#x15b;" horiz-adv-x="331" 
d="M126 -10q-73 0 -120 41l14 18q42 -35 110 -35q45 0 77.5 25t32.5 66q0 26 -11 48.5t-23.5 36t-45.5 44.5t-47.5 46.5t-27 41.5t-12.5 54q0 45 35.5 76.5t92.5 31.5q53 0 92 -30l-13 -19q-34 25 -83 25q-44 0 -71.5 -24.5t-27.5 -57.5q0 -26 11 -48.5t23.5 -36t45.5 -44.5
t47.5 -46.5t27 -41.5t12.5 -54q0 -54 -41 -85.5t-98 -31.5zM202 539l124 119h41l-144 -119h-21z" />
    <glyph glyph-name="Scircumflex" unicode="&#x15c;" horiz-adv-x="440" 
d="M194 -10q-104 0 -176 78l15 18q67 -72 165 -72q70 0 109.5 40.5t39.5 101.5q0 51 -21.5 82.5t-77.5 83.5q-8 7 -12 11q-46 43 -65.5 63.5t-37.5 56t-18 75.5q0 67 45 107.5t119 40.5q80 0 137 -49l-14 -20q-51 45 -127 45q-61 0 -97.5 -33.5t-36.5 -88.5
q0 -51 21.5 -82.5t77.5 -83.5q8 -7 12 -11q46 -43 65.5 -63.5t37.5 -56t18 -75.5q0 -72 -47.5 -120t-131.5 -48zM176 732l141 140h8l92 -140h-23l-77 107l-114 -107h-27z" />
    <glyph glyph-name="scircumflex" unicode="&#x15d;" horiz-adv-x="331" 
d="M126 -10q-73 0 -120 41l14 18q42 -35 110 -35q45 0 77.5 25t32.5 66q0 26 -11 48.5t-23.5 36t-45.5 44.5t-47.5 46.5t-27 41.5t-12.5 54q0 45 35.5 76.5t92.5 31.5q53 0 92 -30l-13 -19q-34 25 -83 25q-44 0 -71.5 -24.5t-27.5 -57.5q0 -26 11 -48.5t23.5 -36t45.5 -44.5
t47.5 -46.5t27 -41.5t12.5 -54q0 -54 -41 -85.5t-98 -31.5zM92 540l141 140h8l92 -140h-23l-77 107l-114 -107h-27z" />
    <glyph glyph-name="Scedilla" unicode="&#x15e;" horiz-adv-x="440" 
d="M157 -210q-37 0 -57 12l8 22q20 -11 49 -11q63 0 63 48q0 42 -76 42l34 88q-94 5 -160 77l15 18q67 -72 165 -72q70 0 109.5 40.5t39.5 101.5q0 51 -21.5 82.5t-77.5 83.5q-8 7 -12 11q-46 43 -65.5 63.5t-37.5 56t-18 75.5q0 67 45 107.5t119 40.5q80 0 137 -49l-14 -20
q-51 45 -127 45q-61 0 -97.5 -33.5t-36.5 -88.5q0 -51 21.5 -82.5t77.5 -83.5q8 -7 12 -11q46 -43 65.5 -63.5t37.5 -56t18 -75.5q0 -71 -46 -118.5t-127 -49.5l-25 -67q31 -2 50.5 -19.5t19.5 -42.5q0 -33 -25 -52t-63 -19z" />
    <glyph glyph-name="scedilla" unicode="&#x15f;" horiz-adv-x="331" 
d="M92 -210q-37 0 -57 12l8 22q20 -11 49 -11q63 0 63 48q0 42 -76 42l34 88q-66 3 -107 40l14 18q42 -35 110 -35q45 0 77.5 25t32.5 66q0 26 -11 48.5t-23.5 36t-45.5 44.5t-47.5 46.5t-27 41.5t-12.5 54q0 45 35.5 76.5t92.5 31.5q53 0 92 -30l-13 -19q-34 25 -83 25
q-44 0 -71.5 -24.5t-27.5 -57.5q0 -26 11 -48.5t23.5 -36t45.5 -44.5t47.5 -46.5t27 -41.5t12.5 -54q0 -52 -38 -83t-92 -34l-25 -67q31 -2 50.5 -19.5t19.5 -42.5q0 -33 -25 -52t-63 -19z" />
    <glyph glyph-name="Scaron" unicode="&#x160;" horiz-adv-x="440" 
d="M194 -10q-104 0 -176 78l15 18q67 -72 165 -72q70 0 109.5 40.5t39.5 101.5q0 51 -21.5 82.5t-77.5 83.5q-8 7 -12 11q-46 43 -65.5 63.5t-37.5 56t-18 75.5q0 67 45 107.5t119 40.5q80 0 137 -49l-14 -20q-51 45 -127 45q-61 0 -97.5 -33.5t-36.5 -88.5
q0 -51 21.5 -82.5t77.5 -83.5q8 -7 12 -11q46 -43 65.5 -63.5t37.5 -56t18 -75.5q0 -72 -47.5 -120t-131.5 -48zM294 732l-92 140h23l77 -107l114 107h27l-141 -140h-8z" />
    <glyph glyph-name="scaron" unicode="&#x161;" horiz-adv-x="331" 
d="M126 -10q-73 0 -120 41l14 18q42 -35 110 -35q45 0 77.5 25t32.5 66q0 26 -11 48.5t-23.5 36t-45.5 44.5t-47.5 46.5t-27 41.5t-12.5 54q0 45 35.5 76.5t92.5 31.5q53 0 92 -30l-13 -19q-34 25 -83 25q-44 0 -71.5 -24.5t-27.5 -57.5q0 -26 11 -48.5t23.5 -36t45.5 -44.5
t47.5 -46.5t27 -41.5t12.5 -54q0 -54 -41 -85.5t-98 -31.5zM210 540l-92 140h23l77 -107l114 107h27l-141 -140h-8z" />
    <glyph glyph-name="Tcommaaccent" unicode="&#x162;" horiz-adv-x="450" 
d="M144 -210q-37 0 -57 12l8 22q20 -11 49 -11q63 0 63 48q0 42 -76 42l38 98l116 641h-191l5 24h408l-5 -24h-191l-116 -642h-4l-29 -77q31 -2 50.5 -19.5t19.5 -42.5q0 -33 -25 -52t-63 -19z" />
    <glyph glyph-name="tcommaaccent" unicode="&#x163;" horiz-adv-x="299" 
d="M102 -210q-37 0 -57 12l8 22q20 -11 49 -11q63 0 63 48q0 42 -76 42l34 89q-46 9 -46 71q0 16 3 34l63 353h-89l5 24h89l24 135l27 4l-25 -139h117l-5 -24h-117l-63 -354q-4 -26 -4 -34q0 -48 41 -48q55 0 92 50l15 -18q-44 -53 -105 -56l-25 -67q31 -2 50.5 -19.5
t19.5 -42.5q0 -33 -25 -52t-63 -19z" />
    <glyph glyph-name="Tcaron" unicode="&#x164;" horiz-adv-x="450" 
d="M169 0l116 642h-191l5 24h408l-5 -24h-191l-116 -642h-26zM310 732l-92 140h23l77 -107l114 107h27l-141 -140h-8z" />
    <glyph glyph-name="tcaron" unicode="&#x165;" horiz-adv-x="299" 
d="M139 -10q-62 0 -62 73q0 16 3 34l63 353h-89l5 24h89l24 135l27 4l-25 -139h117l-5 -24h-117l-63 -354q-4 -26 -4 -34q0 -48 41 -48q55 0 92 50l15 -18q-47 -56 -111 -56zM250 561l68 159h35l-87 -159h-16z" />
    <glyph glyph-name="Tbar" unicode="&#x166;" horiz-adv-x="450" 
d="M77 360l5 24h156l47 258h-191l5 24h408l-5 -24h-191l-47 -258h166l-5 -24h-165l-65 -360h-26l65 360h-157z" />
    <glyph glyph-name="tbar" unicode="&#x167;" horiz-adv-x="299" 
d="M57 275l4 24h55l27 151h-89l5 24h89l24 135l27 4l-25 -139h117l-5 -24h-117l-27 -151h91l-4 -24h-92l-31 -179q-4 -26 -4 -34q0 -48 41 -48q55 0 92 50l15 -18q-47 -56 -111 -56q-62 0 -62 73q0 16 3 34l32 178h-55z" />
    <glyph glyph-name="Utilde" unicode="&#x168;" horiz-adv-x="660" 
d="M286 -10q-99 0 -145 51t-46 136q0 39 7 74l75 415h26l-75 -413q-7 -36 -7 -75q0 -164 169 -164q204 0 248 239l75 413h26l-75 -415q-46 -261 -278 -261zM467 742q-22 0 -48.5 22.5t-43.5 22.5q-28 0 -60 -34l-12 15q34 40 76 40q22 0 48.5 -22.5t43.5 -22.5q32 0 60 34
l12 -16q-33 -39 -76 -39z" />
    <glyph glyph-name="utilde" unicode="&#x169;" horiz-adv-x="507" 
d="M162 -10q-46 0 -70.5 28t-24.5 77q0 23 4 43l61 336h26l-60 -331q-5 -28 -5 -47q0 -82 73 -82q46 0 88.5 35t73 91.5t52 119.5t33.5 127l16 87h26l-46 -256q-22 -120 -37 -218h-28q18 118 48 244h-1q-9 -30 -21 -59t-33 -66t-44.5 -64t-58 -46t-72.5 -19zM351 550
q-22 0 -48.5 22.5t-43.5 22.5q-28 0 -60 -34l-12 15q34 40 76 40q22 0 48.5 -22.5t43.5 -22.5q32 0 60 34l12 -16q-33 -39 -76 -39z" />
    <glyph glyph-name="Umacron" unicode="&#x16a;" horiz-adv-x="660" 
d="M286 -10q-99 0 -145 51t-46 136q0 39 7 74l75 415h26l-75 -413q-7 -36 -7 -75q0 -164 169 -164q204 0 248 239l75 413h26l-75 -415q-46 -261 -278 -261zM288 781l5 24h263l-5 -24h-263z" />
    <glyph glyph-name="umacron" unicode="&#x16b;" horiz-adv-x="507" 
d="M162 -10q-46 0 -70.5 28t-24.5 77q0 23 4 43l61 336h26l-60 -331q-5 -28 -5 -47q0 -82 73 -82q46 0 88.5 35t73 91.5t52 119.5t33.5 127l16 87h26l-46 -256q-22 -120 -37 -218h-28q18 118 48 244h-1q-9 -30 -21 -59t-33 -66t-44.5 -64t-58 -46t-72.5 -19zM172 589l5 24
h263l-5 -24h-263z" />
    <glyph glyph-name="Ubreve" unicode="&#x16c;" horiz-adv-x="660" 
d="M286 -10q-99 0 -145 51t-46 136q0 39 7 74l75 415h26l-75 -413q-7 -36 -7 -75q0 -164 169 -164q204 0 248 239l75 413h26l-75 -415q-46 -261 -278 -261zM419 733q-47 0 -72.5 37.5t-25.5 86.5v11h23v-11q0 -40 19.5 -70t57.5 -30q42 0 74.5 34.5t44.5 76.5h23
q-17 -55 -53.5 -95t-90.5 -40z" />
    <glyph glyph-name="ubreve" unicode="&#x16d;" horiz-adv-x="507" 
d="M162 -10q-46 0 -70.5 28t-24.5 77q0 23 4 43l61 336h26l-60 -331q-5 -28 -5 -47q0 -82 73 -82q46 0 88.5 35t73 91.5t52 119.5t33.5 127l16 87h26l-46 -256q-22 -120 -37 -218h-28q18 118 48 244h-1q-9 -30 -21 -59t-33 -66t-44.5 -64t-58 -46t-72.5 -19zM303 541
q-47 0 -72.5 37.5t-25.5 86.5v11h23v-11q0 -40 19.5 -70t57.5 -30q42 0 74.5 34.5t44.5 76.5h23q-17 -55 -53.5 -95t-90.5 -40z" />
    <glyph glyph-name="Uring" unicode="&#x16e;" horiz-adv-x="660" 
d="M286 -10q-99 0 -145 51t-46 136q0 39 7 74l75 415h26l-75 -413q-7 -36 -7 -75q0 -164 169 -164q204 0 248 239l75 413h26l-75 -415q-46 -261 -278 -261zM430 740q-36 0 -59.5 26t-23.5 60q0 36 24 62t61 26q36 0 59.5 -26t23.5 -60q0 -36 -24 -62t-61 -26zM432 761
q27 0 43.5 20t16.5 45q0 26 -17 46.5t-45 20.5q-27 0 -43.5 -20t-16.5 -45q0 -26 17 -46.5t45 -20.5z" />
    <glyph glyph-name="uring" unicode="&#x16f;" horiz-adv-x="507" 
d="M162 -10q-46 0 -70.5 28t-24.5 77q0 23 4 43l61 336h26l-60 -331q-5 -28 -5 -47q0 -82 73 -82q46 0 88.5 35t73 91.5t52 119.5t33.5 127l16 87h26l-46 -256q-22 -120 -37 -218h-28q18 118 48 244h-1q-9 -30 -21 -59t-33 -66t-44.5 -64t-58 -46t-72.5 -19zM314 548
q-36 0 -59.5 26t-23.5 60q0 36 24 62t61 26q36 0 59.5 -26t23.5 -60q0 -36 -24 -62t-61 -26zM316 569q27 0 43.5 20t16.5 45q0 26 -17 46.5t-45 20.5q-27 0 -43.5 -20t-16.5 -45q0 -26 17 -46.5t45 -20.5z" />
    <glyph glyph-name="Uhungarumlaut" unicode="&#x170;" horiz-adv-x="660" 
d="M286 -10q-99 0 -145 51t-46 136q0 39 7 74l75 415h26l-75 -413q-7 -36 -7 -75q0 -164 169 -164q204 0 248 239l75 413h26l-75 -415q-46 -261 -278 -261zM322 731l103 119h41l-123 -119h-21zM450 731l103 119h41l-123 -119h-21z" />
    <glyph glyph-name="uhungarumlaut" unicode="&#x171;" horiz-adv-x="507" 
d="M162 -10q-46 0 -70.5 28t-24.5 77q0 23 4 43l61 336h26l-60 -331q-5 -28 -5 -47q0 -82 73 -82q46 0 88.5 35t73 91.5t52 119.5t33.5 127l16 87h26l-46 -256q-22 -120 -37 -218h-28q18 118 48 244h-1q-9 -30 -21 -59t-33 -66t-44.5 -64t-58 -46t-72.5 -19zM206 539
l103 119h41l-123 -119h-21zM334 539l103 119h41l-123 -119h-21z" />
    <glyph glyph-name="Uogonek" unicode="&#x172;" horiz-adv-x="660" 
d="M427 -210q-40 0 -58.5 24.5t-18.5 60.5q0 39 24.5 80t57.5 71q-57 -36 -146 -36q-99 0 -145 51t-46 136q0 39 7 74l75 415h26l-75 -413q-7 -36 -7 -75q0 -164 169 -164q204 0 248 239l75 413h26l-75 -415q-8 -43 -17 -73t-30 -63.5t-33.5 -50t-50.5 -64.5q-1 -1 -7 -9
t-8 -10.5t-7.5 -10.5t-8 -12t-7 -12t-7 -13t-6 -13t-5 -15t-2.5 -14.5t-1 -15.5q0 -25 14.5 -43.5t38.5 -18.5q29 0 52 13l8 -19q-26 -17 -60 -17z" />
    <glyph glyph-name="uogonek" unicode="&#x173;" horiz-adv-x="507" 
d="M365 -210q-40 0 -58.5 24.5t-18.5 60.5q0 62 56 125q18 118 48 244h-1q-9 -30 -21 -59t-33 -66t-44.5 -64t-58 -46t-72.5 -19q-46 0 -70.5 28t-24.5 77q0 23 4 43l61 336h26l-60 -331q-5 -28 -5 -47q0 -82 73 -82q46 0 88.5 35t73 91.5t52 119.5t33.5 127l16 87h26
l-46 -256q-22 -120 -37 -218q-60 -71 -60 -125q0 -25 14.5 -43.5t38.5 -18.5q29 0 52 13l8 -19q-25 -17 -60 -17z" />
    <glyph glyph-name="Wcircumflex" unicode="&#x174;" horiz-adv-x="847" 
d="M166 0l-54 666h26l49 -621l297 621h26l76 -618l277 618h28l-300 -666h-24l-77 622l-297 -622h-27zM390 732l141 140h8l92 -140h-23l-77 107l-114 -107h-27z" />
    <glyph glyph-name="wcircumflex" unicode="&#x175;" horiz-adv-x="656" 
d="M119 0l-59 474h26l53 -434l218 434h26l61 -434l210 434h26l-229 -474h-26l-62 434l-218 -434h-26zM261 540l141 140h8l92 -140h-23l-77 107l-114 -107h-27z" />
    <glyph glyph-name="Ycircumflex" unicode="&#x176;" horiz-adv-x="506" 
d="M202 0l46 250l-145 416h29l132 -386l272 386h33l-295 -416l-46 -250h-26zM222 732l141 140h8l92 -140h-23l-77 107l-114 -107h-27z" />
    <glyph glyph-name="ycircumflex" unicode="&#x177;" horiz-adv-x="393" 
d="M-54 -228q-25 0 -45 9l7 22q16 -7 44 -7q52 0 90 44.5t96 152.5l-86 481h26l79 -444l239 444h29l-257 -477q-69 -129 -113.5 -177t-108.5 -48zM122 540l141 140h8l92 -140h-23l-77 107l-114 -107h-27z" />
    <glyph glyph-name="Ydieresis" unicode="&#x178;" horiz-adv-x="506" 
d="M202 0l46 250l-145 416h29l132 -386l272 386h33l-295 -416l-46 -250h-26zM273 741q-9 0 -16 7.5t-7 17.5t7 17.5t16 7.5t16 -7.5t7 -17.5t-7 -17.5t-16 -7.5zM421 741q-9 0 -16 7.5t-7 17.5t7 17.5t16 7.5t16 -7.5t7 -17.5t-7 -17.5t-16 -7.5z" />
    <glyph glyph-name="Zacute" unicode="&#x179;" horiz-adv-x="540" 
d="M-3 0l5 27l505 615h-374l5 24h409l-4 -21l-513 -621h418l-5 -24h-446zM332 731l124 119h41l-144 -119h-21z" />
    <glyph glyph-name="zacute" unicode="&#x17a;" horiz-adv-x="394" 
d="M-2 0l4 25l348 425h-264l4 24h293l-5 -27l-350 -423h290l-4 -24h-316zM236 539l124 119h41l-144 -119h-21z" />
    <glyph glyph-name="Zdotaccent" unicode="&#x17b;" horiz-adv-x="540" 
d="M-3 0l5 27l505 615h-374l5 24h409l-4 -21l-513 -621h418l-5 -24h-446zM354 782q-9 0 -16 7.5t-7 17.5t7 17.5t16 7.5t16 -7.5t7 -17.5t-7 -17.5t-16 -7.5z" />
    <glyph glyph-name="zdotaccent" unicode="&#x17c;" horiz-adv-x="394" 
d="M-2 0l4 25l348 425h-264l4 24h293l-5 -27l-350 -423h290l-4 -24h-316zM258 590q-9 0 -16 7.5t-7 17.5t7 17.5t16 7.5t16 -7.5t7 -17.5t-7 -17.5t-16 -7.5z" />
    <glyph glyph-name="Zcaron" unicode="&#x17d;" horiz-adv-x="540" 
d="M-3 0l5 27l505 615h-374l5 24h409l-4 -21l-513 -621h418l-5 -24h-446zM340 732l-92 140h23l77 -107l114 107h27l-141 -140h-8z" />
    <glyph glyph-name="zcaron" unicode="&#x17e;" horiz-adv-x="394" 
d="M-2 0l4 25l348 425h-264l4 24h293l-5 -27l-350 -423h290l-4 -24h-316zM244 540l-92 140h23l77 -107l114 107h27l-141 -140h-8z" />
    <glyph glyph-name="longs" unicode="&#x17f;" horiz-adv-x="246" 
d="M-77 -228q-51 0 -78 20l11 21q26 -17 71 -17q47 0 74 33.5t41 112.5l108 615q31 173 168 173q59 0 107 -31l-13 -21q-43 28 -98 28q-56 0 -90 -37t-48 -116l-108 -615q-15 -86 -50 -126t-95 -40z" />
    <glyph glyph-name="uni018F" unicode="&#x18f;" horiz-adv-x="696" 
d="M193 577l-12 19q91 80 217 80q117 0 188.5 -82.5t71.5 -197.5q0 -109 -40.5 -201t-118 -148.5t-176.5 -56.5q-113 0 -181 82.5t-68 197.5q0 26 3 52h550q5 37 5 67q0 110 -65.5 186.5t-174.5 76.5q-55 0 -108 -20.5t-91 -54.5zM329 14q109 0 188.5 81.5t104.5 202.5h-522
v-21q0 -110 62 -186.5t167 -76.5z" />
    <glyph glyph-name="florin" unicode="&#x192;" horiz-adv-x="428" 
d="M-58 -188q-39 0 -62 19l11 21q21 -16 54 -16q120 0 168 167l116 391h-100l5 24h102l38 125q55 187 196 187q49 0 88 -29l-14 -20q-34 25 -77 25q-67 0 -106 -43.5t-62 -123.5l-36 -121h109l-5 -24h-111l-118 -395q-55 -187 -196 -187z" />
    <glyph glyph-name="Aringacute" unicode="&#x1fa;" horiz-adv-x="569" 
d="M-16 0l352 647q-26 7 -42 24t-16 37q0 26 24 45.5t61 19.5q36 0 59.5 -19t23.5 -44q0 -22 -18 -40t-47 -23l118 -647h-26l-36 199h-317l-108 -199h-28zM133 223h299l-75 412zM363 666q27 0 43.5 13t16.5 29q0 17 -17 30.5t-45 13.5q-27 0 -43.5 -13t-16.5 -29
q0 -17 17 -30.5t45 -13.5zM355 790l85 82h35l-99 -82h-21z" />
    <glyph glyph-name="aringacute" unicode="&#x1fb;" horiz-adv-x="468" 
d="M141 -10q-48 0 -74.5 35.5t-26.5 96.5q0 65 16 127.5t47.5 116t84.5 86t119 32.5q49 0 109 -10l-46 -256q-22 -120 -37 -218h-28q13 84 44 223h-1q-12 -37 -29 -73.5t-42.5 -74.5t-61 -61.5t-74.5 -23.5zM145 14q44 0 84.5 38.5t68.5 97t46.5 116.5t27.5 108l14 79
q-42 7 -88 7q-73 0 -128 -53.5t-80 -127t-25 -150.5q0 -115 80 -115zM320 538q-36 0 -59.5 26t-23.5 60q0 36 24 62t61 26q36 0 59.5 -26t23.5 -60q0 -36 -24 -62t-61 -26zM322 559q27 0 43.5 20t16.5 45q0 26 -17 46.5t-45 20.5q-27 0 -43.5 -20t-16.5 -45q0 -26 17 -46.5
t45 -20.5zM307 753l124 119h41l-144 -119h-21z" />
    <glyph glyph-name="AEacute" unicode="&#x1fc;" horiz-adv-x="780" 
d="M-59 0l522 666h320l-5 -24h-272l-49 -271h238l-4 -24h-238l-58 -323h279l-5 -24h-305l35 196h-275l-153 -196h-30zM143 220h261l78 432zM578 731l124 119h41l-144 -119h-21z" />
    <glyph glyph-name="aeacute" unicode="&#x1fd;" horiz-adv-x="666" 
d="M124 -10q-45 0 -77 30t-32 75q0 56 40.5 96t100.5 57.5t131 17.5h30l11 65q4 20 4 42q0 87 -96 87q-69 0 -135 -56l-12 18q70 62 151 62q54 0 85 -27t31 -77q0 -19 -4 -36h1q27 63 75 101.5t116 38.5q44 0 75 -26t31 -68q0 -48 -40.5 -82.5t-101.5 -50t-133 -15.5h-37
q-6 -33 -6 -64q0 -164 113 -164q72 0 132 64l14 -18q-62 -70 -150 -70q-95 0 -124 102q-82 -102 -193 -102zM127 14q101 0 185 100q-5 24 -5 60q0 40 5 68h-30q-99 0 -170.5 -39t-71.5 -108q0 -33 25.5 -57t61.5 -24zM344 265h38q100 0 171 32.5t71 92.5q0 32 -23.5 51
t-60.5 19q-69 0 -121.5 -57t-74.5 -138zM368 539l124 119h41l-144 -119h-21z" />
    <glyph glyph-name="Oslashacute" unicode="&#x1fe;" horiz-adv-x="725" 
d="M76 -58l-17 15l90 109q-76 82 -76 204q0 168 98.5 287t255.5 119q101 0 172 -66l87 105l17 -15l-88 -106q72 -80 72 -198q0 -168 -99 -287t-256 -119q-98 0 -166 60zM166 87l416 502q-65 63 -161 63q-139 0 -230.5 -113t-91.5 -262q0 -117 67 -190zM338 14q139 0 231 113
t92 262q0 110 -63 184l-415 -502q62 -57 155 -57zM421 731l124 119h41l-144 -119h-21z" />
    <glyph glyph-name="oslashacute" unicode="&#x1ff;" horiz-adv-x="459" 
d="M1 -45l-17 15l79 95q-25 47 -25 111q0 116 66 212t171 96q62 0 100 -45l83 99l17 -15l-86 -103q32 -54 32 -122q0 -116 -66 -212t-171 -96q-70 0 -108 55zM190 14q60 0 108.5 45t72.5 107.5t24 124.5q0 63 -24 108l-278 -334q32 -51 97 -51zM81 87l277 332q-31 41 -89 41
q-60 0 -108.5 -45t-72.5 -107.5t-24 -124.5q0 -55 17 -96zM272 539l124 119h41l-144 -119h-21z" />
    <glyph glyph-name="Scommaaccent" unicode="&#x218;" horiz-adv-x="440" 
d="M194 -10q-104 0 -176 78l15 18q67 -72 165 -72q70 0 109.5 40.5t39.5 101.5q0 51 -21.5 82.5t-77.5 83.5q-8 7 -12 11q-46 43 -65.5 63.5t-37.5 56t-18 75.5q0 67 45 107.5t119 40.5q80 0 137 -49l-14 -20q-51 45 -127 45q-61 0 -97.5 -33.5t-36.5 -88.5
q0 -51 21.5 -82.5t77.5 -83.5q8 -7 12 -11q46 -43 65.5 -63.5t37.5 -56t18 -75.5q0 -72 -47.5 -120t-131.5 -48zM123 -206q44 54 44 83q0 5 -4 13t-4 13q0 11 7.5 19t17.5 8q18 0 18 -21q0 -41 -61 -115h-18z" />
    <glyph glyph-name="scommaaccent" unicode="&#x219;" horiz-adv-x="331" 
d="M126 -10q-73 0 -120 41l14 18q42 -35 110 -35q45 0 77.5 25t32.5 66q0 26 -11 48.5t-23.5 36t-45.5 44.5t-47.5 46.5t-27 41.5t-12.5 54q0 45 35.5 76.5t92.5 31.5q53 0 92 -30l-13 -19q-34 25 -83 25q-44 0 -71.5 -24.5t-27.5 -57.5q0 -26 11 -48.5t23.5 -36t45.5 -44.5
t47.5 -46.5t27 -41.5t12.5 -54q0 -54 -41 -85.5t-98 -31.5zM58 -206q44 54 44 83q0 5 -4 13t-4 13q0 11 7.5 19t17.5 8q18 0 18 -21q0 -41 -61 -115h-18z" />
    <glyph glyph-name="uni021A" unicode="&#x21a;" horiz-adv-x="450" 
d="M169 0l116 642h-191l5 24h408l-5 -24h-191l-116 -642h-26zM112 -206q44 54 44 83q0 5 -4 13t-4 13q0 11 7.5 19t17.5 8q18 0 18 -21q0 -41 -61 -115h-18z" />
    <glyph glyph-name="uni021B" unicode="&#x21b;" horiz-adv-x="299" 
d="M139 -10q-62 0 -62 73q0 16 3 34l63 353h-89l5 24h89l24 135l27 4l-25 -139h117l-5 -24h-117l-63 -354q-4 -26 -4 -34q0 -48 41 -48q55 0 92 50l15 -18q-47 -56 -111 -56zM70 -206q44 54 44 83q0 5 -4 13t-4 13q0 11 7.5 19t17.5 8q18 0 18 -21q0 -41 -61 -115h-18z" />
    <glyph glyph-name="uni0237" unicode="&#x237;" 
d="M-79 -228q-40 0 -68 17l11 21q24 -14 61 -14q50 0 77.5 35.5t40.5 110.5l93 532h27l-94 -536q-15 -85 -49 -125.5t-99 -40.5z" />
    <glyph glyph-name="uni0259" unicode="&#x259;" horiz-adv-x="398" 
d="M227 484q68 0 101.5 -51.5t33.5 -132.5q0 -120 -67 -215t-171 -95q-44 0 -75 26t-31 68q0 135 317 184q1 10 1 28q0 164 -113 164q-72 0 -132 -64l-14 18q62 70 150 70zM332 245q-126 -19 -207 -59.5t-81 -101.5q0 -32 23.5 -51t60.5 -19q77 0 133 69t71 162z" />
    <glyph glyph-name="uni02BB" unicode="&#x2bb;" horiz-adv-x="149" 
d="M116 522q-9 0 -15 9t-6 21q0 27 21 60t43 54l15 -7q-41 -46 -41 -75q0 -8 4 -18t4 -17q0 -11 -7.5 -19t-17.5 -8z" />
    <glyph glyph-name="afii57929" unicode="&#x2bc;" horiz-adv-x="149" 
d="M104 526l-15 7q41 46 41 75q0 8 -4 18t-4 17q0 11 7.5 19t17.5 8q9 0 15 -9t6 -21q0 -27 -21 -60t-43 -54z" />
    <glyph glyph-name="circumflex" unicode="&#x2c6;" horiz-adv-x="500" 
d="M184 540l141 140h8l92 -140h-23l-77 107l-114 -107h-27z" />
    <glyph glyph-name="caron" unicode="&#x2c7;" horiz-adv-x="500" 
d="M300 540l-92 140h23l77 -107l114 107h27l-141 -140h-8z" />
    <glyph glyph-name="breve" unicode="&#x2d8;" horiz-adv-x="500" 
d="M305 541q-47 0 -72.5 37.5t-25.5 86.5v11h23v-11q0 -40 19.5 -70t57.5 -30q42 0 74.5 34.5t44.5 76.5h23q-17 -55 -53.5 -95t-90.5 -40z" />
    <glyph glyph-name="dotaccent" unicode="&#x2d9;" horiz-adv-x="500" 
d="M314 590q-9 0 -16 7.5t-7 17.5t7 17.5t16 7.5t16 -7.5t7 -17.5t-7 -17.5t-16 -7.5z" />
    <glyph glyph-name="ring" unicode="&#x2da;" horiz-adv-x="500" 
d="M320 548q-36 0 -59.5 26t-23.5 60q0 36 24 62t61 26q36 0 59.5 -26t23.5 -60q0 -36 -24 -62t-61 -26zM322 569q27 0 43.5 20t16.5 45q0 26 -17 46.5t-45 20.5q-27 0 -43.5 -20t-16.5 -45q0 -26 17 -46.5t45 -20.5z" />
    <glyph glyph-name="ogonek" unicode="&#x2db;" horiz-adv-x="500" 
d="M208 -210q-40 0 -58.5 24.5t-18.5 60.5q0 62 56 125h27q-1 -1 -7 -9t-8 -10.5t-7.5 -10.5t-8 -12t-7 -12t-7 -13t-6 -13t-5 -15t-2.5 -14.5t-1 -15.5q0 -25 14.5 -43.5t38.5 -18.5q29 0 52 13l8 -19q-26 -17 -60 -17z" />
    <glyph glyph-name="tilde" unicode="&#x2dc;" horiz-adv-x="500" 
d="M357 550q-22 0 -48.5 22.5t-43.5 22.5q-28 0 -60 -34l-12 15q34 40 76 40q22 0 48.5 -22.5t43.5 -22.5q32 0 60 34l12 -16q-33 -39 -76 -39z" />
    <glyph glyph-name="hungarumlaut" unicode="&#x2dd;" horiz-adv-x="500" 
d="M92 539l103 119h41l-123 -119h-21zM220 539l103 119h41l-123 -119h-21z" />
    <glyph glyph-name="gravecomb" unicode="&#x300;" horiz-adv-x="1" 
d="M-187 539l-102 119h40l82 -119h-20z" />
    <glyph glyph-name="acutecomb" unicode="&#x301;" horiz-adv-x="1" 
d="M-186 539l124 119h41l-144 -119h-21z" />
    <glyph glyph-name="uni0302" unicode="&#x302;" horiz-adv-x="1" 
d="M-296 540l141 140h8l92 -140h-23l-77 107l-114 -107h-27z" />
    <glyph glyph-name="tildecomb" unicode="&#x303;" horiz-adv-x="1" 
d="M-123 550q-22 0 -48.5 22.5t-43.5 22.5q-28 0 -60 -34l-12 15q34 40 76 40q22 0 48.5 -22.5t43.5 -22.5q32 0 60 34l12 -16q-33 -39 -76 -39z" />
    <glyph glyph-name="uni0304" unicode="&#x304;" horiz-adv-x="1" 
d="M-321 598l5 24h263l-5 -24h-263z" />
    <glyph glyph-name="uni0306" unicode="&#x306;" horiz-adv-x="1" 
d="M-194 540q-47 0 -72.5 37.5t-25.5 86.5v11h23v-11q0 -40 19.5 -70t57.5 -30q42 0 74.5 34.5t44.5 76.5h23q-17 -55 -53.5 -95t-90.5 -40z" />
    <glyph glyph-name="uni0307" unicode="&#x307;" horiz-adv-x="1" 
d="M-43 582q-9 0 -15.5 7t-6.5 17q0 13 8.5 22.5t20.5 9.5q9 0 15.5 -7t6.5 -17q0 -13 -8.5 -22.5t-20.5 -9.5z" />
    <glyph glyph-name="uni0308" unicode="&#x308;" horiz-adv-x="1" 
d="M-265 549q-9 0 -16 7.5t-7 17.5t7 17.5t16 7.5t16 -7.5t7 -17.5t-7 -17.5t-16 -7.5zM-117 549q-9 0 -16 7.5t-7 17.5t7 17.5t16 7.5t16 -7.5t7 -17.5t-7 -17.5t-16 -7.5z" />
    <glyph glyph-name="uni030A" unicode="&#x30a;" horiz-adv-x="1" 
d="M-179 548q-36 0 -59.5 26t-23.5 60q0 36 24 62t61 26q36 0 59.5 -26t23.5 -60q0 -36 -24 -62t-61 -26zM-177 569q27 0 43.5 20t16.5 45q0 26 -17 46.5t-45 20.5q-27 0 -43.5 -20t-16.5 -45q0 -26 17 -46.5t45 -20.5z" />
    <glyph glyph-name="uni030B" unicode="&#x30b;" horiz-adv-x="1" 
d="M-407 539l103 119h41l-123 -119h-21zM-279 539l103 119h41l-123 -119h-21z" />
    <glyph glyph-name="uni030C" unicode="&#x30c;" horiz-adv-x="1" 
d="M-149 540l-92 140h23l77 -107l114 107h27l-141 -140h-8z" />
    <glyph glyph-name="uni0312" unicode="&#x312;" horiz-adv-x="1" 
d="M-100 732l11 -8q-42 -47 -42 -80q0 -6 5 -15.5t5 -15.5q0 -13 -9 -22t-20 -9q-9 0 -15.5 7t-6.5 17q0 32 23.5 67.5t48.5 58.5z" />
    <glyph glyph-name="uni0313" unicode="&#x313;" horiz-adv-x="1" 
d="M-150 561l68 159h35l-87 -159h-16z" />
    <glyph glyph-name="uni0326" unicode="&#x326;" horiz-adv-x="1" 
d="M-309 -206q44 54 44 83q0 5 -4 13t-4 13q0 11 7.5 19t17.5 8q18 0 18 -21q0 -41 -61 -115h-18z" />
    <glyph glyph-name="uni0327" unicode="&#x327;" horiz-adv-x="1" 
d="M-336 -210q-37 0 -57 12l8 22q20 -11 49 -11q63 0 63 48q0 42 -76 42l40 103h22l-31 -83q31 -2 50.5 -19.5t19.5 -42.5q0 -33 -25 -52t-63 -19z" />
    <glyph glyph-name="uni0328" unicode="&#x328;" horiz-adv-x="1" 
d="M-291 -210q-40 0 -58.5 24.5t-18.5 60.5q0 62 56 125h27q-1 -1 -7 -9t-8 -10.5t-7.5 -10.5t-8 -12t-7 -12t-7 -13t-6 -13t-5 -15t-2.5 -14.5t-1 -15.5q0 -25 14.5 -43.5t38.5 -18.5q29 0 52 13l8 -19q-25 -17 -60 -17z" />
    <glyph glyph-name="uni037E" unicode="&#x37e;" horiz-adv-x="167" 
d="M2 -102l-11 8q42 47 42 80q0 6 -5 15.5t-5 15.5q0 13 9 22t20 9q9 0 15.5 -7t6.5 -17q0 -32 -23.5 -67.5t-48.5 -58.5zM121 426q-9 0 -15.5 7t-6.5 17q0 13 8.5 22.5t20.5 9.5q9 0 15.5 -7t6.5 -17q0 -13 -8.5 -22.5t-20.5 -9.5z" />
    <glyph glyph-name="tonos" unicode="&#x384;" horiz-adv-x="500" 
d="M214 539l52 119h38l-72 -119h-18z" />
    <glyph glyph-name="dieresistonos" unicode="&#x385;" horiz-adv-x="500" 
d="M166 549q-9 0 -16 7.5t-7 17.5t7 17.5t16 7.5t16 -7.5t7 -17.5t-7 -17.5t-16 -7.5zM334 549q-9 0 -16 7.5t-7 17.5t7 17.5t16 7.5t16 -7.5t7 -17.5t-7 -17.5t-16 -7.5zM225 539l33 119h37l-51 -119h-19z" />
    <glyph glyph-name="Alphatonos" unicode="&#x386;" horiz-adv-x="569" 
d="M-16 0l362 666h32l121 -666h-26l-36 199h-317l-108 -199h-28zM133 223h299l-75 412zM173 547l52 119h38l-72 -119h-18z" />
    <glyph glyph-name="anoteleia" unicode="&#x387;" horiz-adv-x="296" 
d="M148 219q-28 0 -47 19t-19 47q0 29 19 48t47 19t47 -19.5t19 -47.5t-19 -47t-47 -19z" />
    <glyph glyph-name="Epsilontonos" unicode="&#x388;" horiz-adv-x="535" 
d="M117 0l121 666h300l-5 -24h-274l-49 -271h240l-4 -24h-240l-58 -323h281l-5 -24h-307zM92 547l52 119h38l-72 -119h-18z" />
    <glyph glyph-name="Etatonos" unicode="&#x389;" horiz-adv-x="751" 
d="M117 0l121 666h26l-54 -299h434l54 299h26l-121 -666h-26l62 343h-434l-62 -343h-26zM92 547l52 119h38l-72 -119h-18z" />
    <glyph glyph-name="Iotatonos" unicode="&#x38a;" horiz-adv-x="291" 
d="M117 0l121 666h26l-121 -666h-26zM92 547l52 119h38l-72 -119h-18z" />
    <glyph glyph-name="Omicrontonos" unicode="&#x38c;" horiz-adv-x="743" 
d="M350 -10q-117 0 -188 82.5t-71 197.5q0 168 98.5 287t255.5 119q117 0 188.5 -82.5t71.5 -197.5q0 -168 -99 -287t-256 -119zM356 14q139 0 231 113t92 262q0 110 -65.5 186.5t-174.5 76.5q-139 0 -230.5 -113t-91.5 -262q0 -110 65 -186.5t174 -76.5zM82 547l52 119h38
l-72 -119h-18z" />
    <glyph glyph-name="Upsilontonos" unicode="&#x38e;" horiz-adv-x="625" 
d="M321 0l46 250l-145 416h29l132 -386l272 386h33l-295 -416l-46 -250h-26zM92 547l52 119h38l-72 -119h-18z" />
    <glyph glyph-name="Omegatonos" unicode="&#x38f;" horiz-adv-x="763" 
d="M82 0l4 24h156q-46 31 -82 102t-36 156q0 104 45 194.5t125 145t176 54.5q107 0 181 -85t74 -197q0 -125 -65 -229t-157 -141h167l-4 -24h-213l4 24q106 36 174 140.5t68 225.5q0 105 -68 183.5t-165 78.5q-131 0 -223.5 -111t-92.5 -255q0 -85 36.5 -157t92.5 -105
l-4 -24h-193zM107 547l52 119h38l-72 -119h-18z" />
    <glyph glyph-name="iotadieresistonos" unicode="&#x390;" horiz-adv-x="257" 
d="M121 -10q-54 0 -54 60q0 18 4 37l72 387h26l-72 -388q-3 -18 -3 -32q0 -40 30 -40q25 0 44 17l11 -18q-25 -23 -58 -23zM96 549q-9 0 -16 7.5t-7 17.5t7 17.5t16 7.5t16 -7.5t7 -17.5t-7 -17.5t-16 -7.5zM264 549q-9 0 -16 7.5t-7 17.5t7 17.5t16 7.5t16 -7.5t7 -17.5
t-7 -17.5t-16 -7.5zM155 539l33 119h37l-51 -119h-19z" />
    <glyph glyph-name="Alpha" unicode="&#x391;" horiz-adv-x="569" 
d="M-16 0l362 666h32l121 -666h-26l-36 199h-317l-108 -199h-28zM133 223h299l-75 412z" />
    <glyph glyph-name="Beta" unicode="&#x392;" horiz-adv-x="538" 
d="M62 0l121 666h123q92 0 141 -34t49 -96q0 -77 -42.5 -123t-114.5 -58v-1q57 -11 92.5 -49.5t35.5 -92.5q0 -109 -73.5 -160.5t-203.5 -51.5h-128zM93 24h100q117 0 182.5 46t65.5 140q0 63 -49.5 97.5t-141.5 34.5h-100zM154 366h96q220 0 220 166q0 110 -170 110h-96z
" />
    <glyph glyph-name="Gamma" unicode="&#x393;" horiz-adv-x="442" 
d="M62 0l121 666h316l-5 -24h-290l-116 -642h-26z" />
    <glyph glyph-name="uni0394" unicode="&#x394;" horiz-adv-x="594" 
d="M0 0l5 24l357 642h31l126 -642l-5 -24h-514zM33 24h460l-120 611z" />
    <glyph glyph-name="Epsilon" unicode="&#x395;" horiz-adv-x="480" 
d="M62 0l121 666h300l-5 -24h-274l-49 -271h240l-4 -24h-240l-58 -323h281l-5 -24h-307z" />
    <glyph glyph-name="Zeta" unicode="&#x396;" horiz-adv-x="540" 
d="M-3 0l5 27l505 615h-374l5 24h409l-4 -21l-513 -621h418l-5 -24h-446z" />
    <glyph glyph-name="Eta" unicode="&#x397;" horiz-adv-x="696" 
d="M62 0l121 666h26l-54 -299h434l54 299h26l-121 -666h-26l62 343h-434l-62 -343h-26z" />
    <glyph glyph-name="Theta" unicode="&#x398;" horiz-adv-x="725" 
d="M332 -10q-117 0 -188 82.5t-71 197.5q0 168 98.5 287t255.5 119q117 0 188.5 -82.5t71.5 -197.5q0 -168 -99 -287t-256 -119zM338 14q139 0 231 113t92 262q0 110 -65.5 186.5t-174.5 76.5q-139 0 -230.5 -113t-91.5 -262q0 -110 65 -186.5t174 -76.5zM217 324l4 24h318
l-4 -24h-318z" />
    <glyph glyph-name="Iota" unicode="&#x399;" horiz-adv-x="236" 
d="M62 0l121 666h26l-121 -666h-26z" />
    <glyph glyph-name="Kappa" unicode="&#x39a;" horiz-adv-x="512" 
d="M425 0l-255 349l340 317h39l-345 -319l256 -347h-35zM62 0l121 666h26l-121 -666h-26z" />
    <glyph glyph-name="Lambda" unicode="&#x39b;" horiz-adv-x="582" 
d="M-9 0l362 666h32l121 -666h-26l-116 635l-345 -635h-28z" />
    <glyph glyph-name="Mu" unicode="&#x39c;" horiz-adv-x="814" 
d="M27 0l204 666h28l110 -635l338 635h28l-34 -666h-25l31 613l-327 -613h-31l-107 615l-189 -615h-26z" />
    <glyph glyph-name="Nu" unicode="&#x39d;" horiz-adv-x="668" 
d="M62 0l121 666h25l294 -624l113 624h26l-121 -666h-25l-294 622l-113 -622h-26z" />
    <glyph glyph-name="Xi" unicode="&#x39e;" horiz-adv-x="566" 
d="M15 0l4 24h425l-4 -24h-425zM115 347l4 24h344l-4 -24h-344zM132 642l4 24h425l-4 -24h-425z" />
    <glyph glyph-name="Omicron" unicode="&#x39f;" horiz-adv-x="725" 
d="M332 -10q-117 0 -188 82.5t-71 197.5q0 168 98.5 287t255.5 119q117 0 188.5 -82.5t71.5 -197.5q0 -168 -99 -287t-256 -119zM338 14q139 0 231 113t92 262q0 110 -65.5 186.5t-174.5 76.5q-139 0 -230.5 -113t-91.5 -262q0 -110 65 -186.5t174 -76.5z" />
    <glyph glyph-name="Pi" unicode="&#x3a0;" horiz-adv-x="658" 
d="M62 0l121 666h448l-121 -666h-26l116 642h-396l-116 -642h-26z" />
    <glyph glyph-name="Rho" unicode="&#x3a1;" horiz-adv-x="484" 
d="M62 0l121 666h111q93 0 142.5 -41t49.5 -108q0 -98 -69 -157.5t-189 -59.5h-85l-55 -300h-26zM147 324h84q107 0 168 52.5t61 135.5q0 59 -43 94.5t-129 35.5h-84z" />
    <glyph glyph-name="Sigma" unicode="&#x3a3;" horiz-adv-x="506" 
d="M6 0l4 24l265 337l-132 281l4 24h384l-5 -24h-357l134 -285l-263 -333h382l-5 -24h-411z" />
    <glyph glyph-name="Tau" unicode="&#x3a4;" horiz-adv-x="450" 
d="M169 0l116 642h-191l5 24h408l-5 -24h-191l-116 -642h-26z" />
    <glyph glyph-name="Upsilon" unicode="&#x3a5;" horiz-adv-x="506" 
d="M202 0l46 250l-145 416h29l132 -386l272 386h33l-295 -416l-46 -250h-26z" />
    <glyph glyph-name="Phi" unicode="&#x3a6;" horiz-adv-x="657" 
d="M267 0l14 77q-102 1 -167 64.5t-65 157.5q0 130 97.5 215.5t229.5 86.5l12 65h26l-12 -65q101 -2 166.5 -65.5t65.5 -156.5q0 -131 -98 -216.5t-229 -85.5l-14 -77h-26zM285 100l87 478q-119 -2 -208 -81.5t-89 -193.5q0 -86 58.5 -144t151.5 -59zM311 100
q119 1 208 80.5t89 194.5q0 85 -59 143t-151 60z" />
    <glyph glyph-name="Chi" unicode="&#x3a7;" horiz-adv-x="512" 
d="M-7 0l271 349l-140 317h29l129 -293l228 293h34l-249 -321l153 -345h-30l-142 321l-250 -321h-33z" />
    <glyph glyph-name="Psi" unicode="&#x3a8;" horiz-adv-x="640" 
d="M259 0l42 232q-95 4 -147 62.5t-52 149.5q0 30 6 62l29 160h26l-29 -158q-6 -33 -6 -63q0 -84 45.5 -134.5t131.5 -54.5l75 410h26l-75 -410q105 4 173 68t88 172l31 170h26l-31 -172q-22 -122 -97 -190t-194 -72l-42 -232h-26z" />
    <glyph glyph-name="uni03A9" unicode="&#x3a9;" horiz-adv-x="720" 
d="M39 0l4 24h156q-46 31 -82 102t-36 156q0 104 45 194.5t125 145t176 54.5q107 0 181 -85t74 -197q0 -125 -65 -229t-157 -141h167l-4 -24h-213l4 24q106 36 174 140.5t68 225.5q0 105 -68 183.5t-165 78.5q-131 0 -223.5 -111t-92.5 -255q0 -85 36.5 -157t92.5 -105
l-4 -24h-193z" />
    <glyph glyph-name="Iotadieresis" unicode="&#x3aa;" horiz-adv-x="236" 
d="M62 0l121 666h26l-121 -666h-26zM139 741q-9 0 -16 7.5t-7 17.5t7 17.5t16 7.5t16 -7.5t7 -17.5t-7 -17.5t-16 -7.5zM287 741q-9 0 -16 7.5t-7 17.5t7 17.5t16 7.5t16 -7.5t7 -17.5t-7 -17.5t-16 -7.5z" />
    <glyph glyph-name="Upsilondieresis" unicode="&#x3ab;" horiz-adv-x="506" 
d="M202 0l46 250l-145 416h29l132 -386l272 386h33l-295 -416l-46 -250h-26zM273 741q-9 0 -16 7.5t-7 17.5t7 17.5t16 7.5t16 -7.5t7 -17.5t-7 -17.5t-16 -7.5zM421 741q-9 0 -16 7.5t-7 17.5t7 17.5t16 7.5t16 -7.5t7 -17.5t-7 -17.5t-16 -7.5z" />
    <glyph glyph-name="alphatonos" unicode="&#x3ac;" horiz-adv-x="525" 
d="M177 -10q-73 0 -106 56.5t-33 129.5q0 74 25 143t78.5 117t123.5 48q65 0 101 -56.5t41 -151.5l35 95q27 72 45 103h26q-25 -45 -50 -111l-51 -134l11 -118q9 -100 11 -111h-24q-5 34 -10 103l-6 76q-41 -91 -91 -140t-126 -49zM184 14q65 0 114.5 54.5t91.5 159.5
q-15 232 -127 232q-60 0 -107 -45t-69.5 -107.5t-22.5 -124.5q0 -71 27.5 -120t92.5 -49zM271 539l52 119h38l-72 -119h-18z" />
    <glyph glyph-name="epsilontonos" unicode="&#x3ad;" horiz-adv-x="384" 
d="M173 -10q-72 0 -114.5 30t-42.5 84q0 56 39.5 98t95.5 50v1q-27 5 -50 30t-23 60q0 68 47 104.5t124 36.5q81 0 133 -46l-14 -20q-51 42 -123 42q-64 0 -102.5 -30t-38.5 -83q0 -40 31 -62.5t82 -22.5h51l-4 -24h-51q-71 0 -121 -35t-50 -95q0 -45 36 -69.5t99 -24.5
q85 0 151 54l13 -19q-71 -59 -168 -59zM241 539l52 119h38l-72 -119h-18z" />
    <glyph glyph-name="etatonos" unicode="&#x3ae;" horiz-adv-x="492" 
d="M310 -218l98 543q12 63 -11 99t-79 36q-47 0 -95.5 -32t-78.5 -73l-64 -355h-26l71 393q8 46 6 81h27q2 -33 -8 -83q76 93 173 93q55 0 85 -31.5t30 -85.5q0 -21 -4 -40l-98 -545h-26zM277 539l52 119h38l-72 -119h-18z" />
    <glyph glyph-name="iotatonos" unicode="&#x3af;" horiz-adv-x="257" 
d="M121 -10q-54 0 -54 60q0 18 4 37l72 387h26l-72 -388q-3 -18 -3 -32q0 -40 30 -40q25 0 44 17l11 -18q-25 -23 -58 -23zM156 539l52 119h38l-72 -119h-18z" />
    <glyph glyph-name="upsilondieresistonos" unicode="&#x3b0;" horiz-adv-x="479" 
d="M197 -10q-132 0 -132 137q0 31 6 65l51 282h26l-50 -277q-7 -42 -7 -66q0 -117 110 -117q41 0 73.5 16.5t53.5 42.5t37 65.5t24 76t13 84t6 80.5t1 73v22h26v-25q0 -44 -1.5 -81t-7.5 -86t-15.5 -87.5t-27.5 -78.5t-42.5 -66.5t-61 -43t-82.5 -16.5zM211 549
q-9 0 -16 7.5t-7 17.5t7 17.5t16 7.5t16 -7.5t7 -17.5t-7 -17.5t-16 -7.5zM379 549q-9 0 -16 7.5t-7 17.5t7 17.5t16 7.5t16 -7.5t7 -17.5t-7 -17.5t-16 -7.5zM270 539l33 119h37l-51 -119h-19z" />
    <glyph glyph-name="alpha" unicode="&#x3b1;" horiz-adv-x="525" 
d="M177 -10q-73 0 -106 56.5t-33 129.5q0 74 25 143t78.5 117t123.5 48q65 0 101 -56.5t41 -151.5l35 95q27 72 45 103h26q-25 -45 -50 -111l-51 -134l11 -118q9 -100 11 -111h-24q-5 34 -10 103l-6 76q-41 -91 -91 -140t-126 -49zM184 14q65 0 114.5 54.5t91.5 159.5
q-15 232 -127 232q-60 0 -107 -45t-69.5 -107.5t-22.5 -124.5q0 -71 27.5 -120t92.5 -49z" />
    <glyph glyph-name="beta" unicode="&#x3b2;" horiz-adv-x="496" 
d="M3 -218l125 696q45 252 232 252q53 0 87.5 -34.5t34.5 -86.5q0 -73 -51.5 -129.5t-123.5 -76.5v-1q52 -10 93 -53t41 -108q0 -113 -71 -179t-173 -66q-74 0 -124 35l-44 -249h-26zM200 20q89 0 152 60.5t63 156.5q0 69 -50.5 111t-134.5 42l4 22q78 0 150 57t72 136
q0 45 -26.5 73t-72.5 28q-163 0 -205 -235l-74 -415q49 -36 122 -36z" />
    <glyph glyph-name="gamma" unicode="&#x3b3;" horiz-adv-x="411" 
d="M101 -218q40 114 40 218q0 128 -91 474h27q78 -302 87 -436q170 250 238 436h29q-69 -193 -265 -473q0 -108 -39 -219h-26z" />
    <glyph glyph-name="delta" unicode="&#x3b4;" horiz-adv-x="471" 
d="M206 -10q-77 0 -124.5 53t-47.5 133q0 104 62.5 179.5t164.5 116.5q-46 53 -46 111q0 62 36.5 104.5t96.5 42.5q57 0 89 -34l-15 -19q-29 29 -79 29q-46 0 -74.5 -35.5t-28.5 -83.5q0 -41 21 -73t72 -80q98 -90 98 -198q0 -104 -63 -175t-162 -71zM310 422q-12 11 -33 32
q-98 -41 -157.5 -110t-59.5 -164q0 -70 40.5 -118t109.5 -48q83 0 139 65.5t56 152.5q0 60 -24.5 104t-70.5 86z" />
    <glyph glyph-name="epsilon" unicode="&#x3b5;" horiz-adv-x="384" 
d="M173 -10q-72 0 -114.5 30t-42.5 84q0 56 39.5 98t95.5 50v1q-27 5 -50 30t-23 60q0 68 47 104.5t124 36.5q81 0 133 -46l-14 -20q-51 42 -123 42q-64 0 -102.5 -30t-38.5 -83q0 -40 31 -62.5t82 -22.5h51l-4 -24h-51q-71 0 -121 -35t-50 -95q0 -45 36 -69.5t99 -24.5
q85 0 151 54l13 -19q-71 -59 -168 -59z" />
    <glyph glyph-name="zeta" unicode="&#x3b6;" horiz-adv-x="313" 
d="M201 -159l-11 19q57 28 57 79q0 33 -47 58l-66 36q-95 52 -95 141q0 40 17 85t51 93.5t58.5 79.5t64.5 77l163 187h-242l4 24h275l-5 -27l-177 -201q-36 -41 -58.5 -68.5t-56 -74.5t-51 -90.5t-17.5 -80.5q0 -41 19 -69.5t62 -52.5l66 -36q61 -32 61 -77q0 -34 -21 -61.5
t-51 -40.5z" />
    <glyph glyph-name="eta" unicode="&#x3b7;" horiz-adv-x="492" 
d="M310 -218l98 543q12 63 -11 99t-79 36q-47 0 -95.5 -32t-78.5 -73l-64 -355h-26l71 393q8 46 6 81h27q2 -33 -8 -83q76 93 173 93q55 0 85 -31.5t30 -85.5q0 -21 -4 -40l-98 -545h-26z" />
    <glyph glyph-name="theta" unicode="&#x3b8;" horiz-adv-x="483" 
d="M191 -10q-65 0 -97 39.5t-32 107.5q0 30 6 61l16 89q8 40 6 81h26q2 -35 -6 -81l-16 -90q-6 -33 -6 -61q0 -122 106 -122q47 0 87 33.5t68 89t46.5 118.5t27.5 130q-149 4 -223.5 44t-74.5 123q0 80 47.5 129t127.5 49q72 0 114.5 -69.5t42.5 -167.5q0 -62 -10 -129.5
t-31.5 -134.5t-52 -120t-75.5 -86t-97 -33zM151 556q0 -75 66.5 -108.5t208.5 -38.5q5 47 5 80q0 90 -35.5 153.5t-98.5 63.5q-67 0 -106.5 -42.5t-39.5 -107.5z" />
    <glyph glyph-name="iota" unicode="&#x3b9;" horiz-adv-x="257" 
d="M121 -10q-54 0 -54 60q0 18 4 37l72 387h26l-72 -388q-3 -18 -3 -32q0 -40 30 -40q25 0 44 17l11 -18q-25 -23 -58 -23z" />
    <glyph glyph-name="kappa" unicode="&#x3ba;" horiz-adv-x="468" 
d="M370 0l-123 265q-131 -143 -175 -265h-20l86 474h26l-57 -307q-10 -54 -23 -88h1q47 89 139 193.5t209 201.5h38q-119 -97 -206 -190l133 -284h-28z" />
    <glyph glyph-name="lambda" unicode="&#x3bb;" horiz-adv-x="423" 
d="M-23 0l270 467l-31 177q-6 32 -16 44.5t-28 12.5q-22 0 -39 -12l-8 20q22 16 53 16q26 0 40.5 -17t22.5 -60l114 -648h-26l-76 432l-247 -432h-29z" />
    <glyph glyph-name="uni03BC" unicode="&#x3bc;" horiz-adv-x="511" 
d="M13 -205l123 679h26l-60 -331q-5 -28 -5 -47q0 -82 73 -82q46 0 88.5 35t73 91.5t52 119.5t33.5 127l16 87h26l-46 -256q-22 -120 -37 -218h-28q18 118 48 244h-1q-9 -30 -21 -59t-33 -66t-44.5 -64t-58 -46t-72.5 -19q-35 0 -57 18t-28 48q-4 -43 -19 -133l-23 -128h-26
z" />
    <glyph glyph-name="nu" unicode="&#x3bd;" horiz-adv-x="399" 
d="M135 0l-85 474h26l78 -444q76 107 142 231t95 213h28q-32 -96 -103.5 -227t-155.5 -247h-25z" />
    <glyph glyph-name="xi" unicode="&#x3be;" horiz-adv-x="340" 
d="M199 -159l-11 19q57 28 57 79q0 33 -47 58l-66 36q-95 52 -95 141q0 90 58 153.5t139 76.5v1q-45 12 -73.5 46.5t-28.5 82.5q0 87 55.5 141.5t134.5 54.5q60 0 99 -31l-14 -20q-32 27 -89 27q-64 0 -112 -48t-48 -120q0 -57 42 -91t124 -34h13l-4 -22h-17
q-110 0 -181.5 -61t-71.5 -152q0 -41 19 -69.5t62 -52.5l66 -36q61 -32 61 -77q0 -34 -21 -61.5t-51 -40.5z" />
    <glyph glyph-name="omicron" unicode="&#x3bf;" horiz-adv-x="459" 
d="M184 -10q-51 0 -85.5 31t-47.5 71t-13 84q0 116 66 212t171 96q51 0 85.5 -31t47.5 -71t13 -84q0 -116 -66 -212t-171 -96zM190 14q60 0 108.5 45t72.5 107.5t24 124.5q0 69 -30 119t-96 50q-60 0 -108.5 -45t-72.5 -107.5t-24 -124.5q0 -69 30 -119t96 -50z" />
    <glyph glyph-name="pi" unicode="&#x3c0;" horiz-adv-x="553" 
d="M399 -10q-54 0 -54 60q0 18 4 37l67 363h-218q-45 -246 -112 -450h-26q72 223 113 450h-104l5 24h487l-5 -24h-114l-67 -364q-3 -18 -3 -32q0 -40 30 -40q25 0 44 17l11 -18q-25 -23 -58 -23z" />
    <glyph glyph-name="rho" unicode="&#x3c1;" horiz-adv-x="505" 
d="M2 -218l82 456q43 246 222 246q76 0 117 -50.5t41 -127.5q0 -79 -33 -150.5t-99 -118.5t-149 -47q-72 0 -110 41l-45 -249h-26zM187 14q109 0 180 90t71 198q0 70 -35 114t-101 44q-151 0 -192 -223l-32 -179q17 -20 47.5 -32t61.5 -12z" />
    <glyph glyph-name="sigma1" unicode="&#x3c2;" horiz-adv-x="381" 
d="M200 -159l-11 19q57 28 57 79q0 33 -47 58l-66 36q-95 52 -95 154q0 117 67 207t171 90q60 0 99 -31l-14 -20q-32 27 -89 27q-89 0 -148.5 -84t-59.5 -186q0 -89 81 -134l66 -36q61 -32 61 -77q0 -34 -21 -61.5t-51 -40.5z" />
    <glyph glyph-name="sigma" unicode="&#x3c3;" horiz-adv-x="480" 
d="M184 -10q-74 0 -110 55t-36 126q0 117 67 210t180 93h201l-5 -24h-113q19 -22 36 -71.5t17 -93.5q0 -72 -27.5 -138.5t-83 -111.5t-126.5 -45zM190 14q60 0 108.5 42t72.5 102.5t24 121.5q0 49 -16.5 96t-39.5 74h-57q-67 0 -118.5 -44t-75.5 -104.5t-24 -123.5
q0 -69 30 -116.5t96 -47.5z" />
    <glyph glyph-name="tau" unicode="&#x3c4;" horiz-adv-x="354" 
d="M166 -10q-54 0 -54 60q0 18 4 37l67 363h-123l5 24h303l-5 -24h-154l-67 -364q-3 -18 -3 -32q0 -40 30 -40q25 0 44 17l11 -18q-25 -23 -58 -23z" />
    <glyph glyph-name="upsilon" unicode="&#x3c5;" horiz-adv-x="479" 
d="M197 -10q-132 0 -132 137q0 31 6 65l51 282h26l-50 -277q-7 -42 -7 -66q0 -117 110 -117q41 0 73.5 16.5t53.5 42.5t37 65.5t24 76t13 84t6 80.5t1 73v22h26v-25q0 -44 -1.5 -81t-7.5 -86t-15.5 -87.5t-27.5 -78.5t-42.5 -66.5t-61 -43t-82.5 -16.5z" />
    <glyph glyph-name="phi" unicode="&#x3c6;" horiz-adv-x="590" 
d="M188 -218l37 209q-83 7 -134 66.5t-51 138.5q0 93 51 172t122 116l11 -21q-64 -36 -111 -109t-47 -152q0 -74 44.5 -127t119.5 -60l54 299q31 170 156 170q53 0 83.5 -48.5t30.5 -116.5q0 -135 -87 -231t-216 -98l-37 -208h-26zM256 14q114 1 193 90t79 209
q0 61 -23.5 104t-68.5 43q-100 0 -128 -153z" />
    <glyph glyph-name="chi" unicode="&#x3c7;" horiz-adv-x="386" 
d="M-82 -218l238 359l-98 333h26l90 -308l204 308h30l-224 -336l107 -356h-26l-99 331l-218 -331h-30z" />
    <glyph glyph-name="psi" unicode="&#x3c8;" horiz-adv-x="556" 
d="M180 -218l37 208q-75 4 -113.5 51.5t-38.5 122.5q0 25 5 57l46 253h26l-46 -254q-5 -24 -5 -55q0 -66 33.5 -106.5t97.5 -44.5l112 626h26l-112 -626q56 1 99 32t68.5 76.5t42 106.5t22.5 115t6 108v22h26v-25q0 -62 -6.5 -120.5t-25 -121.5t-47.5 -109.5t-78 -76.5
t-112 -31l-37 -208h-26z" />
    <glyph glyph-name="omega" unicode="&#x3c9;" horiz-adv-x="685" 
d="M153 -10q-57 0 -85 41t-28 105q0 92 39.5 185t102.5 153h29q-145 -153 -145 -335q0 -55 22 -90t69 -35q135 0 183 266h24q-12 -70 -12 -119q0 -147 99 -147q52 0 89.5 43t53 100.5t15.5 116.5q0 109 -44 200h27q43 -84 43 -195q0 -72 -18.5 -135t-62.5 -108.5t-107 -45.5
q-59 0 -89 45t-30 107q-55 -152 -175 -152z" />
    <glyph glyph-name="iotadieresis" unicode="&#x3ca;" horiz-adv-x="257" 
d="M121 -10q-54 0 -54 60q0 18 4 37l72 387h26l-72 -388q-3 -18 -3 -32q0 -40 30 -40q25 0 44 17l11 -18q-25 -23 -58 -23zM98 549q-9 0 -16 7.5t-7 17.5t7 17.5t16 7.5t16 -7.5t7 -17.5t-7 -17.5t-16 -7.5zM246 549q-9 0 -16 7.5t-7 17.5t7 17.5t16 7.5t16 -7.5t7 -17.5
t-7 -17.5t-16 -7.5z" />
    <glyph glyph-name="upsilondieresis" unicode="&#x3cb;" horiz-adv-x="479" 
d="M197 -10q-132 0 -132 137q0 31 6 65l51 282h26l-50 -277q-7 -42 -7 -66q0 -117 110 -117q41 0 73.5 16.5t53.5 42.5t37 65.5t24 76t13 84t6 80.5t1 73v22h26v-25q0 -44 -1.5 -81t-7.5 -86t-15.5 -87.5t-27.5 -78.5t-42.5 -66.5t-61 -43t-82.5 -16.5zM213 549
q-9 0 -16 7.5t-7 17.5t7 17.5t16 7.5t16 -7.5t7 -17.5t-7 -17.5t-16 -7.5zM361 549q-9 0 -16 7.5t-7 17.5t7 17.5t16 7.5t16 -7.5t7 -17.5t-7 -17.5t-16 -7.5z" />
    <glyph glyph-name="omicrontonos" unicode="&#x3cc;" horiz-adv-x="459" 
d="M184 -10q-51 0 -85.5 31t-47.5 71t-13 84q0 116 66 212t171 96q51 0 85.5 -31t47.5 -71t13 -84q0 -116 -66 -212t-171 -96zM190 14q60 0 108.5 45t72.5 107.5t24 124.5q0 69 -30 119t-96 50q-60 0 -108.5 -45t-72.5 -107.5t-24 -124.5q0 -69 30 -119t96 -50zM271 539
l52 119h38l-72 -119h-18z" />
    <glyph glyph-name="upsilontonos" unicode="&#x3cd;" horiz-adv-x="479" 
d="M197 -10q-132 0 -132 137q0 31 6 65l51 282h26l-50 -277q-7 -42 -7 -66q0 -117 110 -117q41 0 73.5 16.5t53.5 42.5t37 65.5t24 76t13 84t6 80.5t1 73v22h26v-25q0 -44 -1.5 -81t-7.5 -86t-15.5 -87.5t-27.5 -78.5t-42.5 -66.5t-61 -43t-82.5 -16.5zM271 539l52 119h38
l-72 -119h-18z" />
    <glyph glyph-name="omegatonos" unicode="&#x3ce;" horiz-adv-x="685" 
d="M153 -10q-57 0 -85 41t-28 105q0 92 39.5 185t102.5 153h29q-145 -153 -145 -335q0 -55 22 -90t69 -35q135 0 183 266h24q-12 -70 -12 -119q0 -147 99 -147q52 0 89.5 43t53 100.5t15.5 116.5q0 109 -44 200h27q43 -84 43 -195q0 -72 -18.5 -135t-62.5 -108.5t-107 -45.5
q-59 0 -89 45t-30 107q-55 -152 -175 -152zM387 539l52 119h38l-72 -119h-18z" />
    <glyph glyph-name="uni0400" unicode="&#x400;" horiz-adv-x="480" 
d="M62 0l121 666h300l-5 -24h-274l-49 -271h240l-4 -24h-240l-58 -323h281l-5 -24h-307zM315 731l-102 119h40l82 -119h-20z" />
    <glyph glyph-name="afii10023" unicode="&#x401;" horiz-adv-x="480" 
d="M62 0l121 666h300l-5 -24h-274l-49 -271h240l-4 -24h-240l-58 -323h281l-5 -24h-307zM257 741q-9 0 -16 7.5t-7 17.5t7 17.5t16 7.5t16 -7.5t7 -17.5t-7 -17.5t-16 -7.5zM405 741q-9 0 -16 7.5t-7 17.5t7 17.5t16 7.5t16 -7.5t7 -17.5t-7 -17.5t-16 -7.5z" />
    <glyph glyph-name="afii10051" unicode="&#x402;" horiz-adv-x="641" 
d="M306 -179q-30 0 -57 8l7 23q21 -7 53 -7q73 0 135.5 74t94.5 170.5t32 179.5q0 85 -38.5 138t-107.5 53q-50 0 -104 -31.5t-87 -71.5l-64 -357h-26l115 642h-165l5 24h416l-5 -24h-225l-45 -252q27 35 78.5 64.5t110.5 29.5q79 0 123.5 -58t44.5 -151q0 -70 -21 -148.5
t-57 -147t-92.5 -113.5t-120.5 -45z" />
    <glyph glyph-name="afii10052" unicode="&#x403;" horiz-adv-x="442" 
d="M62 0l121 666h316l-5 -24h-290l-116 -642h-26zM315 705l124 119h41l-144 -119h-21z" />
    <glyph glyph-name="afii10053" unicode="&#x404;" horiz-adv-x="603" 
d="M519 319h-418q-2 -28 -2 -43q0 -114 62 -188t174 -74q103 0 184 59l12 -19q-84 -64 -200 -64q-120 0 -189 80.5t-69 199.5q0 166 108 286t271 120q100 0 162 -50l-17 -20q-60 46 -149 46q-128 0 -224.5 -90t-118.5 -219h418z" />
    <glyph glyph-name="afii10054" unicode="&#x405;" horiz-adv-x="440" 
d="M194 -10q-104 0 -176 78l15 18q67 -72 165 -72q70 0 109.5 40.5t39.5 101.5q0 51 -21.5 82.5t-77.5 83.5q-8 7 -12 11q-46 43 -65.5 63.5t-37.5 56t-18 75.5q0 67 45 107.5t119 40.5q80 0 137 -49l-14 -20q-51 45 -127 45q-61 0 -97.5 -33.5t-36.5 -88.5
q0 -51 21.5 -82.5t77.5 -83.5q8 -7 12 -11q46 -43 65.5 -63.5t37.5 -56t18 -75.5q0 -72 -47.5 -120t-131.5 -48z" />
    <glyph glyph-name="afii10055" unicode="&#x406;" horiz-adv-x="236" 
d="M62 0l121 666h26l-121 -666h-26z" />
    <glyph glyph-name="afii10056" unicode="&#x407;" horiz-adv-x="236" 
d="M62 0l121 666h26l-121 -666h-26zM139 741q-9 0 -16 7.5t-7 17.5t7 17.5t16 7.5t16 -7.5t7 -17.5t-7 -17.5t-16 -7.5zM287 741q-9 0 -16 7.5t-7 17.5t7 17.5t16 7.5t16 -7.5t7 -17.5t-7 -17.5t-16 -7.5z" />
    <glyph glyph-name="afii10057" unicode="&#x408;" horiz-adv-x="236" 
d="M-53 -179q-21 0 -31 5l9 24q8 -5 30 -5q80 0 105 138l123 683h26l-125 -690q-14 -75 -49 -115t-88 -40z" />
    <glyph glyph-name="afii10058" unicode="&#x409;" horiz-adv-x="851" 
d="M-26 -4l-2 22q64 10 104 67.5t74 183.5l108 397h328l-55 -300h86q93 0 142.5 -41t49.5 -108q0 -98 -69 -157.5t-189 -59.5h-112l117 642h-278l-101 -373q-38 -138 -84.5 -201t-118.5 -72zM469 24h85q107 0 168 52.5t61 135.5q0 59 -43 94.5t-129 35.5h-84z" />
    <glyph glyph-name="afii10059" unicode="&#x40a;" horiz-adv-x="934" 
d="M62 0l121 666h26l-54 -300h434l54 300h26l-55 -300h86q93 0 142.5 -41t49.5 -108q0 -98 -69 -157.5t-189 -59.5h-112l62 342h-434l-62 -342h-26zM552 24h85q107 0 168 52.5t61 135.5q0 59 -43 94.5t-129 35.5h-84z" />
    <glyph glyph-name="afii10060" unicode="&#x40b;" horiz-adv-x="676" 
d="M143 0l116 642h-165l5 24h416l-5 -24h-225l-48 -271q33 43 89.5 73.5t127.5 30.5q72 0 115 -40.5t43 -113.5q0 -24 -4 -47l-50 -274h-26l50 276q4 21 4 44q0 63 -36.5 97t-99.5 34q-65 0 -125 -35t-95 -81l-61 -335h-26z" />
    <glyph glyph-name="afii10061" unicode="&#x40c;" horiz-adv-x="517" 
d="M62 0l120 666h26l-55 -307h48l311 307h37l-327 -321q8 -6 15.5 -13.5t15.5 -19t13.5 -20t14.5 -25.5t13 -24.5t15 -29t14 -27.5q52 -106 70 -129q24 -33 48 -33h9l-4 -24h-11q-11 0 -21.5 4t-21 15t-18 20t-18.5 29t-16.5 31t-18.5 37.5t-19 37.5q-51 104 -72 129
q-27 32 -54 33h-28l-60 -336h-26zM314 705l124 119h41l-144 -119h-21z" />
    <glyph glyph-name="uni040D" unicode="&#x40d;" horiz-adv-x="689" 
d="M62 0l121 666h26l-113 -620l539 620h27l-121 -666h-26l112 620l-538 -620h-27zM437 731l-102 119h40l82 -119h-20z" />
    <glyph glyph-name="afii10062" unicode="&#x40e;" horiz-adv-x="504" 
d="M68 -2q-20 0 -32 5l6 23q12 -4 28 -4q29 0 51.5 22t64.5 87l58 89l-133 446h25l126 -419l275 419h30l-358 -545q-49 -74 -76 -98.5t-65 -24.5zM336 707q-47 0 -72.5 37.5t-25.5 86.5v11h23v-11q0 -40 19.5 -70t57.5 -30q42 0 74.5 34.5t44.5 76.5h23q-17 -55 -53.5 -95
t-90.5 -40z" />
    <glyph glyph-name="afii10145" unicode="&#x40f;" horiz-adv-x="651" 
d="M247 -160l26 160h-211l121 666h26l-116 -642h389l116 642h26l-121 -666h-203l-35 -160h-18z" />
    <glyph glyph-name="afii10017" unicode="&#x410;" horiz-adv-x="569" 
d="M-16 0l362 666h32l121 -666h-26l-36 199h-317l-108 -199h-28zM133 223h299l-75 412z" />
    <glyph glyph-name="afii10018" unicode="&#x411;" horiz-adv-x="485" 
d="M62 0l121 666h291l-5 -24h-265l-50 -276h86q93 0 142.5 -41t49.5 -108q0 -98 -69 -157.5t-189 -59.5h-112zM93 24h84q107 0 168 52.5t61 135.5q0 59 -43 94.5t-129 35.5h-84z" />
    <glyph glyph-name="afii10019" unicode="&#x412;" horiz-adv-x="538" 
d="M62 0l121 666h123q92 0 141 -34t49 -96q0 -77 -42.5 -123t-114.5 -58v-1q57 -11 92.5 -49.5t35.5 -92.5q0 -109 -73.5 -160.5t-203.5 -51.5h-128zM93 24h100q117 0 182.5 46t65.5 140q0 63 -49.5 97.5t-141.5 34.5h-100zM154 366h96q220 0 220 166q0 110 -170 110h-96z
" />
    <glyph glyph-name="afii10020" unicode="&#x413;" horiz-adv-x="442" 
d="M62 0l121 666h316l-5 -24h-290l-116 -642h-26z" />
    <glyph glyph-name="afii10021" unicode="&#x414;" horiz-adv-x="636" 
d="M-46 -160l28 184h50q103 61 155 232l124 410h291l-117 -642h62l-38 -184h-18l24 160h-509l-34 -160h-18zM69 24h390l113 618h-241l-121 -399q-50 -163 -141 -219z" />
    <glyph glyph-name="afii10022" unicode="&#x415;" horiz-adv-x="480" 
d="M62 0l121 666h300l-5 -24h-274l-49 -271h240l-4 -24h-240l-58 -323h281l-5 -24h-307z" />
    <glyph glyph-name="afii10024" unicode="&#x416;" horiz-adv-x="784" 
d="M-25 0l4 24h11q36 0 86 57q14 16 85 105q6 8 24 30.5t25.5 32t22.5 28t24.5 27.5t22 21t23.5 18.5t21 10.5l-212 312h31l207 -307h44l55 307h26l-55 -307h48l311 307h37l-328 -321q6 -5 12 -10.5t12.5 -13.5t11 -14t11.5 -18l10.5 -18t11.5 -20.5t10.5 -20t11.5 -22.5
t11 -22q52 -106 70 -129q24 -33 48 -33h9l-4 -24h-11q-11 0 -21.5 4t-21 15t-18 20t-18.5 29t-16.5 31t-18.5 37.5t-19 37.5q-51 104 -72 129q-27 32 -54 33h-28l-60 -336h-26l60 336h-36q-10 0 -21 -4t-23.5 -14t-22 -18.5t-25 -27t-24.5 -29t-28 -35t-28 -35.5l-24 -30
q-67 -84 -99 -113.5t-69 -29.5h-14z" />
    <glyph glyph-name="afii10025" unicode="&#x417;" horiz-adv-x="494" 
d="M179 -10q-114 0 -175 63l15 18q57 -57 164 -57q96 0 157.5 51.5t61.5 137.5q0 62 -53.5 100.5t-146.5 38.5h-30l4 24h29q106 0 166 45.5t60 121.5q0 53 -38 86t-108 33q-78 0 -149 -46l-11 19q73 51 164 51q78 0 123 -39t45 -100q0 -71 -46 -121t-116 -62l-1 -1
q52 -9 93 -48t41 -98q0 -102 -70 -159.5t-179 -57.5z" />
    <glyph glyph-name="afii10026" unicode="&#x418;" horiz-adv-x="689" 
d="M62 0l121 666h26l-113 -620l539 620h27l-121 -666h-26l112 620l-538 -620h-27z" />
    <glyph glyph-name="afii10027" unicode="&#x419;" horiz-adv-x="689" 
d="M62 0l121 666h26l-113 -620l539 620h27l-121 -666h-26l112 620l-538 -620h-27zM423 707q-47 0 -72.5 37.5t-25.5 86.5v11h23v-11q0 -40 19.5 -70t57.5 -30q42 0 74.5 34.5t44.5 76.5h23q-17 -55 -53.5 -95t-90.5 -40z" />
    <glyph glyph-name="afii10028" unicode="&#x41a;" horiz-adv-x="517" 
d="M62 0l120 666h26l-55 -307h48l311 307h37l-327 -321q8 -6 15.5 -13.5t15.5 -19t13.5 -20t14.5 -25.5t13 -24.5t15 -29t14 -27.5q52 -106 70 -129q24 -33 48 -33h9l-4 -24h-11q-11 0 -21.5 4t-21 15t-18 20t-18.5 29t-16.5 31t-18.5 37.5t-19 37.5q-51 104 -72 129
q-27 32 -54 33h-28l-60 -336h-26z" />
    <glyph glyph-name="afii10029" unicode="&#x41b;" horiz-adv-x="613" 
d="M-26 -4l-2 22q64 10 104 67.5t74 183.5l108 397h328l-121 -666h-26l117 642h-278l-101 -373q-38 -138 -84.5 -201t-118.5 -72z" />
    <glyph glyph-name="afii10030" unicode="&#x41c;" horiz-adv-x="814" 
d="M27 0l204 666h28l110 -635l338 635h28l-34 -666h-25l31 613l-327 -613h-31l-107 615l-189 -615h-26z" />
    <glyph glyph-name="afii10031" unicode="&#x41d;" horiz-adv-x="696" 
d="M62 0l121 666h26l-54 -299h434l54 299h26l-121 -666h-26l62 343h-434l-62 -343h-26z" />
    <glyph glyph-name="afii10032" unicode="&#x41e;" horiz-adv-x="725" 
d="M332 -10q-117 0 -188 82.5t-71 197.5q0 168 98.5 287t255.5 119q117 0 188.5 -82.5t71.5 -197.5q0 -168 -99 -287t-256 -119zM338 14q139 0 231 113t92 262q0 110 -65.5 186.5t-174.5 76.5q-139 0 -230.5 -113t-91.5 -262q0 -110 65 -186.5t174 -76.5z" />
    <glyph glyph-name="afii10033" unicode="&#x41f;" horiz-adv-x="658" 
d="M62 0l121 666h448l-121 -666h-26l116 642h-396l-116 -642h-26z" />
    <glyph glyph-name="afii10034" unicode="&#x420;" horiz-adv-x="484" 
d="M62 0l121 666h111q93 0 142.5 -41t49.5 -108q0 -98 -69 -157.5t-189 -59.5h-85l-55 -300h-26zM147 324h84q107 0 168 52.5t61 135.5q0 59 -43 94.5t-129 35.5h-84z" />
    <glyph glyph-name="afii10035" unicode="&#x421;" horiz-adv-x="603" 
d="M331 -10q-120 0 -189 80.5t-69 199.5q0 166 108 286t271 120q100 0 162 -50l-17 -20q-60 46 -149 46q-146 0 -247.5 -113.5t-101.5 -262.5q0 -114 62 -188t174 -74q103 0 184 59l12 -19q-84 -64 -200 -64z" />
    <glyph glyph-name="afii10036" unicode="&#x422;" horiz-adv-x="450" 
d="M169 0l116 642h-191l5 24h408l-5 -24h-191l-116 -642h-26z" />
    <glyph glyph-name="afii10037" unicode="&#x423;" horiz-adv-x="504" 
d="M68 -2q-20 0 -32 5l6 23q12 -4 28 -4q29 0 51.5 22t64.5 87l58 89l-133 446h25l126 -419l275 419h30l-358 -545q-49 -74 -76 -98.5t-65 -24.5z" />
    <glyph glyph-name="afii10038" unicode="&#x424;" horiz-adv-x="657" 
d="M267 0l14 77q-102 1 -167 64.5t-65 157.5q0 130 97.5 215.5t229.5 86.5l12 65h26l-12 -65q101 -2 166.5 -65.5t65.5 -156.5q0 -131 -98 -216.5t-229 -85.5l-14 -77h-26zM285 100l87 478q-119 -2 -208 -81.5t-89 -193.5q0 -86 58.5 -144t151.5 -59zM311 100
q119 1 208 80.5t89 194.5q0 85 -59 143t-151 60z" />
    <glyph glyph-name="afii10039" unicode="&#x425;" horiz-adv-x="512" 
d="M-7 0l271 349l-140 317h29l129 -293l228 293h34l-249 -321l153 -345h-30l-142 321l-250 -321h-33z" />
    <glyph glyph-name="afii10040" unicode="&#x426;" horiz-adv-x="658" 
d="M513 -160l24 160h-475l121 666h26l-116 -642h389l116 642h26l-117 -642h62l-38 -184h-18z" />
    <glyph glyph-name="afii10041" unicode="&#x427;" horiz-adv-x="588" 
d="M414 0l53 295q-33 -43 -89.5 -73.5t-127.5 -30.5q-72 0 -115 40.5t-43 113.5q0 24 4 47l50 274h26l-50 -276q-15 -84 21.5 -129.5t110.5 -45.5q65 0 125 35t95 81l61 335h26l-121 -666h-26z" />
    <glyph glyph-name="afii10042" unicode="&#x428;" horiz-adv-x="1046" 
d="M62 0l121 666h26l-116 -642h379l116 642h26l-116 -642h379l116 642h26l-121 -666h-836z" />
    <glyph glyph-name="afii10043" unicode="&#x429;" horiz-adv-x="1053" 
d="M908 -160l24 160h-870l121 666h26l-116 -642h379l116 642h26l-116 -642h379l116 642h26l-117 -642h62l-38 -184h-18z" />
    <glyph glyph-name="afii10044" unicode="&#x42a;" horiz-adv-x="579" 
d="M167 0l116 642h-189l5 24h215l-55 -300h86q93 0 142.5 -41t49.5 -108q0 -98 -69 -157.5t-189 -59.5h-112zM198 24h84q107 0 168 52.5t61 135.5q0 59 -43 94.5t-129 35.5h-84z" />
    <glyph glyph-name="afii10045" unicode="&#x42b;" horiz-adv-x="700" 
d="M62 0l121 666h26l-55 -300h86q93 0 142.5 -41t49.5 -108q0 -98 -69 -157.5t-189 -59.5h-112zM93 24h84q107 0 168 52.5t61 135.5q0 59 -43 94.5t-129 35.5h-84zM526 0l121 666h26l-121 -666h-26z" />
    <glyph glyph-name="afii10046" unicode="&#x42c;" horiz-adv-x="474" 
d="M62 0l121 666h26l-55 -300h86q93 0 142.5 -41t49.5 -108q0 -98 -69 -157.5t-189 -59.5h-112zM93 24h84q107 0 168 52.5t61 135.5q0 59 -43 94.5t-129 35.5h-84z" />
    <glyph glyph-name="afii10047" unicode="&#x42d;" horiz-adv-x="603" 
d="M123 323l4 24h418q2 26 2 39q0 114 -62 190t-174 76q-103 0 -184 -59l-12 19q84 64 200 64q120 0 189 -82t69 -202q0 -167 -104.5 -284.5t-267.5 -117.5q-107 0 -169 50l17 20q60 -46 156 -46q129 0 222.5 89.5t114.5 219.5h-419z" />
    <glyph glyph-name="afii10048" unicode="&#x42e;" horiz-adv-x="1057" 
d="M88 0h-26l121 666h26l-54 -299h251q27 135 119.5 222t225.5 87q117 0 188.5 -82.5t71.5 -197.5q0 -168 -99 -287t-256 -119q-117 0 -188 82.5t-71 197.5q0 33 5 73h-252zM662 14q139 0 231 113t92 262q0 110 -65.5 186.5t-174.5 76.5q-139 0 -230.5 -113t-91.5 -262
q0 -110 65 -186.5t174 -76.5z" />
    <glyph glyph-name="afii10049" unicode="&#x42f;" horiz-adv-x="513" 
d="M-10 0l4 24h11q8 0 15 1.5t15 6.5t14.5 9.5t16 14.5t16.5 17.5t18.5 22.5t20 25.5t23.5 30.5t26 34q96 124 134 149v1q-90 0 -140 38.5t-50 100.5q0 92 67 141.5t178 49.5h127l-121 -666h-26l61 336h-40q-8 0 -16 -2.5t-17 -8.5t-17 -12t-18.5 -17.5t-18 -19.5
t-19.5 -23.5t-19.5 -24.5t-21.5 -27.5t-21 -27.5q-88 -112 -108 -132q-41 -41 -80 -41h-14zM309 360h95l51 282h-100q-98 0 -156.5 -42.5t-58.5 -122.5q0 -56 43.5 -86.5t125.5 -30.5z" />
    <glyph glyph-name="afii10065" unicode="&#x430;" horiz-adv-x="468" 
d="M141 -10q-48 0 -74.5 35.5t-26.5 96.5q0 65 16 127.5t47.5 116t84.5 86t119 32.5q49 0 109 -10l-46 -256q-22 -120 -37 -218h-28q13 84 44 223h-1q-12 -37 -29 -73.5t-42.5 -74.5t-61 -61.5t-74.5 -23.5zM145 14q44 0 84.5 38.5t68.5 97t46.5 116.5t27.5 108l14 79
q-42 7 -88 7q-73 0 -128 -53.5t-80 -127t-25 -150.5q0 -115 80 -115z" />
    <glyph glyph-name="afii10066" unicode="&#x431;" horiz-adv-x="454" 
d="M189 -10q-48 0 -80 32.5t-43.5 73t-11.5 85.5q0 90 14.5 164t46.5 139.5t88.5 114.5t136.5 77l137 49l5 -24l-137 -49q-183 -66 -241 -254q29 36 74.5 61t101.5 25q48 0 80 -31t43.5 -70.5t11.5 -84.5q0 -75 -24.5 -143.5t-77.5 -116.5t-124 -48zM195 14q59 0 105 45
t67.5 107t21.5 125q0 32 -5.5 60t-18 53.5t-36 40.5t-55.5 15q-94 0 -176 -96q-18 -80 -18 -178q0 -30 5.5 -58.5t18 -55t36 -42.5t55.5 -16z" />
    <glyph glyph-name="afii10067" unicode="&#x432;" horiz-adv-x="448" 
d="M190 -10q-89 0 -147 15l55 304q15 86 65.5 130.5t122.5 44.5q55 0 86.5 -29t31.5 -74q0 -91 -123 -129v-1q37 -2 72 -34t35 -73q0 -75 -54.5 -114.5t-143.5 -39.5zM196 14q77 0 121.5 32.5t44.5 93.5q0 39 -32.5 66.5t-77.5 27.5q-19 0 -34 -4l-114 -30l-31 -173
q41 -13 123 -13zM109 224l106 29q35 10 57 18t50 22.5t42 35t14 47.5q0 38 -24.5 61t-72.5 23q-57 0 -100 -39t-57 -114z" />
    <glyph glyph-name="afii10068" unicode="&#x433;" horiz-adv-x="365" 
d="M138 -10q-57 0 -91.5 26.5t-34.5 72.5q0 32 10.5 56.5t36 44.5t47 32t64.5 32q38 18 57.5 28.5t41.5 27t31 36t9 45.5q0 69 -81 69q-71 0 -124 -38l-11 20q56 42 137 42q50 0 78 -24t28 -66q0 -32 -10.5 -56.5t-36.5 -44.5t-47 -31.5t-64 -31.5q-74 -34 -106.5 -61.5
t-32.5 -75.5q0 -37 27 -58t74 -21q73 0 138 42l8 -21q-63 -45 -148 -45z" />
    <glyph glyph-name="afii10069" unicode="&#x434;" horiz-adv-x="459" 
d="M184 -10q-51 0 -85.5 31t-47.5 71t-13 84q0 116 66 212t171 96q32 0 66 -18.5t52 -43.5q-12 132 -82.5 209t-195.5 77l8 22q144 0 221 -97.5t77 -254.5q0 -98 -27 -185t-82.5 -145t-127.5 -58zM190 14q61 0 109 55t72 136t24 166v20q-19 28 -55.5 48.5t-70.5 20.5
q-60 0 -108.5 -45t-72.5 -107.5t-24 -124.5q0 -69 30 -119t96 -50z" />
    <glyph glyph-name="afii10070" unicode="&#x435;" horiz-adv-x="398" 
d="M173 -10q-68 0 -101.5 51.5t-33.5 132.5q0 120 67 215t171 95q44 0 75 -26t31 -68q0 -135 -317 -184q-1 -10 -1 -28q0 -164 113 -164q72 0 132 64l14 -18q-62 -70 -150 -70zM68 229q126 19 207 59.5t81 101.5q0 32 -23.5 51t-60.5 19q-77 0 -133 -69t-71 -162z" />
    <glyph glyph-name="afii10072" unicode="&#x436;" horiz-adv-x="800" 
d="M65 -10q-43 0 -70 29l13 20q25 -25 60 -25q74 0 122.5 89t48.5 193q0 164 -82 164q-53 0 -97 -46l-13 18q48 52 113 52q53 0 79 -49.5t26 -134.5q0 -28 -3 -51h127l41 225h26l-41 -225h126q16 99 67.5 167t126.5 68q43 0 70 -29l-13 -20q-25 25 -60 25q-74 0 -122.5 -89
t-48.5 -193q0 -164 82 -164q53 0 97 46l13 -18q-48 -52 -113 -52q-53 0 -79 49.5t-26 134.5q0 25 2 51h-127l-40 -225h-26l41 225h-127q-16 -100 -67.5 -167.5t-125.5 -67.5z" />
    <glyph glyph-name="afii10073" unicode="&#x437;" horiz-adv-x="370" 
d="M129 -10q-83 0 -135 44l16 19q47 -39 122 -39q69 0 110 33.5t41 90.5q0 45 -39 72.5t-97 27.5h-37l5 24h32q68 0 112 30.5t44 83.5q0 84 -101 84q-64 0 -118 -36l-11 18q60 42 133 42q59 0 91 -28.5t32 -75.5q0 -53 -36 -88t-82 -43v-1q36 -5 67 -34t31 -73
q0 -70 -49.5 -110.5t-130.5 -40.5z" />
    <glyph glyph-name="afii10074" unicode="&#x438;" horiz-adv-x="507" 
d="M162 -10q-46 0 -70.5 28t-24.5 77q0 23 4 43l61 336h26l-60 -331q-5 -28 -5 -47q0 -82 73 -82q46 0 88.5 35t73 91.5t52 119.5t33.5 127l16 87h26l-46 -256q-22 -120 -37 -218h-28q18 118 48 244h-1q-9 -30 -21 -59t-33 -66t-44.5 -64t-58 -46t-72.5 -19z" />
    <glyph glyph-name="afii10075" unicode="&#x439;" horiz-adv-x="507" 
d="M162 -10q-46 0 -70.5 28t-24.5 77q0 23 4 43l61 336h26l-60 -331q-5 -28 -5 -47q0 -82 73 -82q46 0 88.5 35t73 91.5t52 119.5t33.5 127l16 87h26l-46 -256q-22 -120 -37 -218h-28q18 118 48 244h-1q-9 -30 -21 -59t-33 -66t-44.5 -64t-58 -46t-72.5 -19zM303 541
q-47 0 -72.5 37.5t-25.5 86.5v11h23v-11q0 -40 19.5 -70t57.5 -30q42 0 74.5 34.5t44.5 76.5h23q-17 -55 -53.5 -95t-90.5 -40z" />
    <glyph glyph-name="afii10076" unicode="&#x43a;" horiz-adv-x="435" 
d="M52 0l86 474h26l-39 -216h49l227 216h36l-239 -227q24 -17 78 -112q44 -79 61 -95q16 -16 31 -16h11l-5 -24h-12q-26 0 -47 25t-62 98q-44 79 -61 95q-16 15 -31 16h-41l-42 -234h-26z" />
    <glyph glyph-name="afii10077" unicode="&#x43b;" horiz-adv-x="480" 
d="M-11 -3l-3 20q46 10 73.5 51.5t53.5 137.5l73 268h242l-86 -474h-26l82 450h-192l-68 -252q-28 -102 -62 -147.5t-87 -53.5z" />
    <glyph glyph-name="afii10078" unicode="&#x43c;" horiz-adv-x="619" 
d="M19 0l146 474h30l77 -439h1l233 439h35l-24 -474h-27l23 429h-1l-230 -429h-29l-74 429h-2l-132 -429h-26z" />
    <glyph glyph-name="afii10079" unicode="&#x43d;" horiz-adv-x="538" 
d="M52 0l86 474h26l-38 -210h296l38 210h26l-86 -474h-26l43 240h-295l-44 -240h-26z" />
    <glyph glyph-name="afii10080" unicode="&#x43e;" horiz-adv-x="459" 
d="M184 -10q-51 0 -85.5 31t-47.5 71t-13 84q0 116 66 212t171 96q51 0 85.5 -31t47.5 -71t13 -84q0 -116 -66 -212t-171 -96zM190 14q60 0 108.5 45t72.5 107.5t24 124.5q0 69 -30 119t-96 50q-60 0 -108.5 -45t-72.5 -107.5t-24 -124.5q0 -69 30 -119t96 -50z" />
    <glyph glyph-name="afii10081" unicode="&#x43f;" horiz-adv-x="507" 
d="M52 0l85 474h26q-30 -168 -48 -244h1q9 30 21 59t33 66t44.5 64t58 46t72.5 19q46 0 70.5 -28t24.5 -77q0 -23 -4 -43l-61 -336h-26l60 331q5 28 5 47q0 82 -73 82q-46 0 -88.5 -35t-73 -91.5t-52 -119.5t-33.5 -127l-16 -87h-26z" />
    <glyph glyph-name="afii10082" unicode="&#x440;" horiz-adv-x="464" 
d="M13 -218l124 692h26q-25 -138 -44 -223h1q12 38 29 74t42 74t60 61.5t74 23.5q48 0 73.5 -35.5t25.5 -96.5q0 -66 -15.5 -128t-46.5 -115.5t-83.5 -86t-118.5 -32.5q-36 0 -83 7l-38 -215h-26zM169 14q73 0 127.5 53.5t78.5 127t24 150.5q0 115 -78 115q-44 0 -84 -38.5
t-67.5 -97t-46 -116t-27.5 -108.5l-14 -79q42 -7 87 -7z" />
    <glyph glyph-name="afii10083" unicode="&#x441;" horiz-adv-x="387" 
d="M173 -10q-68 0 -101.5 51.5t-33.5 132.5q0 120 67 215t171 95q60 0 99 -31l-14 -20q-32 27 -89 27q-59 0 -108.5 -44.5t-74.5 -108.5t-25 -129q0 -164 113 -164q72 0 132 64l14 -18q-62 -70 -150 -70z" />
    <glyph glyph-name="afii10084" unicode="&#x442;" horiz-adv-x="792" 
d="M52 0l85 474h26q-30 -168 -48 -244h1q12 40 28.5 76.5t44 80.5t67.5 70.5t86 26.5q91 0 91 -104q0 -21 -5 -48.5t-13 -61t-9 -40.5h1q12 40 28.5 76.5t44 80.5t67.5 70.5t86 26.5q45 0 68.5 -27.5t23.5 -76.5q0 -23 -4 -44l-61 -336h-26l60 331q5 30 5 49q0 80 -70 80
q-46 0 -87.5 -35t-71.5 -92t-51.5 -119.5t-33.5 -126.5l-16 -87h-26l60 331q5 30 5 49q0 80 -70 80q-46 0 -87.5 -35t-71.5 -92t-51.5 -119.5t-33.5 -126.5l-16 -87h-26z" />
    <glyph glyph-name="afii10085" unicode="&#x443;" horiz-adv-x="393" 
d="M-54 -228q-25 0 -45 9l7 22q16 -7 44 -7q52 0 90 44.5t96 152.5l-86 481h26l79 -444l239 444h29l-257 -477q-69 -129 -113.5 -177t-108.5 -48z" />
    <glyph glyph-name="afii10086" unicode="&#x444;" horiz-adv-x="653" 
d="M232 -218l39 218q15 80 33 163h-1q-23 -71 -66 -122t-102 -51q-47 0 -71 36t-24 96q0 88 26 168.5t84.5 137t138.5 56.5q21 0 68 -7l43 243h26l-44 -246q-14 -80 -33 -163h1q23 71 66 122t102 51q47 0 71 -36t24 -96q0 -88 -26 -168.5t-84.5 -137t-138.5 -56.5
q-21 0 -68 7l-38 -215h-26zM139 14q65 0 115.5 88t72.5 212l25 139q-42 7 -72 7q-67 0 -118 -53.5t-74 -127t-23 -150.5q0 -115 74 -115zM373 14q67 0 118 53.5t74 127t23 150.5q0 115 -74 115q-65 0 -115.5 -88t-72.5 -212l-25 -139q42 -7 72 -7z" />
    <glyph glyph-name="afii10087" unicode="&#x445;" horiz-adv-x="407" 
d="M-12 0l203 247l-108 227h27l98 -206l169 206h33l-190 -231l116 -243h-27l-106 222l-183 -222h-32z" />
    <glyph glyph-name="afii10088" unicode="&#x446;" horiz-adv-x="514" 
d="M373 -160l24 160h-18q-34 0 -31 25q15 92 44 219h-1q-9 -30 -21 -59t-33 -66t-44.5 -64t-58 -46t-72.5 -19q-46 0 -70.5 28t-24.5 77q0 23 4 43l61 336h26l-60 -331q-5 -28 -5 -47q0 -82 73 -82q46 0 88.5 35t73 91.5t52 119.5t33.5 127l16 87h26l-46 -256
q-12 -63 -31 -176q-1 -9 4 -13.5t15 -4.5h32l-38 -184h-18z" />
    <glyph glyph-name="afii10089" unicode="&#x447;" horiz-adv-x="479" 
d="M316 0q29 183 53 287h-1q-18 -56 -72.5 -106.5t-134.5 -50.5q-47 0 -71.5 28t-24.5 78q0 22 4 42l35 196h26l-34 -191q-5 -28 -5 -47q0 -82 74 -82q78 0 142 75t78 158l16 87h26l-46 -256q-22 -120 -37 -218h-28z" />
    <glyph glyph-name="afii10090" unicode="&#x448;" horiz-adv-x="804" 
d="M162 -10q-46 0 -70.5 28t-24.5 77q0 23 4 43l61 336h26l-60 -331q-5 -28 -5 -47q0 -82 73 -82q46 0 88.5 35t73 91.5t52 119.5t33.5 127l16 87h26l-60 -331q-5 -28 -5 -47q0 -82 73 -82q46 0 88.5 35t73 91.5t52 119.5t33.5 127l16 87h26l-46 -256q-22 -120 -37 -218h-28
q18 118 48 244h-1q-9 -30 -21 -59t-33 -66t-44.5 -64t-58 -46t-72.5 -19q-46 0 -70 27.5t-24 76.5q0 21 5 48.5t13 61t9 40.5h-1q-12 -39 -29 -76.5t-45 -81t-68.5 -70t-86.5 -26.5z" />
    <glyph glyph-name="afii10091" unicode="&#x449;" horiz-adv-x="811" 
d="M670 -160l24 160h-18q-34 0 -31 25q15 92 44 219h-1q-9 -30 -21 -59t-33 -66t-44.5 -64t-58 -46t-72.5 -19q-46 0 -70 27.5t-24 76.5q0 21 5 48.5t13 61t9 40.5h-1q-12 -39 -29 -76.5t-45 -81t-68.5 -70t-86.5 -26.5t-70.5 28t-24.5 77q0 23 4 43l61 336h26l-60 -331
q-5 -28 -5 -47q0 -82 73 -82q46 0 88.5 35t73 91.5t52 119.5t33.5 127l16 87h26l-60 -331q-5 -28 -5 -47q0 -82 73 -82q46 0 88.5 35t73 91.5t52 119.5t33.5 127l16 87h26l-46 -256q-12 -63 -31 -176q-1 -9 4 -13.5t15 -4.5h32l-38 -184h-18z" />
    <glyph glyph-name="afii10092" unicode="&#x44a;" horiz-adv-x="508" 
d="M233 -10q-68 0 -128 10l81 450h-162l4 24h189l-24 -126q-24 -132 -36 -186h1q23 62 78.5 107t120.5 45q49 0 78 -32.5t29 -89.5q0 -91 -64.5 -146.5t-166.5 -55.5zM238 14q88 0 144.5 49t56.5 123q0 104 -86 104q-73 0 -133 -66t-77 -159l-8 -44q42 -7 103 -7z" />
    <glyph glyph-name="afii10093" unicode="&#x44b;" horiz-adv-x="661" 
d="M180 -10q-68 0 -128 10l86 474h26l-24 -126q-24 -132 -36 -186h1q23 62 78.5 107t120.5 45q49 0 78 -32.5t29 -89.5q0 -91 -64.5 -146.5t-166.5 -55.5zM185 14q88 0 144.5 49t56.5 123q0 104 -86 104q-73 0 -133 -66t-77 -159l-8 -44q42 -7 103 -7zM497 0l86 474h26
l-86 -474h-26z" />
    <glyph glyph-name="afii10094" unicode="&#x44c;" horiz-adv-x="455" 
d="M180 -10q-68 0 -128 10l86 474h26l-24 -126q-24 -132 -36 -186h1q23 62 78.5 107t120.5 45q49 0 78 -32.5t29 -89.5q0 -91 -64.5 -146.5t-166.5 -55.5zM185 14q88 0 144.5 49t56.5 123q0 104 -86 104q-73 0 -133 -66t-77 -159l-8 -44q42 -7 103 -7z" />
    <glyph glyph-name="afii10095" unicode="&#x44d;" horiz-adv-x="387" 
d="M79 240l4 24h242q2 20 2 32q0 164 -113 164q-72 0 -132 -64l-14 18q62 70 150 70q68 0 101.5 -51.5t33.5 -132.5q0 -127 -63 -218.5t-167 -91.5q-62 0 -107 31l14 20q36 -27 97 -27q77 0 129.5 66t66.5 160h-244z" />
    <glyph glyph-name="afii10096" unicode="&#x44e;" horiz-adv-x="710" 
d="M78 0h-26l86 474h26l-38 -210h173q23 93 83 156.5t144 63.5q51 0 85.5 -31t47.5 -71t13 -84q0 -116 -66 -212t-171 -96q-51 0 -85.5 31t-47.5 71t-13 84q0 31 6 64h-173zM441 14q60 0 108.5 45t72.5 107.5t24 124.5q0 69 -30 119t-96 50q-60 0 -108.5 -45t-72.5 -107.5
t-24 -124.5q0 -69 30 -119t96 -50z" />
    <glyph glyph-name="afii10097" unicode="&#x44f;" horiz-adv-x="429" 
d="M-2 0l4 24h5q22 0 49.5 26t77.5 86q72 88 97 99v1q-71 0 -117 26t-46 80q0 132 186 132h123l-86 -474h-26l43 235h-29q-11 0 -24 -7t-32.5 -28t-29.5 -32t-38 -45q-63 -76 -90 -99.5t-60 -23.5h-7zM234 258h78l35 192h-95q-78 0 -118 -24.5t-40 -82.5q0 -43 39 -64
t101 -21z" />
    <glyph glyph-name="uni0450" unicode="&#x450;" horiz-adv-x="398" 
d="M173 -10q-68 0 -101.5 51.5t-33.5 132.5q0 120 67 215t171 95q44 0 75 -26t31 -68q0 -135 -317 -184q-1 -10 -1 -28q0 -164 113 -164q72 0 132 64l14 -18q-62 -70 -150 -70zM68 229q126 19 207 59.5t81 101.5q0 32 -23.5 51t-60.5 19q-77 0 -133 -69t-71 -162zM259 539
l-102 119h40l82 -119h-20z" />
    <glyph glyph-name="afii10071" unicode="&#x451;" horiz-adv-x="398" 
d="M173 -10q-68 0 -101.5 51.5t-33.5 132.5q0 120 67 215t171 95q44 0 75 -26t31 -68q0 -135 -317 -184q-1 -10 -1 -28q0 -164 113 -164q72 0 132 64l14 -18q-62 -70 -150 -70zM68 229q126 19 207 59.5t81 101.5q0 32 -23.5 51t-60.5 19q-77 0 -133 -69t-71 -162zM201 549
q-9 0 -16 7.5t-7 17.5t7 17.5t16 7.5t16 -7.5t7 -17.5t-7 -17.5t-16 -7.5zM349 549q-9 0 -16 7.5t-7 17.5t7 17.5t16 7.5t16 -7.5t7 -17.5t-7 -17.5t-16 -7.5z" />
    <glyph glyph-name="afii10099" unicode="&#x452;" horiz-adv-x="498" 
d="M188 -87l-6 19q92 24 162 146t70 258q0 50 -17 87t-56 37q-46 0 -88.5 -35t-73 -91.5t-52 -119.5t-33.5 -127l-16 -87h-26l107 596h-47l4 24h47l18 100h26l-18 -100h190l-4 -24h-190l-22 -122q-30 -168 -48 -244h1q9 30 21 59t33 66t44.5 64t58 46t72.5 19q49 0 72 -42.5
t23 -100.5q0 -153 -77 -280t-175 -148z" />
    <glyph glyph-name="afii10100" unicode="&#x453;" horiz-adv-x="365" 
d="M138 -10q-57 0 -91.5 26.5t-34.5 72.5q0 32 10.5 56.5t36 44.5t47 32t64.5 32q38 18 57.5 28.5t41.5 27t31 36t9 45.5q0 69 -81 69q-71 0 -124 -38l-11 20q56 42 137 42q50 0 78 -24t28 -66q0 -32 -10.5 -56.5t-36.5 -44.5t-47 -31.5t-64 -31.5q-74 -34 -106.5 -61.5
t-32.5 -75.5q0 -37 27 -58t74 -21q73 0 138 42l8 -21q-63 -45 -148 -45zM224 539l124 119h41l-144 -119h-21z" />
    <glyph glyph-name="afii10101" unicode="&#x454;" horiz-adv-x="387" 
d="M173 -10q-68 0 -101.5 51.5t-33.5 132.5q0 127 63 218.5t167 91.5q62 0 107 -31l-14 -20q-36 27 -97 27q-70 0 -120.5 -56t-69.5 -140h242l-4 -24h-243q-5 -26 -5 -62q0 -164 113 -164q72 0 132 64l14 -18q-62 -70 -150 -70z" />
    <glyph glyph-name="afii10102" unicode="&#x455;" horiz-adv-x="331" 
d="M126 -10q-73 0 -120 41l14 18q42 -35 110 -35q45 0 77.5 25t32.5 66q0 26 -11 48.5t-23.5 36t-45.5 44.5t-47.5 46.5t-27 41.5t-12.5 54q0 45 35.5 76.5t92.5 31.5q53 0 92 -30l-13 -19q-34 25 -83 25q-44 0 -71.5 -24.5t-27.5 -57.5q0 -26 11 -48.5t23.5 -36t45.5 -44.5
t47.5 -46.5t27 -41.5t12.5 -54q0 -54 -41 -85.5t-98 -31.5z" />
    <glyph glyph-name="afii10103" unicode="&#x456;" 
d="M172 582q-9 0 -15.5 7t-6.5 17q0 13 8.5 22.5t20.5 9.5q9 0 15.5 -7t6.5 -17q0 -13 -8.5 -22.5t-20.5 -9.5zM52 0l86 474h26l-86 -474h-26z" />
    <glyph glyph-name="afii10104" unicode="&#x457;" 
d="M52 0l86 474h26l-86 -474h-26zM92 549q-9 0 -16 7.5t-7 17.5t7 17.5t16 7.5t16 -7.5t7 -17.5t-7 -17.5t-16 -7.5zM240 549q-9 0 -16 7.5t-7 17.5t7 17.5t16 7.5t16 -7.5t7 -17.5t-7 -17.5t-16 -7.5z" />
    <glyph glyph-name="afii10105" unicode="&#x458;" 
d="M-79 -228q-40 0 -68 17l11 21q24 -14 61 -14q50 0 77.5 35.5t40.5 110.5l93 532h27l-94 -536q-15 -85 -49 -125.5t-99 -40.5zM172 582q-9 0 -15.5 7t-6.5 17q0 13 8.5 22.5t20.5 9.5q9 0 15.5 -7t6.5 -17q0 -13 -8.5 -22.5t-20.5 -9.5z" />
    <glyph glyph-name="afii10106" unicode="&#x459;" horiz-adv-x="719" 
d="M444 -10q-68 0 -128 10l81 450h-193l-68 -252q-28 -102 -61 -147.5t-86 -53.5l-3 20q46 10 73.5 51.5t53.5 137.5l73 268h242l-24 -126q-5 -28 -12 -65t-12.5 -65t-11.5 -56h1q23 62 78.5 107t120.5 45q49 0 78 -32.5t29 -89.5q0 -91 -64.5 -146.5t-166.5 -55.5zM449 14
q88 0 144.5 49t56.5 123q0 104 -86 104q-73 0 -133 -66t-77 -159l-8 -44q42 -7 103 -7z" />
    <glyph glyph-name="afii10107" unicode="&#x45a;" horiz-adv-x="776" 
d="M501 -10q-68 0 -128 10l43 240h-294l-44 -240h-26l86 474h26l-38 -210h295l38 210h26l-24 -126q-24 -132 -36 -186h1q23 62 78.5 107t120.5 45q49 0 78 -32.5t29 -89.5q0 -91 -64.5 -146.5t-166.5 -55.5zM506 14q88 0 144.5 49t56.5 123q0 104 -86 104q-73 0 -133 -66
t-77 -159l-8 -44q42 -7 103 -7z" />
    <glyph glyph-name="afii10108" unicode="&#x45b;" horiz-adv-x="507" 
d="M52 0l107 596h-47l4 24h47l18 100h26l-18 -100h190l-4 -24h-190l-22 -122q-30 -168 -48 -244h1q9 30 21 59t33 66t44.5 64t58 46t72.5 19q46 0 70.5 -28t24.5 -77q0 -23 -4 -43l-61 -336h-26l60 331q5 28 5 47q0 82 -73 82q-46 0 -88.5 -35t-73 -91.5t-52 -119.5
t-33.5 -127l-16 -87h-26z" />
    <glyph glyph-name="afii10109" unicode="&#x45c;" horiz-adv-x="435" 
d="M52 0l86 474h26l-39 -216h49l227 216h36l-239 -227q24 -17 78 -112q44 -79 61 -95q16 -16 31 -16h11l-5 -24h-12q-26 0 -47 25t-62 98q-44 79 -61 95q-16 15 -31 16h-41l-42 -234h-26zM246 539l124 119h41l-144 -119h-21z" />
    <glyph glyph-name="uni045D" unicode="&#x45d;" horiz-adv-x="507" 
d="M162 -10q-46 0 -70.5 28t-24.5 77q0 23 4 43l61 336h26l-60 -331q-5 -28 -5 -47q0 -82 73 -82q46 0 88.5 35t73 91.5t52 119.5t33.5 127l16 87h26l-46 -256q-22 -120 -37 -218h-28q18 118 48 244h-1q-9 -30 -21 -59t-33 -66t-44.5 -64t-58 -46t-72.5 -19zM287 539
l-102 119h40l82 -119h-20z" />
    <glyph glyph-name="afii10110" unicode="&#x45e;" horiz-adv-x="393" 
d="M-54 -228q-25 0 -45 9l7 22q16 -7 44 -7q52 0 90 44.5t96 152.5l-86 481h26l79 -444l239 444h29l-257 -477q-69 -129 -113.5 -177t-108.5 -48zM242 541q-47 0 -72.5 37.5t-25.5 86.5v11h23v-11q0 -40 19.5 -70t57.5 -30q42 0 74.5 34.5t44.5 76.5h23q-17 -55 -53.5 -95
t-90.5 -40z" />
    <glyph glyph-name="afii10193" unicode="&#x45f;" horiz-adv-x="507" 
d="M162 -10q-46 0 -70.5 28t-24.5 77q0 23 4 43l61 336h26l-60 -331q-5 -28 -5 -47q0 -82 73 -82q46 0 88.5 35t73 91.5t52 119.5t33.5 127l16 87h26l-46 -256q-22 -120 -37 -218h-28q18 118 48 244h-1q-9 -30 -21 -59t-33 -66t-44.5 -64t-58 -46t-72.5 -19zM159 -211
l26 160h27l-35 -160h-18z" />
    <glyph glyph-name="afii10050" unicode="&#x490;" horiz-adv-x="442" 
d="M62 0l121 666h287l34 160h18l-28 -184h-290l-116 -642h-26z" />
    <glyph glyph-name="afii10098" unicode="&#x491;" horiz-adv-x="385" 
d="M52 0l86 474h231l34 160h18l-28 -184h-233l-82 -450h-26z" />
    <glyph glyph-name="uni0492" unicode="&#x492;" horiz-adv-x="442" 
d="M62 0l65 360h-72l5 24h72l51 282h316l-5 -24h-290l-47 -258h172l-5 -24h-171l-65 -360h-26z" />
    <glyph glyph-name="uni0493" unicode="&#x493;" horiz-adv-x="365" 
d="M332 240h-137q-3 -2 -9 -4.5t-8 -3.5q-73 -34 -106 -62.5t-33 -76.5q0 -37 27 -58t74 -21q73 0 138 42l8 -21q-63 -45 -148 -45q-57 0 -91.5 26.5t-34.5 72.5q0 55 32 86.5t100 64.5h-116l4 24h164q58 28 85.5 55.5t27.5 71.5q0 69 -81 69q-71 0 -124 -38l-11 20
q56 42 137 42q50 0 78 -24t28 -66q0 -47 -23 -76t-70 -54h93z" />
    <glyph glyph-name="uni0496" unicode="&#x496;" horiz-adv-x="784" 
d="M-25 0l4 24h11q36 0 86 57q14 16 85 105q6 8 24 30.5t25.5 32t22.5 28t24.5 27.5t22 21t23.5 18.5t21 10.5l-212 312h31l207 -307h44l55 307h26l-55 -307h48l311 307h37l-328 -321q6 -5 12 -10.5t12.5 -13.5t11 -14t11.5 -18l10.5 -18t11.5 -20.5t10.5 -20t11.5 -22.5
t11 -22q52 -106 70 -129q24 -33 48 -33h19l-38 -184h-18l24 160q-10 1 -20 6.5t-19.5 16.5t-17 20.5t-17.5 28.5t-16 30.5t-18 35.5l-18 36q-51 104 -72 129q-27 32 -54 33h-28l-60 -336h-26l60 336h-36q-10 0 -21 -4t-23.5 -14t-22 -18.5t-25 -27t-24.5 -29t-28 -35
t-28 -35.5l-24 -30q-67 -84 -99 -113.5t-69 -29.5h-14z" />
    <glyph glyph-name="uni0497" unicode="&#x497;" horiz-adv-x="800" 
d="M65 -10q-43 0 -70 29l13 20q25 -25 60 -25q74 0 122.5 89t48.5 193q0 164 -82 164q-53 0 -97 -46l-13 18q48 52 113 52q53 0 79 -49.5t26 -134.5q0 -28 -3 -51h127l41 225h26l-41 -225h126q16 99 67.5 167t126.5 68q43 0 70 -29l-13 -20q-25 25 -60 25q-74 0 -122.5 -89
t-48.5 -193q0 -164 82 -164q53 0 97 46l23 -10l-43 -210h-18l28 183q-36 -33 -90 -33q-53 0 -79 49.5t-26 134.5q0 25 2 51h-127l-40 -225h-26l41 225h-127q-16 -100 -67.5 -167.5t-125.5 -67.5z" />
    <glyph glyph-name="uni049A" unicode="&#x49a;" horiz-adv-x="517" 
d="M62 0l120 666h26l-55 -307h48l311 307h37l-327 -321q8 -6 15.5 -13.5t15.5 -19t13.5 -20t14.5 -25.5t13 -24.5t15 -29t14 -27.5q4 -9 13 -27l13.5 -27l12 -24t12.5 -23t12 -19t12.5 -17t12.5 -12.5t13.5 -9.5t13.5 -3h22l-38 -184h-18l24 160q-10 1 -20 6.5t-19.5 16.5
t-17 20.5t-17.5 28.5t-16 30.5t-18 35.5l-18 36q-51 104 -72 129q-27 32 -54 33h-28l-60 -336h-26z" />
    <glyph glyph-name="uni049B" unicode="&#x49b;" horiz-adv-x="435" 
d="M52 0l86 474h26l-39 -216h49l227 216h36l-239 -227q24 -17 78 -112q44 -79 61 -95q16 -16 31 -16h25l-38 -184h-18l24 160q-26 0 -47 25.5t-61 97.5q-44 79 -61 95q-16 15 -31 16h-41l-42 -234h-26z" />
    <glyph glyph-name="uni049C" unicode="&#x49c;" horiz-adv-x="539" 
d="M273 545l-34 -186h36l259 307h34l-272 -321q11 -9 21 -28t16 -35t17 -48t17 -48q61 -162 96 -162h9l-4 -24h-11q-15 0 -28.5 12.5t-29.5 42.5t-25 51t-28 68q-7 18 -18 48.5t-17.5 46.5t-15.5 33.5t-18.5 25.5t-20.5 8h-21l-33 -188h-26l33 188h-61l-60 -336h-26l120 666
h26l-55 -307h60l34 186h26z" />
    <glyph glyph-name="uni049D" unicode="&#x49d;" horiz-adv-x="445" 
d="M227 395l-25 -137h24l185 216h33l-194 -227q13 -13 56 -110q4 -9 10.5 -25t10 -24t9.5 -20t10 -18.5t9.5 -13t11 -9.5t11.5 -3h11l-5 -24h-12q-25 0 -40.5 24.5t-48.5 100.5q-36 84 -49 98q-9 11 -18 11h-18l-24 -137h-26l24 137h-52l-42 -234h-26l86 474h26l-39 -216h51
l25 137h26z" />
    <glyph glyph-name="uni04A2" unicode="&#x4a2;" horiz-adv-x="696" 
d="M62 0l121 666h26l-54 -299h434l54 299h26l-117 -642h27l-38 -184h-18l24 160h-25l62 343h-434l-62 -343h-26z" />
    <glyph glyph-name="uni04A3" unicode="&#x4a3;" horiz-adv-x="538" 
d="M52 0l86 474h26l-38 -210h296l38 210h26l-82 -450h27l-38 -184h-18l24 160h-25l43 240h-295l-44 -240h-26z" />
    <glyph glyph-name="uni04AE" unicode="&#x4ae;" horiz-adv-x="506" 
d="M202 0l46 250l-145 416h29l132 -386l272 386h33l-295 -416l-46 -250h-26z" />
    <glyph glyph-name="uni04AF" unicode="&#x4af;" horiz-adv-x="393" 
d="M138 -6l-86 480h26l79 -444l239 444h29l-263 -488l-36 -204h-26z" />
    <glyph glyph-name="uni04B0" unicode="&#x4b0;" horiz-adv-x="506" 
d="M202 0l35 192h-161l5 24h161l6 34l-145 416h29l132 -386l272 386h33l-295 -416l-7 -34h162l-5 -24h-161l-35 -192h-26z" />
    <glyph glyph-name="uni04B1" unicode="&#x4b1;" horiz-adv-x="393" 
d="M266 -24h-106l-34 -194h-26l35 194h-101l4 24h99l-85 474h26l79 -444l239 444h29l-255 -474h100z" />
    <glyph glyph-name="uni04B2" unicode="&#x4b2;" horiz-adv-x="512" 
d="M-7 0l271 349l-140 317h29l129 -293l228 293h34l-249 -321l142 -321h29l-38 -184h-18l24 160h-16l-142 321l-250 -321h-33z" />
    <glyph glyph-name="uni04B3" unicode="&#x4b3;" horiz-adv-x="407" 
d="M-12 0l203 247l-108 227h27l98 -206l169 206h33l-190 -231l104 -219h30l-38 -184h-18l24 160h-13l-106 222l-183 -222h-32z" />
    <glyph glyph-name="uni04B6" unicode="&#x4b6;" horiz-adv-x="588" 
d="M414 0l53 295q-33 -43 -89.5 -73.5t-127.5 -30.5q-72 0 -115 40.5t-43 113.5q0 24 4 47l50 274h26l-50 -276q-15 -84 21.5 -129.5t110.5 -45.5q65 0 125 35t95 81l61 335h26l-117 -642h27l-38 -184h-18l24 160h-25z" />
    <glyph glyph-name="uni04B7" unicode="&#x4b7;" horiz-adv-x="479" 
d="M316 0q29 183 53 287h-1q-18 -56 -72.5 -106.5t-134.5 -50.5q-47 0 -71.5 28t-24.5 78q0 22 4 42l35 196h26l-34 -191q-5 -28 -5 -47q0 -82 74 -82q78 0 142 75t78 158l16 87h26l-46 -256q-23 -121 -34 -194h27l-38 -184h-18l24 160h-26z" />
    <glyph glyph-name="uni04B8" unicode="&#x4b8;" horiz-adv-x="588" 
d="M414 0l53 295q-67 -88 -184 -102l-22 -129h-26l22 127h-7q-72 0 -115 40.5t-43 113.5q0 24 4 47l50 274h26l-50 -276q-15 -84 21.5 -129.5t110.5 -45.5h7l33 185h26l-32 -182q56 8 106 40.5t80 72.5l61 335h26l-121 -666h-26z" />
    <glyph glyph-name="uni04B9" unicode="&#x4b9;" horiz-adv-x="479" 
d="M316 0q29 183 53 287h-1q-15 -46 -55.5 -90.5t-100.5 -60.5l-18 -103h-26l17 98q-8 -1 -24 -1q-47 0 -71.5 28t-24.5 78q0 22 4 42l35 196h26l-34 -191q-5 -28 -5 -47q0 -82 74 -82q16 0 24 2l30 169h26l-29 -162q62 23 109.5 89.5t59.5 134.5l16 87h26l-46 -256
q-22 -120 -37 -218h-28z" />
    <glyph glyph-name="uni04BA" unicode="&#x4ba;" horiz-adv-x="588" 
d="M209 666l-53 -295q33 43 89.5 73.5t127.5 30.5q72 0 115 -40.5t43 -113.5q0 -24 -4 -47l-50 -274h-26l50 276q15 84 -21.5 129.5t-110.5 45.5q-65 0 -125 -35t-95 -81l-61 -335h-26l121 666h26z" />
    <glyph glyph-name="uni04BB" unicode="&#x4bb;" horiz-adv-x="507" 
d="M52 0l129 720h26l-44 -246q-30 -168 -48 -244h1q9 30 21 59t33 66t44.5 64t58 46t72.5 19q46 0 70.5 -28t24.5 -77q0 -23 -4 -43l-61 -336h-26l60 331q5 28 5 47q0 82 -73 82q-46 0 -88.5 -35t-73 -91.5t-52 -119.5t-33.5 -127l-16 -87h-26z" />
    <glyph glyph-name="uni04C0" unicode="&#x4c0;" horiz-adv-x="236" 
d="M62 0l121 666h26l-121 -666h-26z" />
    <glyph glyph-name="uni04CF" unicode="&#x4cf;" 
d="M52 0l129 720h26l-129 -720h-26z" />
    <glyph glyph-name="uni04D8" unicode="&#x4d8;" horiz-adv-x="696" 
d="M193 577l-12 19q91 80 217 80q117 0 188.5 -82.5t71.5 -197.5q0 -109 -40.5 -201t-118 -148.5t-176.5 -56.5q-113 0 -181 82.5t-68 197.5q0 26 3 52h550q5 37 5 67q0 110 -65.5 186.5t-174.5 76.5q-55 0 -108 -20.5t-91 -54.5zM329 14q109 0 188.5 81.5t104.5 202.5h-522
v-21q0 -110 62 -186.5t167 -76.5z" />
    <glyph glyph-name="afii10846" unicode="&#x4d9;" horiz-adv-x="398" 
d="M227 484q68 0 101.5 -51.5t33.5 -132.5q0 -120 -67 -215t-171 -95q-44 0 -75 26t-31 68q0 135 317 184q1 10 1 28q0 164 -113 164q-72 0 -132 -64l-14 18q62 70 150 70zM332 245q-126 -19 -207 -59.5t-81 -101.5q0 -32 23.5 -51t60.5 -19q77 0 133 69t71 162z" />
    <glyph glyph-name="uni04E2" unicode="&#x4e2;" horiz-adv-x="689" 
d="M62 0l121 666h26l-113 -620l539 620h27l-121 -666h-26l112 620l-538 -620h-27zM311 781l5 24h263l-5 -24h-263z" />
    <glyph glyph-name="uni04E3" unicode="&#x4e3;" horiz-adv-x="507" 
d="M162 -10q-46 0 -70.5 28t-24.5 77q0 23 4 43l61 336h26l-60 -331q-5 -28 -5 -47q0 -82 73 -82q46 0 88.5 35t73 91.5t52 119.5t33.5 127l16 87h26l-46 -256q-22 -120 -37 -218h-28q18 118 48 244h-1q-9 -30 -21 -59t-33 -66t-44.5 -64t-58 -46t-72.5 -19zM172 589l5 24
h263l-5 -24h-263z" />
    <glyph glyph-name="uni04E8" unicode="&#x4e8;" horiz-adv-x="725" 
d="M332 -10q-117 0 -188 82.5t-71 197.5q0 168 98.5 287t255.5 119q117 0 188.5 -82.5t71.5 -197.5q0 -168 -99 -287t-256 -119zM338 14q123 0 210.5 90t107.5 220h-555q-2 -32 -2 -47q0 -110 65 -186.5t174 -76.5zM421 652q-122 0 -208.5 -88t-107.5 -216h554q2 26 2 41
q0 110 -65.5 186.5t-174.5 76.5z" />
    <glyph glyph-name="uni04E9" unicode="&#x4e9;" horiz-adv-x="459" 
d="M184 -10q-51 0 -85.5 31t-47.5 71t-13 84q0 116 66 212t171 96q51 0 85.5 -31t47.5 -71t13 -84q0 -116 -66 -212t-171 -96zM190 14q75 0 129 65t70 153h-321q-4 -23 -4 -49q0 -69 30 -119t96 -50zM269 460q-72 0 -124.5 -60t-72.5 -144h320q3 18 3 35q0 69 -30 119
t-96 50z" />
    <glyph glyph-name="uni04EE" unicode="&#x4ee;" horiz-adv-x="504" 
d="M68 -2q-20 0 -32 5l6 23q12 -4 28 -4q29 0 51.5 22t64.5 87l58 89l-133 446h25l126 -419l275 419h30l-358 -545q-49 -74 -76 -98.5t-65 -24.5zM220 781l5 24h263l-5 -24h-263z" />
    <glyph glyph-name="uni04EF" unicode="&#x4ef;" horiz-adv-x="393" 
d="M-54 -228q-25 0 -45 9l7 22q16 -7 44 -7q52 0 90 44.5t96 152.5l-86 481h26l79 -444l239 444h29l-257 -477q-69 -129 -113.5 -177t-108.5 -48zM118 598l5 24h263l-5 -24h-263z" />
    <glyph glyph-name="Wgrave" unicode="&#x1e80;" horiz-adv-x="847" 
d="M166 0l-54 666h26l49 -621l297 621h26l76 -618l277 618h28l-300 -666h-24l-77 622l-297 -622h-27zM499 731l-102 119h40l82 -119h-20z" />
    <glyph glyph-name="wgrave" unicode="&#x1e81;" horiz-adv-x="656" 
d="M119 0l-59 474h26l53 -434l218 434h26l61 -434l210 434h26l-229 -474h-26l-62 434l-218 -434h-26zM370 539l-102 119h40l82 -119h-20z" />
    <glyph glyph-name="Wacute" unicode="&#x1e82;" horiz-adv-x="847" 
d="M166 0l-54 666h26l49 -621l297 621h26l76 -618l277 618h28l-300 -666h-24l-77 622l-297 -622h-27zM500 731l124 119h41l-144 -119h-21z" />
    <glyph glyph-name="wacute" unicode="&#x1e83;" horiz-adv-x="656" 
d="M119 0l-59 474h26l53 -434l218 434h26l61 -434l210 434h26l-229 -474h-26l-62 434l-218 -434h-26zM371 539l124 119h41l-144 -119h-21z" />
    <glyph glyph-name="Wdieresis" unicode="&#x1e84;" horiz-adv-x="847" 
d="M166 0l-54 666h26l49 -621l297 621h26l76 -618l277 618h28l-300 -666h-24l-77 622l-297 -622h-27zM441 741q-9 0 -16 7.5t-7 17.5t7 17.5t16 7.5t16 -7.5t7 -17.5t-7 -17.5t-16 -7.5zM589 741q-9 0 -16 7.5t-7 17.5t7 17.5t16 7.5t16 -7.5t7 -17.5t-7 -17.5t-16 -7.5z
" />
    <glyph glyph-name="wdieresis" unicode="&#x1e85;" horiz-adv-x="656" 
d="M119 0l-59 474h26l53 -434l218 434h26l61 -434l210 434h26l-229 -474h-26l-62 434l-218 -434h-26zM312 549q-9 0 -16 7.5t-7 17.5t7 17.5t16 7.5t16 -7.5t7 -17.5t-7 -17.5t-16 -7.5zM460 549q-9 0 -16 7.5t-7 17.5t7 17.5t16 7.5t16 -7.5t7 -17.5t-7 -17.5t-16 -7.5z
" />
    <glyph glyph-name="Ygrave" unicode="&#x1ef2;" horiz-adv-x="506" 
d="M202 0l46 250l-145 416h29l132 -386l272 386h33l-295 -416l-46 -250h-26zM331 731l-102 119h40l82 -119h-20z" />
    <glyph glyph-name="ygrave" unicode="&#x1ef3;" horiz-adv-x="393" 
d="M-54 -228q-25 0 -45 9l7 22q16 -7 44 -7q52 0 90 44.5t96 152.5l-86 481h26l79 -444l239 444h29l-257 -477q-69 -129 -113.5 -177t-108.5 -48zM231 539l-102 119h40l82 -119h-20z" />
    <glyph glyph-name="uni2007" unicode="&#x2007;" horiz-adv-x="491" 
 />
    <glyph glyph-name="uni2008" unicode="&#x2008;" horiz-adv-x="155" 
 />
    <glyph glyph-name="uni200B" unicode="&#x200b;" horiz-adv-x="0" 
 />
    <glyph glyph-name="endash" unicode="&#x2013;" horiz-adv-x="499" 
d="M62 269l5 24h387l-5 -24h-387z" />
    <glyph glyph-name="emdash" unicode="&#x2014;" horiz-adv-x="796" 
d="M62 269l5 24h684l-5 -24h-684z" />
    <glyph glyph-name="afii00208" unicode="&#x2015;" horiz-adv-x="796" 
d="M62 269l5 24h684l-5 -24h-684z" />
    <glyph glyph-name="quoteleft" unicode="&#x2018;" horiz-adv-x="149" 
d="M116 522q-9 0 -15 9t-6 21q0 27 21 60t43 54l15 -7q-41 -46 -41 -75q0 -8 4 -18t4 -17q0 -11 -7.5 -19t-17.5 -8z" />
    <glyph glyph-name="quoteright" unicode="&#x2019;" horiz-adv-x="149" 
d="M104 526l-15 7q41 46 41 75q0 8 -4 18t-4 17q0 11 7.5 19t17.5 8q9 0 15 -9t6 -21q0 -27 -21 -60t-43 -54z" />
    <glyph glyph-name="quotesinglbase" unicode="&#x201a;" horiz-adv-x="149" 
d="M5 -102l-15 7q41 46 41 75q0 8 -4 18t-4 17q0 11 7.5 19t17.5 8q9 0 15 -9t6 -21q0 -27 -21 -60t-43 -54z" />
    <glyph glyph-name="quotedblleft" unicode="&#x201c;" horiz-adv-x="282" 
d="M116 522q-9 0 -15 9t-6 21q0 27 21 60t43 54l15 -7q-41 -46 -41 -75q0 -8 4 -18t4 -17q0 -11 -7.5 -19t-17.5 -8zM249 522q-9 0 -15 9t-6 21q0 27 21 60t43 54l15 -7q-41 -46 -41 -75q0 -8 4 -18t4 -17q0 -11 -7.5 -19t-17.5 -8z" />
    <glyph glyph-name="quotedblright" unicode="&#x201d;" horiz-adv-x="282" 
d="M104 526l-15 7q41 46 41 75q0 8 -4 18t-4 17q0 11 7.5 19t17.5 8q9 0 15 -9t6 -21q0 -27 -21 -60t-43 -54zM237 526l-15 7q41 46 41 75q0 8 -4 18t-4 17q0 11 7.5 19t17.5 8q9 0 15 -9t6 -21q0 -27 -21 -60t-43 -54z" />
    <glyph glyph-name="quotedblbase" unicode="&#x201e;" horiz-adv-x="282" 
d="M5 -102l-15 7q41 46 41 75q0 8 -4 18t-4 17q0 11 7.5 19t17.5 8q9 0 15 -9t6 -21q0 -27 -21 -60t-43 -54zM138 -102l-15 7q41 46 41 75q0 8 -4 18t-4 17q0 11 7.5 19t17.5 8q9 0 15 -9t6 -21q0 -27 -21 -60t-43 -54z" />
    <glyph glyph-name="dagger" unicode="&#x2020;" horiz-adv-x="523" 
d="M177 -170l83 464l34 160l-86 -4h-110l4 24h110l85 -4l15 113l25 137h26l-25 -137l-25 -113l86 4h110l-4 -24h-110l-85 4l-24 -160l-84 -464h-25z" />
    <glyph glyph-name="daggerdbl" unicode="&#x2021;" horiz-adv-x="523" 
d="M179 -152l25 137l25 113l-87 -4h-110l5 24h110l85 -4l23 160l3 20l34 160l-86 -4h-110l5 24h110l84 -4l15 113l25 137h26l-25 -137l-25 -113l87 4h110l-5 -24h-110l-85 4l-27 -180l-34 -160l86 4h111l-5 -24h-111l-84 4l-15 -113l-25 -137h-25z" />
    <glyph glyph-name="bullet" unicode="&#x2022;" horiz-adv-x="296" 
d="M148 219q-28 0 -47 19t-19 47q0 29 19 48t47 19t47 -19.5t19 -47.5t-19 -47t-47 -19z" />
    <glyph glyph-name="ellipsis" unicode="&#x2026;" horiz-adv-x="497" 
d="M35 -8q-9 0 -15.5 7t-6.5 17q0 13 8.5 22.5t20.5 9.5q9 0 15.5 -7t6.5 -17q0 -13 -8.5 -22.5t-20.5 -9.5zM206 -8q-9 0 -15.5 7t-6.5 17q0 13 8.5 22.5t20.5 9.5q9 0 15.5 -7t6.5 -17q0 -13 -8.5 -22.5t-20.5 -9.5zM377 -8q-9 0 -15.5 7t-6.5 17q0 13 8.5 22.5t20.5 9.5
q9 0 15.5 -7t6.5 -17q0 -13 -8.5 -22.5t-20.5 -9.5z" />
    <glyph glyph-name="perthousand" unicode="&#x2030;" horiz-adv-x="914" 
d="M158 232q-44 0 -68 29.5t-24 66.5q0 66 39 112t96 46q44 0 68 -29.5t24 -66.5q0 -66 -39 -112t-96 -46zM162 255q45 0 76 39t31 92q0 31 -18 54t-54 23q-45 0 -76 -39t-31 -92q0 -31 18 -54t54 -23zM427 -12q-44 0 -68 29.5t-24 66.5q0 66 39 112t96 46q44 0 68 -29.5
t24 -66.5q0 -66 -39 -112t-96 -46zM431 11q45 0 76 39t31 92q0 31 -18 54t-54 23q-45 0 -76 -39t-31 -92q0 -31 18 -54t54 -23zM713 -12q-44 0 -68 29.5t-24 66.5q0 66 39 112t96 46q44 0 68 -29.5t24 -66.5q0 -66 -39 -112t-96 -46zM717 11q45 0 76 39t31 92q0 31 -18 54
t-54 23q-45 0 -76 -39t-31 -92q0 -31 18 -54t54 -23zM119 0l367 474h27l-368 -474h-26z" />
    <glyph glyph-name="guilsinglleft" unicode="&#x2039;" horiz-adv-x="280" 
d="M158 58l-109 188l176 187h31l-178 -190l108 -185h-28z" />
    <glyph glyph-name="guilsinglright" unicode="&#x203a;" horiz-adv-x="280" 
d="M21 57l178 190l-108 185h28l109 -188l-176 -187h-31z" />
    <glyph glyph-name="fraction" unicode="&#x2044;" horiz-adv-x="83" 
d="M-207 0l514 666h29l-515 -666h-28z" />
    <glyph glyph-name="uni2070" unicode="&#x2070;" horiz-adv-x="322" 
d="M185 344q-48 0 -75 34t-27 87q0 78 41.5 142t111.5 64q48 0 75 -34t27 -85q0 -80 -42 -144t-111 -64zM188 366q55 0 90 56t35 128q0 45 -21.5 72t-58.5 27q-54 0 -89.5 -56.5t-35.5 -125.5q0 -46 21.5 -73.5t58.5 -27.5z" />
    <glyph glyph-name="uni2074" unicode="&#x2074;" horiz-adv-x="276" 
d="M195 349l13 76h-164l3 20l203 221h25l-40 -219h45l-4 -22h-44l-14 -76h-23zM76 447h136l32 180z" />
    <glyph glyph-name="uni2075" unicode="&#x2075;" horiz-adv-x="239" 
d="M86 344q-20 0 -36 4l5 21q15 -3 34 -3q55 0 91 21.5t36 69.5q0 35 -29.5 52t-68.5 17q-19 0 -28 -1l28 141h149l-4 -22h-126l-19 -97h5q47 0 82.5 -23.5t35.5 -63.5q0 -60 -44 -88t-111 -28z" />
    <glyph glyph-name="uni2076" unicode="&#x2076;" horiz-adv-x="272" 
d="M159 344q-44 0 -67.5 32.5t-23.5 76.5q0 92 64 155.5t154 63.5l3 -20q-68 0 -121 -40.5t-69 -104.5q30 32 85 32q39 0 65 -22.5t26 -58.5q0 -50 -33.5 -82t-82.5 -32zM161 366q38 0 63.5 26t25.5 65q0 28 -19.5 44.5t-49.5 16.5q-51 0 -86 -33q-2 -10 -2 -33
q0 -37 18 -61.5t50 -24.5z" />
    <glyph glyph-name="uni2077" unicode="&#x2077;" horiz-adv-x="244" 
d="M101 337l-20 9l181 298h-166l4 22h193l-3 -19z" />
    <glyph glyph-name="uni2078" unicode="&#x2078;" horiz-adv-x="259" 
d="M152 344q-37 0 -62.5 20t-25.5 49q0 17 7.5 32t23 28t28.5 21.5t35 20.5q-18 14 -27 22t-19 22.5t-10 28.5q0 37 30.5 60t71.5 23q35 0 58.5 -16.5t23.5 -44.5q0 -30 -23 -51.5t-64 -43.5q65 -43 65 -78q0 -41 -32.5 -67t-79.5 -26zM155 366q33 0 58.5 19.5t25.5 48.5
q0 13 -10.5 26.5t-20 20.5t-32.5 22q-29 -16 -44 -25.5t-29 -26.5t-14 -36q0 -21 19 -35t47 -14zM181 527q40 21 60 38.5t20 40.5q0 20 -17 31.5t-42 11.5q-30 0 -52.5 -16t-22.5 -43q0 -9 3.5 -17t14 -17.5t15.5 -13t21 -15.5z" />
    <glyph glyph-name="uni2079" unicode="&#x2079;" horiz-adv-x="272" 
d="M69 344l-3 20q68 0 121 40.5t69 104.5q-30 -32 -85 -32q-39 0 -65 22.5t-26 58.5q0 50 33.5 82t82.5 32q44 0 67.5 -32.5t23.5 -76.5q0 -92 -64 -155.5t-154 -63.5zM174 498q51 0 86 33q2 10 2 33q0 37 -18 61.5t-50 24.5q-38 0 -63.5 -26t-25.5 -65q0 -28 19.5 -44.5
t49.5 -16.5z" />
    <glyph glyph-name="uni207A" unicode="&#x207a;" horiz-adv-x="275" 
d="M157 403l17 97h-100l4 22h100l16 90h22l-16 -90h100l-4 -22h-99l-18 -97h-22z" />
    <glyph glyph-name="uni207B" unicode="&#x207b;" horiz-adv-x="243" 
d="M71 500l4 22h195l-4 -22h-195z" />
    <glyph glyph-name="uni207D" unicode="&#x207d;" horiz-adv-x="137" 
d="M129 289q-25 24 -45 68t-20 93q0 88 40.5 159t98.5 109h23q-59 -44 -98 -113.5t-39 -153.5q0 -93 61 -162h-21z" />
    <glyph glyph-name="uni207E" unicode="&#x207e;" horiz-adv-x="139" 
d="M2 289q59 44 98 113.5t39 153.5q0 93 -61 162h21q25 -24 45 -68t20 -93q0 -88 -40.5 -159t-98.5 -109h-23z" />
    <glyph glyph-name="uni2080" unicode="&#x2080;" horiz-adv-x="322" 
d="M122 -205q-48 0 -75 34t-27 87q0 78 41.5 142t111.5 64q48 0 75 -34t27 -85q0 -80 -42 -144t-111 -64zM125 -183q55 0 90 56t35 128q0 45 -21.5 72t-58.5 27q-54 0 -89.5 -56.5t-35.5 -125.5q0 -46 21.5 -73.5t58.5 -27.5z" />
    <glyph glyph-name="uni2081" unicode="&#x2081;" horiz-adv-x="192" 
d="M56 -200l51 294l-80 -26l-5 20l92 29h22l-57 -317h-23z" />
    <glyph glyph-name="uni2082" unicode="&#x2082;" horiz-adv-x="270" 
d="M-12 -200l3 14q14 12 45 38t45 38t38 34t35 35t24.5 30.5t18.5 32.5t5 30q0 48 -57 48q-52 0 -91 -37l-11 16q43 43 105 43q36 0 57.5 -18.5t21.5 -49.5q0 -16 -5 -32.5t-19.5 -35.5t-24 -31.5t-35 -35.5t-35 -31.5t-41.5 -34.5t-38 -31h171l-4 -22h-208z" />
    <glyph glyph-name="uni2083" unicode="&#x2083;" horiz-adv-x="243" 
d="M44 -205q-36 0 -54 8l5 20q20 -6 51 -6q48 0 82 22t34 59q0 32 -34 48t-79 15l3 19q44 2 86 24t42 54q0 42 -53 42q-50 0 -86 -28l-12 15q41 35 101 35q34 0 54.5 -17t20.5 -45q0 -34 -32 -57t-69 -31v-1q30 -2 56.5 -21.5t26.5 -50.5q0 -50 -41.5 -77t-101.5 -27z" />
    <glyph glyph-name="uni2084" unicode="&#x2084;" horiz-adv-x="276" 
d="M132 -200l13 76h-164l3 20l203 221h25l-40 -219h45l-4 -22h-44l-14 -76h-23zM13 -102h136l32 180z" />
    <glyph glyph-name="uni2085" unicode="&#x2085;" horiz-adv-x="239" 
d="M23 -205q-20 0 -36 4l5 21q15 -3 34 -3q55 0 91 21.5t36 69.5q0 35 -29.5 52t-68.5 17q-19 0 -28 -1l28 141h149l-4 -22h-126l-19 -97h5q47 0 82.5 -23.5t35.5 -63.5q0 -60 -44 -88t-111 -28z" />
    <glyph glyph-name="uni2086" unicode="&#x2086;" horiz-adv-x="272" 
d="M96 -205q-44 0 -67.5 32.5t-23.5 76.5q0 92 64 155.5t154 63.5l3 -20q-68 0 -121 -40.5t-69 -104.5q30 32 85 32q39 0 65 -22.5t26 -58.5q0 -50 -33.5 -82t-82.5 -32zM98 -183q38 0 63.5 26t25.5 65q0 28 -19.5 44.5t-49.5 16.5q-51 0 -86 -33q-2 -10 -2 -33
q0 -37 18 -61.5t50 -24.5z" />
    <glyph glyph-name="uni2087" unicode="&#x2087;" horiz-adv-x="244" 
d="M38 -212l-20 9l181 298h-166l4 22h193l-3 -19z" />
    <glyph glyph-name="uni2088" unicode="&#x2088;" horiz-adv-x="259" 
d="M89 -205q-37 0 -62.5 20t-25.5 49q0 17 7.5 32t23 28t28.5 21.5t35 20.5q-18 14 -27 22t-19 22.5t-10 28.5q0 37 30.5 60t71.5 23q35 0 58.5 -16.5t23.5 -44.5q0 -30 -23 -51.5t-64 -43.5q65 -43 65 -78q0 -41 -32.5 -67t-79.5 -26zM92 -183q33 0 58.5 19.5t25.5 48.5
q0 13 -10.5 26.5t-20 20.5t-32.5 22q-29 -16 -44 -25.5t-29 -26.5t-14 -36q0 -21 19 -35t47 -14zM118 -22q40 21 60 38.5t20 40.5q0 20 -17 31.5t-42 11.5q-30 0 -52.5 -16t-22.5 -43q0 -9 3.5 -17t14 -17.5t15.5 -13t21 -15.5z" />
    <glyph glyph-name="uni2089" unicode="&#x2089;" horiz-adv-x="272" 
d="M6 -205l-3 20q68 0 121 40.5t69 104.5q-30 -32 -85 -32q-39 0 -65 22.5t-26 58.5q0 50 33.5 82t82.5 32q44 0 67.5 -32.5t23.5 -76.5q0 -92 -64 -155.5t-154 -63.5zM111 -51q51 0 86 33q2 10 2 33q0 37 -18 61.5t-50 24.5q-38 0 -63.5 -26t-25.5 -65q0 -28 19.5 -44.5
t49.5 -16.5z" />
    <glyph glyph-name="uni208A" unicode="&#x208a;" horiz-adv-x="275" 
d="M94 -146l17 97h-100l4 22h100l16 90h22l-16 -90h100l-4 -22h-99l-18 -97h-22z" />
    <glyph glyph-name="uni208B" unicode="&#x208b;" horiz-adv-x="243" 
d="M8 -49l4 22h195l-4 -22h-195z" />
    <glyph glyph-name="uni208D" unicode="&#x208d;" horiz-adv-x="137" 
d="M66 -260q-25 24 -45 68t-20 93q0 88 40.5 159t98.5 109h23q-59 -44 -98 -113.5t-39 -153.5q0 -93 61 -162h-21z" />
    <glyph glyph-name="uni208E" unicode="&#x208e;" horiz-adv-x="139" 
d="M-61 -260q59 44 98 113.5t39 153.5q0 93 -61 162h21q25 -24 45 -68t20 -93q0 -88 -40.5 -159t-98.5 -109h-23z" />
    <glyph glyph-name="Euro" unicode="&#x20ac;" horiz-adv-x="570" 
d="M332 -10q-72 0 -122 39.5t-71.5 97.5t-22.5 128h-84l5 24h79q3 57 16 108h-76l5 24h78q36 114 115.5 189.5t191.5 75.5q77 0 132 -38l-13 -20q-50 34 -121 34q-97 0 -169.5 -69t-107.5 -172h197l-5 -24h-199q-15 -54 -18 -108h198l-5 -24h-193q2 -100 50 -170.5
t142 -70.5q77 0 138 40l11 -20q-66 -44 -151 -44z" />
    <glyph glyph-name="uni20B4" unicode="&#x20b4;" horiz-adv-x="521" 
d="M495 255h-342q-44 -41 -54 -95q-11 -64 27.5 -105t111.5 -41q105 0 185 59l12 -18q-85 -65 -195 -65q-89 0 -134.5 48t-31.5 124q8 53 47 93h-88l4 24h109q25 20 57 38t75 38.5t63 31.5h-285l4 24h321q75 50 87 117q10 58 -24 91t-99 33q-87 0 -159 -46l-11 20
q77 50 170 50q78 0 119 -40t29 -110q-12 -66 -73 -115h102l-4 -24h-133q-29 -18 -99.5 -52t-101.5 -56h315z" />
    <glyph glyph-name="afii61352" unicode="&#x2116;" horiz-adv-x="1027" 
d="M832 346q-59 0 -97.5 42.5t-38.5 96.5q0 77 52 131t131 54q59 0 97.5 -42.5t38.5 -96.5q0 -77 -52 -131t-131 -54zM836 370q64 0 108.5 45.5t44.5 109.5q0 50 -32 85.5t-82 35.5q-64 0 -108.5 -45.5t-44.5 -109.5q0 -50 32 -85.5t82 -35.5zM62 0l121 666h25l294 -624
l113 624h26l-121 -666h-25l-294 622l-113 -622h-26z" />
    <glyph glyph-name="uni2117" unicode="&#x2117;" horiz-adv-x="852" 
d="M426 -10q-154 0 -260 107t-106 262t106.5 263t259.5 108t259.5 -108t106.5 -263t-106 -262t-260 -107zM426 14q143 0 241.5 100t98.5 245t-98.5 246t-241.5 101t-241.5 -101t-98.5 -246t98.5 -245t241.5 -100zM327 120v480h109q63 0 101 -38.5t38 -90.5q0 -54 -38.5 -92
t-102.5 -38h-81v-221h-26zM353 367h81q53 0 84 30t31 73t-31 73.5t-84 30.5h-81v-207z" />
    <glyph glyph-name="trademark" unicode="&#x2122;" horiz-adv-x="666" 
d="M281 379l74 287h32l43 -184q13 -49 13 -81h1q15 36 43 81l109 184h34l-28 -287h-26l20 191q5 42 10 74h-1q-12 -32 -42 -81l-109 -184h-25l-43 184q-12 46 -14 81h-1q-3 -18 -16 -74l-48 -191h-26zM127 379l47 263h-84l4 24h194l-4 -24h-84l-47 -263h-26z" />
    <glyph glyph-name="Omega" unicode="&#x2126;" horiz-adv-x="720" 
d="M39 0l4 24h156q-46 31 -82 102t-36 156q0 104 45 194.5t125 145t176 54.5q107 0 181 -85t74 -197q0 -125 -65 -229t-157 -141h167l-4 -24h-213l4 24q106 36 174 140.5t68 225.5q0 105 -68 183.5t-165 78.5q-131 0 -223.5 -111t-92.5 -255q0 -85 36.5 -157t92.5 -105
l-4 -24h-193z" />
    <glyph glyph-name="uni2150" unicode="&#x2150;" horiz-adv-x="569" 
d="M-15 0l514 666h29l-515 -666h-28zM119 349l51 294l-80 -26l-5 20l92 29h22l-57 -317h-23zM363 -12l-20 9l181 298h-166l4 22h193l-3 -19z" />
    <glyph glyph-name="uni2151" unicode="&#x2151;" horiz-adv-x="547" 
d="M-15 0l514 666h29l-515 -666h-28zM119 349l51 294l-80 -26l-5 20l92 29h22l-57 -317h-23zM281 -5l-3 20q68 0 121 40.5t69 104.5q-30 -32 -85 -32q-39 0 -65 22.5t-26 58.5q0 50 33.5 82t82.5 32q44 0 67.5 -32.5t23.5 -76.5q0 -92 -64 -155.5t-154 -63.5zM386 149
q51 0 86 33q2 10 2 33q0 37 -18 61.5t-50 24.5q-38 0 -63.5 -26t-25.5 -65q0 -28 19.5 -44.5t49.5 -16.5z" />
    <glyph glyph-name="uni2152" unicode="&#x2152;" horiz-adv-x="849" 
d="M-15 0l514 666h29l-515 -666h-28zM119 349l51 294l-80 -26l-5 20l92 29h22l-57 -317h-23zM391 0l51 294l-80 -26l-5 20l92 29h22l-57 -317h-23zM649 -5q-48 0 -75 34t-27 87q0 78 41.5 142t111.5 64q48 0 75 -34t27 -85q0 -80 -42 -144t-111 -64zM652 17q55 0 90 56
t35 128q0 45 -21.5 72t-58.5 27q-54 0 -89.5 -56.5t-35.5 -125.5q0 -46 21.5 -73.5t58.5 -27.5z" />
    <glyph glyph-name="onethird" unicode="&#x2153;" horiz-adv-x="518" 
d="M-15 0l514 666h29l-515 -666h-28zM119 349l51 294l-80 -26l-5 20l92 29h22l-57 -317h-23zM319 -5q-36 0 -54 8l5 20q20 -6 51 -6q48 0 82 22t34 59q0 32 -34 48t-79 15l3 19q44 2 86 24t42 54q0 42 -53 42q-50 0 -86 -28l-12 15q41 35 101 35q34 0 54.5 -17t20.5 -45
q0 -34 -32 -57t-69 -31v-1q30 -2 56.5 -21.5t26.5 -50.5q0 -50 -41.5 -77t-101.5 -27z" />
    <glyph glyph-name="twothirds" unicode="&#x2154;" horiz-adv-x="596" 
d="M63 0l514 666h29l-515 -666h-28zM51 349l3 14q14 12 45 38t45 38t38 34t35 35t24.5 30.5t18.5 32.5t5 30q0 48 -57 48q-52 0 -91 -37l-11 16q43 43 105 43q36 0 57.5 -18.5t21.5 -49.5q0 -16 -5 -32.5t-19.5 -35.5t-24 -31.5t-35 -35.5t-35 -31.5t-41.5 -34.5t-38 -31
h171l-4 -22h-208zM397 -5q-36 0 -54 8l5 20q20 -6 51 -6q48 0 82 22t34 59q0 32 -34 48t-79 15l3 19q44 2 86 24t42 54q0 42 -53 42q-50 0 -86 -28l-12 15q41 35 101 35q34 0 54.5 -17t20.5 -45q0 -34 -32 -57t-69 -31v-1q30 -2 56.5 -21.5t26.5 -50.5q0 -50 -41.5 -77
t-101.5 -27z" />
    <glyph glyph-name="uni2155" unicode="&#x2155;" horiz-adv-x="514" 
d="M-15 0l514 666h29l-515 -666h-28zM119 349l51 294l-80 -26l-5 20l92 29h22l-57 -317h-23zM298 -5q-20 0 -36 4l5 21q15 -3 34 -3q55 0 91 21.5t36 69.5q0 35 -29.5 52t-68.5 17q-19 0 -28 -1l28 141h149l-4 -22h-126l-19 -97h5q47 0 82.5 -23.5t35.5 -63.5q0 -60 -44 -88
t-111 -28z" />
    <glyph glyph-name="uni2156" unicode="&#x2156;" horiz-adv-x="592" 
d="M63 0l514 666h29l-515 -666h-28zM51 349l3 14q14 12 45 38t45 38t38 34t35 35t24.5 30.5t18.5 32.5t5 30q0 48 -57 48q-52 0 -91 -37l-11 16q43 43 105 43q36 0 57.5 -18.5t21.5 -49.5q0 -16 -5 -32.5t-19.5 -35.5t-24 -31.5t-35 -35.5t-35 -31.5t-41.5 -34.5t-38 -31
h171l-4 -22h-208zM376 -5q-20 0 -36 4l5 21q15 -3 34 -3q55 0 91 21.5t36 69.5q0 35 -29.5 52t-68.5 17q-19 0 -28 -1l28 141h149l-4 -22h-126l-19 -97h5q47 0 82.5 -23.5t35.5 -63.5q0 -60 -44 -88t-111 -28z" />
    <glyph glyph-name="uni2157" unicode="&#x2157;" horiz-adv-x="565" 
d="M36 0l514 666h29l-515 -666h-28zM107 344q-36 0 -54 8l5 20q20 -6 51 -6q48 0 82 22t34 59q0 32 -34 48t-79 15l3 19q44 2 86 24t42 54q0 42 -53 42q-50 0 -86 -28l-12 15q41 35 101 35q34 0 54.5 -17t20.5 -45q0 -34 -32 -57t-69 -31v-1q30 -2 56.5 -21.5t26.5 -50.5
q0 -50 -41.5 -77t-101.5 -27zM349 -5q-20 0 -36 4l5 21q15 -3 34 -3q55 0 91 21.5t36 69.5q0 35 -29.5 52t-68.5 17q-19 0 -28 -1l28 141h149l-4 -22h-126l-19 -97h5q47 0 82.5 -23.5t35.5 -63.5q0 -60 -44 -88t-111 -28z" />
    <glyph glyph-name="uni2158" unicode="&#x2158;" horiz-adv-x="598" 
d="M69 0l514 666h29l-515 -666h-28zM195 349l13 76h-164l3 20l203 221h25l-40 -219h45l-4 -22h-44l-14 -76h-23zM76 447h136l32 180zM382 -5q-20 0 -36 4l5 21q15 -3 34 -3q55 0 91 21.5t36 69.5q0 35 -29.5 52t-68.5 17q-19 0 -28 -1l28 141h149l-4 -22h-126l-19 -97h5
q47 0 82.5 -23.5t35.5 -63.5q0 -60 -44 -88t-111 -28z" />
    <glyph glyph-name="uni2159" unicode="&#x2159;" horiz-adv-x="547" 
d="M-15 0l514 666h29l-515 -666h-28zM119 349l51 294l-80 -26l-5 20l92 29h22l-57 -317h-23zM371 -5q-44 0 -67.5 32.5t-23.5 76.5q0 92 64 155.5t154 63.5l3 -20q-68 0 -121 -40.5t-69 -104.5q30 32 85 32q39 0 65 -22.5t26 -58.5q0 -50 -33.5 -82t-82.5 -32zM373 17
q38 0 63.5 26t25.5 65q0 28 -19.5 44.5t-49.5 16.5q-51 0 -86 -33q-2 -10 -2 -33q0 -37 18 -61.5t50 -24.5z" />
    <glyph glyph-name="uni215A" unicode="&#x215a;" horiz-adv-x="594" 
d="M32 0l514 666h29l-515 -666h-28zM86 344q-20 0 -36 4l5 21q15 -3 34 -3q55 0 91 21.5t36 69.5q0 35 -29.5 52t-68.5 17q-19 0 -28 -1l28 141h149l-4 -22h-126l-19 -97h5q47 0 82.5 -23.5t35.5 -63.5q0 -60 -44 -88t-111 -28zM418 -5q-44 0 -67.5 32.5t-23.5 76.5
q0 92 64 155.5t154 63.5l3 -20q-68 0 -121 -40.5t-69 -104.5q30 32 85 32q39 0 65 -22.5t26 -58.5q0 -50 -33.5 -82t-82.5 -32zM420 17q38 0 63.5 26t25.5 65q0 28 -19.5 44.5t-49.5 16.5q-51 0 -86 -33q-2 -10 -2 -33q0 -37 18 -61.5t50 -24.5z" />
    <glyph glyph-name="oneeighth" unicode="&#x215b;" horiz-adv-x="534" 
d="M-15 0l514 666h29l-515 -666h-28zM119 349l51 294l-80 -26l-5 20l92 29h22l-57 -317h-23zM364 -5q-37 0 -62.5 20t-25.5 49q0 17 7.5 32t23 28t28.5 21.5t35 20.5q-18 14 -27 22t-19 22.5t-10 28.5q0 37 30.5 60t71.5 23q35 0 58.5 -16.5t23.5 -44.5q0 -30 -23 -51.5
t-64 -43.5q65 -43 65 -78q0 -41 -32.5 -67t-79.5 -26zM367 17q33 0 58.5 19.5t25.5 48.5q0 13 -10.5 26.5t-20 20.5t-32.5 22q-29 -16 -44 -25.5t-29 -26.5t-14 -36q0 -21 19 -35t47 -14zM393 178q40 21 60 38.5t20 40.5q0 20 -17 31.5t-42 11.5q-30 0 -52.5 -16t-22.5 -43
q0 -9 3.5 -17t14 -17.5t15.5 -13t21 -15.5z" />
    <glyph glyph-name="threeeighths" unicode="&#x215c;" horiz-adv-x="585" 
d="M36 0l514 666h29l-515 -666h-28zM107 344q-36 0 -54 8l5 20q20 -6 51 -6q48 0 82 22t34 59q0 32 -34 48t-79 15l3 19q44 2 86 24t42 54q0 42 -53 42q-50 0 -86 -28l-12 15q41 35 101 35q34 0 54.5 -17t20.5 -45q0 -34 -32 -57t-69 -31v-1q30 -2 56.5 -21.5t26.5 -50.5
q0 -50 -41.5 -77t-101.5 -27zM415 -5q-37 0 -62.5 20t-25.5 49q0 17 7.5 32t23 28t28.5 21.5t35 20.5q-18 14 -27 22t-19 22.5t-10 28.5q0 37 30.5 60t71.5 23q35 0 58.5 -16.5t23.5 -44.5q0 -30 -23 -51.5t-64 -43.5q65 -43 65 -78q0 -41 -32.5 -67t-79.5 -26zM418 17
q33 0 58.5 19.5t25.5 48.5q0 13 -10.5 26.5t-20 20.5t-32.5 22q-29 -16 -44 -25.5t-29 -26.5t-14 -36q0 -21 19 -35t47 -14zM444 178q40 21 60 38.5t20 40.5q0 20 -17 31.5t-42 11.5q-30 0 -52.5 -16t-22.5 -43q0 -9 3.5 -17t14 -17.5t15.5 -13t21 -15.5z" />
    <glyph glyph-name="fiveeighths" unicode="&#x215d;" horiz-adv-x="581" 
d="M32 0l514 666h29l-515 -666h-28zM86 344q-20 0 -36 4l5 21q15 -3 34 -3q55 0 91 21.5t36 69.5q0 35 -29.5 52t-68.5 17q-19 0 -28 -1l28 141h149l-4 -22h-126l-19 -97h5q47 0 82.5 -23.5t35.5 -63.5q0 -60 -44 -88t-111 -28zM411 -5q-37 0 -62.5 20t-25.5 49q0 17 7.5 32
t23 28t28.5 21.5t35 20.5q-18 14 -27 22t-19 22.5t-10 28.5q0 37 30.5 60t71.5 23q35 0 58.5 -16.5t23.5 -44.5q0 -30 -23 -51.5t-64 -43.5q65 -43 65 -78q0 -41 -32.5 -67t-79.5 -26zM414 17q33 0 58.5 19.5t25.5 48.5q0 13 -10.5 26.5t-20 20.5t-32.5 22
q-29 -16 -44 -25.5t-29 -26.5t-14 -36q0 -21 19 -35t47 -14zM440 178q40 21 60 38.5t20 40.5q0 20 -17 31.5t-42 11.5q-30 0 -52.5 -16t-22.5 -43q0 -9 3.5 -17t14 -17.5t15.5 -13t21 -15.5z" />
    <glyph glyph-name="seveneighths" unicode="&#x215e;" horiz-adv-x="556" 
d="M7 0l514 666h29l-515 -666h-28zM101 337l-20 9l181 298h-166l4 22h193l-3 -19zM386 -5q-37 0 -62.5 20t-25.5 49q0 17 7.5 32t23 28t28.5 21.5t35 20.5q-18 14 -27 22t-19 22.5t-10 28.5q0 37 30.5 60t71.5 23q35 0 58.5 -16.5t23.5 -44.5q0 -30 -23 -51.5t-64 -43.5
q65 -43 65 -78q0 -41 -32.5 -67t-79.5 -26zM389 17q33 0 58.5 19.5t25.5 48.5q0 13 -10.5 26.5t-20 20.5t-32.5 22q-29 -16 -44 -25.5t-29 -26.5t-14 -36q0 -21 19 -35t47 -14zM415 178q40 21 60 38.5t20 40.5q0 20 -17 31.5t-42 11.5q-30 0 -52.5 -16t-22.5 -43
q0 -9 3.5 -17t14 -17.5t15.5 -13t21 -15.5z" />
    <glyph glyph-name="uni215F" unicode="&#x215f;" horiz-adv-x="275" 
d="M-15 0l514 666h29l-515 -666h-28zM119 349l51 294l-80 -26l-5 20l92 29h22l-57 -317h-23z" />
    <glyph glyph-name="uni2189" unicode="&#x2189;" horiz-adv-x="648" 
d="M115 0l514 666h29l-515 -666h-28zM185 344q-48 0 -75 34t-27 87q0 78 41.5 142t111.5 64q48 0 75 -34t27 -85q0 -80 -42 -144t-111 -64zM188 366q55 0 90 56t35 128q0 45 -21.5 72t-58.5 27q-54 0 -89.5 -56.5t-35.5 -125.5q0 -46 21.5 -73.5t58.5 -27.5zM449 -5
q-36 0 -54 8l5 20q20 -6 51 -6q48 0 82 22t34 59q0 32 -34 48t-79 15l3 19q44 2 86 24t42 54q0 42 -53 42q-50 0 -86 -28l-12 15q41 35 101 35q34 0 54.5 -17t20.5 -45q0 -34 -32 -57t-69 -31v-1q30 -2 56.5 -21.5t26.5 -50.5q0 -50 -41.5 -77t-101.5 -27z" />
    <glyph glyph-name="partialdiff" unicode="&#x2202;" horiz-adv-x="506" 
d="M158 -10q-62 0 -100 46.5t-38 112.5q0 104 69 171.5t167 67.5q109 0 182 -61q10 52 10 92q0 109 -57.5 171t-178.5 62l10 24q126 0 189 -69t63 -183q0 -74 -22.5 -150.5t-62.5 -139.5t-101 -103.5t-130 -40.5zM162 14q98 0 172 86.5t100 203.5q-71 60 -182 60
q-86 0 -146 -59.5t-60 -152.5q0 -58 32 -98t84 -40z" />
    <glyph glyph-name="Delta" unicode="&#x2206;" horiz-adv-x="594" 
d="M0 0l5 24l357 642h31l126 -642l-5 -24h-514zM33 24h460l-120 611z" />
    <glyph glyph-name="product" unicode="&#x220f;" horiz-adv-x="802" 
d="M102 -224l163 901h-111l4 24h652l-4 -24h-111l-163 -901h-26l163 901h-378l-163 -901h-26z" />
    <glyph glyph-name="summation" unicode="&#x2211;" horiz-adv-x="593" 
d="M-3 -147l4 24l366 464l-194 409l4 24h444l-4 -24h-417l195 -413l-363 -460h442l-4 -24h-473z" />
    <glyph glyph-name="minus" unicode="&#x2212;" horiz-adv-x="465" 
d="M53 254l5 24h369l-5 -24h-369z" />
    <glyph glyph-name="uni2219" unicode="&#x2219;" horiz-adv-x="594" 
d="M297 201q-28 0 -47 19t-19 47q0 29 19 48t47 19t47 -19.5t19 -47.5t-19 -47t-47 -19z" />
    <glyph glyph-name="radical" unicode="&#x221a;" horiz-adv-x="506" 
d="M153 0l-93 474h26l84 -438l351 684h28l-371 -720h-25z" />
    <glyph glyph-name="infinity" unicode="&#x221e;" horiz-adv-x="863" 
d="M173 124q-52 0 -90 36t-38 85q0 66 53.5 109.5t124.5 43.5q50 0 94 -25.5t119 -95.5q105 72 156.5 96.5t105.5 24.5q52 0 90 -36t38 -85q0 -66 -53.5 -109.5t-124.5 -43.5q-50 0 -94 25.5t-120 95.5q-103 -72 -155 -96.5t-106 -24.5zM177 148q47 0 95.5 24t143.5 90
q-69 64 -111 88t-88 24q-56 0 -101 -36.5t-45 -88.5q0 -40 31.5 -70.5t74.5 -30.5zM654 148q56 0 101 36.5t45 88.5q0 40 -31.5 70.5t-74.5 30.5q-47 0 -95 -24t-144 -91q69 -64 111 -87.5t88 -23.5z" />
    <glyph glyph-name="integral" unicode="&#x222b;" horiz-adv-x="296" 
d="M-70 -235q-34 0 -56 10l7 23q20 -9 53 -9q127 0 154 145l100 554q17 96 67 150t123 54q32 0 54 -12l-11 -22q-18 10 -47 10q-60 0 -103 -50.5t-58 -131.5l-100 -556q-15 -81 -62.5 -123t-120.5 -42z" />
    <glyph glyph-name="approxequal" unicode="&#x2248;" horiz-adv-x="495" 
d="M34 186l-10 18q56 52 116 52q31 0 58.5 -12.5t45 -27t43 -27t54.5 -12.5q47 0 102 46l10 -18q-56 -52 -116 -52q-31 0 -58.5 12.5t-45 27t-43 27t-54.5 12.5q-47 0 -102 -46zM58 310l-10 18q56 52 116 52q31 0 58.5 -12.5t45 -27t43 -27t54.5 -12.5q47 0 102 46l10 -18
q-56 -52 -116 -52q-31 0 -58.5 12.5t-45 27t-43 27t-54.5 12.5q-47 0 -102 -46z" />
    <glyph glyph-name="notequal" unicode="&#x2260;" horiz-adv-x="572" 
d="M104 17l-17 11l123 155h-189l5 24h203l96 121h-277l4 24h292l121 152l18 -13l-111 -139h180l-4 -24h-195l-97 -121h270l-5 -24h-284z" />
    <glyph glyph-name="lessequal" unicode="&#x2264;" horiz-adv-x="555" 
d="M442 22l-379 206l4 24l454 206l-5 -28l-425 -192l356 -191zM7 -79l5 24h417l-5 -24h-417z" />
    <glyph glyph-name="greaterequal" unicode="&#x2265;" horiz-adv-x="555" 
d="M34 22l5 28l425 192l-356 191l5 25l379 -206l-4 -24zM15 -79l5 24h417l-5 -24h-417z" />
    <glyph glyph-name="dotmath" unicode="&#x22c5;" horiz-adv-x="594" 
d="M297 239q-10 0 -17.5 8.5t-7.5 19.5t7.5 19.5t17.5 8.5t17.5 -8.5t7.5 -19.5t-7.5 -19.5t-17.5 -8.5z" />
    <glyph glyph-name="lozenge" unicode="&#x25ca;" horiz-adv-x="613" 
d="M249 0l-183 334l302 332h32l183 -334l-302 -332h-32zM266 17l289 318l-172 313l-289 -318z" />
    <glyph glyph-name="uniFB00" unicode="&#xfb00;" horiz-adv-x="580" 
d="M-54 -228q-51 0 -78 20l11 21q26 -17 71 -17q47 0 74 33.5t41 112.5l89 508h-98l5 24h97l10 56q34 200 205 200q83 0 143 -48q43 48 115 48q59 0 107 -31l-13 -21q-43 28 -98 28q-56 0 -89.5 -36.5t-48.5 -116.5l-14 -79h130l-5 -24h-129l-90 -512q-15 -86 -50 -126
t-95 -40q-51 0 -78 20l11 21q26 -17 71 -17q47 0 74 33.5t41 112.5l89 508h-263l-90 -512q-15 -86 -50 -126t-95 -40zM185 474h263l15 83q12 66 38 106q-56 43 -132 43q-143 0 -175 -180z" />
    <glyph glyph-name="fi" unicode="&#xfb01;" horiz-adv-x="508" 
d="M-54 -228q-51 0 -78 20l11 21q26 -17 71 -17q47 0 74 33.5t41 112.5l89 508h-98l5 24h97l17 92q30 164 176 164q79 0 130 -42l-13 -21q-48 39 -121 39q-120 0 -146 -144l-16 -88h271l-86 -474h-26l81 450h-244l-90 -512q-15 -86 -50 -126t-95 -40z" />
    <glyph glyph-name="fl" unicode="&#xfb02;" horiz-adv-x="506" 
d="M-54 -228q-51 0 -78 20l11 21q26 -17 71 -17q47 0 74 33.5t41 112.5l89 508h-98l5 24h97l15 82q15 86 64 130t128 44q67 0 130 -18l-127 -712h-26l125 695q-50 11 -106 11q-135 0 -162 -154l-14 -78h130l-5 -24h-129l-90 -512q-15 -86 -50 -126t-95 -40z" />
    <glyph glyph-name="uniFB03" unicode="&#xfb03;" horiz-adv-x="798" 
d="M-54 -228q-51 0 -78 20l11 21q26 -17 71 -17q47 0 74 33.5t41 112.5l89 508h-98l5 24h97l10 56q34 200 205 200q84 0 144 -48q45 48 124 48t130 -42l-13 -21q-48 39 -121 39q-120 0 -146 -144l-16 -88h271l-86 -474h-26l81 450h-244l-90 -512q-15 -86 -50 -126t-95 -40
q-51 0 -78 20l11 21q26 -17 71 -17q47 0 74 33.5t41 112.5l89 508h-263l-90 -512q-15 -86 -50 -126t-95 -40zM185 474h263l17 92q11 61 37 97q-58 43 -133 43q-143 0 -175 -180z" />
    <glyph glyph-name="uniFB04" unicode="&#xfb04;" horiz-adv-x="796" 
d="M-54 -228q-51 0 -78 20l11 21q26 -17 71 -17q47 0 74 33.5t41 112.5l89 508h-98l5 24h97l10 56q34 200 205 200q86 0 147 -51q50 51 135 51q67 0 130 -18l-127 -712h-26l125 695q-50 11 -106 11q-135 0 -162 -154l-14 -78h130l-5 -24h-129l-90 -512q-15 -86 -50 -126
t-95 -40q-51 0 -78 20l11 21q26 -17 71 -17q47 0 74 33.5t41 112.5l89 508h-263l-90 -512q-15 -86 -50 -126t-95 -40zM185 474h263l15 82q10 64 41 105q-58 45 -135 45q-143 0 -175 -180z" />
    <glyph glyph-name="i.latn_TRK" 
d="M172 582q-9 0 -15.5 7t-6.5 17q0 13 8.5 22.5t20.5 9.5q9 0 15.5 -7t6.5 -17q0 -13 -8.5 -22.5t-20.5 -9.5zM52 0l86 474h26l-86 -474h-26z" />
    <glyph glyph-name="Ldot.latn_CAT" horiz-adv-x="436" 
d="M62 0l121 666h26l-116 -642h270l-5 -24h-296zM361 332q-9 0 -16 7.5t-7 17.5t7 17.5t16 7.5t16 -7.5t7 -17.5t-7 -17.5t-16 -7.5z" />
    <glyph glyph-name="ldot.latn_CAT" 
d="M52 0l129 720h26l-129 -720h-26zM232 315q-9 0 -16 7.5t-7 17.5t7 17.5t16 7.5t16 -7.5t7 -17.5t-7 -17.5t-16 -7.5z" />
    <glyph glyph-name="parenleft.numr" horiz-adv-x="137" 
d="M129 289q-25 24 -45 68t-20 93q0 88 40.5 159t98.5 109h23q-59 -44 -98 -113.5t-39 -153.5q0 -93 61 -162h-21z" />
    <glyph glyph-name="parenright.numr" horiz-adv-x="139" 
d="M2 289q59 44 98 113.5t39 153.5q0 93 -61 162h21q25 -24 45 -68t20 -93q0 -88 -40.5 -159t-98.5 -109h-23z" />
    <glyph glyph-name="plus.numr" horiz-adv-x="275" 
d="M157 403l17 97h-100l4 22h100l16 90h22l-16 -90h100l-4 -22h-99l-18 -97h-22z" />
    <glyph glyph-name="zero.numr" horiz-adv-x="322" 
d="M185 344q-48 0 -75 34t-27 87q0 78 41.5 142t111.5 64q48 0 75 -34t27 -85q0 -80 -42 -144t-111 -64zM188 366q55 0 90 56t35 128q0 45 -21.5 72t-58.5 27q-54 0 -89.5 -56.5t-35.5 -125.5q0 -46 21.5 -73.5t58.5 -27.5z" />
    <glyph glyph-name="one.numr" horiz-adv-x="192" 
d="M119 349l51 294l-80 -26l-5 20l92 29h22l-57 -317h-23z" />
    <glyph glyph-name="two.numr" horiz-adv-x="270" 
d="M51 349l3 14q14 12 45 38t45 38t38 34t35 35t24.5 30.5t18.5 32.5t5 30q0 48 -57 48q-52 0 -91 -37l-11 16q43 43 105 43q36 0 57.5 -18.5t21.5 -49.5q0 -16 -5 -32.5t-19.5 -35.5t-24 -31.5t-35 -35.5t-35 -31.5t-41.5 -34.5t-38 -31h171l-4 -22h-208z" />
    <glyph glyph-name="three.numr" horiz-adv-x="243" 
d="M107 344q-36 0 -54 8l5 20q20 -6 51 -6q48 0 82 22t34 59q0 32 -34 48t-79 15l3 19q44 2 86 24t42 54q0 42 -53 42q-50 0 -86 -28l-12 15q41 35 101 35q34 0 54.5 -17t20.5 -45q0 -34 -32 -57t-69 -31v-1q30 -2 56.5 -21.5t26.5 -50.5q0 -50 -41.5 -77t-101.5 -27z" />
    <glyph glyph-name="four.numr" horiz-adv-x="276" 
d="M195 349l13 76h-164l3 20l203 221h25l-40 -219h45l-4 -22h-44l-14 -76h-23zM76 447h136l32 180z" />
    <glyph glyph-name="five.numr" horiz-adv-x="239" 
d="M86 344q-20 0 -36 4l5 21q15 -3 34 -3q55 0 91 21.5t36 69.5q0 35 -29.5 52t-68.5 17q-19 0 -28 -1l28 141h149l-4 -22h-126l-19 -97h5q47 0 82.5 -23.5t35.5 -63.5q0 -60 -44 -88t-111 -28z" />
    <glyph glyph-name="six.numr" horiz-adv-x="272" 
d="M159 344q-44 0 -67.5 32.5t-23.5 76.5q0 92 64 155.5t154 63.5l3 -20q-68 0 -121 -40.5t-69 -104.5q30 32 85 32q39 0 65 -22.5t26 -58.5q0 -50 -33.5 -82t-82.5 -32zM161 366q38 0 63.5 26t25.5 65q0 28 -19.5 44.5t-49.5 16.5q-51 0 -86 -33q-2 -10 -2 -33
q0 -37 18 -61.5t50 -24.5z" />
    <glyph glyph-name="seven.numr" horiz-adv-x="244" 
d="M101 337l-20 9l181 298h-166l4 22h193l-3 -19z" />
    <glyph glyph-name="eight.numr" horiz-adv-x="259" 
d="M152 344q-37 0 -62.5 20t-25.5 49q0 17 7.5 32t23 28t28.5 21.5t35 20.5q-18 14 -27 22t-19 22.5t-10 28.5q0 37 30.5 60t71.5 23q35 0 58.5 -16.5t23.5 -44.5q0 -30 -23 -51.5t-64 -43.5q65 -43 65 -78q0 -41 -32.5 -67t-79.5 -26zM155 366q33 0 58.5 19.5t25.5 48.5
q0 13 -10.5 26.5t-20 20.5t-32.5 22q-29 -16 -44 -25.5t-29 -26.5t-14 -36q0 -21 19 -35t47 -14zM181 527q40 21 60 38.5t20 40.5q0 20 -17 31.5t-42 11.5q-30 0 -52.5 -16t-22.5 -43q0 -9 3.5 -17t14 -17.5t15.5 -13t21 -15.5z" />
    <glyph glyph-name="nine.numr" horiz-adv-x="272" 
d="M69 344l-3 20q68 0 121 40.5t69 104.5q-30 -32 -85 -32q-39 0 -65 22.5t-26 58.5q0 50 33.5 82t82.5 32q44 0 67.5 -32.5t23.5 -76.5q0 -92 -64 -155.5t-154 -63.5zM174 498q51 0 86 33q2 10 2 33q0 37 -18 61.5t-50 24.5q-38 0 -63.5 -26t-25.5 -65q0 -28 19.5 -44.5
t49.5 -16.5z" />
    <glyph glyph-name="minus.numr" horiz-adv-x="243" 
d="M71 500l4 22h195l-4 -22h-195z" />
    <glyph glyph-name="parenleft.dnom" horiz-adv-x="137" 
d="M66 -60q-25 24 -45 68t-20 93q0 88 40.5 159t98.5 109h23q-59 -44 -98 -113.5t-39 -153.5q0 -93 61 -162h-21z" />
    <glyph glyph-name="parenright.dnom" horiz-adv-x="139" 
d="M-61 -60q59 44 98 113.5t39 153.5q0 93 -61 162h21q25 -24 45 -68t20 -93q0 -88 -40.5 -159t-98.5 -109h-23z" />
    <glyph glyph-name="plus.dnom" horiz-adv-x="275" 
d="M94 54l17 97h-100l4 22h100l16 90h22l-16 -90h100l-4 -22h-99l-18 -97h-22z" />
    <glyph glyph-name="zero.dnom" horiz-adv-x="322" 
d="M122 -5q-48 0 -75 34t-27 87q0 78 41.5 142t111.5 64q48 0 75 -34t27 -85q0 -80 -42 -144t-111 -64zM125 17q55 0 90 56t35 128q0 45 -21.5 72t-58.5 27q-54 0 -89.5 -56.5t-35.5 -125.5q0 -46 21.5 -73.5t58.5 -27.5z" />
    <glyph glyph-name="one.dnom" horiz-adv-x="192" 
d="M56 0l51 294l-80 -26l-5 20l92 29h22l-57 -317h-23z" />
    <glyph glyph-name="two.dnom" horiz-adv-x="270" 
d="M-12 0l3 14q14 12 45 38t45 38t38 34t35 35t24.5 30.5t18.5 32.5t5 30q0 48 -57 48q-52 0 -91 -37l-11 16q43 43 105 43q36 0 57.5 -18.5t21.5 -49.5q0 -16 -5 -32.5t-19.5 -35.5t-24 -31.5t-35 -35.5t-35 -31.5t-41.5 -34.5t-38 -31h171l-4 -22h-208z" />
    </font>
</defs>
</svg>
