<?xml version="1.0" standalone="no"?>
<!DOCTYPE svg PUBLIC "-//W3C//DTD SVG 1.1//EN" "http://www.w3.org/Graphics/SVG/1.1/DTD/svg11.dtd" >
<svg xmlns="http://www.w3.org/2000/svg" xmlns:xlink="http://www.w3.org/1999/xlink" version="1.1">
<metadata>
Created by FontForge 20170731 at Tue Mar 15 14:10:42 2011
 By Aleksey,,,
2005 Mike Abbink, Paul van der Laan published by FSI FontShop International GmbH
</metadata>
<defs>
<font id="KievitPro-MediumItalic" horiz-adv-x="1" >
  <font-face 
    font-family="KievitPro-MediumItalic"
    font-weight="500"
    font-style="italic"
    font-stretch="normal"
    units-per-em="1000"
    panose-1="2 11 6 4 3 1 1 2 1 2"
    ascent="760"
    descent="-240"
    x-height="484"
    cap-height="666"
    bbox="-461 -261 1247 933"
    underline-thickness="60"
    underline-position="-255"
    slope="-10"
    unicode-range="U+000D-FB04"
  />
<missing-glyph horiz-adv-x="522" 
d="M23 0v666h476v-666h-476zM107 84h308v498h-308v-498z" />
    <glyph glyph-name="f_b" unicode="fb" horiz-adv-x="831" 
d="M-44 -230q-44 0 -84 17l30 82q27 -12 60 -12q69 0 89 107l81 440h-89l14 80h89l12 65q18 95 72.5 138.5t152.5 43.5q107 0 187 -34l-40 -215q-12 -66 -29 -125h2q38 66 79 103t99 37t90 -44.5t32 -116.5q0 -150 -81.5 -249t-214.5 -99q-95 0 -165 22l112 622
q-39 11 -81 11q-51 0 -77 -22.5t-36 -77.5l-10 -59h106l-14 -80h-107l-80 -436q-19 -103 -62.5 -150.5t-136.5 -47.5zM518 70q77 0 126 71.5t49 179.5q0 84 -49 84q-55 0 -104.5 -84t-74.5 -208l-7 -36q32 -7 60 -7z" />
    <glyph glyph-name="f_f" unicode="ff" horiz-adv-x="632" 
d="M-43 -233q-44 0 -84 17l30 82q30 -13 59 -13q70 0 90 108l81 443h-90l14 80h91l8 47q18 100 69 146.5t143 46.5q86 0 143 -41q49 48 135 48q74 0 122 -31l-43 -80q-37 23 -80 23q-42 0 -63 -25t-30 -72l-11 -62h114l-14 -80h-115l-79 -436q-18 -100 -61.5 -147
t-133.5 -47q-41 0 -81 16l30 82q32 -12 56 -12q66 0 85 104l81 440h-187l-80 -439q-18 -103 -62 -150.5t-137 -47.5zM251 484h186l12 65q6 34 16 57q-39 30 -98 30q-49 0 -73 -24.5t-35 -83.5z" />
    <glyph glyph-name="f_f_b" unicode="ffb" horiz-adv-x="1123" 
d="M-43 -233q-44 0 -84 17l30 82q30 -13 59 -13q70 0 90 108l81 443h-90l14 80h91l8 47q18 100 69 146.5t143 46.5q85 0 146 -43q54 50 160 50q107 0 187 -34l-39 -215q-12 -66 -29 -125h2q37 65 78 102.5t99 37.5q59 0 91 -44.5t32 -116.5q0 -150 -81.5 -249t-214.5 -99
q-95 0 -165 22l111 622q-37 11 -81 11q-51 0 -76.5 -22.5t-35.5 -77.5l-11 -59h106l-14 -80h-107l-79 -436q-18 -100 -61.5 -147t-133.5 -47q-41 0 -81 16l30 82q32 -12 56 -12q66 0 85 104l81 440h-187l-80 -439q-18 -103 -62 -150.5t-137 -47.5zM809 70q78 0 127 71.5
t49 179.5q0 84 -50 84q-55 0 -104 -84t-74 -208l-7 -36q32 -7 59 -7zM251 484h186l12 65q5 27 16 56q-38 31 -98 31q-49 0 -73 -24.5t-35 -83.5z" />
    <glyph glyph-name="f_f_h" unicode="ffh" horiz-adv-x="1129" 
d="M-43 -233q-44 0 -84 17l30 82q30 -13 59 -13q70 0 90 108l81 443h-90l14 80h91l8 47q18 100 69 146.5t143 46.5q85 0 146 -43q54 50 160 50q107 0 187 -34l-39 -212q-12 -65 -27 -127h2q16 27 29.5 45.5t37 43t53.5 37.5t65 13q51 0 78 -31t27 -88q0 -27 -6 -57l-58 -321
h-104l56 314q4 19 4 37q0 53 -42 53q-55 0 -108 -86.5t-86 -270.5l-9 -47h-104l115 632q-37 11 -81 11q-51 0 -76.5 -22.5t-35.5 -77.5l-11 -59h106l-14 -80h-107l-79 -436q-18 -100 -61.5 -147t-133.5 -47q-41 0 -81 16l30 82q32 -12 56 -12q66 0 85 104l81 440h-187
l-80 -439q-18 -103 -62 -150.5t-137 -47.5zM251 484h186l12 65q5 27 16 56q-38 31 -98 31q-49 0 -73 -24.5t-35 -83.5z" />
    <glyph glyph-name="f_f_i" unicode="ffi" horiz-adv-x="845" 
d="M-43 -233q-44 0 -84 17l30 82q30 -13 59 -13q70 0 90 108l81 443h-90l14 80h91l8 47q18 100 69 146.5t143 46.5q88 0 148 -44q55 51 155 51q89 0 148 -37l-45 -80q-47 29 -103 29q-53 0 -81.5 -24t-38.5 -82l-10 -53h275l-87 -484h-104l73 404h-172l-79 -436
q-19 -103 -62.5 -150.5t-136.5 -47.5q-43 0 -81 17l30 82q26 -12 57 -12q70 0 88 107l81 440h-187l-80 -439q-18 -103 -62 -150.5t-137 -47.5zM251 484h187l10 57q5 28 18 64q-40 31 -99 31q-49 0 -73 -24.5t-35 -83.5z" />
    <glyph glyph-name="f_f_j" unicode="ffj" horiz-adv-x="842" 
d="M-43 -233q-44 0 -84 17l30 82q30 -13 59 -13q70 0 90 108l81 443h-90l14 80h91l8 47q18 100 69 146.5t143 46.5q88 0 148 -44q55 51 155 51q89 0 148 -37l-45 -80q-47 29 -103 29q-53 0 -81.5 -24t-38.5 -82l-10 -53h275l-92 -516q-17 -95 -61 -146.5t-134 -51.5
q-44 0 -77 14l34 84q16 -9 42 -9q41 0 61 28t31 89l78 428h-172l-79 -436q-19 -103 -62.5 -150.5t-136.5 -47.5q-43 0 -81 17l30 82q26 -12 57 -12q70 0 88 107l81 440h-187l-80 -439q-18 -103 -62 -150.5t-137 -47.5zM251 484h187l10 57q5 28 18 64q-40 31 -99 31
q-49 0 -73 -24.5t-35 -83.5z" />
    <glyph glyph-name="f_f_k" unicode="ffk" horiz-adv-x="1080" 
d="M918 0l-135 262l-47 -262h-103l112 632q-37 11 -81 11q-51 0 -76.5 -22.5t-35.5 -77.5l-11 -59h106l-14 -80h-107l-79 -436q-18 -100 -61.5 -147t-133.5 -47q-41 0 -81 16l30 82q32 -12 56 -12q66 0 85 104l81 440h-187l-80 -439q-18 -103 -62 -150.5t-137 -47.5
q-44 0 -84 17l30 82q30 -13 59 -13q70 0 90 108l81 443h-90l14 80h91l8 47q18 100 69 146.5t143 46.5q85 0 146 -43q54 50 160 50q107 0 187 -34l-76 -420l202 207h122l-219 -218l139 -266h-111zM251 484h186l12 65q5 27 16 56q-38 31 -98 31q-49 0 -73 -24.5t-35 -83.5z
" />
    <glyph glyph-name="f_f_l" unicode="ffl" horiz-adv-x="852" 
d="M-43 -233q-44 0 -84 17l30 82q30 -13 59 -13q70 0 90 108l81 443h-90l14 80h91l8 47q18 100 69 146.5t143 46.5q85 0 146 -43q54 50 160 50q107 0 187 -34l-126 -697h-104l114 632q-37 11 -81 11q-51 0 -76.5 -22.5t-35.5 -77.5l-11 -59h106l-14 -80h-107l-79 -436
q-18 -100 -61.5 -147t-133.5 -47q-41 0 -81 16l30 82q32 -12 56 -12q66 0 85 104l81 440h-187l-80 -439q-18 -103 -62 -150.5t-137 -47.5zM251 484h186l12 65q5 27 16 56q-38 31 -98 31q-49 0 -73 -24.5t-35 -83.5z" />
    <glyph glyph-name="f_h" unicode="fh" horiz-adv-x="838" 
d="M-44 -230q-44 0 -84 17l30 82q27 -12 60 -12q69 0 89 107l81 440h-89l14 80h89l12 65q18 95 72.5 138.5t152.5 43.5q107 0 187 -34l-39 -212q-16 -84 -27 -127h2q15 26 29 45.5t37 43.5t53.5 37t65.5 13q51 0 77.5 -31.5t26.5 -89.5q0 -30 -5 -55l-59 -321h-103l55 314
q4 20 4 38q0 52 -42 52q-54 0 -107.5 -87t-86.5 -270l-8 -47h-104l115 632q-37 11 -81 11q-51 0 -77 -22.5t-36 -77.5l-10 -59h106l-14 -80h-107l-80 -436q-19 -103 -62.5 -150.5t-136.5 -47.5z" />
    <glyph glyph-name="f_i" unicode="fi" horiz-adv-x="554" 
d="M-44 -230q-44 0 -84 17l30 82q27 -12 60 -12q69 0 89 107l81 440h-89l14 80h89l11 57q19 99 74 144.5t149 45.5q88 0 147 -37l-44 -80q-47 29 -103 29q-54 0 -82.5 -24.5t-38.5 -81.5l-9 -53h275l-88 -484h-104l73 404h-171l-80 -436q-19 -103 -62.5 -150.5t-136.5 -47.5
z" />
    <glyph glyph-name="f_j" unicode="fj" horiz-adv-x="555" 
d="M-42 -230q-43 0 -85 17l31 82q27 -12 59 -12q71 0 89 107l81 440h-89l14 80h89l11 57q35 190 223 190q89 0 148 -37l-45 -80q-47 29 -103 29q-53 0 -81.5 -24t-38.5 -82l-10 -53h277l-91 -516q-17 -94 -61.5 -146t-134.5 -52q-44 0 -77 14l34 84q16 -9 42 -9
q41 0 61.5 28.5t30.5 88.5l77 428h-173l-79 -436q-19 -103 -62.5 -150.5t-136.5 -47.5z" />
    <glyph glyph-name="f_k" unicode="fk" horiz-adv-x="789" 
d="M627 0l-135 262l-47 -262h-104l113 632q-39 11 -81 11q-51 0 -77 -22.5t-36 -77.5l-10 -59h106l-14 -80h-107l-80 -436q-19 -103 -62.5 -150.5t-136.5 -47.5q-44 0 -84 17l30 82q27 -12 60 -12q69 0 89 107l81 440h-89l14 80h89l12 65q18 95 72.5 138.5t152.5 43.5
q107 0 187 -34l-76 -420l202 207h122l-219 -218l138 -266h-110z" />
    <glyph glyph-name="f_l" unicode="fl" horiz-adv-x="561" 
d="M-44 -230q-44 0 -84 17l30 82q27 -12 60 -12q69 0 89 107l81 440h-89l14 80h89l12 65q18 95 72.5 138.5t152.5 43.5q107 0 187 -34l-126 -697h-104l114 632q-39 11 -81 11q-51 0 -77 -22.5t-36 -77.5l-10 -59h106l-14 -80h-107l-80 -436q-19 -103 -62.5 -150.5
t-136.5 -47.5z" />
    <glyph glyph-name=".notdef" horiz-adv-x="522" 
d="M23 0v666h476v-666h-476zM107 84h308v498h-308v-498z" />
    <glyph glyph-name=".null" horiz-adv-x="0" 
 />
    <glyph glyph-name=".null" horiz-adv-x="0" 
 />
    <glyph glyph-name="nonmarkingreturn" horiz-adv-x="333" 
 />
    <glyph glyph-name="CR" unicode="&#xd;" horiz-adv-x="220" 
 />
    <glyph glyph-name="space" unicode=" " horiz-adv-x="220" 
 />
    <glyph glyph-name="exclam" unicode="!" horiz-adv-x="268" 
d="M106 -9q-31 0 -52 20.5t-21 50.5q0 28 21 48.5t52 20.5q30 0 50.5 -20.5t20.5 -48.5q0 -29 -20.5 -50t-50.5 -21zM84 214l59 452h124l-103 -452h-80z" />
    <glyph glyph-name="quotedbl" unicode="&#x22;" horiz-adv-x="379" 
d="M116 432l11 234h109l-48 -234h-72zM263 432l26 234h110l-63 -234h-73z" />
    <glyph glyph-name="numbersign" unicode="#" horiz-adv-x="514" 
d="M81 96l40 134h-85l22 79h86l30 96h-91l21 79h93l38 126h76l-38 -126h88l38 126h76l-38 -126h83l-22 -79h-84l-29 -96h90l-23 -79h-91l-40 -134h-76l40 134h-88l-40 -134h-76zM218 307h91l31 99h-91z" />
    <glyph glyph-name="dollar" unicode="$" horiz-adv-x="438" 
d="M108 -123l20 113q-78 12 -125 51l50 77q60 -48 125 -48q100 0 100 60q0 11 -5 20t-17 17.5t-23.5 15t-33 17.5t-36.5 20q-50 29 -73.5 58.5t-23.5 74.5q0 56 42 93.5t108 46.5l19 103h92l-18 -103q62 -8 103 -35l-48 -77q-49 32 -113 32q-39 0 -62 -13.5t-23 -38.5
q0 -15 13.5 -29t27 -22t44.5 -23q9 -5 14 -7q57 -29 87 -59.5t30 -79.5q0 -63 -44 -102t-118 -48l-20 -114h-92z" />
    <glyph glyph-name="percent" unicode="%" horiz-adv-x="785" 
d="M174 199q-62 0 -97.5 36.5t-35.5 90.5q0 69 48 119.5t124 50.5q65 0 99.5 -34.5t34.5 -90.5q0 -70 -48.5 -121t-124.5 -51zM182 265q35 0 56 29t21 73q0 63 -53 63q-35 0 -56 -28t-21 -71q0 -66 53 -66zM571 -12q-62 0 -97.5 36.5t-35.5 90.5q0 69 48.5 119.5t123.5 50.5
q65 0 99.5 -34.5t34.5 -90.5q0 -71 -48.5 -121.5t-124.5 -50.5zM578 54q35 0 56 29t21 73q0 63 -52 63q-35 0 -56 -28t-21 -71q0 -66 52 -66zM164 0l372 484h87l-372 -484h-87z" />
    <glyph glyph-name="ampersand" unicode="&#x26;" horiz-adv-x="697" 
d="M558 -91q-52 0 -92 26t-93 88q-80 -35 -156 -35q-90 0 -138.5 49.5t-48.5 130.5q0 136 82 232.5t191 96.5q60 0 94.5 -29.5t34.5 -82.5q0 -49 -36.5 -85.5t-88.5 -57.5l94 -112q41 29 71 59q54 54 85.5 122t31.5 131q0 81 -49 125t-158 60l17 89q144 -16 218 -84.5
t74 -183.5q0 -82 -46.5 -171t-123.5 -157q-37 -35 -69 -57q39 -44 61.5 -59.5t51.5 -15.5q33 0 63 19l29 -72q-47 -26 -99 -26zM234 75q42 0 88 19l-115 136l17 51q51 12 80.5 37.5t29.5 55.5q0 40 -50 40q-61 0 -105.5 -72t-44.5 -164q0 -103 100 -103z" />
    <glyph glyph-name="quotesingle" unicode="'" horiz-adv-x="218" 
d="M106 432l20 234h114l-62 -234h-72z" />
    <glyph glyph-name="parenleft" unicode="(" horiz-adv-x="315" 
d="M148 -172q-112 150 -112 344q0 101 27.5 194t72.5 162.5t83 113.5t78 78h102q-40 -38 -77 -83t-80 -114.5t-69 -161t-26 -188.5q0 -193 96 -345h-95z" />
    <glyph glyph-name="parenright" unicode=")" horiz-adv-x="318" 
d="M-76 -172q259 252 259 560q0 112 -30.5 196.5t-69.5 135.5h98q43 -51 78 -135.5t35 -195.5q0 -310 -265 -561h-105z" />
    <glyph glyph-name="asterisk" unicode="*" horiz-adv-x="454" 
d="M164 305l-66 51l108 109l-125 35l37 77l120 -47l16 136h91l-31 -136l131 47l18 -81l-141 -33l73 -115l-76 -43l-58 120z" />
    <glyph glyph-name="plus" unicode="+" horiz-adv-x="555" 
d="M190 37l33 185h-173l15 84h173l31 178h91l-31 -178h174l-15 -84h-174l-32 -185h-92z" />
    <glyph glyph-name="comma" unicode="," horiz-adv-x="245" 
d="M41 -156l-43 38q56 54 56 93q0 19 -16 45t-16 49q0 30 20 49.5t50 19.5q33 0 54.5 -22.5t21.5 -60.5q0 -56 -38 -112.5t-89 -98.5z" />
    <glyph glyph-name="hyphen" unicode="-" horiz-adv-x="315" 
d="M49 240l16 88h214l-15 -88h-215z" />
    <glyph glyph-name="period" unicode="." horiz-adv-x="245" 
d="M95 -10q-31 0 -53 21.5t-22 52.5q0 30 22 51.5t53 21.5t52.5 -21.5t21.5 -51.5q0 -31 -21.5 -52.5t-52.5 -21.5z" />
    <glyph glyph-name="slash" unicode="/" horiz-adv-x="428" 
d="M459 666l-351 -666h-102l350 666h103z" />
    <glyph glyph-name="zero" unicode="0" horiz-adv-x="545" 
d="M237 -12q-93 0 -145.5 62t-52.5 149q0 122 79.5 210t196.5 88q96 0 146 -60t50 -149q0 -126 -77 -213t-197 -87zM247 71q71 0 115 64.5t44 151.5q0 127 -101 127q-67 0 -112.5 -63t-45.5 -148q0 -64 25.5 -98t74.5 -34z" />
    <glyph glyph-name="one" unicode="1" horiz-adv-x="343" 
d="M112 0l70 388l-115 -33l-19 83l177 46h79l-87 -484h-105z" />
    <glyph glyph-name="two" unicode="2" horiz-adv-x="473" 
d="M-7 0l8 49q82 54 126 85t93 72.5t70 75.5t21 68q0 59 -76 59q-59 0 -119 -45l-45 69q85 64 182 64q80 0 125 -34.5t45 -96.5q0 -43 -23 -85.5t-64 -79.5t-77 -63.5t-83 -54.5q39 3 69 3h171l-15 -86h-408z" />
    <glyph glyph-name="three" unicode="3" horiz-adv-x="445" 
d="M74 -188q-60 0 -99 13l25 82q33 -10 78 -10q80 0 130.5 37t50.5 103q0 104 -159 102l12 77q71 1 127.5 35.5t56.5 91.5q0 30 -20.5 47.5t-59.5 17.5q-51 0 -111 -38l-45 69q79 58 178 58q80 0 124 -38.5t44 -96.5q0 -66 -49 -112.5t-114 -64.5v-1q54 -10 92 -48t38 -96
q0 -103 -85.5 -165.5t-213.5 -62.5z" />
    <glyph glyph-name="four" unicode="4" horiz-adv-x="550" 
d="M251 -177l33 177h-299l10 67l384 417h98l-74 -401h103l-14 -83h-104l-32 -177h-105zM114 83h185l51 263h-2z" />
    <glyph glyph-name="five" unicode="5" horiz-adv-x="430" 
d="M73 -188q-55 0 -101 13l25 83q37 -11 80 -11q80 0 129.5 39t49.5 109q0 72 -58 104q-49 26 -140 23l61 312h308l-14 -83h-210l-31 -152q89 -9 143.5 -60.5t54.5 -133.5q0 -114 -83.5 -178.5t-213.5 -64.5z" />
    <glyph glyph-name="six" unicode="6" horiz-adv-x="530" 
d="M251 -12q-97 0 -150 65.5t-53 177.5q0 87 32.5 167t92 142.5t150.5 100t200 37.5l10 -86q-148 0 -249 -77q-82 -64 -111 -166q60 52 143 52q81 0 129 -45.5t48 -123.5q0 -106 -70 -175t-172 -69zM257 71q58 0 94 43.5t36 109.5q0 45 -25.5 70t-74.5 25q-74 0 -130 -50
q-2 -32 -2 -48q0 -72 26.5 -111t75.5 -39z" />
    <glyph glyph-name="seven" unicode="7" horiz-adv-x="461" 
d="M74 -197l-83 46l339 546h-287l16 89h406l-10 -63z" />
    <glyph glyph-name="eight" unicode="8" horiz-adv-x="505" 
d="M216 -12q-93 0 -142.5 45t-49.5 111q0 125 165 201q-90 69 -90 148q0 82 63.5 133.5t152.5 51.5q85 0 133.5 -42t48.5 -104q0 -58 -37 -101t-112 -80q107 -71 107 -160q0 -91 -70 -147t-169 -56zM222 73q51 0 87 31t36 79q0 32 -22 59.5t-69 58.5q-60 -30 -92 -65
t-32 -81q0 -37 25 -59.5t67 -22.5zM282 395q108 56 108 127q0 31 -21.5 52t-61.5 21q-43 0 -71.5 -25.5t-28.5 -67.5q0 -54 75 -107z" />
    <glyph glyph-name="nine" unicode="9" horiz-adv-x="522" 
d="M6 -184l-10 85q143 0 241 70q83 61 114 157q-61 -43 -128 -43q-83 0 -131 47.5t-48 124.5q0 106 72.5 173t170.5 67q100 0 148 -59.5t48 -158.5q0 -210 -130 -336.5t-347 -126.5zM248 165q63 0 122 43q6 36 6 73q0 133 -97 133q-52 0 -89.5 -40t-37.5 -106
q0 -47 24.5 -75t71.5 -28z" />
    <glyph glyph-name="colon" unicode=":" horiz-adv-x="245" 
d="M95 -10q-31 0 -53 21.5t-22 52.5q0 30 22 51.5t53 21.5t52.5 -21.5t21.5 -51.5q0 -31 -21.5 -52.5t-52.5 -21.5zM155 343q-32 0 -53.5 21t-21.5 52q0 30 22 51.5t53 21.5t52.5 -21.5t21.5 -51.5q0 -31 -21.5 -52t-52.5 -21z" />
    <glyph glyph-name="semicolon" unicode=";" horiz-adv-x="245" 
d="M41 -156l-43 38q56 54 56 93q0 19 -16 45t-16 49q0 30 20 49.5t50 19.5q33 0 54.5 -22.5t21.5 -60.5q0 -56 -38 -112.5t-89 -98.5zM156 343q-32 0 -53.5 21t-21.5 52q0 30 22 51.5t53 21.5q30 0 52 -21.5t22 -51.5t-22 -51.5t-52 -21.5z" />
    <glyph glyph-name="less" unicode="&#x3c;" horiz-adv-x="401" 
d="M255 23l-215 225l281 224l51 -66l-209 -164l153 -162z" />
    <glyph glyph-name="equal" unicode="=" horiz-adv-x="516" 
d="M42 134l15 85h393l-15 -85h-393zM74 311l14 84h393l-15 -84h-392z" />
    <glyph glyph-name="greater" unicode="&#x3e;" horiz-adv-x="401" 
d="M80 23l-52 66l210 164l-153 161l61 57l215 -224z" />
    <glyph glyph-name="question" unicode="?" horiz-adv-x="406" 
d="M99 209l10 58q8 48 26.5 73.5t62.5 51.5q31 18 43.5 26.5t30 24t24 32.5t6.5 40q0 35 -23 54.5t-66 19.5q-35 0 -84 -20l-32 79q58 30 137 30q87 0 134 -42.5t47 -105.5q0 -37 -12 -67.5t-36.5 -53.5t-45.5 -37t-54 -32q-32 -18 -46.5 -36t-19.5 -48l-9 -47h-93zM120 -9
q-31 0 -52 20.5t-21 50.5q0 28 21 48.5t52 20.5q30 0 51 -20.5t21 -48.5q0 -30 -21 -50.5t-51 -20.5z" />
    <glyph glyph-name="at" unicode="@" horiz-adv-x="766" 
d="M379 -95q-155 0 -247 95t-92 241q0 152 106.5 268.5t263.5 116.5t248 -93t91 -214q0 -102 -53.5 -170t-135.5 -68q-50 0 -77 26.5t-29 71.5h-3q-18 -38 -52 -67.5t-82 -29.5q-45 0 -71.5 34.5t-26.5 83.5q0 109 57 187.5t155 78.5q59 0 133 -24l-27 -155q-11 -66 -11 -78
q0 -24 12.5 -40t31.5 -16q45 0 75 45t30 114q0 110 -74 177t-191 67q-115 0 -200.5 -91t-85.5 -221q0 -123 69.5 -195.5t196.5 -72.5q80 0 146 29l28 -66q-84 -34 -185 -34zM347 160q45 0 76.5 61.5t47.5 145.5l5 24q-23 9 -50 9q-51 0 -82.5 -55t-31.5 -129q0 -56 35 -56z
" />
    <glyph glyph-name="A" unicode="A" horiz-adv-x="636" 
d="M213 235h209l-30 189q-10 62 -16 121h-2q-19 -47 -58 -121zM-25 0l371 666h107l122 -666h-116l-23 143h-270l-77 -143h-114z" />
    <glyph glyph-name="B" unicode="B" horiz-adv-x="579" 
d="M44 0l118 666h193q89 0 142 -38t53 -111q0 -69 -38 -112.5t-105 -60.5v-2q53 -9 86 -43.5t33 -87.5q0 -105 -76 -158t-205 -53h-201zM169 88h84q161 0 161 122q0 44 -30 68.5t-89 24.5h-88zM221 386h85q66 0 99.5 30t33.5 82q0 80 -105 80h-78z" />
    <glyph glyph-name="C" unicode="C" horiz-adv-x="610" 
d="M332 -12q-137 0 -208 79t-71 202q0 169 111 289t278 120q123 0 189 -48l-57 -83q-53 37 -139 37q-115 0 -189.5 -89.5t-74.5 -219.5q0 -88 42.5 -140.5t128.5 -52.5q83 0 159 59l46 -80q-32 -30 -90.5 -51.5t-124.5 -21.5z" />
    <glyph glyph-name="D" unicode="D" horiz-adv-x="677" 
d="M43 0l118 666h174q160 0 240.5 -70t80.5 -192q0 -81 -26.5 -153t-76.5 -128.5t-131.5 -89.5t-183.5 -33h-195zM171 91h87q133 0 206.5 86t73.5 223q0 90 -51 132.5t-160 42.5h-71z" />
    <glyph glyph-name="E" unicode="E" horiz-adv-x="510" 
d="M43 0l118 666h359l-17 -94h-248l-32 -178h219l-17 -90h-218l-37 -210h255l-17 -94h-365z" />
    <glyph glyph-name="F" unicode="F" horiz-adv-x="496" 
d="M44 0l118 666h361l-17 -94h-249l-34 -185h219l-16 -91h-219l-52 -296h-111z" />
    <glyph glyph-name="G" unicode="G" horiz-adv-x="696" 
d="M351 -12q-143 0 -220 79.5t-77 204.5q0 168 114.5 287t284.5 119q131 0 209 -54l-61 -85q-60 45 -158 45q-122 0 -196.5 -88.5t-74.5 -221.5q0 -89 46.5 -141.5t137.5 -52.5q73 0 137 32l27 158h-132l16 90h240l-55 -307q-95 -65 -238 -65z" />
    <glyph glyph-name="H" unicode="H" horiz-adv-x="722" 
d="M43 0l118 666h111l-48 -271h327l48 271h111l-119 -666h-111l54 302h-326l-54 -302h-111z" />
    <glyph glyph-name="I" unicode="I" horiz-adv-x="296" 
d="M48 0l119 666h112l-119 -666h-112z" />
    <glyph glyph-name="J" unicode="J" horiz-adv-x="294" 
d="M-40 -198q-51 0 -79 15l36 92q19 -8 41 -8q40 0 62.5 25.5t32.5 82.5l118 657h110l-120 -673q-33 -191 -201 -191z" />
    <glyph glyph-name="K" unicode="K" horiz-adv-x="592" 
d="M44 0l118 666h110l-55 -308l295 308h127l-307 -318l209 -348h-123l-204 340l-60 -340h-110z" />
    <glyph glyph-name="L" unicode="L" horiz-adv-x="478" 
d="M43 0l119 666h111l-102 -574h249l-16 -92h-361z" />
    <glyph glyph-name="M" unicode="M" horiz-adv-x="856" 
d="M11 0l208 666h104l65 -450q4 -24 7.5 -61.5t3.5 -40.5h2q31 69 48 102l231 450h107l-32 -666h-110l23 388q5 75 9 99h-2q-16 -40 -42 -91l-203 -396h-105l-57 392q-4 26 -8 60l-3 35h-2q-3 -19 -26 -99l-116 -388h-102z" />
    <glyph glyph-name="N" unicode="N" horiz-adv-x="708" 
d="M41 0l118 666h109l198 -404q29 -57 44 -106h1q6 61 15 108l72 402h100l-118 -666h-100l-207 421q-22 43 -41 99h-2q-6 -55 -14 -100l-75 -420h-100z" />
    <glyph glyph-name="O" unicode="O" horiz-adv-x="744" 
d="M344 -12q-134 0 -211.5 84t-77.5 205q0 102 45.5 193t133.5 149.5t198 58.5q138 0 212.5 -82.5t74.5 -206.5q0 -103 -44.5 -193.5t-132 -149t-198.5 -58.5zM351 80q114 0 182.5 92.5t68.5 215.5q0 86 -45.5 142t-132.5 56q-115 0 -183.5 -91.5t-68.5 -215.5
q0 -86 48 -142.5t131 -56.5z" />
    <glyph glyph-name="P" unicode="P" horiz-adv-x="557" 
d="M43 0l118 666h186q98 0 156.5 -45.5t58.5 -127.5q0 -116 -79 -179t-211 -63h-74l-44 -251h-111zM215 340h69q82 0 123 37.5t41 103.5q0 96 -120 96h-71z" />
    <glyph glyph-name="Q" unicode="Q" horiz-adv-x="744" 
d="M500 -169q-82 0 -145 40t-116 133q-87 29 -135.5 104t-48.5 169q0 102 45.5 193t133.5 149.5t198 58.5q138 0 212.5 -82.5t74.5 -206.5q0 -150 -94 -268t-246 -130q47 -74 133 -74q57 0 107 31l32 -77q-61 -40 -151 -40zM350 79q115 0 183.5 93t68.5 216q0 86 -45.5 142
t-132.5 56q-115 0 -183.5 -91.5t-68.5 -215.5q0 -86 47.5 -143t130.5 -57z" />
    <glyph glyph-name="R" unicode="R" horiz-adv-x="595" 
d="M44 0l118 666h196q96 0 149 -42t53 -117q0 -89 -54 -140.5t-147 -62.5v-2q30 -24 66 -95l107 -207h-121l-95 191q-32 63 -49.5 80.5t-48.5 17.5h-11l-52 -289h-111zM220 373h90q68 0 102.5 33.5t34.5 89.5q0 81 -107 81h-82z" />
    <glyph glyph-name="S" unicode="S" horiz-adv-x="474" 
d="M197 -12q-124 0 -206 76l63 76q67 -59 148 -59q56 0 83 25.5t27 65.5q0 35 -18.5 58t-72.5 67q-8 7 -13 11q-30 26 -46.5 42t-37 41t-29.5 53t-9 60q0 83 58 128.5t150 45.5q99 0 172 -54l-55 -81q-57 45 -121 45q-47 0 -71 -21.5t-24 -59.5q0 -23 13.5 -44.5t28 -35
t54.5 -45.5q35 -29 50 -42.5t39 -41t33.5 -56t9.5 -63.5q0 -82 -58 -136.5t-168 -54.5z" />
    <glyph glyph-name="T" unicode="T" horiz-adv-x="511" 
d="M159 0l102 572h-185l16 94h476l-16 -94h-180l-102 -572h-111z" />
    <glyph glyph-name="U" unicode="U" horiz-adv-x="689" 
d="M316 -12q-118 0 -178 54.5t-60 150.5q0 31 6 65l72 408h111l-71 -401q-6 -35 -6 -62q0 -62 33 -91.5t102 -29.5q80 0 122.5 43t59.5 135l72 406h103l-75 -417q-23 -130 -92.5 -195.5t-198.5 -65.5z" />
    <glyph glyph-name="V" unicode="V" horiz-adv-x="623" 
d="M225 0l-136 666h114l78 -426q8 -41 17 -116h2q32 75 53 116l215 426h114l-353 -666h-104z" />
    <glyph glyph-name="W" unicode="W" horiz-adv-x="877" 
d="M153 0l-61 666h111l29 -373q7 -96 7 -137h2q12 34 56 138l160 372h110l37 -383q7 -81 9 -127h3q15 46 48 127l157 383h112l-292 -666h-104l-37 390q-3 34 -6.5 84.5t-4.5 59.5h-2q-26 -69 -60 -144l-173 -390h-101z" />
    <glyph glyph-name="X" unicode="X" horiz-adv-x="583" 
d="M-19 0l268 346l-140 320h118l98 -239l171 239h119l-248 -323l150 -343h-118l-108 262l-190 -262h-120z" />
    <glyph glyph-name="Y" unicode="Y" horiz-adv-x="571" 
d="M191 0l45 251l-147 415h115l105 -312h1l203 312h115l-281 -416l-45 -250h-111z" />
    <glyph glyph-name="Z" unicode="Z" horiz-adv-x="531" 
d="M-12 0l14 75l405 500h-302l17 91h443l-14 -72l-409 -503h331l-17 -91h-468z" />
    <glyph glyph-name="bracketleft" unicode="[" horiz-adv-x="320" 
d="M1 -161l153 881h224l-14 -80h-124l-126 -721h124l-14 -80h-223z" />
    <glyph glyph-name="backslash" unicode="\" horiz-adv-x="402" 
d="M240 -161l-161 881h95l161 -881h-95z" />
    <glyph glyph-name="bracketright" unicode="]" horiz-adv-x="319" 
d="M-46 -161l14 80h124l126 721h-124l14 80h224l-154 -881h-224z" />
    <glyph glyph-name="asciicircum" unicode="^" horiz-adv-x="594" 
d="M66 288l266 378h72l132 -378h-93l-89 272l-189 -272h-99z" />
    <glyph glyph-name="underscore" unicode="_" horiz-adv-x="407" 
d="M-75 -173l15 84h410l-15 -84h-410z" />
    <glyph glyph-name="grave" unicode="`" horiz-adv-x="500" 
d="M266 541l-109 131h134l64 -131h-89z" />
    <glyph glyph-name="a" unicode="a" horiz-adv-x="504" 
d="M150 -12q-57 0 -89.5 41.5t-32.5 112.5q0 150 82 252.5t215 102.5q96 0 154 -25l-44 -240q-30 -168 -30 -232h-102q7 76 20 132h-2q-35 -68 -74.5 -106t-96.5 -38zM187 79q51 0 100.5 84.5t70.5 207.5l5 36q-23 7 -56 7q-74 0 -123 -74.5t-49 -180.5q0 -80 52 -80z" />
    <glyph glyph-name="b" unicode="b" horiz-adv-x="510" 
d="M187 -12q-95 0 -165 22l128 710h104l-44 -238q-12 -66 -29 -125h2q38 66 78.5 103t98.5 37q59 0 91 -44.5t32 -116.5q0 -150 -81.5 -249t-214.5 -99zM197 70q78 0 127 71.5t49 179.5q0 84 -50 84q-55 0 -104 -84t-74 -208l-7 -36q31 -7 59 -7z" />
    <glyph glyph-name="c" unicode="c" horiz-adv-x="418" 
d="M202 -12q-84 0 -131 51t-47 140q0 137 83 227.5t195 90.5q77 0 122 -33l-46 -79q-33 23 -82 23q-66 0 -116 -60.5t-50 -156.5q0 -115 85 -115q55 0 106 48l48 -69q-72 -67 -167 -67z" />
    <glyph glyph-name="d" unicode="d" horiz-adv-x="507" 
d="M152 -12q-60 0 -92 44t-32 116q0 150 81.5 249.5t208.5 99.5q33 0 68 -8l42 231h104l-89 -488q-31 -173 -31 -232h-102q10 90 20 132h-2q-78 -144 -176 -144zM185 79q55 0 106 83.5t74 208.5l6 37q-27 8 -63 8q-75 0 -124 -72.5t-49 -178.5q0 -86 50 -86z" />
    <glyph glyph-name="e" unicode="e" horiz-adv-x="446" 
d="M199 -12q-85 0 -129.5 51.5t-44.5 133.5q0 136 79 230t191 94q64 0 101.5 -31t37.5 -88q0 -154 -304 -192q0 -111 84 -111q65 0 125 54l47 -69q-81 -72 -187 -72zM278 412q-48 0 -86 -44t-54 -110q88 10 140.5 37.5t52.5 70.5q0 46 -53 46z" />
    <glyph glyph-name="f" unicode="f" horiz-adv-x="340" 
d="M-44 -230q-44 0 -84 17l30 82q27 -12 60 -12q69 0 89 107l81 440h-89l14 80h89l12 65q17 92 64.5 137t132.5 45q72 0 122 -31l-43 -80q-37 23 -81 23q-42 0 -63 -25t-29 -72l-11 -62h114l-14 -80h-115l-80 -436q-19 -103 -62.5 -150.5t-136.5 -47.5z" />
    <glyph glyph-name="g" unicode="g" horiz-adv-x="503" 
d="M154 -229q-90 0 -166 53l50 80q58 -44 120 -44t95 35t46 106l6 33q12 60 23 94h-2q-36 -64 -76.5 -101t-97.5 -37q-60 0 -92 44t-32 114q0 152 81.5 250.5t213.5 98.5q91 0 165 -21l-87 -471q-23 -125 -80 -179.5t-167 -54.5zM185 79q56 0 106.5 83t73.5 209l6 37
q-27 8 -63 8q-75 0 -124 -72.5t-49 -178.5q0 -86 50 -86z" />
    <glyph glyph-name="h" unicode="h" horiz-adv-x="522" 
d="M23 0l132 720h103l-43 -235q-8 -43 -27 -127h2q15 26 29 45.5t37 43.5t53.5 37t65.5 13q51 0 77.5 -31.5t26.5 -89.5q0 -30 -5 -55l-59 -321h-103l55 314q4 20 4 38q0 52 -42 52q-55 0 -108 -86.5t-86 -270.5l-8 -47h-104z" />
    <glyph glyph-name="i" unicode="i" horiz-adv-x="249" 
d="M190 562q-28 0 -47.5 20t-19.5 47t19.5 46.5t47.5 19.5q29 0 48 -19.5t19 -46.5q0 -28 -19 -47.5t-48 -19.5zM28 0l88 484h104l-88 -484h-104z" />
    <glyph glyph-name="j" unicode="j" horiz-adv-x="245" 
d="M-69 -230q-40 0 -82 15l34 84q18 -10 47 -10q41 0 61.5 28t31.5 89l91 508h104l-91 -516q-17 -94 -61.5 -146t-134.5 -52zM189 562q-28 0 -47.5 20t-19.5 47t19.5 46.5t47.5 19.5t47.5 -19.5t19.5 -46.5t-19.5 -47t-47.5 -20z" />
    <glyph glyph-name="k" unicode="k" horiz-adv-x="469" 
d="M20 0l126 720h104l-77 -444l203 208h122l-220 -218l139 -266h-111l-136 263l-45 -263h-105z" />
    <glyph glyph-name="l" unicode="l" horiz-adv-x="249" 
d="M28 0l130 720h104l-130 -720h-104z" />
    <glyph glyph-name="m" unicode="m" horiz-adv-x="797" 
d="M23 0l88 484h100q-5 -50 -26 -130h2q76 143 181 143q100 0 100 -115q0 -15 -1 -22h2q37 63 80 100t103 37q50 0 76.5 -32t26.5 -90q0 -27 -6 -58l-57 -317h-103l55 305q5 27 5 45q0 54 -41 54q-55 0 -106 -87.5t-84 -269.5l-9 -47h-103l55 305q4 19 4 42q0 57 -42 57
q-53 0 -104 -87.5t-84 -269.5l-8 -47h-104z" />
    <glyph glyph-name="n" unicode="n" horiz-adv-x="522" 
d="M23 0l88 484h100q-8 -60 -26 -132h2q16 28 30.5 48.5t37.5 45t54 38t66 13.5q51 0 77.5 -31.5t26.5 -89.5q0 -30 -5 -55l-59 -321h-103l55 314q4 20 4 38q0 52 -42 52q-55 0 -108 -86.5t-86 -270.5l-8 -47h-104z" />
    <glyph glyph-name="o" unicode="o" horiz-adv-x="498" 
d="M210 -12q-89 0 -136.5 58.5t-47.5 142.5q0 123 75.5 215.5t186.5 92.5q88 0 136 -57t48 -144q0 -128 -75 -218t-187 -90zM218 70q65 0 107 70t42 150q0 124 -87 124q-64 0 -107 -70.5t-43 -151.5q0 -56 22.5 -89t65.5 -33z" />
    <glyph glyph-name="p" unicode="p" horiz-adv-x="509" 
d="M-20 -218l128 702h101q-9 -52 -28 -128h2q37 67 77.5 104t99.5 37q58 0 89.5 -44.5t31.5 -116.5q0 -149 -80 -248.5t-207 -99.5q-40 0 -71 7l-39 -213h-104zM197 68q78 0 127 72t49 181q0 84 -50 84q-55 0 -104.5 -84.5t-73.5 -207.5l-7 -38q31 -7 59 -7z" />
    <glyph glyph-name="q" unicode="q" horiz-adv-x="503" 
d="M257 -218l42 220q14 77 29 126h-2q-37 -65 -77.5 -102.5t-96.5 -37.5q-60 0 -92 44t-32 116q0 153 81 251t214 98q91 0 165 -21l-128 -694h-103zM185 79q55 0 105.5 84t74.5 208l6 36q-23 9 -63 9q-76 0 -124.5 -72t-48.5 -179q0 -86 50 -86z" />
    <glyph glyph-name="r" unicode="r" horiz-adv-x="371" 
d="M23 0l88 484h100q-6 -48 -28 -139h2q29 62 72.5 107t93.5 45q31 0 53 -10l-38 -100q-21 7 -36 7q-60 0 -111.5 -84t-83.5 -263l-8 -47h-104z" />
    <glyph glyph-name="s" unicode="s" horiz-adv-x="367" 
d="M138 -12q-93 0 -153 50l48 72q51 -40 106 -40q33 0 51 15t18 40q0 7 -1.5 13.5t-5.5 14t-8 13t-12 15t-13 15t-17 17t-18 18.5q-36 38 -53 66.5t-17 66.5q0 60 44 96.5t119 36.5q80 0 130 -40l-48 -70q-38 28 -84 28q-28 0 -44.5 -12.5t-16.5 -36.5q0 -5 1.5 -10.5
t3 -9.5t5.5 -10t7 -10t9.5 -11.5t10.5 -11.5t13 -13.5t14 -14.5q34 -35 47 -50.5t26 -42.5t13 -57q0 -62 -45.5 -99.5t-129.5 -37.5z" />
    <glyph glyph-name="t" unicode="t" horiz-adv-x="353" 
d="M165 -12q-103 0 -103 100q0 24 6 54l49 262h-81l14 80h82l24 129l110 29l-29 -158h120l-13 -80h-122l-46 -249q-6 -38 -6 -46q0 -32 26 -32q29 0 80 39l40 -71q-69 -57 -151 -57z" />
    <glyph glyph-name="u" unicode="u" horiz-adv-x="522" 
d="M146 -13q-51 0 -77.5 31.5t-26.5 89.5q0 30 5 55l59 321h104l-56 -314q-4 -20 -4 -38q0 -52 42 -52q53 0 106.5 83.5t84.5 258.5l12 62h103l-45 -252q-28 -158 -32 -232h-102q10 90 22 140h-2q-17 -30 -32 -52t-39.5 -47.5t-55.5 -39.5t-66 -14z" />
    <glyph glyph-name="v" unicode="v" horiz-adv-x="450" 
d="M117 0l-71 484h108l30 -270q3 -32 6 -86h2l185 356h110l-275 -484h-95z" />
    <glyph glyph-name="w" unicode="w" horiz-adv-x="705" 
d="M101 0l-51 484h107l19 -253q1 -22 2 -57t1 -42h2l168 352h94l17 -248q4 -57 4 -99h2l167 347h107l-248 -484h-94l-25 356h-2l-178 -356h-92z" />
    <glyph glyph-name="x" unicode="x" horiz-adv-x="457" 
d="M-37 0l208 250l-114 234h115l68 -154l118 154h114l-192 -233l119 -251h-115l-74 170l-134 -170h-113z" />
    <glyph glyph-name="y" unicode="y" horiz-adv-x="471" 
d="M-2 -223q-59 0 -89 18l38 83q25 -11 57 -11q43 0 74.5 26.5t71.5 98.5l-97 492h109l52 -311q2 -15 4.5 -40t3.5 -30h2q1 4 5.5 17.5t9.5 27t10 25.5l142 311h109l-211 -420q-79 -161 -138.5 -224t-152.5 -63z" />
    <glyph glyph-name="z" unicode="z" horiz-adv-x="432" 
d="M-9 0l10 61l283 341h-214l15 82h345l-11 -64l-281 -338h230l-14 -82h-363z" />
    <glyph glyph-name="braceleft" unicode="{" horiz-adv-x="375" 
d="M188 -161q-45 0 -74.5 27t-29.5 73q0 17 2 26l32 175q3 15 3 28q0 75 -95 78l14 81q58 0 88.5 25t39.5 78l30 174q21 116 135 116h100l-14 -80h-63q-29 0 -43.5 -17.5t-20.5 -55.5l-28 -159q-17 -102 -114 -125v-2q73 -23 73 -92q0 -13 -3 -30l-29 -169q-4 -26 -4 -33
q0 -20 10 -29t34 -9h63l-14 -80h-92z" />
    <glyph glyph-name="bar" unicode="|" horiz-adv-x="255" 
d="M-6 -250l176 1000h88l-176 -1000h-88z" />
    <glyph glyph-name="braceright" unicode="}" horiz-adv-x="375" 
d="M-45 -161l14 80h63q30 0 44 18t21 55l28 168q17 97 115 125v2q-73 22 -73 93q0 14 3 31l27 158q4 26 4 33q0 20 -10 29t-34 9h-63l14 80h98q42 0 70 -25.5t28 -71.5q0 -13 -3 -28l-29 -165q-2 -16 -2 -23q0 -79 94 -82l-14 -81q-110 -2 -128 -104l-32 -185
q-21 -116 -132 -116h-103z" />
    <glyph glyph-name="asciitilde" unicode="~" horiz-adv-x="586" 
d="M393 171q-54 0 -113.5 31.5t-94.5 31.5q-47 0 -89 -40l-49 63q66 66 144 66q45 0 104 -31.5t104 -31.5q47 0 92 41l48 -63q-65 -67 -146 -67z" />
    <glyph glyph-name="uni00A0" unicode="&#xa0;" horiz-adv-x="220" 
 />
    <glyph glyph-name="exclamdown" unicode="&#xa1;" horiz-adv-x="268" 
d="M161 355q-30 0 -50.5 20.5t-20.5 48.5q0 29 20.5 50t50.5 21q31 0 52 -20.5t21 -50.5q0 -28 -21 -48.5t-52 -20.5zM0 -180l102 453h81l-59 -453h-124z" />
    <glyph glyph-name="cent" unicode="&#xa2;" horiz-adv-x="412" 
d="M130 -123l20 117q-60 14 -93 62.5t-33 122.5q0 116 61.5 201t152.5 108l19 108h92l-18 -101q54 -5 93 -31l-46 -79q-33 23 -82 23q-66 0 -116 -60.5t-50 -156.5q0 -115 85 -115q55 0 106 48l48 -69q-53 -50 -126 -63l-20 -115h-93z" />
    <glyph glyph-name="sterling" unicode="&#xa3;" horiz-adv-x="466" 
d="M56 282l14 79h86q2 87 10 129q32 188 215 188q77 0 129 -34l-47 -80q-40 26 -87 26q-42 0 -67.5 -26.5t-35.5 -83.5q-8 -38 -12 -119h146l-14 -79h-135q-16 -135 -102 -196h242l-15 -86h-377l12 69q58 30 93 86t43 127h-98z" />
    <glyph glyph-name="currency" unicode="&#xa4;" horiz-adv-x="555" 
d="M71 -9l-66 58l96 100q-23 38 -23 86q0 92 70 162l-62 101l87 57l59 -104q42 16 85 16q42 0 73 -13l96 102l65 -58l-93 -95q30 -39 30 -95q0 -99 -72 -166l56 -92l-87 -58l-54 96q-44 -14 -82 -14q-49 0 -85 18zM264 163q53 0 88.5 39t35.5 94q0 37 -23.5 60t-62.5 23
q-52 0 -88.5 -39t-36.5 -91q0 -39 24 -62.5t63 -23.5z" />
    <glyph glyph-name="yen" unicode="&#xa5;" horiz-adv-x="567" 
d="M191 0l17 90h-163l15 77h162l11 65h-163l14 76h132l-126 358h111l105 -319h1l205 319h113l-241 -358h133l-15 -76h-161l-11 -65h162l-14 -77h-162l-16 -90h-109z" />
    <glyph glyph-name="brokenbar" unicode="&#xa6;" horiz-adv-x="167" 
d="M-47 -250l67 378h91l-67 -378h-91zM64 382l65 368h91l-65 -368h-91z" />
    <glyph glyph-name="section" unicode="&#xa7;" horiz-adv-x="423" 
d="M116 -152q-78 0 -125 37l49 75q32 -25 78 -25q41 0 64 22.5t23 59.5q0 28 -24.5 67t-54 72.5t-54 82.5t-24.5 96q0 87 99 141q-20 42 -20 80q0 83 55.5 129.5t133.5 46.5q76 0 124 -32l-47 -75q-30 23 -78 23q-39 0 -60.5 -23t-21.5 -61q0 -24 16 -52t38.5 -56
t45.5 -58.5t39 -68.5t16 -76q0 -86 -97 -150q20 -40 20 -77q0 -87 -54.5 -132.5t-140.5 -45.5zM247 168q39 29 39 74q0 44 -69 134q-20 26 -29 39q-38 -24 -38 -72q0 -41 49 -109q41 -55 48 -66z" />
    <glyph glyph-name="dieresis" unicode="&#xa8;" horiz-adv-x="500" 
d="M214 543q-26 0 -43.5 17.5t-17.5 43.5t17.5 43.5t43.5 17.5q27 0 45 -17.5t18 -43.5t-18 -43.5t-45 -17.5zM411 543q-26 0 -43.5 17.5t-17.5 43.5t17.5 43.5t43.5 17.5q27 0 45 -17.5t18 -43.5t-18 -43.5t-45 -17.5z" />
    <glyph glyph-name="copyright" unicode="&#xa9;" horiz-adv-x="816" 
d="M435 132q-96 0 -159.5 65.5t-63.5 161.5q0 97 64.5 162t159.5 65q82 0 144 -52l-46 -63q-44 37 -97 37q-62 0 -97.5 -43.5t-35.5 -103.5q0 -65 39.5 -108.5t97.5 -43.5q55 0 107 44l41 -63q-67 -58 -154 -58zM428 -14q-153 0 -261.5 109.5t-108.5 263.5t108.5 263.5
t261.5 109.5t261.5 -109.5t108.5 -263.5t-108.5 -263.5t-261.5 -109.5zM428 52q131 0 215.5 85.5t84.5 221.5q0 135 -85 221t-215 86q-131 0 -216 -86t-85 -221q0 -136 85 -221.5t216 -85.5z" />
    <glyph glyph-name="ordfeminine" unicode="&#xaa;" horiz-adv-x="362" 
d="M150 314q-40 0 -65 29.5t-25 77.5q0 107 61.5 182t157.5 75q65 0 113 -19l-31 -172q-20 -115 -20 -164h-79q9 72 14 95h-1q-49 -104 -125 -104zM179 386q36 0 70 57.5t51 144.5l4 20q-17 5 -37 5q-52 0 -87 -52t-35 -129q0 -46 34 -46z" />
    <glyph glyph-name="guillemotleft" unicode="&#xab;" horiz-adv-x="491" 
d="M119 54l-91 190l158 193h113l-162 -198l87 -185h-105zM320 54l-91 190l158 193h113l-162 -198l87 -185h-105z" />
    <glyph glyph-name="logicalnot" unicode="&#xac;" horiz-adv-x="594" 
d="M428 31l34 193h-430l15 86h519l-49 -279h-89z" />
    <glyph glyph-name="uni00AD" unicode="&#xad;" horiz-adv-x="315" 
d="M49 240l16 88h214l-15 -88h-215z" />
    <glyph glyph-name="registered" unicode="&#xae;" horiz-adv-x="816" 
d="M289 147v433h147q68 0 106 -35t38 -90q0 -47 -28.5 -76t-77.5 -37q23 -18 50 -61l89 -134h-92l-92 144q-15 24 -27 32.5t-33 8.5v-185h-80zM428 -14q-153 0 -261.5 109.5t-108.5 263.5t108.5 263.5t261.5 109.5t261.5 -109.5t108.5 -263.5t-108.5 -263.5t-261.5 -109.5z
M428 52q131 0 215.5 85.5t84.5 221.5q0 135 -85 221t-215 86q-131 0 -216 -86t-85 -221q0 -136 85 -221.5t216 -85.5zM369 390h41q87 0 87 63t-73 63h-55v-126z" />
    <glyph glyph-name="macron" unicode="&#xaf;" horiz-adv-x="500" 
d="M169 567l14 80h275l-14 -80h-275z" />
    <glyph glyph-name="degree" unicode="&#xb0;" horiz-adv-x="339" 
d="M215 406q-55 0 -94.5 40t-39.5 96t39.5 96t94.5 40q56 0 95.5 -40t39.5 -96t-39.5 -96t-95.5 -40zM215 470q30 0 48.5 20.5t18.5 51.5t-18.5 51.5t-48.5 20.5q-29 0 -47.5 -21t-18.5 -51t18.5 -51t47.5 -21z" />
    <glyph glyph-name="plusminus" unicode="&#xb1;" horiz-adv-x="574" 
d="M191 38l32 185h-172l15 84h172l31 177h91l-30 -177h173l-15 -84h-173l-33 -185h-91zM-14 -135l15 85h440l-15 -85h-440z" />
    <glyph glyph-name="twosuperior" unicode="&#xb2;" horiz-adv-x="331" 
d="M45 337l8 45q119 83 147 109q51 46 51 81q0 16 -12.5 24.5t-30.5 8.5q-40 0 -81 -31l-36 53q55 45 132 45q58 0 89 -22t31 -60q0 -48 -41.5 -90.5t-122.5 -97.5q1 0 9.5 0.5t20 1t20.5 0.5h97l-13 -67h-268z" />
    <glyph glyph-name="threesuperior" unicode="&#xb3;" horiz-adv-x="305" 
d="M122 331q-45 0 -71 11l22 65q24 -10 57 -10q36 0 59.5 12t23.5 34q0 38 -94 36l10 54q46 2 74 16t28 34q0 24 -38 24q-35 0 -71 -18l-28 53q50 30 118 30q52 0 80 -18.5t28 -49.5q0 -63 -87 -85v-1q28 -4 49.5 -22.5t21.5 -46.5q0 -54 -46 -86t-136 -32z" />
    <glyph glyph-name="acute" unicode="&#xb4;" horiz-adv-x="500" 
d="M156 541l108 131h143l-156 -131h-95z" />
    <glyph glyph-name="mu" unicode="&#xb5;" horiz-adv-x="560" 
d="M-20 -210l127 694h104l-55 -314q-4 -20 -4 -39q0 -51 41 -51q53 0 106.5 83.5t85.5 258.5l11 62h104l-46 -252q-31 -173 -31 -232h-102q10 87 21 140h-2q-79 -149 -176 -149q-28 0 -45 18q0 -17 -11 -81l-25 -138h-103z" />
    <glyph glyph-name="paragraph" unicode="&#xb6;" horiz-adv-x="625" 
d="M164 -177l77 439q-71 2 -118 51t-47 125q0 100 67.5 164t166.5 64h351l-15 -86h-76l-133 -757h-92l133 757h-88l-133 -757h-93z" />
    <glyph glyph-name="periodcentered" unicode="&#xb7;" horiz-adv-x="259" 
d="M132 219q-30 0 -51.5 21t-21.5 51q0 29 21.5 50t51.5 21t51.5 -21t21.5 -50q0 -30 -21.5 -51t-51.5 -21z" />
    <glyph glyph-name="cedilla" unicode="&#xb8;" horiz-adv-x="500" 
d="M171 -225q-44 0 -75 13l18 51q20 -10 49 -10q48 0 48 37q0 43 -71 39l36 97h66l-24 -62q32 -5 51.5 -25.5t19.5 -51.5q0 -40 -33 -64t-85 -24z" />
    <glyph glyph-name="onesuperior" unicode="&#xb9;" horiz-adv-x="264" 
d="M128 337l49 258l-82 -21l-18 63l128 29h69l-62 -329h-84z" />
    <glyph glyph-name="ordmasculine" unicode="&#xba;" horiz-adv-x="367" 
d="M199 315q-63 0 -98.5 40.5t-35.5 104.5q0 88 55.5 153t136.5 65q64 0 99.5 -40t35.5 -104q0 -96 -54 -157.5t-139 -61.5zM208 380q46 0 73.5 45t27.5 104q0 84 -60 84q-45 0 -73 -47t-28 -104q0 -82 60 -82z" />
    <glyph glyph-name="guillemotright" unicode="&#xbb;" horiz-adv-x="491" 
d="M-6 54l160 197l-87 186h104l91 -191l-155 -192h-113zM195 54l160 197l-87 186h104l91 -191l-155 -192h-113z" />
    <glyph glyph-name="onequarter" unicode="&#xbc;" horiz-adv-x="737" 
d="M170 337l49 258l-82 -21l-18 63l128 29h69l-62 -329h-84zM83 0l522 666h90l-523 -666h-89zM540 0l12 64h-173l10 53l219 212h79l-39 -201h53l-12 -64h-52l-13 -64h-84zM480 126q10 2 36 2h50l20 102h-1z" />
    <glyph glyph-name="onehalf" unicode="&#xbd;" horiz-adv-x="765" 
d="M170 337l49 258l-82 -21l-18 63l128 29h69l-62 -329h-84zM83 0l522 666h90l-523 -666h-89zM418 0l8 45q10 7 33.5 23t33.5 23.5t29.5 21.5t29 22t23.5 20t21 21t14.5 19.5t10.5 20t3 19.5q0 32 -43 32q-42 0 -81 -30l-36 53q55 45 132 45q58 0 89 -22t31 -60
q0 -49 -41 -91t-123 -98q12 3 49 3h98l-13 -67h-268z" />
    <glyph glyph-name="threequarters" unicode="&#xbe;" horiz-adv-x="737" 
d="M122 331q-45 0 -71 11l22 65q24 -10 57 -10q36 0 59.5 12t23.5 34q0 38 -94 36l10 54q46 2 74 16t28 34q0 24 -38 24q-35 0 -71 -18l-28 53q50 30 118 30q52 0 80 -18.5t28 -49.5q0 -63 -87 -85v-1q28 -4 49.5 -22.5t21.5 -46.5q0 -54 -46 -86t-136 -32zM82 0l522 666h90
l-522 -666h-90zM539 0l12 64h-173l10 53l219 212h79l-39 -201h53l-12 -64h-52l-13 -64h-84zM479 126q10 2 36 2h51l19 102h-1z" />
    <glyph glyph-name="questiondown" unicode="&#xbf;" horiz-adv-x="430" 
d="M186 -192q-87 0 -134.5 43t-47.5 105q0 37 12 67t37 53.5t45.5 37.5t53.5 33q32 17 46.5 35t19.5 48l9 47h93l-10 -58q-8 -48 -26 -73t-63 -51q-31 -18 -43.5 -26.5t-30 -24t-24 -33t-6.5 -40.5q0 -34 23 -53.5t66 -19.5q44 0 84 20l33 -80q-62 -30 -137 -30zM299 355
q-30 0 -50.5 20.5t-20.5 48.5q0 29 20.5 50t50.5 21q31 0 52 -20.5t21 -50.5q0 -28 -21 -48.5t-52 -20.5z" />
    <glyph glyph-name="Agrave" unicode="&#xc0;" horiz-adv-x="636" 
d="M213 235h209l-30 189q-10 62 -16 121h-2q-19 -47 -58 -121zM-25 0l371 666h107l122 -666h-116l-23 143h-270l-77 -143h-114zM353 722l-109 131h134l64 -131h-89z" />
    <glyph glyph-name="Aacute" unicode="&#xc1;" horiz-adv-x="636" 
d="M213 235h209l-30 189q-10 62 -16 121h-2q-19 -47 -58 -121zM-25 0l371 666h107l122 -666h-116l-23 143h-270l-77 -143h-114zM354 722l108 131h143l-156 -131h-95z" />
    <glyph glyph-name="Acircumflex" unicode="&#xc2;" horiz-adv-x="636" 
d="M213 235h209l-30 189q-10 62 -16 121h-2q-19 -47 -58 -121zM-25 0l371 666h107l122 -666h-116l-23 143h-270l-77 -143h-114zM240 723l150 156h77l94 -156h-86l-57 77l-84 -77h-94z" />
    <glyph glyph-name="Atilde" unicode="&#xc3;" horiz-adv-x="636" 
d="M213 235h209l-30 189q-10 62 -16 121h-2q-19 -47 -58 -121zM-25 0l371 666h107l122 -666h-116l-23 143h-270l-77 -143h-114zM456 726q-28 0 -58.5 18.5t-48.5 18.5q-23 0 -56 -30l-39 45q48 67 108 67q28 0 58.5 -18.5t48.5 -18.5q32 0 57 30l41 -44q-53 -68 -111 -68z
" />
    <glyph glyph-name="Adieresis" unicode="&#xc4;" horiz-adv-x="636" 
d="M213 235h209l-30 189q-10 62 -16 121h-2q-19 -47 -58 -121zM-25 0l371 666h107l122 -666h-116l-23 143h-270l-77 -143h-114zM310 724q-26 0 -43.5 17.5t-17.5 43.5t17.5 43.5t43.5 17.5q27 0 45 -17.5t18 -43.5t-18 -43.5t-45 -17.5zM507 724q-26 0 -43.5 17.5
t-17.5 43.5t17.5 43.5t43.5 17.5q27 0 45 -17.5t18 -43.5t-18 -43.5t-45 -17.5z" />
    <glyph glyph-name="Aring" unicode="&#xc5;" horiz-adv-x="636" 
d="M213 235h209l-30 189q-10 62 -16 121h-2q-19 -47 -58 -121zM-25 0l371 666h107l122 -666h-116l-23 143h-270l-77 -143h-114zM410 723q-42 0 -72 28.5t-30 71.5q0 44 30 73t72 29t72 -28.5t30 -72.5q0 -43 -30.5 -72t-71.5 -29zM410 772q22 0 34.5 15t12.5 37
q0 23 -12.5 38t-34.5 15t-34.5 -15t-12.5 -38q0 -22 12.5 -37t34.5 -15z" />
    <glyph glyph-name="AE" unicode="&#xc6;" horiz-adv-x="830" 
d="M-64 0l497 666h408l-17 -94h-248l-33 -178h219l-16 -90h-218l-37 -210h255l-17 -94h-365l26 147h-227l-109 -147h-118zM228 238h178l57 320z" />
    <glyph glyph-name="Ccedilla" unicode="&#xc7;" horiz-adv-x="610" 
d="M274 -225q-44 0 -75 13l18 51q20 -10 49 -10q48 0 48 37q0 43 -71 39l32 87q-109 16 -165.5 91.5t-56.5 185.5q0 169 111 289t278 120q123 0 189 -48l-57 -83q-53 37 -139 37q-115 0 -189.5 -89.5t-74.5 -219.5q0 -88 42.5 -140.5t128.5 -52.5q83 0 159 59l46 -80
q-31 -29 -87.5 -50.5t-120.5 -22.5l-18 -48q32 -5 51.5 -25.5t19.5 -51.5q0 -40 -33 -64t-85 -24z" />
    <glyph glyph-name="Egrave" unicode="&#xc8;" horiz-adv-x="510" 
d="M43 0l118 666h359l-17 -94h-248l-32 -178h219l-17 -90h-218l-37 -210h255l-17 -94h-365zM290 722l-109 131h134l64 -131h-89z" />
    <glyph glyph-name="Eacute" unicode="&#xc9;" horiz-adv-x="510" 
d="M43 0l118 666h359l-17 -94h-248l-32 -178h219l-17 -90h-218l-37 -210h255l-17 -94h-365zM290 722l108 131h143l-156 -131h-95z" />
    <glyph glyph-name="Ecircumflex" unicode="&#xca;" horiz-adv-x="510" 
d="M43 0l118 666h359l-17 -94h-248l-32 -178h219l-17 -90h-218l-37 -210h255l-17 -94h-365zM177 723l150 156h77l94 -156h-86l-57 77l-84 -77h-94z" />
    <glyph glyph-name="Edieresis" unicode="&#xcb;" horiz-adv-x="510" 
d="M43 0l118 666h359l-17 -94h-248l-32 -178h219l-17 -90h-218l-37 -210h255l-17 -94h-365zM246 724q-26 0 -43.5 17.5t-17.5 43.5t17.5 43.5t43.5 17.5q27 0 45 -17.5t18 -43.5t-18 -43.5t-45 -17.5zM443 724q-26 0 -43.5 17.5t-17.5 43.5t17.5 43.5t43.5 17.5
q27 0 45 -17.5t18 -43.5t-18 -43.5t-45 -17.5z" />
    <glyph glyph-name="Igrave" unicode="&#xcc;" horiz-adv-x="296" 
d="M48 0l119 666h112l-119 -666h-112zM183 722l-109 131h134l64 -131h-89z" />
    <glyph glyph-name="Iacute" unicode="&#xcd;" horiz-adv-x="296" 
d="M48 0l119 666h112l-119 -666h-112zM182 722l108 131h143l-156 -131h-95z" />
    <glyph glyph-name="Icircumflex" unicode="&#xce;" horiz-adv-x="296" 
d="M48 0l119 666h112l-119 -666h-112zM69 723l150 156h77l94 -156h-86l-57 77l-84 -77h-94z" />
    <glyph glyph-name="Idieresis" unicode="&#xcf;" horiz-adv-x="296" 
d="M48 0l119 666h112l-119 -666h-112zM139 724q-26 0 -43.5 17.5t-17.5 43.5t17.5 43.5t43.5 17.5q27 0 45 -17.5t18 -43.5t-18 -43.5t-45 -17.5zM336 724q-26 0 -43.5 17.5t-17.5 43.5t17.5 43.5t43.5 17.5q27 0 45 -17.5t18 -43.5t-18 -43.5t-45 -17.5z" />
    <glyph glyph-name="Eth" unicode="&#xd0;" horiz-adv-x="686" 
d="M51 0l54 300h-67l15 81h66l51 285h174q160 0 240 -69.5t80 -192.5q0 -81 -26 -153t-76.5 -128.5t-131.5 -89.5t-183 -33h-196zM179 91h87q134 0 207.5 86t73.5 223q0 90 -51.5 132.5t-160.5 42.5h-70l-35 -194h108l-15 -81h-107z" />
    <glyph glyph-name="Ntilde" unicode="&#xd1;" horiz-adv-x="708" 
d="M41 0l118 666h109l198 -404q29 -57 44 -106h1q6 61 15 108l72 402h100l-118 -666h-100l-207 421q-22 43 -41 99h-2q-6 -55 -14 -100l-75 -420h-100zM490 726q-28 0 -58.5 18.5t-48.5 18.5q-23 0 -56 -30l-39 45q48 67 108 67q28 0 58.5 -18.5t48.5 -18.5q32 0 57 30
l41 -44q-53 -68 -111 -68z" />
    <glyph glyph-name="Ograve" unicode="&#xd2;" horiz-adv-x="744" 
d="M344 -12q-134 0 -211.5 84t-77.5 205q0 102 45.5 193t133.5 149.5t198 58.5q138 0 212.5 -82.5t74.5 -206.5q0 -103 -44.5 -193.5t-132 -149t-198.5 -58.5zM351 80q114 0 182.5 92.5t68.5 215.5q0 86 -45.5 142t-132.5 56q-115 0 -183.5 -91.5t-68.5 -215.5
q0 -86 48 -142.5t131 -56.5zM396 722l-109 131h134l64 -131h-89z" />
    <glyph glyph-name="Oacute" unicode="&#xd3;" horiz-adv-x="744" 
d="M344 -12q-134 0 -211.5 84t-77.5 205q0 102 45.5 193t133.5 149.5t198 58.5q138 0 212.5 -82.5t74.5 -206.5q0 -103 -44.5 -193.5t-132 -149t-198.5 -58.5zM351 80q114 0 182.5 92.5t68.5 215.5q0 86 -45.5 142t-132.5 56q-115 0 -183.5 -91.5t-68.5 -215.5
q0 -86 48 -142.5t131 -56.5zM396 722l108 131h143l-156 -131h-95z" />
    <glyph glyph-name="Ocircumflex" unicode="&#xd4;" horiz-adv-x="744" 
d="M344 -12q-134 0 -211.5 84t-77.5 205q0 102 45.5 193t133.5 149.5t198 58.5q138 0 212.5 -82.5t74.5 -206.5q0 -103 -44.5 -193.5t-132 -149t-198.5 -58.5zM351 80q114 0 182.5 92.5t68.5 215.5q0 86 -45.5 142t-132.5 56q-115 0 -183.5 -91.5t-68.5 -215.5
q0 -86 48 -142.5t131 -56.5zM282 723l150 156h77l94 -156h-86l-57 77l-84 -77h-94z" />
    <glyph glyph-name="Otilde" unicode="&#xd5;" horiz-adv-x="744" 
d="M344 -12q-134 0 -211.5 84t-77.5 205q0 102 45.5 193t133.5 149.5t198 58.5q138 0 212.5 -82.5t74.5 -206.5q0 -103 -44.5 -193.5t-132 -149t-198.5 -58.5zM351 80q114 0 182.5 92.5t68.5 215.5q0 86 -45.5 142t-132.5 56q-115 0 -183.5 -91.5t-68.5 -215.5
q0 -86 48 -142.5t131 -56.5zM499 726q-28 0 -58.5 18.5t-48.5 18.5q-24 0 -56 -30l-39 45q48 67 108 67q28 0 58.5 -18.5t48.5 -18.5q32 0 57 30l41 -44q-53 -68 -111 -68z" />
    <glyph glyph-name="Odieresis" unicode="&#xd6;" horiz-adv-x="744" 
d="M344 -12q-134 0 -211.5 84t-77.5 205q0 102 45.5 193t133.5 149.5t198 58.5q138 0 212.5 -82.5t74.5 -206.5q0 -103 -44.5 -193.5t-132 -149t-198.5 -58.5zM351 80q114 0 182.5 92.5t68.5 215.5q0 86 -45.5 142t-132.5 56q-115 0 -183.5 -91.5t-68.5 -215.5
q0 -86 48 -142.5t131 -56.5zM352 724q-26 0 -43.5 17.5t-17.5 43.5t17.5 43.5t43.5 17.5q27 0 45 -17.5t18 -43.5t-18 -43.5t-45 -17.5zM549 724q-26 0 -43.5 17.5t-17.5 43.5t17.5 43.5t43.5 17.5q27 0 45 -17.5t18 -43.5t-18 -43.5t-45 -17.5z" />
    <glyph glyph-name="multiply" unicode="&#xd7;" horiz-adv-x="438" 
d="M309 71l-107 129l-146 -123l-51 62l145 124l-102 125l76 65l103 -125l146 124l51 -63l-145 -123l107 -130z" />
    <glyph glyph-name="Oslash" unicode="&#xd8;" horiz-adv-x="744" 
d="M85 -73l-58 50l95 108q-65 79 -65 192q0 101 45.5 192t133 150t196.5 59q98 0 167 -44l83 95l58 -49l-85 -97q65 -79 65 -194q0 -76 -26.5 -148t-74 -128.5t-119.5 -90.5t-156 -34q-96 0 -166 46zM351 79q115 0 184 92.5t69 216.5q0 63 -26 112l-335 -387q43 -34 108 -34
zM173 279q0 -64 25 -111l334 386q-44 33 -108 33q-114 0 -182.5 -92t-68.5 -216z" />
    <glyph glyph-name="Ugrave" unicode="&#xd9;" horiz-adv-x="689" 
d="M316 -12q-118 0 -178 54.5t-60 150.5q0 31 6 65l72 408h111l-71 -401q-6 -35 -6 -62q0 -62 33 -91.5t102 -29.5q80 0 122.5 43t59.5 135l72 406h103l-75 -417q-23 -130 -92.5 -195.5t-198.5 -65.5zM372 722l-109 131h134l64 -131h-89z" />
    <glyph glyph-name="Uacute" unicode="&#xda;" horiz-adv-x="689" 
d="M316 -12q-118 0 -178 54.5t-60 150.5q0 31 6 65l72 408h111l-71 -401q-6 -35 -6 -62q0 -62 33 -91.5t102 -29.5q80 0 122.5 43t59.5 135l72 406h103l-75 -417q-23 -130 -92.5 -195.5t-198.5 -65.5zM373 722l108 131h143l-156 -131h-95z" />
    <glyph glyph-name="Ucircumflex" unicode="&#xdb;" horiz-adv-x="689" 
d="M316 -12q-118 0 -178 54.5t-60 150.5q0 31 6 65l72 408h111l-71 -401q-6 -35 -6 -62q0 -62 33 -91.5t102 -29.5q80 0 122.5 43t59.5 135l72 406h103l-75 -417q-23 -130 -92.5 -195.5t-198.5 -65.5zM259 723l150 156h77l94 -156h-86l-57 77l-84 -77h-94z" />
    <glyph glyph-name="Udieresis" unicode="&#xdc;" horiz-adv-x="689" 
d="M316 -12q-118 0 -178 54.5t-60 150.5q0 31 6 65l72 408h111l-71 -401q-6 -35 -6 -62q0 -62 33 -91.5t102 -29.5q80 0 122.5 43t59.5 135l72 406h103l-75 -417q-23 -130 -92.5 -195.5t-198.5 -65.5zM328 724q-26 0 -43.5 17.5t-17.5 43.5t17.5 43.5t43.5 17.5
q27 0 45 -17.5t18 -43.5t-18 -43.5t-45 -17.5zM525 724q-26 0 -43.5 17.5t-17.5 43.5t17.5 43.5t43.5 17.5q27 0 45 -17.5t18 -43.5t-18 -43.5t-45 -17.5z" />
    <glyph glyph-name="Yacute" unicode="&#xdd;" horiz-adv-x="571" 
d="M191 0l45 251l-147 415h115l105 -312h1l203 312h115l-281 -416l-45 -250h-111zM315 722l108 131h143l-156 -131h-95z" />
    <glyph glyph-name="Thorn" unicode="&#xde;" horiz-adv-x="559" 
d="M43 0l118 666h111l-19 -112h78q98 0 156.5 -45t58.5 -127q0 -116 -79.5 -179.5t-211.5 -63.5h-76l-25 -139h-111zM195 228h72q82 0 123 37.5t41 103.5q0 96 -119 96h-75z" />
    <glyph glyph-name="germandbls" unicode="&#xdf;" horiz-adv-x="529" 
d="M-84 -230q-43 0 -85 17l30 82q29 -12 60 -12q71 0 89 107l101 551q40 217 250 217q77 0 121 -41t44 -104q0 -44 -18.5 -78.5t-44.5 -56t-52 -39.5t-44.5 -36.5t-18.5 -38.5q0 -14 14.5 -29t35 -30.5t41.5 -33.5t35.5 -45.5t14.5 -58.5q0 -71 -47 -112t-133 -41
q-76 0 -129 32l39 76q39 -27 88 -27q39 0 61 18.5t22 50.5q0 22 -22 44.5t-48.5 39.5t-48.5 45t-22 60q0 31 18 57t43.5 45.5l51 39t43.5 46t18 58.5q0 36 -19 56t-56 20q-108 0 -134 -135l-100 -546q-18 -103 -62 -150.5t-136 -47.5z" />
    <glyph glyph-name="agrave" unicode="&#xe0;" horiz-adv-x="504" 
d="M150 -12q-57 0 -89.5 41.5t-32.5 112.5q0 150 82 252.5t215 102.5q96 0 154 -25l-44 -240q-30 -168 -30 -232h-102q7 76 20 132h-2q-35 -68 -74.5 -106t-96.5 -38zM187 79q51 0 100.5 84.5t70.5 207.5l5 36q-23 7 -56 7q-74 0 -123 -74.5t-49 -180.5q0 -80 52 -80z
M276 541l-109 131h134l64 -131h-89z" />
    <glyph glyph-name="aacute" unicode="&#xe1;" horiz-adv-x="504" 
d="M150 -12q-57 0 -89.5 41.5t-32.5 112.5q0 150 82 252.5t215 102.5q96 0 154 -25l-44 -240q-30 -168 -30 -232h-102q7 76 20 132h-2q-35 -68 -74.5 -106t-96.5 -38zM187 79q51 0 100.5 84.5t70.5 207.5l5 36q-23 7 -56 7q-74 0 -123 -74.5t-49 -180.5q0 -80 52 -80z
M277 541l108 131h143l-156 -131h-95z" />
    <glyph glyph-name="acircumflex" unicode="&#xe2;" horiz-adv-x="504" 
d="M150 -12q-57 0 -89.5 41.5t-32.5 112.5q0 150 82 252.5t215 102.5q96 0 154 -25l-44 -240q-30 -168 -30 -232h-102q7 76 20 132h-2q-35 -68 -74.5 -106t-96.5 -38zM187 79q51 0 100.5 84.5t70.5 207.5l5 36q-23 7 -56 7q-74 0 -123 -74.5t-49 -180.5q0 -80 52 -80z
M163 542l150 156h77l94 -156h-86l-57 77l-84 -77h-94z" />
    <glyph glyph-name="atilde" unicode="&#xe3;" horiz-adv-x="504" 
d="M150 -12q-57 0 -89.5 41.5t-32.5 112.5q0 150 82 252.5t215 102.5q96 0 154 -25l-44 -240q-30 -168 -30 -232h-102q7 76 20 132h-2q-35 -68 -74.5 -106t-96.5 -38zM187 79q51 0 100.5 84.5t70.5 207.5l5 36q-23 7 -56 7q-74 0 -123 -74.5t-49 -180.5q0 -80 52 -80z
M379 545q-28 0 -58.5 18.5t-48.5 18.5q-24 0 -56 -30l-39 45q48 67 108 67q28 0 58.5 -18.5t48.5 -18.5q32 0 57 30l41 -44q-53 -68 -111 -68z" />
    <glyph glyph-name="adieresis" unicode="&#xe4;" horiz-adv-x="504" 
d="M150 -12q-57 0 -89.5 41.5t-32.5 112.5q0 150 82 252.5t215 102.5q96 0 154 -25l-44 -240q-30 -168 -30 -232h-102q7 76 20 132h-2q-35 -68 -74.5 -106t-96.5 -38zM187 79q51 0 100.5 84.5t70.5 207.5l5 36q-23 7 -56 7q-74 0 -123 -74.5t-49 -180.5q0 -80 52 -80z
M233 543q-26 0 -43.5 17.5t-17.5 43.5t17.5 43.5t43.5 17.5q27 0 45 -17.5t18 -43.5t-18 -43.5t-45 -17.5zM430 543q-26 0 -43.5 17.5t-17.5 43.5t17.5 43.5t43.5 17.5q27 0 45 -17.5t18 -43.5t-18 -43.5t-45 -17.5z" />
    <glyph glyph-name="aring" unicode="&#xe5;" horiz-adv-x="504" 
d="M150 -12q-57 0 -89.5 41.5t-32.5 112.5q0 150 82 252.5t215 102.5q96 0 154 -25l-44 -240q-30 -168 -30 -232h-102q7 76 20 132h-2q-35 -68 -74.5 -106t-96.5 -38zM187 79q51 0 100.5 84.5t70.5 207.5l5 36q-23 7 -56 7q-74 0 -123 -74.5t-49 -180.5q0 -80 52 -80z
M333 542q-42 0 -72 28.5t-30 71.5q0 44 30 73t72 29t72 -28.5t30 -72.5q0 -43 -30.5 -72t-71.5 -29zM333 591q22 0 34.5 15t12.5 37q0 23 -12.5 38t-34.5 15t-34.5 -15t-12.5 -38q0 -22 12.5 -37t34.5 -15z" />
    <glyph glyph-name="ae" unicode="&#xe6;" horiz-adv-x="712" 
d="M145 -12q-62 0 -101 34.5t-39 88.5q0 103 109 144q67 25 175 25h16q15 45 15 74q0 55 -72 55q-69 0 -132 -47l-44 69q84 66 189 66q101 0 138 -64q72 64 160 64q64 0 101.5 -31t37.5 -88q0 -85 -82.5 -127t-219.5 -47q-2 -22 -1 -34q3 -95 83 -95q65 0 125 54l46 -69
q-79 -72 -187 -72q-102 0 -145 77q-75 -77 -172 -77zM170 70q70 0 123 58q-2 13 -4 35q0 32 3 48h-12q-75 0 -115 -16q-53 -21 -53 -74q0 -51 58 -51zM406 274q88 2 138.5 25.5t50.5 66.5q0 46 -53 46q-42 0 -80.5 -37t-55.5 -101z" />
    <glyph glyph-name="ccedilla" unicode="&#xe7;" horiz-adv-x="418" 
d="M149 -225q-44 0 -75 13l18 51q20 -10 49 -10q48 0 48 37q0 43 -71 39l33 89q-61 14 -94 62.5t-33 122.5q0 137 83 227.5t195 90.5q77 0 122 -33l-46 -79q-33 23 -82 23q-66 0 -116 -60.5t-50 -156.5q0 -115 85 -115q55 0 106 48l48 -69q-66 -61 -155 -66l-18 -49
q32 -5 51.5 -25.5t19.5 -51.5q0 -40 -33 -64t-85 -24z" />
    <glyph glyph-name="egrave" unicode="&#xe8;" horiz-adv-x="446" 
d="M199 -12q-85 0 -129.5 51.5t-44.5 133.5q0 136 79 230t191 94q64 0 101.5 -31t37.5 -88q0 -154 -304 -192q0 -111 84 -111q65 0 125 54l47 -69q-81 -72 -187 -72zM278 412q-48 0 -86 -44t-54 -110q88 10 140.5 37.5t52.5 70.5q0 46 -53 46zM241 541l-109 131h134l64 -131
h-89z" />
    <glyph glyph-name="eacute" unicode="&#xe9;" horiz-adv-x="446" 
d="M199 -12q-85 0 -129.5 51.5t-44.5 133.5q0 136 79 230t191 94q64 0 101.5 -31t37.5 -88q0 -154 -304 -192q0 -111 84 -111q65 0 125 54l47 -69q-81 -72 -187 -72zM278 412q-48 0 -86 -44t-54 -110q88 10 140.5 37.5t52.5 70.5q0 46 -53 46zM240 541l108 131h143
l-156 -131h-95z" />
    <glyph glyph-name="ecircumflex" unicode="&#xea;" horiz-adv-x="446" 
d="M199 -12q-85 0 -129.5 51.5t-44.5 133.5q0 136 79 230t191 94q64 0 101.5 -31t37.5 -88q0 -154 -304 -192q0 -111 84 -111q65 0 125 54l47 -69q-81 -72 -187 -72zM278 412q-48 0 -86 -44t-54 -110q88 10 140.5 37.5t52.5 70.5q0 46 -53 46zM128 542l150 156h77l94 -156
h-86l-57 77l-84 -77h-94z" />
    <glyph glyph-name="edieresis" unicode="&#xeb;" horiz-adv-x="446" 
d="M199 -12q-85 0 -129.5 51.5t-44.5 133.5q0 136 79 230t191 94q64 0 101.5 -31t37.5 -88q0 -154 -304 -192q0 -111 84 -111q65 0 125 54l47 -69q-81 -72 -187 -72zM278 412q-48 0 -86 -44t-54 -110q88 10 140.5 37.5t52.5 70.5q0 46 -53 46zM197 543q-26 0 -43.5 17.5
t-17.5 43.5t17.5 43.5t43.5 17.5q27 0 45 -17.5t18 -43.5t-18 -43.5t-45 -17.5zM394 543q-26 0 -43.5 17.5t-17.5 43.5t17.5 43.5t43.5 17.5q27 0 45 -17.5t18 -43.5t-18 -43.5t-45 -17.5z" />
    <glyph glyph-name="igrave" unicode="&#xec;" horiz-adv-x="249" 
d="M28 0l88 484h104l-88 -484h-104zM128 541l-109 131h134l64 -131h-89z" />
    <glyph glyph-name="iacute" unicode="&#xed;" horiz-adv-x="249" 
d="M28 0l88 484h104l-88 -484h-104zM128 541l108 131h143l-156 -131h-95z" />
    <glyph glyph-name="icircumflex" unicode="&#xee;" horiz-adv-x="249" 
d="M28 0l88 484h104l-88 -484h-104zM15 542l150 156h77l94 -156h-86l-57 77l-84 -77h-94z" />
    <glyph glyph-name="idieresis" unicode="&#xef;" horiz-adv-x="249" 
d="M28 0l88 484h104l-88 -484h-104zM84 543q-26 0 -43.5 17.5t-17.5 43.5t17.5 43.5t43.5 17.5q27 0 45 -17.5t18 -43.5t-18 -43.5t-45 -17.5zM281 543q-26 0 -43.5 17.5t-17.5 43.5t17.5 43.5t43.5 17.5q27 0 45 -17.5t18 -43.5t-18 -43.5t-45 -17.5z" />
    <glyph glyph-name="eth" unicode="&#xf0;" horiz-adv-x="494" 
d="M213 -12q-82 0 -134.5 53.5t-52.5 144.5q0 132 75.5 216.5t176.5 84.5q54 0 90 -32q-12 89 -57 132l-75 -59l-39 47l59 48q-54 25 -135 25l31 84q108 0 182 -45l84 68l40 -48l-73 -58q94 -89 94 -265q0 -77 -15.5 -145.5t-46.5 -126t-83.5 -91t-120.5 -33.5zM222 70
q69 0 108.5 86.5t42.5 208.5q-33 41 -94 41q-62 0 -104 -60.5t-42 -155.5q0 -120 89 -120z" />
    <glyph glyph-name="ntilde" unicode="&#xf1;" horiz-adv-x="522" 
d="M23 0l88 484h100q-8 -60 -26 -132h2q16 28 30.5 48.5t37.5 45t54 38t66 13.5q51 0 77.5 -31.5t26.5 -89.5q0 -30 -5 -55l-59 -321h-103l55 314q4 20 4 38q0 52 -42 52q-55 0 -108 -86.5t-86 -270.5l-8 -47h-104zM364 545q-28 0 -58.5 18.5t-48.5 18.5q-23 0 -56 -30
l-39 45q48 67 108 67q28 0 58.5 -18.5t48.5 -18.5q32 0 57 30l41 -44q-53 -68 -111 -68z" />
    <glyph glyph-name="ograve" unicode="&#xf2;" horiz-adv-x="498" 
d="M210 -12q-89 0 -136.5 58.5t-47.5 142.5q0 123 75.5 215.5t186.5 92.5q88 0 136 -57t48 -144q0 -128 -75 -218t-187 -90zM218 70q65 0 107 70t42 150q0 124 -87 124q-64 0 -107 -70.5t-43 -151.5q0 -56 22.5 -89t65.5 -33zM245 541l-109 131h134l64 -131h-89z" />
    <glyph glyph-name="oacute" unicode="&#xf3;" horiz-adv-x="498" 
d="M210 -12q-89 0 -136.5 58.5t-47.5 142.5q0 123 75.5 215.5t186.5 92.5q88 0 136 -57t48 -144q0 -128 -75 -218t-187 -90zM218 70q65 0 107 70t42 150q0 124 -87 124q-64 0 -107 -70.5t-43 -151.5q0 -56 22.5 -89t65.5 -33zM244 541l108 131h143l-156 -131h-95z" />
    <glyph glyph-name="ocircumflex" unicode="&#xf4;" horiz-adv-x="498" 
d="M210 -12q-89 0 -136.5 58.5t-47.5 142.5q0 123 75.5 215.5t186.5 92.5q88 0 136 -57t48 -144q0 -128 -75 -218t-187 -90zM218 70q65 0 107 70t42 150q0 124 -87 124q-64 0 -107 -70.5t-43 -151.5q0 -56 22.5 -89t65.5 -33zM131 542l150 156h77l94 -156h-86l-57 77
l-84 -77h-94z" />
    <glyph glyph-name="otilde" unicode="&#xf5;" horiz-adv-x="498" 
d="M210 -12q-89 0 -136.5 58.5t-47.5 142.5q0 123 75.5 215.5t186.5 92.5q88 0 136 -57t48 -144q0 -128 -75 -218t-187 -90zM218 70q65 0 107 70t42 150q0 124 -87 124q-64 0 -107 -70.5t-43 -151.5q0 -56 22.5 -89t65.5 -33zM348 545q-28 0 -58.5 18.5t-48.5 18.5
q-23 0 -56 -30l-39 45q48 67 108 67q28 0 58.5 -18.5t48.5 -18.5q32 0 57 30l41 -44q-53 -68 -111 -68z" />
    <glyph glyph-name="odieresis" unicode="&#xf6;" horiz-adv-x="498" 
d="M210 -12q-89 0 -136.5 58.5t-47.5 142.5q0 123 75.5 215.5t186.5 92.5q88 0 136 -57t48 -144q0 -128 -75 -218t-187 -90zM218 70q65 0 107 70t42 150q0 124 -87 124q-64 0 -107 -70.5t-43 -151.5q0 -56 22.5 -89t65.5 -33zM201 543q-26 0 -43.5 17.5t-17.5 43.5
t17.5 43.5t43.5 17.5q27 0 45 -17.5t18 -43.5t-18 -43.5t-45 -17.5zM398 543q-26 0 -43.5 17.5t-17.5 43.5t17.5 43.5t43.5 17.5q27 0 45 -17.5t18 -43.5t-18 -43.5t-45 -17.5z" />
    <glyph glyph-name="divide" unicode="&#xf7;" horiz-adv-x="572" 
d="M269 27q-28 0 -47 19t-19 46q0 26 19 45t47 19q26 0 45 -19t19 -45q0 -27 -19 -46t-45 -19zM331 371q-27 0 -46 19t-19 46q0 26 19 45t46 19t46 -19t19 -45q0 -27 -19 -46t-46 -19zM54 223l14 82h495l-14 -82h-495z" />
    <glyph glyph-name="oslash" unicode="&#xf8;" horiz-adv-x="498" 
d="M36 -65l-53 43l75 89q-32 51 -32 122q0 123 75.5 215.5t186.5 92.5q63 0 108 -32l81 95l53 -42l-88 -104q30 -50 30 -118q0 -128 -75 -218t-187 -90q-60 0 -104 29zM129 192q0 -27 4 -44l206 243q-23 24 -59 24q-64 0 -107.5 -71t-43.5 -152zM218 69q65 0 107.5 70.5
t42.5 150.5q0 21 -3 39l-203 -239q21 -21 56 -21z" />
    <glyph glyph-name="ugrave" unicode="&#xf9;" horiz-adv-x="522" 
d="M146 -13q-51 0 -77.5 31.5t-26.5 89.5q0 30 5 55l59 321h104l-56 -314q-4 -20 -4 -38q0 -52 42 -52q53 0 106.5 83.5t84.5 258.5l12 62h103l-45 -252q-28 -158 -32 -232h-102q10 90 22 140h-2q-17 -30 -32 -52t-39.5 -47.5t-55.5 -39.5t-66 -14zM259 541l-109 131h134
l64 -131h-89z" />
    <glyph glyph-name="uacute" unicode="&#xfa;" horiz-adv-x="522" 
d="M146 -13q-51 0 -77.5 31.5t-26.5 89.5q0 30 5 55l59 321h104l-56 -314q-4 -20 -4 -38q0 -52 42 -52q53 0 106.5 83.5t84.5 258.5l12 62h103l-45 -252q-28 -158 -32 -232h-102q10 90 22 140h-2q-17 -30 -32 -52t-39.5 -47.5t-55.5 -39.5t-66 -14zM259 541l108 131h143
l-156 -131h-95z" />
    <glyph glyph-name="ucircumflex" unicode="&#xfb;" horiz-adv-x="522" 
d="M146 -13q-51 0 -77.5 31.5t-26.5 89.5q0 30 5 55l59 321h104l-56 -314q-4 -20 -4 -38q0 -52 42 -52q53 0 106.5 83.5t84.5 258.5l12 62h103l-45 -252q-28 -158 -32 -232h-102q10 90 22 140h-2q-17 -30 -32 -52t-39.5 -47.5t-55.5 -39.5t-66 -14zM145 542l150 156h77
l94 -156h-86l-57 77l-84 -77h-94z" />
    <glyph glyph-name="udieresis" unicode="&#xfc;" horiz-adv-x="522" 
d="M146 -13q-51 0 -77.5 31.5t-26.5 89.5q0 30 5 55l59 321h104l-56 -314q-4 -20 -4 -38q0 -52 42 -52q53 0 106.5 83.5t84.5 258.5l12 62h103l-45 -252q-28 -158 -32 -232h-102q10 90 22 140h-2q-17 -30 -32 -52t-39.5 -47.5t-55.5 -39.5t-66 -14zM214 543
q-26 0 -43.5 17.5t-17.5 43.5t17.5 43.5t43.5 17.5q27 0 45 -17.5t18 -43.5t-18 -43.5t-45 -17.5zM411 543q-26 0 -43.5 17.5t-17.5 43.5t17.5 43.5t43.5 17.5q27 0 45 -17.5t18 -43.5t-18 -43.5t-45 -17.5z" />
    <glyph glyph-name="yacute" unicode="&#xfd;" horiz-adv-x="471" 
d="M-2 -223q-59 0 -89 18l38 83q25 -11 57 -11q43 0 74.5 26.5t71.5 98.5l-97 492h109l52 -311q2 -15 4.5 -40t3.5 -30h2q1 4 5.5 17.5t9.5 27t10 25.5l142 311h109l-211 -420q-79 -161 -138.5 -224t-152.5 -63zM228 541l108 131h143l-156 -131h-95z" />
    <glyph glyph-name="thorn" unicode="&#xfe;" horiz-adv-x="509" 
d="M-20 -218l170 938h104l-44 -238q-12 -62 -29 -126h2q37 67 77.5 104t99.5 37q58 0 89.5 -44.5t31.5 -116.5q0 -149 -80 -248.5t-207 -99.5q-40 0 -71 7l-39 -213h-104zM197 68q78 0 127 72t49 181q0 84 -50 84q-55 0 -104.5 -84.5t-73.5 -207.5l-7 -38q31 -7 59 -7z" />
    <glyph glyph-name="ydieresis" unicode="&#xff;" horiz-adv-x="471" 
d="M-2 -223q-59 0 -89 18l38 83q25 -11 57 -11q43 0 74.5 26.5t71.5 98.5l-97 492h109l52 -311q2 -15 4.5 -40t3.5 -30h2q1 4 5.5 17.5t9.5 27t10 25.5l142 311h109l-211 -420q-79 -161 -138.5 -224t-152.5 -63zM185 543q-26 0 -43.5 17.5t-17.5 43.5t17.5 43.5t43.5 17.5
q27 0 45 -17.5t18 -43.5t-18 -43.5t-45 -17.5zM382 543q-26 0 -43.5 17.5t-17.5 43.5t17.5 43.5t43.5 17.5q27 0 45 -17.5t18 -43.5t-18 -43.5t-45 -17.5z" />
    <glyph glyph-name="Amacron" unicode="&#x100;" horiz-adv-x="636" 
d="M213 235h209l-30 189q-10 62 -16 121h-2q-19 -47 -58 -121zM-25 0l371 666h107l122 -666h-116l-23 143h-270l-77 -143h-114zM269 748l14 80h275l-14 -80h-275z" />
    <glyph glyph-name="amacron" unicode="&#x101;" horiz-adv-x="504" 
d="M150 -12q-57 0 -89.5 41.5t-32.5 112.5q0 150 82 252.5t215 102.5q96 0 154 -25l-44 -240q-30 -168 -30 -232h-102q7 76 20 132h-2q-35 -68 -74.5 -106t-96.5 -38zM187 79q51 0 100.5 84.5t70.5 207.5l5 36q-23 7 -56 7q-74 0 -123 -74.5t-49 -180.5q0 -80 52 -80z
M192 567l14 80h275l-14 -80h-275z" />
    <glyph glyph-name="Abreve" unicode="&#x102;" horiz-adv-x="636" 
d="M213 235h209l-30 189q-10 62 -16 121h-2q-19 -47 -58 -121zM-25 0l371 666h107l122 -666h-116l-23 143h-270l-77 -143h-114zM412 714q-61 0 -99.5 33.5t-38.5 96.5l1 17h85l-1 -12q0 -62 57 -62q28 0 49 19.5t28 54.5h89q-17 -74 -64.5 -110.5t-105.5 -36.5z" />
    <glyph glyph-name="abreve" unicode="&#x103;" horiz-adv-x="504" 
d="M150 -12q-57 0 -89.5 41.5t-32.5 112.5q0 150 82 252.5t215 102.5q96 0 154 -25l-44 -240q-30 -168 -30 -232h-102q7 76 20 132h-2q-35 -68 -74.5 -106t-96.5 -38zM187 79q51 0 100.5 84.5t70.5 207.5l5 36q-23 7 -56 7q-74 0 -123 -74.5t-49 -180.5q0 -80 52 -80z
M335 533q-61 0 -99.5 33.5t-38.5 96.5l1 17h85l-1 -12q0 -62 57 -62q28 0 49 19.5t28 54.5h89q-17 -74 -64.5 -110.5t-105.5 -36.5z" />
    <glyph glyph-name="Aogonek" unicode="&#x104;" horiz-adv-x="636" 
d="M466 -225q-47 0 -72.5 22t-25.5 58q0 74 91 145l-23 143h-270l-77 -143h-114l371 666h107l122 -666h-16q-36 0 -73 -43t-37 -84q0 -37 42 -37q18 0 43 7l8 -51q-32 -17 -76 -17zM213 235h209l-30 189q-10 62 -16 121h-2q-19 -47 -58 -121z" />
    <glyph glyph-name="aogonek" unicode="&#x105;" horiz-adv-x="504" 
d="M310 -225q-47 0 -73 22t-26 58q0 74 92 145q7 76 20 132h-2q-35 -68 -74.5 -106t-96.5 -38t-89.5 41.5t-32.5 112.5q0 150 82 252.5t215 102.5q96 0 154 -25l-44 -240q-30 -168 -30 -232h-6q-34 0 -70.5 -43.5t-36.5 -83.5q0 -37 42 -37q20 0 43 7l9 -51q-32 -17 -76 -17
zM187 79q51 0 100.5 84.5t70.5 207.5l5 36q-23 7 -56 7q-74 0 -123 -74.5t-49 -180.5q0 -80 52 -80z" />
    <glyph glyph-name="Cacute" unicode="&#x106;" horiz-adv-x="610" 
d="M332 -12q-137 0 -208 79t-71 202q0 169 111 289t278 120q123 0 189 -48l-57 -83q-53 37 -139 37q-115 0 -189.5 -89.5t-74.5 -219.5q0 -88 42.5 -140.5t128.5 -52.5q83 0 159 59l46 -80q-32 -30 -90.5 -51.5t-124.5 -21.5zM391 722l108 131h143l-156 -131h-95z" />
    <glyph glyph-name="cacute" unicode="&#x107;" horiz-adv-x="418" 
d="M202 -12q-84 0 -131 51t-47 140q0 137 83 227.5t195 90.5q77 0 122 -33l-46 -79q-33 23 -82 23q-66 0 -116 -60.5t-50 -156.5q0 -115 85 -115q55 0 106 48l48 -69q-72 -67 -167 -67zM246 541l108 131h143l-156 -131h-95z" />
    <glyph glyph-name="Ccircumflex" unicode="&#x108;" horiz-adv-x="610" 
d="M332 -12q-137 0 -208 79t-71 202q0 169 111 289t278 120q123 0 189 -48l-57 -83q-53 37 -139 37q-115 0 -189.5 -89.5t-74.5 -219.5q0 -88 42.5 -140.5t128.5 -52.5q83 0 159 59l46 -80q-32 -30 -90.5 -51.5t-124.5 -21.5zM277 723l150 156h77l94 -156h-86l-57 77
l-84 -77h-94z" />
    <glyph glyph-name="ccircumflex" unicode="&#x109;" horiz-adv-x="418" 
d="M202 -12q-84 0 -131 51t-47 140q0 137 83 227.5t195 90.5q77 0 122 -33l-46 -79q-33 23 -82 23q-66 0 -116 -60.5t-50 -156.5q0 -115 85 -115q55 0 106 48l48 -69q-72 -67 -167 -67zM133 542l150 156h77l94 -156h-86l-57 77l-84 -77h-94z" />
    <glyph glyph-name="Cdotaccent" unicode="&#x10a;" horiz-adv-x="610" 
d="M332 -12q-137 0 -208 79t-71 202q0 169 111 289t278 120q123 0 189 -48l-57 -83q-53 37 -139 37q-115 0 -189.5 -89.5t-74.5 -219.5q0 -88 42.5 -140.5t128.5 -52.5q83 0 159 59l46 -80q-32 -30 -90.5 -51.5t-124.5 -21.5zM451 739q-28 0 -46.5 19.5t-18.5 46.5t18.5 46
t46.5 19t47 -19t19 -46t-19 -46.5t-47 -19.5z" />
    <glyph glyph-name="cdotaccent" unicode="&#x10b;" horiz-adv-x="418" 
d="M202 -12q-84 0 -131 51t-47 140q0 137 83 227.5t195 90.5q77 0 122 -33l-46 -79q-33 23 -82 23q-66 0 -116 -60.5t-50 -156.5q0 -115 85 -115q55 0 106 48l48 -69q-72 -67 -167 -67zM307 558q-28 0 -46.5 19.5t-18.5 46.5t18.5 46t46.5 19t47 -19t19 -46t-19 -46.5
t-47 -19.5z" />
    <glyph glyph-name="Ccaron" unicode="&#x10c;" horiz-adv-x="610" 
d="M332 -12q-137 0 -208 79t-71 202q0 169 111 289t278 120q123 0 189 -48l-57 -83q-53 37 -139 37q-115 0 -189.5 -89.5t-74.5 -219.5q0 -88 42.5 -140.5t128.5 -52.5q83 0 159 59l46 -80q-32 -30 -90.5 -51.5t-124.5 -21.5zM400 721l-96 156h85l60 -77l88 77h93l-153 -156
h-77z" />
    <glyph glyph-name="ccaron" unicode="&#x10d;" horiz-adv-x="418" 
d="M202 -12q-84 0 -131 51t-47 140q0 137 83 227.5t195 90.5q77 0 122 -33l-46 -79q-33 23 -82 23q-66 0 -116 -60.5t-50 -156.5q0 -115 85 -115q55 0 106 48l48 -69q-72 -67 -167 -67zM256 540l-96 156h85l60 -77l88 77h93l-153 -156h-77z" />
    <glyph glyph-name="Dcaron" unicode="&#x10e;" horiz-adv-x="677" 
d="M43 0l118 666h174q160 0 240.5 -70t80.5 -192q0 -81 -26.5 -153t-76.5 -128.5t-131.5 -89.5t-183.5 -33h-195zM171 91h87q133 0 206.5 86t73.5 223q0 90 -51 132.5t-160 42.5h-71zM342 721l-96 156h85l60 -77l88 77h93l-153 -156h-77z" />
    <glyph glyph-name="dcaron" unicode="&#x10f;" horiz-adv-x="561" 
d="M152 -12q-60 0 -92 44t-32 116q0 150 81.5 249.5t208.5 99.5q33 0 68 -8l42 231h104l-89 -488q-31 -173 -31 -232h-102q10 90 20 132h-2q-78 -144 -176 -144zM185 79q55 0 106 83.5t74 208.5l6 37q-27 8 -63 8q-75 0 -124 -72.5t-49 -178.5q0 -86 50 -86zM540 543l70 177
h116l-110 -177h-76z" />
    <glyph glyph-name="Dcroat" unicode="&#x110;" horiz-adv-x="686" 
d="M51 0l54 300h-67l15 81h66l51 285h174q160 0 240 -69.5t80 -192.5q0 -81 -26 -153t-76.5 -128.5t-131.5 -89.5t-183 -33h-196zM179 91h87q134 0 207.5 86t73.5 223q0 90 -51.5 132.5t-160.5 42.5h-70l-35 -194h108l-15 -81h-107z" />
    <glyph glyph-name="dcroat" unicode="&#x111;" horiz-adv-x="507" 
d="M259 567l14 80h141l14 73h104l-14 -73h39l-14 -80h-39l-61 -335q-31 -173 -31 -232h-102q10 90 20 132h-2q-78 -144 -176 -144q-60 0 -92 44t-32 116q0 150 81.5 249.5t208.5 99.5q33 0 68 -8l14 78h-141zM185 79q55 0 106 83.5t74 208.5l6 37q-27 8 -63 8
q-75 0 -124 -72.5t-49 -178.5q0 -86 50 -86z" />
    <glyph glyph-name="Emacron" unicode="&#x112;" horiz-adv-x="510" 
d="M43 0l118 666h359l-17 -94h-248l-32 -178h219l-17 -90h-218l-37 -210h255l-17 -94h-365zM205 748l14 80h275l-14 -80h-275z" />
    <glyph glyph-name="emacron" unicode="&#x113;" horiz-adv-x="446" 
d="M199 -12q-85 0 -129.5 51.5t-44.5 133.5q0 136 79 230t191 94q64 0 101.5 -31t37.5 -88q0 -154 -304 -192q0 -111 84 -111q65 0 125 54l47 -69q-81 -72 -187 -72zM278 412q-48 0 -86 -44t-54 -110q88 10 140.5 37.5t52.5 70.5q0 46 -53 46zM156 567l14 80h275l-14 -80
h-275z" />
    <glyph glyph-name="Ebreve" unicode="&#x114;" horiz-adv-x="510" 
d="M43 0l118 666h359l-17 -94h-248l-32 -178h219l-17 -90h-218l-37 -210h255l-17 -94h-365zM349 714q-61 0 -99.5 33.5t-38.5 96.5l1 17h85l-1 -12q0 -62 57 -62q28 0 49 19.5t28 54.5h89q-17 -74 -64.5 -110.5t-105.5 -36.5z" />
    <glyph glyph-name="ebreve" unicode="&#x115;" horiz-adv-x="446" 
d="M199 -12q-85 0 -129.5 51.5t-44.5 133.5q0 136 79 230t191 94q64 0 101.5 -31t37.5 -88q0 -154 -304 -192q0 -111 84 -111q65 0 125 54l47 -69q-81 -72 -187 -72zM278 412q-48 0 -86 -44t-54 -110q88 10 140.5 37.5t52.5 70.5q0 46 -53 46zM300 533q-61 0 -99.5 33.5
t-38.5 96.5l1 17h85l-1 -12q0 -62 57 -62q28 0 49 19.5t28 54.5h89q-17 -74 -64.5 -110.5t-105.5 -36.5z" />
    <glyph glyph-name="Edotaccent" unicode="&#x116;" horiz-adv-x="510" 
d="M43 0l118 666h359l-17 -94h-248l-32 -178h219l-17 -90h-218l-37 -210h255l-17 -94h-365zM350 739q-28 0 -46.5 19.5t-18.5 46.5t18.5 46t46.5 19t47 -19t19 -46t-19 -46.5t-47 -19.5z" />
    <glyph glyph-name="edotaccent" unicode="&#x117;" horiz-adv-x="446" 
d="M199 -12q-85 0 -129.5 51.5t-44.5 133.5q0 136 79 230t191 94q64 0 101.5 -31t37.5 -88q0 -154 -304 -192q0 -111 84 -111q65 0 125 54l47 -69q-81 -72 -187 -72zM278 412q-48 0 -86 -44t-54 -110q88 10 140.5 37.5t52.5 70.5q0 46 -53 46zM301 558q-28 0 -46.5 19.5
t-18.5 46.5t18.5 46t46.5 19t47 -19t19 -46t-19 -46.5t-47 -19.5z" />
    <glyph glyph-name="Eogonek" unicode="&#x118;" horiz-adv-x="510" 
d="M294 -225q-47 0 -73 22t-26 58q0 44 32.5 86.5t69.5 58.5h-254l118 666h359l-17 -94h-248l-32 -178h219l-17 -90h-218l-37 -210h255l-17 -94h-17q-39 0 -76.5 -42.5t-37.5 -84.5q0 -37 41 -37q20 0 43 7l9 -51q-32 -17 -76 -17z" />
    <glyph glyph-name="eogonek" unicode="&#x119;" horiz-adv-x="446" 
d="M270 -225q-47 0 -73 22t-26 58q0 41 27.5 80t64.5 65q-31 -12 -64 -12q-85 0 -129.5 51.5t-44.5 133.5q0 136 79 230t191 94q64 0 101.5 -31t37.5 -88q0 -154 -304 -192q0 -111 84 -111q65 0 125 54l47 -69l-59 -60q-75 -75 -75 -127q0 -37 42 -37q20 0 43 7l9 -51
q-32 -17 -76 -17zM278 412q-48 0 -86 -44t-54 -110q88 10 140.5 37.5t52.5 70.5q0 46 -53 46z" />
    <glyph glyph-name="Ecaron" unicode="&#x11a;" horiz-adv-x="510" 
d="M43 0l118 666h359l-17 -94h-248l-32 -178h219l-17 -90h-218l-37 -210h255l-17 -94h-365zM299 721l-96 156h85l60 -77l88 77h93l-153 -156h-77z" />
    <glyph glyph-name="ecaron" unicode="&#x11b;" horiz-adv-x="446" 
d="M199 -12q-85 0 -129.5 51.5t-44.5 133.5q0 136 79 230t191 94q64 0 101.5 -31t37.5 -88q0 -154 -304 -192q0 -111 84 -111q65 0 125 54l47 -69q-81 -72 -187 -72zM278 412q-48 0 -86 -44t-54 -110q88 10 140.5 37.5t52.5 70.5q0 46 -53 46zM250 540l-96 156h85l60 -77
l88 77h93l-153 -156h-77z" />
    <glyph glyph-name="Gcircumflex" unicode="&#x11c;" horiz-adv-x="696" 
d="M351 -12q-143 0 -220 79.5t-77 204.5q0 168 114.5 287t284.5 119q131 0 209 -54l-61 -85q-60 45 -158 45q-122 0 -196.5 -88.5t-74.5 -221.5q0 -89 46.5 -141.5t137.5 -52.5q73 0 137 32l27 158h-132l16 90h240l-55 -307q-95 -65 -238 -65zM294 723l150 156h77l94 -156
h-86l-57 77l-84 -77h-94z" />
    <glyph glyph-name="gcircumflex" unicode="&#x11d;" horiz-adv-x="503" 
d="M154 -229q-90 0 -166 53l50 80q58 -44 120 -44t95 35t46 106l6 33q12 60 23 94h-2q-36 -64 -76.5 -101t-97.5 -37q-60 0 -92 44t-32 114q0 152 81.5 250.5t213.5 98.5q91 0 165 -21l-87 -471q-23 -125 -80 -179.5t-167 -54.5zM185 79q56 0 106.5 83t73.5 209l6 37
q-27 8 -63 8q-75 0 -124 -72.5t-49 -178.5q0 -86 50 -86zM167 542l150 156h77l94 -156h-86l-57 77l-84 -77h-94z" />
    <glyph glyph-name="Gbreve" unicode="&#x11e;" horiz-adv-x="696" 
d="M351 -12q-143 0 -220 79.5t-77 204.5q0 168 114.5 287t284.5 119q131 0 209 -54l-61 -85q-60 45 -158 45q-122 0 -196.5 -88.5t-74.5 -221.5q0 -89 46.5 -141.5t137.5 -52.5q73 0 137 32l27 158h-132l16 90h240l-55 -307q-95 -65 -238 -65zM457 714q-61 0 -99.5 33.5
t-38.5 96.5l1 17h85l-1 -12q0 -62 57 -62q28 0 49 19.5t28 54.5h89q-17 -74 -64.5 -110.5t-105.5 -36.5z" />
    <glyph glyph-name="gbreve" unicode="&#x11f;" horiz-adv-x="503" 
d="M154 -229q-90 0 -166 53l50 80q58 -44 120 -44t95 35t46 106l6 33q12 60 23 94h-2q-36 -64 -76.5 -101t-97.5 -37q-60 0 -92 44t-32 114q0 152 81.5 250.5t213.5 98.5q91 0 165 -21l-87 -471q-23 -125 -80 -179.5t-167 -54.5zM185 79q56 0 106.5 83t73.5 209l6 37
q-27 8 -63 8q-75 0 -124 -72.5t-49 -178.5q0 -86 50 -86zM333 533q-61 0 -99.5 33.5t-38.5 96.5l1 17h85l-1 -12q0 -62 57 -62q28 0 49 19.5t28 54.5h89q-17 -74 -64.5 -110.5t-105.5 -36.5z" />
    <glyph glyph-name="Gdotaccent" unicode="&#x120;" horiz-adv-x="696" 
d="M351 -12q-143 0 -220 79.5t-77 204.5q0 168 114.5 287t284.5 119q131 0 209 -54l-61 -85q-60 45 -158 45q-122 0 -196.5 -88.5t-74.5 -221.5q0 -89 46.5 -141.5t137.5 -52.5q73 0 137 32l27 158h-132l16 90h240l-55 -307q-95 -65 -238 -65zM468 739q-28 0 -46.5 19.5
t-18.5 46.5t18.5 46t46.5 19t47 -19t19 -46t-19 -46.5t-47 -19.5z" />
    <glyph glyph-name="gdotaccent" unicode="&#x121;" horiz-adv-x="503" 
d="M154 -229q-90 0 -166 53l50 80q58 -44 120 -44t95 35t46 106l6 33q12 60 23 94h-2q-36 -64 -76.5 -101t-97.5 -37q-60 0 -92 44t-32 114q0 152 81.5 250.5t213.5 98.5q91 0 165 -21l-87 -471q-23 -125 -80 -179.5t-167 -54.5zM185 79q56 0 106.5 83t73.5 209l6 37
q-27 8 -63 8q-75 0 -124 -72.5t-49 -178.5q0 -86 50 -86zM341 558q-28 0 -46.5 19.5t-18.5 46.5t18.5 46t46.5 19t47 -19t19 -46t-19 -46.5t-47 -19.5z" />
    <glyph glyph-name="Gcommaaccent" unicode="&#x122;" horiz-adv-x="696" 
d="M351 -12q-143 0 -220 79.5t-77 204.5q0 168 114.5 287t284.5 119q131 0 209 -54l-61 -85q-60 45 -158 45q-122 0 -196.5 -88.5t-74.5 -221.5q0 -89 46.5 -141.5t137.5 -52.5q73 0 137 32l27 158h-132l16 90h240l-55 -307q-95 -65 -238 -65zM257 -224q39 37 39 64
q0 12 -11.5 28.5t-11.5 29.5q0 24 18 40.5t44 16.5q23 0 38 -14t15 -37q0 -59 -76 -128h-55z" />
    <glyph glyph-name="gcommaaccent" unicode="&#x123;" horiz-adv-x="503" 
d="M154 -229q-90 0 -166 53l50 80q58 -44 120 -44t95 35t46 106l6 33q12 60 23 94h-2q-36 -64 -76.5 -101t-97.5 -37q-60 0 -92 44t-32 114q0 152 81.5 250.5t213.5 98.5q91 0 165 -21l-87 -471q-23 -125 -80 -179.5t-167 -54.5zM185 79q56 0 106.5 83t73.5 209l6 37
q-27 8 -63 8q-75 0 -124 -72.5t-49 -178.5q0 -86 50 -86zM403 718q-39 -37 -39 -64q0 -12 11.5 -28.5t11.5 -29.5q0 -24 -18 -40.5t-44 -16.5q-23 0 -38 14t-15 37q0 59 76 128h55z" />
    <glyph glyph-name="Hcircumflex" unicode="&#x124;" horiz-adv-x="722" 
d="M43 0l118 666h111l-48 -271h327l48 271h111l-119 -666h-111l54 302h-326l-54 -302h-111zM281 723l150 156h77l94 -156h-86l-57 77l-84 -77h-94z" />
    <glyph glyph-name="hcircumflex" unicode="&#x125;" horiz-adv-x="522" 
d="M23 0l132 720h103l-43 -235q-8 -43 -27 -127h2q15 26 29 45.5t37 43.5t53.5 37t65.5 13q51 0 77.5 -31.5t26.5 -89.5q0 -30 -5 -55l-59 -321h-103l55 314q4 20 4 38q0 52 -42 52q-55 0 -108 -86.5t-86 -270.5l-8 -47h-104zM215 777l150 156h77l94 -156h-86l-57 77
l-84 -77h-94z" />
    <glyph glyph-name="Hbar" unicode="&#x126;" horiz-adv-x="769" 
d="M70 474l15 81h65l20 111h111l-20 -111h328l20 111h110l-20 -111h67l-15 -81h-67l-84 -474h-110l52 290h-327l-52 -290h-111l84 474h-66zM231 384h328l16 90h-328z" />
    <glyph glyph-name="hbar" unicode="&#x127;" horiz-adv-x="527" 
d="M29 0l103 567h-43l14 80h44l13 73h104l-14 -73h138l-15 -80h-138l-15 -82q-9 -50 -26 -127h2q15 26 29 45.5t37 43.5t53.5 37t65.5 13q51 0 77.5 -31.5t26.5 -89.5q0 -30 -5 -55l-59 -321h-104l56 314q4 19 4 37q0 53 -42 53q-55 0 -108 -86.5t-86 -270.5l-9 -47h-103z
" />
    <glyph glyph-name="Itilde" unicode="&#x128;" horiz-adv-x="296" 
d="M48 0l119 666h112l-119 -666h-112zM286 726q-28 0 -58.5 18.5t-48.5 18.5q-23 0 -56 -30l-39 45q48 67 108 67q28 0 58.5 -18.5t48.5 -18.5q32 0 57 30l41 -44q-53 -68 -111 -68z" />
    <glyph glyph-name="itilde" unicode="&#x129;" horiz-adv-x="249" 
d="M28 0l88 484h104l-88 -484h-104zM231 545q-28 0 -58.5 18.5t-48.5 18.5q-24 0 -56 -30l-39 45q48 67 108 67q28 0 58.5 -18.5t48.5 -18.5q32 0 57 30l41 -44q-53 -68 -111 -68z" />
    <glyph glyph-name="Imacron" unicode="&#x12a;" horiz-adv-x="296" 
d="M48 0l119 666h112l-119 -666h-112zM98 748l14 80h275l-14 -80h-275z" />
    <glyph glyph-name="imacron" unicode="&#x12b;" horiz-adv-x="249" 
d="M28 0l88 484h104l-88 -484h-104zM43 567l14 80h275l-14 -80h-275z" />
    <glyph glyph-name="Ibreve" unicode="&#x12c;" horiz-adv-x="296" 
d="M48 0l119 666h112l-119 -666h-112zM241 714q-61 0 -99.5 33.5t-38.5 96.5l1 17h85l-1 -12q0 -62 57 -62q28 0 49 19.5t28 54.5h89q-17 -74 -64.5 -110.5t-105.5 -36.5z" />
    <glyph glyph-name="ibreve" unicode="&#x12d;" horiz-adv-x="249" 
d="M28 0l88 484h104l-88 -484h-104zM186 533q-61 0 -99.5 33.5t-38.5 96.5l1 17h85l-1 -12q0 -62 57 -62q28 0 49 19.5t28 54.5h89q-17 -74 -64.5 -110.5t-105.5 -36.5z" />
    <glyph glyph-name="Iogonek" unicode="&#x12e;" horiz-adv-x="296" 
d="M72 -225q-47 0 -72.5 22t-25.5 58q0 43 28.5 81.5t66.5 63.5h-21l119 666h112l-119 -666h-1q-35 0 -69.5 -43.5t-34.5 -83.5q0 -37 42 -37q19 0 42 7l9 -51q-32 -17 -76 -17z" />
    <glyph glyph-name="iogonek" unicode="&#x12f;" horiz-adv-x="249" 
d="M48 -225q-47 0 -73 22t-26 58q0 43 29 81.5t67 63.5h-17l88 484h104l-88 -484h-1q-33 0 -66.5 -43.5t-33.5 -83.5q0 -37 42 -37q19 0 42 7l9 -51q-32 -17 -76 -17zM190 562q-28 0 -47.5 20t-19.5 47t19.5 46.5t47.5 19.5q29 0 48 -19.5t19 -46.5q0 -28 -19 -47.5
t-48 -19.5z" />
    <glyph glyph-name="Idotaccent" unicode="&#x130;" horiz-adv-x="296" 
d="M48 0l119 666h112l-119 -666h-112zM243 739q-28 0 -46.5 19.5t-18.5 46.5t18.5 46t46.5 19t47 -19t19 -46t-19 -46.5t-47 -19.5z" />
    <glyph glyph-name="dotlessi" unicode="&#x131;" horiz-adv-x="249" 
d="M28 0l88 484h104l-88 -484h-104z" />
    <glyph glyph-name="IJ" unicode="&#x132;" horiz-adv-x="590" 
d="M255 -198q-51 0 -79 15l36 92q19 -8 41 -8q40 0 62.5 25.5t32.5 82.5l118 657h110l-120 -673q-33 -191 -201 -191zM48 0l119 666h112l-119 -666h-112z" />
    <glyph glyph-name="ij" unicode="&#x133;" horiz-adv-x="522" 
d="M163 -229q-89 0 -165 53l50 80q58 -44 119 -44q62 0 95 35t47 106l6 33q12 61 24 105h-1q-17 -30 -32 -51.5t-39 -47.5t-55 -39.5t-66 -13.5q-51 0 -77.5 31.5t-26.5 89.5q0 30 5 55l59 321h104l-56 -314q-4 -20 -4 -38q0 -52 42 -52q53 0 106.5 83.5t84.5 258.5l12 62
h103l-87 -479q-23 -125 -80 -179.5t-168 -54.5zM180 562q-28 0 -47.5 20t-19.5 47t19.5 46.5t47.5 19.5t47.5 -19.5t19.5 -46.5t-19.5 -47t-47.5 -20zM469 562q-28 0 -47.5 20t-19.5 47t19.5 46.5t47.5 19.5t47.5 -19.5t19.5 -46.5t-19.5 -47t-47.5 -20z" />
    <glyph glyph-name="Jcircumflex" unicode="&#x134;" horiz-adv-x="294" 
d="M-40 -198q-51 0 -79 15l36 92q19 -8 41 -8q40 0 62.5 25.5t32.5 82.5l118 657h110l-120 -673q-33 -191 -201 -191zM73 723l150 156h77l94 -156h-86l-57 77l-84 -77h-94z" />
    <glyph glyph-name="jcircumflex" unicode="&#x135;" horiz-adv-x="245" 
d="M-69 -230q-40 0 -82 15l34 84q18 -10 47 -10q41 0 61.5 28t31.5 89l91 508h104l-91 -516q-17 -94 -61.5 -146t-134.5 -52zM13 542l150 156h77l94 -156h-86l-57 77l-84 -77h-94z" />
    <glyph glyph-name="Kcommaaccent" unicode="&#x136;" horiz-adv-x="592" 
d="M44 0l118 666h110l-55 -308l295 308h127l-307 -318l209 -348h-123l-204 340l-60 -340h-110zM181 -224q39 37 39 64q0 12 -11.5 28.5t-11.5 29.5q0 24 18 40.5t44 16.5q23 0 38 -14t15 -37q0 -59 -76 -128h-55z" />
    <glyph glyph-name="kcommaaccent" unicode="&#x137;" horiz-adv-x="469" 
d="M20 0l126 720h104l-77 -444l203 208h122l-220 -218l139 -266h-111l-136 263l-45 -263h-105zM128 -224q39 37 39 64q0 12 -11.5 28.5t-11.5 29.5q0 24 18 40.5t44 16.5q23 0 38 -14t15 -37q0 -59 -76 -128h-55z" />
    <glyph glyph-name="kgreenlandic" unicode="&#x138;" horiz-adv-x="469" 
d="M20 0l84 484h104l-36 -210l204 210h121l-219 -218l139 -266h-111l-136 263l-45 -263h-105z" />
    <glyph glyph-name="Lacute" unicode="&#x139;" horiz-adv-x="478" 
d="M43 0l119 666h111l-102 -574h249l-16 -92h-361zM174 722l108 131h143l-156 -131h-95z" />
    <glyph glyph-name="lacute" unicode="&#x13a;" horiz-adv-x="249" 
d="M28 0l130 720h104l-130 -720h-104zM171 776l108 131h143l-156 -131h-95z" />
    <glyph glyph-name="Lcommaaccent" unicode="&#x13b;" horiz-adv-x="478" 
d="M43 0l119 666h111l-102 -574h249l-16 -92h-361zM138 -224q39 37 39 64q0 12 -11.5 28.5t-11.5 29.5q0 24 18 40.5t44 16.5q23 0 38 -14t15 -37q0 -59 -76 -128h-55z" />
    <glyph glyph-name="lcommaaccent" unicode="&#x13c;" horiz-adv-x="249" 
d="M28 0l130 720h104l-130 -720h-104zM-18 -224q39 37 39 64q0 12 -11.5 28.5t-11.5 29.5q0 24 18 40.5t44 16.5q23 0 38 -14t15 -37q0 -59 -76 -128h-55z" />
    <glyph glyph-name="Lcaron" unicode="&#x13d;" horiz-adv-x="478" 
d="M43 0l119 666h111l-102 -574h249l-16 -92h-361zM298 519l70 177h116l-110 -177h-76z" />
    <glyph glyph-name="lcaron" unicode="&#x13e;" horiz-adv-x="291" 
d="M28 0l130 720h104l-130 -720h-104zM270 543l70 177h116l-110 -177h-76z" />
    <glyph glyph-name="Ldot" unicode="&#x13f;" horiz-adv-x="486" 
d="M43 0l119 666h111l-102 -574h249l-16 -92h-361zM401 289q-28 0 -46.5 19.5t-18.5 46.5t18.5 46t46.5 19t47 -19t19 -46t-19 -46.5t-47 -19.5z" />
    <glyph glyph-name="ldot" unicode="&#x140;" horiz-adv-x="360" 
d="M28 0l130 720h104l-130 -720h-104zM324 283q-28 0 -46.5 19.5t-18.5 46.5t18.5 46t46.5 19t47 -19t19 -46t-19 -46.5t-47 -19.5z" />
    <glyph glyph-name="Lslash" unicode="&#x141;" horiz-adv-x="500" 
d="M61 0l46 258l-73 -49l-31 58l120 80l57 319h111l-42 -240l113 75l33 -59l-162 -106l-43 -244h248l-16 -92h-361z" />
    <glyph glyph-name="lslash" unicode="&#x142;" horiz-adv-x="273" 
d="M70 0l46 262l-75 -50l15 86l76 50l66 372h104l-53 -298l91 60l-16 -88l-90 -59l-60 -335h-104z" />
    <glyph glyph-name="Nacute" unicode="&#x143;" horiz-adv-x="708" 
d="M41 0l118 666h109l198 -404q29 -57 44 -106h1q6 61 15 108l72 402h100l-118 -666h-100l-207 421q-22 43 -41 99h-2q-6 -55 -14 -100l-75 -420h-100zM388 722l108 131h143l-156 -131h-95z" />
    <glyph glyph-name="nacute" unicode="&#x144;" horiz-adv-x="522" 
d="M23 0l88 484h100q-8 -60 -26 -132h2q16 28 30.5 48.5t37.5 45t54 38t66 13.5q51 0 77.5 -31.5t26.5 -89.5q0 -30 -5 -55l-59 -321h-103l55 314q4 20 4 38q0 52 -42 52q-55 0 -108 -86.5t-86 -270.5l-8 -47h-104zM262 541l108 131h143l-156 -131h-95z" />
    <glyph glyph-name="Ncommaaccent" unicode="&#x145;" horiz-adv-x="708" 
d="M41 0l118 666h109l198 -404q29 -57 44 -106h1q6 61 15 108l72 402h100l-118 -666h-100l-207 421q-22 43 -41 99h-2q-6 -55 -14 -100l-75 -420h-100zM219 -224q39 37 39 64q0 12 -11.5 28.5t-11.5 29.5q0 24 18 40.5t44 16.5q23 0 38 -14t15 -37q0 -59 -76 -128h-55z" />
    <glyph glyph-name="ncommaaccent" unicode="&#x146;" horiz-adv-x="522" 
d="M23 0l88 484h100q-8 -60 -26 -132h2q16 28 30.5 48.5t37.5 45t54 38t66 13.5q51 0 77.5 -31.5t26.5 -89.5q0 -30 -5 -55l-59 -321h-103l55 314q4 20 4 38q0 52 -42 52q-55 0 -108 -86.5t-86 -270.5l-8 -47h-104zM130 -224q39 37 39 64q0 12 -11.5 28.5t-11.5 29.5
q0 24 18 40.5t44 16.5q23 0 38 -14t15 -37q0 -59 -76 -128h-55z" />
    <glyph glyph-name="Ncaron" unicode="&#x147;" horiz-adv-x="708" 
d="M41 0l118 666h109l198 -404q29 -57 44 -106h1q6 61 15 108l72 402h100l-118 -666h-100l-207 421q-22 43 -41 99h-2q-6 -55 -14 -100l-75 -420h-100zM397 721l-96 156h85l60 -77l88 77h93l-153 -156h-77z" />
    <glyph glyph-name="ncaron" unicode="&#x148;" horiz-adv-x="522" 
d="M23 0l88 484h100q-8 -60 -26 -132h2q16 28 30.5 48.5t37.5 45t54 38t66 13.5q51 0 77.5 -31.5t26.5 -89.5q0 -30 -5 -55l-59 -321h-103l55 314q4 20 4 38q0 52 -42 52q-55 0 -108 -86.5t-86 -270.5l-8 -47h-104zM271 540l-96 156h85l60 -77l88 77h93l-153 -156h-77z" />
    <glyph glyph-name="napostrophe" unicode="&#x149;" horiz-adv-x="625" 
d="M127 0l88 484h100q-8 -60 -26 -132h2q16 28 30.5 48.5t37.5 45t54 38t66 13.5q51 0 77.5 -31.5t26.5 -89.5q0 -30 -5 -55l-59 -321h-103l55 314q4 20 4 38q0 52 -42 52q-55 0 -108 -86.5t-86 -270.5l-8 -47h-104zM51 397l-39 35q55 55 55 94q0 17 -15.5 41.5t-15.5 46.5
q0 28 19.5 46.5t47.5 18.5q31 0 51.5 -21.5t20.5 -58.5q0 -52 -37 -106t-87 -96z" />
    <glyph glyph-name="Eng" unicode="&#x14a;" horiz-adv-x="708" 
d="M41 0l118 666h109l198 -404q29 -57 44 -106h1q6 61 15 108l72 402h100l-123 -688q-32 -176 -185 -176q-48 0 -80 17l33 85q18 -11 46 -11q37 0 58 23.5t30 75.5l2 10l-206 420q-22 42 -41 98h-2q-6 -55 -14 -100l-75 -420h-100z" />
    <glyph glyph-name="eng" unicode="&#x14b;" horiz-adv-x="521" 
d="M23 0l88 484h100q-9 -69 -27 -132h2q17 29 31 48.5t38 44.5t54.5 38.5t65.5 13.5q51 0 78 -32t27 -89q0 -25 -6 -55l-65 -354q-17 -94 -61 -145.5t-133 -51.5q-40 0 -82 15l34 83q17 -10 46 -10q42 0 63 30t33 97l58 330q17 90 -38 90q-54 0 -107.5 -87t-86.5 -271
l-8 -47h-104z" />
    <glyph glyph-name="Omacron" unicode="&#x14c;" horiz-adv-x="744" 
d="M344 -12q-134 0 -211.5 84t-77.5 205q0 102 45.5 193t133.5 149.5t198 58.5q138 0 212.5 -82.5t74.5 -206.5q0 -103 -44.5 -193.5t-132 -149t-198.5 -58.5zM351 80q114 0 182.5 92.5t68.5 215.5q0 86 -45.5 142t-132.5 56q-115 0 -183.5 -91.5t-68.5 -215.5
q0 -86 48 -142.5t131 -56.5zM311 748l14 80h275l-14 -80h-275z" />
    <glyph glyph-name="omacron" unicode="&#x14d;" horiz-adv-x="498" 
d="M210 -12q-89 0 -136.5 58.5t-47.5 142.5q0 123 75.5 215.5t186.5 92.5q88 0 136 -57t48 -144q0 -128 -75 -218t-187 -90zM218 70q65 0 107 70t42 150q0 124 -87 124q-64 0 -107 -70.5t-43 -151.5q0 -56 22.5 -89t65.5 -33zM160 567l14 80h275l-14 -80h-275z" />
    <glyph glyph-name="Obreve" unicode="&#x14e;" horiz-adv-x="744" 
d="M344 -12q-134 0 -211.5 84t-77.5 205q0 102 45.5 193t133.5 149.5t198 58.5q138 0 212.5 -82.5t74.5 -206.5q0 -103 -44.5 -193.5t-132 -149t-198.5 -58.5zM351 80q114 0 182.5 92.5t68.5 215.5q0 86 -45.5 142t-132.5 56q-115 0 -183.5 -91.5t-68.5 -215.5
q0 -86 48 -142.5t131 -56.5zM454 714q-61 0 -99.5 33.5t-38.5 96.5l1 17h85l-1 -12q0 -62 57 -62q28 0 49 19.5t28 54.5h89q-17 -74 -64.5 -110.5t-105.5 -36.5z" />
    <glyph glyph-name="obreve" unicode="&#x14f;" horiz-adv-x="498" 
d="M210 -12q-89 0 -136.5 58.5t-47.5 142.5q0 123 75.5 215.5t186.5 92.5q88 0 136 -57t48 -144q0 -128 -75 -218t-187 -90zM218 70q65 0 107 70t42 150q0 124 -87 124q-64 0 -107 -70.5t-43 -151.5q0 -56 22.5 -89t65.5 -33zM303 533q-61 0 -99.5 33.5t-38.5 96.5l1 17h85
l-1 -12q0 -62 57 -62q28 0 49 19.5t28 54.5h89q-17 -74 -64.5 -110.5t-105.5 -36.5z" />
    <glyph glyph-name="Ohungarumlaut" unicode="&#x150;" horiz-adv-x="744" 
d="M344 -12q-134 0 -211.5 84t-77.5 205q0 102 45.5 193t133.5 149.5t198 58.5q138 0 212.5 -82.5t74.5 -206.5q0 -103 -44.5 -193.5t-132 -149t-198.5 -58.5zM351 80q114 0 182.5 92.5t68.5 215.5q0 86 -45.5 142t-132.5 56q-115 0 -183.5 -91.5t-68.5 -215.5
q0 -86 48 -142.5t131 -56.5zM292 722l109 131h131l-152 -131h-88zM472 722l109 131h131l-152 -131h-88z" />
    <glyph glyph-name="ohungarumlaut" unicode="&#x151;" horiz-adv-x="498" 
d="M210 -12q-89 0 -136.5 58.5t-47.5 142.5q0 123 75.5 215.5t186.5 92.5q88 0 136 -57t48 -144q0 -128 -75 -218t-187 -90zM218 70q65 0 107 70t42 150q0 124 -87 124q-64 0 -107 -70.5t-43 -151.5q0 -56 22.5 -89t65.5 -33zM140 541l109 131h131l-152 -131h-88zM320 541
l109 131h131l-152 -131h-88z" />
    <glyph glyph-name="OE" unicode="&#x152;" horiz-adv-x="893" 
d="M343 -12q-134 0 -210 83t-76 206q0 102 45.5 193t133.5 149.5t197 58.5q68 0 111 -12h359l-17 -94h-247l-33 -178h219l-16 -90h-218l-38 -210h255l-17 -94h-353q-45 -12 -95 -12zM350 80q53 0 94 22l83 463q-38 21 -100 21q-116 0 -185 -91.5t-69 -215.5q0 -88 46 -143.5
t131 -55.5z" />
    <glyph glyph-name="oe" unicode="&#x153;" horiz-adv-x="769" 
d="M210 -12q-89 0 -136.5 58.5t-47.5 142.5q0 123 75.5 215.5t186.5 92.5q106 0 151 -91q79 91 182 91q64 0 101.5 -31t37.5 -88q0 -154 -304 -192q0 -111 85 -111q64 0 124 54l47 -69q-81 -72 -187 -72q-100 0 -143 81q-70 -81 -172 -81zM218 70q65 0 107 70t42 150
q0 124 -87 124q-64 0 -107 -70.5t-43 -151.5q0 -56 22.5 -89t65.5 -33zM604 412q-48 0 -86 -44t-54 -110q88 10 140.5 37.5t52.5 70.5q0 46 -53 46z" />
    <glyph glyph-name="Racute" unicode="&#x154;" horiz-adv-x="595" 
d="M44 0l118 666h196q96 0 149 -42t53 -117q0 -89 -54 -140.5t-147 -62.5v-2q30 -24 66 -95l107 -207h-121l-95 191q-32 63 -49.5 80.5t-48.5 17.5h-11l-52 -289h-111zM220 373h90q68 0 102.5 33.5t34.5 89.5q0 81 -107 81h-82zM301 722l108 131h143l-156 -131h-95z" />
    <glyph glyph-name="racute" unicode="&#x155;" horiz-adv-x="371" 
d="M23 0l88 484h100q-6 -48 -28 -139h2q29 62 72.5 107t93.5 45q31 0 53 -10l-38 -100q-21 7 -36 7q-60 0 -111.5 -84t-83.5 -263l-8 -47h-104zM210 541l108 131h143l-156 -131h-95z" />
    <glyph glyph-name="Rcommaaccent" unicode="&#x156;" horiz-adv-x="595" 
d="M44 0l118 666h196q96 0 149 -42t53 -117q0 -89 -54 -140.5t-147 -62.5v-2q30 -24 66 -95l107 -207h-121l-95 191q-32 63 -49.5 80.5t-48.5 17.5h-11l-52 -289h-111zM220 373h90q68 0 102.5 33.5t34.5 89.5q0 81 -107 81h-82zM195 -224q39 37 39 64q0 12 -11.5 28.5
t-11.5 29.5q0 24 18 40.5t44 16.5q23 0 38 -14t15 -37q0 -59 -76 -128h-55z" />
    <glyph glyph-name="rcommaaccent" unicode="&#x157;" horiz-adv-x="371" 
d="M23 0l88 484h100q-6 -48 -28 -139h2q29 62 72.5 107t93.5 45q31 0 53 -10l-38 -100q-21 7 -36 7q-60 0 -111.5 -84t-83.5 -263l-8 -47h-104zM-15 -224q39 37 39 64q0 12 -11.5 28.5t-11.5 29.5q0 24 18 40.5t44 16.5q23 0 38 -14t15 -37q0 -59 -76 -128h-55z" />
    <glyph glyph-name="Rcaron" unicode="&#x158;" horiz-adv-x="595" 
d="M44 0l118 666h196q96 0 149 -42t53 -117q0 -89 -54 -140.5t-147 -62.5v-2q30 -24 66 -95l107 -207h-121l-95 191q-32 63 -49.5 80.5t-48.5 17.5h-11l-52 -289h-111zM220 373h90q68 0 102.5 33.5t34.5 89.5q0 81 -107 81h-82zM310 721l-96 156h85l60 -77l88 77h93
l-153 -156h-77z" />
    <glyph glyph-name="rcaron" unicode="&#x159;" horiz-adv-x="371" 
d="M23 0l88 484h100q-6 -48 -28 -139h2q29 62 72.5 107t93.5 45q31 0 53 -10l-38 -100q-21 7 -36 7q-60 0 -111.5 -84t-83.5 -263l-8 -47h-104zM220 540l-96 156h85l60 -77l88 77h93l-153 -156h-77z" />
    <glyph glyph-name="Sacute" unicode="&#x15a;" horiz-adv-x="474" 
d="M197 -12q-124 0 -206 76l63 76q67 -59 148 -59q56 0 83 25.5t27 65.5q0 35 -18.5 58t-72.5 67q-8 7 -13 11q-30 26 -46.5 42t-37 41t-29.5 53t-9 60q0 83 58 128.5t150 45.5q99 0 172 -54l-55 -81q-57 45 -121 45q-47 0 -71 -21.5t-24 -59.5q0 -23 13.5 -44.5t28 -35
t54.5 -45.5q35 -29 50 -42.5t39 -41t33.5 -56t9.5 -63.5q0 -82 -58 -136.5t-168 -54.5zM249 722l108 131h143l-156 -131h-95z" />
    <glyph glyph-name="sacute" unicode="&#x15b;" horiz-adv-x="367" 
d="M138 -12q-93 0 -153 50l48 72q51 -40 106 -40q33 0 51 15t18 40q0 7 -1.5 13.5t-5.5 14t-8 13t-12 15t-13 15t-17 17t-18 18.5q-36 38 -53 66.5t-17 66.5q0 60 44 96.5t119 36.5q80 0 130 -40l-48 -70q-38 28 -84 28q-28 0 -44.5 -12.5t-16.5 -36.5q0 -5 1.5 -10.5
t3 -9.5t5.5 -10t7 -10t9.5 -11.5t10.5 -11.5t13 -13.5t14 -14.5q34 -35 47 -50.5t26 -42.5t13 -57q0 -62 -45.5 -99.5t-129.5 -37.5zM182 541l108 131h143l-156 -131h-95z" />
    <glyph glyph-name="Scircumflex" unicode="&#x15c;" horiz-adv-x="474" 
d="M197 -12q-124 0 -206 76l63 76q67 -59 148 -59q56 0 83 25.5t27 65.5q0 35 -18.5 58t-72.5 67q-8 7 -13 11q-30 26 -46.5 42t-37 41t-29.5 53t-9 60q0 83 58 128.5t150 45.5q99 0 172 -54l-55 -81q-57 45 -121 45q-47 0 -71 -21.5t-24 -59.5q0 -23 13.5 -44.5t28 -35
t54.5 -45.5q35 -29 50 -42.5t39 -41t33.5 -56t9.5 -63.5q0 -82 -58 -136.5t-168 -54.5zM137 723l150 156h77l94 -156h-86l-57 77l-84 -77h-94z" />
    <glyph glyph-name="scircumflex" unicode="&#x15d;" horiz-adv-x="367" 
d="M138 -12q-93 0 -153 50l48 72q51 -40 106 -40q33 0 51 15t18 40q0 7 -1.5 13.5t-5.5 14t-8 13t-12 15t-13 15t-17 17t-18 18.5q-36 38 -53 66.5t-17 66.5q0 60 44 96.5t119 36.5q80 0 130 -40l-48 -70q-38 28 -84 28q-28 0 -44.5 -12.5t-16.5 -36.5q0 -5 1.5 -10.5
t3 -9.5t5.5 -10t7 -10t9.5 -11.5t10.5 -11.5t13 -13.5t14 -14.5q34 -35 47 -50.5t26 -42.5t13 -57q0 -62 -45.5 -99.5t-129.5 -37.5zM69 542l150 156h77l94 -156h-86l-57 77l-84 -77h-94z" />
    <glyph glyph-name="Scedilla" unicode="&#x15e;" horiz-adv-x="474" 
d="M165 -225q-44 0 -75 13l18 51q20 -10 49 -10q48 0 48 37q0 43 -71 39l31 85q-106 9 -174 74l63 76q67 -59 148 -59q56 0 83 25.5t27 65.5q0 35 -18.5 58t-72.5 67q-8 7 -13 11q-30 26 -46.5 42t-37 41t-29.5 53t-9 60q0 83 58 128.5t150 45.5q99 0 172 -54l-55 -81
q-57 45 -121 45q-47 0 -71 -21.5t-24 -59.5q0 -23 13.5 -44.5t28 -35t54.5 -45.5q35 -29 50 -42.5t39 -41t33.5 -56t9.5 -63.5q0 -76 -49 -128.5t-143 -60.5l-19 -50q32 -5 51.5 -25.5t19.5 -51.5q0 -40 -33 -64t-85 -24z" />
    <glyph glyph-name="scedilla" unicode="&#x15f;" horiz-adv-x="367" 
d="M105 -225q-44 0 -75 13l18 51q20 -10 49 -10q48 0 48 37q0 43 -71 39l31 85q-73 8 -120 48l48 72q51 -40 106 -40q33 0 51 15t18 40q0 7 -1.5 13.5t-5.5 14t-8 13t-12 15t-13 15t-17 17t-18 18.5q-36 38 -53 66.5t-17 66.5q0 60 44 96.5t119 36.5q80 0 130 -40l-48 -70
q-38 28 -84 28q-28 0 -44.5 -12.5t-16.5 -36.5q0 -5 1.5 -10.5t3 -9.5t5.5 -10t7 -10t9.5 -11.5t10.5 -11.5t13 -13.5t14 -14.5q34 -35 47 -50.5t26 -42.5t13 -57q0 -55 -37 -91.5t-105 -43.5l-19 -50q32 -5 51.5 -25.5t19.5 -51.5q0 -40 -33 -64t-85 -24z" />
    <glyph glyph-name="Scaron" unicode="&#x160;" horiz-adv-x="474" 
d="M197 -12q-124 0 -206 76l63 76q67 -59 148 -59q56 0 83 25.5t27 65.5q0 35 -18.5 58t-72.5 67q-8 7 -13 11q-30 26 -46.5 42t-37 41t-29.5 53t-9 60q0 83 58 128.5t150 45.5q99 0 172 -54l-55 -81q-57 45 -121 45q-47 0 -71 -21.5t-24 -59.5q0 -23 13.5 -44.5t28 -35
t54.5 -45.5q35 -29 50 -42.5t39 -41t33.5 -56t9.5 -63.5q0 -82 -58 -136.5t-168 -54.5zM259 721l-96 156h85l60 -77l88 77h93l-153 -156h-77z" />
    <glyph glyph-name="scaron" unicode="&#x161;" horiz-adv-x="367" 
d="M138 -12q-93 0 -153 50l48 72q51 -40 106 -40q33 0 51 15t18 40q0 7 -1.5 13.5t-5.5 14t-8 13t-12 15t-13 15t-17 17t-18 18.5q-36 38 -53 66.5t-17 66.5q0 60 44 96.5t119 36.5q80 0 130 -40l-48 -70q-38 28 -84 28q-28 0 -44.5 -12.5t-16.5 -36.5q0 -5 1.5 -10.5
t3 -9.5t5.5 -10t7 -10t9.5 -11.5t10.5 -11.5t13 -13.5t14 -14.5q34 -35 47 -50.5t26 -42.5t13 -57q0 -62 -45.5 -99.5t-129.5 -37.5zM192 540l-96 156h85l60 -77l88 77h93l-153 -156h-77z" />
    <glyph glyph-name="Tcommaaccent" unicode="&#x162;" horiz-adv-x="511" 
d="M159 0l102 572h-185l16 94h476l-16 -94h-180l-102 -572h-23l-23 -60q32 -5 51.5 -25.5t19.5 -51.5q0 -40 -33 -64t-85 -24q-44 0 -75 13l18 51q20 -10 49 -10q48 0 48 37q0 43 -71 39l35 95h-22z" />
    <glyph glyph-name="tcommaaccent" unicode="&#x163;" horiz-adv-x="353" 
d="M128 -225q-44 0 -75 13l18 51q20 -10 49 -10q48 0 48 37q0 43 -71 39l32 87q-67 13 -67 96q0 24 6 54l49 262h-81l14 80h82l24 129l110 29l-29 -158h120l-13 -80h-122l-46 -249q-6 -38 -6 -46q0 -32 26 -32q29 0 80 39l40 -71q-56 -46 -122 -55l-19 -50q32 -5 51.5 -25.5
t19.5 -51.5q0 -40 -33 -64t-85 -24z" />
    <glyph glyph-name="Tcaron" unicode="&#x164;" horiz-adv-x="511" 
d="M159 0l102 572h-185l16 94h476l-16 -94h-180l-102 -572h-111zM297 721l-96 156h85l60 -77l88 77h93l-153 -156h-77z" />
    <glyph glyph-name="tcaron" unicode="&#x165;" horiz-adv-x="359" 
d="M165 -12q-103 0 -103 100q0 24 6 54l49 262h-81l14 80h82l24 129l110 29l-29 -158h120l-13 -80h-122l-46 -249q-6 -38 -6 -46q0 -32 26 -32q29 0 80 39l40 -71q-69 -57 -151 -57zM304 549l68 171h116l-108 -171h-76z" />
    <glyph glyph-name="Tbar" unicode="&#x166;" horiz-adv-x="511" 
d="M60 320l15 81h155l31 171h-185l16 94h476l-16 -94h-180l-31 -171h165l-15 -81h-164l-57 -320h-111l57 320h-156z" />
    <glyph glyph-name="tbar" unicode="&#x167;" horiz-adv-x="353" 
d="M29 227l14 79h56l19 101h-81l13 77h82l24 129l110 29l-29 -158h120l-13 -77h-122l-19 -101h101l-14 -79h-101l-13 -72q-6 -38 -6 -46q0 -32 26 -32q29 0 80 39l40 -71q-69 -57 -151 -57q-103 0 -103 100q0 24 6 54l16 85h-55z" />
    <glyph glyph-name="Utilde" unicode="&#x168;" horiz-adv-x="689" 
d="M316 -12q-118 0 -178 54.5t-60 150.5q0 31 6 65l72 408h111l-71 -401q-6 -35 -6 -62q0 -62 33 -91.5t102 -29.5q80 0 122.5 43t59.5 135l72 406h103l-75 -417q-23 -130 -92.5 -195.5t-198.5 -65.5zM475 726q-28 0 -58.5 18.5t-48.5 18.5q-24 0 -56 -30l-39 45
q48 67 108 67q28 0 58.5 -18.5t48.5 -18.5q32 0 57 30l41 -44q-53 -68 -111 -68z" />
    <glyph glyph-name="utilde" unicode="&#x169;" horiz-adv-x="522" 
d="M146 -13q-51 0 -77.5 31.5t-26.5 89.5q0 30 5 55l59 321h104l-56 -314q-4 -20 -4 -38q0 -52 42 -52q53 0 106.5 83.5t84.5 258.5l12 62h103l-45 -252q-28 -158 -32 -232h-102q10 90 22 140h-2q-17 -30 -32 -52t-39.5 -47.5t-55.5 -39.5t-66 -14zM361 545
q-28 0 -58.5 18.5t-48.5 18.5q-24 0 -56 -30l-39 45q48 67 108 67q28 0 58.5 -18.5t48.5 -18.5q32 0 57 30l41 -44q-53 -68 -111 -68z" />
    <glyph glyph-name="Umacron" unicode="&#x16a;" horiz-adv-x="689" 
d="M316 -12q-118 0 -178 54.5t-60 150.5q0 31 6 65l72 408h111l-71 -401q-6 -35 -6 -62q0 -62 33 -91.5t102 -29.5q80 0 122.5 43t59.5 135l72 406h103l-75 -417q-23 -130 -92.5 -195.5t-198.5 -65.5zM288 748l14 80h275l-14 -80h-275z" />
    <glyph glyph-name="umacron" unicode="&#x16b;" horiz-adv-x="522" 
d="M146 -13q-51 0 -77.5 31.5t-26.5 89.5q0 30 5 55l59 321h104l-56 -314q-4 -20 -4 -38q0 -52 42 -52q53 0 106.5 83.5t84.5 258.5l12 62h103l-45 -252q-28 -158 -32 -232h-102q10 90 22 140h-2q-17 -30 -32 -52t-39.5 -47.5t-55.5 -39.5t-66 -14zM174 567l14 80h275
l-14 -80h-275z" />
    <glyph glyph-name="Ubreve" unicode="&#x16c;" horiz-adv-x="689" 
d="M316 -12q-118 0 -178 54.5t-60 150.5q0 31 6 65l72 408h111l-71 -401q-6 -35 -6 -62q0 -62 33 -91.5t102 -29.5q80 0 122.5 43t59.5 135l72 406h103l-75 -417q-23 -130 -92.5 -195.5t-198.5 -65.5zM431 714q-61 0 -99.5 33.5t-38.5 96.5l1 17h85l-1 -12q0 -62 57 -62
q28 0 49 19.5t28 54.5h89q-17 -74 -64.5 -110.5t-105.5 -36.5z" />
    <glyph glyph-name="ubreve" unicode="&#x16d;" horiz-adv-x="522" 
d="M146 -13q-51 0 -77.5 31.5t-26.5 89.5q0 30 5 55l59 321h104l-56 -314q-4 -20 -4 -38q0 -52 42 -52q53 0 106.5 83.5t84.5 258.5l12 62h103l-45 -252q-28 -158 -32 -232h-102q10 90 22 140h-2q-17 -30 -32 -52t-39.5 -47.5t-55.5 -39.5t-66 -14zM317 533
q-61 0 -99.5 33.5t-38.5 96.5l1 17h85l-1 -12q0 -62 57 -62q28 0 49 19.5t28 54.5h89q-17 -74 -64.5 -110.5t-105.5 -36.5z" />
    <glyph glyph-name="Uring" unicode="&#x16e;" horiz-adv-x="689" 
d="M316 -12q-118 0 -178 54.5t-60 150.5q0 31 6 65l72 408h111l-71 -401q-6 -35 -6 -62q0 -62 33 -91.5t102 -29.5q80 0 122.5 43t59.5 135l72 406h103l-75 -417q-23 -130 -92.5 -195.5t-198.5 -65.5zM428 723q-42 0 -72 28.5t-30 71.5q0 44 30 73t72 29t72 -28.5t30 -72.5
q0 -43 -30.5 -72t-71.5 -29zM428 772q22 0 34.5 15t12.5 37q0 23 -12.5 38t-34.5 15t-34.5 -15t-12.5 -38q0 -22 12.5 -37t34.5 -15z" />
    <glyph glyph-name="uring" unicode="&#x16f;" horiz-adv-x="522" 
d="M146 -13q-51 0 -77.5 31.5t-26.5 89.5q0 30 5 55l59 321h104l-56 -314q-4 -20 -4 -38q0 -52 42 -52q53 0 106.5 83.5t84.5 258.5l12 62h103l-45 -252q-28 -158 -32 -232h-102q10 90 22 140h-2q-17 -30 -32 -52t-39.5 -47.5t-55.5 -39.5t-66 -14zM315 542q-42 0 -72 28.5
t-30 71.5q0 44 30 73t72 29t72 -28.5t30 -72.5q0 -43 -30.5 -72t-71.5 -29zM315 591q22 0 34.5 15t12.5 37q0 23 -12.5 38t-34.5 15t-34.5 -15t-12.5 -38q0 -22 12.5 -37t34.5 -15z" />
    <glyph glyph-name="Uhungarumlaut" unicode="&#x170;" horiz-adv-x="689" 
d="M316 -12q-118 0 -178 54.5t-60 150.5q0 31 6 65l72 408h111l-71 -401q-6 -35 -6 -62q0 -62 33 -91.5t102 -29.5q80 0 122.5 43t59.5 135l72 406h103l-75 -417q-23 -130 -92.5 -195.5t-198.5 -65.5zM269 722l109 131h131l-152 -131h-88zM449 722l109 131h131l-152 -131
h-88z" />
    <glyph glyph-name="uhungarumlaut" unicode="&#x171;" horiz-adv-x="522" 
d="M146 -13q-51 0 -77.5 31.5t-26.5 89.5q0 30 5 55l59 321h104l-56 -314q-4 -20 -4 -38q0 -52 42 -52q53 0 106.5 83.5t84.5 258.5l12 62h103l-45 -252q-28 -158 -32 -232h-102q10 90 22 140h-2q-17 -30 -32 -52t-39.5 -47.5t-55.5 -39.5t-66 -14zM155 541l109 131h131
l-152 -131h-88zM335 541l109 131h131l-152 -131h-88z" />
    <glyph glyph-name="Uogonek" unicode="&#x172;" horiz-adv-x="689" 
d="M407 -225q-47 0 -72.5 22t-25.5 58q0 42 28.5 81t65.5 65q-39 -13 -87 -13q-118 0 -178 54.5t-60 150.5q0 31 6 65l72 408h111l-71 -401q-6 -35 -6 -62q0 -62 33 -91.5t102 -29.5q80 0 122.5 43t59.5 135l72 406h103l-75 -417q-3 -19 -8 -37.5t-9 -32t-12.5 -30
t-11.5 -25t-15 -24t-14.5 -20.5t-17.5 -21.5t-16.5 -18.5t-19 -20.5t-18.5 -19.5q-75 -75 -75 -127q0 -37 42 -37q19 0 42 7l9 -51q-32 -17 -76 -17z" />
    <glyph glyph-name="uogonek" unicode="&#x173;" horiz-adv-x="522" 
d="M326 -225q-47 0 -73 22t-26 58q0 74 92 145q10 90 22 140h-2q-17 -30 -32 -52t-39.5 -47.5t-55.5 -39.5t-66 -14q-51 0 -77.5 31.5t-26.5 89.5q0 30 5 55l59 321h104l-56 -314q-4 -20 -4 -38q0 -52 42 -52q53 0 106.5 83.5t84.5 258.5l12 62h103l-45 -252
q-28 -158 -32 -232h-6q-33 0 -69.5 -43.5t-36.5 -83.5q0 -37 41 -37q20 0 43 7l9 -51q-32 -17 -76 -17z" />
    <glyph glyph-name="Wcircumflex" unicode="&#x174;" horiz-adv-x="877" 
d="M153 0l-61 666h111l29 -373q7 -96 7 -137h2q12 34 56 138l160 372h110l37 -383q7 -81 9 -127h3q15 46 48 127l157 383h112l-292 -666h-104l-37 390q-3 34 -6.5 84.5t-4.5 59.5h-2q-26 -69 -60 -144l-173 -390h-101zM358 723l150 156h77l94 -156h-86l-57 77l-84 -77h-94z
" />
    <glyph glyph-name="wcircumflex" unicode="&#x175;" horiz-adv-x="705" 
d="M101 0l-51 484h107l19 -253q1 -22 2 -57t1 -42h2l168 352h94l17 -248q4 -57 4 -99h2l167 347h107l-248 -484h-94l-25 356h-2l-178 -356h-92zM242 542l150 156h77l94 -156h-86l-57 77l-84 -77h-94z" />
    <glyph glyph-name="Ycircumflex" unicode="&#x176;" horiz-adv-x="571" 
d="M191 0l45 251l-147 415h115l105 -312h1l203 312h115l-281 -416l-45 -250h-111zM202 723l150 156h77l94 -156h-86l-57 77l-84 -77h-94z" />
    <glyph glyph-name="ycircumflex" unicode="&#x177;" horiz-adv-x="471" 
d="M-2 -223q-59 0 -89 18l38 83q25 -11 57 -11q43 0 74.5 26.5t71.5 98.5l-97 492h109l52 -311q2 -15 4.5 -40t3.5 -30h2q1 4 5.5 17.5t9.5 27t10 25.5l142 311h109l-211 -420q-79 -161 -138.5 -224t-152.5 -63zM116 542l150 156h77l94 -156h-86l-57 77l-84 -77h-94z" />
    <glyph glyph-name="Ydieresis" unicode="&#x178;" horiz-adv-x="571" 
d="M191 0l45 251l-147 415h115l105 -312h1l203 312h115l-281 -416l-45 -250h-111zM271 724q-26 0 -43.5 17.5t-17.5 43.5t17.5 43.5t43.5 17.5q27 0 45 -17.5t18 -43.5t-18 -43.5t-45 -17.5zM468 724q-26 0 -43.5 17.5t-17.5 43.5t17.5 43.5t43.5 17.5q27 0 45 -17.5
t18 -43.5t-18 -43.5t-45 -17.5z" />
    <glyph glyph-name="Zacute" unicode="&#x179;" horiz-adv-x="531" 
d="M-12 0l14 75l405 500h-302l17 91h443l-14 -72l-409 -503h331l-17 -91h-468zM297 722l108 131h143l-156 -131h-95z" />
    <glyph glyph-name="zacute" unicode="&#x17a;" horiz-adv-x="432" 
d="M-9 0l10 61l283 341h-214l15 82h345l-11 -64l-281 -338h230l-14 -82h-363zM216 541l108 131h143l-156 -131h-95z" />
    <glyph glyph-name="Zdotaccent" unicode="&#x17b;" horiz-adv-x="531" 
d="M-12 0l14 75l405 500h-302l17 91h443l-14 -72l-409 -503h331l-17 -91h-468zM357 739q-28 0 -46.5 19.5t-18.5 46.5t18.5 46t46.5 19t47 -19t19 -46t-19 -46.5t-47 -19.5z" />
    <glyph glyph-name="zdotaccent" unicode="&#x17c;" horiz-adv-x="432" 
d="M-9 0l10 61l283 341h-214l15 82h345l-11 -64l-281 -338h230l-14 -82h-363zM276 558q-28 0 -46.5 19.5t-18.5 46.5t18.5 46t46.5 19t47 -19t19 -46t-19 -46.5t-47 -19.5z" />
    <glyph glyph-name="Zcaron" unicode="&#x17d;" horiz-adv-x="531" 
d="M-12 0l14 75l405 500h-302l17 91h443l-14 -72l-409 -503h331l-17 -91h-468zM306 721l-96 156h85l60 -77l88 77h93l-153 -156h-77z" />
    <glyph glyph-name="zcaron" unicode="&#x17e;" horiz-adv-x="432" 
d="M-9 0l10 61l283 341h-214l15 82h345l-11 -64l-281 -338h230l-14 -82h-363zM226 540l-96 156h85l60 -77l88 77h93l-153 -156h-77z" />
    <glyph glyph-name="longs" unicode="&#x17f;" horiz-adv-x="263" 
d="M-84 -230q-43 0 -85 17l30 82q32 -13 60 -13q71 0 89 108l108 586q16 91 63.5 136t132.5 45q74 0 122 -31l-43 -80q-37 23 -80 23q-42 0 -63 -25t-30 -72l-105 -578q-19 -103 -62.5 -150.5t-136.5 -47.5z" />
    <glyph glyph-name="uni018F" unicode="&#x18f;" horiz-adv-x="710" 
d="M226 528l-46 78q38 32 96.5 52t121.5 20q138 0 212.5 -82.5t74.5 -206.5q0 -103 -42 -193.5t-125 -149t-188 -58.5q-128 0 -201.5 84t-73.5 205q0 38 10 83h502q0 4 0.5 13.5t0.5 14.5q0 86 -45.5 142t-132.5 56q-92 0 -164 -58zM337 80q79 0 135 54.5t80 140.5h-382
q1 -86 45.5 -140.5t121.5 -54.5z" />
    <glyph glyph-name="florin" unicode="&#x192;" horiz-adv-x="444" 
d="M2 -188q-60 0 -96 21l40 79q25 -14 55 -14q89 0 120 113l86 338h-100l17 81h102l30 117q46 185 227 185q69 0 115 -31l-48 -76q-29 22 -79 22q-48 0 -75.5 -28.5t-42.5 -86.5l-26 -102h113l-20 -81h-111l-88 -344q-47 -193 -219 -193z" />
    <glyph glyph-name="Aringacute" unicode="&#x1fa;" horiz-adv-x="636" 
d="M-25 0l357 640q-31 24 -31 61q0 36 30.5 60t71.5 24q42 0 72 -23.5t30 -60.5q0 -44 -46 -70l115 -631h-115l-23 143h-270l-78 -143h-113zM213 235h209l-30 189q-16 108 -16 122h-2q0 -1 -7.5 -18t-22 -47t-28.5 -57zM362 808l98 118h138l-141 -118h-95zM403 666
q21 0 34 10.5t13 25.5q0 17 -12.5 27t-34.5 10t-34.5 -10t-12.5 -27q0 -15 12.5 -25.5t34.5 -10.5z" />
    <glyph glyph-name="aringacute" unicode="&#x1fb;" horiz-adv-x="504" 
d="M150 -12q-57 0 -89.5 41.5t-32.5 112.5q0 150 82 252.5t215 102.5q96 0 154 -25l-44 -240q-30 -168 -30 -232h-102q7 76 20 132h-2q-35 -68 -74.5 -106t-96.5 -38zM187 79q51 0 100.5 84.5t70.5 207.5l5 36q-23 7 -56 7q-74 0 -123 -74.5t-49 -180.5q0 -80 52 -80z
M333 542q-42 0 -72 28.5t-30 71.5q0 44 30 73t72 29t72 -28.5t30 -72.5q0 -43 -30.5 -72t-71.5 -29zM333 591q22 0 34.5 15t12.5 37q0 23 -12.5 38t-34.5 15t-34.5 -15t-12.5 -38q0 -22 12.5 -37t34.5 -15zM296 781l108 131h143l-156 -131h-95z" />
    <glyph glyph-name="AEacute" unicode="&#x1fc;" horiz-adv-x="830" 
d="M-64 0l497 666h408l-17 -94h-248l-33 -178h219l-16 -90h-218l-37 -210h255l-17 -94h-365l26 147h-227l-109 -147h-118zM228 238h178l57 320zM537 722l108 131h143l-156 -131h-95z" />
    <glyph glyph-name="aeacute" unicode="&#x1fd;" horiz-adv-x="712" 
d="M145 -12q-62 0 -101 34.5t-39 88.5q0 103 109 144q67 25 175 25h16q15 45 15 74q0 55 -72 55q-69 0 -132 -47l-44 69q84 66 189 66q101 0 138 -64q72 64 160 64q64 0 101.5 -31t37.5 -88q0 -85 -82.5 -127t-219.5 -47q-2 -22 -1 -34q3 -95 83 -95q65 0 125 54l46 -69
q-79 -72 -187 -72q-102 0 -145 77q-75 -77 -172 -77zM170 70q70 0 123 58q-2 13 -4 35q0 32 3 48h-12q-75 0 -115 -16q-53 -21 -53 -74q0 -51 58 -51zM406 274q88 2 138.5 25.5t50.5 66.5q0 46 -53 46q-42 0 -80.5 -37t-55.5 -101zM345 541l108 131h143l-156 -131h-95z" />
    <glyph glyph-name="Oslashacute" unicode="&#x1fe;" horiz-adv-x="744" 
d="M85 -73l-58 50l95 108q-65 79 -65 192q0 101 45.5 192t133 150t196.5 59q98 0 167 -44l83 95l58 -49l-85 -97q65 -79 65 -194q0 -76 -26.5 -148t-74 -128.5t-119.5 -90.5t-156 -34q-96 0 -166 46zM351 79q115 0 184 92.5t69 216.5q0 63 -26 112l-335 -387q43 -34 108 -34
zM173 279q0 -64 25 -111l334 386q-44 33 -108 33q-114 0 -182.5 -92t-68.5 -216zM397 722l108 131h143l-156 -131h-95z" />
    <glyph glyph-name="oslashacute" unicode="&#x1ff;" horiz-adv-x="498" 
d="M36 -65l-53 43l75 89q-32 51 -32 122q0 123 75.5 215.5t186.5 92.5q63 0 108 -32l81 95l53 -42l-88 -104q30 -50 30 -118q0 -128 -75 -218t-187 -90q-60 0 -104 29zM129 192q0 -27 4 -44l206 243q-23 24 -59 24q-64 0 -107.5 -71t-43.5 -152zM218 69q65 0 107.5 70.5
t42.5 150.5q0 21 -3 39l-203 -239q21 -21 56 -21zM245 541l108 131h143l-156 -131h-95z" />
    <glyph glyph-name="Scommaaccent" unicode="&#x218;" horiz-adv-x="474" 
d="M197 -12q-124 0 -206 76l63 76q67 -59 148 -59q56 0 83 25.5t27 65.5q0 35 -18.5 58t-72.5 67q-8 7 -13 11q-30 26 -46.5 42t-37 41t-29.5 53t-9 60q0 83 58 128.5t150 45.5q99 0 172 -54l-55 -81q-57 45 -121 45q-47 0 -71 -21.5t-24 -59.5q0 -23 13.5 -44.5t28 -35
t54.5 -45.5q35 -29 50 -42.5t39 -41t33.5 -56t9.5 -63.5q0 -82 -58 -136.5t-168 -54.5zM113 -224q39 37 39 64q0 12 -11.5 28.5t-11.5 29.5q0 24 18 40.5t44 16.5q23 0 38 -14t15 -37q0 -59 -76 -128h-55z" />
    <glyph glyph-name="scommaaccent" unicode="&#x219;" horiz-adv-x="367" 
d="M138 -12q-93 0 -153 50l48 72q51 -40 106 -40q33 0 51 15t18 40q0 7 -1.5 13.5t-5.5 14t-8 13t-12 15t-13 15t-17 17t-18 18.5q-36 38 -53 66.5t-17 66.5q0 60 44 96.5t119 36.5q80 0 130 -40l-48 -70q-38 28 -84 28q-28 0 -44.5 -12.5t-16.5 -36.5q0 -5 1.5 -10.5
t3 -9.5t5.5 -10t7 -10t9.5 -11.5t10.5 -11.5t13 -13.5t14 -14.5q34 -35 47 -50.5t26 -42.5t13 -57q0 -62 -45.5 -99.5t-129.5 -37.5zM53 -224q39 37 39 64q0 12 -11.5 28.5t-11.5 29.5q0 24 18 40.5t44 16.5q23 0 38 -14t15 -37q0 -59 -76 -128h-55z" />
    <glyph glyph-name="uni021A" unicode="&#x21a;" horiz-adv-x="511" 
d="M159 0l102 572h-185l16 94h476l-16 -94h-180l-102 -572h-111zM125 -224q39 37 39 64q0 12 -11.5 28.5t-11.5 29.5q0 24 18 40.5t44 16.5q23 0 38 -14t15 -37q0 -59 -76 -128h-55z" />
    <glyph glyph-name="uni021B" unicode="&#x21b;" horiz-adv-x="353" 
d="M165 -12q-103 0 -103 100q0 24 6 54l49 262h-81l14 80h82l24 129l110 29l-29 -158h120l-13 -80h-122l-46 -249q-6 -38 -6 -46q0 -32 26 -32q29 0 80 39l40 -71q-69 -57 -151 -57zM79 -224q39 37 39 64q0 12 -11.5 28.5t-11.5 29.5q0 24 18 40.5t44 16.5q23 0 38 -14
t15 -37q0 -59 -76 -128h-55z" />
    <glyph glyph-name="uni0237" unicode="&#x237;" horiz-adv-x="245" 
d="M-69 -230q-40 0 -82 15l34 84q18 -10 47 -10q41 0 61.5 28t31.5 89l91 508h104l-91 -516q-17 -94 -61.5 -146t-134.5 -52z" />
    <glyph glyph-name="uni0259" unicode="&#x259;" horiz-adv-x="446" 
d="M251 497q85 0 129.5 -51.5t44.5 -133.5q0 -136 -79 -230t-191 -94q-64 0 -101.5 31t-37.5 88t44 98t108.5 62t150.5 31q3 113 -83 113q-66 0 -125 -55l-47 69q81 72 187 72zM172 73q48 0 87 44t54 110q-87 -9 -140.5 -37t-53.5 -71q0 -46 53 -46z" />
    <glyph glyph-name="uni02BB" unicode="&#x2bb;" horiz-adv-x="215" 
d="M151 409q-32 0 -52.5 21.5t-20.5 57.5q0 53 37.5 107t87.5 95l38 -34q-54 -56 -54 -94q0 -17 15.5 -42t15.5 -47q0 -27 -19.5 -45.5t-47.5 -18.5z" />
    <glyph glyph-name="afii57929" unicode="&#x2bc;" horiz-adv-x="215" 
d="M115 396l-39 35q55 55 55 94q0 17 -15.5 41.5t-15.5 46.5q0 28 19.5 46.5t47.5 18.5q31 0 51.5 -21.5t20.5 -58.5q0 -52 -37 -106t-87 -96z" />
    <glyph glyph-name="circumflex" unicode="&#x2c6;" horiz-adv-x="500" 
d="M140 542l150 156h77l94 -156h-86l-57 77l-84 -77h-94z" />
    <glyph glyph-name="caron" unicode="&#x2c7;" horiz-adv-x="500" 
d="M261 540l-96 156h85l60 -77l88 77h93l-153 -156h-77z" />
    <glyph glyph-name="breve" unicode="&#x2d8;" horiz-adv-x="500" 
d="M309 533q-61 0 -99.5 33.5t-38.5 96.5l1 17h85l-1 -12q0 -62 57 -62q28 0 49 19.5t28 54.5h89q-17 -74 -64.5 -110.5t-105.5 -36.5z" />
    <glyph glyph-name="dotaccent" unicode="&#x2d9;" horiz-adv-x="500" 
d="M316 558q-28 0 -46.5 19.5t-18.5 46.5t18.5 46t46.5 19t47 -19t19 -46t-19 -46.5t-47 -19.5z" />
    <glyph glyph-name="ring" unicode="&#x2da;" horiz-adv-x="497" 
d="M319 542q-42 0 -72 28.5t-30 71.5q0 44 30 73t72 29t72 -28.5t30 -72.5q0 -43 -30.5 -72t-71.5 -29zM319 591q22 0 34.5 15t12.5 37q0 23 -12.5 38t-34.5 15t-34.5 -15t-12.5 -38q0 -22 12.5 -37t34.5 -15z" />
    <glyph glyph-name="ogonek" unicode="&#x2db;" horiz-adv-x="500" 
d="M181 -225q-46 0 -72 22t-26 58q0 73 91 145h65q-75 -75 -75 -127q0 -37 42 -37q20 0 43 7l8 -51q-32 -17 -76 -17z" />
    <glyph glyph-name="tilde" unicode="&#x2dc;" horiz-adv-x="500" 
d="M358 545q-28 0 -58.5 18.5t-48.5 18.5q-23 0 -56 -30l-39 45q48 67 108 67q28 0 58.5 -18.5t48.5 -18.5q32 0 57 30l41 -44q-53 -68 -111 -68z" />
    <glyph glyph-name="hungarumlaut" unicode="&#x2dd;" horiz-adv-x="500" 
d="M69 541l109 131h131l-152 -131h-88zM249 541l109 131h131l-152 -131h-88z" />
    <glyph glyph-name="gravecomb" unicode="&#x300;" 
d="M-252 541l-109 131h134l64 -131h-89z" />
    <glyph glyph-name="acutecomb" unicode="&#x301;" 
d="M-253 541l108 131h143l-156 -131h-95z" />
    <glyph glyph-name="uni0302" unicode="&#x302;" 
d="M-366 542l150 156h77l94 -156h-86l-57 77l-84 -77h-94z" />
    <glyph glyph-name="tildecomb" unicode="&#x303;" 
d="M-149 545q-28 0 -58.5 18.5t-48.5 18.5q-24 0 -56 -30l-39 45q48 67 108 67q28 0 58.5 -18.5t48.5 -18.5q32 0 57 30l41 -44q-53 -68 -111 -68z" />
    <glyph glyph-name="uni0304" unicode="&#x304;" 
d="M-330 588l14 80h275l-14 -80h-275z" />
    <glyph glyph-name="uni0306" unicode="&#x306;" 
d="M-190 540q-61 0 -99.5 33.5t-38.5 96.5l1 17h85l-1 -12q0 -62 57 -62q28 0 49 19.5t28 54.5h89q-17 -74 -64.5 -110.5t-105.5 -36.5z" />
    <glyph glyph-name="uni0307" unicode="&#x307;" 
d="M-58 562q-28 0 -47.5 20t-19.5 47t19.5 46.5t47.5 19.5q29 0 48 -19.5t19 -46.5q0 -28 -19 -47.5t-48 -19.5z" />
    <glyph glyph-name="uni0308" unicode="&#x308;" 
d="M-285 543q-26 0 -43.5 17.5t-17.5 43.5t17.5 43.5t43.5 17.5q27 0 45 -17.5t18 -43.5t-18 -43.5t-45 -17.5zM-88 543q-26 0 -43.5 17.5t-17.5 43.5t17.5 43.5t43.5 17.5q27 0 45 -17.5t18 -43.5t-18 -43.5t-45 -17.5z" />
    <glyph glyph-name="uni030A" unicode="&#x30a;" 
d="M-177 542q-42 0 -72 28.5t-30 71.5q0 44 30 73t72 29t72 -28.5t30 -72.5q0 -43 -30.5 -72t-71.5 -29zM-177 591q22 0 34.5 15t12.5 37q0 23 -12.5 38t-34.5 15t-34.5 -15t-12.5 -38q0 -22 12.5 -37t34.5 -15z" />
    <glyph glyph-name="uni030B" unicode="&#x30b;" 
d="M-430 541l109 131h131l-152 -131h-88zM-250 541l109 131h131l-152 -131h-88z" />
    <glyph glyph-name="uni030C" unicode="&#x30c;" 
d="M-205 540l-96 156h85l60 -77l88 77h93l-153 -156h-77z" />
    <glyph glyph-name="uni0312" unicode="&#x312;" 
d="M-119 856l43 -38q-56 -54 -56 -93q0 -19 16 -45t16 -49q0 -30 -20 -49.5t-50 -19.5q-33 0 -54.5 22.5t-21.5 60.5q0 56 38 112.5t89 98.5z" />
    <glyph glyph-name="uni0313" unicode="&#x313;" 
d="M-227 543l70 177h116l-110 -177h-76z" />
    <glyph glyph-name="uni0326" unicode="&#x326;" 
d="M-340 -224q39 37 39 64q0 12 -11.5 28.5t-11.5 29.5q0 24 18 40.5t44 16.5q23 0 38 -14t15 -37q0 -59 -76 -128h-55z" />
    <glyph glyph-name="uni0327" unicode="&#x327;" 
d="M-328 -225q-44 0 -75 13l18 51q20 -10 49 -10q48 0 48 37q0 43 -71 39l36 97h66l-24 -62q32 -5 51.5 -25.5t19.5 -51.5q0 -40 -33 -64t-85 -24z" />
    <glyph glyph-name="uni0328" unicode="&#x328;" 
d="M-318 -225q-46 0 -72 22t-26 58q0 73 91 145h65q-75 -75 -75 -127q0 -37 42 -37q20 0 43 7l8 -51q-32 -17 -76 -17z" />
    <glyph glyph-name="uni037E" unicode="&#x37e;" horiz-adv-x="245" 
d="M41 -156l-43 38q56 54 56 93q0 19 -16 45t-16 49q0 30 20 49.5t50 19.5q33 0 54.5 -22.5t21.5 -60.5q0 -56 -38 -112.5t-89 -98.5zM156 343q-32 0 -53.5 21t-21.5 52q0 30 22 51.5t53 21.5q30 0 52 -21.5t22 -51.5t-22 -51.5t-52 -21.5z" />
    <glyph glyph-name="tonos" unicode="&#x384;" horiz-adv-x="500" 
d="M144 541l50 131h127l-91 -131h-86z" />
    <glyph glyph-name="dieresistonos" unicode="&#x385;" horiz-adv-x="500" 
d="M84 540q-27 0 -45.5 19t-18.5 45t18.5 44.5t45.5 18.5t46 -18.5t19 -44.5t-18.5 -45t-46.5 -19zM415 540q-27 0 -45.5 19t-18.5 45t18.5 44.5t45.5 18.5t46 -18.5t19 -44.5t-19 -45t-46 -19zM185 541l27 143h123l-67 -143h-83z" />
    <glyph glyph-name="Alphatonos" unicode="&#x386;" horiz-adv-x="652" 
d="M229 235h209l-30 189q-10 62 -16 121h-2q-19 -47 -58 -121zM-9 0l371 666h107l122 -666h-116l-23 143h-270l-77 -143h-114zM116 536l50 131h127l-91 -131h-86z" />
    <glyph glyph-name="anoteleia" unicode="&#x387;" horiz-adv-x="259" 
d="M132 219q-30 0 -51.5 21t-21.5 51q0 29 21.5 50t51.5 21t51.5 -21t21.5 -50q0 -30 -21.5 -51t-51.5 -21z" />
    <glyph glyph-name="Epsilontonos" unicode="&#x388;" horiz-adv-x="643" 
d="M176 0l118 666h359l-17 -94h-248l-32 -178h219l-17 -90h-218l-37 -210h255l-17 -94h-365zM73 536l50 131h127l-91 -131h-86z" />
    <glyph glyph-name="Etatonos" unicode="&#x389;" horiz-adv-x="855" 
d="M176 0l118 666h111l-48 -271h327l48 271h111l-119 -666h-111l54 302h-326l-54 -302h-111zM73 536l50 131h127l-91 -131h-86z" />
    <glyph glyph-name="Iotatonos" unicode="&#x38a;" horiz-adv-x="423" 
d="M175 0l119 666h112l-119 -666h-112zM73 536l50 131h127l-91 -131h-86z" />
    <glyph glyph-name="Omicrontonos" unicode="&#x38c;" horiz-adv-x="839" 
d="M439 -12q-134 0 -211.5 84t-77.5 205q0 102 45.5 193t133.5 149.5t198 58.5q138 0 212.5 -82.5t74.5 -206.5q0 -103 -44.5 -193.5t-132 -149t-198.5 -58.5zM446 80q114 0 182.5 92.5t68.5 215.5q0 86 -45.5 142t-132.5 56q-115 0 -183.5 -91.5t-68.5 -215.5
q0 -86 48 -142.5t131 -56.5zM68 536l50 131h127l-91 -131h-86z" />
    <glyph glyph-name="Upsilontonos" unicode="&#x38e;" horiz-adv-x="775" 
d="M394 0l45 251l-147 415h115l105 -312h1l203 312h115l-281 -416l-45 -250h-111zM73 536l50 131h127l-91 -131h-86z" />
    <glyph glyph-name="Omegatonos" unicode="&#x38f;" horiz-adv-x="832" 
d="M107 0l17 90h128q-91 79 -91 202q0 164 109.5 275t257.5 111q120 0 201.5 -75t81.5 -193q0 -102 -48 -185.5t-128 -134.5h139l-17 -90h-267l15 86q84 41 138.5 122.5t54.5 186.5q0 80 -49.5 135.5t-129.5 55.5q-109 0 -177.5 -89t-68.5 -209q0 -125 97 -202l-15 -86h-248
zM68 536l50 131h127l-91 -131h-86z" />
    <glyph glyph-name="iotadieresistonos" unicode="&#x390;" horiz-adv-x="299" 
d="M153 -12q-108 0 -108 95q0 18 5 45l65 356h103l-63 -348q-3 -18 -3 -30q0 -30 26 -30q18 0 36 12l28 -72q-40 -28 -89 -28zM33 540q-27 0 -45.5 19t-18.5 45t18.5 44.5t45.5 18.5t46 -18.5t19 -44.5t-19 -45t-46 -19zM364 540q-27 0 -45.5 19t-18.5 45t18.5 44.5
t45.5 18.5t46 -18.5t19 -44.5t-18.5 -45t-46.5 -19zM134 541l27 143h123l-67 -143h-83z" />
    <glyph glyph-name="Alpha" unicode="&#x391;" horiz-adv-x="636" 
d="M213 235h209l-30 189q-10 62 -16 121h-2q-19 -47 -58 -121zM-25 0l371 666h107l122 -666h-116l-23 143h-270l-77 -143h-114z" />
    <glyph glyph-name="Beta" unicode="&#x392;" horiz-adv-x="579" 
d="M44 0l118 666h193q89 0 142 -38t53 -111q0 -69 -38 -112.5t-105 -60.5v-2q53 -9 86 -43.5t33 -87.5q0 -105 -76 -158t-205 -53h-201zM169 88h84q161 0 161 122q0 44 -30 68.5t-89 24.5h-88zM221 386h85q66 0 99.5 30t33.5 82q0 80 -105 80h-78z" />
    <glyph glyph-name="Gamma" unicode="&#x393;" horiz-adv-x="466" 
d="M43 0l118 666h361l-17 -94h-249l-102 -572h-111z" />
    <glyph glyph-name="uni0394" unicode="&#x394;" horiz-adv-x="631" 
d="M133 94h310l-66 332q-8 41 -17 116h-2q-32 -75 -53 -116zM-6 0l11 63l324 603h105l127 -603l-12 -63h-555z" />
    <glyph glyph-name="Epsilon" unicode="&#x395;" horiz-adv-x="510" 
d="M43 0l118 666h359l-17 -94h-248l-32 -178h219l-17 -90h-218l-37 -210h255l-17 -94h-365z" />
    <glyph glyph-name="Zeta" unicode="&#x396;" horiz-adv-x="531" 
d="M-12 0l14 75l405 500h-302l17 91h443l-14 -72l-409 -503h331l-17 -91h-468z" />
    <glyph glyph-name="Eta" unicode="&#x397;" horiz-adv-x="722" 
d="M43 0l118 666h111l-48 -271h327l48 271h111l-119 -666h-111l54 302h-326l-54 -302h-111z" />
    <glyph glyph-name="Theta" unicode="&#x398;" horiz-adv-x="744" 
d="M344 -12q-134 0 -211.5 84t-77.5 205q0 102 45.5 193t133.5 149.5t198 58.5q138 0 212.5 -82.5t74.5 -206.5q0 -103 -44.5 -193.5t-132 -149t-198.5 -58.5zM351 80q114 0 182.5 92.5t68.5 215.5q0 86 -45.5 142t-132.5 56q-115 0 -183.5 -91.5t-68.5 -215.5
q0 -86 48 -142.5t131 -56.5zM240 289l16 90h274l-16 -90h-274z" />
    <glyph glyph-name="Iota" unicode="&#x399;" horiz-adv-x="296" 
d="M48 0l119 666h112l-119 -666h-112z" />
    <glyph glyph-name="Kappa" unicode="&#x39a;" horiz-adv-x="592" 
d="M44 0l118 666h110l-55 -308l295 308h127l-307 -318l209 -348h-123l-204 340l-60 -340h-110z" />
    <glyph glyph-name="Lambda" unicode="&#x39b;" horiz-adv-x="623" 
d="M-29 0l352 666h105l136 -666h-115l-78 426q-7 39 -16 116h-2q-27 -63 -53 -116l-215 -426h-114z" />
    <glyph glyph-name="Mu" unicode="&#x39c;" horiz-adv-x="856" 
d="M11 0l208 666h104l65 -450q4 -24 7.5 -61.5t3.5 -40.5h2q31 69 48 102l231 450h107l-32 -666h-110l23 388q5 75 9 99h-2q-16 -40 -42 -91l-203 -396h-105l-57 392q-4 26 -8 60l-3 35h-2q-3 -19 -26 -99l-116 -388h-102z" />
    <glyph glyph-name="Nu" unicode="&#x39d;" horiz-adv-x="708" 
d="M41 0l118 666h109l198 -404q29 -57 44 -106h1q6 61 15 108l72 402h100l-118 -666h-100l-207 421q-22 43 -41 99h-2q-6 -55 -14 -100l-75 -420h-100z" />
    <glyph glyph-name="Xi" unicode="&#x39e;" horiz-adv-x="532" 
d="M-11 0l17 98h462l-18 -98h-461zM83 300l18 98h380l-18 -98h-380zM95 568l18 98h452l-18 -98h-452z" />
    <glyph glyph-name="Omicron" unicode="&#x39f;" horiz-adv-x="744" 
d="M344 -12q-134 0 -211.5 84t-77.5 205q0 102 45.5 193t133.5 149.5t198 58.5q138 0 212.5 -82.5t74.5 -206.5q0 -103 -44.5 -193.5t-132 -149t-198.5 -58.5zM351 80q114 0 182.5 92.5t68.5 215.5q0 86 -45.5 142t-132.5 56q-115 0 -183.5 -91.5t-68.5 -215.5
q0 -86 48 -142.5t131 -56.5z" />
    <glyph glyph-name="Pi" unicode="&#x3a0;" horiz-adv-x="694" 
d="M43 0l119 666h520l-120 -666h-110l104 572h-298l-104 -572h-111z" />
    <glyph glyph-name="Rho" unicode="&#x3a1;" horiz-adv-x="557" 
d="M43 0l118 666h186q98 0 156.5 -45.5t58.5 -127.5q0 -116 -79 -179t-211 -63h-74l-44 -251h-111zM215 340h69q82 0 123 37.5t41 103.5q0 96 -120 96h-71z" />
    <glyph glyph-name="Sigma" unicode="&#x3a3;" horiz-adv-x="503" 
d="M-4 0l12 73l232 275l-126 244l13 74h399l-17 -93h-277l122 -235l-206 -245h296l-17 -93h-431z" />
    <glyph glyph-name="Tau" unicode="&#x3a4;" horiz-adv-x="511" 
d="M159 0l102 572h-185l16 94h476l-16 -94h-180l-102 -572h-111z" />
    <glyph glyph-name="Upsilon" unicode="&#x3a5;" horiz-adv-x="571" 
d="M191 0l45 251l-147 415h115l105 -312h1l203 312h115l-281 -416l-45 -250h-111z" />
    <glyph glyph-name="Phi" unicode="&#x3a6;" horiz-adv-x="746" 
d="M271 0l13 70q-109 4 -177.5 70t-68.5 159q0 124 100 214t241 94l12 59h111l-10 -61q109 -4 177.5 -70t68.5 -159q0 -122 -100.5 -213t-241.5 -95l-13 -68h-112zM304 154l66 369q-94 -3 -158 -66.5t-64 -154.5q0 -63 44 -103.5t112 -44.5zM406 153q93 3 157 66.5t64 154.5
q0 63 -44 103.5t-112 43.5z" />
    <glyph glyph-name="Chi" unicode="&#x3a7;" horiz-adv-x="583" 
d="M-19 0l268 346l-140 320h118l98 -239l171 239h119l-248 -323l150 -343h-118l-108 262l-190 -262h-120z" />
    <glyph glyph-name="Psi" unicode="&#x3a8;" horiz-adv-x="735" 
d="M265 0l34 194q-99 12 -158 72t-59 156q0 28 6 60l33 184h113l-32 -177q-6 -33 -6 -59q0 -68 34.5 -103.5t92.5 -39.5l70 379h97l-69 -379q70 2 121.5 42.5t65.5 122.5l37 214h108l-37 -209q-45 -243 -305 -265l-34 -192h-112z" />
    <glyph glyph-name="uni03A9" unicode="&#x3a9;" horiz-adv-x="747" 
d="M7 0l17 90h128q-91 79 -91 202q0 164 109.5 275t257.5 111q120 0 201.5 -75t81.5 -193q0 -102 -48 -185.5t-128 -134.5h139l-17 -90h-267l15 86q84 41 138.5 122.5t54.5 186.5q0 80 -49.5 135.5t-129.5 55.5q-109 0 -177.5 -89t-68.5 -209q0 -125 97 -202l-15 -86h-248z
" />
    <glyph glyph-name="Iotadieresis" unicode="&#x3aa;" horiz-adv-x="296" 
d="M48 0l119 666h112l-119 -666h-112zM139 724q-26 0 -43.5 17.5t-17.5 43.5t17.5 43.5t43.5 17.5q27 0 45 -17.5t18 -43.5t-18 -43.5t-45 -17.5zM336 724q-26 0 -43.5 17.5t-17.5 43.5t17.5 43.5t43.5 17.5q27 0 45 -17.5t18 -43.5t-18 -43.5t-45 -17.5z" />
    <glyph glyph-name="Upsilondieresis" unicode="&#x3ab;" horiz-adv-x="571" 
d="M191 0l45 251l-147 415h115l105 -312h1l203 312h115l-281 -416l-45 -250h-111zM271 724q-26 0 -43.5 17.5t-17.5 43.5t17.5 43.5t43.5 17.5q27 0 45 -17.5t18 -43.5t-18 -43.5t-45 -17.5zM468 724q-26 0 -43.5 17.5t-17.5 43.5t17.5 43.5t43.5 17.5q27 0 45 -17.5
t18 -43.5t-18 -43.5t-45 -17.5z" />
    <glyph glyph-name="alphatonos" unicode="&#x3ac;" horiz-adv-x="567" 
d="M196 -12q-82 0 -125 57.5t-43 140.5q0 121 69 216t184 95q57 0 93.5 -32.5t49.5 -80.5h1q24 68 51 100h105q-34 -44 -75 -136l-50 -110l13 -117q8 -76 31 -121h-104q-14 29 -19 101h-1q-65 -113 -180 -113zM216 70q50 0 90.5 50t64.5 125q-1 67 -23.5 118t-71.5 51
q-66 0 -104.5 -69.5t-38.5 -154.5q0 -53 20.5 -86.5t62.5 -33.5zM260 541l50 131h127l-91 -131h-86z" />
    <glyph glyph-name="epsilontonos" unicode="&#x3ad;" horiz-adv-x="441" 
d="M206 -12q-86 0 -138.5 34t-52.5 94q0 53 38 92t94 47v1q-32 8 -53.5 33.5t-21.5 57.5q0 74 62 112.5t153 38.5q40 0 82 -13.5t66 -33.5l-40 -79q-48 40 -114 40q-103 0 -103 -66q0 -27 26.5 -43t69.5 -16h45l-14 -77h-46q-60 0 -98.5 -20t-38.5 -59q0 -58 91 -58
q83 0 147 47l38 -75q-82 -57 -192 -57zM233 541l50 131h127l-91 -131h-86z" />
    <glyph glyph-name="etatonos" unicode="&#x3ae;" horiz-adv-x="537" 
d="M280 -218l97 538q3 15 3 28q0 57 -61 57q-59 0 -124 -73l-60 -332h-104l66 363q14 74 9 121h103q6 -33 -2 -68q68 80 154 80q64 0 95 -33.5t31 -89.5q0 -23 -4 -42l-100 -549h-103zM264 541l50 131h127l-91 -131h-86z" />
    <glyph glyph-name="iotatonos" unicode="&#x3af;" horiz-adv-x="299" 
d="M153 -12q-108 0 -108 95q0 18 5 45l65 356h103l-63 -348q-3 -18 -3 -30q0 -30 26 -30q18 0 36 12l28 -72q-40 -28 -89 -28zM132 541l50 131h127l-91 -131h-86z" />
    <glyph glyph-name="upsilondieresistonos" unicode="&#x3b0;" horiz-adv-x="526" 
d="M218 -12q-85 0 -127 43t-42 118q0 24 5 56l51 279h103l-49 -269q-5 -30 -5 -53q0 -90 72 -90q44 0 81 51t57.5 127.5t20.5 155.5q0 46 -6 78h105q6 -32 6 -78q0 -180 -73.5 -299t-198.5 -119zM153 540q-27 0 -45.5 19t-18.5 45t18.5 44.5t45.5 18.5t46 -18.5t19 -44.5
t-19 -45t-46 -19zM484 540q-27 0 -45.5 19t-18.5 45t18.5 44.5t45.5 18.5t46 -18.5t19 -44.5t-18.5 -45t-46.5 -19zM254 541l27 143h123l-67 -143h-83z" />
    <glyph glyph-name="alpha" unicode="&#x3b1;" horiz-adv-x="567" 
d="M196 -12q-82 0 -125 57.5t-43 140.5q0 121 69 216t184 95q57 0 93.5 -32.5t49.5 -80.5h1q24 68 51 100h105q-34 -44 -75 -136l-50 -110l13 -117q8 -76 31 -121h-104q-14 29 -19 101h-1q-65 -113 -180 -113zM216 70q50 0 90.5 50t64.5 125q-1 67 -23.5 118t-71.5 51
q-66 0 -104.5 -69.5t-38.5 -154.5q0 -53 20.5 -86.5t62.5 -33.5z" />
    <glyph glyph-name="beta" unicode="&#x3b2;" horiz-adv-x="537" 
d="M-12 -218l132 725q21 116 90 170.5t166 54.5q68 0 111.5 -38.5t43.5 -97.5q0 -65 -46 -121t-106 -73v-2q51 -14 85.5 -56t34.5 -99q0 -118 -74.5 -186t-185.5 -68q-69 0 -106 25l-42 -234h-103zM241 74q69 0 110.5 46t41.5 115q0 53 -40 84.5t-107 31.5l13 75
q63 1 116 47t53 106q0 29 -17.5 49.5t-48.5 20.5q-113 0 -140 -151l-73 -397q34 -27 92 -27z" />
    <glyph glyph-name="gamma" unicode="&#x3b3;" horiz-adv-x="475" 
d="M87 -218q43 118 43 237q0 164 -90 465h114q50 -194 61 -344h1q115 179 169 344h109q-61 -192 -267 -478q-2 -117 -43 -224h-97z" />
    <glyph glyph-name="delta" unicode="&#x3b4;" horiz-adv-x="516" 
d="M223 -12q-96 0 -146.5 56.5t-50.5 137.5q0 97 56.5 175t143.5 115q-32 47 -32 100q0 69 50 114.5t125 45.5q73 0 121 -32l-46 -74q-29 23 -76 23q-30 0 -49.5 -21.5t-19.5 -51.5q0 -25 12.5 -49t24 -36.5t42.5 -43.5q29 -29 47.5 -52.5t36.5 -65t18 -86.5
q0 -108 -72.5 -181.5t-184.5 -73.5zM292 398q-2 2 -6.5 6t-6.5 6q-71 -30 -109.5 -88.5t-38.5 -135.5q0 -52 26 -84t74 -32q64 0 103 48.5t39 119.5q0 50 -20 84.5t-61 75.5z" />
    <glyph glyph-name="epsilon" unicode="&#x3b5;" horiz-adv-x="441" 
d="M206 -12q-86 0 -138.5 34t-52.5 94q0 53 38 92t94 47v1q-32 8 -53.5 33.5t-21.5 57.5q0 74 62 112.5t153 38.5q40 0 82 -13.5t66 -33.5l-40 -79q-48 40 -114 40q-103 0 -103 -66q0 -27 26.5 -43t69.5 -16h45l-14 -77h-46q-60 0 -98.5 -20t-38.5 -59q0 -58 91 -58
q83 0 147 47l38 -75q-82 -57 -192 -57z" />
    <glyph glyph-name="zeta" unicode="&#x3b6;" horiz-adv-x="370" 
d="M231 -174l-60 54q44 28 44 66q0 29 -33 47l-40 20q-113 58 -113 160q0 75 50.5 154.5t132.5 170.5l121 140h-205l14 82h343l-11 -64l-195 -216q-42 -46 -66.5 -76.5t-51 -80t-26.5 -87.5q0 -67 71 -104l39 -20q79 -40 79 -97q0 -46 -27.5 -87t-65.5 -62z" />
    <glyph glyph-name="eta" unicode="&#x3b7;" horiz-adv-x="537" 
d="M280 -218l97 538q3 15 3 28q0 57 -61 57q-59 0 -124 -73l-60 -332h-104l66 363q14 74 9 121h103q6 -33 -2 -68q68 80 154 80q64 0 95 -33.5t31 -89.5q0 -23 -4 -42l-100 -549h-103z" />
    <glyph glyph-name="theta" unicode="&#x3b8;" horiz-adv-x="524" 
d="M209 -12q-84 0 -126 45.5t-42 122.5q0 23 5 55l12 70q7 44 1 67h104q6 -22 -1 -67l-12 -66q-5 -30 -5 -52q0 -93 72 -93q62 0 105.5 83.5t63.5 200.5q-150 7 -218.5 52t-68.5 131q0 85 55 140t150 55q99 0 150.5 -67t51.5 -168q0 -62 -9 -128t-31.5 -135.5t-55 -123
t-85 -88t-116.5 -34.5zM201 549q0 -56 43 -84.5t152 -33.5q3 33 3 62q0 72 -27 116.5t-78 44.5q-46 0 -69.5 -28.5t-23.5 -76.5z" />
    <glyph glyph-name="iota" unicode="&#x3b9;" horiz-adv-x="299" 
d="M153 -12q-108 0 -108 95q0 18 5 45l65 356h103l-63 -348q-3 -18 -3 -30q0 -30 26 -30q18 0 36 12l28 -72q-40 -28 -89 -28z" />
    <glyph glyph-name="kappa" unicode="&#x3ba;" horiz-adv-x="521" 
d="M25 0l88 484h100l-32 -176q-11 -63 -32 -126h1q90 153 262 302h136q-117 -91 -219 -193l135 -291h-115l-93 213q-99 -106 -140 -213h-91z" />
    <glyph glyph-name="lambda" unicode="&#x3bb;" horiz-adv-x="506" 
d="M-28 0l279 487l-15 78q-6 38 -16.5 54.5t-30.5 16.5q-22 0 -44 -12l-20 73q44 28 95 28q47 0 74.5 -28.5t39.5 -100.5l104 -596h-104l-44 281q-9 59 -7 105h-1q-14 -43 -32 -77l-166 -309h-112z" />
    <glyph glyph-name="uni03BC" unicode="&#x3bc;" horiz-adv-x="560" 
d="M-20 -210l127 694h104l-55 -314q-4 -20 -4 -39q0 -51 41 -51q53 0 106.5 83.5t85.5 258.5l11 62h104l-46 -252q-31 -173 -31 -232h-102q10 87 21 140h-2q-79 -149 -176 -149q-28 0 -45 18q0 -17 -11 -81l-25 -138h-103z" />
    <glyph glyph-name="nu" unicode="&#x3bd;" horiz-adv-x="476" 
d="M137 0l-88 484h110l49 -350h2q125 180 176 350h108q-59 -193 -276 -484h-81z" />
    <glyph glyph-name="xi" unicode="&#x3be;" horiz-adv-x="384" 
d="M229 -174l-60 54q44 29 44 66q0 29 -33 47l-40 20q-113 57 -113 160q0 81 50.5 149t122.5 81v1q-35 13 -59.5 51t-24.5 76q0 88 60 142t161 54q75 0 122 -32l-46 -80q-31 23 -82 23q-53 0 -81.5 -29t-28.5 -78q0 -39 29 -69.5t77 -30.5h48l-15 -81h-54q-74 0 -123.5 -47
t-49.5 -111q0 -33 16 -56.5t55 -43.5l39 -20q79 -40 79 -97q0 -46 -28 -86.5t-65 -62.5z" />
    <glyph glyph-name="omicron" unicode="&#x3bf;" horiz-adv-x="498" 
d="M210 -12q-89 0 -136.5 58.5t-47.5 142.5q0 123 75.5 215.5t186.5 92.5q88 0 136 -57t48 -144q0 -128 -75 -218t-187 -90zM218 70q65 0 107 70t42 150q0 124 -87 124q-64 0 -107 -70.5t-43 -151.5q0 -56 22.5 -89t65.5 -33z" />
    <glyph glyph-name="pi" unicode="&#x3c0;" horiz-adv-x="614" 
d="M436 -12q-107 0 -107 97q0 23 4 43l50 276h-136q-41 -232 -95 -404h-103q60 187 98 404h-99l14 80h556l-14 -80h-117l-49 -268q-3 -16 -3 -29q0 -31 27 -31q16 0 36 12l27 -72q-40 -28 -89 -28z" />
    <glyph glyph-name="rho" unicode="&#x3c1;" horiz-adv-x="515" 
d="M-25 -218l85 474q43 240 246 240q85 0 134 -51.5t49 -140.5q0 -135 -75.5 -225.5t-190.5 -90.5q-66 0 -101 37l-43 -243h-104zM224 73q69 0 114.5 66.5t45.5 157.5q0 51 -23 83.5t-65 32.5q-104 0 -133 -161l-26 -147q34 -32 87 -32z" />
    <glyph glyph-name="sigma1" unicode="&#x3c2;" horiz-adv-x="414" 
d="M227 -174l-60 54q44 29 44 66q0 28 -34 47l-39 20q-114 58 -114 172q0 137 76.5 224t196.5 87q86 0 136 -39l-45 -79q-38 29 -97 29q-70 0 -115.5 -59.5t-45.5 -141.5q0 -76 71 -114l40 -20q78 -40 78 -97q0 -46 -27.5 -87t-64.5 -62z" />
    <glyph glyph-name="sigma" unicode="&#x3c3;" horiz-adv-x="535" 
d="M210 -12q-90 0 -137 56t-47 139q0 125 72.5 213t186.5 88h258l-14 -80h-96q39 -45 39 -124q0 -124 -74.5 -208t-187.5 -84zM218 70q66 0 107.5 64.5t41.5 143.5q0 38 -10.5 73t-27.5 53h-41q-72 0 -115 -67t-43 -151q0 -55 22.5 -85.5t65.5 -30.5z" />
    <glyph glyph-name="tau" unicode="&#x3c4;" horiz-adv-x="402" 
d="M208 -12q-107 0 -107 96q0 23 4 44l50 276h-121l13 80h384l-14 -80h-159l-48 -268q-3 -18 -3 -30q0 -30 26 -30q18 0 36 12l28 -72q-40 -28 -89 -28z" />
    <glyph glyph-name="upsilon" unicode="&#x3c5;" horiz-adv-x="526" 
d="M218 -12q-85 0 -127 43t-42 118q0 24 5 56l51 279h103l-49 -269q-5 -30 -5 -53q0 -90 72 -90q44 0 81 51t57.5 127.5t20.5 155.5q0 46 -6 78h105q6 -32 6 -78q0 -180 -73.5 -299t-198.5 -119z" />
    <glyph glyph-name="phi" unicode="&#x3c6;" horiz-adv-x="654" 
d="M182 -218l37 207q-92 12 -143 69.5t-51 142.5q0 94 49.5 175.5t120.5 114.5l46 -62q-47 -30 -78.5 -91.5t-31.5 -127.5q0 -57 28.5 -93.5t77.5 -44.5l41 227q36 198 201 198q66 0 107.5 -47.5t41.5 -125.5q0 -130 -88 -226.5t-221 -109.5l-38 -206h-99zM331 71
q83 12 137 80.5t54 162.5q0 45 -17 72.5t-45 27.5q-67 0 -88 -116z" />
    <glyph glyph-name="chi" unicode="&#x3c7;" horiz-adv-x="454" 
d="M-90 -218l246 366l-105 336h108l63 -235h1l148 235h111l-229 -339l113 -363h-107l-74 262h-1l-164 -262h-110z" />
    <glyph glyph-name="psi" unicode="&#x3c8;" horiz-adv-x="672" 
d="M197 -218l38 207q-88 6 -137 57.5t-49 134.5q0 23 5 53l45 250h104l-45 -246q-5 -28 -5 -49q0 -111 97 -117l104 568h94l-103 -568q77 7 131.5 109t54.5 225q0 46 -6 78h105q6 -32 6 -78q0 -178 -84 -296t-223 -122l-38 -206h-94z" />
    <glyph glyph-name="omega" unicode="&#x3c9;" horiz-adv-x="755" 
d="M173 -12q-69 0 -105 44.5t-36 120.5q0 92 34.5 182t89.5 149h116q-134 -155 -134 -320q0 -89 59 -89q91 0 143 254h101q-14 -86 -14 -135q0 -119 66 -119q35 0 61.5 37.5t39 88.5t12.5 104q0 102 -41 179h109q38 -68 38 -165q0 -64 -13.5 -122t-40 -105.5t-71 -75.5
t-102.5 -28q-59 0 -91 36t-39 92h-1q-26 -55 -73 -91.5t-108 -36.5z" />
    <glyph glyph-name="iotadieresis" unicode="&#x3ca;" horiz-adv-x="299" 
d="M153 -12q-108 0 -108 95q0 18 5 45l65 356h103l-63 -348q-3 -18 -3 -30q0 -30 26 -30q18 0 36 12l28 -72q-40 -28 -89 -28zM82 543q-26 0 -43.5 17.5t-17.5 43.5t17.5 43.5t43.5 17.5q27 0 45 -17.5t18 -43.5t-18 -43.5t-45 -17.5zM279 543q-26 0 -43.5 17.5t-17.5 43.5
t17.5 43.5t43.5 17.5q27 0 45 -17.5t18 -43.5t-18 -43.5t-45 -17.5z" />
    <glyph glyph-name="upsilondieresis" unicode="&#x3cb;" horiz-adv-x="526" 
d="M218 -12q-85 0 -127 43t-42 118q0 24 5 56l51 279h103l-49 -269q-5 -30 -5 -53q0 -90 72 -90q44 0 81 51t57.5 127.5t20.5 155.5q0 46 -6 78h105q6 -32 6 -78q0 -180 -73.5 -299t-198.5 -119zM203 543q-26 0 -43.5 17.5t-17.5 43.5t17.5 43.5t43.5 17.5q27 0 45 -17.5
t18 -43.5t-18 -43.5t-45 -17.5zM400 543q-26 0 -43.5 17.5t-17.5 43.5t17.5 43.5t43.5 17.5q27 0 45 -17.5t18 -43.5t-18 -43.5t-45 -17.5z" />
    <glyph glyph-name="omicrontonos" unicode="&#x3cc;" horiz-adv-x="498" 
d="M210 -12q-89 0 -136.5 58.5t-47.5 142.5q0 123 75.5 215.5t186.5 92.5q88 0 136 -57t48 -144q0 -128 -75 -218t-187 -90zM218 70q65 0 107 70t42 150q0 124 -87 124q-64 0 -107 -70.5t-43 -151.5q0 -56 22.5 -89t65.5 -33zM250 541l50 131h127l-91 -131h-86z" />
    <glyph glyph-name="upsilontonos" unicode="&#x3cd;" horiz-adv-x="526" 
d="M218 -12q-85 0 -127 43t-42 118q0 24 5 56l51 279h103l-49 -269q-5 -30 -5 -53q0 -90 72 -90q44 0 81 51t57.5 127.5t20.5 155.5q0 46 -6 78h105q6 -32 6 -78q0 -180 -73.5 -299t-198.5 -119zM252 541l50 131h127l-91 -131h-86z" />
    <glyph glyph-name="omegatonos" unicode="&#x3ce;" horiz-adv-x="755" 
d="M173 -12q-69 0 -105 44.5t-36 120.5q0 92 34.5 182t89.5 149h116q-134 -155 -134 -320q0 -89 59 -89q91 0 143 254h101q-14 -86 -14 -135q0 -119 66 -119q35 0 61.5 37.5t39 88.5t12.5 104q0 102 -41 179h109q38 -68 38 -165q0 -64 -13.5 -122t-40 -105.5t-71 -75.5
t-102.5 -28q-59 0 -91 36t-39 92h-1q-26 -55 -73 -91.5t-108 -36.5zM381 541l50 131h127l-91 -131h-86z" />
    <glyph glyph-name="uni0400" unicode="&#x400;" horiz-adv-x="510" 
d="M43 0l118 666h359l-17 -94h-248l-32 -178h219l-17 -90h-218l-37 -210h255l-17 -94h-365zM290 722l-109 131h134l64 -131h-89z" />
    <glyph glyph-name="afii10023" unicode="&#x401;" horiz-adv-x="510" 
d="M43 0l118 666h359l-17 -94h-248l-32 -178h219l-17 -90h-218l-37 -210h255l-17 -94h-365zM246 724q-26 0 -43.5 17.5t-17.5 43.5t17.5 43.5t43.5 17.5q27 0 45 -17.5t18 -43.5t-18 -43.5t-45 -17.5zM443 724q-26 0 -43.5 17.5t-17.5 43.5t17.5 43.5t43.5 17.5
q27 0 45 -17.5t18 -43.5t-18 -43.5t-45 -17.5z" />
    <glyph glyph-name="afii10051" unicode="&#x402;" horiz-adv-x="708" 
d="M346 -198q-35 0 -61 12l32 93q12 -6 38 -6q76 0 137 102.5t61 243.5q0 53 -23.5 86.5t-68.5 33.5q-47 0 -93.5 -28t-74.5 -59l-50 -280h-111l103 572h-159l17 94h481l-17 -94h-211l-38 -207q81 94 187 94q78 0 124.5 -55t46.5 -145q0 -192 -95.5 -324.5t-224.5 -132.5z
" />
    <glyph glyph-name="afii10052" unicode="&#x403;" horiz-adv-x="466" 
d="M43 0l118 666h361l-17 -94h-249l-102 -572h-111zM290 718l108 131h143l-156 -131h-95z" />
    <glyph glyph-name="afii10053" unicode="&#x404;" horiz-adv-x="610" 
d="M477 293h-308v-18q0 -88 43.5 -140.5t129.5 -52.5q83 0 159 59l46 -80q-32 -30 -90.5 -51.5t-124.5 -21.5q-137 0 -208 79t-71 202q0 169 111 289t278 120q123 0 189 -48l-57 -83q-53 37 -139 37q-89 0 -156 -55.5t-95 -145.5h310z" />
    <glyph glyph-name="afii10054" unicode="&#x405;" horiz-adv-x="474" 
d="M197 -12q-124 0 -206 76l63 76q67 -59 148 -59q56 0 83 25.5t27 65.5q0 35 -18.5 58t-72.5 67q-8 7 -13 11q-30 26 -46.5 42t-37 41t-29.5 53t-9 60q0 83 58 128.5t150 45.5q99 0 172 -54l-55 -81q-57 45 -121 45q-47 0 -71 -21.5t-24 -59.5q0 -23 13.5 -44.5t28 -35
t54.5 -45.5q35 -29 50 -42.5t39 -41t33.5 -56t9.5 -63.5q0 -82 -58 -136.5t-168 -54.5z" />
    <glyph glyph-name="afii10055" unicode="&#x406;" horiz-adv-x="296" 
d="M48 0l119 666h112l-119 -666h-112z" />
    <glyph glyph-name="afii10056" unicode="&#x407;" horiz-adv-x="296" 
d="M48 0l119 666h112l-119 -666h-112zM139 724q-26 0 -43.5 17.5t-17.5 43.5t17.5 43.5t43.5 17.5q27 0 45 -17.5t18 -43.5t-18 -43.5t-45 -17.5zM336 724q-26 0 -43.5 17.5t-17.5 43.5t17.5 43.5t43.5 17.5q27 0 45 -17.5t18 -43.5t-18 -43.5t-45 -17.5z" />
    <glyph glyph-name="afii10057" unicode="&#x408;" horiz-adv-x="294" 
d="M-40 -198q-51 0 -79 15l36 92q19 -8 41 -8q40 0 62.5 25.5t32.5 82.5l118 657h110l-120 -673q-33 -191 -201 -191z" />
    <glyph glyph-name="afii10058" unicode="&#x409;" horiz-adv-x="934" 
d="M-6 -10l2 89q55 3 91 63t68 186l89 338h408l-44 -251h74q98 0 156.5 -45.5t58.5 -127.5q0 -116 -79 -179t-211 -63h-185l102 572h-195l-70 -269q-42 -164 -102.5 -238.5t-162.5 -74.5zM550 89h69q82 0 123 37.5t41 103.5q0 96 -120 96h-71z" />
    <glyph glyph-name="afii10059" unicode="&#x40a;" horiz-adv-x="993" 
d="M43 0l118 666h111l-46 -260h327l46 260h112l-47 -260h76q98 0 156.5 -44t58.5 -126q0 -114 -79.5 -175t-210.5 -61h-185l56 313h-326l-56 -313h-111zM608 89h69q82 0 123 35.5t41 99.5q0 93 -120 93h-73z" />
    <glyph glyph-name="afii10060" unicode="&#x40b;" horiz-adv-x="739" 
d="M132 0l103 572h-159l17 94h487l-17 -94h-217l-37 -203q32 36 85 63t114 27q78 0 122.5 -41.5t44.5 -112.5q0 -24 -4 -44l-47 -261h-111l44 244q11 61 -14 92t-75 31q-49 0 -97.5 -28t-76.5 -59l-51 -280h-111z" />
    <glyph glyph-name="afii10061" unicode="&#x40c;" horiz-adv-x="596" 
d="M43 0l120 666h110l-51 -284h43l259 284h125l-303 -322q32 -28 75 -112q28 -54 41 -77t32 -42.5t38 -19.5h15l-16 -93h-37q-51 0 -81.5 32t-73.5 120q-38 77 -61 108.5t-53 31.5h-20l-52 -292h-110zM324 718l108 131h143l-156 -131h-95z" />
    <glyph glyph-name="uni040D" unicode="&#x40d;" horiz-adv-x="719" 
d="M43 0l120 666h103l-75 -414q-7 -41 -19 -97h2q21 33 84 105l346 406h103l-120 -666h-104l76 414q10 63 19 97h-2q-21 -33 -84 -105l-346 -406h-103zM409 722l-109 131h134l64 -131h-89z" />
    <glyph glyph-name="afii10062" unicode="&#x40e;" horiz-adv-x="563" 
d="M79 -3q-35 0 -55 8l29 85q11 -4 35 -4q38 0 66 23t58 73l18 30l-119 454h104l89 -341l207 341h112l-321 -521q-50 -82 -99.5 -115t-123.5 -33zM369 711q-61 0 -99.5 33.5t-38.5 96.5l1 17h85l-1 -12q0 -62 57 -62q28 0 49 19.5t28 54.5h89q-17 -74 -64.5 -110.5
t-105.5 -36.5z" />
    <glyph glyph-name="afii10145" unicode="&#x40f;" horiz-adv-x="684" 
d="M236 -145l17 145h-210l119 666h111l-104 -572h288l104 572h111l-119 -666h-209l-34 -145h-74z" />
    <glyph glyph-name="afii10017" unicode="&#x410;" horiz-adv-x="636" 
d="M213 235h209l-30 189q-10 62 -16 121h-2q-19 -47 -58 -121zM-25 0l371 666h107l122 -666h-116l-23 143h-270l-77 -143h-114z" />
    <glyph glyph-name="afii10018" unicode="&#x411;" horiz-adv-x="568" 
d="M43 0l119 666h382l-17 -94h-270l-30 -166h77q98 0 156.5 -44t58.5 -126q0 -112 -81.5 -174t-211.5 -62h-183zM171 89h68q82 0 124 35.5t42 99.5q0 93 -122 93h-72z" />
    <glyph glyph-name="afii10019" unicode="&#x412;" horiz-adv-x="579" 
d="M44 0l118 666h193q89 0 142 -38t53 -111q0 -69 -38 -112.5t-105 -60.5v-2q53 -9 86 -43.5t33 -87.5q0 -105 -76 -158t-205 -53h-201zM169 88h84q161 0 161 122q0 44 -30 68.5t-89 24.5h-88zM221 386h85q66 0 99.5 30t33.5 82q0 80 -105 80h-78z" />
    <glyph glyph-name="afii10020" unicode="&#x413;" horiz-adv-x="466" 
d="M43 0l118 666h361l-17 -94h-249l-102 -572h-111z" />
    <glyph glyph-name="afii10021" unicode="&#x414;" horiz-adv-x="687" 
d="M-43 -145l30 239h54q40 29 67 81t56 153l98 338h395l-104 -572h69l-63 -239h-74l17 145h-430l-41 -145h-74zM163 94h279l86 478h-183l-74 -269q-48 -171 -108 -209z" />
    <glyph glyph-name="afii10022" unicode="&#x415;" horiz-adv-x="510" 
d="M43 0l118 666h359l-17 -94h-248l-32 -178h219l-17 -90h-218l-37 -210h255l-17 -94h-365z" />
    <glyph glyph-name="afii10024" unicode="&#x416;" horiz-adv-x="888" 
d="M-25 0l16 92h12q32 0 61.5 30.5t87.5 109.5q75 104 122 127l-183 307h117l159 -284h37l51 284h110l-51 -284h42l257 284h129l-303 -322q33 -30 74 -112q28 -54 41 -77t32 -42.5t38 -19.5h15l-16 -93h-37q-51 0 -81.5 32t-73.5 120q-38 77 -61 108.5t-53 31.5h-19
l-53 -292h-110l53 292h-25q-32 0 -62 -31t-86 -109q-63 -87 -104 -119.5t-95 -32.5h-41z" />
    <glyph glyph-name="afii10025" unicode="&#x417;" horiz-adv-x="524" 
d="M183 -12q-125 0 -192 60l60 81q52 -48 141 -48q71 0 115 33.5t44 93.5q0 44 -32.5 69t-95.5 25h-70l15 85h57q69 0 111.5 28.5t42.5 84.5q0 36 -26.5 60t-70.5 24q-88 0 -153 -46l-34 76q83 64 197 64q86 0 144.5 -44t58.5 -114q0 -68 -39.5 -112t-105.5 -58v-2
q51 -8 83 -46t32 -93q0 -108 -79.5 -164.5t-202.5 -56.5z" />
    <glyph glyph-name="afii10026" unicode="&#x418;" horiz-adv-x="719" 
d="M43 0l120 666h103l-75 -414q-7 -41 -19 -97h2q21 33 84 105l346 406h103l-120 -666h-104l76 414q10 63 19 97h-2q-21 -33 -84 -105l-346 -406h-103z" />
    <glyph glyph-name="afii10027" unicode="&#x419;" horiz-adv-x="719" 
d="M43 0l120 666h103l-75 -414q-7 -41 -19 -97h2q21 33 84 105l346 406h103l-120 -666h-104l76 414q10 63 19 97h-2q-21 -33 -84 -105l-346 -406h-103zM443 711q-61 0 -99.5 33.5t-38.5 96.5l1 17h85l-1 -12q0 -62 57 -62q28 0 49 19.5t28 54.5h89q-17 -74 -64.5 -110.5
t-105.5 -36.5z" />
    <glyph glyph-name="afii10028" unicode="&#x41a;" horiz-adv-x="596" 
d="M43 0l120 666h110l-51 -284h43l259 284h125l-303 -322q32 -28 75 -112q28 -54 41 -77t32 -42.5t38 -19.5h15l-16 -93h-37q-51 0 -81.5 32t-73.5 120q-38 77 -61 108.5t-53 31.5h-20l-52 -292h-110z" />
    <glyph glyph-name="afii10029" unicode="&#x41b;" horiz-adv-x="665" 
d="M-6 -10l2 89q55 3 91 63t68 186l89 338h409l-120 -666h-112l104 572h-194l-70 -269q-42 -164 -103.5 -238.5t-163.5 -74.5z" />
    <glyph glyph-name="afii10030" unicode="&#x41c;" horiz-adv-x="856" 
d="M11 0l208 666h104l65 -450q4 -24 7.5 -61.5t3.5 -40.5h2q31 69 48 102l231 450h107l-32 -666h-110l23 388q5 75 9 99h-2q-16 -40 -42 -91l-203 -396h-105l-57 392q-4 26 -8 60l-3 35h-2q-3 -19 -26 -99l-116 -388h-102z" />
    <glyph glyph-name="afii10031" unicode="&#x41d;" horiz-adv-x="722" 
d="M43 0l118 666h111l-48 -271h327l48 271h111l-119 -666h-111l54 302h-326l-54 -302h-111z" />
    <glyph glyph-name="afii10032" unicode="&#x41e;" horiz-adv-x="744" 
d="M344 -12q-134 0 -211.5 84t-77.5 205q0 102 45.5 193t133.5 149.5t198 58.5q138 0 212.5 -82.5t74.5 -206.5q0 -103 -44.5 -193.5t-132 -149t-198.5 -58.5zM351 80q114 0 182.5 92.5t68.5 215.5q0 86 -45.5 142t-132.5 56q-115 0 -183.5 -91.5t-68.5 -215.5
q0 -86 48 -142.5t131 -56.5z" />
    <glyph glyph-name="afii10033" unicode="&#x41f;" horiz-adv-x="694" 
d="M43 0l119 666h520l-120 -666h-110l104 572h-298l-104 -572h-111z" />
    <glyph glyph-name="afii10034" unicode="&#x420;" horiz-adv-x="557" 
d="M43 0l118 666h186q98 0 156.5 -45.5t58.5 -127.5q0 -116 -79 -179t-211 -63h-74l-44 -251h-111zM215 340h69q82 0 123 37.5t41 103.5q0 96 -120 96h-71z" />
    <glyph glyph-name="afii10035" unicode="&#x421;" horiz-adv-x="610" 
d="M332 -12q-137 0 -208 79t-71 202q0 169 111 289t278 120q123 0 189 -48l-57 -83q-53 37 -139 37q-115 0 -189.5 -89.5t-74.5 -219.5q0 -88 42.5 -140.5t128.5 -52.5q83 0 159 59l46 -80q-32 -30 -90.5 -51.5t-124.5 -21.5z" />
    <glyph glyph-name="afii10036" unicode="&#x422;" horiz-adv-x="511" 
d="M159 0l102 572h-185l16 94h476l-16 -94h-180l-102 -572h-111z" />
    <glyph glyph-name="afii10037" unicode="&#x423;" horiz-adv-x="563" 
d="M79 -3q-35 0 -55 8l29 85q11 -4 35 -4q38 0 66 23t58 73l18 30l-119 454h104l89 -341l207 341h112l-321 -521q-50 -82 -99.5 -115t-123.5 -33z" />
    <glyph glyph-name="afii10038" unicode="&#x424;" horiz-adv-x="746" 
d="M271 0l13 70q-109 4 -177.5 70t-68.5 159q0 124 100 214t241 94l12 59h111l-10 -61q109 -4 177.5 -70t68.5 -159q0 -122 -100.5 -213t-241.5 -95l-13 -68h-112zM304 154l66 369q-94 -3 -158 -66.5t-64 -154.5q0 -63 44 -103.5t112 -44.5zM406 153q93 3 157 66.5t64 154.5
q0 63 -44 103.5t-112 43.5z" />
    <glyph glyph-name="afii10039" unicode="&#x425;" horiz-adv-x="583" 
d="M-19 0l268 346l-140 320h118l98 -239l171 239h119l-248 -323l150 -343h-118l-108 262l-190 -262h-120z" />
    <glyph glyph-name="afii10040" unicode="&#x426;" horiz-adv-x="702" 
d="M502 -145l16 145h-475l119 666h111l-104 -572h288l104 572h111l-103 -572h69l-63 -239h-73z" />
    <glyph glyph-name="afii10041" unicode="&#x427;" horiz-adv-x="632" 
d="M390 0l48 270q-32 -36 -84.5 -63t-113.5 -27q-78 0 -123 41.5t-45 112.5q0 23 4 43l53 289h111l-50 -271q-3 -16 -3 -32q0 -45 25 -68.5t68 -23.5q49 0 97.5 28t76.5 59l56 308h110l-120 -666h-110z" />
    <glyph glyph-name="afii10042" unicode="&#x428;" horiz-adv-x="1051" 
d="M43 0l119 666h111l-104 -572h272l104 572h111l-104 -572h272l104 572h111l-119 -666h-877z" />
    <glyph glyph-name="afii10043" unicode="&#x429;" horiz-adv-x="1069" 
d="M869 -145l16 145h-842l119 666h111l-104 -572h272l104 572h111l-104 -572h272l104 572h111l-103 -572h69l-63 -239h-73z" />
    <glyph glyph-name="afii10044" unicode="&#x42a;" horiz-adv-x="652" 
d="M140 0l102 572h-166l16 94h278l-45 -251h75q98 0 156.5 -45.5t58.5 -127.5q0 -116 -79.5 -179t-211.5 -63h-184zM267 89h69q82 0 123 37.5t41 103.5q0 96 -119 96h-72z" />
    <glyph glyph-name="afii10045" unicode="&#x42b;" horiz-adv-x="832" 
d="M43 0l119 666h111l-45 -251h75q98 0 156.5 -45.5t58.5 -127.5q0 -116 -79.5 -179t-211.5 -63h-184zM170 89h69q82 0 123 37.5t41 103.5q0 96 -119 96h-72zM589 0l119 666h112l-119 -666h-112z" />
    <glyph glyph-name="afii10046" unicode="&#x42c;" horiz-adv-x="555" 
d="M43 0l119 666h111l-45 -251h75q98 0 156.5 -45.5t58.5 -127.5q0 -116 -79.5 -179t-211.5 -63h-184zM170 89h69q82 0 123 37.5t41 103.5q0 96 -119 96h-72z" />
    <glyph glyph-name="afii10047" unicode="&#x42d;" horiz-adv-x="610" 
d="M147 280l16 90h298q1 7 1 21q0 88 -43.5 140.5t-129.5 52.5t-157 -53l-40 83q32 25 87.5 44.5t119.5 19.5q137 0 208 -79t71 -202q0 -172 -108 -290.5t-276 -118.5q-126 0 -195 55l59 83q57 -44 143 -44q88 0 153 54t92 144h-299z" />
    <glyph glyph-name="afii10048" unicode="&#x42e;" horiz-adv-x="1060" 
d="M43 0l118 666h111l-48 -271h165q35 122 131.5 202.5t228.5 80.5q138 0 212.5 -82.5t74.5 -206.5q0 -76 -26.5 -148t-74 -128.5t-119.5 -90.5t-156 -34q-133 0 -210.5 84t-77.5 205q0 16 1 25h-165l-54 -302h-111zM668 80q114 0 182.5 92.5t68.5 215.5q0 86 -45.5 142
t-132.5 56q-115 0 -183.5 -91.5t-68.5 -215.5q0 -86 47.5 -142.5t131.5 -56.5z" />
    <glyph glyph-name="afii10049" unicode="&#x42f;" horiz-adv-x="599" 
d="M-6 0l17 92h9q29 0 57 26.5t75 89.5q62 84 91 99v1q-54 6 -92 44t-38 96q0 101 75 159.5t194 58.5h205l-120 -666h-112l53 291h-30q-29 0 -59.5 -31.5t-85.5 -107.5q-63 -87 -104 -119.5t-96 -32.5h-39zM334 373h88l37 204h-81q-75 0 -114 -32.5t-39 -93.5q0 -78 109 -78
z" />
    <glyph glyph-name="afii10065" unicode="&#x430;" horiz-adv-x="504" 
d="M150 -12q-57 0 -89.5 41.5t-32.5 112.5q0 150 82 252.5t215 102.5q96 0 154 -25l-44 -240q-30 -168 -30 -232h-102q7 76 20 132h-2q-35 -68 -74.5 -106t-96.5 -38zM187 79q51 0 100.5 84.5t70.5 207.5l5 36q-23 7 -56 7q-74 0 -123 -74.5t-49 -180.5q0 -80 52 -80z" />
    <glyph glyph-name="afii10066" unicode="&#x431;" horiz-adv-x="503" 
d="M224 -12q-95 0 -138 58.5t-43 154.5q0 87 18 164.5t55 146.5t103 117.5t154 66.5l148 31l2 -93l-133 -23q-154 -30 -205 -169q57 50 127 50q83 0 124 -56t41 -142q0 -129 -70.5 -217.5t-182.5 -88.5zM233 70q63 0 101 67.5t38 150.5q0 124 -82 124q-69 0 -123 -63
q-18 -83 -18 -152q0 -127 84 -127z" />
    <glyph glyph-name="afii10067" unicode="&#x432;" horiz-adv-x="492" 
d="M215 -13q-129 0 -193 35l51 286q32 188 229 188q69 0 115.5 -31.5t46.5 -86.5q0 -48 -29.5 -79.5t-76.5 -44.5v-2q38 -7 63 -33.5t25 -66.5q0 -75 -66.5 -120t-164.5 -45zM224 65q56 0 87 24.5t31 64.5q0 26 -16.5 43.5t-45.5 17.5q-6 0 -20 -2l-104 -19l-20 -111
q29 -18 88 -18zM168 264l106 20q42 8 64.5 29t22.5 49q0 26 -20 41.5t-53 15.5q-49 0 -74.5 -29.5t-36.5 -83.5z" />
    <glyph glyph-name="afii10068" unicode="&#x433;" horiz-adv-x="391" 
d="M173 -12q-75 0 -119 32t-44 90q0 63 35 98t107 67q11 5 31 13.5t28.5 12.5t22.5 11t20 12t13.5 12.5t10 15.5t2.5 18q0 20 -16.5 32t-44.5 12q-56 0 -113 -34l-29 74q69 42 153 42q67 0 107.5 -33.5t40.5 -86.5q0 -61 -36 -97t-109 -68q-10 -4 -27 -11.5t-25 -11
t-20.5 -10t-18.5 -10.5t-13.5 -10t-11 -12t-6 -13.5t-2.5 -16.5q0 -47 75 -47q64 0 129 40l26 -76q-74 -45 -166 -45z" />
    <glyph glyph-name="afii10069" unicode="&#x434;" horiz-adv-x="496" 
d="M207 -12q-81 0 -130.5 53t-49.5 145q0 132 72.5 216.5t172.5 84.5q53 0 91 -31q-33 192 -248 192l29 83q155 0 242 -92.5t87 -254.5q0 -77 -15.5 -146t-46.5 -126t-83.5 -90.5t-120.5 -33.5zM216 70q47 0 81.5 44t51.5 109t19 141q-35 42 -95 42q-61 0 -100.5 -61
t-39.5 -155q0 -120 83 -120z" />
    <glyph glyph-name="afii10070" unicode="&#x435;" horiz-adv-x="446" 
d="M199 -12q-85 0 -129.5 51.5t-44.5 133.5q0 136 79 230t191 94q64 0 101.5 -31t37.5 -88q0 -154 -304 -192q0 -111 84 -111q65 0 125 54l47 -69q-81 -72 -187 -72zM278 412q-48 0 -86 -44t-54 -110q88 10 140.5 37.5t52.5 70.5q0 46 -53 46z" />
    <glyph glyph-name="afii10072" unicode="&#x436;" horiz-adv-x="907" 
d="M359 0l38 209h-89q-20 -103 -81 -162t-150 -59q-60 0 -94 24l45 79q24 -15 55 -15q60 0 94.5 58.5t34.5 159.5q0 50 -16 82t-46 32q-37 0 -66 -27l-42 69q52 46 128 46q68 0 107.5 -51.5t39.5 -139.5v-11h95l35 190h100l-35 -190h91q24 94 83.5 148t144.5 54q59 0 94 -24
l-46 -79q-24 15 -55 15q-60 0 -94.5 -58.5t-34.5 -159.5q0 -49 16.5 -81.5t45.5 -32.5q37 0 66 27l42 -69q-52 -46 -128 -46q-68 0 -107.5 51.5t-39.5 139.5v30h-93l-38 -209h-100z" />
    <glyph glyph-name="afii10073" unicode="&#x437;" horiz-adv-x="405" 
d="M140 -11q-93 0 -150 42l49 71q44 -31 109 -31q108 0 108 78q0 30 -30.5 47.5t-75.5 17.5h-33l12 68h30q48 0 81.5 21.5t33.5 58.5q0 24 -19 38t-54 14q-64 0 -117 -32l-27 69q72 44 155 44q73 0 119 -29.5t46 -83.5q0 -52 -31.5 -87t-80.5 -44v-2q37 -4 65.5 -31.5
t28.5 -67.5q0 -80 -61.5 -120.5t-157.5 -40.5z" />
    <glyph glyph-name="afii10074" unicode="&#x438;" horiz-adv-x="522" 
d="M146 -13q-51 0 -77.5 31.5t-26.5 89.5q0 30 5 55l59 321h104l-56 -314q-4 -20 -4 -38q0 -52 42 -52q53 0 106.5 83.5t84.5 258.5l12 62h103l-45 -252q-28 -158 -32 -232h-102q10 90 22 140h-2q-17 -30 -32 -52t-39.5 -47.5t-55.5 -39.5t-66 -14z" />
    <glyph glyph-name="afii10075" unicode="&#x439;" horiz-adv-x="522" 
d="M146 -13q-51 0 -77.5 31.5t-26.5 89.5q0 30 5 55l59 321h104l-56 -314q-4 -20 -4 -38q0 -52 42 -52q53 0 106.5 83.5t84.5 258.5l12 62h103l-45 -252q-28 -158 -32 -232h-102q10 90 22 140h-2q-17 -30 -32 -52t-39.5 -47.5t-55.5 -39.5t-66 -14zM317 533
q-61 0 -99.5 33.5t-38.5 96.5l1 17h85l-1 -12q0 -62 57 -62q28 0 49 19.5t28 54.5h89q-17 -74 -64.5 -110.5t-105.5 -36.5z" />
    <glyph glyph-name="afii10076" unicode="&#x43a;" horiz-adv-x="502" 
d="M29 0l86 484h106l-37 -200h31l184 200h122l-222 -232q27 -24 53 -75q25 -51 42.5 -73.5t36.5 -22.5h11l-15 -81h-37q-42 0 -64.5 23.5t-55.5 88.5q-27 54 -43.5 76t-37.5 22h-18l-37 -210h-105z" />
    <glyph glyph-name="afii10077" unicode="&#x43b;" horiz-adv-x="536" 
d="M-12 -8l-1 80q37 3 64.5 43t50.5 124l64 245h341l-87 -484h-105l72 401h-144l-46 -184q-57 -225 -209 -225z" />
    <glyph glyph-name="afii10078" unicode="&#x43c;" horiz-adv-x="674" 
d="M-2 0l159 484h99l42 -306q5 -40 7 -81h2q26 57 38 81l162 306h101l-22 -484h-104l16 250q5 60 9 82h-2q-10 -33 -33 -77l-135 -255h-99l-34 253q-6 34 -9 79h-1q-9 -45 -20 -82l-80 -250h-96z" />
    <glyph glyph-name="afii10079" unicode="&#x43d;" horiz-adv-x="554" 
d="M29 0l87 484h105l-34 -190h199l35 190h105l-87 -484h-106l38 209h-199l-38 -209h-105z" />
    <glyph glyph-name="afii10080" unicode="&#x43e;" horiz-adv-x="498" 
d="M210 -12q-89 0 -136.5 58.5t-47.5 142.5q0 123 75.5 215.5t186.5 92.5q88 0 136 -57t48 -144q0 -128 -75 -218t-187 -90zM218 70q65 0 107 70t42 150q0 124 -87 124q-64 0 -107 -70.5t-43 -151.5q0 -56 22.5 -89t65.5 -33z" />
    <glyph glyph-name="afii10081" unicode="&#x43f;" horiz-adv-x="522" 
d="M23 0l88 484h100q-8 -60 -26 -132h2q16 28 30.5 48.5t37.5 45t54 38t66 13.5q51 0 77.5 -31.5t26.5 -89.5q0 -30 -5 -55l-59 -321h-103l55 314q4 20 4 38q0 52 -42 52q-55 0 -108 -86.5t-86 -270.5l-8 -47h-104z" />
    <glyph glyph-name="afii10082" unicode="&#x440;" horiz-adv-x="509" 
d="M-20 -218l128 702h101q-9 -52 -28 -128h2q37 67 77.5 104t99.5 37q58 0 89.5 -44.5t31.5 -116.5q0 -149 -80 -248.5t-207 -99.5q-40 0 -71 7l-39 -213h-104zM197 68q78 0 127 72t49 181q0 84 -50 84q-55 0 -104.5 -84.5t-73.5 -207.5l-7 -38q31 -7 59 -7z" />
    <glyph glyph-name="afii10083" unicode="&#x441;" horiz-adv-x="418" 
d="M202 -12q-84 0 -131 51t-47 140q0 137 83 227.5t195 90.5q77 0 122 -33l-46 -79q-33 23 -82 23q-66 0 -116 -60.5t-50 -156.5q0 -115 85 -115q55 0 106 48l48 -69q-72 -67 -167 -67z" />
    <glyph glyph-name="afii10084" unicode="&#x442;" horiz-adv-x="797" 
d="M23 0l88 484h100q-5 -50 -26 -130h2q76 143 181 143q100 0 100 -115q0 -15 -1 -22h2q37 63 80 100t103 37q50 0 76.5 -32t26.5 -90q0 -27 -6 -58l-57 -317h-103l55 305q5 27 5 45q0 54 -41 54q-55 0 -106 -87.5t-84 -269.5l-9 -47h-103l55 305q4 19 4 42q0 57 -42 57
q-53 0 -104 -87.5t-84 -269.5l-8 -47h-104z" />
    <glyph glyph-name="afii10085" unicode="&#x443;" horiz-adv-x="471" 
d="M-2 -223q-59 0 -89 18l38 83q25 -11 57 -11q43 0 74.5 26.5t71.5 98.5l-97 492h109l52 -311q2 -15 4.5 -40t3.5 -30h2q1 4 5.5 17.5t9.5 27t10 25.5l142 311h109l-211 -420q-79 -161 -138.5 -224t-152.5 -63z" />
    <glyph glyph-name="afii10086" unicode="&#x444;" horiz-adv-x="724" 
d="M230 -218l41 220q8 42 22 97h-2q-59 -111 -147 -111q-53 0 -84.5 45t-31.5 115q0 147 77.5 248t195.5 101q33 0 57 -8l42 231h97l-44 -238q-8 -41 -22 -96h2q59 111 147 111q53 0 84.5 -45.5t31.5 -115.5q0 -146 -77.5 -247t-195.5 -101q-25 0 -57 7l-39 -213h-97z
M187 80q40 0 76.5 48t53.5 134l28 147q-24 8 -47 8q-68 0 -116 -74.5t-48 -179.5q0 -83 53 -83zM426 68q68 0 116 74.5t48 178.5q0 84 -53 84q-40 0 -76.5 -48t-53.5 -134l-28 -148q32 -7 47 -7z" />
    <glyph glyph-name="afii10087" unicode="&#x445;" horiz-adv-x="457" 
d="M-37 0l208 250l-114 234h115l68 -154l118 154h114l-192 -233l119 -251h-115l-74 170l-134 -170h-113z" />
    <glyph glyph-name="afii10088" unicode="&#x446;" horiz-adv-x="542" 
d="M381 -145l14 145h-34q-41 0 -36 47q6 46 16 93h-2q-17 -30 -32 -52t-39.5 -47.5t-55.5 -39.5t-66 -14q-51 0 -77.5 31.5t-26.5 89.5q0 30 5 55l59 321h104l-56 -314q-4 -20 -4 -38q0 -52 42 -52q53 0 106.5 83.5t84.5 258.5l12 62h103l-45 -252q-3 -17 -18 -108
q-7 -36 24 -36h44l-51 -233h-71z" />
    <glyph glyph-name="afii10089" unicode="&#x447;" horiz-adv-x="504" 
d="M301 0q21 151 46 270h-2q-30 -54 -78 -89.5t-109 -35.5q-51 0 -77.5 31.5t-26.5 89.5q0 30 5 55l29 163h104l-26 -157q-4 -19 -4 -38q0 -52 42 -52q56 0 104.5 61.5t63.5 153.5l5 32h103l-45 -252q-22 -124 -33 -232h-101z" />
    <glyph glyph-name="afii10090" unicode="&#x448;" horiz-adv-x="810" 
d="M148 -13q-51 0 -78.5 32t-27.5 90q0 30 5 54l59 321h103l-55 -314q-4 -20 -4 -38q0 -52 42 -52q53 0 106.5 83.5t84.5 258.5l11 62h104l-56 -314q-4 -19 -4 -37q0 -53 42 -53q53 0 106.5 83.5t85.5 258.5l11 62h103l-45 -252q-31 -173 -31 -232h-103q14 102 22 140h-2
q-17 -30 -32.5 -52t-39.5 -47.5t-55.5 -39.5t-66.5 -14q-52 0 -76 32.5t-24 83.5q0 14 1 21h-2q-37 -63 -80 -100t-104 -37z" />
    <glyph glyph-name="afii10091" unicode="&#x449;" horiz-adv-x="830" 
d="M669 -145l14 145h-34q-41 0 -36 47q10 66 16 93h-2q-17 -30 -32.5 -52t-39.5 -47.5t-55.5 -39.5t-66.5 -14q-52 0 -76 32.5t-24 83.5q0 14 1 21h-2q-37 -63 -80 -100t-104 -37q-51 0 -78.5 32t-27.5 90q0 30 5 54l59 321h103l-55 -314q-4 -20 -4 -38q0 -52 42 -52
q53 0 106.5 83.5t84.5 258.5l11 62h104l-56 -314q-4 -19 -4 -37q0 -53 42 -53q53 0 106.5 83.5t85.5 258.5l11 62h103l-45 -252q-3 -17 -18 -108q-3 -18 1.5 -27t23.5 -9h43l-51 -233h-71z" />
    <glyph glyph-name="afii10092" unicode="&#x44a;" horiz-adv-x="526" 
d="M247 -13q-117 0 -183 31l69 383h-115l15 83h220l-21 -115q-14 -78 -30 -134h2q59 95 151 95q61 0 99 -37.5t38 -101.5q0 -89 -71 -146.5t-174 -57.5zM257 66q58 0 91.5 33t33.5 81q0 29 -17.5 46.5t-48.5 17.5q-42 0 -81 -40t-51 -102l-4 -23q29 -13 77 -13z" />
    <glyph glyph-name="afii10093" unicode="&#x44b;" horiz-adv-x="742" 
d="M212 -13q-117 0 -183 31l84 466h105l-21 -115q-11 -63 -30 -134h2q24 39 62.5 67t88.5 28q62 0 99.5 -37.5t37.5 -101.5q0 -89 -71 -146.5t-174 -57.5zM222 66q58 0 91.5 33t33.5 81q0 29 -17.5 46.5t-48.5 17.5q-42 0 -81 -40t-51 -102l-4 -23q29 -13 77 -13zM521 0
l88 484h104l-88 -484h-104z" />
    <glyph glyph-name="afii10094" unicode="&#x44c;" horiz-adv-x="495" 
d="M212 -13q-117 0 -183 31l84 466h105l-21 -115q-11 -63 -30 -134h2q24 39 62.5 67t88.5 28q62 0 99.5 -37.5t37.5 -101.5q0 -89 -71 -146.5t-174 -57.5zM222 66q58 0 91.5 33t33.5 81q0 29 -17.5 46.5t-48.5 17.5q-42 0 -81 -40t-51 -102l-4 -23q29 -13 77 -13z" />
    <glyph glyph-name="afii10095" unicode="&#x44d;" horiz-adv-x="418" 
d="M90 200l13 76h188v12q0 58 -25.5 89.5t-66.5 31.5q-62 0 -105 -41l-44 69q64 60 163 60q79 0 129.5 -55t50.5 -143q0 -137 -77 -224t-192 -87q-79 0 -124 32l45 80q33 -23 85 -23q49 0 89.5 32.5t58.5 90.5h-188z" />
    <glyph glyph-name="afii10096" unicode="&#x44e;" horiz-adv-x="773" 
d="M134 0h-105l87 484h105l-34 -190h129q28 88 95 145.5t152 57.5q87 0 135 -57t48 -144q0 -128 -74.5 -218t-187.5 -90q-89 0 -136.5 58.5t-47.5 142.5v20h-128zM493 70q65 0 106.5 70t41.5 150q0 124 -86 124q-64 0 -107 -70.5t-43 -151.5q0 -56 22.5 -89t65.5 -33z" />
    <glyph glyph-name="afii10097" unicode="&#x44f;" horiz-adv-x="508" 
d="M7 0l11 81h6q12 0 27 11t27.5 24.5t39.5 44.5q43 51 61 57v1q-42 2 -72 30t-30 72q0 77 59 120t159 43h184l-87 -484h-105l35 198h-24q-19 0 -39 -18t-62 -70q-56 -67 -83.5 -88.5t-69.5 -21.5h-37zM258 272h78l23 132h-72q-102 0 -102 -81q0 -51 73 -51z" />
    <glyph glyph-name="uni0450" unicode="&#x450;" horiz-adv-x="446" 
d="M199 -12q-85 0 -129.5 51.5t-44.5 133.5q0 136 79 230t191 94q64 0 101.5 -31t37.5 -88q0 -154 -304 -192q0 -111 84 -111q65 0 125 54l47 -69q-81 -72 -187 -72zM278 412q-48 0 -86 -44t-54 -110q88 10 140.5 37.5t52.5 70.5q0 46 -53 46zM240 541l-109 131h134l64 -131
h-89z" />
    <glyph glyph-name="afii10071" unicode="&#x451;" horiz-adv-x="446" 
d="M199 -12q-85 0 -129.5 51.5t-44.5 133.5q0 136 79 230t191 94q64 0 101.5 -31t37.5 -88q0 -154 -304 -192q0 -111 84 -111q65 0 125 54l47 -69q-81 -72 -187 -72zM278 412q-48 0 -86 -44t-54 -110q88 10 140.5 37.5t52.5 70.5q0 46 -53 46zM197 543q-26 0 -43.5 17.5
t-17.5 43.5t17.5 43.5t43.5 17.5q27 0 45 -17.5t18 -43.5t-18 -43.5t-45 -17.5zM394 543q-26 0 -43.5 17.5t-17.5 43.5t17.5 43.5t43.5 17.5q27 0 45 -17.5t18 -43.5t-18 -43.5t-45 -17.5z" />
    <glyph glyph-name="afii10099" unicode="&#x452;" horiz-adv-x="527" 
d="M231 -139l-30 67q75 25 126.5 144.5t51.5 239.5q0 92 -44 92q-55 0 -108 -86.5t-86 -270.5l-9 -47h-103l103 567h-43l14 80h44l13 73h104l-14 -73h138l-15 -80h-138l-15 -82q-9 -50 -26 -127h2q15 26 29 45.5t37 43.5t53.5 37t65.5 13q52 0 79 -47t27 -116
q0 -156 -75 -300.5t-181 -172.5z" />
    <glyph glyph-name="afii10100" unicode="&#x453;" horiz-adv-x="391" 
d="M173 -12q-75 0 -119 32t-44 90q0 63 35 98t107 67q11 5 31 13.5t28.5 12.5t22.5 11t20 12t13.5 12.5t10 15.5t2.5 18q0 20 -16.5 32t-44.5 12q-56 0 -113 -34l-29 74q69 42 153 42q67 0 107.5 -33.5t40.5 -86.5q0 -61 -36 -97t-109 -68q-10 -4 -27 -11.5t-25 -11
t-20.5 -10t-18.5 -10.5t-13.5 -10t-11 -12t-6 -13.5t-2.5 -16.5q0 -47 75 -47q64 0 129 40l26 -76q-74 -45 -166 -45zM190 541l108 131h143l-156 -131h-95z" />
    <glyph glyph-name="afii10101" unicode="&#x454;" horiz-adv-x="418" 
d="M309 213h-182q-1 -8 -1 -23q0 -57 24 -85.5t65 -28.5q57 0 106 46l48 -69q-70 -65 -167 -65q-84 0 -131 51t-47 140q0 137 81 227t195 90q77 0 124 -32l-46 -79q-34 23 -85 23q-46 0 -87.5 -31.5t-62.5 -86.5h181z" />
    <glyph glyph-name="afii10102" unicode="&#x455;" horiz-adv-x="367" 
d="M138 -12q-93 0 -153 50l48 72q51 -40 106 -40q33 0 51 15t18 40q0 7 -1.5 13.5t-5.5 14t-8 13t-12 15t-13 15t-17 17t-18 18.5q-36 38 -53 66.5t-17 66.5q0 60 44 96.5t119 36.5q80 0 130 -40l-48 -70q-38 28 -84 28q-28 0 -44.5 -12.5t-16.5 -36.5q0 -5 1.5 -10.5
t3 -9.5t5.5 -10t7 -10t9.5 -11.5t10.5 -11.5t13 -13.5t14 -14.5q34 -35 47 -50.5t26 -42.5t13 -57q0 -62 -45.5 -99.5t-129.5 -37.5z" />
    <glyph glyph-name="afii10103" unicode="&#x456;" horiz-adv-x="249" 
d="M190 562q-28 0 -47.5 20t-19.5 47t19.5 46.5t47.5 19.5q29 0 48 -19.5t19 -46.5q0 -28 -19 -47.5t-48 -19.5zM28 0l88 484h104l-88 -484h-104z" />
    <glyph glyph-name="afii10104" unicode="&#x457;" horiz-adv-x="249" 
d="M28 0l88 484h104l-88 -484h-104zM84 543q-26 0 -43.5 17.5t-17.5 43.5t17.5 43.5t43.5 17.5q27 0 45 -17.5t18 -43.5t-18 -43.5t-45 -17.5zM281 543q-26 0 -43.5 17.5t-17.5 43.5t17.5 43.5t43.5 17.5q27 0 45 -17.5t18 -43.5t-18 -43.5t-45 -17.5z" />
    <glyph glyph-name="afii10105" unicode="&#x458;" horiz-adv-x="245" 
d="M-69 -230q-40 0 -82 15l34 84q18 -10 47 -10q41 0 61.5 28t31.5 89l91 508h104l-91 -516q-17 -94 -61.5 -146t-134.5 -52zM189 562q-28 0 -47.5 20t-19.5 47t19.5 46.5t47.5 19.5t47.5 -19.5t19.5 -46.5t-19.5 -47t-47.5 -20z" />
    <glyph glyph-name="afii10106" unicode="&#x459;" horiz-adv-x="778" 
d="M499 -13q-115 0 -183 31l75 383h-149l-46 -184q-29 -115 -80.5 -170t-127.5 -55l-1 80q37 3 64.5 43t50.5 124l64 245h340l-22 -115q-14 -78 -30 -134h2q59 95 151 95q61 0 99 -37.5t38 -101.5q0 -89 -71 -146.5t-174 -57.5zM509 66q58 0 91.5 33t33.5 81
q0 29 -17.5 46.5t-48.5 17.5q-42 0 -81 -40.5t-51 -101.5l-4 -23q31 -13 77 -13z" />
    <glyph glyph-name="afii10107" unicode="&#x45a;" horiz-adv-x="798" 
d="M520 -13q-117 0 -183 31l34 191h-199l-38 -209h-105l87 484h105l-34 -190h199l35 190h105l-21 -115q-14 -78 -30 -134h2q59 95 151 95q61 0 99 -37.5t38 -101.5q0 -89 -71 -146.5t-174 -57.5zM530 66q58 0 91.5 33t33.5 81q0 29 -17.5 46.5t-48.5 17.5q-42 0 -81 -40
t-51 -102l-4 -23q29 -13 77 -13z" />
    <glyph glyph-name="afii10108" unicode="&#x45b;" horiz-adv-x="527" 
d="M29 0l103 567h-43l14 80h44l13 73h104l-14 -73h138l-15 -80h-138l-15 -82q-9 -50 -26 -127h2q15 26 29 45.5t37 43.5t53.5 37t65.5 13q51 0 77.5 -31.5t26.5 -89.5q0 -30 -5 -55l-59 -321h-104l56 314q4 19 4 37q0 53 -42 53q-55 0 -108 -86.5t-86 -270.5l-9 -47h-103z
" />
    <glyph glyph-name="afii10109" unicode="&#x45c;" horiz-adv-x="502" 
d="M29 0l86 484h106l-37 -200h31l184 200h122l-222 -232q27 -24 53 -75q25 -51 42.5 -73.5t36.5 -22.5h11l-15 -81h-37q-42 0 -64.5 23.5t-55.5 88.5q-27 54 -43.5 76t-37.5 22h-18l-37 -210h-105zM249 541l108 131h143l-156 -131h-95z" />
    <glyph glyph-name="uni045D" unicode="&#x45d;" horiz-adv-x="522" 
d="M146 -13q-51 0 -77.5 31.5t-26.5 89.5q0 30 5 55l59 321h104l-56 -314q-4 -20 -4 -38q0 -52 42 -52q53 0 106.5 83.5t84.5 258.5l12 62h103l-45 -252q-28 -158 -32 -232h-102q10 90 22 140h-2q-17 -30 -32 -52t-39.5 -47.5t-55.5 -39.5t-66 -14zM259 541l-109 131h134
l64 -131h-89z" />
    <glyph glyph-name="afii10110" unicode="&#x45e;" horiz-adv-x="471" 
d="M-2 -223q-59 0 -89 18l38 83q25 -11 57 -11q43 0 74.5 26.5t71.5 98.5l-97 492h109l52 -311q2 -15 4.5 -40t3.5 -30h2q1 4 5.5 17.5t9.5 27t10 25.5l142 311h109l-211 -420q-79 -161 -138.5 -224t-152.5 -63zM288 533q-61 0 -99.5 33.5t-38.5 96.5l1 17h85l-1 -12
q0 -62 57 -62q28 0 49 19.5t28 54.5h89q-17 -74 -64.5 -110.5t-105.5 -36.5z" />
    <glyph glyph-name="afii10193" unicode="&#x45f;" horiz-adv-x="522" 
d="M146 -13q-51 0 -77.5 31.5t-26.5 89.5q0 30 5 55l59 321h104l-56 -314q-4 -20 -4 -38q0 -52 42 -52q53 0 106.5 83.5t84.5 258.5l12 62h103l-45 -252q-28 -158 -32 -232h-102q10 90 22 140h-2q-17 -30 -32 -52t-39.5 -47.5t-55.5 -39.5t-66 -14zM156 -212l17 161h89
l-39 -161h-67z" />
    <glyph glyph-name="afii10050" unicode="&#x490;" horiz-adv-x="466" 
d="M43 0l118 666h262l41 145h74l-30 -239h-252l-102 -572h-111z" />
    <glyph glyph-name="afii10098" unicode="&#x491;" horiz-adv-x="403" 
d="M29 0l87 484h216l40 144h66l-24 -228h-207l-72 -400h-106z" />
    <glyph glyph-name="uni0492" unicode="&#x492;" horiz-adv-x="465" 
d="M43 0l57 321h-67l14 80h68l47 265h360l-17 -93h-249l-31 -172h142l-15 -80h-141l-57 -321h-111z" />
    <glyph glyph-name="uni0493" unicode="&#x493;" horiz-adv-x="391" 
d="M-4 201l13 75h164q37 16 55 24.5t35 25.5t17 36q0 52 -61 52q-59 0 -113 -34l-29 74q69 42 153 42q67 0 107.5 -34t40.5 -88q0 -64 -58 -98h67l-13 -75h-188q-38 -18 -57.5 -35.5t-19.5 -40.5q0 -56 75 -56q65 0 128 40l27 -76q-74 -45 -167 -45q-75 0 -118.5 32.5
t-43.5 91.5q0 55 46 89h-60z" />
    <glyph glyph-name="uni0496" unicode="&#x496;" horiz-adv-x="888" 
d="M-25 0l16 92h12q32 0 61.5 30.5t87.5 109.5q75 104 122 127l-183 307h117l159 -284h37l51 284h110l-51 -284h42l257 284h128l-303 -322q34 -30 75 -112q28 -54 41 -77t32 -42.5t38 -19.5h60l-62 -238h-74l16 146q-40 6 -67 39t-66 112q-38 77 -61 108.5t-53 31.5h-20
l-52 -292h-110l53 292h-26q-31 0 -61 -31t-86 -109q-64 -88 -104.5 -120t-94.5 -32h-41z" />
    <glyph glyph-name="uni0497" unicode="&#x497;" horiz-adv-x="907" 
d="M359 0l37 209h-89q-20 -103 -81 -162t-150 -59q-59 0 -93 24l45 79q24 -15 55 -15q60 0 94.5 58.5t34.5 159.5q0 50 -16 82.5t-46 32.5q-36 0 -66 -28l-42 69q52 46 128 46q75 0 112.5 -61.5t33.5 -140.5h95l36 190h99l-35 -190h92q23 94 83 148t144 54q60 0 94 -24
l-45 -79q-24 15 -55 15q-60 0 -94.5 -58.5t-34.5 -159.5q0 -115 62 -115q35 0 66 28l67 -22l-49 -226h-71l13 144q-24 -11 -55 -11q-69 0 -107 62.5t-30 158.5h-95l-37 -209h-100z" />
    <glyph glyph-name="uni049A" unicode="&#x49a;" horiz-adv-x="596" 
d="M43 0l120 666h110l-51 -284h43l259 284h125l-303 -322q32 -28 75 -112q38 -76 60.5 -107.5t49.5 -31.5h61l-63 -238h-73l16 146q-40 6 -67 39t-66 112q-37 76 -61 108t-53 32h-20l-52 -292h-110z" />
    <glyph glyph-name="uni049B" unicode="&#x49b;" horiz-adv-x="501" 
d="M29 0l86 484h105l-36 -200h31l184 200h122l-222 -232q27 -24 53 -76q24 -50 42 -72.5t37 -22.5h49l-50 -226h-71l14 146q-33 4 -53.5 28t-49.5 83q-26 53 -43 75.5t-38 22.5h-18l-37 -210h-105z" />
    <glyph glyph-name="uni049C" unicode="&#x49c;" horiz-adv-x="651" 
d="M371 550l-30 -168h15l220 284h120l-265 -327q7 -10 13 -24.5t17.5 -44.5t19.5 -51q47 -126 106 -126h15l-16 -93h-37q-54 0 -86.5 33t-68.5 120q-8 19 -17 42.5t-14.5 37.5t-11.5 27.5t-12.5 21t-13.5 9.5l-29 -166h-77l29 167h-43l-52 -292h-110l120 666h110l-51 -284
h42l30 168h77z" />
    <glyph glyph-name="uni049D" unicode="&#x49d;" horiz-adv-x="541" 
d="M301 411l-23 -127h6l155 200h114l-192 -239q9 -11 34 -78q35 -86 76 -86h11l-15 -81h-37q-44 0 -69 24t-51 88q-6 14 -12 31t-9.5 27t-8 19.5t-8 14t-7.5 5.5l-22 -124h-63l22 125h-31l-37 -210h-105l86 484h105l-36 -200h31l22 127h64z" />
    <glyph glyph-name="uni04A2" unicode="&#x4a2;" horiz-adv-x="722" 
d="M43 0l118 666h111l-48 -271h327l48 271h111l-103 -573h68l-62 -238h-74l17 145h-76l54 302h-326l-54 -302h-111z" />
    <glyph glyph-name="uni04A3" unicode="&#x4a3;" horiz-adv-x="554" 
d="M29 0l87 484h105l-34 -190h199l35 190h105l-72 -396h44l-51 -233h-71l14 145h-57l38 209h-199l-38 -209h-105z" />
    <glyph glyph-name="uni04AE" unicode="&#x4ae;" horiz-adv-x="571" 
d="M191 0l45 251l-147 415h115l105 -312h1l203 312h115l-281 -416l-45 -250h-111z" />
    <glyph glyph-name="uni04AF" unicode="&#x4af;" horiz-adv-x="450" 
d="M72 -218l42 235l-68 467h108l30 -271q3 -33 6 -85h2l185 356h109l-269 -476l-41 -226h-104z" />
    <glyph glyph-name="uni04B0" unicode="&#x4b0;" horiz-adv-x="571" 
d="M191 0l26 148h-160l15 80h160l4 23l-147 415h115l105 -312h1l203 312h115l-281 -416l-4 -22h160l-15 -80h-160l-26 -148h-111z" />
    <glyph glyph-name="uni04B1" unicode="&#x4b1;" horiz-adv-x="450" 
d="M311 -79h-110l-25 -139h-104l25 139h-106l14 79h106l3 17l-68 467h108l30 -271q3 -33 6 -85h2l185 356h109l-269 -475l-2 -9h110z" />
    <glyph glyph-name="uni04B2" unicode="&#x4b2;" horiz-adv-x="583" 
d="M-19 0l268 346l-140 320h118l98 -239l171 239h118l-247 -323l112 -256h87l-61 -232h-74l16 145h-48l-108 262l-191 -262h-119z" />
    <glyph glyph-name="uni04B3" unicode="&#x4b3;" horiz-adv-x="457" 
d="M-37 0l208 250l-114 234h115l68 -154l118 154h113l-191 -233l82 -174h87l-49 -222h-70l13 145h-59l-74 171l-134 -171h-113z" />
    <glyph glyph-name="uni04B6" unicode="&#x4b6;" horiz-adv-x="632" 
d="M390 0l48 270q-32 -36 -84.5 -63t-113.5 -27q-78 0 -122.5 41t-44.5 112q0 24 4 45l52 288h111l-50 -271q-10 -54 12 -89t78 -35q49 0 97.5 28t76.5 59l56 308h110l-103 -573h68l-63 -238h-74l17 145h-75z" />
    <glyph glyph-name="uni04B7" unicode="&#x4b7;" horiz-adv-x="504" 
d="M301 0q21 151 46 270h-2q-30 -54 -78 -89.5t-109 -35.5q-51 0 -77.5 31.5t-26.5 88.5q0 30 5 56l29 163h104l-26 -157q-14 -90 38 -90q56 0 104.5 61.5t63.5 153.5l5 32h103l-45 -253q-13 -72 -23 -143h43l-51 -233h-71l14 145h-46z" />
    <glyph glyph-name="uni04B8" unicode="&#x4b8;" horiz-adv-x="632" 
d="M390 0l48 270q-46 -50 -111 -74l-23 -132h-77l20 116h-7q-78 0 -122.5 41t-44.5 112q0 24 4 45l52 288h111l-50 -271q-9 -50 9 -84t64 -39l27 152h77l-25 -141q65 23 112 75l56 308h110l-120 -666h-110z" />
    <glyph glyph-name="uni04B9" unicode="&#x4b9;" horiz-adv-x="513" 
d="M284 340l-15 -85q41 25 71 76.5t41 120.5l5 32h103l-45 -253q-22 -125 -33 -231h-101q21 156 47 270h-2q-43 -72 -101 -102l-21 -118h-61l17 96q-9 -1 -28 -1q-52 0 -79.5 31.5t-27.5 88.5q0 21 5 56l29 163h104l-26 -157q-14 -89 39 -90l18 103h61z" />
    <glyph glyph-name="uni04BA" unicode="&#x4ba;" horiz-adv-x="632" 
d="M273 666l-48 -270q32 36 84.5 63t113.5 27q78 0 122.5 -41t44.5 -112q0 -24 -4 -45l-52 -288h-111l50 271q10 54 -12 89t-78 35q-49 0 -97.5 -28t-76.5 -59l-56 -308h-110l120 666h110z" />
    <glyph glyph-name="uni04BB" unicode="&#x4bb;" horiz-adv-x="522" 
d="M23 0l132 720h103l-43 -235q-8 -43 -27 -127h2q15 26 29 45.5t37 43.5t53.5 37t65.5 13q51 0 77.5 -31.5t26.5 -89.5q0 -30 -5 -55l-59 -321h-103l55 314q4 20 4 38q0 52 -42 52q-55 0 -108 -86.5t-86 -270.5l-8 -47h-104z" />
    <glyph glyph-name="uni04C0" unicode="&#x4c0;" horiz-adv-x="296" 
d="M48 0l119 666h112l-119 -666h-112z" />
    <glyph glyph-name="uni04CF" unicode="&#x4cf;" horiz-adv-x="249" 
d="M28 0l130 720h104l-130 -720h-104z" />
    <glyph glyph-name="uni04D8" unicode="&#x4d8;" horiz-adv-x="710" 
d="M226 528l-46 78q38 32 96.5 52t121.5 20q138 0 212.5 -82.5t74.5 -206.5q0 -103 -42 -193.5t-125 -149t-188 -58.5q-128 0 -201.5 84t-73.5 205q0 38 10 83h502q0 4 0.5 13.5t0.5 14.5q0 86 -45.5 142t-132.5 56q-92 0 -164 -58zM337 80q79 0 135 54.5t80 140.5h-382
q1 -86 45.5 -140.5t121.5 -54.5z" />
    <glyph glyph-name="afii10846" unicode="&#x4d9;" horiz-adv-x="446" 
d="M251 497q85 0 129.5 -51.5t44.5 -133.5q0 -136 -79 -230t-191 -94q-64 0 -101.5 31t-37.5 88t44 98t108.5 62t150.5 31q3 113 -83 113q-66 0 -125 -55l-47 69q81 72 187 72zM172 73q48 0 87 44t54 110q-87 -9 -140.5 -37t-53.5 -71q0 -46 53 -46z" />
    <glyph glyph-name="uni04E2" unicode="&#x4e2;" horiz-adv-x="719" 
d="M43 0l120 666h103l-75 -414q-7 -41 -19 -97h2q21 33 84 105l346 406h103l-120 -666h-104l76 414q10 63 19 97h-2q-21 -33 -84 -105l-346 -406h-103zM311 748l14 80h275l-14 -80h-275z" />
    <glyph glyph-name="uni04E3" unicode="&#x4e3;" horiz-adv-x="522" 
d="M146 -13q-51 0 -77.5 31.5t-26.5 89.5q0 30 5 55l59 321h104l-56 -314q-4 -20 -4 -38q0 -52 42 -52q53 0 106.5 83.5t84.5 258.5l12 62h103l-45 -252q-28 -158 -32 -232h-102q10 90 22 140h-2q-17 -30 -32 -52t-39.5 -47.5t-55.5 -39.5t-66 -14zM174 567l14 80h275
l-14 -80h-275z" />
    <glyph glyph-name="uni04E8" unicode="&#x4e8;" horiz-adv-x="744" 
d="M344 -12q-134 0 -211.5 84t-77.5 205q0 102 45.5 193t133.5 149.5t198 58.5q138 0 212.5 -82.5t74.5 -206.5q0 -103 -44.5 -193.5t-132 -149t-198.5 -58.5zM351 80q90 0 152 59t86 150h-417v-10q0 -87 47.5 -143t131.5 -56zM424 586q-90 0 -152.5 -58t-86.5 -149h417v9
q0 86 -45.5 142t-132.5 56z" />
    <glyph glyph-name="uni04E9" unicode="&#x4e9;" horiz-adv-x="498" 
d="M209 -12q-89 0 -136 58.5t-47 142.5q0 123 75.5 215.5t186.5 92.5q87 0 135.5 -57t48.5 -144q0 -128 -75 -218t-188 -90zM218 70q48 0 83.5 39t52.5 98h-224v-15q0 -57 22.5 -89.5t65.5 -32.5zM280 414q-46 0 -81.5 -37.5t-54.5 -93.5h223v7q0 124 -87 124z" />
    <glyph glyph-name="uni04EE" unicode="&#x4ee;" horiz-adv-x="563" 
d="M79 -3q-35 0 -55 8l29 85q11 -4 35 -4q38 0 66 23t58 73l18 30l-119 454h104l89 -341l207 341h112l-321 -521q-50 -82 -99.5 -115t-123.5 -33zM236 748l14 80h275l-14 -80h-275z" />
    <glyph glyph-name="uni04EF" unicode="&#x4ef;" horiz-adv-x="471" 
d="M-2 -223q-59 0 -89 18l38 83q25 -11 57 -11q43 0 74.5 26.5t71.5 98.5l-97 492h109l52 -311q2 -15 4.5 -40t3.5 -30h2q1 4 5.5 17.5t9.5 27t10 25.5l142 311h109l-211 -420q-79 -161 -138.5 -224t-152.5 -63zM151 567l14 80h275l-14 -80h-275z" />
    <glyph glyph-name="Wgrave" unicode="&#x1e80;" horiz-adv-x="877" 
d="M153 0l-61 666h111l29 -373q7 -96 7 -137h2q12 34 56 138l160 372h110l37 -383q7 -81 9 -127h3q15 46 48 127l157 383h112l-292 -666h-104l-37 390q-3 34 -6.5 84.5t-4.5 59.5h-2q-26 -69 -60 -144l-173 -390h-101zM471 722l-109 131h134l64 -131h-89z" />
    <glyph glyph-name="wgrave" unicode="&#x1e81;" horiz-adv-x="705" 
d="M101 0l-51 484h107l19 -253q1 -22 2 -57t1 -42h2l168 352h94l17 -248q4 -57 4 -99h2l167 347h107l-248 -484h-94l-25 356h-2l-178 -356h-92zM355 541l-109 131h134l64 -131h-89z" />
    <glyph glyph-name="Wacute" unicode="&#x1e82;" horiz-adv-x="877" 
d="M153 0l-61 666h111l29 -373q7 -96 7 -137h2q12 34 56 138l160 372h110l37 -383q7 -81 9 -127h3q15 46 48 127l157 383h112l-292 -666h-104l-37 390q-3 34 -6.5 84.5t-4.5 59.5h-2q-26 -69 -60 -144l-173 -390h-101zM472 722l108 131h143l-156 -131h-95z" />
    <glyph glyph-name="wacute" unicode="&#x1e83;" horiz-adv-x="705" 
d="M101 0l-51 484h107l19 -253q1 -22 2 -57t1 -42h2l168 352h94l17 -248q4 -57 4 -99h2l167 347h107l-248 -484h-94l-25 356h-2l-178 -356h-92zM356 541l108 131h143l-156 -131h-95z" />
    <glyph glyph-name="Wdieresis" unicode="&#x1e84;" horiz-adv-x="877" 
d="M153 0l-61 666h111l29 -373q7 -96 7 -137h2q12 34 56 138l160 372h110l37 -383q7 -81 9 -127h3q15 46 48 127l157 383h112l-292 -666h-104l-37 390q-3 34 -6.5 84.5t-4.5 59.5h-2q-26 -69 -60 -144l-173 -390h-101zM428 724q-26 0 -43.5 17.5t-17.5 43.5t17.5 43.5
t43.5 17.5q27 0 45 -17.5t18 -43.5t-18 -43.5t-45 -17.5zM625 724q-26 0 -43.5 17.5t-17.5 43.5t17.5 43.5t43.5 17.5q27 0 45 -17.5t18 -43.5t-18 -43.5t-45 -17.5z" />
    <glyph glyph-name="wdieresis" unicode="&#x1e85;" horiz-adv-x="705" 
d="M101 0l-51 484h107l19 -253q1 -22 2 -57t1 -42h2l168 352h94l17 -248q4 -57 4 -99h2l167 347h107l-248 -484h-94l-25 356h-2l-178 -356h-92zM311 543q-26 0 -43.5 17.5t-17.5 43.5t17.5 43.5t43.5 17.5q27 0 45 -17.5t18 -43.5t-18 -43.5t-45 -17.5zM508 543
q-26 0 -43.5 17.5t-17.5 43.5t17.5 43.5t43.5 17.5q27 0 45 -17.5t18 -43.5t-18 -43.5t-45 -17.5z" />
    <glyph glyph-name="Ygrave" unicode="&#x1ef2;" horiz-adv-x="571" 
d="M191 0l45 251l-147 415h115l105 -312h1l203 312h115l-281 -416l-45 -250h-111zM315 722l-109 131h134l64 -131h-89z" />
    <glyph glyph-name="ygrave" unicode="&#x1ef3;" horiz-adv-x="471" 
d="M-2 -223q-59 0 -89 18l38 83q25 -11 57 -11q43 0 74.5 26.5t71.5 98.5l-97 492h109l52 -311q2 -15 4.5 -40t3.5 -30h2q1 4 5.5 17.5t9.5 27t10 25.5l142 311h109l-211 -420q-79 -161 -138.5 -224t-152.5 -63zM229 541l-109 131h134l64 -131h-89z" />
    <glyph glyph-name="uni2007" unicode="&#x2007;" horiz-adv-x="545" 
 />
    <glyph glyph-name="uni2008" unicode="&#x2008;" horiz-adv-x="245" 
 />
    <glyph glyph-name="uni200B" unicode="&#x200b;" horiz-adv-x="0" 
 />
    <glyph glyph-name="endash" unicode="&#x2013;" horiz-adv-x="560" 
d="M46 229l15 84h462l-14 -84h-463z" />
    <glyph glyph-name="emdash" unicode="&#x2014;" horiz-adv-x="872" 
d="M46 229l15 84h775l-15 -84h-775z" />
    <glyph glyph-name="afii00208" unicode="&#x2015;" horiz-adv-x="872" 
d="M46 229l15 84h775l-15 -84h-775z" />
    <glyph glyph-name="quoteleft" unicode="&#x2018;" horiz-adv-x="215" 
d="M151 409q-32 0 -52.5 21.5t-20.5 57.5q0 53 37.5 107t87.5 95l38 -34q-54 -56 -54 -94q0 -17 15.5 -42t15.5 -47q0 -27 -19.5 -45.5t-47.5 -18.5z" />
    <glyph glyph-name="quoteright" unicode="&#x2019;" horiz-adv-x="215" 
d="M115 396l-39 35q55 55 55 94q0 17 -15.5 41.5t-15.5 46.5q0 28 19.5 46.5t47.5 18.5q31 0 51.5 -21.5t20.5 -58.5q0 -52 -37 -106t-87 -96z" />
    <glyph glyph-name="quotesinglbase" unicode="&#x201a;" horiz-adv-x="215" 
d="M22 -149l-38 34q54 56 54 94q0 17 -15.5 42t-15.5 47q0 27 19.5 45.5t47.5 18.5q32 0 52.5 -21.5t20.5 -57.5q0 -53 -37.5 -107t-87.5 -95z" />
    <glyph glyph-name="quotedblleft" unicode="&#x201c;" horiz-adv-x="407" 
d="M151 409q-32 0 -52.5 21.5t-20.5 57.5q0 53 37.5 107t87.5 95l38 -34q-54 -56 -54 -94q0 -17 15.5 -42t15.5 -47q0 -27 -19.5 -45.5t-47.5 -18.5zM343 409q-32 0 -52.5 21.5t-20.5 57.5q0 53 37.5 107t87.5 95l39 -34q-55 -55 -55 -94q0 -17 15.5 -42t15.5 -47
q0 -27 -19.5 -45.5t-47.5 -18.5z" />
    <glyph glyph-name="quotedblright" unicode="&#x201d;" horiz-adv-x="407" 
d="M115 396l-39 35q55 55 55 94q0 17 -15.5 41.5t-15.5 46.5q0 28 19.5 46.5t47.5 18.5q31 0 51.5 -21.5t20.5 -58.5q0 -52 -37 -106t-87 -96zM307 396l-39 35q55 55 55 94q0 17 -15.5 41.5t-15.5 46.5q0 28 19.5 46.5t47.5 18.5q32 0 52.5 -21.5t20.5 -58.5q0 -52 -37 -106
t-88 -96z" />
    <glyph glyph-name="quotedblbase" unicode="&#x201e;" horiz-adv-x="407" 
d="M22 -149l-38 34q54 56 54 94q0 17 -15.5 42t-15.5 47q0 27 19.5 45.5t47.5 18.5q32 0 52.5 -21.5t20.5 -57.5q0 -53 -37.5 -107t-87.5 -95zM214 -149l-38 34q54 56 54 94q0 17 -15.5 42t-15.5 47q0 27 19.5 45.5t47.5 18.5q32 0 52.5 -21.5t20.5 -57.5q0 -53 -37.5 -107
t-87.5 -95z" />
    <glyph glyph-name="dagger" unicode="&#x2020;" horiz-adv-x="537" 
d="M162 -170l50 434l41 133l-76 -9h-109l17 96h108l73 -9l6 108l24 137h113l-24 -137l-33 -108l78 9h107l-17 -96h-107l-74 9l-7 -133l-103 -434h-67z" />
    <glyph glyph-name="daggerdbl" unicode="&#x2021;" horiz-adv-x="545" 
d="M140 -169l23 127l34 108l-78 -9h-110l18 96h109l75 -9l6 127l40 126l-77 -9h-110l17 96h110l74 -9l6 108l25 137h114l-24 -137l-34 -108l78 9h109l-17 -96h-109l-75 9l-7 -126l-40 -127l78 9h110l-18 -96h-109l-74 9l-7 -108l-23 -127h-114z" />
    <glyph glyph-name="bullet" unicode="&#x2022;" horiz-adv-x="396" 
d="M198 134q-62 0 -106.5 44.5t-44.5 107.5q0 64 44.5 109t106.5 45q63 0 107 -45t44 -109q0 -63 -44 -107.5t-107 -44.5z" />
    <glyph glyph-name="ellipsis" unicode="&#x2026;" horiz-adv-x="686" 
d="M94 -10q-31 0 -52.5 21.5t-21.5 51.5t21.5 51t52.5 21q30 0 52 -21t22 -51t-22 -51.5t-52 -21.5zM314 -10q-31 0 -52 21.5t-21 51.5t21 51t52 21t52.5 -21t21.5 -51t-21.5 -51.5t-52.5 -21.5zM535 -10q-31 0 -52.5 21.5t-21.5 51.5t21.5 51t52.5 21t52.5 -21t21.5 -51
t-21.5 -51.5t-52.5 -21.5z" />
    <glyph glyph-name="perthousand" unicode="&#x2030;" horiz-adv-x="1132" 
d="M174 199q-62 0 -97.5 36.5t-35.5 90.5q0 69 48 119.5t124 50.5q65 0 99.5 -34.5t34.5 -90.5q0 -70 -48.5 -121t-124.5 -51zM182 265q35 0 56 29t21 73q0 63 -53 63q-35 0 -56 -28t-21 -71q0 -66 53 -66zM571 -12q-62 0 -97.5 36.5t-35.5 90.5q0 69 48.5 119.5t123.5 50.5
q65 0 99.5 -34.5t34.5 -90.5q0 -71 -48.5 -121.5t-124.5 -50.5zM579 54q35 0 56 29t21 73q0 63 -53 63q-35 0 -56 -28t-21 -71q0 -66 53 -66zM918 -12q-62 0 -98 36.5t-36 90.5q0 69 48.5 119.5t124.5 50.5q65 0 99.5 -34.5t34.5 -90.5q0 -70 -48.5 -121t-124.5 -51zM925 54
q35 0 56 29t21 73q0 63 -52 63q-35 0 -56 -28t-21 -71q0 -66 52 -66zM164 0l372 484h87l-372 -484h-87z" />
    <glyph glyph-name="guilsinglleft" unicode="&#x2039;" horiz-adv-x="288" 
d="M118 54l-91 190l158 193h113l-163 -198l87 -185h-104z" />
    <glyph glyph-name="guilsinglright" unicode="&#x203a;" horiz-adv-x="290" 
d="M-6 54l160 197l-87 186h104l91 -191l-155 -192h-113z" />
    <glyph glyph-name="fraction" unicode="&#x2044;" horiz-adv-x="125" 
d="M-224 0l523 666h89l-522 -666h-90z" />
    <glyph glyph-name="uni2070" unicode="&#x2070;" horiz-adv-x="384" 
d="M211 331q-63 0 -94.5 36t-31.5 94q0 85 49 148t137 63q63 0 95 -35.5t32 -91.5q0 -88 -49.5 -151t-137.5 -63zM221 398q41 0 65.5 43t24.5 102q0 63 -49 63q-42 0 -66.5 -43t-24.5 -101q0 -64 50 -64z" />
    <glyph glyph-name="uni2074" unicode="&#x2074;" horiz-adv-x="334" 
d="M197 337l12 65h-172l9 53l219 211h80l-39 -201h52l-12 -63h-52l-13 -65h-84zM137 463q12 2 36 2h51l20 102h-1z" />
    <glyph glyph-name="uni2075" unicode="&#x2075;" horiz-adv-x="298" 
d="M118 331q-40 0 -68 10l20 65q19 -8 54 -8q38 0 62 13.5t24 38.5q0 20 -22 30.5t-56 10.5q-30 0 -44 -3l38 178h196l-11 -66h-124l-11 -51q53 -3 88.5 -26.5t35.5 -64.5q0 -60 -47.5 -93.5t-134.5 -33.5z" />
    <glyph glyph-name="uni2076" unicode="&#x2076;" horiz-adv-x="336" 
d="M199 331q-65 0 -95.5 33.5t-30.5 84.5q1 101 77 162t192 61l10 -60q-131 -3 -183 -90q29 20 79 20q44 0 70 -22t26 -63q0 -57 -42 -91.5t-103 -34.5zM202 392q25 0 42 16.5t17 39.5q0 17 -13 26.5t-32 9.5q-38 0 -60 -17q-1 -8 -1 -23q0 -24 13 -38t34 -14z" />
    <glyph glyph-name="uni2077" unicode="&#x2077;" horiz-adv-x="300" 
d="M153 323l-68 30l150 243h-148l12 70h246l-8 -42z" />
    <glyph glyph-name="uni2078" unicode="&#x2078;" horiz-adv-x="330" 
d="M188 331q-58 0 -92 21.5t-34 57.5q0 59 87 95q-45 29 -45 70q0 43 40.5 70t95.5 27q53 0 85.5 -19.5t32.5 -56.5q0 -49 -79 -86q56 -33 56 -75q0 -44 -39.5 -74t-107.5 -30zM192 388q24 0 42 11t18 28q0 20 -49 45q-60 -25 -60 -53q0 -13 14 -22t35 -9zM222 541
q18 8 27.5 13.5t18.5 14.5t9 19q0 11 -11.5 19t-29.5 8q-21 0 -36 -10t-15 -25q0 -11 9 -19.5t28 -19.5z" />
    <glyph glyph-name="uni2079" unicode="&#x2079;" horiz-adv-x="338" 
d="M91 329l-12 61q63 2 111.5 24.5t70.5 66.5q-32 -20 -78 -20q-43 0 -69.5 22t-26.5 64q0 57 43.5 91t102.5 34q65 0 94.5 -33t29.5 -84q0 -102 -72 -164t-194 -62zM216 520q37 0 59 16q2 7 2 24q0 24 -13.5 37.5t-34.5 13.5q-25 0 -42.5 -16.5t-17.5 -38.5
q0 -17 13.5 -26.5t33.5 -9.5z" />
    <glyph glyph-name="uni207A" unicode="&#x207a;" horiz-adv-x="328" 
d="M156 389l17 82h-95l12 63h94l16 82h68l-16 -82h93l-12 -63h-93l-17 -82h-67z" />
    <glyph glyph-name="uni207B" unicode="&#x207b;" horiz-adv-x="304" 
d="M89 472l13 62h208l-13 -62h-208z" />
    <glyph glyph-name="uni207D" unicode="&#x207d;" horiz-adv-x="218" 
d="M137 277q-63 70 -63 166q0 93 47 163t99 106h85q-31 -24 -59.5 -55t-57 -91t-28.5 -123q0 -100 57 -166h-80z" />
    <glyph glyph-name="uni207E" unicode="&#x207e;" horiz-adv-x="218" 
d="M6 277q22 17 43 39t46 56t40.5 79.5t15.5 94.5q0 99 -56 166h79q64 -69 64 -166q0 -65 -28.5 -125t-58 -91.5t-60.5 -52.5h-85z" />
    <glyph glyph-name="uni2080" unicode="&#x2080;" horiz-adv-x="384" 
d="M150 -206q-63 0 -94.5 36t-31.5 93q0 85 49 148.5t137 63.5q64 0 95.5 -35.5t31.5 -92.5q0 -88 -49.5 -150.5t-137.5 -62.5zM160 -139q41 0 65.5 43t24.5 102q0 62 -49 62q-42 0 -66.5 -43t-24.5 -101q0 -63 50 -63z" />
    <glyph glyph-name="uni2081" unicode="&#x2081;" horiz-adv-x="264" 
d="M67 -200l49 257l-82 -21l-18 64l128 29h69l-63 -329h-83z" />
    <glyph glyph-name="uni2082" unicode="&#x2082;" horiz-adv-x="331" 
d="M-16 -200l8 45q10 7 33.5 23t33.5 23.5t29.5 21.5t29 22t23.5 20t21 21t14.5 19.5t10.5 20t3 19.5q0 32 -43 32q-42 0 -81 -30l-36 53q55 45 132 45q58 0 89 -22t31 -60q0 -49 -41 -91t-123 -98q12 3 50 3h97l-13 -67h-268z" />
    <glyph glyph-name="uni2083" unicode="&#x2083;" horiz-adv-x="305" 
d="M61 -206q-45 0 -71 11l22 65q24 -10 57 -10q37 0 60 11.5t23 34.5q0 38 -94 36l10 54q47 2 74.5 15.5t27.5 33.5q0 25 -38 25q-37 0 -71 -19l-28 53q52 31 118 31q52 0 80 -18.5t28 -49.5q0 -62 -87 -86v-1q28 -3 49.5 -21.5t21.5 -47.5q0 -54 -46 -85.5t-136 -31.5z" />
    <glyph glyph-name="uni2084" unicode="&#x2084;" horiz-adv-x="334" 
d="M136 -200l12 64h-173l10 53l219 212h79l-38 -201h52l-12 -64h-52l-13 -64h-84zM76 -74q12 2 36 2h51l20 102h-1z" />
    <glyph glyph-name="uni2085" unicode="&#x2085;" horiz-adv-x="298" 
d="M57 -206q-43 0 -68 9l20 66q22 -9 54 -9q38 0 62 13.5t24 38.5q0 20 -22 30.5t-56 10.5q-31 0 -44 -3l38 179h196l-12 -67h-123l-11 -50q53 -3 88.5 -26.5t35.5 -64.5q0 -60 -47.5 -93.5t-134.5 -33.5z" />
    <glyph glyph-name="uni2086" unicode="&#x2086;" horiz-adv-x="336" 
d="M138 -206q-65 0 -95.5 33t-30.5 85q1 100 77.5 161.5t191.5 61.5l10 -61q-131 -2 -183 -90q28 21 79 21q44 0 70 -22t26 -63q0 -57 -42 -91.5t-103 -34.5zM140 -145q25 0 42.5 16t17.5 39q0 17 -12.5 26.5t-32.5 9.5q-38 0 -60 -16q-2 -18 -2 -24q0 -23 13 -37t34 -14z
" />
    <glyph glyph-name="uni2087" unicode="&#x2087;" horiz-adv-x="300" 
d="M92 -214l-68 30l150 243h-149l13 70h246l-8 -42z" />
    <glyph glyph-name="uni2088" unicode="&#x2088;" horiz-adv-x="330" 
d="M127 -206q-58 0 -92 21.5t-34 57.5q0 57 87 95q-45 29 -45 69q0 43 40.5 70.5t95.5 27.5q52 0 85 -20t33 -56q0 -51 -79 -86q56 -33 56 -75q0 -44 -39.5 -74t-107.5 -30zM131 -149q24 0 42 11t18 27q0 20 -49 46q-30 -13 -45 -24.5t-15 -28.5q0 -13 14 -22t35 -9zM161 4
q55 24 55 47q0 11 -11.5 19t-29.5 8q-21 0 -36 -10t-15 -25q0 -11 9 -19.5t28 -19.5z" />
    <glyph glyph-name="uni2089" unicode="&#x2089;" horiz-adv-x="338" 
d="M29 -208l-11 61q63 1 111.5 24t70.5 67q-32 -20 -78 -20q-44 0 -70.5 22.5t-26.5 63.5q0 57 44 91t103 34q65 0 94.5 -33t29.5 -84q0 -102 -72 -164t-195 -62zM155 -18q35 0 59 17q2 7 2 23q0 24 -13.5 38t-34.5 14q-25 0 -42.5 -16.5t-17.5 -38.5q0 -17 13.5 -27
t33.5 -10z" />
    <glyph glyph-name="uni208A" unicode="&#x208a;" horiz-adv-x="328" 
d="M95 -148l17 82h-95l12 63h94l16 81h68l-16 -81h93l-12 -63h-93l-17 -82h-67z" />
    <glyph glyph-name="uni208B" unicode="&#x208b;" horiz-adv-x="304" 
d="M28 -66l13 63h208l-13 -63h-208z" />
    <glyph glyph-name="uni208D" unicode="&#x208d;" horiz-adv-x="218" 
d="M76 -261q-63 70 -63 167q0 93 47 163t99 106h85q-31 -24 -59.5 -55t-57 -91t-28.5 -123q0 -98 56 -167h-79z" />
    <glyph glyph-name="uni208E" unicode="&#x208e;" horiz-adv-x="218" 
d="M-55 -261q31 24 59.5 55t57 91t28.5 123q0 98 -56 167h79q64 -71 64 -167q0 -50 -15.5 -96t-40.5 -79.5t-47 -56t-44 -37.5h-85z" />
    <glyph glyph-name="Euro" unicode="&#x20ac;" horiz-adv-x="553" 
d="M331 -12q-109 0 -168 64t-68 165h-76l13 77h62q1 24 9 68h-59l14 77h66q39 109 122 174t195 65q101 0 161 -42l-57 -83q-47 32 -115 32q-65 0 -113.5 -39t-74.5 -107h166l-13 -77h-178q-7 -33 -9 -68h174l-13 -77h-159q15 -135 137 -135q59 0 126 42l35 -85
q-78 -51 -177 -51z" />
    <glyph glyph-name="uni20B4" unicode="&#x20b4;" horiz-adv-x="548" 
d="M549 362h-143q-24 -15 -73 -40t-55 -28h259l-12 -71h-338q-16 -22 -20 -45q-7 -41 21 -69.5t82 -28.5q83 0 164 54l36 -79q-84 -67 -210 -67q-104 0 -158 50t-40 131q3 23 20 54h-62l12 71h118q33 24 116 68h-222l13 70h325q38 32 45 67q8 40 -16 64t-69 24
q-76 0 -147 -44l-34 80q86 55 195 55q86 0 137 -46.5t38 -125.5q-7 -40 -36 -74h67z" />
    <glyph glyph-name="afii61352" unicode="&#x2116;" horiz-adv-x="1128" 
d="M43 0l118 666h109l198 -404q29 -57 44 -106h1q6 61 15 108l72 402h100l-118 -666h-100l-207 421q-22 43 -41 99h-2q-6 -55 -14 -100l-75 -420h-100zM917 339q-76 0 -116 40t-40 97q0 79 55 137t145 58q77 0 116.5 -39.5t39.5 -96.5q0 -79 -55 -137.5t-145 -58.5zM925 413
q47 0 71.5 32t24.5 82q0 32 -17 51t-49 19q-47 0 -72 -31t-25 -81q0 -33 17 -52.5t50 -19.5z" />
    <glyph glyph-name="uni2117" unicode="&#x2117;" horiz-adv-x="816" 
d="M428 -14q-153 0 -261.5 109.5t-108.5 263.5t108.5 263.5t261.5 109.5t261.5 -109.5t108.5 -263.5t-108.5 -263.5t-261.5 -109.5zM428 52q131 0 215.5 85.5t84.5 221.5q0 135 -85 221t-215 86q-131 0 -216 -86t-85 -221q0 -136 85 -221.5t216 -85.5zM301 145v432h148
q70 0 108.5 -39.5t38.5 -95.5q0 -58 -41.5 -96t-126.5 -38h-47v-163h-80zM381 368h45q87 0 87 72t-76 72h-56v-144z" />
    <glyph glyph-name="trademark" unicode="&#x2122;" horiz-adv-x="684" 
d="M305 372l87 294h69l29 -157q2 -14 7 -64h2l5 10q4 10 11.5 25.5t14.5 28.5l84 157h76l-17 -294h-69l12 145q1 12 2.5 26.5t3.5 23.5l1 9h-2q0 -10 -30 -67l-76 -137h-59l-24 133q-9 50 -9 71h-2q0 -7 -14 -60l-39 -144h-63zM127 372l41 236h-85l10 58h236l-10 -58h-82
l-41 -236h-69z" />
    <glyph glyph-name="Omega" unicode="&#x2126;" horiz-adv-x="747" 
d="M7 0l17 90h128q-91 79 -91 202q0 164 109.5 275t257.5 111q120 0 201.5 -75t81.5 -193q0 -102 -48 -185.5t-128 -134.5h139l-17 -90h-267l15 86q84 41 138.5 122.5t54.5 186.5q0 80 -49.5 135.5t-129.5 55.5q-109 0 -177.5 -89t-68.5 -209q0 -125 97 -202l-15 -86h-248z
" />
    <glyph glyph-name="uni2150" unicode="&#x2150;" horiz-adv-x="749" 
d="M40 0l523 666h89l-522 -666h-90zM128 337l49 258l-82 -21l-18 63l128 29h69l-62 -329h-84zM541 -14l-68 30l150 243h-149l13 70h246l-8 -42z" />
    <glyph glyph-name="uni2151" unicode="&#x2151;" horiz-adv-x="727" 
d="M40 0l523 666h89l-522 -666h-90zM128 337l49 258l-82 -21l-18 63l128 29h69l-62 -329h-84zM418 -8l-11 61q63 1 111.5 24t70.5 67q-32 -20 -78 -20q-44 0 -70.5 22.5t-26.5 63.5q0 57 44 91t103 34q65 0 94.5 -33t29.5 -84q0 -102 -72 -164t-195 -62zM544 182q35 0 59 17
q2 7 2 23q0 24 -13.5 38t-34.5 14q-25 0 -42.5 -16.5t-17.5 -38.5q0 -17 13.5 -27t33.5 -10z" />
    <glyph glyph-name="uni2152" unicode="&#x2152;" horiz-adv-x="1097" 
d="M40 0l523 666h89l-522 -666h-90zM128 337l49 258l-82 -21l-18 63l128 29h69l-62 -329h-84zM516 0l49 257l-82 -21l-18 64l128 29h69l-63 -329h-83zM863 -6q-63 0 -94.5 36t-31.5 93q0 85 49 148.5t137 63.5q64 0 95.5 -35.5t31.5 -92.5q0 -88 -49.5 -150.5t-137.5 -62.5z
M873 61q41 0 65.5 43t24.5 102q0 62 -49 62q-42 0 -66.5 -43t-24.5 -101q0 -63 50 -63z" />
    <glyph glyph-name="onethird" unicode="&#x2153;" horiz-adv-x="694" 
d="M40 0l523 666h89l-522 -666h-90zM128 337l49 258l-82 -21l-18 63l128 29h69l-62 -329h-84zM450 -6q-45 0 -71 11l22 65q24 -10 57 -10q37 0 60 11.5t23 34.5q0 38 -94 36l10 54q47 2 74.5 15.5t27.5 33.5q0 25 -38 25q-37 0 -71 -19l-28 53q52 31 118 31q52 0 80 -18.5
t28 -49.5q0 -62 -87 -86v-1q28 -3 49.5 -21.5t21.5 -47.5q0 -54 -46 -85.5t-136 -31.5z" />
    <glyph glyph-name="twothirds" unicode="&#x2154;" horiz-adv-x="761" 
d="M107 0l523 666h89l-522 -666h-90zM45 337l8 45q119 83 147 109q51 46 51 81q0 16 -12.5 24.5t-30.5 8.5q-40 0 -81 -31l-36 53q55 45 132 45q58 0 89 -22t31 -60q0 -48 -41.5 -90.5t-122.5 -97.5q1 0 9.5 0.5t20 1t20.5 0.5h97l-13 -67h-268zM517 -6q-45 0 -71 11l22 65
q24 -10 57 -10q37 0 60 11.5t23 34.5q0 38 -94 36l10 54q47 2 74.5 15.5t27.5 33.5q0 25 -38 25q-37 0 -71 -19l-28 53q52 31 118 31q52 0 80 -18.5t28 -49.5q0 -62 -87 -86v-1q28 -3 49.5 -21.5t21.5 -47.5q0 -54 -46 -85.5t-136 -31.5z" />
    <glyph glyph-name="uni2155" unicode="&#x2155;" horiz-adv-x="687" 
d="M40 0l523 666h89l-522 -666h-90zM128 337l49 258l-82 -21l-18 63l128 29h69l-62 -329h-84zM446 -6q-43 0 -68 9l20 66q22 -9 54 -9q38 0 62 13.5t24 38.5q0 20 -22 30.5t-56 10.5q-30 0 -44 -3l38 179h196l-12 -67h-123l-11 -50q53 -3 88.5 -26.5t35.5 -64.5
q0 -60 -47.5 -93.5t-134.5 -33.5z" />
    <glyph glyph-name="uni2156" unicode="&#x2156;" horiz-adv-x="754" 
d="M107 0l523 666h89l-522 -666h-90zM45 337l8 45q119 83 147 109q51 46 51 81q0 16 -12.5 24.5t-30.5 8.5q-40 0 -81 -31l-36 53q55 45 132 45q58 0 89 -22t31 -60q0 -48 -41.5 -90.5t-122.5 -97.5q1 0 9.5 0.5t20 1t20.5 0.5h97l-13 -67h-268zM513 -6q-43 0 -68 9l20 66
q22 -9 54 -9q38 0 62 13.5t24 38.5q0 20 -22 30.5t-56 10.5q-31 0 -44 -3l38 179h196l-12 -67h-123l-11 -50q53 -3 88.5 -26.5t35.5 -64.5q0 -60 -47.5 -93.5t-134.5 -33.5z" />
    <glyph glyph-name="uni2157" unicode="&#x2157;" horiz-adv-x="728" 
d="M81 0l523 666h89l-522 -666h-90zM122 331q-45 0 -71 11l22 65q24 -10 57 -10q36 0 59.5 12t23.5 34q0 38 -94 36l10 54q46 2 74 16t28 34q0 24 -38 24q-35 0 -71 -18l-28 53q50 30 118 30q52 0 80 -18.5t28 -49.5q0 -63 -87 -85v-1q28 -4 49.5 -22.5t21.5 -46.5
q0 -54 -46 -86t-136 -32zM487 -6q-43 0 -68 9l20 66q22 -9 54 -9q38 0 62 13.5t24 38.5q0 20 -22 30.5t-56 10.5q-31 0 -44 -3l38 179h196l-12 -67h-123l-11 -50q53 -3 88.5 -26.5t35.5 -64.5q0 -60 -47.5 -93.5t-134.5 -33.5z" />
    <glyph glyph-name="uni2158" unicode="&#x2158;" horiz-adv-x="757" 
d="M110 0l523 666h89l-522 -666h-90zM197 337l12 65h-172l9 53l219 211h80l-39 -201h52l-12 -63h-52l-13 -65h-84zM137 463q12 2 36 2h51l20 102h-1zM516 -6q-43 0 -68 9l20 66q22 -9 54 -9q38 0 62 13.5t24 38.5q0 20 -22 30.5t-56 10.5q-30 0 -44 -3l38 179h196l-12 -67
h-123l-11 -50q53 -3 88.5 -26.5t35.5 -64.5q0 -60 -47.5 -93.5t-134.5 -33.5z" />
    <glyph glyph-name="uni2159" unicode="&#x2159;" horiz-adv-x="725" 
d="M40 0l523 666h89l-522 -666h-90zM128 337l49 258l-82 -21l-18 63l128 29h69l-62 -329h-84zM527 -6q-65 0 -95.5 33t-30.5 85q1 100 77.5 161.5t191.5 61.5l10 -61q-131 -2 -183 -90q29 21 79 21q44 0 70 -22t26 -63q0 -57 -42 -91.5t-103 -34.5zM529 55q25 0 42.5 16
t17.5 39q0 17 -12.5 26.5t-32.5 9.5q-38 0 -60 -16q-2 -18 -2 -24q0 -23 13 -37t34 -14z" />
    <glyph glyph-name="uni215A" unicode="&#x215a;" horiz-adv-x="759" 
d="M74 0l523 666h89l-522 -666h-90zM118 331q-40 0 -68 10l20 65q19 -8 54 -8q38 0 62 13.5t24 38.5q0 20 -22 30.5t-56 10.5q-30 0 -44 -3l38 178h196l-11 -66h-124l-11 -51q53 -3 88.5 -26.5t35.5 -64.5q0 -60 -47.5 -93.5t-134.5 -33.5zM561 -6q-65 0 -95.5 33t-30.5 85
q1 100 77.5 161.5t191.5 61.5l10 -61q-131 -2 -183 -90q29 21 79 21q44 0 70 -22t26 -63q0 -57 -42 -91.5t-103 -34.5zM563 55q25 0 42.5 16t17.5 39q0 17 -12.5 26.5t-32.5 9.5q-38 0 -60 -16q-2 -18 -2 -24q0 -23 13 -37t34 -14z" />
    <glyph glyph-name="oneeighth" unicode="&#x215b;" horiz-adv-x="719" 
d="M40 0l523 666h89l-522 -666h-90zM128 337l49 258l-82 -21l-18 63l128 29h69l-62 -329h-84zM516 -6q-58 0 -92 21.5t-34 57.5q0 57 87 95q-45 29 -45 69q0 43 40.5 70.5t95.5 27.5q52 0 85 -20t33 -56q0 -51 -79 -86q56 -33 56 -75q0 -44 -39.5 -74t-107.5 -30zM520 51
q24 0 42 11t18 27q0 20 -49 46q-30 -13 -45 -24.5t-15 -28.5q0 -13 14 -22t35 -9zM550 204q55 24 55 47q0 11 -11.5 19t-29.5 8q-21 0 -36 -10t-15 -25q0 -11 9 -19.5t28 -19.5z" />
    <glyph glyph-name="threeeighths" unicode="&#x215c;" horiz-adv-x="760" 
d="M81 0l523 666h89l-522 -666h-90zM122 331q-45 0 -71 11l22 65q24 -10 57 -10q36 0 59.5 12t23.5 34q0 38 -94 36l10 54q46 2 74 16t28 34q0 24 -38 24q-35 0 -71 -18l-28 53q50 30 118 30q52 0 80 -18.5t28 -49.5q0 -63 -87 -85v-1q28 -4 49.5 -22.5t21.5 -46.5
q0 -54 -46 -86t-136 -32zM557 -6q-58 0 -92 21.5t-34 57.5q0 57 87 95q-45 29 -45 69q0 43 40.5 70.5t95.5 27.5q52 0 85 -20t33 -56q0 -51 -79 -86q56 -33 56 -75q0 -44 -39.5 -74t-107.5 -30zM561 51q24 0 42 11t18 27q0 20 -49 46q-30 -13 -45 -24.5t-15 -28.5
q0 -13 14 -22t35 -9zM591 204q55 24 55 47q0 11 -11.5 19t-29.5 8q-21 0 -36 -10t-15 -25q0 -11 9 -19.5t28 -19.5z" />
    <glyph glyph-name="fiveeighths" unicode="&#x215d;" horiz-adv-x="753" 
d="M74 0l523 666h89l-522 -666h-90zM118 331q-40 0 -68 10l20 65q19 -8 54 -8q38 0 62 13.5t24 38.5q0 20 -22 30.5t-56 10.5q-30 0 -44 -3l38 178h196l-11 -66h-124l-11 -51q53 -3 88.5 -26.5t35.5 -64.5q0 -60 -47.5 -93.5t-134.5 -33.5zM550 -6q-58 0 -92 21.5t-34 57.5
q0 57 87 95q-45 29 -45 69q0 43 40.5 70.5t95.5 27.5q52 0 85 -20t33 -56q0 -51 -79 -86q56 -33 56 -75q0 -44 -39.5 -74t-107.5 -30zM554 51q24 0 42 11t18 27q0 20 -49 46q-30 -13 -45 -24.5t-15 -28.5q0 -13 14 -22t35 -9zM584 204q55 24 55 47q0 11 -11.5 19t-29.5 8
q-21 0 -36 -10t-15 -25q0 -11 9 -19.5t28 -19.5z" />
    <glyph glyph-name="seveneighths" unicode="&#x215e;" horiz-adv-x="715" 
d="M36 0l523 666h89l-522 -666h-90zM153 323l-68 30l150 243h-148l12 70h246l-8 -42zM512 -6q-58 0 -92 21.5t-34 57.5q0 57 87 95q-45 29 -45 69q0 43 40.5 70.5t95.5 27.5q52 0 85 -20t33 -56q0 -51 -79 -86q56 -33 56 -75q0 -44 -39.5 -74t-107.5 -30zM516 51q24 0 42 11
t18 27q0 20 -49 46q-30 -13 -45 -24.5t-15 -28.5q0 -13 14 -22t35 -9zM546 204q55 24 55 47q0 11 -11.5 19t-29.5 8q-21 0 -36 -10t-15 -25q0 -11 9 -19.5t28 -19.5z" />
    <glyph glyph-name="uni215F" unicode="&#x215f;" horiz-adv-x="389" 
d="M40 0l523 666h89l-522 -666h-90zM128 337l49 258l-82 -21l-18 63l128 29h69l-62 -329h-84z" />
    <glyph glyph-name="uni2189" unicode="&#x2189;" horiz-adv-x="814" 
d="M160 0l523 666h89l-522 -666h-90zM211 331q-63 0 -94.5 36t-31.5 94q0 85 49 148t137 63q63 0 95 -35.5t32 -91.5q0 -88 -49.5 -151t-137.5 -63zM221 398q41 0 65.5 43t24.5 102q0 63 -49 63q-42 0 -66.5 -43t-24.5 -101q0 -64 50 -64zM570 -6q-45 0 -71 11l22 65
q24 -10 57 -10q37 0 60 11.5t23 34.5q0 38 -94 36l10 54q47 2 74.5 15.5t27.5 33.5q0 25 -38 25q-37 0 -71 -19l-28 53q52 31 118 31q52 0 80 -18.5t28 -49.5q0 -62 -87 -86v-1q28 -3 49.5 -21.5t21.5 -47.5q0 -54 -46 -85.5t-136 -31.5z" />
    <glyph glyph-name="partialdiff" unicode="&#x2202;" horiz-adv-x="631" 
d="M272 -11q-89 0 -147.5 52t-58.5 134q0 108 80.5 180.5t178.5 72.5q52 0 103 -12t77 -30q3 22 3 45q0 67 -38 110t-91.5 59t-120.5 15l46 95h21q137 0 218 -66.5t81 -200.5q0 -110 -42.5 -213t-125 -172t-184.5 -69zM285 81q67 0 121 62t81 155q-24 17 -70 29t-89 12
q-61 0 -103.5 -44t-42.5 -106q0 -47 27.5 -77.5t75.5 -30.5z" />
    <glyph glyph-name="Delta" unicode="&#x2206;" horiz-adv-x="631" 
d="M133 94h310l-66 332q-8 41 -17 116h-2q-32 -75 -53 -116zM-6 0l11 63l324 603h105l127 -603l-12 -63h-555z" />
    <glyph glyph-name="product" unicode="&#x220f;" horiz-adv-x="741" 
d="M32 -224l146 831h-109l16 93h730l-15 -93h-109l-147 -831h-107l146 831h-297l-147 -831h-107z" />
    <glyph glyph-name="summation" unicode="&#x2211;" horiz-adv-x="533" 
d="M-89 -146l12 73l348 413l-194 364l12 74h509l-16 -93h-386l186 -341l-333 -397h418l-16 -93h-540z" />
    <glyph glyph-name="minus" unicode="&#x2212;" horiz-adv-x="550" 
d="M80 221l15 84h369l-15 -84h-369z" />
    <glyph glyph-name="uni2219" unicode="&#x2219;" horiz-adv-x="555" 
d="M277 114q-62 0 -106.5 44.5t-44.5 107.5q0 64 44.5 109t106.5 45q63 0 107 -45t44 -109q0 -63 -44 -107.5t-107 -44.5z" />
    <glyph glyph-name="radical" unicode="&#x221a;" horiz-adv-x="535" 
d="M156 0l-99 484h107l61 -347h1l280 583h111l-362 -720h-99z" />
    <glyph glyph-name="infinity" unicode="&#x221e;" horiz-adv-x="876" 
d="M194 92q-69 0 -114.5 36.5t-45.5 98.5q0 81 69 140t155 59q51 0 99.5 -26.5t109.5 -81.5q160 108 248 108q67 0 112 -36.5t45 -96.5q0 -83 -67.5 -141.5t-157.5 -58.5t-207 107q-86 -58 -141.5 -83t-104.5 -25zM215 181q49 0 164 76q-90 80 -139 80q-40 0 -73.5 -26.5
t-33.5 -62.5q0 -31 23.5 -49t58.5 -18zM668 181q41 0 74 26.5t33 63.5q0 29 -24 47.5t-60 18.5q-47 0 -162 -77q90 -79 139 -79z" />
    <glyph glyph-name="integral" unicode="&#x222b;" horiz-adv-x="306" 
d="M-114 -235q-47 0 -93 30l51 87q36 -17 70 -17q86 0 109 129l102 579q15 88 78 146.5t159 58.5q48 0 93 -30l-54 -87q-33 18 -66 18q-44 0 -71.5 -35.5t-37.5 -92.5l-103 -581q-16 -89 -78.5 -147t-158.5 -58z" />
    <glyph glyph-name="approxequal" unicode="&#x2248;" horiz-adv-x="586" 
d="M64 113l-30 74q74 67 159 67q49 0 102 -29t86 -29q57 0 115 51l26 -76q-68 -66 -164 -66q-48 0 -102 29t-85 29q-51 0 -107 -50zM91 296l-30 74q72 68 159 68q49 0 101.5 -29t85.5 -29q58 0 116 50l26 -76q-69 -66 -164 -66q-48 0 -102 29t-85 29q-51 0 -107 -50z" />
    <glyph glyph-name="notequal" unicode="&#x2260;" horiz-adv-x="589" 
d="M133 -25l-63 38l92 119h-147l14 80h196l66 84h-247l14 80h296l106 135l64 -40l-77 -95h135l-14 -80h-184l-66 -84h235l-14 -80h-284z" />
    <glyph glyph-name="lessequal" unicode="&#x2264;" horiz-adv-x="502" 
d="M424 11l-408 203l13 74l481 203l-18 -98l-358 -142l308 -143zM-45 -136l15 86h444l-15 -86h-444z" />
    <glyph glyph-name="greaterequal" unicode="&#x2265;" horiz-adv-x="503" 
d="M-9 11l17 97l359 143l-308 142l17 98l408 -203l-13 -74zM-34 -136l14 86h444l-15 -86h-443z" />
    <glyph glyph-name="dotmath" unicode="&#x22c5;" horiz-adv-x="555" 
d="M277 194q-30 0 -51.5 21t-21.5 51q0 29 21.5 50t51.5 21t51.5 -21t21.5 -50q0 -30 -21.5 -51t-51.5 -21z" />
    <glyph glyph-name="lozenge" unicode="&#x25ca;" horiz-adv-x="590" 
d="M210 -3l-197 327l314 350h80l198 -330l-312 -347h-83zM273 102l207 237l-134 224l-208 -236z" />
    <glyph glyph-name="uniFB00" unicode="&#xfb00;" horiz-adv-x="632" 
d="M-43 -233q-44 0 -84 17l30 82q30 -13 59 -13q70 0 90 108l81 443h-90l14 80h91l8 47q18 100 69 146.5t143 46.5q86 0 143 -41q49 48 135 48q74 0 122 -31l-43 -80q-37 23 -80 23q-42 0 -63 -25t-30 -72l-11 -62h114l-14 -80h-115l-79 -436q-18 -100 -61.5 -147
t-133.5 -47q-41 0 -81 16l30 82q32 -12 56 -12q66 0 85 104l81 440h-187l-80 -439q-18 -103 -62 -150.5t-137 -47.5zM251 484h186l12 65q6 34 16 57q-39 30 -98 30q-49 0 -73 -24.5t-35 -83.5z" />
    <glyph glyph-name="fi" unicode="&#xfb01;" horiz-adv-x="554" 
d="M-44 -230q-44 0 -84 17l30 82q27 -12 60 -12q69 0 89 107l81 440h-89l14 80h89l11 57q19 99 74 144.5t149 45.5q88 0 147 -37l-44 -80q-47 29 -103 29q-54 0 -82.5 -24.5t-38.5 -81.5l-9 -53h275l-88 -484h-104l73 404h-171l-80 -436q-19 -103 -62.5 -150.5t-136.5 -47.5
z" />
    <glyph glyph-name="fl" unicode="&#xfb02;" horiz-adv-x="561" 
d="M-44 -230q-44 0 -84 17l30 82q27 -12 60 -12q69 0 89 107l81 440h-89l14 80h89l12 65q18 95 72.5 138.5t152.5 43.5q107 0 187 -34l-126 -697h-104l114 632q-39 11 -81 11q-51 0 -77 -22.5t-36 -77.5l-10 -59h106l-14 -80h-107l-80 -436q-19 -103 -62.5 -150.5
t-136.5 -47.5z" />
    <glyph glyph-name="uniFB03" unicode="&#xfb03;" horiz-adv-x="845" 
d="M-43 -233q-44 0 -84 17l30 82q30 -13 59 -13q70 0 90 108l81 443h-90l14 80h91l8 47q18 100 69 146.5t143 46.5q88 0 148 -44q55 51 155 51q89 0 148 -37l-45 -80q-47 29 -103 29q-53 0 -81.5 -24t-38.5 -82l-10 -53h275l-87 -484h-104l73 404h-172l-79 -436
q-19 -103 -62.5 -150.5t-136.5 -47.5q-43 0 -81 17l30 82q26 -12 57 -12q70 0 88 107l81 440h-187l-80 -439q-18 -103 -62 -150.5t-137 -47.5zM251 484h187l10 57q5 28 18 64q-40 31 -99 31q-49 0 -73 -24.5t-35 -83.5z" />
    <glyph glyph-name="uniFB04" unicode="&#xfb04;" horiz-adv-x="852" 
d="M-43 -233q-44 0 -84 17l30 82q30 -13 59 -13q70 0 90 108l81 443h-90l14 80h91l8 47q18 100 69 146.5t143 46.5q85 0 146 -43q54 50 160 50q107 0 187 -34l-126 -697h-104l114 632q-37 11 -81 11q-51 0 -76.5 -22.5t-35.5 -77.5l-11 -59h106l-14 -80h-107l-79 -436
q-18 -100 -61.5 -147t-133.5 -47q-41 0 -81 16l30 82q32 -12 56 -12q66 0 85 104l81 440h-187l-80 -439q-18 -103 -62 -150.5t-137 -47.5zM251 484h186l12 65q5 27 16 56q-38 31 -98 31q-49 0 -73 -24.5t-35 -83.5z" />
    <glyph glyph-name="i.latn_TRK" horiz-adv-x="249" 
d="M190 562q-28 0 -47.5 20t-19.5 47t19.5 46.5t47.5 19.5q29 0 48 -19.5t19 -46.5q0 -28 -19 -47.5t-48 -19.5zM28 0l88 484h104l-88 -484h-104z" />
    <glyph glyph-name="Ldot.latn_CAT" horiz-adv-x="486" 
d="M43 0l119 666h111l-102 -574h249l-16 -92h-361zM401 289q-28 0 -46.5 19.5t-18.5 46.5t18.5 46t46.5 19t47 -19t19 -46t-19 -46.5t-47 -19.5z" />
    <glyph glyph-name="ldot.latn_CAT" horiz-adv-x="360" 
d="M28 0l130 720h104l-130 -720h-104zM324 283q-28 0 -46.5 19.5t-18.5 46.5t18.5 46t46.5 19t47 -19t19 -46t-19 -46.5t-47 -19.5z" />
    <glyph glyph-name="parenleft.numr" horiz-adv-x="218" 
d="M137 277q-63 70 -63 166q0 93 47 163t99 106h85q-31 -24 -59.5 -55t-57 -91t-28.5 -123q0 -100 57 -166h-80z" />
    <glyph glyph-name="parenright.numr" horiz-adv-x="218" 
d="M6 277q22 17 43 39t46 56t40.5 79.5t15.5 94.5q0 99 -56 166h79q64 -69 64 -166q0 -65 -28.5 -125t-58 -91.5t-60.5 -52.5h-85z" />
    <glyph glyph-name="plus.numr" horiz-adv-x="328" 
d="M156 389l17 82h-95l12 63h94l16 82h68l-16 -82h93l-12 -63h-93l-17 -82h-67z" />
    <glyph glyph-name="zero.numr" horiz-adv-x="384" 
d="M211 331q-63 0 -94.5 36t-31.5 94q0 85 49 148t137 63q63 0 95 -35.5t32 -91.5q0 -88 -49.5 -151t-137.5 -63zM221 398q41 0 65.5 43t24.5 102q0 63 -49 63q-42 0 -66.5 -43t-24.5 -101q0 -64 50 -64z" />
    <glyph glyph-name="one.numr" horiz-adv-x="264" 
d="M128 337l49 258l-82 -21l-18 63l128 29h69l-62 -329h-84z" />
    <glyph glyph-name="two.numr" horiz-adv-x="331" 
d="M45 337l8 45q119 83 147 109q51 46 51 81q0 16 -12.5 24.5t-30.5 8.5q-40 0 -81 -31l-36 53q55 45 132 45q58 0 89 -22t31 -60q0 -48 -41.5 -90.5t-122.5 -97.5q1 0 9.5 0.5t20 1t20.5 0.5h97l-13 -67h-268z" />
    <glyph glyph-name="three.numr" horiz-adv-x="305" 
d="M122 331q-45 0 -71 11l22 65q24 -10 57 -10q36 0 59.5 12t23.5 34q0 38 -94 36l10 54q46 2 74 16t28 34q0 24 -38 24q-35 0 -71 -18l-28 53q50 30 118 30q52 0 80 -18.5t28 -49.5q0 -63 -87 -85v-1q28 -4 49.5 -22.5t21.5 -46.5q0 -54 -46 -86t-136 -32z" />
    <glyph glyph-name="four.numr" horiz-adv-x="334" 
d="M197 337l12 65h-172l9 53l219 211h80l-39 -201h52l-12 -63h-52l-13 -65h-84zM137 463q12 2 36 2h51l20 102h-1z" />
    <glyph glyph-name="five.numr" horiz-adv-x="298" 
d="M118 331q-40 0 -68 10l20 65q19 -8 54 -8q38 0 62 13.5t24 38.5q0 20 -22 30.5t-56 10.5q-30 0 -44 -3l38 178h196l-11 -66h-124l-11 -51q53 -3 88.5 -26.5t35.5 -64.5q0 -60 -47.5 -93.5t-134.5 -33.5z" />
    <glyph glyph-name="six.numr" horiz-adv-x="336" 
d="M199 331q-65 0 -95.5 33.5t-30.5 84.5q1 101 77 162t192 61l10 -60q-131 -3 -183 -90q29 20 79 20q44 0 70 -22t26 -63q0 -57 -42 -91.5t-103 -34.5zM202 392q25 0 42 16.5t17 39.5q0 17 -13 26.5t-32 9.5q-38 0 -60 -17q-1 -8 -1 -23q0 -24 13 -38t34 -14z" />
    <glyph glyph-name="seven.numr" horiz-adv-x="300" 
d="M153 323l-68 30l150 243h-148l12 70h246l-8 -42z" />
    <glyph glyph-name="eight.numr" horiz-adv-x="330" 
d="M188 331q-58 0 -92 21.5t-34 57.5q0 59 87 95q-45 29 -45 70q0 43 40.5 70t95.5 27q53 0 85.5 -19.5t32.5 -56.5q0 -49 -79 -86q56 -33 56 -75q0 -44 -39.5 -74t-107.5 -30zM192 388q24 0 42 11t18 28q0 20 -49 45q-60 -25 -60 -53q0 -13 14 -22t35 -9zM222 541
q18 8 27.5 13.5t18.5 14.5t9 19q0 11 -11.5 19t-29.5 8q-21 0 -36 -10t-15 -25q0 -11 9 -19.5t28 -19.5z" />
    <glyph glyph-name="nine.numr" horiz-adv-x="338" 
d="M91 329l-12 61q63 2 111.5 24.5t70.5 66.5q-32 -20 -78 -20q-43 0 -69.5 22t-26.5 64q0 57 43.5 91t102.5 34q65 0 94.5 -33t29.5 -84q0 -102 -72 -164t-194 -62zM216 520q37 0 59 16q2 7 2 24q0 24 -13.5 37.5t-34.5 13.5q-25 0 -42.5 -16.5t-17.5 -38.5
q0 -17 13.5 -26.5t33.5 -9.5z" />
    <glyph glyph-name="minus.numr" horiz-adv-x="304" 
d="M89 472l13 62h208l-13 -62h-208z" />
    <glyph glyph-name="parenleft.dnom" horiz-adv-x="218" 
d="M76 -61q-63 70 -63 167q0 93 47 163t99 106h85q-31 -24 -59.5 -55t-57 -91t-28.5 -123q0 -98 56 -167h-79z" />
    <glyph glyph-name="parenright.dnom" horiz-adv-x="218" 
d="M-55 -61q31 24 59.5 55t57 91t28.5 123q0 98 -56 167h79q64 -71 64 -167q0 -50 -15.5 -96t-40.5 -79.5t-47 -56t-44 -37.5h-85z" />
    <glyph glyph-name="plus.dnom" horiz-adv-x="328" 
d="M95 52l17 82h-95l12 63h94l16 81h68l-16 -81h93l-12 -63h-93l-17 -82h-67z" />
    <glyph glyph-name="zero.dnom" horiz-adv-x="384" 
d="M150 -6q-63 0 -94.5 36t-31.5 93q0 85 49 148.5t137 63.5q64 0 95.5 -35.5t31.5 -92.5q0 -88 -49.5 -150.5t-137.5 -62.5zM160 61q41 0 65.5 43t24.5 102q0 62 -49 62q-42 0 -66.5 -43t-24.5 -101q0 -63 50 -63z" />
    <glyph glyph-name="one.dnom" horiz-adv-x="264" 
d="M67 0l49 257l-82 -21l-18 64l128 29h69l-63 -329h-83z" />
    <glyph glyph-name="two.dnom" horiz-adv-x="331" 
d="M-16 0l8 45q10 7 33.5 23t33.5 23.5t29.5 21.5t29 22t23.5 20t21 21t14.5 19.5t10.5 20t3 19.5q0 32 -43 32q-42 0 -81 -30l-36 53q55 45 132 45q58 0 89 -22t31 -60q0 -49 -41 -91t-123 -98q12 3 50 3h97l-13 -67h-268z" />
    <glyph glyph-name="three.dnom" horiz-adv-x="305" 
d="M61 -6q-45 0 -71 11l22 65q24 -10 57 -10q37 0 60 11.5t23 34.5q0 38 -94 36l10 54q47 2 74.5 15.5t27.5 33.5q0 25 -38 25q-37 0 -71 -19l-28 53q52 31 118 31q52 0 80 -18.5t28 -49.5q0 -62 -87 -86v-1q28 -3 49.5 -21.5t21.5 -47.5q0 -54 -46 -85.5t-136 -31.5z" />
    </font>
</defs>
</svg>
